<?xml version="1.0" encoding="UTF-8" standalone="no"?>
<svg
   xmlns:dc="http://purl.org/dc/elements/1.1/"
   xmlns:cc="http://creativecommons.org/ns#"
   xmlns:rdf="http://www.w3.org/1999/02/22-rdf-syntax-ns#"
   xmlns:svg="http://www.w3.org/2000/svg"
   xmlns="http://www.w3.org/2000/svg"
   xmlns:sodipodi="http://sodipodi.sourceforge.net/DTD/sodipodi-0.dtd"
   xmlns:inkscape="http://www.inkscape.org/namespaces/inkscape"
   id="svg"
   version="1.1"
   width="215"
   height="215"
   style="display:block"
   inkscape:version="0.91 r13725"
   sodipodi:docname="seedsforum2.svg">
  <metadata
     id="metadata9">
    <rdf:RDF>
      <cc:Work
         rdf:about="">
        <dc:format>image/svg+xml</dc:format>
        <dc:type
           rdf:resource="http://purl.org/dc/dcmitype/StillImage" />
        <dc:title></dc:title>
      </cc:Work>
    </rdf:RDF>
  </metadata>
  <defs
     id="defs7" />
  <sodipodi:namedview
     pagecolor="#ffffff"
     bordercolor="#666666"
     borderopacity="1"
     objecttolerance="10"
     gridtolerance="10"
     guidetolerance="10"
     inkscape:pageopacity="0"
     inkscape:pageshadow="2"
     inkscape:window-width="1366"
     inkscape:window-height="745"
     id="namedview5"
     showgrid="false"
     fit-margin-top="0"
     fit-margin-left="0"
     fit-margin-right="0"
     fit-margin-bottom="0"
     inkscape:zoom="0.57985258"
     inkscape:cx="101.07204"
     inkscape:cy="74.453558"
     inkscape:window-x="-8"
     inkscape:window-y="-8"
     inkscape:window-maximized="1"
     inkscape:current-layer="svg" />
  <circle
     style="fill:#2581cd;fill-opacity:0.82730868"
     id="path3341"
     cx="107.5"
     cy="107.5"
     r="107.5" />
  <g
     id="svgg"
     transform="translate(-98.927963,-64.678123)">
    <path
       id="path0"
       d="m 205,105.028 c -2.475,1.595 -7.2,3.852 -10.5,5.016 -3.3,1.164 -6.806,2.546 -7.791,3.07 -0.985,0.525 -2.156,0.728 -2.602,0.452 -0.447,-0.276 -1.666,0.128 -2.71,0.897 -1.827,1.348 -1.807,1.433 0.551,2.314 2.985,1.114 9.052,-0.524 9.052,-2.445 0,-0.733 0.675,-1.332 1.5,-1.332 0.825,0 1.5,0.446 1.5,0.992 0,1.29 7.196,-1.572 13.271,-5.279 7.502,-4.577 11.028,0.213 5.229,7.105 -1.447,1.719 -2.476,4.174 -2.444,5.826 l 0.057,2.856 1.193,-3.404 c 1.16,-3.306 2.31,-4.37 5.944,-5.492 1.353,-0.419 1.75,-1.646 1.75,-5.418 0,-8.517 -5.591,-10.577 -14,-5.158 m -37.5,11.454 c -6.199,1.673 -13.998,4.723 -20.487,8.011 -2.72,1.379 -6.311,2.507 -7.98,2.507 -2.569,0 -3.033,0.383 -3.033,2.5 0,3.7 3.278,3.268 14.929,-1.968 5.469,-2.458 12.671,-5.27 16.005,-6.25 4.428,-1.301 6.064,-2.254 6.065,-3.532 0,-0.963 0.676,-1.75 1.501,-1.75 0.825,0 1.5,0.675 1.5,1.5 0,0.825 0.679,1.5 1.508,1.5 1.259,0 1.302,-0.332 0.26,-2 -1.438,-2.303 -3.309,-2.397 -10.268,-0.518 M 111,150.5 l 0,28.5 10.5,0 10.5,0 0,-28.5 0,-28.5 -10.5,0 -10.5,0 0,28.5 m 93,-27 c -1.351,1.628 -1.028,1.832 1.418,0.893 0.87,-0.334 1.582,-1.009 1.582,-1.5 0,-1.383 -1.62,-1.055 -3,0.607 m -7,3.5 c 0,0.55 -1.012,1.001 -2.25,1.001 -2.637,0.002 -8.467,4.593 -6.615,5.211 1.708,0.569 0.11,2.803 -1.944,2.718 -1.379,-0.058 -1.321,-0.229 0.309,-0.93 1.1,-0.473 1.431,-0.891 0.736,-0.93 -0.695,-0.038 -3.62,1.849 -6.5,4.194 -7.42,6.043 -11.425,8.325 -17.882,10.188 -4.876,1.407 -5.572,1.909 -5.108,3.685 1.057,4.042 16.441,-2.245 25.915,-10.59 6.228,-5.486 4.639,-5.453 20.123,-0.416 18.704,6.086 42.7,24.36 33.689,25.658 -1.139,0.164 -6.406,-2.537 -12.193,-6.254 -8.19,-5.26 -11.814,-6.933 -18.484,-8.532 -10.129,-2.428 -9.451,-2.43 -10.095,0.031 -0.454,1.739 0.962,2.79 9.766,7.25 14.843,7.519 31.494,27.137 24.221,28.537 -1.164,0.225 -5,-2.764 -10.988,-8.562 -8.766,-8.488 -12.814,-11.033 -25.373,-15.954 -0.646,-0.253 -1.634,0.4 -2.197,1.451 -0.891,1.666 0.032,2.693 7.189,7.994 12.294,9.106 24.212,28.25 17.587,28.25 -0.467,0 -4.282,-4.162 -8.478,-9.25 -8.843,-10.721 -22.095,-20.102 -24.996,-17.693 -2.016,1.673 -1.873,1.881 5.446,7.945 8.454,7.004 16.947,23.998 11.994,23.998 -0.503,0 -3.18,-3.569 -5.95,-7.932 C 188.261,187.577 178.55,181 169.719,181 160.786,181 151.56,177.613 146.377,172.43 141.38,167.432 136,166.173 136,170 c 0,1.314 0.667,2 1.943,2 1.069,0 2.532,0.808 3.25,1.795 4.235,5.818 15.317,10.723 26.665,11.804 9.486,0.903 17.676,5.732 22.009,12.975 6.871,11.489 11.896,14.458 15.576,9.203 2.045,-2.919 1.966,-4.642 -0.481,-10.444 l -2.038,-4.833 5.618,6.25 c 10.405,11.576 20.504,5.587 12.317,-7.304 -8.759,-13.793 -8.694,-13.534 -1.722,-6.809 9.464,9.128 12.203,10.114 16.408,5.908 3.962,-3.961 3.19,-6.466 -5.073,-16.449 -4.141,-5.003 -7.345,-9.096 -7.121,-9.096 0.223,0 3.022,1.575 6.219,3.5 6.75,4.065 8.217,4.242 11.795,1.427 3.646,-2.867 3.596,-7.666 -0.115,-11.092 -13.101,-12.098 -36.12,-24.887 -40.226,-22.35 -0.563,0.348 -1.024,0.108 -1.024,-0.533 0,-0.641 -0.646,-0.918 -1.435,-0.615 -0.79,0.303 -1.577,0.196 -1.75,-0.238 -0.471,-1.182 -5.815,-2.286 -5.815,-1.201 0,0.514 0.563,1.162 1.25,1.44 0.747,0.301 0.545,0.536 -0.5,0.583 -1.107,0.05 -1.75,-0.652 -1.75,-1.91 0,-1.453 0.608,-1.938 2.26,-1.802 2.384,0.198 11.73,-3.261 11.736,-4.342 0.004,-0.665 -3.608,-1.83 -5.746,-1.853 C 197.563,126.006 197,126.45 197,127 m 14.301,84.657 c -1.006,2.621 1.902,6.801 4.981,7.159 2.407,0.281 2.718,-0.016 2.718,-2.595 0,-4.87 -6.176,-8.532 -7.699,-4.564 m -10.123,1.429 c -1.751,2.804 -1.433,5.659 0.889,7.981 2.495,2.495 4.933,1.133 4.933,-2.755 0,-5.196 -3.743,-8.555 -5.822,-5.226 m 8.423,12.073 c -2.154,3.075 -2.015,5.427 0.466,7.908 2.672,2.672 4.933,1.051 4.933,-3.534 0,-4.842 -3.235,-7.463 -5.399,-4.374 m 11.066,0.508 c -1.265,1.264 -0.663,6.195 0.954,7.812 3.819,3.818 7.095,-1.211 3.933,-6.037 -1.564,-2.387 -3.553,-3.11 -4.887,-1.775 m -22.012,3.162 c -3.604,3.982 -0.569,11.213 3.255,7.753 2.299,-2.081 2.769,-6.503 0.89,-8.382 -1.61,-1.61 -2.2,-1.521 -4.145,0.629 M 125,242.113 c 0,2.226 14.68,15.652 21.557,19.716 43.898,25.938 119.924,15.294 139.847,-19.579 C 286.973,241.254 270.62,241 206.059,241 147.204,241 125,241.305 125,242.113 m 93.393,4.469 c 1.037,2.703 0.681,4.344 -1.393,6.418 -2.538,2.538 -4.69,2.553 -5.488,0.038 -1.459,-4.596 5.198,-10.842 6.881,-6.456 M 205,253.051 c 0,2.71 -2.198,5.949 -4.036,5.949 -1.601,0 -3.028,-3.898 -2.377,-6.492 1.353,-5.388 6.413,-4.96 6.413,0.543 m 25.429,-3.48 c 2.04,2.041 2.016,6.815 -0.044,8.524 -3.135,2.602 -6.615,-3.928 -4.35,-8.161 1.255,-2.345 2.323,-2.433 4.394,-0.363 m -12.618,14.618 c 0.303,2.628 -2.63,6.811 -4.776,6.811 -2.107,0 -2.859,-3.514 -1.462,-6.836 1.783,-4.241 5.747,-4.225 6.238,0.025"
       inkscape:connector-curvature="0"
       style="fill:#000000;fill-rule:evenodd;stroke:none" />
  </g>
</svg>
