<svg id="svg" version="1.1" width="400" height="400" xmlns="http://www.w3.org/2000/svg" xmlns:xlink="http://www.w3.org/1999/xlink" style="display: block;"><g id="svgg"><path id="path0" d="M180.447 35.012 C 44.161 52.323,-14.348 217.113,80.910 315.360 C 178.522 416.035,348.062 357.943,364.976 218.026 C 377.556 113.956,284.617 21.780,180.447 35.012 M230.265 44.968 C 344.376 67.336,395.937 202.048,326.025 295.159 C 250.511 395.734,91.834 370.444,50.618 251.265 C 11.182 137.236,111.759 21.738,230.265 44.968 M120.000 200.000 L 120.000 310.000 200.000 310.000 L 280.000 310.000 280.000 200.000 L 280.000 90.000 200.000 90.000 L 120.000 90.000 120.000 200.000 M173.000 108.897 C 173.000 110.390,172.329 110.763,169.857 110.647 C 165.239 110.431,165.278 112.591,169.935 114.967 C 174.908 117.504,175.654 121.870,171.571 124.546 C 168.308 126.684,162.635 126.124,162.159 123.617 C 161.863 122.054,162.231 121.841,164.322 122.366 C 170.444 123.902,171.804 120.466,166.247 117.500 C 159.403 113.847,161.244 107.000,169.071 107.000 C 172.263 107.000,173.000 107.356,173.000 108.897 M189.000 109.000 C 189.000 110.667,188.333 111.000,185.000 111.000 C 182.111 111.000,181.000 111.417,181.000 112.500 C 181.000 113.548,182.056 114.000,184.500 114.000 C 187.333 114.000,188.000 114.381,188.000 116.000 C 188.000 117.619,187.333 118.000,184.500 118.000 C 181.667 118.000,181.000 118.381,181.000 120.000 C 181.000 121.667,181.667 122.000,185.000 122.000 C 188.333 122.000,189.000 122.333,189.000 124.000 C 189.000 125.778,188.333 126.000,183.000 126.000 L 177.000 126.000 177.000 116.500 L 177.000 107.000 183.000 107.000 C 188.333 107.000,189.000 107.222,189.000 109.000 M204.000 109.000 C 204.000 110.667,203.333 111.000,200.000 111.000 C 197.111 111.000,196.000 111.417,196.000 112.500 C 196.000 113.548,197.056 114.000,199.500 114.000 C 202.333 114.000,203.000 114.381,203.000 116.000 C 203.000 117.619,202.333 118.000,199.500 118.000 C 196.667 118.000,196.000 118.381,196.000 120.000 C 196.000 121.667,196.667 122.000,200.000 122.000 C 203.333 122.000,204.000 122.333,204.000 124.000 C 204.000 125.778,203.333 126.000,198.000 126.000 L 192.000 126.000 192.000 116.500 L 192.000 107.000 198.000 107.000 C 203.333 107.000,204.000 107.222,204.000 109.000 M220.244 108.977 C 228.166 115.209,222.326 126.000,211.032 126.000 L 207.000 126.000 207.000 116.500 L 207.000 107.000 212.365 107.000 C 216.196 107.000,218.449 107.566,220.244 108.977 M237.375 107.798 C 238.313 109.315,236.488 110.659,233.598 110.580 C 229.316 110.462,229.233 112.782,233.456 114.546 C 241.784 118.026,239.074 126.700,229.931 125.826 C 227.533 125.597,226.410 124.939,226.159 123.614 C 225.860 122.039,226.260 121.816,228.587 122.261 C 234.811 123.451,235.844 120.487,230.247 117.500 C 223.536 113.918,225.413 107.000,233.096 107.000 C 235.178 107.000,237.104 107.359,237.375 107.798 M211.000 116.500 C 211.000 122.333,211.205 123.000,213.000 123.000 C 218.309 123.000,221.090 114.577,216.777 111.557 C 212.190 108.343,211.000 109.361,211.000 116.500 M272.000 226.500 L 272.000 302.000 200.000 302.000 L 128.000 302.000 128.000 226.500 L 128.000 151.000 200.000 151.000 L 272.000 151.000 272.000 226.500 M233.666 160.127 C 231.909 161.149,231.919 161.276,233.920 163.140 C 235.737 164.833,235.978 166.088,235.774 172.793 C 235.644 177.032,235.376 179.668,235.177 178.651 C 234.899 177.233,234.052 177.932,231.542 181.651 C 229.742 184.318,226.449 188.262,224.224 190.416 C 221.304 193.242,219.132 196.923,216.412 203.654 C 214.339 208.782,212.484 212.818,212.290 212.623 C 211.984 212.317,215.233 202.981,217.467 197.750 C 218.472 195.397,216.475 195.483,214.807 197.866 C 214.088 198.892,213.275 199.763,213.000 199.801 C 210.479 200.153,209.274 201.410,209.631 203.315 C 210.018 205.375,209.989 205.386,209.128 203.500 C 208.397 201.899,208.109 201.799,207.683 203.000 C 202.130 218.676,203.342 229.855,210.469 228.699 C 213.739 228.168,219.000 223.906,219.000 221.788 C 219.000 221.171,219.286 220.952,219.635 221.301 C 220.289 221.956,226.000 215.345,226.000 213.934 C 226.000 213.499,226.575 212.548,227.278 211.821 C 228.501 210.556,232.258 202.400,235.026 195.000 C 235.746 193.075,236.822 190.851,237.418 190.058 C 238.277 188.913,238.191 188.798,237.000 189.500 C 235.793 190.211,235.724 190.102,236.646 188.942 C 238.281 186.884,241.790 174.435,242.472 168.275 C 243.301 160.778,239.151 156.938,233.666 160.127 M223.244 164.853 C 220.903 165.759,218.090 167.283,216.994 168.240 C 215.897 169.197,215.000 169.729,215.000 169.422 C 215.000 168.709,208.741 173.060,207.765 174.452 C 207.361 175.028,207.024 175.157,207.015 174.737 C 206.998 173.874,198.830 178.794,197.888 180.235 C 197.552 180.750,196.877 181.193,196.388 181.220 C 194.153 181.343,187.164 185.456,187.704 186.330 C 188.037 186.868,187.865 187.034,187.322 186.699 C 186.335 186.089,179.154 190.391,177.765 192.424 C 177.361 193.016,177.024 193.159,177.015 192.742 C 176.989 191.418,165.259 199.941,161.999 203.654 C 156.540 209.872,155.502 215.526,159.189 218.961 C 161.496 221.111,167.412 221.760,168.510 219.984 C 168.856 219.425,169.528 219.208,170.004 219.502 C 171.472 220.410,190.289 211.487,198.800 205.849 C 201.165 204.282,203.312 203.000,203.572 203.000 C 205.908 203.000,225.081 188.092,228.335 183.745 C 238.768 169.808,236.092 159.880,223.244 164.853 M215.469 190.041 C 209.934 195.643,198.866 203.993,193.000 206.993 C 189.200 208.936,190.752 207.698,199.104 202.124 C 203.287 199.333,209.812 194.123,213.604 190.545 C 222.280 182.360,223.341 182.073,215.469 190.041 M232.475 191.185 C 228.955 202.011,222.100 214.031,214.903 222.000 L 211.742 225.500 214.351 222.000 C 219.568 215.003,227.112 201.311,230.190 193.254 C 233.658 184.178,235.211 182.772,232.475 191.185 M205.109 190.820 C 204.050 192.294,201.808 194.806,200.127 196.403 C 198.446 198.000,197.352 199.800,197.696 200.403 C 198.040 201.006,197.951 201.165,197.498 200.755 C 197.046 200.345,195.153 201.171,193.291 202.592 C 189.375 205.578,176.890 211.447,172.500 212.365 C 170.758 212.729,172.093 211.774,175.681 210.089 C 188.580 204.031,206.877 190.228,205.329 187.724 C 204.957 187.122,205.180 186.993,205.864 187.416 C 206.711 187.939,206.502 188.884,205.109 190.820 M223.048 229.449 C 219.545 233.178,221.594 236.244,226.366 234.413 C 227.207 234.090,229.067 232.290,230.498 230.413 L 233.102 227.000 229.225 227.000 C 226.405 227.000,224.722 227.667,223.048 229.449 M193.000 232.577 C 193.000 234.403,197.648 239.946,199.587 240.432 C 203.880 241.510,205.859 237.787,202.482 234.985 C 201.131 233.864,193.000 231.799,193.000 232.577 M212.151 239.875 C 212.565 243.822,210.613 245.819,206.459 245.702 C 202.125 245.579,200.137 247.255,201.980 249.476 C 203.054 250.770,202.995 251.348,201.638 252.847 C 199.583 255.118,199.520 259.357,201.517 261.014 C 202.351 261.706,202.913 263.440,202.767 264.867 C 202.538 267.092,203.084 267.666,206.596 268.897 C 210.860 270.391,211.313 270.305,216.909 266.923 C 219.143 265.573,221.169 265.076,222.785 265.482 C 224.671 265.955,225.123 265.763,224.702 264.666 C 224.299 263.616,225.259 263.054,228.285 262.570 L 232.419 261.909 229.524 259.601 L 226.630 257.293 228.781 253.646 L 230.933 250.000 228.048 250.000 C 222.434 250.000,221.772 249.166,224.524 245.558 C 227.639 241.473,227.631 240.804,224.472 241.596 C 222.534 242.083,221.377 241.620,219.519 239.616 C 216.015 235.835,211.743 235.985,212.151 239.875 M215.644 246.404 C 215.565 247.726,215.162 248.600,214.750 248.345 C 213.691 247.691,213.814 244.000,214.894 244.000 C 215.386 244.000,215.724 245.082,215.644 246.404 M188.223 249.750 C 186.395 251.351,183.462 258.000,184.584 258.000 C 186.007 258.000,192.541 254.748,193.200 253.711 C 196.066 249.201,192.286 246.192,188.223 249.750 M208.349 253.468 C 208.659 254.275,208.482 255.202,207.956 255.527 C 207.430 255.852,207.000 255.903,207.000 255.641 C 207.000 255.378,206.727 254.452,206.393 253.582 C 206.059 252.712,206.236 252.000,206.786 252.000 C 207.336 252.000,208.040 252.661,208.349 253.468 M187.107 268.371 C 185.295 270.555,188.844 274.057,193.786 274.961 C 196.104 275.385,198.000 275.593,198.000 275.423 C 198.000 273.749,193.435 268.082,191.715 267.621 C 188.619 266.791,188.387 266.829,187.107 268.371 M220.000 270.845 C 220.000 273.459,222.879 275.716,227.250 276.527 C 231.499 277.315,231.686 277.008,229.273 273.215 C 226.299 268.539,220.000 266.930,220.000 270.845 M200.000 281.501 C 199.315 282.326,198.518 285.100,198.229 287.665 L 197.703 292.328 201.365 289.535 C 206.587 285.552,207.576 280.000,203.063 280.000 C 202.063 280.000,200.684 280.675,200.000 281.501 " stroke="none" fill="#000000" fill-rule="evenodd"></path></g></svg>