<svg xmlns="http://www.w3.org/2000/svg" version="1" viewBox="0 0 394 394">
  <path d="M251.3 60c-17.6 3.5-30.4 21.3-45.7 63.5-.6 1.6-1.4.5-3.9-5.6a80.7 80.7 0 0 0-39.5-44.3c-15.7-7.9-35.5-10.2-47.7-5.6-18.1 6.9-26.8 19.6-25.1 36.6 1.1 11.2 7 24.4 20 45.4l7.2 11.6-7-1.3c-3.9-.7-9.1-1.2-11.6-1.3-6.5-.1-19.2-2.5-31.2-5.9l-5.8-1.7c-1.4-.4-3-1.1-3.6-1.5-.6-.5-2.5-1-4.3-1.1-3.7-.3-2.6-3-17.7 42.2-4.6 14-8.9 26.4-9.4 27.5a324 324 0 0 0-9 27.8c0 .8 2 2.2 4.8 3.1l6.7 2.6a212.3 212.3 0 0 0 57.3 11c2.2 0 6.4.5 9.4 1.1l10.3 2a279 279 0 0 1 33 9.8 205.3 205.3 0 0 1 37.1 18.2 53.3 53.3 0 0 1 15.1 13.6c.9 1.3 1.9 2 2.2 1.6.3-.4.5-15.3.3-33l-.3-32.3h-2.6c-4.8 0-1.9-.7 5.2-1.3 3.9-.3 6.2-.3 5.3 0-1.7.4-1.8 3-1.8 36.4 0 32.6.6 41.5 2.4 32.9.8-4.1 8.6-12.2 17.1-17.9a163.3 163.3 0 0 1 29.8-15c5.7-2.6 11.9-4.8 20.2-7.5 17.6-5.7 24.7-7 51.5-9.7 18.7-1.8 32.1-4.9 51-11.7 5.8-2.1 7-3.9 5.2-7.6-1-2-6.1-16.6-13.8-39.6-1.9-5.8-3.9-11.4-4.4-12.5-.5-1.1-2.5-6.7-4.4-12.5a264.9 264.9 0 0 0-10.6-29.4c-.5-.5-4.2.3-8.7 1.8-11.7 4-18.8 5.9-26.5 7.1-2.1.3-4.2 1.3-4.8 2.3-1 1.5-1.1 1.4-.4-.3 5-14.1 5.8-18 5.8-32.5.1-17-1.2-22.6-8-36.7A51.8 51.8 0 0 0 264.1 60c-6-1.1-6.9-1.1-12.8 0zM148.5 76.5a81 81 0 0 1 38.4 24.7c5.5 6.7 15.1 24.5 15.1 28.1 0 1.2-2.5 9.8-5.4 19.2-10 31-22.6 78.5-22.6 84.8 0 3.2 6.1 9.4 9.8 10 2.5.4 2.4.4-.5.6-2.5.1-4.1-.8-7.7-4.3-4.3-4.1-6-6.6-3.4-5 .7.4.8.3.4-.5-.4-.6-1.1-.9-1.6-.6-.4.3-2.5-1.6-4.6-4.2-2.1-2.6-3.4-4.4-2.7-4 .7.4 1 .1.9-1-.2-.9-.9-1.9-1.7-2.1-1.1-.3-1.1-.1.1.7.8.6 1.1 1.1.6 1.1-1.8 0-4.5-3.2-3.9-4.8.4-.9.2-1.3-.4-.9-.6.4-1.9-.3-2.9-1.6-1.2-1.3-1.3-1.7-.3-.9.9.6 2 .8 2.4.4.5-.4.5-.1 0 .7-.6 1-.4 1.2.5.6 1-.6.9-1.1-.5-2.2-1.1-.7-1.5-1.3-1.1-1.3.4 0 .4-.5.1-1-.5-.8-1.1-.8-2 0-1 .8-2.4-.4-6.2-5.2-7.9-10-16.5-21.7-21.7-29.3-6.1-9-3.3-5.4 13.3 16.8 9.3 12.5 13.6 17.5 14.2 16.6 1-1.6.1-3.2-1.3-2.3-.7.5-.9.1-.5-.9s-.3-2.3-2.1-3.7c-1.5-1.2-2-1.9-1.2-1.5.8.4.4-.3-1-1.5s-1.8-1.9-1-1.5c.8.4.4-.3-1-1.5s-1.8-1.9-1-1.5c.8.4.4-.3-1-1.5s-1.9-1.9-1.2-1.5c1.1.6 1.2.3.3-1.4-.7-1.1-1.4-2.1-1.7-2.1-.3 0-.2.5.2 1.2.5.7.3.8-.5.4-.7-.5-1-1.4-.7-2.2.3-.7 0-1.6-.6-2-.7-.5-.8-.2-.3.6.6.9.4 1.1-.4.6-.7-.5-1-1.4-.7-2.2.3-.7 0-1.6-.6-2-.7-.4-.8-.3-.4.4s.5 1.2.2 1.2-1-1-1.7-2.1c-.8-1.6-.8-2 .1-1.4.9.6.9.2.1-1.4-.7-1.1-1.4-2.1-1.7-2.1-.3 0-.2.5.2 1.2.5.7.3.8-.5.4-.7-.5-1-1.4-.7-2.2.3-.7 0-1.6-.6-2-.7-.4-.8-.3-.4.4s.5 1.2.2 1.2-1-1-1.7-2.1c-.8-1.6-.8-2 .1-1.4.9.6.9.2.1-1.4-.7-1.1-1.4-2.1-1.7-2.1-.3 0-.2.4.1 1 .3.5.4 1 .1 1-.3 0-1-1-1.7-2.1-.8-1.6-.8-2 .1-1.4.9.6.9.2.1-1.4-.7-1.1-1.4-2.1-1.7-2.1-.3 0-.2.4.1 1 .3.5.4 1 .1 1-.3 0-1-1-1.7-2.1-.7-1.5-.8-1.9 0-1.5.7.4.9.1.5-.8-.3-.9-1-1.4-1.6-1.3-1.4.3-17.9-31.6-20.8-40.5-3.2-9.5-3.5-24.3-.6-29.8 7.7-14.5 26.2-21.3 45.1-16.5zm108.4 3.4c.9.6-.9.7-5 .4a41 41 0 0 1-6.8-.9c-1-.9 10.5-.3 11.8.5zm18.1 26.2c.8 2.4 1.9 5 2.3 5.7.5.7-1.8-.1-5-1.7-3.2-1.6-7.6-3.6-9.7-4.5-3.9-1.6-3.9-1.7-1.9-3.1 6.7-4.7 12-3.3 14.3 3.6zm28.7 14.9c-.6 14-2.6 23.1-8.6 37.5a151 151 0 0 1-27.8 43.2c-4.3 4.6-4.4 4.6-1.7.8 24.5-33.9 36.2-63.6 36.5-92.5.1-8.4.2-9 1.1-5.5.5 2.2.7 9.6.5 16.5zm-58.2-17.9c1.3.5-.8.7-6 .3a69 69 0 0 1-8.4-1c-.9-.8 12.5-.2 14.4.7zm21 8.8c3.3 1.5 6.9 3.7 8 4.7 1.2 1 1.9 1.8 1.6 1.7-.2-.2-1.2 1.9-2.1 4.6a41 41 0 0 1-4 8.4l-2.3 3.3-8.6-3.7-8.6-3.7.2-3.8c.1-2.2 1.3-6.5 2.5-9.7 2.6-6.7 2.8-6.7 13.3-1.8zm-31 14.1c.5.8-1.8.9-7.2.4-4.3-.4-8-.8-8.2-1-.2-.2 3-.4 7.2-.4s7.9.5 8.2 1zm23.8 10.1l3.7 2.2c0 .2-1.4.4-3 .5-3.7.3-6.6-1.1-8.1-3.9-1-1.9-.9-2 1.3-1.4 1.2.4 4 1.6 6.1 2.6zm-29.4 9.5c.8.7-6.3.2-9.4-.7-2-.5-.9-.6 3-.2 3.3.3 6.2.7 6.4.9zm-14.6 20.1a17 17 0 0 1-4.5 0c-1.3-.2-.3-.4 2.2-.4s3.5.2 2.3.4zm80.6 8.2a52 52 0 0 1-4.5 6.7c-1.4 1.6-.5-.1 1.8-3.9 4.5-7.3 6.3-9.1 2.7-2.8zm-87.6 9.8c-.7.2-2.1.2-3 0-1-.3-.4-.5 1.2-.5 1.7 0 2.4.2 1.8.5zm80.7.7c0 .2-.8 1-1.7 1.7-1.6 1.3-1.7 1.2-.4-.4 1.3-1.6 2.1-2.1 2.1-1.3zm-3 3.9c0 .2-1 1.2-2.2 2.3l-2.3 1.9 1.9-2.3c1.8-2.1 2.6-2.7 2.6-1.9zm-5 6l-8.2 8.2-8.3 8 8-8.3c7.4-7.6 8.5-8.7 8.5-7.9zm-83.7 6.4c-.7.2-1.9.2-2.5 0-.7-.3-.2-.5 1.2-.5s1.9.2 1.3.5zm66.2 10.2c-.3.5-2.4 2.4-4.8 4.1l-4.2 3.2 4.5-4.1c4.6-4.1 5.6-4.8 4.5-3.2zm-13 10.1c-.3.5-1.6 1.5-2.8 2.1-1.9.9-1.9.8.3-1 2.8-2.3 3.4-2.6 2.5-1.1zm-10.5 6.5c0 .2-1 .9-2.2 1.5-2.2 1.1-2.2 1-.4-.4 2.1-1.7 2.6-1.9 2.6-1.1zm-13 7c-1.4.8-2.9 1.4-3.5 1.4-.5 0 .1-.6 1.5-1.4a11 11 0 0 1 3.5-1.4c.6 0-.1.6-1.5 1.4zm-6 2.5c-.8.5-1.9 1-2.5 1-.5 0-.3-.5.5-1s2-1 2.5-1c.6 0 .3.5-.5 1zm-8.5 3c-1.1.5-2.7.9-3.5.9-.9 0-.8-.4.5-.9 1.1-.5 2.7-.9 3.5-.9.9 0 .8.4-.5.9zm-6.2 1.7c-.7.2-1.9.2-2.5 0-.7-.3-.2-.5 1.2-.5s1.9.2 1.3.5z"/>
  <path d="M144.5 113.9a23.2 23.2 0 0 0-13.5 20.9 75 75 0 0 0 5 22c1 1.5 1.1 1.5.5-.3-3.9-12-4.7-22.7-2.2-28.7 2.2-5.3 9-11.4 14.8-13.3a16 16 0 0 1 14.7 1.6c1.8 1 3 1.4 2.6.8-1.3-2.1-8.9-4.9-13.4-4.9-2.5 0-6.3.9-8.5 1.9zM170 120.5c1.3 1.4 2.6 2.5 2.8 2.5.3 0-.5-1.1-1.8-2.5a13.3 13.3 0 0 0-2.8-2.5c-.3 0 .5 1.1 1.8 2.5zM180.5 131c1 1.1 2 2 2.3 2 .3 0-.3-.9-1.3-2s-2-2-2.3-2c-.3 0 .3.9 1.3 2zM137 159.5c0 .5.5 1.7 1 2.5s1 1 1 .5c0-.6-.5-1.7-1-2.5s-1-1.1-1-.5zM160.6 219.9c-.4.5-.2 1.2.3 1.5.5.4 1.2.2 1.5-.3.4-.5.2-1.2-.3-1.5-.5-.4-1.2-.2-1.5.3zM12.2 259.7c-2.1 5.8-2.5 6.9-3.2 10.6-1 4.9-.5 5.1 18 8.8 10.9 2.2 32.3 3.4 46 2.7 20.9-1.1 40 .9 63 6.8l9.3 2.1c1.5.3 3 .9 3.3 1.4.7 1.2 3.4 1.1 3.4-.1 0-.6-.8-1-1.8-1s-2.2-.4-2.7-.9c-2-1.7-22.1-9-33-11.9a129.9 129.9 0 0 0-28.1-5.2c-4.2 0-16.8-1.4-27.9-3.2a203.6 203.6 0 0 1-36-9.7c-9.3-3.9-9-3.8-10.3-.4zM377 257.9c-1.4.8-16.6 6-23.5 8a219.7 219.7 0 0 1-45.3 7.1c-2.2 0-6.4.5-9.4 1.1l-10.3 2a185 185 0 0 0-35 11 40 40 0 0 0-7 3.1 5 5 0 0 1-2.7.8c-1 0-1.8.4-1.8 1 0 1.3 1.5 1.3 3.8.1a190.2 190.2 0 0 1 72.7-9.8 213 213 0 0 0 63-6.4l4.5-1.2-.7-4c-1-6.2-3.7-13.2-5.3-13.4-.8-.2-2.2.1-3 .6zM6 291.6a53 53 0 0 0-.9 9.9l.4 3 14.5.9c14.3.9 32.9-.1 46-2.3a235 235 0 0 1 78.9-.5c4.9.8 5.2-1 .4-1.9l-6.8-1.6a206.6 206.6 0 0 0-66-7.5c-22.5.7-38-.6-55-4.5l-7.1-1.6-3.2-.7-1.2 6.8zM381 286l-8.5 2c-3.3.6-8 1.7-10.5 2.3a354 354 0 0 1-36 1.3c-37.3.3-43.7.9-70 7.4l-7.3 1.7c-1.5.3-3 1-3.4 1.6-.4.7 1.1.8 4.8.2a279 279 0 0 1 33.2-3.1c16.6-.8 25 0 48.7 4.5 8.8 1.7 28.4 2.4 43.3 1.6l13.7-.7V300c0-2.7-.5-7.1-1.2-9.9-1.2-5.3-1.9-5.7-6.8-4.1zM82 310.1l-22.5 4.1c-4.7.9-14.9 1.2-31 1.2-17-.1-24.2.2-24.7 1-.4.6-.8 4.6-.8 8.8v7.8h6.1A191.7 191.7 0 0 0 67 323a195.2 195.2 0 0 1 64.4-10c6 0 10.6-.3 10.2-.7-2.2-2.2-49.6-3.9-59.6-2.2zM265.5 310.2c-13.8 1.6-15.2 2.6-4 2.7a224 224 0 0 1 62 9.1c13.3 4.1 22.6 6.5 30.5 7.9 12.3 2.1 22.1 3.1 29.5 3.1h7.5v-7.8c0-4.2-.4-8.3-.9-9-.6-1.1-4.3-1.2-18.2-.7-16.8.6-30.5-.2-44.4-2.6l-12-2c-8.3-1.4-40.3-1.9-50-.7z"/>
  <path fill="#b3b3b3" stroke-width="2.2" d="M199.8 290.6c-.6-10-.6-24.8 0-33.1l1.2-15-7.2.1c-4 .1-6 .5-4.4 1 2.7.7 3 3.6 3 32.4v31.6l-7.2-6.9c-8.9-8.6-41.6-24.8-62.2-30.7-15.2-4.4-21.9-5.6-55-10a228.3 228.3 0 0 1-33.4-7.1c-14.6-4.7-15-5-14.8-9.8a1102 1102 0 0 1 30.8-91.8c1-1.4 5.4-.8 15 2 12 3.5 49.8 9.6 51.1 8.3.3-.2-3.3-6.8-8-14.5-12.7-21-16.8-31-17.8-43.5-1-14.2 3-22.4 15.3-30.3 8-5.1 9.1-5.4 25.2-5.4s17.4.3 29.5 6.3a81.1 81.1 0 0 1 36.7 37.9c6 12.5 8.7 14.4 10.5 7.2.6-2.5 5.2-13 10.1-23.1 13.4-27.8 25.9-37.8 44.1-35.3 9 1.2 18.3 6 25.5 13.2 7.3 7.3 17.8 26.8 15 27.7-1.2.4-2 4.9-2 11.1 0 21.4-10.8 50.9-28.7 78.2-4.6 7.2-8 13.4-7.5 14 1.5 1.5 16.4-18.6 24.1-32.5 10.8-19.6 14-30.3 15-51.2.7-11.8 1.5-16.9 2.3-14.2 2.2 7.6 1.6 32.6-1 41-1.3 4.5-2.5 9-2.5 10.1 0 1.8 19.4-2.6 33.6-7.5 3-1 6-1.4 6.5-.7.6.7 8.5 22.6 17.4 48.7 13 38 15.9 47.7 14 48.8-5.5 3.7-29.4 9.9-46.7 12.3-39 5.3-44.4 6.4-61.5 12-23.9 7.7-47.3 19.7-57 29l-7.8 7.8zm-18.7-49.8c-4.3-2.6-5.5-4.5-5.5-8.5 0-6.6 7.6-36.6 18.4-72.5 5.3-17.6 8.2-30.1 7.7-33a84 84 0 0 0-19.8-31.6A97 97 0 0 0 161.2 81a42 42 0 0 0-24.6-6.2c-8.8 0-13.7 1-18.8 3.6-21.1 11-22.7 29.3-5.5 63.4a623.7 623.7 0 0 0 12 23c8.5 13.8 11.6 19.4 10.9 20.1-.5.5-2.6-1.8-4.8-5-3.7-5.4-8.3-8.6-5.5-3.9 5.1 8.8 28.4 38 30.2 38 1.3 0 2 .7 1.5 1.4-1 1.5 15.2 22.5 20.2 26.3 1.6 1.2 4.5 2.3 6.3 2.3 2.7 0 2.2-.7-2-3.2zm29.6 0c3.3-1.1 3.5-1.4.8-1.4-1.8 0-4.8.6-6.7 1.3-4.2 1.9.2 1.9 5.9 0zm13.2-4.4c3-1.5 5-3 4.7-3.3-1-1-11.2 3.2-11.2 4.7 0 1.7.3 1.7 6.5-1.4zm16.8-9.1c0-.8-1-1-2.5-.5-1.3.5-2.5 1.6-2.5 2.4 0 .8 1.2 1 2.5.5 1.4-.6 2.5-1.7 2.5-2.4zm9.3-5c1.8-3-.3-3.6-2.5-.8-1.4 1.6-1.5 2.5-.4 2.5 1 0 2.3-.8 2.9-1.7zm13.4-10c2.3-3.8-.6-3-4.4 1.1-3.9 4.2-3.9 4.3-.4 2.5 2-1 4.2-2.7 4.8-3.7zM280 197c2.9-4.6-1.2-2.2-7.7 4.7l-7.5 7.8 7.1-5.4c4-3 7.6-6.2 8.1-7.1zm-82.8 3.6c0-1-.8-1.7-1.7-1.7-1 0-1.3.8-.8 1.7.6.9 1.4 1.6 1.8 1.6.4 0 .7-.7.7-1.6zm89.2-12.5c1.5-2.3 2.2-4.2 1.4-4.2-1.8.1-7.5 8.3-5.7 8.3.9 0 2.8-1.9 4.3-4.1zm-78-5.2c-.5-.6-2-.6-3.1-.2-1.4.6-1 1 1 1 1.7.1 2.7-.3 2.2-.8zm89-11.5c0-2.7-6.6 6.4-6.6 9.1 0 1.4 1.4.3 3.3-2.5 1.8-2.7 3.3-5.7 3.3-6.6zm-81.8-5.9c0-.9-1.1-1.7-2.5-1.7s-2.5.8-2.5 1.7c0 1 1.1 1.7 2.5 1.7s2.5-.8 2.5-1.7zm14.2-20c-.6-1-3.4-1.6-6.4-1.6-4.5.1-4.8.4-2 1.6 4.7 2 9.6 2 8.4 0zm28.6-10.2c-6.8-3.6-9.6-3.2-6.1 1 1.2 1.4 4.5 2.5 7.3 2.4h5.2l-6.4-3.4zm11.8-3a81 81 0 0 0 4.5-9.2l2.5-6-7-4c-11.6-6.6-14-6.9-16.7-1.5a46.8 46.8 0 0 0-3.4 10.2c-1 5.4-.8 5.6 7.7 9.5 10.7 4.9 10 4.8 12.4 1zm-35.4-6.9c-.6-.9-4-1.6-7.6-1.6-3.6 0-6.6.7-6.6 1.6 0 1 3.4 1.7 7.6 1.7 4.7 0 7.2-.6 6.6-1.7zm42.6-14.9c0-4-4.3-10.3-7.7-11.1-3.7-1-10.7 1.7-10.7 4 0 1.5 13.2 8.4 16.3 8.6 1.1 0 2-.6 2-1.5zM240 102c-4.3-1-7.1-1-8.2.1-1.2 1.2.9 1.7 6.5 1.6l8.3-.2zm14.5-22.7c-2-.4-5.4-.4-7.5 0-2 .4-.4.7 3.8.7 4 0 5.8-.3 3.7-.7z"/>
  <path fill="#b3b3b3" stroke-width="2.2" d="M122.2 284.7c-5.8-1.5-24-3-50-3.8-41.8-1.4-59.8-3.8-61.4-8-.5-1.3 0-5.2 1-8.7l1.9-6.3 14 4.7c16.1 5.4 35 9.1 58 11.4 15.8 1.5 36.1 6.3 47 11 7 3 1.7 3-10.5-.3zM6.2 295.4c.7-4.8 1.4-9 1.6-9.2.2-.2 6 .8 12.7 2.3 8 1.7 26.6 3.2 53.3 4 30.3 1.1 44.1 2.3 53.4 4.5l12.5 3.1-25.8-.6c-18.6-.5-30.7 0-42.8 2a305 305 0 0 1-41.5 2.7H5zM4 324.6l.5-7.9 30.9-1c17-.7 33.9-2 37.6-3 3.7-1 19-1.6 34.2-1.5 15.1.1 23.8.5 19.2.8a284.5 284.5 0 0 0-60.8 10.5c-22.2 6-45.2 10-57.4 10-4.6 0-4.7-.2-4.2-7.9zM259.2 285.8c6.3-3.6 32.6-10 48.6-11.6 25.2-2.7 43.2-6.3 58.2-11.6 15.1-5.3 17-4.7 17.3 6l.2 6.2-10 2.2c-5.5 1.3-28 3-50.1 3.8-24.1.9-45 2.5-52.3 4-14 3-15.5 3.2-11.9 1zM352.6 304.6a315 315 0 0 1-28.7-3.1 228 228 0 0 0-43.4-2l-25.6.6 12.6-3c9.2-2.3 23.5-3.5 55-4.6 30.2-1 45.5-2.3 52.5-4.2 11.4-3.2 12.6-2.4 12.6 8.7v7l-12 .5c-6.7.3-17 .3-23 .1zM370.1 331.5a324.9 324.9 0 0 1-45.2-9.8c-17.7-4.9-36.3-8-58.3-9.7-3.7-.3 5-.7 19.2-.8 16.2-.2 31.5.6 41 2.2 8.2 1.3 25.6 2.5 38.5 2.5H389l1 6.2c1.7 10.5 1.7 10.5-6.8 10.2-4.4-.1-10.2-.5-13-.8zM169.3 231c-2-2-3.7-4.6-3.7-5.9 0-1.2-1.5-4-3.3-6.2a233.9 233.9 0 0 1-21-31.2c-3.4-5.7-7-10.4-8-10.4-.9 0-1.2-.5-.6-1 .6-.6-.4-3.2-2.2-5.7a18.3 18.3 0 0 1-3.3-6.5c0-1-.7-1.8-1.6-1.8-.9 0-6.2-9.3-11.9-20.7-8.9-17.8-10.4-22.2-11-32.1-1-14.4 2.3-21 13.7-28.2 17-10.6 42.1-5 62.8 14a73.9 73.9 0 0 1 15.9 21l6.3 12.4-5.6 18.9c-9.7 32.9-18.5 65-20.7 76.2l-2.2 10.9zm-30.4-69.6c0-1.3-.7-2.5-1.6-2.5-.9 0-1.2 1.2-.7 2.5.6 1.4 1.3 2.5 1.6 2.5.4 0 .7-1 .7-2.5zm-3.1-11c-1-3-2-9-2-13.4 0-6.6 1-9 5.3-13.9 6.9-7.8 15.3-10.3 23.4-7 3.3 1.5 6.5 3.8 7 5.2.6 1.4 2 2.6 3.2 2.5 4.2 0-10.4-11.6-15-11.8-13-.5-18.5 2-24 10.7-2.7 4.3-3.2 7.3-2.6 15.4.8 10.3 3.8 20.4 5.5 18.6.6-.5.2-3.3-.8-6.3zm46.5-19c-1.2-1.5-2.5-2.3-2.9-1.8-1.2 1.1 1.2 4.3 3.2 4.3 1.1 0 1-1-.3-2.6zM260 130.4l-8.2-3.6c-1.4-.5 1.2-12.1 3.7-16 1-1.6 3-1.4 9.2 1.3 4.3 1.8 8.3 4.4 8.8 5.8.8 2.3-3.6 13.7-5.8 15-.6.3-4-.8-7.8-2.5zM265 106l-5-2.7 3.9-1.7c4.4-2 9 .1 10 4.5.6 3.4-2.5 3.4-9 0z"/>
  <path fill="#b3b3b3" stroke-width="2.2" d="M185 299.9c-3.6-3.1-7.1-5.2-8-4.8-.7.5-1.4.2-1.4-.7 0-2-18-12-22-12.4-1.7-.1-3-.7-3-1.4 0-2.9-38.7-15.7-42.8-14.1-1.2.4-2.3 0-2.3-.9 0-1-1.7-1.6-3.7-1.4-2.1.2-5 0-6.3-.6-1.4-.5-11.5-2.2-22.5-3.8-20.4-2.8-46.5-9.4-50.6-12.7-1.4-1.2-1.8-3.6-1-6.9 1-4.6 25.5-78.6 28.2-85 1-2.5 2.9-3 10.2-2.6 5 .3 9 1.1 9 2 0 .7 1.4 1 3.2.5 1.8-.4 3.5-.1 3.8.7.3.8 4 1.8 8.3 2.1 4.2.4 8.4 1 9.1 1.5 2.5 1.5 24 3.3 24 2 0-.6-3.8-7.8-8.5-15.9-12.6-21.9-16.5-32.3-16.5-44.8 0-12.8 3.3-19.2 13.7-26.3 6.8-4.6 8-4.8 25.5-4.8 17 0 19 .4 28.3 5 9.6 4.9 27.6 19.7 27.6 22.8 0 .8-4.2-2-9.3-6.2-5.2-4.2-9.8-7.2-10.2-6.8-.5.5 4 5.4 10 11a81 81 0 0 1 16.5 21c5.4 10.5 9.5 14.6 7 7-1-3.2-.8-3.4 1.6-1.5 3.3 2.8 5.4 1.6 6.8-4 2.2-8.7 17-36.4 23.3-43.6 8.4-9.5 13.9-12.2 24.9-12.2 16.5 0 30 9.5 40.1 28.1 4.2 7.8 4.2 7.9 2 24.5-3.7 28.4-8.7 42.3-26.1 72.1-6.6 11.3-9.7 18-8.4 18.5 1 .4 1.5 1.5.9 2.5-1.4 2.2 1.8.3 9-5.4 3-2.3 5.4-5.3 5.4-6.5 0-1.9-.5-2-2.5-.2-5 4.1-4 .5 2.7-9.3 12.3-18.3 23-43 20.9-48.3-.5-1.4-.2-2.9.7-3.4 2-1.2 2.1-12.5.2-12.5-.7 0-1-2.7-.6-6 .6-5.1 1-5.7 2.4-3.2 1.7 3 .8 34.1-1.2 40.3-2 6 4.2 6.4 21.8 1.4a80.9 80.9 0 0 1 16.6-3.7c1.4 1.3 22.4 61.4 27.6 78.8 5.6 18.6 5.8 17.7-7.6 21.7-13.1 3.8-21.4 5.4-51.8 10.1-43 6.6-80.8 21-99.8 37.6-4 3.6-7.9 6-8.5 5.5-1.3-1.4-1.4-56.1 0-59.6.5-1.5 2.6-2.7 4.6-2.7 2 0 4.7-.8 6-1.8 2-1.3 1-1.5-3.3-.7a299 299 0 0 1-12.6 2l-6.8.8 1.4 11.7c.8 6.5 1.2 20.6 1 31.4l-.5 19.7-6.5-5.6zm-4.5-61c-3.6-3.4-4.8-5.7-4.1-8.5l3.4-15.5c1.5-6.5 6.7-26.2 11.8-43.9 10-35.7 9.6-33.8 7.6-33.8-1.5 0-4.4 10.5-4 14.6 0 1.2-.5 2.1-1.2 2.1-1 0-3.3 7.3-4.3 14.2 0 1-1 3.8-2.1 6.3-1 2.6-1.8 5.2-1.7 5.9.2.6-.6 3.3-1.6 5.8-1 2.6-1.8 5.2-1.7 5.9.1.6-.2 2.3-.8 3.7-1.5 3.7-6.3 23.2-7 28.5-.3 2.6-1.2 5.9-2 7.3-1.3 2.3-1.9 2-3.8-1.5-1.3-2.4-2.9-4.3-3.6-4.3-.8 0-1-1-.5-2.3.5-1.3-.5-3.4-2.3-4.6-1.8-1.2-3.3-3-3.5-4-.2-.9-2-3.5-4-5.8s-3.4-4.7-3.2-5.5c.2-.7-.7-1.7-2.1-2.2-1.4-.5-2.1-1.6-1.6-2.4.4-.8-.6-3-2.4-4.7-1.8-1.8-2.9-3.7-2.3-4.2.5-.5-.3-1.4-1.8-2-1.5-.6-2.4-1.6-2-2.3.4-.7-.6-2.7-2.3-4.5-1.7-1.8-3.6-5-4.2-7-.7-2-1.9-3.6-2.8-3.6-.8 0-1.3-.5-1.1-1.2.6-1.9-7.1-13.8-9-13.8-.8 0 .6 4 3.1 8.8 6.2 11.8 6.1 11.4 3.1 10.2-1.4-.5-2.6-.4-2.6.4 0 1.7 16.3 23.8 25.4 34.3 3.4 4 9 11 12.3 15.6 10 13.4 15.6 18.8 20 18.8 4 0 4 0-1-4.7zm45.4-3.1c2.2-1.8 3-3.3 2-3.4-3 0-10.5 3.7-10.5 5.3 0 2.5 4.5 1.5 8.5-2zm14.5-8.3c.4-1.3-.2-1.9-1.4-1.5a5.2 5.2 0 0 0-3 3c-.4 1.2.3 1.8 1.5 1.4a5.2 5.2 0 0 0 3-3zm10.4-6.1c0-3-3.6-2.4-4.7.7-.3 1 .6 2 2 2 1.5 0 2.7-1.2 2.7-2.7zm10-5.8c4-2 4.5-7 .8-5.5-2.6 1-6.8 7.3-5 7.3.6 0 2.5-.8 4.3-1.8zm-63.5-15c0-.8-.7-1.6-1.6-1.6-1 0-1.7.8-1.7 1.7 0 .9.7 1.6 1.7 1.6.9 0 1.6-.7 1.6-1.6zm90-13.2c2-3.1 2.1-3.8.3-3.2-1.3.4-3.5 2.6-5 4.7-2 3.2-2 3.8-.2 3.2 1.3-.4 3.5-2.6 5-4.7zm-78.7-4.4c-.6-.6-2-.6-3.2-.2-1.4.6-1 1 1 1 1.7.1 2.7-.3 2.2-.8zm88.8-10.5c0-2.1-.7-1.9-3.3 1.2-1.8 2.2-3.2 5.2-3.2 6.7 0 2.2.7 1.9 3.3-1.2 1.8-2.2 3.3-5.2 3.2-6.7zm-81.7-6.9c0-.9-1.1-1.7-2.5-1.7s-2.5.8-2.5 1.7c0 1 1.1 1.7 2.5 1.7s2.5-.8 2.5-1.7zm-78.2-5.4c-1.2-1.2-2-1.3-2-.2 0 2.2 2 4.2 3.2 3 .4-.4 0-1.7-1.2-2.8zm-2-15.5c-2.3-11.5-.9-16 7.2-23.6 6.7-6.2 7.4-6.5 14.4-5.3 4 .7 9.1 3 11.3 5 2.1 2 4.3 3.2 4.8 2.7 1.3-1.2-11.2-11.4-12.8-10.4-.7.5-1.7 0-2.3-1-.6-1-2.4-1.3-3.9-.9-1.5.5-5 1.2-7.5 1.7-4.6.8-14 8.9-13.2 11.4.2.7-.4 1.2-1.4 1.2-2 0-1.7 16.6.5 24.9 2.3 8.5 4.6 3.9 2.8-5.7zm-21.2-3.3c-6.8-13.7-10.7-17.2-5.4-4.8 4.3 10 8.7 17.3 10.3 17.3.7 0-1.5-5.6-4.9-12.5zm116.4 4.2c0-1-2.8-1.7-6.2-1.7-4.7 0-5.7.5-3.8 1.7 3.3 2.1 10 2.1 10 0zm31.6-9.4c-4-2.2-4-2.3 1.8-1.9 5.4.4 6.1-.1 9.5-7 4.7-9.6 4.7-10.9.1-13l-3.7-1.9 3.7-.1c4.5-.1 5-4.3 1.2-9.8-4.2-6-17.6-4.2-15.3 2 .7 1.7.2 2.7-1.3 2.7-3.3 0-7 6.1-8.4 13.6-1 5-.5 6.4 2.8 8.7 3 2.2 3.2 2.7 1 2.7-3.2 0-4 4.4-1 5.4 1 .3 4.5.7 7.8.8 5.9.1 5.9.1 1.8-2.2zm-60-4.2c0-.9-.7-1.2-1.6-.6-1 .6-1.7 1.8-1.7 2.7 0 1 .8 1.2 1.7.6.9-.5 1.6-1.8 1.6-2.7zm-19.2.2c-.5-.9-1.7-1.6-2.7-1.6-.9 0-1.2.7-.6 1.6.6 1 1.8 1.7 2.7 1.7 1 0 1.2-.8.6-1.7zm-76.8-8.7c-1.4-4.4-2.2-5.5-3.2-4.4-1.3 1.3 1 8.1 2.7 8.1.9 0 1-1.7.5-3.7zm129.4 1.7c0-.7-3.3-1.3-7.5-1.3-4.1 0-7.5.8-7.5 1.7 0 1 3.2 1.6 7.5 1.4 4.2-.2 7.5-1 7.5-1.8zM107.6 90.1c1.5-2.4 5.1-5.7 7.9-7.4 2.8-1.6 5-3.5 5-4 0-.7 7-1 15.5-.7 17.7.7 21.3 1.1 21.3 2.6 0 .5 1.8 1.9 4.1 2.9 2.8 1.3 4.2 1.3 4.2.2 0-1-3.6-3.4-8-5.4-6-2.8-11-3.6-21.3-3.6-12.1 0-14.3.4-21.6 5-10.1 6.3-14.2 13.7-14.2 26 0 13.5 2.4 13.8 3.3.3.5-6.8 2-13.3 3.8-15.9zm135.6 12c-4.6-2-10.4-2-11.6 0-.7 1.1 2 1.7 7 1.6 6 0 7.1-.5 4.6-1.5z"/>
</svg>
