<svg xmlns="http://www.w3.org/2000/svg" version="1" viewBox="0 0 388 273.8">
  <path d="M248.3.8c-17.6 3.5-30.4 21.3-45.7 63.5-.6 1.6-1.4.5-3.9-5.6a80.7 80.7 0 0 0-39.5-44.3c-15.7-7.9-35.5-10.2-47.7-5.6-18.1 7-26.8 19.6-25.1 36.6 1.1 11.2 7 24.4 20 45.4l7.2 11.6-7-1.3c-3.9-.7-9.1-1.2-11.6-1.3-6.5 0-19.2-2.5-31.2-5.9L58 92.2c-1.4-.4-3-1-3.6-1.5-.6-.5-2.5-1-4.3-1-3.7-.4-2.6-3-17.7 42.1-4.6 14-8.9 26.4-9.4 27.5a324 324 0 0 0-9 27.8c0 .8 2 2.2 4.8 3.1l6.7 2.6a212.3 212.3 0 0 0 57.3 11c2.2 0 6.4.5 9.4 1.1l10.3 2a279 279 0 0 1 33 9.8 205.3 205.3 0 0 1 37.1 18.2 53.3 53.3 0 0 1 15.1 13.6c.9 1.3 1.9 2 2.2 1.6.3-.4.5-15.3.3-33l-.3-32.3h-2.6c-4.8 0-1.9-.7 5.2-1.3 3.9-.3 6.2-.3 5.3 0-1.7.4-1.8 3-1.8 36.4 0 32.6.6 41.5 2.4 33 .8-4.2 8.6-12.3 17.1-18a163.3 163.3 0 0 1 29.8-15c5.7-2.6 11.9-4.8 20.2-7.5 17.6-5.7 24.7-7 51.5-9.7 18.7-1.8 32.1-4.9 51-11.7 5.8-2 7-3.9 5.2-7.6-1-2-6.1-16.6-13.8-39.6-1.9-5.8-3.9-11.4-4.4-12.5-.5-1-2.5-6.7-4.4-12.5A264.9 264.9 0 0 0 340 89.4c-.5-.5-4.2.3-8.7 1.8-11.7 4-18.8 6-26.5 7.1-2.1.3-4.2 1.3-4.8 2.3-1 1.5-1.1 1.4-.4-.3 5-14 5.8-18 5.8-32.5.1-17-1.2-22.6-8-36.7A51.8 51.8 0 0 0 261.1.8c-6-1-6.9-1-12.8 0zM145.5 17.3A81 81 0 0 1 183.9 42c5.5 6.7 15.1 24.5 15.1 28.1 0 1.2-2.5 9.8-5.4 19.2-10 31-22.6 78.5-22.6 84.8 0 3.2 6.1 9.4 9.8 10 2.5.4 2.4.4-.5.6-2.5.1-4.1-.8-7.7-4.3-4.3-4-6-6.6-3.4-5 .7.4.8.3.4-.5-.4-.6-1.1-.9-1.6-.6-.4.3-2.5-1.6-4.6-4.2-2.1-2.6-3.4-4.4-2.7-4 .7.4 1 .1.9-1-.2-.9-.9-1.9-1.7-2-1.1-.4-1.1-.2.1.6.8.6 1.1 1.1.6 1.1-1.8 0-4.5-3.2-3.9-4.8.4-.9.2-1.3-.4-.9-.6.4-1.9-.3-2.9-1.6-1.2-1.3-1.3-1.7-.3-.9.9.6 2 .8 2.4.4.5-.4.5 0 0 .7-.6 1-.4 1.2.5.6 1-.6.9-1-.5-2.2-1.1-.7-1.5-1.3-1.1-1.3.4 0 .4-.5.1-1-.5-.8-1.1-.8-2 0-1 .8-2.4-.4-6.2-5.2-7.9-10-16.5-21.7-21.7-29.3-6.1-9-3.3-5.4 13.3 16.8 9.3 12.5 13.6 17.5 14.2 16.6 1-1.6.1-3.2-1.3-2.3-.7.5-.9.1-.5-.9s-.3-2.3-2.1-3.7c-1.5-1.2-2-1.9-1.2-1.5.8.4.4-.3-1-1.5s-1.8-1.9-1-1.5c.8.4.4-.3-1-1.5s-1.8-1.9-1-1.5c.8.4.4-.3-1-1.5s-1.9-1.9-1.2-1.5c1.1.6 1.2.3.3-1.4-.7-1-1.4-2-1.7-2-.3 0-.2.4.2 1.1.5.7.3.8-.5.4-.7-.5-1-1.4-.7-2.2.3-.7 0-1.6-.6-2-.7-.5-.8-.2-.3.6.6 1 .4 1.1-.4.6-.7-.5-1-1.4-.7-2.2.3-.7 0-1.6-.6-2-.7-.4-.8-.3-.4.4s.5 1.2.2 1.2-1-1-1.7-2c-.8-1.7-.8-2 .1-1.5.9.6.9.2.1-1.4-.7-1-1.4-2-1.7-2-.3 0-.2.4.2 1.1.5.7.3.8-.5.4-.7-.5-1-1.4-.7-2.2.3-.7 0-1.6-.6-2-.7-.4-.8-.3-.4.4s.5 1.2.2 1.2-1-1-1.7-2c-.8-1.7-.8-2 .1-1.5.9.6.9.2.1-1.4-.7-1-1.4-2-1.7-2-.3 0-.2.3.1 1 .3.4.4 1 .1 1-.3 0-1-1-1.7-2.2-.8-1.6-.8-2 .1-1.4.9.6.9.2.1-1.4-.7-1-1.4-2-1.7-2-.3 0-.2.3.1 1 .3.4.4 1 .1 1-.3 0-1-1-1.7-2.2-.7-1.5-.8-1.9 0-1.5.7.4.9.1.5-.8-.3-.9-1-1.4-1.6-1.3-1.4.3-17.9-31.6-20.8-40.5-3.2-9.5-3.5-24.3-.6-29.8 7.7-14.5 26.2-21.3 45.1-16.5zm108.4 3.4c.9.6-.9.7-5 .4a41 41 0 0 1-6.8-.9c-1-.9 10.5-.3 11.8.5zM272 47c.8 2.4 1.9 5 2.3 5.7.5.7-1.8 0-5-1.7-3.2-1.6-7.6-3.6-9.7-4.5-3.9-1.6-3.9-1.7-1.9-3 6.7-4.8 12-3.4 14.3 3.5zm28.7 15c-.6 14-2.6 23-8.6 37.4a151 151 0 0 1-27.8 43.2c-4.3 4.6-4.4 4.6-1.7.8 24.5-33.9 36.2-63.6 36.5-92.5.1-8.4.2-9 1.1-5.5.5 2.2.7 9.6.5 16.5zm-58.2-18c1.3.5-.8.7-6 .3a69 69 0 0 1-8.4-1c-.9-.8 12.5-.2 14.4.7zm21 8.8c3.3 1.5 6.9 3.7 8 4.7 1.2 1 1.9 1.8 1.6 1.7-.2-.2-1.2 2-2.1 4.6a41 41 0 0 1-4 8.4l-2.3 3.3-8.6-3.7-8.6-3.7.2-3.8c.1-2.2 1.3-6.5 2.5-9.7 2.6-6.7 2.8-6.7 13.3-1.8zm-31 14.1c.5.8-1.8 1-7.2.4-4.3-.4-8-.8-8.2-1-.2-.2 3-.4 7.2-.4s7.9.5 8.2 1zM256.3 77l3.7 2.2c0 .2-1.4.4-3 .5-3.7.3-6.6-1-8.1-3.9-1-1.9-.9-2 1.3-1.4 1.2.4 4 1.6 6.1 2.6zm-29.4 9.5c.8.7-6.3.2-9.4-.7-2-.5-.9-.6 3-.2 3.3.3 6.2.7 6.4 1zm-14.6 20.1a17 17 0 0 1-4.5 0c-1.3-.2-.3-.4 2.2-.4s3.5.2 2.3.4zm80.6 8.2a52 52 0 0 1-4.5 6.7c-1.4 1.6-.5 0 1.8-3.9 4.5-7.3 6.3-9 2.7-2.8zm-87.6 9.8c-.7.2-2.1.2-3 0-1-.3-.4-.5 1.2-.5 1.7 0 2.4.2 1.8.5zm80.7.7c0 .2-.8 1-1.7 1.7-1.6 1.3-1.7 1.2-.4-.4 1.3-1.6 2.1-2 2.1-1.3zm-3 4l-2.2 2.2-2.3 2 1.9-2.4c1.8-2 2.6-2.7 2.6-1.9zm-5 6l-8.2 8.1-8.3 8 8-8.3c7.4-7.6 8.5-8.7 8.5-7.9zm-83.7 6.3c-.7.2-1.9.2-2.5 0-.7-.3-.2-.5 1.2-.5s1.9.2 1.3.5zm66.2 10.2c-.3.5-2.4 2.4-4.8 4.1l-4.2 3.2 4.5-4c4.6-4.2 5.6-4.9 4.5-3.3zm-13 10.1c-.3.5-1.6 1.5-2.8 2.1-1.9 1-1.9.8.3-1 2.8-2.3 3.4-2.6 2.5-1zm-10.5 6.5c0 .2-1 1-2.2 1.5-2.2 1.1-2.2 1-.4-.4 2.1-1.7 2.6-1.9 2.6-1zm-13 7c-1.4.8-2.9 1.4-3.5 1.4-.5 0 .1-.6 1.5-1.4a11 11 0 0 1 3.5-1.4c.6 0-.1.6-1.5 1.4zm-6 2.5c-.8.5-1.9 1-2.5 1-.5 0-.3-.5.5-1s2-1 2.5-1c.6 0 .3.5-.5 1zm-8.5 3c-1.1.5-2.7 1-3.5 1-.9 0-.8-.5.5-1 1.1-.5 2.7-.9 3.5-.9.9 0 .8.4-.5 1zm-6.2 1.7c-.7.2-1.9.2-2.5 0-.7-.3-.2-.5 1.2-.5s1.9.2 1.3.5z"/>
  <path d="M141.5 54.7a23.2 23.2 0 0 0-13.5 21 75 75 0 0 0 5 22c1 1.4 1.1 1.4.5-.4-3.9-12-4.7-22.7-2.2-28.7 2.2-5.3 9-11.4 14.8-13.3a16 16 0 0 1 14.7 1.6c1.8 1 3 1.4 2.6.8-1.3-2-8.9-4.9-13.4-4.9-2.5 0-6.3 1-8.5 2zM167 61.3c1.3 1.4 2.6 2.5 2.8 2.5.3 0-.5-1-1.8-2.5a13.3 13.3 0 0 0-2.8-2.5c-.3 0 .5 1.1 1.8 2.5zM177.5 71.8c1 1.1 2 2 2.3 2 .3 0-.3-.9-1.3-2-1-1-2-2-2.3-2-.3 0 .3 1 1.3 2zM134 100.3c0 .5.5 1.7 1 2.5s1 1 1 .5c0-.6-.5-1.7-1-2.5s-1-1-1-.5zM157.6 160.7c-.4.5-.2 1.2.3 1.5.5.4 1.2.2 1.5-.3.4-.5.2-1.2-.3-1.5-.5-.4-1.2-.2-1.5.3zM9.2 200.5c-2.1 5.8-2.5 7-3.2 10.6-1 5-.5 5.1 18 8.8 10.9 2.2 32.3 3.4 46 2.7 20.9-1 40 1 63 6.8 3.6 1 7.7 1.8 9.3 2.1 1.5.3 3 1 3.3 1.4.7 1.2 3.4 1.1 3.4 0 0-.7-.8-1-1.8-1s-2.2-.5-2.7-1c-2-1.7-22.1-9-33-11.9a129.9 129.9 0 0 0-28.1-5.2c-4.2 0-16.8-1.4-27.9-3.2a203.6 203.6 0 0 1-36-9.7c-9.3-3.9-9-3.8-10.3-.4zM374 198.7c-1.4.8-16.6 6-23.5 8a219.7 219.7 0 0 1-45.3 7.1c-2.2 0-6.4.5-9.4 1.1l-10.3 2a185 185 0 0 0-35 11 40 40 0 0 0-7 3.1 5 5 0 0 1-2.7.8c-1 0-1.8.4-1.8 1 0 1.3 1.5 1.3 3.8.1a190.2 190.2 0 0 1 72.7-9.8 213 213 0 0 0 63-6.4l4.5-1.2-.7-4c-1-6.2-3.7-13.2-5.3-13.4-.8-.2-2.2.1-3 .6zM3 232.4a53 53 0 0 0-.9 10l.4 3 14.5.8c14.3 1 32.9 0 46-2.3a235 235 0 0 1 78.9-.5c4.9.8 5.2-1 .4-1.9l-6.8-1.6a206.6 206.6 0 0 0-66-7.5c-22.5.7-38-.6-55-4.5l-7.1-1.6-3.2-.7zM378 226.8l-8.5 2c-3.3.6-8 1.7-10.5 2.3a354 354 0 0 1-36 1.3c-37.3.3-43.7 1-70 7.4l-7.3 1.7c-1.5.3-3 1-3.4 1.6-.4.7 1.1.8 4.8.2a279 279 0 0 1 33.2-3c16.6-.9 25 0 48.7 4.4 8.8 1.7 28.4 2.4 43.3 1.6l13.7-.7v-4.8c0-2.7-.5-7-1.2-9.9-1.2-5.3-1.9-5.7-6.8-4zM79 251l-22.5 4c-4.7 1-14.9 1.2-31 1.2-17 0-24.2.2-24.7 1-.4.6-.8 4.6-.8 8.8v7.8h6.1a191.7 191.7 0 0 0 57.9-10 195.2 195.2 0 0 1 64.4-10c6 0 10.6-.3 10.2-.7-2.2-2.2-49.6-3.9-59.6-2.2zM262.5 251c-13.8 1.6-15.2 2.6-4 2.7a224 224 0 0 1 62 9.1c13.3 4.1 22.6 6.5 30.5 8 12.3 2 22.1 3 29.5 3h7.5V266c0-4.2-.4-8.3-.9-9-.6-1-4.3-1.2-18.2-.7-16.8.6-30.5-.2-44.4-2.6l-12-2c-8.3-1.4-40.3-1.9-50-.7z"/>
  <path fill="#b3b3b3" stroke-width="1.7" d="M196.8 231.4c-.6-10-.6-24.8 0-33.1l1.2-15-7.2.1c-4 .1-6 .6-4.4 1 2.7.7 3 3.7 3 32.4v31.7l-7.2-7c-8.9-8.6-41.6-24.7-62.2-30.7-15.2-4.4-21.9-5.6-55-9.9a228.3 228.3 0 0 1-33.4-7.2c-14.6-4.7-15-5-14.8-9.7a1102 1102 0 0 1 30.8-92c1-1.2 5.4-.6 15 2.2 12 3.4 49.8 9.6 51.1 8.3.3-.3-3.3-6.8-8-14.6C93 67 88.9 57 87.9 44.4c-1-14.2 3-22.4 15.3-30.2 8-5.2 9.1-5.4 25.2-5.4S145.8 9 158 15A81.1 81.1 0 0 1 194.6 53c6 12.5 8.7 14.4 10.5 7.2.6-2.5 5.2-13 10.1-23.1C228.6 9.3 241.1-.7 259.3 1.7c9 1.2 18.3 6 25.5 13.2 7.3 7.3 17.8 26.8 15 27.8-1.2.3-2 4.8-2 11 0 21.4-10.8 50.9-28.7 78.2-4.6 7.2-8 13.4-7.5 14 1.5 1.5 16.4-18.6 24.1-32.5 10.8-19.5 14-30.2 15-51.2.7-11.8 1.5-16.9 2.3-14.2 2.2 7.6 1.6 32.6-1 41-1.3 4.6-2.5 9.1-2.5 10.1 0 1.8 19.4-2.6 33.6-7.5 3-1 6-1.3 6.5-.6.6.7 8.5 22.6 17.4 48.6 13 38 15.9 47.7 14 48.9-5.5 3.6-29.4 9.8-46.7 12.2-39 5.4-44.4 6.4-61.5 12-23.9 7.7-47.3 19.7-57 29.1l-7.8 7.7zm-18.7-49.8c-4.3-2.6-5.5-4.5-5.5-8.5 0-6.6 7.6-36.5 18.4-72.5 5.3-17.6 8.2-30.1 7.7-32.9A84 84 0 0 0 178.9 36a97 97 0 0 0-20.7-14.2 42 42 0 0 0-24.6-6.2c-8.8 0-13.7 1-18.8 3.6-21.1 11-22.7 29.3-5.5 63.5a623.7 623.7 0 0 0 12 22.9c8.5 13.8 11.6 19.4 10.9 20.1-.5.5-2.6-1.8-4.8-5-3.7-5.4-8.3-8.6-5.5-3.8 5.1 8.8 28.4 38 30.2 38 1.3 0 2 .6 1.5 1.3-1 1.5 15.2 22.5 20.2 26.3 1.6 1.3 4.5 2.3 6.3 2.3 2.7 0 2.2-.6-2-3.2zm29.6 0c3.3-1.1 3.5-1.4.8-1.4-1.8 0-4.8.6-6.7 1.4-4.2 1.8.2 1.8 5.9 0zm13.2-4.4c3-1.5 5-3 4.7-3.3-1-1-11.2 3.3-11.2 4.7 0 1.8.3 1.7 6.5-1.4zm16.8-9.1c0-.8-1-1-2.5-.5-1.3.5-2.5 1.6-2.5 2.4 0 .8 1.2 1 2.5.5 1.4-.5 2.5-1.6 2.5-2.4zm9.3-5c1.8-3-.3-3.5-2.5-.8-1.4 1.6-1.5 2.6-.4 2.6 1 0 2.3-.8 2.9-1.8zm13.4-10c2.3-3.8-.6-3-4.4 1.2-3.9 4.1-3.9 4.3-.4 2.4 2-1 4.2-2.7 4.8-3.6zm16.7-15.2c2.9-4.6-1.2-2.1-7.7 4.8l-7.5 7.7 7.1-5.4c4-3 7.6-6.2 8.1-7zm-82.8 3.6c0-1-.8-1.7-1.7-1.7-1 0-1.3.8-.8 1.7.6 1 1.4 1.7 1.8 1.7.4 0 .7-.8.7-1.7zm89.2-12.5c1.5-2.3 2.2-4.2 1.4-4.1-1.8 0-7.5 8.3-5.7 8.3.9 0 2.8-2 4.3-4.2zm-78-5.2c-.5-.6-2-.6-3.1-.1-1.4.5-1 .9 1 1 1.7 0 2.7-.4 2.2-1zm89-11.5c0-2.7-6.6 6.4-6.6 9.2 0 1.3 1.4.2 3.3-2.5 1.8-2.8 3.3-5.8 3.3-6.7zm-81.8-5.9c0-.9-1.1-1.6-2.5-1.6s-2.5.7-2.5 1.6c0 1 1.1 1.7 2.5 1.7s2.5-.7 2.5-1.7zm14.2-20c-.6-1-3.4-1.6-6.4-1.5-4.5 0-4.8.3-2 1.5 4.7 2 9.6 2 8.4 0zm28.6-10.2c-6.8-3.6-9.6-3.2-6.1 1 1.2 1.4 4.5 2.5 7.3 2.5l5.2-.1-6.4-3.4zm11.8-3a81 81 0 0 0 4.5-9.1l2.5-6-7-4c-11.6-6.7-14-7-16.7-1.6a46.8 46.8 0 0 0-3.4 10.2c-1 5.4-.8 5.7 7.7 9.5 10.7 4.9 10 4.8 12.4 1zm-35.4-6.8c-.6-1-4-1.7-7.6-1.7-3.6 0-6.6.8-6.6 1.7 0 .9 3.4 1.6 7.6 1.6 4.7 0 7.2-.6 6.6-1.6zm42.6-15c0-4-4.3-10.2-7.7-11-3.7-1-10.7 1.6-10.7 4 0 1.5 13.2 8.4 16.3 8.5 1.1 0 2-.6 2-1.5zM237 42.8c-4.3-1-7.1-1-8.2.2-1.2 1.1.9 1.6 6.5 1.5l8.3-.2zM251.5 20c-2-.4-5.4-.4-7.5 0-2 .4-.4.7 3.8.7 4 0 5.8-.3 3.7-.7z"/>
  <path fill="#b3b3b3" stroke-width="1.7" d="M119.2 225.5c-5.8-1.5-24-2.9-50-3.8-41.8-1.4-59.8-3.7-61.4-8-.5-1.3 0-5.2 1-8.7l1.9-6.3 14 4.7c16.1 5.4 35 9.1 58 11.4 15.8 1.5 36.1 6.3 47 11 7 3.1 1.7 3-10.5-.3zM3.2 236.2c.7-4.8 1.4-9 1.6-9.2.2-.2 6 .8 12.7 2.3 8 1.8 26.6 3.2 53.3 4 30.3 1.1 44.1 2.3 53.4 4.6l12.5 3-25.8-.6c-18.6-.5-30.7 0-42.8 2a305 305 0 0 1-41.5 2.7H2zM1 265.5l.5-8 30.9-1c17-.7 33.9-2 37.6-3 3.7-1 19-1.6 34.2-1.5 15.1.2 23.8.5 19.2.8a284.5 284.5 0 0 0-60.8 10.5c-22.2 6-45.2 10-57.4 10-4.6 0-4.7-.1-4.2-7.8zM256.2 226.7c6.3-3.7 32.6-10 48.6-11.7 25.2-2.7 43.2-6.2 58.2-11.6 15.1-5.3 17-4.6 17.3 6l.2 6.2-10 2.2c-5.5 1.3-28 3-50.1 3.8-24.1 1-45 2.6-52.3 4.1-14 3-15.5 3.1-11.9 1zM349.6 245.5a315 315 0 0 1-28.7-3.2 228 228 0 0 0-43.4-2l-25.6.7 12.6-3.1c9.2-2.3 23.5-3.5 55-4.6 30.2-1 45.5-2.2 52.5-4.2 11.4-3.1 12.6-2.4 12.6 8.7v7l-12 .5c-6.7.3-17 .4-23 .2zM367.1 272.3a324.9 324.9 0 0 1-45.2-9.8c-17.7-4.8-36.3-8-58.3-9.7-3.7-.3 5-.7 19.2-.8 16.2-.2 31.5.7 41 2.2 8.2 1.4 25.6 2.5 38.5 2.5H386l1 6.3c1.7 10.4 1.7 10.4-6.8 10.1-4.4-.1-10.2-.5-13-.8z"/>
</svg>
