<svg xmlns="http://www.w3.org/2000/svg" version="1" viewBox="0 0 700 700">
  <path d="M468.5 62c-19.5 4.8-35.2 15.4-50.9 34.3-15.3 18.4-30.3 47.5-49.1 95.7l-8.8 22.4c-1.3 2.7-1.3 2.6-5.1-7.5-22.3-60.6-63.8-103.4-118.6-122.2-25.2-8.6-54.7-12.3-73.4-9-31.5 5.4-60 24.2-71.7 47.4-10.8 21.4-10 50.8 2.1 81.4 11.5 28.9 42.6 80.9 80.2 134.2 11.9 17 13.9 20.1 12.1 19a55 55 0 0 0-8.8-1.2c-9.3-.7-10.4-.9-25-3a293.7 293.7 0 0 1-57.9-15.9c-3.8-1.5-7.3-2.3-7.7-1.9-.6.7-8.5 23.3-21.9 63.3L26.1 510.7l-1.8 5.3 8.1 3.1a412.5 412.5 0 0 0 56.2 17.3l4.2 1c.9.3 3.4.7 5.6 1.1 2.1.3 4.1.7 4.5.9.3.2 3.1.7 6.1 1l8.5 1c1.7.3 6.4.7 10.5 1.1l11 1 18.5 2c33.6 3.5 68.5 13.6 109.5 31.6 30 13.1 50.6 25.4 62.7 37.5a46.7 46.7 0 0 1 13.4 21.4c1.8 5.4 1.8 3.9 1.8-67.2l.1-72.8 2.8-.5 4.3-.9c1.5-.3 1.6 6.2 1.6 74.5 0 41.2.3 75.2.6 75.5.3.3 1-1.8 1.6-4.7 3.1-14.3 12.8-26.4 31.1-38.5 32.6-21.6 97.7-47 135.5-53 16.4-2.6 16.9-2.6 31.5-3.9 4.1-.3 8.6-.8 10-1l9.5-1a353.3 353.3 0 0 0 45.4-7.6c20.3-5 56.1-17.3 56.1-19.3 0-.6-3.2-10.3-7.1-21.6l-12.4-36-13.5-39a7851.7 7851.7 0 0 1-27.1-78.5c-1.8-5.8-1.4-5.8-18.1 0a225.2 225.2 0 0 1-33.8 9.9c0-.3 1.3-2.4 2.8-4.7 22.6-33.3 37.8-73.2 40.9-107.1 1.1-12.8.3-45-1.2-47.6a216 216 0 0 0-18.8-58.8c-13-25.8-24.9-40.2-43.8-52.8-25.3-16.9-51.5-23-74.4-17.4z"/>
  <path d="M18.2 535.3c-3 6.3-9.2 29.2-8 30.1a441.4 441.4 0 0 0 46.3 10l8.5 1c3 .4 6.6 1 8 1.4 1.4.4 25.9.7 54.5.7 48.5.1 53 .3 67 2.4a298.3 298.3 0 0 1 25.5 4.6 478.4 478.4 0 0 1 70.6 20.2 213.8 213.8 0 0 0-28.3-13.8c-15.9-7.3-55-21.3-65.3-23.3-1.4-.2-5.4-1.1-9-2l-10-2.1c-1.9-.3-4.2-.7-5-1l-7-1-8-.9c-1.4-.3-5.9-.7-10-1.1l-10.3-1-10-1a182.1 182.1 0 0 1-17.7-2 396 396 0 0 1-84.6-23.4l-5.1-2-2.1 4.2zM670.5 534.7l-11 4.3a433 433 0 0 1-61 16.5c-4.7.8-12.2 1.8-15 2l-28 2.9-11.5 1.1c-3 .3-6.6.7-8 1l-7 1c-2.5.3-5.2.8-6.1 1.1A345.2 345.2 0 0 0 482 575a502.4 502.4 0 0 0-49 19c-5.6 2.2-23 10.9-23 11.5 0 .3 3.7-.9 8.3-2.6a634 634 0 0 1 44.2-13.3l11-2.5c12.6-2.8 26.4-5.4 35-6.4 16.9-2.2 20.7-2.3 84-1.8 20.9.2 34.5-.7 51.5-3.5 15.4-2.5 44-8.7 46.1-10 .4-.2.3-2.1-.2-4.1l-1.4-7c-1-6.1-5.5-19.1-7.3-21.1-1.7-2-1.8-2-10.7 1.5zM7.9 582.7l-.3 2.3-1.1 7.5-1 7.5c-.2.8-.6 4.9-1 9s-.9 7.8-1.2 8.3c-.8 1.4 1.8 1.8 22.7 3.4 12.3 1 46.2 1 56.5.1 9.4-.9 11.1-1.1 27.5-3.8l16.5-2.5 5.5-1a115.2 115.2 0 0 1 13.4-2.1 431 431 0 0 1 66.9-1.1 587 587 0 0 1 64.2 9.1c7.2 1.6 8.5 1.8 8.5 1.3 0-1.7-46.2-15.2-65.5-19.1l-5.5-1.2c-3.2-.6-11.6-2.2-15.5-2.8l-8.5-1.2c-3-.3-6.6-.8-8-1.1-1.4-.4-25.4-.7-53.5-.7-28-.1-53.5-.5-56.5-.9l-22.5-3.3-10-1.9-9.5-1.9c-1.4-.2-6.2-1.3-10.7-2.5-8.7-2.2-11.3-2.5-11.4-1.4zM679 584.5a229.6 229.6 0 0 1-22 4.8 146 146 0 0 1-12.5 2.2l-6.5 1-19 2.1c-4.2.3-15.3.3-68.5 0-24.1-.1-33.5.6-53.3 4a577.4 577.4 0 0 0-75.7 19.5l-4 1.5-3.5 1.3c-2.9 1.3-4.7 1.6 15.2-2.4 6.5-1.4 13.9-2.7 16.5-3l6.3-1c.8-.3 4.2-.7 7.5-1l10-1.1c23-3.3 70.4-3.7 84-.9l6.1.9a752.8 752.8 0 0 1 31.9 5.1l6.5 1 7 1 11.5 1.4c6.9.9 58.1.7 62-.2 1.1-.3 5.7-.8 10.1-1.2l8.2-.7-.4-3.6a406.2 406.2 0 0 0-2-17.7c-.3-2.8-1-7-1.4-9.5-.5-2.4-.6-4.8-.4-5.2.8-1.3-3.6-.7-13.6 1.7zM164.9 625.4c-.2.2-4 .7-8.5 1l-10.5 1.1-6.4 1a1722.3 1722.3 0 0 1-45 7.1c-9.7 1.9-52.9 2.6-69 1.2-21.3-2-23.2-2-23.2-.6a982 982 0 0 1-1.9 27.7l-.5 6.3 16.3-.6 21.2-1.1a199 199 0 0 0 24.1-3c11.6-1.3 27.5-5.1 51-12.2a886 886 0 0 1 18-5.3l6.4-1.9a449 449 0 0 1 30.1-6.5c3.2-.5 4.9-.8 14.3-2 2.9-.5 13.8-1.4 24.7-2.1 12.7-.9 51.2-.4 68 .9 7.5.5 7.4.5-4-1.9a463.9 463.9 0 0 0-57.5-8.1c-4.6-.6-47.1-1.5-47.6-1zM500.7 625.6c-.1.1-4.5.5-9.7.8l-12.5 1a3478.3 3478.3 0 0 1-25 3.2l-13.7 2c-2.1.3-7.1 1.4-11 2.4l-7.3 1.8 8-.6c11.1-.9 62-.9 73.5.1a235 235 0 0 1 25 2.7l9.5 1.6c6.5 1 24.2 5.3 34.9 8.5 40.3 12.1 57.8 16.2 78.6 18.4l9.5 1.1c2.3.3 21.3 1.1 36.5 1.6 2.8.1 3.1-.4 2.6-6.5-.7-8-1.9-25.8-1.9-27.5 0-1.1-1.4-1.2-6.1-.8-17.1 1.7-25 2.1-46.1 2.1-25.9 0-36.7-.8-54.5-4a80 80 0 0 0-6.4-.9c-2.7-.4-5.2-.9-5.5-1.1-.3-.2-2.8-.6-5.6-.9a100 100 0 0 1-7.5-1.1l-6.4-1-6.5-.9c-8.8-1.5-51.2-3.1-52.4-2z"/>
</svg>
