<svg xmlns="http://www.w3.org/2000/svg" width="303.8" height="115.3" display="block">
  <g fill-rule="evenodd">
    <path fill="#4d4a4a" d="M38.8.1a16.7 16.7 0 0 0-6 1.3 14.2 14.2 0 0 0-2.4.8 15.5 15.5 0 0 0-3.2 1.5 6 6 0 0 0-1.2.6l-1 .5V5l-.4.3-2 1.3-1.8 1.3a22.6 22.6 0 0 1-2.3 2.2c-.7.5-1.2 1-1.2 1.2l-.6.7-.6.6-1 1.6a21 21 0 0 0-2.4 3.6l-.6 1.1-.6 1.4a19 19 0 0 0-1.2 3.4l-.4 1.2a75 75 0 0 1-.8 3.1l-.1.6A45.5 45.5 0 0 0 9 41.2a56.5 56.5 0 0 0 3 8.9l1.4 3 1.4 2 1 1.5.8 1a509.5 509.5 0 0 1 4 3.9c.1 0 .3 0 .3.2l.7.6c.4.2 1 .6 1.3 1l1.3.8.6.4a37.3 37.3 0 0 0 8.6 3.9 39 39 0 0 0 19.5-.7 20.5 20.5 0 0 0 4.5-2l1.4-.8A41.7 41.7 0 0 0 70 54.1a39 39 0 0 1 2-3.3l.3-.6c0-.2.7-1.9 1.2-2.7l.7-2c.1-.8.4-1.6.5-1.8l.5-1.6-10.1-.1h-10l-.9 1a13.4 13.4 0 0 1-11 6.3s-.2 0-.2.2c0 .1-1.5.2-1.7 0l-.7-.1c-1.4-.2-4.2-.9-4.9-1.4l-1.4-.8-.9-.7-.3-.2c-.3 0-1.6-1.3-2.2-2.2l-.8-1-.3-.3-.7-1.3-1-2.3-.4-1.5a14.4 14.4 0 0 1 1.4-10.1l.7-1.3.5-.5c.3-.2.5-.5.5-.6 0-.2.7-1 1-1 0 0 .3-.1.5-.4.2-.3.5-.5.6-.5.1 0 .4-.2.6-.5l1.6-1a13 13 0 0 0 1.2-.7c1.3-1.4 11-1.3 12.1.1l.7.4c1.1.5 3.9 2.8 5 4.4l.6.8H65l10.1-.1v-.6c0-.3-.2-.6-.3-.8V25v-.2c-.2 0-.3-.1-.3-.3 0-.5-.7-2.6-1.3-4a24 24 0 0 1-1-2l-.7-1.3a26.3 26.3 0 0 0-6-7.7A20.8 20.8 0 0 0 61.2 6c0-.2-.3-.4-.4-.4A38.7 38.7 0 0 0 52 1.3a19.3 19.3 0 0 1-2.5-.7A46 46 0 0 0 38.8.1m72.5.2c-1.8.2-3.5.5-3.6.7l.9-.1a21 21 0 0 1 2.5-.4l2-.2c.5-.2.2-.2-1.8 0m12 0l1.9.2c.8 0 2 .2 2.6.4 1.2.2 1.5.2.5-.1a21 21 0 0 0-5-.5m-19.2 1.5a7 7 0 0 0-1.3.5l2.8-.8-1.5.3m27.2 0l1 .1 1.1.3a22.1 22.1 0 0 0-2.6-.7l.5.2m27 33v32.8h20.2l-.1-18V31.7l.4.7.5 1.1.3.4.3.4c.1.2.5 1 1 1.6l.7 1.2 1 1.8a38.3 38.3 0 0 1 2.3 3.7l.8 1.3c.1.3.3.5.4.5l.1.1.9 1.5.8 1.4c0 .1.4.8 1 1.5l.9 1.6.1.2c.1 0 .4.4.6.9a16.2 16.2 0 0 0 1.4 2.4l1.1 1.7a9 9 0 0 1 1 2l.7 1.2a35 35 0 0 1 2.3 3.5l.4 1s0 .2.2.2l.3.4a34 34 0 0 0 2 3.4c0 .1 3.2.2 10.1.2h10.1V1.8h-20.2v17.7c0 15.7 0 17.6-.3 17.2l-1-1.8a88 88 0 0 1-4.4-7 28 28 0 0 1-2.2-3.6l-.8-1.4-1.2-2-1-1.7-.8-1.3-1-1.7-.4-.6c-.1 0-.2 0-.2-.2l-.8-1.4-1-1.6-.8-1.4-.8-1.5c0-.2-.2-.4-.4-.4l-.2-.3a33 33 0 0 0-2.3-4l-1-1.7-.5-.8c-.1 0-.2-.1-.2-.3 0-.2-1.2-.2-10.2-.2h-10.1v32.8M246.5 3c-.1.6-.3 1.1-.4 1.1l-.7 1.8-.6 1.9s-.4.7-.6 1.6a12.8 12.8 0 0 1-1 2.4 35 35 0 0 0-1 3l-.6 1.8-.7 2.1a27.3 27.3 0 0 0-1.3 3.6l-.6 1.6a17 17 0 0 1-.7 1.9l-.7 2a16 16 0 0 1-.7 1.9l-.6 1.7a11.4 11.4 0 0 1-.6 1.9l-.2.4-.6 1.6-.5 1.3-.1.2c0 .3-1 3.6-1.2 3.7l-.7 1.8-.7 2-.5 1.5-.7 1.9a26 26 0 0 0-.7 2 30.3 30.3 0 0 1-1.5 4 4 4 0 0 1-.4 1.3c-.2 0-.2.1 0 .1v.1a5 5 0 0 0-.7 2.3 5 5 0 0 1-.6 2l-.7 2-.7 2-.7 1.8-.6 1.7c-.2.4-.1.5 10 .5h10l.2-.5.7-2.2.6-2 .7-2 .6-2h10.7c8.3 0 10.7 0 10.8.2l.7 2 .7 2 .6 1.7a38.3 38.3 0 0 0 .6 2c.3.8-.3.8 10.3.8 11 0 10.4 0 9.8-1.2l-.6-1.6-.4-1.2c-.2-.1-.5-1-.7-1.8l-.7-2c-.4-.6-.9-2.2-.7-2.3.2 0-.5-2.4-.7-2.4-.1 0-.2-.1-.2-.3l-1-3.3a32 32 0 0 1-.8-2.2c-.3-1-.6-1.8-.8-2a8 8 0 0 1-.4-1.4c-.2-.6-.4-1.3-.6-1.5l-.1-.3v-.3l-.7-1.7-.6-1.6c-.1-.2-.9-2.5-1-3.2l-.3-.6h-.1v-.4l-.7-1.7-.5-1.5-.7-1.9-.7-1.9-.6-1.8-.7-1.8-.6-1.7a7.7 7.7 0 0 0-.7-1.8 24.5 24.5 0 0 0-1.3-4V18c-.2 0-.4-.7-.6-1.3-.2-.7-.4-1.4-.6-1.6l-.7-2.1a16 16 0 0 0-.7-1.9l-.6-1.9a18 18 0 0 0-.8-2l-.6-1.6L269 4l-.1-.1s0-.5-.3-1l-.4-1.1h-10.6l-10.7-.1-.3 1.2m-146.2.2c-.5.1-.8.3-.8.4l1.1-.4.8-.4a6 6 0 0 0-1.1.4m34.8-.3a9.4 9.4 0 0 0 2 .7l-1-.5c-1-.3-1.1-.4-1-.2m2.6 1c0 .2 1.5 1 1.7 1 .2 0-.2-.2-1-.7l-.7-.3m-40.2.6c-.8.4-.9.5-.3.3l.7-.4c.3-.3.3-.3-.4 0m-2.2 1.4l-1.4 1c-.8.4-1 .6-.9.6a17.5 17.5 0 0 0 3.3-2.3l-1 .7m31.4-.6c-1 .2-2.8 3.3-2.8 4.6 0 .5.4-.2.8-1.6.4-1.5 1-2.1 2.1-2.8.5-.3.5-.3-.1-.2m3.7 0l.8.6.8.5-.5-.5c-.3-.4-1-.8-1-.6m10 .7a26.4 26.4 0 0 1 7 7 18 18 0 0 0-2.7-3.6l-.5-.7-.2-.1-1.7-1.3a13 13 0 0 0-2.7-2l.8.7m-35.7.2l-.6.1h1.1l.1-.2-.6.1m.8 0h1.3c-.4-.1-1.4-.2-1.3 0m-2.5.5c-.9.4-1.8 1.2-2.2 2-.3.6-.4 1-.1 1l.1-.5c0-.6 1-1.6 2.1-2.2l1.1-.6-1 .3m4.5-.3c.3.3 2 1.1 1.8 1 0-.2-.4-.5-.6-.6l-1.2-.4m24.7.4c0 .2.2.4.3.4 0 0 .2.2.2.5 0 .4 0 .4.1 0l-.4-.9-.4-.5.2.5M91.8 8.4l-.6.6.6-.5.6-.7-.6.6m18.2 0l.3 3.3a29 29 0 0 0 .4 2.3 687.3 687.3 0 0 1-.6-5.7c-.2-.2-.2-.2 0 0m-21 2.5a24.6 24.6 0 0 0-2.6 2.8 47.7 47.7 0 0 1 2.6-2.8m34.4.6a64.5 64.5 0 0 1-3 7.5c-.3.2-.4.4-.4.5l-.6 1c-.6 1.2-.8 1.6-.6 1.6l.5-.8.9-1.5.7-1.4.5-1.1a31.8 31.8 0 0 0 2-5.8m9 1l-.3 2.6-.1.5.2-.5c.2-.6.7-4.5.6-4.6l-.4 2m15.1.8l.6 1a95.5 95.5 0 0 1 0-.2c0-.2-.6-1-.6-.8m-47 1.9a41.2 41.2 0 0 0 1 4.4 40.4 40.4 0 0 1-.9-5.3v.9m-15-.4c-.3.3-.8 1.3-.6 1.2l.5-.8c.3-.6.4-.8 0-.4m-1.3 2.2l-.4.7c-.2.2-.2.2 0 .1.2 0 1-1.2.8-1.2l-.4.4m47.1.8a19.8 19.8 0 0 0-.5 2.2c.2-.2.7-2.3.6-2.4l-.1.2m-20.1.6c0 .3.5 2.2.7 2.2l-.2-1a24.6 24.6 0 0 1-.5-1.2m-28.4 1.4l-.3.8.5-.7.2-.8-.4.7m68.2 1.2l.4 1.5c.3.7.6 1.9.7 2.6l.2 1.2v-1c-.2-1.5-1.3-5.2-1.3-4.3m-49.3 0a27.8 27.8 0 0 0 1.2 3.3 107.8 107.8 0 0 1-1.2-3.2m28.4.4c-.2.3-.8 2-.6 1.8l.7-2-.1.2m-48.6 1.7a17.8 17.8 0 0 1-.4 1.4c.2-.2 1-2.4.8-2.5l-.4 1.1m31-.7l.7 1.7-.2-.7-.3-1-.2-.4v.4m5.7.2a107.2 107.2 0 0 0-2.9 3.3c-.6.7-.9.7-1.2-.1a2 2 0 0 0-.3-.7c-.1 0 .1.7.5 1.4l.2.5 1.7-1.7c1.6-1.7 2.6-3 2.4-3.1l-.4.4m10.5 2.2c-.4.6-.7 1.8-.4 1.4l.2-.5.3-.8.1-.4-.2.3m-25.6.2c0 .3.3 1 .5 1.4.5.9.4.6 0-.7-.4-1-.7-1.4-.5-.7m-22.6 1.2a22.9 22.9 0 0 0-.5 4s.2-.7.2-1.5l.4-2.2c.2-.8.2-1-.1-.3m71.9 1v-.5.4m105.8 1.5a23.9 23.9 0 0 0 1.1 3.1l1 3.4a21.6 21.6 0 0 1 1.3 4l.6 2a39.4 39.4 0 0 0 1.3 3.7c0 .1-1.9.2-6.2.2-5.2 0-6.2 0-6-.3l.2-1 .3-.7.7-2 .7-2 .6-1.6.5-1.7.6-1.7.8-2.2.7-2.1a15.7 15.7 0 0 1 1-2.7c0-.7.4.1.8 1.6m-130.8-1l-.3.8c-.4.8-1 .7 12.8.7 13.9 0 13.2 0 12.8-.9l-.2-.3v.3c0 .7-.2.8-12.8.8-11.6 0-12.7-.1-12.5-.5l.4-1.2s-.2.1-.2.3m-23.2.3l.1.3.4 1c.4 1 .7 1.4.5.7-.3-1-1-2.4-1-2m1.2 3.4c-.2.2-.8.9-1.4 1.3a43 43 0 0 0-7.6 8.5 32.2 32.2 0 0 0-4.2 11.5v1l.1-1.3.5-2c.2-.4.5-1.3.6-2a24.6 24.6 0 0 1 2.8-6.3c0-.3 1-1.8 2-2.8L99 38l.5-.5A24.5 24.5 0 0 1 104 33l.7-.7c.6-.3 1.1-1 1-1.3 0-.2 0-.2-.2.2m-25.5.5v-.3.3m0 6.4a24.2 24.2 0 0 0 .7 4.5 140.2 140.2 0 0 1-.7-4.5m46.5.9c0 .4 0 .4 0 0l.1-.3h12.8c10.6 0 12.9 0 13 .2.1.2.2 4 .2 14.1v14h-5.3l-5.2.1c0 .2 1.1.2 5.4.2h5.3V38.7h-26.4v.4m.7 1.9l.5 1-.2-.7c-.1-.5-.4-1-.5-1l.2.7m-16.3.3l-.6.5.6-.4.6-.5 1 .9 1 .8-2-1.8-.6.5m-2 1.2c-.2.2-.2.3 0 .3.1 0 .4-.1.5-.3.3-.1.3-.2.1-.2l-.5.2m4.9.8l.6 1c.2.2.2.2 0-.1a3 3 0 0 0-.5-1l-.5-.5.4.6m-6.6.7c-.7.7-1.5 1.7-1 1.3l1.7-2-.7.7m20.9-.7a22.2 22.2 0 0 0 .8 1.6c-.2-.7-.8-2-.8-1.6m-46.8 1.4L82 47s0-.7-.3-1.3l-.4-1.1m33.5.1l.9 1.7c.4.6.2.2-.3-.7l-.6-1m2 3.7c.2.6.6 1 .6 1l-1.2-2.2.5 1.2M103.8 48.2l-.5.8.6-.8.5-.7s-.4.3-.6.7m-21 .7c.1.5.4 1 .5 1.1 0 .1 0-.3-.3-.8-.5-1.2-.7-1.4-.3-.3m19.9 1l-.5.8s.2 0 .4-.4l.6-.9.1-.3-.6.7m15.1.5a26.8 26.8 0 0 1 2 3.5c.2.1 0-.3-.3-1a83.1 83.1 0 0 1-1.8-3l.1.5m-34 .9l1 1.4-.6-1.1-.3-.3m17.4 1.3c-.3.4-.4.8-.4.9l.5-.9.4-.9-.5.9m-15.8 1.3l.6.7c.2.1 0-.1-.2-.5-.7-.8-.9-1-.4-.2m34.6.5l1.7 2.2-.8-1.2c-.7-1-1.2-1.6-.9-1m-20.2.8l-.3.9.5-.9.4-.8-.6.8m-7.2-.3c0 .2.3.6.6 1 .3.3.5.4.4.2a2 2 0 0 0-.4-.6c-.2 0-.4-.3-.4-.5-.2-.3-.2-.3-.2 0m37.2.8c-.3.7-.7 1.2-1 1.4-.4.2-.6.3-.5.4.6 0 1.5-1.2 2-2.3.2-.9 0-.7-.5.5m-43.3-.4c.5.7 1 1 .6.4l-.6-.8c-.3-.2-.3-.1 0 .4m53.5 1.4c-.8 1.5-1 2-.4 1.4.4-.6.6-1 .7-1.6l.4-.7c.1 0 .2-.2 0-.3 0-.2-.3.3-.7 1.2m-45.8.3l.6.4c.1 0-.1-.3-.5-.5l-.6-.5.5.6m28.1-.1l1.1.7s-.3-.4-.8-.6c-.6-.5-.7-.5-.3-.1m-33.7.8l1.2 1-1-1-1.2-1 1 1m9.7-.6c-.5.3-.6.4-.2.3.4-.1 1.2-.8 1-.8-.2 0-.5.2-.8.5m26.2.9l1.1.1 1-.1-1-.1c-.6 0-1.1 0-1 .1m14.1 1a20.5 20.5 0 0 1-6.7 6.2 20.4 20.4 0 0 1-5.9 2.4c-.3.2-2.2.6-4 .9a78.5 78.5 0 0 1 3.2-.4l1-.3 2.8-.8 2.2-1 1.7-1.1 1.6-1.1a21.8 21.8 0 0 0 3.9-4c.2-.2.9-1.2.7-1.2l-.5.5M90 59l1 1c.2 0 0-.2-.3-.5-.6-.7-.7-.7-.7-.5m51.3.2a120.3 120.3 0 0 1 .8 7 78.2 78.2 0 0 1-.7-7c-.2-.4-.2-.4-.1 0m-49.8 1a87.6 87.6 0 0 1 4.9 3.4l.5.3-.4-.4-.6-.3c-.1 0-.2 0-.2-.2l-.4-.3c-.4-.1-1.8-1.1-3.2-2.1l-.6-.4m5.7 3.9l1.6.8 1.5.6c.2.2 2.5 1 2.8 1L99 65l-1.5-.6c-.5-.3-.6-.3-.4-.1m6.8 2.7c.2.2 2.4.8 3.5 1 .7 0 .7 0-.1-.2a99.3 99.3 0 0 1-3.4-.8M54.4 79.6h-.6V85l-.5-.6c-.9-1-3.8-.6-3.9.5l-.1.2-.5.8c-.5 1.5-.2 5.6.5 5.6l.1.2c0 1.1 3 1.6 4 .6l.5-.6v.6c0 .5 0 .5.8.5h.7v-6.6c0-4.3-.1-6.6-.2-6.7h-.8m155.5 6.7v6.6h.8l.7-.1v-6.5l.1-6.6H210v6.6m82.9 0v6.6h1.6V79.6h-1.6v6.6M99.6 80.6c0 .3-.3.9-.5 1.3-.7 1.4.7 1 1.7-.4s1-1.5 0-1.5-1 0-1.2.6m174.9 0l-.7 2h.4c.4.1 1.4-.6 1.4-.9l.4-.7c.6-1 .6-1-.4-1-.8 0-.8 0-1.1.6m-156.9.4v1h.8l.8-.1V80h-1.6v1m52.5 0v.9h1.8V80h-1.8v1m11 0v.9h1.5V80h-1.5v1M3.8 80.5c-.3 0-.7.2-.9.4l-.5.5c-.3 0-1 .6-1 .8l-.3.4C-1 83.9 0 90 2.2 91.9l1 .7 2.2.1 2.2.1V91L7 91c-.4 0-.7.2-.8.3-.3.3-2.4.2-2.6-.2a2 2 0 0 0-.6-.6c-.5-.2-1-1.7-1-2.5l-.2-.5c-.3-.2-.3-1.9 0-2.1l.1-.6c0-2 2.9-3.4 5.2-2.6.5.1.8-1.2.3-1.5-.2-.1-2.9-.2-3.6-.1m69.2 0c-.3 0-.7.2-1 .4-.1.3-.4.5-.5.5-.2 0-.9.5-.9.7l-.6 1c-1 1.6-1 4.7 0 7 1.1 2.2 2.9 3 6.3 2.4l1.5-.2v-3.2l-.1-3.2H74v1.5H76v4h-1.5c-1.4 0-2.8-.8-2.8-1.5l-.4-1c-.6-1-.5-4 .1-5 .9-1.8 2.8-2.5 5-1.8 1.1.3 1.1.4 1-.5 0-.6 0-.8-.2-.8l-.4-.1c-.1-.2-2.9-.4-4-.2m68 6v6.2h1.4v-10l.5 1a22.4 22.4 0 0 1 1.6 3.5l.6 1.2a20.4 20.4 0 0 0 1.4 3l.7 1.3h2V80.5H147.3V90l-.8-1.4a40.3 40.3 0 0 1-1.6-3.5l-.2-.5c0-.4-1.7-4-2-4.1l-1-.1h-.9v6.1m80.3-6l-.6 2-.7 2-.5 1.5-.7 2-.7 2-.6 1.7c-.5.4-.3 1 .5 1s.8 0 1-.5l.4-1.1.4-1.1.1-.5h2.3l2.2.1.3 1 .4 1.6c.1.5 2 .8 2 .4a29.5 29.5 0 0 0-1.2-3.7 29.6 29.6 0 0 0-1.5-4.5l-.5-1.8a7.5 7.5 0 0 0-.7-1.8c0-.4-1.7-.6-1.9-.3M27 81.7c-.5.1-.5.1-.5 1.1v1h-.7c-.8 0-.8 0-.8.6s0 .6.8.6h.7v3c0 4.5.2 4.8 2.3 4.8h1v-.6c0-.5 0-.6-.5-.6-1 0-1 0-1-3.5L28 85H29.8v-1.2H28v-1c0-1.2-.1-1.2-1.2-1m134 0c-.5 0-.5 0-.5 1v1h-.6c-.7 0-.7 0-.7.6 0 .5 0 .6.7.6h.6v3c0 4.5.2 4.8 2.3 4.8h1v-.6c0-.5 0-.6-.5-.6-1 0-1.1-.2-1.2-3.3 0-3.3 0-3.3 1-3.3h.8v-1.2h-1l-.8-.1v-1c0-1.2 0-1.1-1.1-1m61.4 1.4a41.9 41.9 0 0 1 1.5 5H222c-1.9 0-2 0-1.5-.9l.7-2c.6-2.3 1-3.2 1-2.1m-210.6.8c-2.7.7-3.3 6.2-1 8.3.6.6 1.6.7 3.8.5l.9-.1V92c0-.9-.1-.9-.8-.5-1.7.8-3.4 0-3.6-1.7l-.2-.6-.1-.4h5.2v-1.4c-.2-2.8-1.8-4-4.2-3.5m5.7 4.4v4.5h1.6v-3.1c.1-3.3.2-3.7 1-4.3.7-.6 2.3 0 2.1.7l.1.4c.1.1.2 1.5.2 3.2v3H23.6v-8l-.5-.4c-.8-.7-3-.7-3.7 0l-.4.6-.2-.5c-.1-.5-.2-.5-.8-.6h-.7v4.5M30.8 84l.1 4.5v4.2H32.6v-2.9c0-2.9.2-4 .6-4 0 0 .3 0 .5-.3.1-.2.3-.3.4-.3.6.1 1-.3 1-.9v-.6h-.9c-1 .2-1.2.4-1.5 1-.2.4-.2.4-.2-.3v-.7h-1c-.6 0-.8 0-.7.3m7.4-.2c-.4 0-1.2.9-2 2-.6 1.1-.5 3.8.3 5.2 1 1.6 1 1.7 3 1.7h1.6l.7-.7c1-1 1.2-2.2 1-4.6 0-3-1.5-4-4.6-3.6m21.1 0c-.4 0-1.4 1-2 2-.4.7-.7 4-.3 4.4l.4.6c.5 1.3 1.5 1.9 3 1.9 2.2 0 2.6-.2 2.6-.8 0-.7 0-1-.2-.8-.2.3-1 .6-2 .6s-2.2-1-2.2-2l-.1-.7c0-.3.2-.3 2.5-.3h2.6v-1c0-2.9-1.7-4.4-4.3-3.9m22.8 0c-.3 0-.7.3-.9.6l-.5.5c-.6 0-1.1 2.9-.8 4.3.6 3.3 1.4 3.8 5 3.4l.9-.1v-.7l-.1-.6-.7.2c-1.7.8-3.6-.2-3.6-1.9l-.1-.5-.2-.1c0-.2 1-.2 2.6-.2h2.6v-1.4c-.3-2.8-1.6-4-4.2-3.5m5.7 4.4v4.5h1.6v-3.1c.1-3.3.2-3.7 1-4.3.4-.4 1.3-.4 1.8.1l.5.4v6.9h1.7v-3.4c0-4.9-.3-5.5-2.7-5.5-1.3 0-1.3 0-1.8.5l-.5.6v-1.2h-1.6v4.5m10.5-4.4c-1.5.5-2.7 3.2-2.3 5.3 0 .6.2 1 .3 1l.3.8c.4 1.3 1.2 1.8 3 1.8h1.5l.8-.7c1.6-1.7 1.7-5.8 0-7.4a4 4 0 0 0-3.6-.8m6.5 4.4v4.5h1.6v-2.5c0-3.6.2-4.5 1-4.9 1-.4 1.7-.2 1.7.5 0 .2 0 .4.2.4l.1 3.2v3.3h1.4V90a14.6 14.6 0 0 1 .3-3.8s0-.2.2-.2l.1-.2c0-.6 1-1 1.7-.6s.7.4.7 4v3.5h1.6V89c0-2.8-.1-3.8-.3-3.8a.3.3 0 0 1-.2-.3c0-1.2-3-1.5-3.8-.3l-.4.5-.5-.6c-.8-1-2.6-1-3.4 0l-.5.5v-1.2h-1.5v4.5m12.8 0v4.5H119.3v-9H117.6v4.5m6.2-4.4c-.7.2-1.8 1-2.1 1.7-.5 1.1-.9 3.4-.6 4l.4 1c.2.5.6 1.1 1 1.5l.7.7h1.3c2.1 0 2.3-.1 2.4-.9 0-.7-.2-.9-.9-.5-1 .5-1.8.3-2.6-.5l-.7-.7v-1.5c-.1-1.7 0-2.1 1-3.2.4-.4 1.8-.6 2.2-.2.4.4 1-.1 1-.7 0-.7-1.7-1-3.1-.7m5.6.1c-.2.2-.5.3-.7.3-.2 0-.3 0-.2.6.2.9.4 1 .9.6 1-.8 3.2-.6 3.2.3 0 .2 0 .3.2.4l.1.5c0 .4-.2.5-1.9.6-2.3.3-4.2 3.3-2.8 4.5l.2.4c0 .7 3.4.8 4 0l.6-.4.1.5c0 .4 0 .5.6.5h.6v-3.4c0-3.9-.1-4.2-1.1-5-.7-.7-2.9-.9-3.8-.4m21.9 3.4c0 5 .3 5.4 2.7 5.4 1 0 1.2 0 1.6-.4l.5-.5v.5c.2.3.3.4 1 .4h.7v-1.3c-.2-.7-.2-2.7-.2-4.5v-3.2h-1.4v3c0 4-.3 4.8-2 4.8-.7 0-.9-.2-1-1.1 0-.4-.2-.8-.3-.8l-.1-3v-3h-1.6v3.7m13.6-3.3l.1 4.5v4.2H166.6v-2.9c0-3 .1-3.9.7-4 .2 0 .3-.2.3-.3l.3-.1c.8 0 1.2-.4 1.2-1.1v-.6h-.9c-.7.2-1 .3-1.3.7l-.5.5v-1.2h-.8c-.7 0-.9 0-.8.3m5.5 4.2v4.5h1.6v-9h-1.6v4.5m6.1-4.4c-4 1-3.4 8.9.7 8.9 2 0 2.5-.1 2.5-.8 0-.7-.6-1.1-.8-.7l-1 .3c-2 .2-3-2.4-2.1-5.4.3-.8 2.9-1.7 2.9-1 0 .6.8 0 .8-.5 0-.9-1.3-1.2-3-.8m4.7 0v8.9h1.5v-9h-1.5m5.7.1c-2 .7-3 4.3-1.8 7l.3.7c0 .6 1.3 1.2 2.8 1.2h1.5l.8-.7c1.6-1.7 1.7-5.8 0-7.4a4 4 0 0 0-3.6-.8m6.5 4.4v4.5h1.6v-3.2c0-3.3 0-3.6.8-4.2.7-.6 2-.2 2 .7l.2.4c.1.1.2 1.3.2 3.2v3h1.5v-3.5c0-4-.1-4.7-1-5.1-1-.5-2.8-.3-3.4.3l-.4.6v-.6c0-.6 0-.6-.8-.6h-.7v4.5m9.4-4.2c-.5.2-.6.3-.5.6v.7c0 .4.6.4 1 0 .4-.6 2.6-.5 2.9.2.5 1.1-.2 2-1.6 1.8-3-.3-4.5 4.5-1.6 5.2 1.4.4 2.4.2 3-.3l.5-.6v.6c0 .5 0 .5.8.5h.7v-7.1l-.5-.7c-.8-1.2-3-1.6-4.7-1m27.3 0c-1.2.2-2 1.6-2 3.2l-.2.6c-.2 0-.3.9 0 1v.8c.1 1 .3 1.7 1 2.5l.7.7h1.2c1 0 1.3-.2 1.7-.6l.5-.5v1c0 1.9-.7 2.8-2.4 2.8-.6 0-1-.1-1.2-.3-.7-.6-1.2-.5-1.2.3v.7l1.2.2c2.3.4 3.3.2 4.4-.9.8-.7.9-1.2.9-6.8v-5h-.7c-.6 0-.6.1-.6.6 0 .6-.3.8-.4.3-.2-.6-1.8-1-2.9-.7m6.4 4.4v4.5H238.1v-2.9c0-1.7.2-3 .3-3.4.3-.7.9-1.2 1.2-1.1l.3-.1.4-.2c.2 0 .3 0 .3-.7v-.7l-.8.2c-.6 0-1 .2-1.3.6l-.6.5v-1.2h-1.5v4.5m7.3-4.4c-.2 0-.6.3-.8.6l-.6.5c-.1 0-.2 0-.1.1v.2l-.5.7c-.6 1.3-.3 5.5.4 5.5.1 0 .1 0 0 .1 0 .1 0 .2.2.2l.6.5.4.5h1.8l1.7-.1.5-.6c1.5-1.8 1.7-5 .4-7-.8-1-2.1-1.5-4-1.2m7.4.2c-.6.2-.7.3-.6.6l.1.7c0 .4.4.5.7.1l.3-.1h.2c.9-.8 2.5-.4 2.8.5.3 1.2.2 1.4-1.6 1.5-.4 0-.9.1-1.2.3l-.7.3c-.5 0-1.4 1.7-1.4 2.7 0 1.9 3.2 3 4.7 1.6l.5-.6v.6c0 .5 0 .5.7.5h.8l-.1-3.3c0-3.8-.2-4.3-1-5-.7-.8-2.8-1-4.2-.4m9.6-.2c-1.7.4-2.7 2-2.7 4.5 0 3 1.1 4.4 3.5 4.4 2 0 2.2-.1 2.2-1 0-.7-.2-.8-.9-.4-2.3 1.2-4-1.6-2.9-4.8.5-1.3 2-2 3-1.3.5.3.9 0 .8-.6 0-.8-1.2-1.1-3-.8m4.4 3.6c.1 5 .3 5.3 2.8 5.3 1.4 0 1.4 0 1.7-.5.3-.6.5-.6.5 0 0 .5 0 .5.7.5l.7-.1v-8.8h-.8l-.8-.1v6.8l-.5.5c-.5.6-1.6.7-2 .2-.4-.5-.6-2-.6-4.8v-2.7H265v3.7m8.7.8v4.5h1.5v-9h-1.5v4.5m6.1-4.4c-1.7.5-3.2 3.3-2.8 5.2l.5 1.4c0 .3.2.6.3.8.2.8 1.4 1.5 2.6 1.5 2.2 0 2.4-.1 2.4-1 0-.8 0-.8-.7-.4-1.9 1-3.9-1-3.5-3.3.2-1.5.3-1.7.9-2.3.7-.7 1.7-1 2.5-.5.5.2.8 0 .8-.8 0-.7-1.4-1-3-.6m6.5 0c-1 .3-2.3 2-2.3 3.2 0 .3 0 .7-.2.8-.2.3-.2.5 0 .8l.2 1c0 3.4 5 4.4 6.5 1.4a7 7 0 0 0 .1-5.4c-.8-1.5-2.5-2.2-4.3-1.8m11.3.2c-.6.2-.6.2-.5 1 .1.8.2.8.7.4.8-.6 2.4-.7 3-.1.5.5.6 1.7 0 1.7l-.4.2c0 .1-.5.2-1 .1h-.9l-.6.4c-2.2.7-2.3 4.2-.1 4.8 1.4.4 2.4.3 3-.4l.5-.6v.6c0 .6 0 .6.8.6h.7v-3.3c0-3.9-.2-4.7-1.5-5.4-.8-.4-2.7-.4-3.7 0M13.5 85.3c.3.2.4.6.4.9l.2.7c.3.6 0 .7-1.7.7h-1.6v-.5c0-.4.4-1.4.8-1.9.3-.4 1.5-.3 2 .1m47.7.1c.3.3.5.7.5 1.3l.1 1h-3.4v-.5c.2-1 .3-1.2.7-1.7.6-.7 1.5-.8 2.1 0m22.8-.2c.2.3.4.6.4 1l.2.9.1.4h-3.5l.1-.7c.1-.7.4-1.3.7-1.7.3-.4 1.6-.3 2 .1m-43.5.3l.6.5v1.8c.1 3-.2 3.6-1.7 3.7-1.4 0-2-.8-2-3.1 0-3 1.4-4.3 3.1-2.9m12.6 0l.5.5v4.5l-.5.5c-1 1-2.4.6-3-.8-1-3.2 1.1-6.6 3-4.7m47.5 0c.7.9 1.2 3.6.8 4l-.3.5c-.4 2-2.9 2-3.4 0-.5-1.5-.2-4 .6-4.6.7-.6 1.8-.5 2.3 0m88.5 0c1.6 1.9.7 6.1-1.2 6.1-1.2 0-1.6-.4-1.9-2.4-.5-3 1.5-5.4 3-3.6m43 0c1 1 1.1 4.3.1 5.5-.7 1-2.3.6-2.7-.5-1.1-3.3.8-7 2.6-5m14 0c1.7 1.7.8 6-1.3 6-1.2 0-1.7-1-1.7-3.2 0-2.8 1.6-4.3 3-2.8m42.7 0c1.7 1.7.8 6-1.3 6-.8 0-1.4-.3-1.4-.8l-.3-.8c-.3-.5-.3-2.8 0-3l.2-.7c.4-1.3 1.9-1.7 2.8-.7M133 89.2c0 .8-.4 2-.8 2h-.2c0 .9-2 .6-2.2-.2l-.3-.8c-.2 0-.2 0 0 0 .1 0 .2-.2.2-.5 0-.8.8-1.2 2.3-1.2h1v.7m73.4.3c0 2.3-2.7 3.3-3.2 1-.3-1.4.3-2 2.2-2h1v1m48.5-.2c0 2.2-3 3.6-3.3 1.6-.3-1.7.3-2.4 2.3-2.4h1v.8m46.5.2c0 2-3 3.3-3.3 1.4-.3-1.8.3-2.4 2.3-2.4h1v1m-11.4 10.9l-.4 1.2c-.6 1.1-.6 1.2.2 1.2.4 0 .6-.2 1.3-1.2 1-1.4 1-1.5-.2-1.5-.7 0-.9 0-.9.3M.4 109v5.9H2.1v-11.7H.4v5.8m6.7 0v5.9H8.8v-4.5c0-4.9 0-5 .6-3.6a52.3 52.3 0 0 0 3.1 6.8l.6 1.3H15v-11.7h-1.5v8.9l-.5-1a593.8 593.8 0 0 0-3.2-6.7l-.6-1.1h-1l-1-.1v5.8m12.8 0v5.9H21.6v-9.1l.6 1a180 180 0 0 1 3.1 6.8l.6 1.3h1l1-.1v-11.6h-1.6v9.2l-.6-1.1-1-2.3-2.2-4.6-.5-1.1h-1l-1-.1v5.8m15.3-5.7c-1.3.2-2.4 2-2.6 4.4 0 .6-.2 1.2-.3 1.3-.1.1-.1.3 0 .4l.3 1.3c0 .6.2 1.3.4 1.7l.3.8.4.4c.1.2.3.3.3.5 0 1.1 4 1.2 5.2.1 3-2.6 2.1-10.1-1.1-10.9h-2.9m9.4 0a145.3 145.3 0 0 1 2 6.6l.7 2.1a10.1 10.1 0 0 0 .6 2c.1.7.3.9 1 .9.8 0 .9-.2 1.6-2.8l.7-2 .5-1.6.9-3c.8-2.3.7-2.3-.2-2.3-.6 0-.7 0-.7.3l-1.1 3.9a102.6 102.6 0 0 0-1.3 4.5c0 .3-.5.3-.5 0 0-.2 0-.4-.2-.5 0-.1-.1-.2 0-.2v-.2c-.2-.1-.4-1-.7-2a12.3 12.3 0 0 0-.7-2.3l-.1-.4-.5-1.6-.4-1.4h-.8c-.7-.1-.9 0-.8 0m15.3.4l-.2.7-.7 2-.7 2-.5 1.8-.6 1.8v.3l-.1.2a7 7 0 0 0-.8 2.2s.3.2.7.2c.8 0 .8-.1 1.3-2l.2-1h4.6l.1.8.3.8.2.4c-.1.7.2 1 .9 1 .4 0 .7-.1.7-.2a35.4 35.4 0 0 0-1.7-5.7l-.6-1.6c-.1 0-.1-.1 0-.2 0-.1 0-.3-.2-.5l-.6-1.8-.5-1.6H61c-.9-.1-.9-.1-1 .4m9.4 5.3v5.9H71.1v-9.1l.6 1a180 180 0 0 1 3.1 6.8l.6 1.3h1l1-.1v-11.6h-1.6v9.2l-.6-1a8.7 8.7 0 0 1-.6-1.5l-.5-1-2.1-4.5-.5-1.1h-1l-1-.1v5.8m12.8 0v5.9h2.2l2.2-.1 1-.7c2.7-1.9 3.3-6.6 1.1-9.2-1-1.2-1.7-1.5-4.5-1.6l-2-.2v6m14.8-5.8l-.7.3-.5.3c-1 .4-2 4.3-1.6 6.7.8 5 5.5 6.2 7.8 2.1l.6-1V106.6l-.5-.9c-1.3-2-2.6-2.6-5.1-2.2m16.8 5.7v5.9h2.2l2.1-.1 1-.7a5 5 0 0 0 2-2.2l.4-1c.8-1.6.2-4.7-1.3-6.2-1.1-1.1-1.7-1.3-4.3-1.5h-2v5.8m12.1 0v5.8h5.8v-.5c.2-1 .2-1-2-1h-2.1v-3.8h3.8v-1.5h-3.8v-3.6h4v-1.2H126v5.8m11.6-5.5c-1 .5-1.4 1.2-1.5 2.4-.2 1.4 0 1.6 2.2 3.5 2 1.6 2.3 2 2 3.1-.4 1-2.3 1.5-3.3.9-.9-.6-1-.5-1 .4v.8l1.2.2c4.3.8 6.5-2.7 3.6-5.6-1-1-2.4-2-2.6-2-.5 0-.4-2.2 0-2.3.1 0 .4 0 .7-.2.3-.2.6-.2 1.2 0 1.3.3 1.3.3 1.4-.5v-.8l-.8-.1a6.5 6.5 0 0 0-3 .2m8.6 5.5v5.9h2c2.3 0 2.7-.2 4-1.2.9-.7 1.8-2.4 1.7-3.3 0-.2 0-.4.2-.5.2 0 .2-2.4 0-2.4-.1 0-.2-.1-.2-.3.1-2.3-2-3.8-5.5-4h-2.2v5.8m12.5 0v5.9h5.9v-.8l-.1-.7H160.4v-3.9h3.9v-1.5h-3.9v-3.6h3.9v-1.2h-5.5v5.8m17.1 0v5.9h5.4v-1.5h-4v-10.2h-1.4v5.8m11.9-5a4 4 0 0 1-.4 1l-.6 2.1-.7 2-.6 1.8-.6 1.6s-.1.1 0 .2l-.2.6a5 5 0 0 0-.4 1v.6h1.6l.3-1 .3-1.6.1-.4h2.2c1.9 0 2.2 0 2.2.2l.5 1 .3 1c0 .6.2.8 1 .8h.8l-.1-.6-.2-.7-.7-2-.7-2-.6-2a20.8 20.8 0 0 0-1.2-3.3l-.3-1h-.9l-1-.1-.1.8m18.6.8l-.6 1.8-.7 2-.7 1.8-.6 2-.7 2c-.2.3 0 .5.8.5.6 0 .7 0 .8-.7l.5-1.5.3-.9h2.2l2.1.1.3 1 .4 1.5c.1.4.2.5 1 .5h.8l-.1-.6a94 94 0 0 1-2.7-8.1 18 18 0 0 0-.9-2.6c-.1-.4-.2-.4-1-.4h-.8l-.4 1.6m9.8-1.4V115h1.6v-2.7l.1-2.7c1.5 0 2.2.7 2.8 2.7.7 2.5.8 2.7 1.8 2.7s1-.1.8-.5l-.7-1.7a32.4 32.4 0 0 0-1.2-3.2c0-.2-.2-.3-.4-.3-.6 0-.4-.4.5-.8 1.8-.8 1.6-3.8-.3-4.8-.8-.4-5.2-.6-5-.2m13.7 1.4l-.8 2.3a28.1 28.1 0 0 0-1.3 3.8l-.6 1.8-.6 1.8c-.2.2 0 .4.8.4.6 0 .7 0 .8-.6l.2-.7.4-1 .2-.8h2.2l2.1.1.3 1 .4 1.5c.1.4 1.8.8 1.8.3 0-.2-.7-2.6-.9-2.8l-.6-2-.7-2-.6-1.7a18 18 0 0 0-.9-2.6c-.1-.4-.2-.4-1-.4h-.8l-.4 1.6m10 2.8c0 4.8.1 5.4 1 6.2l.5.7c0 .4 2.7.6 3.7.2 1.8-.6 2.2-2 2.2-7.6v-4H245.6v4.2c0 4.7 0 5.3-.9 6-1 .8-2.5.4-3-1 0-.4-.2-.9-.3-1l-.1-4.3v-3.8h-1.6l.1 4.4m15.6-4.3c-2.6.3-4.6 6.2-3 8.6.2.2.3.5.2.5l.1.1c.1 0 .2.1.2.3 0 .2.9 1 1.1 1l.5.4c.3.6 2.1 1 3.7.7h1V113.2h-.6l-.7.3c-.3.2-1.4.2-1.6 0l-.4-.1c-.2 0-.6-.2-.8-.5l-.6-.4c-.4 0-1-3.3-.9-4.6.5-2.7 3-4.2 5-3.1.6.2.7.2.7-.7v-.7l-1-.1h-2.9m10.8 1.5l-.6 1.8-.7 2-.6 1.8-.6 1.7-.7 2c-.3.8-.3.8.6.8h.8l.2-.8.3-1 .3-.7v-.6h2.3l2.2.1.2 1 .4 1.5c.1.4 1.8.8 1.8.3l-.7-2.2-.6-2-.7-2-.6-1.7c-.2-.9-.5-1.6-.6-1.7 0-.1-.1-.3 0-.4l-.1-.2-.3-.6c-.1-.6-.2-.6-1-.7h-.8l-.5 1.6m9.8 4.2v5.8h1.6V105.6l.5 1.1a50.2 50.2 0 0 1 1 2.2l2.3 4.9.6 1.2h2v-11.6H282.2v4.4a49.5 49.5 0 0 1-.4 4l-.6-1.5-.7-1.4s-.2-.2-.2-.5l-.8-1.8c-.4-.8-.9-1.8-1-2.3l-.5-1H276v5.9m13 0v5.9h1.5v-11.7H289v5.8m9.3-5.2a24 24 0 0 0-.7 2.2l-.7 2.1-.7 2-.5 1.5-1 3.1c0 .1.3.2.7.2.8 0 1.1-.5 1.5-2.2l.2-.9h2.1l2.2.1.4 1.2c.5 1.8.5 1.8 1.3 1.8l.8-.2a20.2 20.2 0 0 0-1.1-3.6v-.3c-.2-.1-.4-.8-.6-1.4l-.6-1.8-.7-2.2c-.7-2.1-.7-2.2-1.6-2.2-.6 0-.7 0-1 .6m-212.5.8c1 .2 2.2 1.2 2.4 2.1l.4.9c.2.2.1 1.9 0 2-.2 0-.2.3-.2.6 0 1.7-1.5 3.2-3.2 3.2-1.4 0-1.3.5-1.2-5v-4h.6l1.2.2m31.3 0c4.5 1 4.3 8.8-.2 8.8h-1.4V109c0-5.2-.1-4.7 1.6-4.3m32.5 0c2.4.4 3.2 1.5 3.2 4.3 0 3.2-1 4.5-3.4 4.5h-1.2V109c0-3.7 0-4.5.2-4.5l1.2.1m70.5.4c.8.4.8.4.9 1.2.1 1.6-.6 2.3-2.2 2.2h-.9v-4h.7l1.5.6m-181.6.3c1.6 2 1.4 6.7-.4 8-1.2 1-3.2.2-3.5-1.4 0-.4-.2-.8-.3-1-.1 0-.2-2.3 0-3.6 0-.4.7-1.7 1.2-2.2.7-.8 2.3-.7 3 .2m61.7-.1c1.4 1.5 1.3 6.9-.1 8-.7.6-2.2.8-2.2.4l-.3-.1c-2 0-2.2-6.5-.4-8.4.7-.8 2.2-.7 3 0m89.3 1.9l.8 2.3c.6 1.2.6 1.2-1.3 1.2l-1.6-.1a25.6 25.6 0 0 1 1.2-4.2l.4-1 .5 1.8m78.5-.5a21.4 21.4 0 0 1 1.2 3.8c0 .1-.8.2-1.7.2h-1.7l.1-.5.5-1.2.3-.8.4-1.5.5-1.5.2.6.2 1m-59.8 0l.1.4.5 1.3.5 1.8c.1.3 0 .4-1.6.4-1.8 0-1.9 0-1.4-1l.8-2.2.6-2c0-.1.5.8.5 1.3m23.5-.1l.1.4c.2.1 1 3.2 1 3.5h-1.6c-1.8 0-1.9 0-1.4-.8l.8-2.3.6-2c0-.1.5.7.5 1.2m-170.1.2a70.5 70.5 0 0 0 1.1 3.5c0 .2-.3.3-1.7.3-.9 0-1.6 0-1.6-.2a38.4 38.4 0 0 1 1.5-4.7c0-.6.4.1.7 1.1m238-1v.4l.7 2 .6 2c.3.3 0 .4-1.5.4-1.7 0-2-.1-1.7-.4l.6-1.8a17.2 17.2 0 0 1 1-2.8c.2 0 .2.1.2.3"/>
    <path fill="#c61318" d="M116.1 0l-1.5.2a42.7 42.7 0 0 0-19.3 5.7l-1.9 1.3a33 33 0 0 0-9.7 11 44.7 44.7 0 0 0-3.8 15.5v3c.4 3.9.5 4.9.7 5.6a85.5 85.5 0 0 0 2.7 7.5 16 16 0 0 0 2.4 4l1.5 2a30.3 30.3 0 0 0 8.4 7.3c0 .1 0 .2.2.2l1 .5a44.1 44.1 0 0 0 30 3.7 20.4 20.4 0 0 0 10.4-6.7 155 155 0 0 1 2-2.5c0-.3 1.4-3 1.5-3l1 7.6.5 4c.1.2 2.5.2 5.2.2h5.1V53v-14c-.2-.3-2.5-.3-13-.3h-12.9v.4l.3 1 .6 1.4.8 1.8.8 2.3.7 2.3c1.5 5 .7 9-2.1 9.6l-1 .4c-.3.2-1.9.1-2.4-.1-.2-.2-.6-.3-.7-.3a8 8 0 0 1-2.7-2.1 296.5 296.5 0 0 0-1.6-2.4l-.9-1.6a113.4 113.4 0 0 1-3.5-6.3 11 11 0 0 0-2.5-3.4l-1-.8-.8.6-1.2.9-.6.3a24.3 24.3 0 0 0-5.6 6.3l-2.2 4c-1.9 3.8-2 4-3.3 4.4-3.6 1.2-6.5-2.8-5-7l.7-2.5c.6-2 1.7-4.4 3-6.9 1.3-2 5.4-6.7 7.7-8.4 1.6-1.2 1.7-1.5 1.1-2.7l-.4-1-.3-.6A65.9 65.9 0 0 1 101 17c-.3-1.8-.4-7.7 0-8.3 1.4-3.1 7.3-3.6 9-.8.4.7.4 1 .6 4a35.5 35.5 0 0 0 2.5 11.2c.6 1.5 1.5 3.4 1.7 3.4a109.6 109.6 0 0 1 2.3-2.3 16 16 0 0 0 2.8-4.2l.7-1.2.5-1a41.7 41.7 0 0 1 1.7-4.2l.8-2.4c1.7-5.6 2.3-6.2 5.4-6.2 1.4 0 2 .2 3.1 1.3 1.2 1 1.3 1.8.8 5.6-.4 2.7-.4 3-.7 3.6l-.6 2.3a17.2 17.2 0 0 1-1.2 3.6l-.5 1.5a80 80 0 0 0-2.3 6c.3.1 24.4 0 24.8-.1.3-.2.3-.4 0-3.3a42 42 0 0 0-3.5-10.2c-2-3.8-5.6-7.8-9.3-10.1a38.8 38.8 0 0 0-16-4.9c-.8-.2-7-.4-7.4-.3"/>
  </g>
</svg>
