<svg xmlns="http://www.w3.org/2000/svg" width="177.6" height="64.9">
  <g fill="#003049">
    <path d="M39.1 28.6h-4.3V42h-3.9V28.6h-4.8v-3H40zM62.7 25.5h-3l-6.2 16-2.7-4.6c-.8-1.3-1.4-2-1.9-2.3a5.7 5.7 0 0 0 2-1.6 4 4 0 0 0 1-2.6c0-.7-.2-1.3-.4-1.9a4 4 0 0 0-1-1.5c-.5-.4-1.1-.8-1.9-1a9 9 0 0 0-2.8-.4h-5.2V42h3.8v-6.2h1.2l.5.5.7 1.1a75.2 75.2 0 0 1 2.6 4.6H57l1.5-4h5.3l1.6 4h4zm-15.2 7c-.5.4-1 .6-1.7.6h-1.4v-4.4H46c.6 0 1.2.2 1.6.6.4.4.6.9.6 1.5 0 .7-.2 1.2-.6 1.7zm12 2.5l1-2.6a30.2 30.2 0 0 0 .6-2l.3 1 .4 1 .9 2.6zM82.4 42l-6.9-8.6a27.2 27.2 0 0 1-1.5-2V42h-3.7V25.6H74l6.6 8.3a34 34 0 0 1 1.4 2h.1v-1.5V25.6h3.7V42h-3.5zM98.4 39.3c-.3.6-.7 1.2-1.3 1.6-.6.4-1.2.8-2 1a9 9 0 0 1-5.6-.2l-2.2-1 1.4-2.8 1.8 1a5.4 5.4 0 0 0 2.9.3l.7-.3.6-.5.2-.7c0-.5-.2-.9-.7-1.2l-1.6-1-2-1a6 6 0 0 1-1.7-1.4 4.3 4.3 0 0 1-1-2.9 4.6 4.6 0 0 1 1.5-3.3c.5-.5 1-.8 1.8-1.1a9.1 9.1 0 0 1 6.8.6l-.1 3.2-2-.9c-.7-.2-1.3-.3-2-.3-.6 0-1 .1-1.4.4-.4.2-.6.5-.6 1 0 .3.2.7.5 1l1.3.9 1.7.8 1.7 1c.5.5 1 1 1.3 1.6.3.5.5 1.3.5 2.1s-.2 1.5-.5 2.1zM109.2 28.6H104v3.6h5.1v3h-5V42h-3.9V25.6h10zM127.3 37c-.4 1-1 2-1.7 2.7a8.3 8.3 0 0 1-6.3 2.5c-1.3 0-2.4-.1-3.4-.5-1-.3-1.8-.8-2.6-1.4a7.6 7.6 0 0 1-1.9-2.8 9 9 0 0 1-.7-3.5c0-1.2.2-2.3.6-3.4a8.1 8.1 0 0 1 8-5.2c1.4 0 2.6.2 3.7.7 1 .4 2 1 2.8 1.8.6.8 1.2 1.6 1.5 2.6a10 10 0 0 1 0 6.6zm-3.9-5.5a5 5 0 0 0-1-1.7 4 4 0 0 0-1.4-1c-.5-.2-1.1-.4-1.7-.4-.7 0-1.3.2-1.8.4-.6.2-1 .6-1.5 1l-1 1.7a7 7 0 0 0-.3 2.3c0 1 .1 1.7.3 2.4.3.6.6 1.2 1 1.6a4.2 4.2 0 0 0 3.3 1.5c.6 0 1.2-.2 1.7-.4a4 4 0 0 0 1.5-1l1-1.7a7 7 0 0 0 .3-2.4 7 7 0 0 0-.4-2.3zM138.1 42a521.6 521.6 0 0 1-3.4-5.7l-.4-.5H133V42h-3.8V25.6h5.1a9 9 0 0 1 2.9.4c.7.2 1.4.6 1.9 1 .4.4.8 1 1 1.5.2.6.3 1.2.3 1.9a4.1 4.1 0 0 1-.9 2.6 5.1 5.1 0 0 1-2 1.6c.4.3 1 1 1.8 2.3l3 5.1zm-2-12.7c-.3-.4-.9-.6-1.6-.6h-1.4V33h1.4c.7 0 1.2-.2 1.6-.6.5-.5.7-1 .7-1.7 0-.6-.2-1.1-.6-1.5zM156.7 42v-8.4-.9-.8l-.2.3-.3.5-.4.5-.2.4-2.7 4h-1.7l-3-4.2A18.8 18.8 0 0 1 147 32h-.1V42h-3.7V25.6h3.4l4 5.7a45.1 45.1 0 0 1 1.4 2l1.2-2.1 3.7-5.6h3.4V42h-3.7zM173.3 42l-1.5-4h-5.4l-1.4 4h-3.8l6.5-16.5h3l6.7 16.5zm-3.6-9.5l-.3-1.2-.3-.9-.2 1-.4 1-1 2.6h3.1z"/>
  </g>
  <path fill="#f29107" d="M15 16.7c3.2-2 7-3.3 11.1-3.3v-1.6c-4.4 0-8.5 1.3-12 3.5z"/>
  <path fill="#e2001a" d="M8.8 51.2a24.5 24.5 0 0 1 8.7-40.5L17 9.2a26.2 26.2 0 0 0-9.3 43.1z"/>
  <path fill="#05a29a" d="M26.1 54.1c-8.7 0-16.1-5.5-19-13.2l-1.6.5a22 22 0 0 0 20.6 14.4z"/>
  <path fill="#009ee0" d="M45.5 53.3a27.4 27.4 0 0 1-38.8 0l-2.5 2.5a31 31 0 0 0 43.8 0z"/>
  <path fill="#95be21" d="M26.1 47.9a14 14 0 0 1-10-24.1l-2.3-2.4a17.5 17.5 0 0 0 12.3 29.9z"/>
  <path fill="#fecd0f" d="M20.3 39.6l2.2-2.3a5 5 0 0 1 0-7.1L20.4 28a8.2 8.2 0 0 0 0 11.6z"/>
  <g fill="#003049">
    <path d="M49.5 46.3H52l-.2.6h-1.6v1.5h1.6v.6h-1.6v1.6h1.9v.6h-2.6zM56.5 51a3 3 0 0 1-1.5.3c-1.5 0-2.4-1-2.4-2.5 0-1.4 1-2.6 2.5-2.6.5 0 1 .1 1.2.3v.7c-.3-.2-.7-.3-1.2-.3-1 0-1.7.8-1.7 1.9 0 1 .6 1.8 1.7 1.8.5 0 .8 0 1.2-.3zM56.8 48.8c0-1.5 1-2.6 2.5-2.6 1.4 0 2.4 1 2.4 2.6 0 1.5-1 2.5-2.4 2.5s-2.5-1-2.5-2.5zm4 0c0-1.1-.5-1.9-1.5-1.9s-1.6.7-1.6 1.9c0 1.1.6 1.8 1.6 1.8s1.6-.7 1.6-1.8zM62.4 46.3h.8l2 2.8.7.8V46.3h.8v5H66l-2.2-3-.6-.8v3.8h-.8v-5zM67.4 48.8c0-1.5 1-2.6 2.4-2.6s2.4 1 2.4 2.6c0 1.5-1 2.5-2.4 2.5s-2.4-1-2.4-2.5zm4 0c0-1.1-.6-1.9-1.6-1.9s-1.6.7-1.6 1.9c0 1.1.6 1.8 1.6 1.8s1.6-.7 1.6-1.8zM73 46.3h.6l1.3 2 .5.6.4-.7 1.2-2h.7v5h-.8v-2.9-.7l-.3.6-1 1.6h-.4L74 48.1l-.3-.5v3.7h-.8zM79 44.9h.9l-.7 1.1h-.6zm-.4 1.4h.8v5h-.8zM81.7 46.3h.5l2 5h-.9L83 50H81l-.5 1.2h-.8zm1 3l-.5-1.1-.2-.8-.3.8-.4 1.1zM86 46.3h1c.5 0 .8 0 1 .2.6.3.9.7.9 1.4 0 .6-.3 1.1-1 1.4l-1 .2h-.2v1.7h-.8zm1 2.5h.6c.3-.2.4-.5.4-1 0-.3 0-.6-.4-.7l-.6-.2h-.3v2zM89.6 46.3h1.2c.5 0 .8 0 1 .2.5.3.7.7.7 1.2 0 .6-.4 1-1 1.3.2 0 .4.3.6.8l.9 1.4h-1l-.7-1.3c-.2-.4-.4-.6-.5-.6h-.5v2h-.7v-5zm1.2 2.3l.5-.1c.3-.2.4-.4.4-.7 0-.3-.1-.6-.3-.7l-.6-.2h-.5v1.7h.4zM93.2 48.8c0-1.5 1-2.6 2.4-2.6s2.4 1 2.4 2.6c0 1.5-1 2.5-2.4 2.5s-2.4-1-2.4-2.5zm4 0c0-1.1-.6-1.9-1.6-1.9s-1.6.7-1.6 1.9c0 1.1.6 1.8 1.6 1.8s1.6-.7 1.6-1.8zM98.7 46.3h1.4c1.7 0 2.6 1 2.6 2.4 0 1.5-1 2.5-2.7 2.5h-1.3v-5zm1.4 4.3c1.3 0 1.8-.9 1.8-1.9 0-1-.6-1.8-1.9-1.8h-.5v3.7h.6zM103.6 50.3l-.2-.9v-3.1h.8v3l.1.7c.2.4.5.6 1 .6.6 0 1-.2 1.1-.6l.1-.7v-3h.8v3.1c0 .4 0 .7-.2 1-.2.6-.9 1-1.7 1-1 0-1.6-.4-1.8-1zM111.9 51a3 3 0 0 1-1.5.3c-1.6 0-2.4-1-2.4-2.5 0-1.4 1-2.6 2.5-2.6.5 0 1 .1 1.2.3v.7c-.3-.2-.7-.3-1.2-.3-1 0-1.7.8-1.7 1.9 0 1 .6 1.8 1.7 1.8.4 0 .8 0 1.1-.3zM113.4 47H112v-.7h3.7l-.2.6H114v4.3h-.7V47zM116 46.3h.8v5h-.8zM117.2 46.3h.8l1.1 2.8.4 1 .3-1 1.1-2.8h.8l-2 5h-.5zM123.2 46.3h.6l1.9 5h-.8l-.5-1.3h-1.8l-.5 1.2h-.8zm1 3l-.5-1.1-.2-.8-.3.8-.4 1.1zM128.2 49.3l-1.6-3h.9l1.1 2.3 1.2-2.3h.9l-1.7 3v2h-.8zM132.4 46.3h1.4c1.7 0 2.6 1 2.6 2.4 0 1.5-1 2.5-2.7 2.5h-1.3v-5zm1.3 4.3c1.4 0 1.9-.9 1.9-1.9 0-1-.6-1.8-1.9-1.8h-.5v3.7h.5zM137.1 46.3h.8v5h-.8zM138.3 46.3h.9l1 2.8.4 1c0-.3.2-.6.4-1l1-2.8h.8l-2 5h-.5zM143.3 46.3h2.5l-.2.6H144v1.5h1.6v.6H144v1.6h1.8v.6h-2.5v-5zM146.6 46.3h1.2c.5 0 .8 0 1 .2.5.3.7.7.7 1.2 0 .6-.3 1-1 1.3.2 0 .4.3.7.8l.8 1.4h-.9l-.7-1.3c-.3-.4-.4-.6-.6-.6h-.4v2h-.8zm1.2 2.3l.6-.1c.2-.2.3-.4.3-.7 0-.3 0-.6-.3-.7l-.6-.2h-.4v1.7h.4zM150.6 50.3c.3.2.6.3 1 .3.5 0 1-.1 1-.6 0-1-2.2-1-2.2-2.4 0-.8.6-1.4 1.6-1.4.5 0 .9.1 1.1.3v.7c-.3-.2-.7-.3-1.1-.3-.4 0-.7.2-.7.6 0 1 2 .9 2 2.4 0 .9-.6 1.4-1.6 1.4-.6 0-1-.1-1.4-.4zM154 46.3h.9v5h-.8zM155.8 46.3h2.6l-.2.6h-1.6v1.5h1.5v.6h-1.5v2.2h-.8zM159 46.3h.8v5h-.8zM164.4 51a3 3 0 0 1-1.5.3c-1.6 0-2.4-1-2.4-2.5 0-1.4 1-2.6 2.5-2.6.5 0 1 .1 1.2.3v.7c-.3-.2-.7-.3-1.2-.3-1.1 0-1.7.8-1.7 1.9 0 1 .6 1.8 1.7 1.8.4 0 .8 0 1.1-.3zM166.3 46.3h.6l1.9 5h-.8l-.5-1.3h-1.8l-.5 1.2h-.8zm1 3l-.5-1.1-.2-.8-.3.8-.4 1.1zM169.2 46.3h1.4c1.7 0 2.6 1 2.6 2.4 0 1.5-1 2.5-2.7 2.5h-1.3v-5zm1.3 4.3c1.4 0 1.9-.9 1.9-1.9 0-1-.6-1.8-1.9-1.8h-.5v3.7h.5zM175.1 46.3h.6l2 5h-.9l-.5-1.3h-1.8l-.4 1.2h-.8zm1 3l-.4-1.1-.3-.8-.2.8-.4 1.1z"/>
  </g>
  <g>
    <path fill="#0664ab" d="M100.3 0H135v9.3h-34.8z"/>
    <path fill="#e43539" d="M135 0h42.5v9.3H135z"/>
  </g>
</svg>
