<svg xmlns="http://www.w3.org/2000/svg" width="153.6" height="208.1" display="block">
  <g fill-rule="evenodd">
    <path fill="gray" d="M36 188.5v1.1h-1c-1.8-.3-2.6.5-2.6 2.5 0 2.2.5 2.7 3 2.7 2 0 2 .2 2-4v-3.3H36v1M72 188c-.3.4 0 1 .5 1.2.6.1 1.2-.5 1-1-.3-.5-1.1-.6-1.5-.2m17.5-.2c-.4.5 0 1.4.6 1.4.7 0 1.1-1.1.5-1.4h-1.1m-86.9.3c-1.6 1-1.8 5.5-.2 6.5.7.4 3.5.4 3.7 0 .3-.7.2-.8-1.2-.8-2 0-2.3-.4-2.2-3 .1-1.6.3-1.7 2-1.7 1 0 1.3-.1 1.3-.3l.1-.5c.2-.5-2.6-.6-3.5-.2m43.1 3.3v3.5H47v-7h-1.2v3.5m47.7-3c-.7 1.1.4 1.2 1.4.2l.6-.7h-.8c-.7 0-.8 0-1.2.5m-75.6.1c-.5.1-.4 5.6.1 6 .6.6 2.3.5 2.5-.2.1-.4.1-.4-.6-.4-1 0-1-.2-1-1.7v-1.3h.7c.7 0 .8 0 1-.4.1-.7 0-.8-.9-.8h-.9v-.6c0-.7 0-.8-.9-.6m51 0c-.5.1-.3 5.8.2 6.1.4.4 2.4.4 2.4 0v-.4c.2-.3 0-.3-.6-.3-1 0-1-.3-1-1.8v-1.2h.7c.7 0 .8 0 1-.4.1-.7 0-.8-.9-.8h-.9v-.6c0-.7 0-.8-.9-.6m-61 1.3c-.9.4-1 .7-1 2.5 0 2.4.1 2.5 2.4 2.5h1.6v-.5l.1-.4H9.7c-2.4 0-2.6-1.1-.1-1.2h1.6v-.9c.2-1.9-1.4-2.8-3.3-2m5.5 0c-1.2.2-1.4.8-1.4 3.3v1.8H13.3v-1.9c0-2.1 0-2.3 1-2.3 1.2 0 1.2 0 1.2 2.2v2H16.8V193c0-2-.2-2.9-.8-3.2-.4-.2-2-.4-2.6-.2m12 .2c-1 .6-1.3 3.8-.3 4.7.7.7 3.1.6 3.8-.1.6-.6.6-3.5 0-4.2-.5-.7-2.4-1-3.4-.4m13.8-.2c-1 .3-1.2.6-1.2 2.6 0 2.4.2 2.6 2.5 2.6h1.5v-1H41c-1 0-1.3 0-1.5-.3-.7-.7-.5-.9 1.3-.9h1.6l.1-.5c.4-1.9-1-3-3.2-2.5m10 0c-1 .2-1.3 1-1.3 3.2v2H49.3v-2c0-2.2 0-2.2 1.2-2.2.9 0 1 .2 1 2.3v1.9h1.1v-2.1c0-3-.7-3.7-3.4-3.1m10.6 0c-1.2.4-1.5 1-1.5 2.5 0 2.2.5 2.7 2.7 2.7 1.3 0 1.4 0 1.5-.4.2-.5 0-.6-1.2-.6-1 0-1.2 0-1.5-.3-.7-.7-.5-.9 1.3-.9h1.7l.1-.6c.3-1.7-1.4-3-3-2.4m15.3.1c-.7.4-1 1.2-1 2.4 0 2 .7 2.6 2.5 2.5.8 0 1 0 1 .2 0 .4-.7.7-1.9.7-1 0-1.4.4-1 1 0 .2 2.7 0 3.2-.2 1.3-.6 1.4-5.6.2-6.4-.6-.4-2.3-.5-3-.2m17.7-.1c-1.4.2-2 3.4-.8 4.9.3.3.5.4 1.9.4 2.1 0 2.3-.3 2.3-2.7 0-2.5-.7-3-3.4-2.6m5.5 0c-1 .2-1 .4-1 2.9v2.3h1.1v-2c0-2 0-2.2 1.2-2.1h.7v4h1.4v-1.9c0-3.1-.7-3.8-3.4-3.2m-76.5.3c-.7.4-.8.8-.8 3.2v1.7h1.4v-4h.9c.8 0 .8-.1.9-.6v-.6h-1c-.6 0-1 .1-1.4.3m31-.1a29.4 29.4 0 0 0 1.8 4.5c.3 1 1.4.6 1.8-.4a51.5 51.5 0 0 1 1.6-4c0-.2 0-.3-.6-.3-.7 0-.8.1-1.4 1.9-.6 1.8-.6 1.8-1.2-.2-.6-1.7-.6-1.7-1.3-1.7-.3 0-.6 0-.6.2m11 .3c-1.2 1-.6 2.4 1.1 2.6 1.3.2 1.5.2 1.5.6 0 .4-.3.5-1.7.5-1.2 0-1.4 0-1.4.8 0 .3 3.3.3 3.7-.1 1.3-1 .8-2.6-.9-2.8-1.3-.1-1.5-.2-1.5-.6 0-.3.1-.3 1.3-.3h1.3l.2-.5.2-.6c0-.3-3.3 0-3.8.4m8.1 2.1v2.6h1.4v-5.2H72v2.6m8.1-2.2c-.2.7-.1.8 1.3.8 1.2 0 1.4.1 1.4.4 0 .3 0 .3-1 .3-2-.1-3.1 1.5-1.8 2.9.5.5 3.7.6 4 .1.1-.4 0-3.7-.1-4-.5-1-3.5-1.3-3.8-.5m5.7-.1c-.7.3-1 1-1 2.4 0 2 .5 2.5 2.5 2.5h1.4v-1h-1c-1.3 0-1.7-.3-1.7-1.6 0-1.2.2-1.4 1.5-1.4h1.1v-.6l.1-.6h-1.2a6 6 0 0 0-1.7.3m3.7 2.3v2.6h1.2v-5.2h-1.2v2.6m-79.9-1.5c1 .4.6 1-.6 1-1 0-1.1 0-1.1-.2 0-.8.9-1.2 1.7-.8m17.7 0c.8.2 1 2.9.3 3.2-1.2.4-1.9-.1-1.9-1.7 0-1.2.1-1.5.8-1.6l.3-.1.5.1m8 .1l.6.2v2.9h-1c-1.2 0-1.4-.2-1.4-1.7 0-1.1 0-1.2.6-1.4.7-.3.5-.3 1.2 0m5.5 0c1 .4.6 1-.7 1h-1v-.4c.2-.8.8-1 1.7-.6m20.3 0c.3 0 .4.2.4.6v.5h-2.2l.2-.5.1-.4c.7-.5 1-.5 1.5-.3m16 0c.4.2.4.2.4 1.5s0 1.5-1.1 1.5c-1 0-1-.2-1-1.6v-1.2l.5-.2.6-.1.5.1m17.3 0c1.3.5 1 3.4-.4 3.4s-1.8-3.1-.4-3.4l.3-.1.5.1m-11.7 2c.2 0 .3.3.3.6v.6h-.8l-1.1-.1c-.4-.2-.4-1 0-1.1.5-.1 1.3-.2 1.6 0"/>
    <path fill="#d8de3f" d="M94.4 106.5c-.2.6-.1 1.7.1 2.2.2.4.2 1.7.2 4.8l.2 6.6c.1 2.7-.1 2.5 2.2 2.2a835.6 835.6 0 0 1 42-3.5c2-.1 2.1-.1 2.4-.5a24.8 24.8 0 0 1 .6-1l.7-1c1.2-2 3.8-7 3.8-7.3a164.8 164.8 0 0 0-19.8-1.8c-9.2-.6-20.6-1-27.3-1h-5v.3M52 107.7a283.4 283.4 0 0 0-20 2.2 749.4 749.4 0 0 1-12.9 1.7 142.7 142.7 0 0 0-9.5 1.5c-.5 0-.5.3 0 1.2l.7 1.3.4.7.5.7a97.4 97.4 0 0 0 6.8 9.4c1.4 1.7 2 2.2 4.1 4.4l2 2h.8a100.9 100.9 0 0 0 8.8-1.7 45.4 45.4 0 0 0 3.8-.6l1.5-.3a49.5 49.5 0 0 1 5-.8 262.6 262.6 0 0 1 11-1.8l1.3-.2v-.5l-1-3.1a25 25 0 0 0-1.3-3c0-.2 0-.5-.2-.8l-.9-3a25 25 0 0 1 .1-8.6c.5-.7.5-.8 0-.7h-1m83.1 15.2a144.1 144.1 0 0 0-9.8.7 561.6 561.6 0 0 0-29.1 2.6l-1.3.1v3.8l-.3 4.7v1l.6.2a16.8 16.8 0 0 1 8.7 12c0 .6.4.6 1.5 0l1-.3c.2 0 .3-.3.4-.5l.3-1 .3-.7.4-1 .4-1.1.2-.5.4-.7c2.3-5 9.1-8.4 18.6-9l1.6-.1 2.2-2.3 4.2-4.3a948.9 948.9 0 0 1 2.7-3.5c.1-.2 0-.2-3-.1m-81.5 8.7a493 493 0 0 1-17 2.9c-.6 0-.5.4.2.6 1.7.6 2.3 2.5 1.7 5.2-.5 2.5-.6 3-.2 3l.8.5c1 .6 1 .6 1-3.2 0-5.9.4-6.1 8.1-6.1 8.5 0 8.5 0 8.5 10v6.4l.7.2c.9.3 1 .3 1-.6.6-4.4 2.3-8.2 4.9-11l.6-.7-.4-.2-.7-.1-.8-.3-.7-.3c-1.7 0-4.4-3-5.2-5.7-.3-.8-.6-.9-2.5-.6m-18.4 67.5c-.4.2-.4 1 0 1.3.4.5 1 .2 1-.5 0-.9-.4-1.2-1-.8m39.7 1v1h-.6c-2.1-.3-3 .4-3 2.5 0 2.2 1 3 3.4 2.8 1.5-.1 1.5 0 1.5-4V199H75v1m9.8 2.7v3.8h.6l.5-.1V199h-1.1v3.7m46.1-3.6c-.5.1-.4 1.3.2 1.5.6.1.9 0 .9-.8 0-.4 0-.7-.2-.7h-.4-.5m-116 3.8v3.6H17c2.4 0 2.5-.1 2.5-1 0-.4 0-.4-1.8-.4H16v-1.9h1.6c1.6 0 1.7 0 1.8-.3.2-.8.2-.8-1.7-.8H16v-1.6h1.7c1.7 0 1.7 0 1.8-.4.3-.8.3-.8-2.3-.8h-2.4v3.6m79.8 0v3.6h.7l.6-.1v-2.6h.8c2 0 3-.6 3-2 .3-2-.5-2.5-3.2-2.5h-1.9v3.6m-52.2-3c-.5.1-.4 5.4.1 6 .6.5 2.1.7 2.4.3.4-.6.3-1-.3-1-1 0-1.1 0-1.1-1.5v-1.4h.7c.8 0 .8 0 1-.7.1-.5.1-.5-.8-.5h-1v-.6c0-.7 0-.8-1-.6m63.2 0c-.3 0-.3.3-.3 2.6 0 3.5.2 3.8 2 3.8h1v-.5c0-.5 0-.5-.6-.5-1 0-1 0-1-1.6v-1.4h1.6V201H106.6v-.6c0-.7-.1-.8-1-.6m-7.4.8c1 .7.3 1.8-1.2 1.8h-1v-2h1c.5 0 1 0 1.2.2M3 201c-1 0-1.4.6-1.5 2.3-.1 2.4.6 3.1 3 3h1l.1-.6v-.5H4.6c-1 0-1.3 0-1.5-.3-.7-.7-.5-.9 1.2-.9 1.6 0 1.6 0 1.8-.4.4-1-.4-2.6-1.2-2.6H3m5.1 0c-1.1.1-1.3.5-1.3 3.1v2.3H8v-2c0-2.1 0-2.3.8-2.4 1-.3 1.3 0 1.3 2.3l.1 2h1.2v-2.2c0-3-.5-3.4-3.3-3.1m17.8 0c-1 .2-1.3.7-1.4 2.4-.1 2.3.4 3 2.3 3 2 0 2.5-.5 2.5-2.8s-1-3-3.4-2.6m21.2 0c-2.2.2-2 4.9.2 5.2 1 .2 2.3.2 2.3 0l.1-.6c.1-.4 0-.4-1.2-.4-1.5-.1-1.4 0-1.6-.7l-.1-.5h3.3v-1c0-1.2-.4-2-1.1-2h-1.8m5 0c-1 .1-1.2.5-1.2 3v2.4H52v-2c0-2.1 0-2.3.7-2.5.9-.2 1 .2 1.2 2.5v2h.5l.6-.1v-2c0-2.2.4-2.7 1.3-2.3.4.2.4.2.4 2.2v2H58.2v-2.1c0-2.9 0-3.1-2-3.1-.6 0-1.2 0-1.3.2h-.4c-.2-.2-1.5-.3-2.2-.2m26.2 0c-1.6.4-2 3.8-.5 4.9.6.4 3.2.7 3.2.3l.1-.6c.1-.4 0-.4-1.2-.4-1.4-.1-1.7-.2-1.7-.9 0-.2.2-.3 1.6-.3 1.7 0 1.7 0 1.7-1 0-1.6-1.2-2.4-3.2-2m37 0c-1 .2-1.3.6-1.3 2.4 0 2.2.3 2.5 2.2 2.5 1.3 0 1.3 0 1.1.4-.2.4-.5.6-1.8.6s-1.5.9-.2 1c2.5.4 3.3-.3 3.4-3 0-3.6-.7-4.4-3.4-3.9m5.7 0c-1.7.3-2.3 3.3-1 4.9.6.7 3 .7 3.7 0l.5-.5v-1.7c0-1.9-.3-2.7-1.1-2.7H121m5.4 0c-1.2.2-1.2.3-1.2 3v2.4h1.2v-4.2l.4-.2h1l.5.1v2.1l.2 2h1.1v-2.2c0-3-.5-3.4-3.2-3m-105.4.3c-1 .5-1.2 3.4-.4 4.3.5.6 3 1 3.2.6.4-.8.3-1-1-1-1.4-.1-1.3-.1-1.3-1.6s0-1.4 1.2-1.5c1.1 0 1 0 1.2-.6l.1-.5H23c-.9 0-1.5.1-1.8.3m9.5 0c-.5.3-.7.8-.6 1.7.2.7.5 1 1.7 1 2 .3 1.8 1.2-.3 1.2-1.3 0-1.4 0-1.4.9 0 1 4 0 4.2-1 .3-1.4 0-1.8-1.7-2-2-.4-1.8-1 .3-1H34v-1.1h-1.5a5 5 0 0 0-2 .3m4.4 2.3v2.7H36.4V201.2H35v2.6m2.7-2.3c-1.4 1-.8 2.5 1.1 2.8 2.1.3 1.9 1-.4 1-.9 0-1.3.2-1.3.3v.6c-.3.7 3.2.4 4-.3.8-1.1.1-2.4-1.5-2.7-2.1-.3-2-.9.2-.9 1.4 0 1.5 0 1.5-.9 0-.3-3.1-.3-3.6 0m21.7.2c-.2.8-.1.8.7.7 1-.1 2 .2 2 .5 0 .1-.3.2-1 .2-1.9 0-2.5.7-2.2 2.3.2 1.2 3.5 1.8 4.3.8.4-.5.4-3.5 0-4.2-.6-.8-3.6-1-3.8-.3m5.5-.2c-1.5.8-1 2.7.9 2.9 1.2.1 1.3.2 1.3.6 0 .4-.3.5-1.6.5-1.2 0-1.9.5-1.4 1 .3.3 3 0 3.7-.2 1.1-.6.7-2.7-.7-2.9-1.8-.3-1.8-.3-1.8-.6 0-.4.9-.6 2-.4.8.1 1 0 1-.8 0-.3-2.8-.4-3.4 0m22.3.1c-.2.8-.1.8.8.7 1-.1 1.9 0 2 .5 0 .2-.1.3-.8.2-2-.3-3.5 1.6-2.1 3 .6.6 3.5.8 4 .2l-.1-4.2c-.3-.8-3.5-1.2-3.8-.4m13.4-.3l-.2.6v.4h1.2c1 0 1.3 0 1.5.3.3.5.3.6-.3.4-2-.7-3.9 1.6-2.4 3 .7.6 3.2.8 3.9.2.2-.2.3-2.8 0-3.8-.1-1-3.3-1.8-3.7-1m8.7.4v.6h.8c1-.2 1.8 0 1.8.3s-.1.3-1 .3c-1.6 0-2 .3-2 1.7 0 1.5.4 1.8 2.4 1.8s2 0 2-2.3c0-2.6-.3-3-2.6-3h-1.4v.6m21.3 2.1v2.7h.7l.6-.1V201H130.7v2.7m2.6-2.4c-.2.7 0 1 .7.8 1-.1 2 .1 2 .5.1.3 0 .3-.5.2-2.2-.4-3.8 1.6-2.3 3 .7.6 3.1.8 3.8.2.4-.3.3-3.8 0-4.2-.7-.8-3.4-1.2-3.7-.5m-128.7.8c.8.6.4 1-.8 1-1 0-1 0-1-.2 0-.8 1.1-1.3 1.8-.8m23.1 0c.5.4.6 2.8 0 3-1 .7-1.8.1-2-1.3 0-1.6 1-2.4 2-1.7m21-.1c.1 0 .3.4.3.7l.1.5h-2.2v-.5c.3-.7 1.2-1.1 1.8-.7m26 .1c.3.2.4.4.4 1.7v1.4h-.7c-1.3 0-1.5-.2-1.5-1.6 0-1.3.3-1.7 1-1.7.3 0 .6 0 .8.2m5.5 0c.6.6.3 1-.8 1-1 0-1 0-1-.3 0-.8 1.3-1.3 1.8-.7m36.8-.1c1.3.3 1 3-.4 3-1 0-1.1-.1-1.1-1.5 0-1.5.4-1.9 1.5-1.5m5.8.1c.5.3.6 2.2.2 2.9-.3.5-1.3.5-1.8 0-1.2-1.2.3-3.9 1.6-2.9M62 204.1c.7.2.3 1.2-.5 1.2-1.8 0-2.1-1.3-.4-1.3h.9m27.8 0c.7.3.3 1.3-.5 1.3-1 0-1.2-.1-1.2-.7s.8-.9 1.7-.5m13.4 0c.8.8-.2 1.5-1.6 1-.4 0-.5-.9-.1-1 .4-.2 1.5-.1 1.7 0m8.6 0c.6.2.3 1.2-.3 1.2-1.8 0-2.2-1.3-.5-1.3h.8m23.9 0c.8.3.5 1.3-.3 1.3-1.2 0-1.5-.2-1.5-.7 0-.6.7-.8 1.8-.5"/>
    <path fill="#91ccdc" d="M43.1 8.2l-.8.4-.7.4a32 32 0 0 1-3 1.6 149.7 149.7 0 0 1-4 2.6h-.1a67.9 67.9 0 0 0-9.9 8c-1 .7-1 .6 1.7 2.8a72.5 72.5 0 0 0 4.7 3.7l.5.4.6.4.8-.5c1-.7 2.5-.6 3.1.2h.4l2.7-2.3c.9-1.1 2.7-1.4 3.8-.7l1 .5.6.4a65.6 65.6 0 0 0 4.6 2.7 68 68 0 0 1 6.6 4.4 335.7 335.7 0 0 0 8 7.5l.5.6 1.4-.5a82.5 82.5 0 0 1 5.8-1.8l1.5-.5c1.4-.5 1.5-.5 2.8.2 1 .5 1.2.6 1.5.4.5-.2 2.5-.1 3.3.2a254.5 254.5 0 0 0 6.1 2.4l4 1.7c2 1 1.6 1 4.6-1.2a34.5 34.5 0 0 1 3.8-2.4c1-.3 1.4-.2 4 1l.8.5 1.5-1.7c5.7-6 6.2-6.4 7.6-6 .4 0 1.5.6 1.7.8l.6.4 1.5.9c1.2.8 1.7.7 2.8-.4l.8-.7 1-.7.8-.8a66.7 66.7 0 0 0 3.5-2.8c.4-.4 2.1-1.5 2.7-1.7.8-.2 2.7.4 2.7.9l.2.1c.2 0 .3 0 .3.2l.7.6 1 .8a38.5 38.5 0 0 0 3.6 3l.8.6.3.2h.2c0 .5 1 1 1.5.7l1.3-.2c.9 0 .9 0 .1-1.2a57.5 57.5 0 0 0-5.4-7.2 66.1 66.1 0 0 0-24-18.8c-.4-.1-7.8-.2-34.4-.1a2300.1 2300.1 0 0 1-34 0M.8 63.7A78.1 78.1 0 0 0 7.5 109c0 .6.4.7 1.6.5a46.9 46.9 0 0 1 5.3-.9 145.9 145.9 0 0 1 8.8-1.3 236.9 236.9 0 0 1 17.9-2.2 3081.6 3081.6 0 0 0 13.3-1.3c2.5-.2 2.5-.2 3-1.1.3-.8 1.3-1.8 2.9-3l.5-.5c.2-.1.7-.5 1.3-.7l3-2.7c2.4-2.4 2.6-2.5 3.3-2.6a5 5 0 0 0 2.2-1.2 10 10 0 0 1 2.3-1c.6 0 .6-.2.9-1.5.2-1.2.5-1.7 1.3-2l.7-.4c.4-.4-.4-1.7-1.7-2.5a6.3 6.3 0 0 1-2.5-2.4L70 79.4c-.7-1.7-1-4-.6-4.4l.1-.3.4-.8c.3-.3.5-.7.5-1 1-3.3 4.7-5.8 9.5-6.4 1.2-.1 2.3-.4 2.7-.7.2-.2.3-.2.5 0s.3.1.3-.2v-.4l.4.5c.5.5.5.5.6.1.1-.5.8 1.1.9 2.2.1 1.3.4 1.9 1.5 3 1.5 1.6 1.6 1.7 1.5 3l-.1 1 .6.5 1.2 1c.7.5.7.8 0 1.5-.5.5-.6 1-.2 1.6.2.3.2.4 0 .7v.4c-.4 0-.3.4.2.5.4.2.4.3.5 1.2l.2 1c1 .9.4 2.2-1.1 2.2-.3 0-.6.1-.7.3l-.4.2c-.3 0-1.6 1.6-1.6 2l-.4 1.7c-.4 1.6-.1 2.3.9 2.5 1.1.2 1.8.6 2.1 1.3a6 6 0 0 0 2.2 2c.7.4 2 3 2.5 5.2l.3 1.2 7.5.2a620 620 0 0 1 44.3 2.8c1.4.1 1.6.1 1.6-.4l.1-.4.3-.4.4-1.3a74.1 74.1 0 0 0 3.8-39.2c-.1-.1-26.4-.2-75.9-.2H1v.6"/>
    <path fill="#0094d6" d="M74.2 0l-2.6.3a64.5 64.5 0 0 0-14.8 2.6 70.8 70.8 0 0 0-12.3 4.6c-1.7.7-3.2.7 32.8.7a1111.3 1111.3 0 0 1 34.8.2 39 39 0 0 0-8-3.6A82.4 82.4 0 0 0 84.7.3C83 0 75-.1 74.2 0M20.4 24.4a88.3 88.3 0 0 1-3.8 4.4l-.9 1.1-1 1.3a84 84 0 0 0-9.4 17.1l-.1.4-.7 1.7-.7 2a48.8 48.8 0 0 0-2 7l-.2.6 11 .1 10.9-.1-.3-.5a73.4 73.4 0 0 1-2.6-3.1l-.5-.5.1-1.8.2-1.8-.5-.4c-.3-.3-.6-.4-.7-.4l-.2-.2-.6-.4-.8-.4a48.7 48.7 0 0 0-4-2.7 33 33 0 0 0-4.2-3l-.7-.3-.4-.4.8-1.6c1-2 1-2 2-.7a112 112 0 0 0 10.5 9.7l.6.5L22 54c-.2 1.7-.1 1.9.2 2.2l.3.5.3.3 1.3 1.7 1.2 1.5h15.5c13.5 0 15.4 0 15.4-.2l-1.1-2.6a38.9 38.9 0 0 1-2-4.8c-.4-1.4-.4-1.4-2-2.6a25.2 25.2 0 0 1-2.3-1.8c-.6-.4-.7-.5-1-2.6a22 22 0 0 0-.2-1.9l-.2-1.7a5 5 0 0 0-1.6-3.4 6 6 0 0 1-1.3-2.2 13.3 13.3 0 0 0-.6-1.7l-.3-.7-.9-2.5-.5-1.3c-.2-.4 0-.4.6.1l.7.4c.1 0 1.6 1 1.7 1.2l.2.2s.7.3 1.3.8a378.1 378.1 0 0 0 4.3 2.8c.5 0 .7.5.5 1.3-.4 1.3-.6 1.6-1.4 2.4-1.1 1-1 .6-.3 5.8l.2 2c0 .2.1.4.3.4l.2.1.9.7.8.7 1.2.9c.9.6 1.2 1 1.3 1.5 1 3 2.2 6 3.5 8.4.1.2 1.3.2 8.7.3h8.5v-4L73 53.6a167.3 167.3 0 0 0-3.8-3.8l-.5-.5 3.2.1a1335 1335 0 0 1 32.6 2 72.3 72.3 0 0 1 15 2.4l4.4.9 6.5 1.3c.9.2 1 .3 2.8 2.1l1.9 2h6c4.6 0 5.9-.1 5.9-.3 0-.1-1-1.2-2.4-2.5a10.9 10.9 0 0 1-2.4-2.8l-.3-1-.7-2a27.7 27.7 0 0 0-.9-2.9s-.3-.4-.8-.7a11.9 11.9 0 0 1-1.4-1.2 119.2 119.2 0 0 1-4.9-4l-2.4-1.5c-2-1.2-1.8-1.2-2.7-.2l-1.6 1.7-.5.7V40h-.4c-.5 0-.6-.2-.3-.5.4-.3 0-.4-.6-.2a616.7 616.7 0 0 0-3.8 1.2 75 75 0 0 1 6.8-6.6c.4-.4.6-.3.6.3 0 2 .7 4.7 1 4 .4-.3 1 .1 3.8 3a75.6 75.6 0 0 0 8 7l.4.8c0 .4.3 1 .4 1.3l1 2.7c.5 2 .7 2.3 1.6 3.2l2.3 2.4 1.4 1.5h1.9c2.2 0 2 .1 1.6-1.7l-.7-2.5-2.2-6.5a79 79 0 0 0-4.2-9.2c-1-2.1-1-2-1.9-1.3l-.7.6-.6-.6-.6-.7-.6.7-.7.7-1.4-1a90.3 90.3 0 0 1-5.5-4.5l-.3-.1-1.3-1.1-1.6-1.3c-.4-.4-.5-.4-.9 0l-1 .8-.8.6a30.7 30.7 0 0 1-2.7 2.3l-.3.2-.2.1-.8.7-1 .7a24.2 24.2 0 0 1-2.7 2.3c-.6.5-.7.5-1.6 0l-1-.7-1-.6a16.8 16.8 0 0 0-2.2-1.3 5 5 0 0 0-.7-.4c-.2 0-.7.5-3 2.9l-4.2 4.5c-.8.9-.7.9-2.7 0-3-1.4-2.8-1.4-3.6-.8l-1 .7-.6.4-1.2 1-2.2 1.5-1 .8-1-.4a27.1 27.1 0 0 1-3.9-1.6 249.8 249.8 0 0 0-8.4-3.4l-1-.3-1 .4c-.5.3-.9.4-1 .3l-1.4-.8-1-.5-1.1.3a79.2 79.2 0 0 0-4.6 1.5L64.4 44c-.8.3-.8.3-1.8-.7a614.2 614.2 0 0 0-10-9.3 4 4 0 0 1-1-.6l-.3-.2-2.7-1.6a32 32 0 0 0-3.2-2l-.8-.4-.8-.5a16 16 0 0 1-2-1.2c-.2 0-.5 0-.7.3a57.3 57.3 0 0 1-4.5 3.9l-.5.5-.7-.8a5 5 0 0 1-.8-1h-.5c0 .2-.3.6-.8 1l-.7 1-1.6-1.3a2424 2424 0 0 1-9.5-7.5c-.3-.3-.2-.4-1.1.7M18 30c.2.7.4.8.9.4.7-.5.5-.6 6 5a93 93 0 0 0 3 3.4l-.4-.1a1340.7 1340.7 0 0 0-8.4-5c-.9-.6-1.1-.5-2 .6l-2 2.2-1 1v-1.8c0-2 0-1.6 1.3-3.6 2.2-3 2.5-3.2 2.6-2.1m97.4 9.7l1.7 1 .3.3c0 .4.6.4.6 0l.7.3.8.7.2.1a15.4 15.4 0 0 0 1.8 1.4 58.2 58.2 0 0 1 2.7 2.3.8.8 0 0 0-.4-.2l-.7-.3c-1-.8-.8-.2.2.8a979.4 979.4 0 0 1 6.1 6.6c-.2.3-2-.2-2.6-.7a5 5 0 0 0-1-.5l-.2-.2-.8-.6a900.1 900.1 0 0 1-8.8-6.1c-.1-.3-.5-.1-.5.2 0 .4-.2.8-.4.8l-.2-1.9c0-1.5-.1-2-.5-2.8l-1.3-3 .4.3c.2.2 1 .9 2 1.5M76 43l1.1.6.7-.4c.5-.4.6-.4 1.2 0l2.5.8 2.7 1c0 .1-.3.1-.8 0h-3.6l3.1 2.5c2 1.4 1.2 1.4-1.7 0L77.8 46c-1-.5-1.3-.8-1.6-1.3-.2-.4-.5-.7-.6-.7l-.2-.4c-.2-.4-.5-.9-.7-1-.4-.3.2-.1 1.3.5m26.4 1.7l1.2.6c.5.3 1.6 1.4 4 3.8l.6.7-1.2-.4a30 30 0 0 1-3-1.1c-1.4-.5-1.4-.5-1.8-1.4a26.2 26.2 0 0 0-1.9-3.2c0-.2.8.2 2 1m-23 90.6c-10 .9-14.7 3.8-17 10.6a35.5 35.5 0 0 0-1.5 13.8c0 8.6.3 11 1.8 14.3l.4 1c0 .2 1.5 2.4 2.3 3.2a16 16 0 0 0 7.3 4.2c3.9.8 3.7.8 11.5.9 13 .1 13 .1 13.4-2l.9-4.3c1-3.7 2-3.4-10.7-3.4-11.7 0-11.2 0-13.2-1-1.6-1-2.5-3.6-2.5-7.2v-1h12.6a68.7 68.7 0 0 0 14-.7c.8 0 2.4-2.3 2.8-4.3.4-1.5.4-9.5.1-11.1-1.3-6.8-4.9-10.4-12-12.3a41 41 0 0 0-10.2-.7m47.8 0a30 30 0 0 0-9.6 2c-1.5.7-3 1.8-3.8 2.5a14.6 14.6 0 0 0-4.2 7.4 27 27 0 0 1-.4 1.4c-.9 2.9-1.3 46-.5 46.8.6.5 10.4.4 10.8 0 .2-.4.2-1.3.2-6.7 0-3.5.1-6.3.2-6.3l.9.3c1.4.8 2.5 1 5 1.6a54 54 0 0 0 12.2-.4c5.8-1 9.7-4.1 12-9.6a60.5 60.5 0 0 0-.3-29.1c-.9-2.4-3.7-6.3-4.5-6.3l-.4-.3c-1.5-2-11.5-3.9-17.6-3.3m-108.7 1.3l-1.7.3a20.6 20.6 0 0 0-9.2 3.3c-1.3 0-5.4 6.9-5.4 9.1l-.1.8c-.6 1.5-.9 11.5-.5 16 .5 6.6 2.6 11.3 6 13.6l.8.5 1 .6c2.4 1.2 3.2 1.4 6.7 2.1 1.8.4 2.3.4 10.1.4h8.3l.3-.5c.1-.2.3-.5.3-.8 0-.2 0-.8.2-1.3.4-1.4 1-4.4 1.2-5.7l-.1-1-.3-.4h-8.7c-8 0-8.8 0-9.7-.3-1.3-.4-2.1-.8-2.1-1l-.3-.1-.2-.1-.4-.6c-1.4-1.6-1.8-4-1.8-11.7 0-10 .6-11.8 4.1-13l1.3-.5h8c9 0 8.4 0 8.6-1.2l.4-2c1.3-5.7 1.3-5.8.6-6.2-.4-.3-16.8-.5-17.4-.3m25.2 0c-.9.4-.8-1.4-.8 23.3 0 21.8 0 22.8.3 23 .3.3 1 .3 5.4.3h5l.4-.6c.4-.8.3-45.2-.2-45.7-.3-.3-9.3-.6-10-.3m42 8.3c4 .8 5.3 2.7 5.3 8v2.3H72V154c0-6.1 1.5-8.6 5.7-9.1l1.8-.3c.5-.1 5 .1 6.2.3m49.4.4c2.8.8 3.8 2 4.6 6 .3 2 .4 14.2 0 16.6-.8 5.9-2.3 7-9.7 7-9.3 0-10.4-1.5-10.4-14.4 0-10.2.7-13.7 3.3-14.7a30 30 0 0 1 12.2-.5"/>
  </g>
</svg>
