<svg xmlns="http://www.w3.org/2000/svg" width="400" height="362.2" display="block">
  <g fill-rule="evenodd">
    <path fill="#ef3f44" d="M163.9 181v181.2H400V0H163.9v181m32.5-156c2.6.6 4.2 1.4 4.1 2l-1.4 3.2-1-.4c-3.5-1.6-7.2-1.3-8.9.7-2.4 3-2 10.7.7 12.7 2 1.6 5.2 1.5 8.4-.3 1-.6 1-.7 1.8 1.3.7 1.8.7 1.8-1 2.7-1.2.6-1.7.8-3.5 1.3-1 .2-4.6.2-5.5 0-1.7-.6-2.5-1-3.4-1.8-1-.8-2.5-2.7-2.5-3.2l-.2-.4-.3-.5-.4-1.5c-.3-1.3-.4-7.2-.1-8.1l.4-1.4.4-1 .2-.4c0-1.3 4-4.7 5.5-4.7l.6-.2c.4-.3 5-.2 6.1 0m19.3.1c2 .6 4.1 2.3 5 4.1.6 1.3.7 1.4 1 2.9.4 1.2.5 7.3.2 8.3l-.5 1.4c-1.6 5.6-8.3 8.3-13.8 5.6-4.3-2.1-6.3-9.3-4.5-16 .7-2.5 3.5-5.9 4.8-5.9l.4-.1c.5-.5 5.8-.7 7.4-.3m55-.1c1.7.4 2.1.6 3.1 1l1.1.7c.1.2-1.4 3.5-1.6 3.5l-.8-.3c-3.7-2-8.2-1.2-9.5 1.5-1.6 3.4-1.2 9.1.8 11.4 1.8 2 5.3 2 8.7.2 1.3-.7 1.2-.8 2 1.3.8 1.8.6 2.1-2.4 3.2-6.1 2.3-12 .1-14-5-.8-2.5-1.1-7.3-.6-9.5 1.1-4.5 3.2-7 6.8-8 1-.2 5.5-.2 6.5 0m41.3.2v3.3h-2.9l-2.8.1v9.7l-.1 9.6H304l-2.3.1v-9.6c0-8.6 0-9.6-.3-9.7H296v-3.9H312v.4m-79.2.3l1 2.5a889.2 889.2 0 0 1 5.5 13.9c.6 1.7.7.9.6-8l-.1-8.7h4V48h-3.4c-4 .1-3.6.3-4.5-2a55 55 0 0 0-2.2-5.4c0-.3-.3-.9-.5-1.4a68 68 0 0 1-2.4-6c-1.2-3-1.2-3.2-1 6.3V48h-2l-2-.1-.1-11.4V25.2h3.5c3.2 0 3.5 0 3.6.3m20.4 11V48H251l-2.2.1V25.2h4.4v11.4m29.3-10.4a19.2 19.2 0 0 0 .7 1.9l.3 1a22.2 22.2 0 0 1 1 2.3l.7 2c.7 1.8.9 2 1.2 1.2a1922.4 1922.4 0 0 0 3.5-8l.6-1.4h2.4l2.4.1-.7 1.5a13376.3 13376.3 0 0 1-5.2 10l-1.7 3.4V48h-4.5v-4c0-3.2 0-4.2-.2-4.6a562.5 562.5 0 0 1-6.5-14c0-.2.8-.2 2.8-.2h2.8l.4 1M210.9 29c-2.6 1-3.6 3-3.6 7.5 0 5.5 1.6 8.2 4.9 8.1 3 0 4.4-1.6 5-5.6 1.1-6.7-2-11.7-6.3-10M368.8 63c.3 1 .2 1.3-.5 1.5l-3 .6c-1 .3-1.3.2-1.4-.2-.3-1.3-.4-1.2 2.2-2 2.3-.8 2.4-.8 2.7 0m-166.4.8V65H201l-1.2.1v-1c0-1.4 0-1.4 1.4-1.3h1v1.1m16.2 0V65h-2.6V64c-.1-1.3 0-1.4 1.3-1.3h1.3v1.1m38 0V65H253.8v-2.3h2.5v1.1m25.2 5.6v6.8h-1c-.6 0-1 0-1.2-.2-.2-.3-.3-.2-1 .2-2.6 1.7-5.4-.6-5.4-4.5 0-4 2.4-6 5.8-4.8.3.1.3 0 .3-1.8-.1-2.5-.1-2.4 1.3-2.4h1.2v6.7m34.3 0v6.7l-1 .1c-.7 0-1 0-1.2-.2-.2-.3-.2-.3-.9.1-3.3 2.2-6.8-2.1-5.4-6.6.8-2.4 2.6-3.2 5.6-2.7.3.1.3 0 .3-1.8 0-2.4-.1-2.4 1.4-2.3h1.2v6.7m44.2-5.6V65h-2.6V64c-.1-1.3 0-1.4 1.3-1.3h1.3v1.1m-172.7-.6l.2 1a54.2 54.2 0 0 0 .7 3.6l1 5c.2.2.7-.5.7-1l.1-.9.4-1.4a104.5 104.5 0 0 1 1.4-6c0-.4.4-.5 2.4-.5 2.3 0 2.1-.2 2.2 3.5l.3 6.5v3.2H194l-.1-3-.1-5c0-2.2-.2-2.5-.4-1.2a35.8 35.8 0 0 1-.7 3.2l-.8 3.4-.6 2.5h-4l-.1-.7a89.8 89.8 0 0 0-1.5-6.7l-.4-1.8c-.3-1.5-.4 0-.5 4.4v4.8h-2.4v-1.5l.6-11.4c.2-.3 4.2-.2 4.4 0m118.9.4v1.7h-2.7l-2.7.2V67l-.1 1.4h4v2.4h-4v1.5c0 1.8-.2 1.8 3 1.8 2.7 0 2.7 0 2.6 1.4l-.1.6H298v-6-6.5c.1-.4.1-.4 4.1-.4h4l.1.4m-74 2l.1 1.3 1.2.1c2 .1 1.9 1.8 0 1.8l-1.2.1v2.5c-.1 3 0 3.1 1.4 3 1-.2 1-.2 1.1.9.2 1-.5 1.3-2.3 1.3-2.4 0-2.9-.7-3-4.7v-3h-.7c-.7-.1-1-1.9-.2-1.9.7 0 1-.2 1-1 0-.9-.2-.8 1.5-1.5.9-.4 1-.2 1.1 1.1M211.8 67c1.2.8 1.3 1.5 1.3 5.6v3.6h-2.6v-3.4c-.2-4.2-.7-5-2.4-4l-.7.3v3.5l-.2 3.5h-2.5V67h1c.5 0 1 0 1 .2 0 .3.5.2 1.2-.2 1-.5 3-.5 3.9 0m14.6-.1c.6.4.4 1.8-.3 1.8-3-.3-3.3-.3-3.2.6 0 .4.3.6 1.4 1.1 3 1.5 3.6 3.3 1.9 5.2-1.4 1.5-5.6 1.4-5.6-.1 0-1.1.3-1.4 1.2-1 2.8 1.1 3.6-1 .9-2.4-2.6-1.2-3-3.8-.8-5.1.7-.4 4-.5 4.5-.1m15.7 0c1.3.7 2 2 2 4v1.3h-2.7c-3.1 0-3.3.1-3 1 .7 1.4 2.1 1.8 4 1 1.1-.3 1.3-.3 1.3.2l.2.8c.3.5.1.6-1 1s-4 .5-4.1.2l-.4-.2c-2.2 0-3.4-5.2-1.9-7.8 1-1.6 3.9-2.4 5.6-1.5m9.4.8v1.1h-1c-1.7 0-1.7 0-1.7 4V76l-1.4.1h-1.3V67h1c.7 0 .8 0 1 .4 0 .3 0 .3.7-.2.5-.5.8-.6 1.7-.6h1v1.1m13.5-.5c2.4 1.5 3 5.3 1.1 8-.8 1.3-3.9 1.9-5.5 1-3.3-1.7-3.3-7.5 0-9.3 1-.5 3.4-.4 4.4.3m25-.1c1.2.7 1.7 1.7 1.8 3.6l.2 1.6h-2.7c-3.1 0-3.3 0-3 .9.3 1.3 2 1.8 3.8 1 1-.4 1.1-.3 1.4.6.3.9.2 1-1 1.4-2.1.8-4.5.4-5.7-.8-2.2-2.4-1.6-7.3 1-8.5 1-.4 3.3-.3 4.2.2m45-.2l.8.4c.2.3-.5 1.7-.7 1.6-2.6-1-4-.2-4.2 2.2-.2 3 1 4.1 3.6 3.2 1-.3 1.1-.3 1.3.8.1.8.1.7-1.2 1.3a9 9 0 0 1-3.7 0l-.4-.2c-.4 0-1.5-1.1-1.8-1.8a5.4 5.4 0 0 1-.6-2.8l.2-1.8c.6-1.4.7-1.7 1.2-2.1 1.2-1 4-1.5 5.5-.8m8.8.1c1.3.8 1.4 1.2 1.5 5.5v3.7h-.8c-.6 0-1 0-1-.3-.3-.3-.5-.3-1.4.3-2 1.4-4.8-.2-4.8-2.8 0-2 1-2.8 3.7-3 1.7 0 1.7 0 1.7-.5.2-1.2-1-1.6-3.1-1.2-1.3.3-1.4.3-1.7-.6-.2-.4-.2-.6 0-.8.7-.7 4.7-1 5.9-.3m10.4 0c.7.3.7.4.5 1.1-.2.9-.3 1-1.4.6-2.5-.8-3.8.7-3.4 3.9.3 1.8 1.6 2.4 3.6 1.7 1-.4 1.1-.3 1.3.6.3 1 .2 1-1 1.4-4.8 1.7-8.5-3.2-5.8-7.8 1-1.7 4.2-2.5 6.2-1.6m14.2.1c2.9 1.4 3.3 7 .7 8.8-2.2 1.5-5.7.8-6.6-1.3-2.2-4.9 1.5-9.5 6-7.5m11.3.1c1.2.9 1.3 1.2 1.3 5.3v3.7h-2.6v-3.4l-.1-3.4-.5-.4c-.7-.6-1.2-.6-2 0l-.6.4v3.5l-.1 3.4h-2.5V67h.8c.5 0 1 .1 1.2.3.3.2.4.2.6 0 1-.8 3.6-1 4.5-.2m-177.4 4.5V76l-1.3.1H200V69l-.6-.2c-.4-.2-.5-.4-.5-1V67h3.7l-.1 4.6m16.1 0V76h-2.6V69l-.6-.3c-.5-.2-.5-.3-.5-.9V67h3.8v4.6m37.8 0v4.6H254v-3.6l-.1-3.7-.5-.2c-.4-.2-.5-.4-.5-1V67h3.6v4.6m64.1-1.5l.1 3.6c.2 1 1.8 1.2 2.7.5l.5-.3V67h2.7v4.6l-.1 4.5-.9.1c-.7 0-.9 0-1-.3 0-.4-.3-.5-.4-.2-.6.9-3.6 1.2-4.7.5-1.4-1-1.6-1.7-1.6-6.2v-3h2.7v3m39.6 1.6V76h-2.6V69l-.6-.3c-.5-.2-.5-.3-.5-.9V67h3.8v4.6m-121-2.9c-.4.3-.9 1.4-.9 1.9 0 .1.4.2 1.7.2 2 0 2 0 1.5-1.2s-1.4-1.5-2.3-.9m22.4.2c-.9.9-.9 4.5 0 5.3 1.4 1.5 2.7.3 2.7-2.5 0-3-1.2-4.3-2.7-2.8m14.8 0c-2.1 1.8-.7 6.6 1.7 5.6 1-.4 1-.4 1-3.1V69l-.7-.3c-.9-.4-1.4-.3-2 .2m10.4 0a2 2 0 0 0-.6 1.1l-.1.8h3.3v-.6c0-1.4-1.6-2.2-2.6-1.3m23.7.2l-.7.6v1.9c0 2.3.5 3.1 1.8 3 1.5 0 1.7-.4 1.7-3.3V69l-.7-.2c-1.1-.4-1.4-.3-2.1.4m54.8-.2c-1.3 1.3-.9 5.2.6 5.7s2.1-.5 2.1-3.1c0-2.7-1.4-4-2.7-2.6M340.8 72c-1.5.6-1.1 2.8.4 2.8 1.1 0 1.6-.6 1.5-1.8v-1H340.8M192 327c2.1.7 2.3 1 1.5 2.3-.7 1.3-.8 1.3-2.1.8-5.4-2-8.8 1.8-7.4 8 .7 2.8 2 3.8 4.7 3.7 2.4-.1 2.6-.3 2.6-2.2v-1.4l-.5-.1h-1c-.7.2-1.5-2-.8-2.5.5-.3 5.3-.2 5.4.1.2.5.2 7.2 0 7.5l-1 .5c-6.6 2.7-11.7.7-13-5.1-1.9-8.3 4-14.2 11.6-11.6m22.7-.4c.3.2.4.3.3 2.9 0 3.1-.1 3 1 2.4 4.5-2.2 8.7 3 7 8.6-1.1 4-5.7 5.8-8.5 3.2-.4-.4-.4-.4-.7 0-.6.8-.8 1-1.4 1-1 0-1 .3-1-9.2v-8.7l.4-.2a6 6 0 0 1 2.9 0m15.4 0c.3.1.3.4.3 1.4 0 1.6-.1 1.7-2 1.6h-1.3l-.1-1.2c-.1-1.5 0-1.8.3-1.9h2.8m71.8 0c.5.3.6 17.5.2 18-.5.5-2.2.2-2.7-.4l-.5-.5-.9.6c-1.8 1.2-4.8.7-6.2-1.1-2-2.5-1.8-7.6.2-9.9 1.3-1.5 4.3-2.3 5.8-1.5 1 .6 1 .6 1-2.3 0-2.3.1-2.6.4-2.8.4-.2 2.3-.3 2.7 0m32.2 0c2.1.3 3.9 1 3.9 1.5 0 .7-1.1 2.5-1.4 2.4-5.4-2.2-8.6-.4-8.6 5 0 5.6 3.6 7.9 8.3 5.2.6-.4 1.3 0 1.3.6l.3.9c.7 1.3-2.1 2.6-5.7 2.6-5 0-7.5-2.6-7.7-8.5-.4-7 3.2-10.6 9.6-9.7m9.5 0c.3.2.3.4.3 3 0 3 0 3 1.3 2.3 1.2-.6 3.3-.6 4.5 0 2.2 1 2.4 1.7 2.4 7.7 0 5.4.1 5-1.8 5-1.9 0-1.8.2-1.8-4.4 0-5.3-.3-6-2.1-6-2.3 0-2.5.3-2.5 5.6 0 5.1.1 4.9-1.7 4.9l-1.5-.2c-.4-.4-.3-17.7.1-17.9.4-.2 2.3-.3 2.8 0m15.4 0c.3.2.3.5.3 1.6v1.4h-1.6c-1.9 0-2 0-2-1.6 0-1 0-1.3.3-1.4.5-.3 2.7-.2 3 0m6.4 0h.4l.1 7.4v7.5l.5.3.8.4c.8 0 1.2 1.8.5 2.4-1 1-4 0-4.9-1.4a95 95 0 0 1 0-16.6c.2-.2 2-.3 2.6 0m-160.3 5.2c3 1.2 4.7 5.5 3.5 9.2-1.7 5.1-9.4 5.3-11.4.2-2.1-5.7 2.7-11.5 7.9-9.4m36 0c2.3.9 3.5 3 3.4 5.8v1.4h-3.8c-4 0-4.2.1-4 1 .4 2.1 3.8 2.9 6.2 1.4.7-.4 1.6 1.3 1.1 2.2-.6 1.2-5.7 1.6-7.7.7-4.5-2.3-4.3-10.8.3-12.5 1-.4 3.5-.4 4.5 0m13.2-.1c.3.3.3 2.3 0 2.6-.1.1-.5.2-1 .1-1.1-.1-2.5.5-2.7 1.1v4.7c0 4.9 0 4.5-1.9 4.5-1.7 0-1.6.4-1.6-6.7v-6.3h1.1c1 0 1.1 0 1.3.5.4.7.6.8 1.1.3 1.2-1 3.1-1.4 3.7-.8m11.3.1c2.1 1 2.5 2 2.5 8 0 5.2 0 4.9-1.8 4.9-2 0-1.8.3-1.8-4.7 0-4.7-.2-5.2-1.3-5.7-.7-.2-2.1 0-2.7.4l-.5.3v4.6c0 3-.1 4.7-.3 4.8-.2.4-2.7.4-3 0-.3-.2-.3-12.2 0-12.5.5-.6 2.2-.3 2.4.4.1.5.7.6 1 .2 1-1 4.1-1.3 5.5-.7m13.1 0c3.4 1.4 4.8 6 3 10-1.8 4.2-8.8 4.1-10.7 0-2.7-6 2.2-12.2 7.7-10m34.3 0c2.3.9 3.5 3 3.4 6v1.2h-3.8c-4 0-4.2.1-4 1 .4 2.2 3.4 2.8 6.2 1.4.7-.4 1.6 1.3 1.1 2.2-.6 1.1-5.6 1.6-7.6.7-4.6-2.1-4.5-10.8.2-12.5 1-.4 3.5-.4 4.5 0m64.9 0c2.2.8 4 4.3 3.3 6.8l-.1.5h-3.7c-4 0-4.2 0-4 1 .3 1.9 2.7 2.6 5.5 1.6 1.5-.5 1.5-.5 1.8.7.4 1.6-1.1 2.4-4.6 2.4-4.2 0-6.3-2.2-6.3-6.7 0-5 3.6-7.9 8-6.3m-147.6 0c.3.4.3 12.4 0 12.7-.1.1-.7.2-1.5.2-1.8 0-1.7.3-1.7-5.3v-5l-.7-.3c-.7-.4-1-1.6-.6-2.2.3-.3 4.2-.4 4.5 0m129 6.3v6.4H358c-2 .1-1.9.5-1.9-5.2v-4.8l-.7-.5c-.7-.4-.7-.5-.7-1.2 0-1.3 0-1.3 2.5-1.2h2.2v6.5M202 334c-2 1.1-1.8 7 0 7.8 1.5.7 3-.2 3.4-1.8.8-4.1-1-7.2-3.4-6m14.1.2l-.8.4v6.2l.6.6c2.1 1.8 4 .1 4.1-3.4 0-3.6-1.4-5-3.9-3.8m22-.2c-.5.3-1.2 1.3-1.2 2v.6H241v-.5c.2-1.5-1.6-2.8-3-2m37.4 0c-1.7.9-2 6-.4 7.4 1 1 2.9.6 3.4-.6 1.6-4-.4-8.3-3-6.9m20.1.1c-2.1 1-2.1 6.7 0 7.7 1 .5 2.7.1 3.2-.7.2-.4.2-6.2 0-6.5-.4-.7-2.2-1-3.2-.5m14.2 0c-.5.3-1 1.1-1.1 1.9v.6H313v-.5c.2-1.6-1.7-2.8-3.2-2m64.8 0c-.6.4-1.3 1.6-1.2 2.1 0 .6 4.2.8 4.5.2.5-1.5-1.9-3.2-3.3-2.3"/>
    <path fill="#006cb8" d="M0 181v181.2h163.9V0H0v181M83.5 17.5c3 1.4 4.1 5.6 2.2 8.4-.2.4-.4.7-.3.8.1.1 1.3-1.2 1.7-2 .5-1 .8-1 2-.2 1.3.9 1 .9 2.5.3 4.1-1.7 8.4.4 8.7 4.2 0 1 .2 1.3.4 1.6 1 .8 0 3.3-1.8 5a8 8 0 0 0-1.2 1.5c-.4 1.2-5.6 1.7-7.7.7-1.2-.5-3-2.5-3-3.1 0-.2-.2-.4-.3-.4-.3 0 .2 1.5.8 2 .4.5.4 1.2 0 1.6-.5.3-.5.6-.2 1.1.3.4-.3 1.7-1.1 2.5-.4.3-.6.7-.6 1 0 .5-.6 1.2-1 1.2l-.6.8c-.2.7-.5.9-1 1.2-.9.3-1 .4-.4 1 1 .9 0 1.5-1.5 1-1.8-.6-4.4-.6-7 0-1 .3-1.5 0-1.1-.9.2-.6.2-.6-.3-1-1.4-1-2-2-2.3-3.4 0-.6-.2-.8-.8-1.1-.5-.3-.8-.6-.9-1a2 2 0 0 0-.6-.8c-.5-.4-.4-.7.2-.8.4-.1.3-.2-.4-.6-.8-.5-.9-.6-.9-1.1 0-.6-.3-1.4-.4-.9 0 1.8-3.9 3-7 2.3A6.7 6.7 0 0 1 58 25.5c2.2-1 6.5-.7 7.2.6.4.8.6.5.6-1 0-4 3-6.8 7.2-6.8 1.4 0 1.7.5 1 2-.6 1.5-.2 2 .6.8.5-.9 1.3-1.6 2-1.9.5-.1.5-.2.2-.3-.2 0-.6 0-1 .2-1.1.5-1.3.2-.4-.8 1.5-1.5 5.6-2 8-.9m.6 3.1l.2 1c0 .5.2.5.5 0 .2-.2.1-.5-.1-1-.4-.8-.8-.8-.6 0m9.9 4.8c-1.7.5-2.3 1.3-.8 1.3 1.3 0 2.4 1.6 2.4 3.5v.8l.4-.5c.6-.7 0-3.8-.8-3.8l-.1-.3c0-.3.3-.3.8 0 .8.6 1.3 1.7 1.6 3 .2 1.6.4 1.2.4-.7 0-1.2.5-1.5.7-.5l.1.6.1-.5-.1-.6-.2-.4c0-.5-1.2-1.6-2-1.8-1.3-.4-1.5-.4-2.5-.1m-34.3 1.3c-1 .2-2.3 1.2-2.3 1.6l.8-.1c1.2-1 4.6-.6 4.6.5 0 .3 0 .4-1 .4-1.4 0-3.3 1-3.3 1.7 0 .3.4.2.9-.2.8-.6 2.8-.8 3.8-.4 1 .5 1.3 1 1.4 2.4 0 1.6.3 1.7.7.4 1-3.4-2.3-7.2-5.6-6.3m51.7 4.2c0 .6.6.8 1 .3.3-.4.7-.2.8.4 0 .6.6.9 1 .5.5-.5.9-.2.9.5s.5.8 1 .4c.5-.5 1-.3.8.5l-.3 1.7c-.2 1.6-.8 2.5-1.3 2-.3-.2-.3-.2-.3 0l.1.5c1.5.9-.2 6.3-2 6.6-.5 0-.6.5-.2.5l.9-.2c1.7-1 3 2 1.6 3.6-.8 1 .1 1.3 2.2.6 1.3-.4 1.5-.5 1.1-1.2-.4-.9-.3-1.3.4-3 .9-1.8.9-1.8.4-3.4-1-3.2 1.5-5.3 4.3-4 2 1 4 4.2 5.2 8.3l.6 2.2c3 10.3 3 27.2-.3 40.6-1 4.2-1.5 5.1-2.4 5-.8 0-.9-1-.2-3 .9-2.9.8-3-.6-1.6-1.7 1.8-2.6.6-1.4-2.1.3-.8.8-2.5.8-2.9 0-.4-.2-.4-.8.1-1.2 1-1.6.4-.8-1.4.7-1.7 1-2.9.5-2.7-1.4.5-1.9 0-1.4-1.5.5-1.7.9-3.4.8-3.8l-.1-.4-.5.5c-1.2 1.5-2 .2-1.3-2.2.6-2.1.6-2-.2-1.5l-.8.4-.3-.5c-.4-.5-.5-2-.2-3.6.4-1.7.2-2-.5-.6-1.2 2.3-2.5 2.6-2.9.6-.1-.7-.2-.8-.8-1-1-.3-1-.3-1-1.7l-.2-1.2v1.3c0 1.2 0 1.3.5 1.8l.7 1a21 21 0 0 1 1.4 3.6 51.5 51.5 0 0 0 3.4 8.5c1.5 3.5 1.6 4.1 1 4.8-.6.6-1 .6-1.6-.1l-.5-.6-.5.5c-.7.6-.8.6-1.7-.2-.6-.5-.8-.6-1-.4-.6.3-1 .2-1.5-.3-1-.8-1.7-.4-1.7.8 0 1.1-1 2.1-2 2-.7-.1-1 .1-1 .6s-.7 1.2-1 1.2c-.5 0-.5.4 0 1 .4.6.4.6 0 1-.6.5-2.1-1.8-1.5-2.5.6-.6 0-1.2-.8-.7-.7.4-.8.8-.2 1.6.5.6.8 1.1 1 1.6.2.3-.8 1.1-1.3 1.1-.3 0-.7.1-1 .3l-1.2.4c-.5 0-1 .2-1 .3-.4.3-.5.3-2.3-1.1a9.5 9.5 0 0 0-4.1-2.2 3 3 0 0 1-1.6-.8c-.6-.6-4-.9-4.4-.4-.2.2.4 1.3.8 1.3l1 .5 2.5.8c2.4.6 5.2 2.2 4.7 2.7-.3.2-1.9 0-2.5-.3-1-.5-2.3-.8-3.2-.6-.6.2-2.8 2.2-2.8 2.6 0 .4 5.1-.3 7.2-1a49.6 49.6 0 0 1 4.4-1l.8-.3c.4 0 1-.2 1.3-.4l.9-.2 1-.4 1.2-.4c.2 0 .5 0 .7-.2 1.2-1 5.9 1.4 5.9 2.9 0 .3.1.4.7.5.4 0 .8.2.8.3.3.4 2.3 1.4 2.6 1.3 1.7-.7 1.2-5-.8-5.8-1.3-.5-1.9 0-1 .9 1.5 1.3-.5 3-2 1.6-.9-.8-.9-2.7 0-3.5.4-.3.6-.7.6-1 0-.7.6-.9 1.7-.3.7.4 1 .4 1.8.3 1-.1 1.5.2 1.6 1.2 0 .4.3 1.1.5 1.6.4 1 .6 2.5.3 3.8l-.1.8h1.6c2.6 0 3.8 1.4 2.4 2.9-1 1-2 .7-3.1-1l-.3-.4-.9.5c-1.2.6-1.2.8 0 1.4 4.6 2.7 12.7 2.2 14.7-.9 1-1.6.2-4-1-2.7-1.4 1.7-4.1-.3-3-2.3 1.7-2.6 6-.6 6 2.9 0 1 .4 1.5 1 1.1.4-.3 2 .3 2.3.9.7 1.4-.8 3-2 2-.6-.4-1-.3-1.6.3-1.9 1.7-6 3.4-7.2 3-.4-.2-1 .4-1.2 1-.3 1.7-2.3 2.7-2.7 1.5-.2-.5-.2-.6.4-1.2.9-.8.6-1.4-.8-1.7-1.7-.3-4.4-1.3-6-2.2-2.2-1.3-1.9-1.2-3.8-.9-2.5.5-3 1.2-.9 1.2.3 0 .5.1.7.3v.3c-.3 0-1.9 1.4-1.9 1.7l.4.8c.5.7.3 1.1-.8 1.5-.7.2-.7.3-.7.8.1 1.1-1.3 1.7-2.2 1-.5-.4-.6-.4-1.8-.2-1.8.3-2.8.1-3.6-.6-.6-.5-1.2-.7-1.2-.4 0 .6-3.2 2-5.1 2.2-.7 0-1.2.2-1.6.5-1 .7-1.7.6-2.6-.3-.5-.5-.9-.7-1.5-.8a9.8 9.8 0 0 1-3.6-1.4c-1.3-.8-1.5-.8-1.8 0-1.1 2.2-4.8 1.4-4.8-1 0-2.7 3.4-3.3 6.5-1.2 1.3.9 1.5.8 1.3-.2l-.1-2.2V100h-.8c-.4-.1-2.2 0-4 .1a76.4 76.4 0 0 1-7.6.5c-.4.2-.9.2-1.6 0l-3.2-.2a63 63 0 0 1-4.6-.3c-4-.4-4.8-.3-4.7.2v2.1c-.3 2.1-.3 2.1 1.3 1.1 2.8-1.8 5.4-1.6 6.2.5 1 2.8-3.4 4.5-4.6 1.7-.3-.7-.6-.7-2 .1-.9.7-2.4 1.3-3.5 1.4-.6.1-1 .3-1.4.9-.9.8-1.6.9-2.6.2-.4-.3-.9-.5-1.7-.5a8.8 8.8 0 0 1-4.6-1.8c-.9-.6-.8-.6-1.6 0-.7.7-1.9.9-3.6.6-1.3-.2-1.4-.2-1.8.1-.9.7-2.4.2-2.2-.8.1-.5 0-.7-.8-1-1-.3-1.2-.7-.7-1.4l.4-.7c0-.3-1.3-1.6-1.7-1.7-.5-.2-.2-.7.4-.7 1.4 0 1.6-.8.2-1l-1.8-.3c-.9-.2-1-.2-1.5.1a21.4 21.4 0 0 1-7.5 3.1c-1.4.2-1.7.8-.8 1.7 1 1 .3 2.2-1 1.5-.7-.3-1-.6-1.3-1.7-.3-.8-.8-1.3-1.2-1.1-1 .4-5-1.1-6.8-2.7-1.1-.9-1.2-.9-1.7-.7-1.1.5-1.5.4-2 0-1.3-1.2.2-3.2 2-2.7.7.1 1-.3.9-1.4 0-3.5 4.8-5.3 6.1-2.4.8 1.8-1.7 3.5-3 2-1.3-1.3-2 1.2-.9 2.9 2.1 3 9.6 3.4 14.4.8 1.3-.7 1.4-1 .2-1.5-1-.5-1.2-.4-1.7.6s-2 1.2-2.7.1c-.8-.9-.2-2.3 1.1-2.7.9-.3.8-.6-.5-2-.4-.4-.5-.7-.6-1.8 0-1.4-.2-2.3-.8-4.5-1.4-5.4-1.4-5.5.8-7.3 2.1-1.8 2.1-3.2 0-5.7-1.1-1.4-1.4-1.5-2.4-1-1 .6-1.6.7-1.7.3-.1-.2-.4-.3-.7-.3-.9 0-1-.3-.7-1 .3-.4.3-.4-.1-.8-.5-.4-.5-.6-.1-.9.1-.2.2-.6.2-1.3 0-1.7 1-2.6 1.8-1.5.3.4.3.5 0 1.2-.7 1.2-.2 2 1.1 1.7.4 0 .5-.2.7-1.3.5-2.9 4-6.6 14-14.6 3.3-2.5 3.7-3.1 3-4.1a82.2 82.2 0 0 1-4.3-7c0-.3-.5-.6-1.1-1-.5-.2-1.2-.6-1.6-1-.6-.5-1-.6-2.1-.2-.7.2-.8.2-1 0-.4-.5.4-1.5 1.6-1.6 1.4-.2 1.6-1 .4-1.5-.8-.5-1.3-1-1.2-1.4 0-.5.7-.5 1.2 0 .6.6 1.5 1 1.5.6 0-.2-.2-.4-.4-.5-.7-.4-1-1-.9-1.3.3-.5.5-.4 1.4.2 1.3 1 2 .4 1.2-1-.6-1-.6-1.3 0-1.3.3 0 1.2.8 1.2 1.2 0 .1.1.2.3.2.4 0 .3-.4-.3-1.3-.5-.8-.5-1.4.1-1.4.4 0 1.2 1 1.2 1.5 0 .4.4.7 1 .6.6 0 .7 0 1 .6.5.6.6 1.3.3 1.3-.5 0 0 .5.6.6.5 0 1 .3 1.5.8a7 7 0 0 0 3.4 1.5c.5 0 1 .6 1 1.2 0 1-1 1.7-2.7 2-1.8.1-1.7.8.2 1.5a7 7 0 0 1 3 1.8c.8.9 2 2.9 2 3.3 0 1 .7 1.3 1.8.5.7-.4 1-1 2.2-2.9.7-1.1 1.3-1.2 4.3-.6 1.8.3 2.9.4 3.6.3 1.2 0 2 .1 3.2.8.4.3 1.1.6 1.5.7 2.4.4 2.3 1.2-.3 2-1.5.5-1.8.5-2.4 0a2 2 0 0 0-1.1-.3c-.5 0-.8-.2-1.2-.6-1-1-4.4-1.2-5.7-.4-.2.2-.6.9-1 2.3-.8 2.4-1.4 3.4-2 3.4-1.6 0 .3 2.8 2.4 3.5 1.1.4 2.2 1.4 2.8 2.7l.3.6v-.6c0-1.1-1.5-4.2-3-6-.7-1-.6-1.1 2-3 2.4-2 2.7-2.1 3.4-1.6 1.7 1.3 4.6 1.3 7.5 0a14 14 0 0 1 12 0c0 .2.3.3.7.3l1.2.4c1 .5 3.5.3 5-.4 1.4-.7 1.6-.7 2.7.3a31.7 31.7 0 0 0 3.1 2.5l.5.4-.4.6a297.7 297.7 0 0 1-2 3c0 .1 0 .4-.2.7-1 2.1-1 2.2-1 4.4 0 2.7.1 3.1 1.4 3.2 1.4.1 2 .8 2.6 2.7.3 1.1 1.5 2.8 2 2.8l.4.3c.1.3.1.2 0-.1-.5-2-.2-3.7 1-4.7.4-.4 1.1-.4 1.1 0 0 .2 1 1.2 1.2 1.2.1 0 0-.6-.3-.7a15 15 0 0 1-2-5.2c-.3-1.7-.6-2.1-.7-.8-.2 1.8-1.3 2.5-2.3 1.5-.4-.4-.5-.4-.7-.1-1.4 2.5-3.4 1.3-3-1.9l.2-1.2.3-.8c0-.3.2-.6.3-.7l.3-.5L97 54c1-1.5 1-1.3-1.3-3.2a35.2 35.2 0 0 1-1.7-1.4l-.7-.5c-.8-.7-1.5-.7-3 0-2.6 1.4-7 .4-6.1-1.3 2.5-4.8 8.8-8.8 11.7-7.4 1.3.6 1.4 1.4.7 4-.5 1.9-.6 3.2-.2 3.8 1 2 3.2 2.4 5.2 1 .6-.4.8-.4 1.2-.3.4.2.6 0 .2-.3-.6-.3-.8-2-.4-2.7.7-1.5 3.7-2.8 4.9-2.2.3.2.5.2.6 0 .3-.3 0-.8-.6-1-.6-.4-1-1.2-1-2 0-1.3-1.3-2-2.1-1.4-.4.3-1.2.3-1.2 0l-.2-.7c-.5-1.2.9-2.8 2.1-2.5.4.1.5 0 .6-.5.3-.7 1-1.5 1.8-1.6 1.1-.3 1.1-.3 1.2-1 0-.5.1-.7.6-1 .3 0 .6-.3.6-.5s.2-.6.5-.9c.5-.6 1-.5 1 .4m-25.8 1c-.2.3.4 1.9.6 1.9.2 0 .2-1.3 0-1.7 0-.3-.5-.4-.6-.1m-26 .6c-.6.5-.4.9.3.6 1.4-.5 2.2 1 1.1 2.2-.8 1-.6 1.2.5.5 1.5-.9 1.5-2.6 0-3.4-.9-.5-1.3-.4-1.9 0m20.8 2.7c-1.2 1.6-.8 4.4.5 3.6 1.1-.7 1.6-2.4.7-2.2-.8.1-.8 0-.3-1 .8-1.4.2-1.7-.9-.4m-7.8.2l.5.4a33.5 33.5 0 0 1 2.7 1.8c.2 0 1.2.8 1.2 1 0 .2-1.9-.4-2.1-.9l-.4-.1a1 1 0 0 1-.6-.3c-.5-.4-1-.5-1.2-.2-.2.4.3.8 1.7 1.4 2.3 1 3 1.3 3 1.8s-.6.4-1.2 0c-.6-.6-1-.7-1-.2 0 .4.7 1.1 1.1 1.1l.7.4.6.4-.4.3c-.7.5-.4 1.3.5 1.3.6 0 1-3 .4-4.8-.4-1.3-.7-1.7-1.8-2l-3-1.3c-.5-.3-.7-.3-.7-.1m5.4.8l.3.8c.2.2.3.6.3 1 0 .2.1.7.3 1l.3 2.7c0 2 .1 2.6.4 2.3a22 22 0 0 0-.3-6c0-.3-.1-.7-.3-.9-.2-.1-.4-.5-.5-.8-.1-.6-.5-.7-.5-.1m31.7 0c-.7.4-.6.7 0 .7.8 0 1 .1 1.8 1 .7 1 .8 1 1.2.7.4-.4.2-.8-1.1-1.8-1.4-1-1.4-1-2-.7m4.5.2c.4.5.7.7.7.4 0-.1-.8-1-1-1 0 0 0 .3.3.6m-5.2 2c-.2.2 0 .3.4.5.6.3.7.2.3-.3-.3-.4-.4-.5-.7-.3m12.4.6c-.7.6-.9 1.5-.5 2.3.7 1.2.6 1.6-.2 3-1.2 1.7-1.3 3.6-.4 4.5.8.8 1.6-.2 1-1.3-.6-1-.5-1.8.2-3 .7-1.3.8-1.5.3-2s-.5-1.8 0-2.4c.4-.6 1.2-.7 1.4-.2.2.7.4.9.8.9.3 0 .4 0 .5.5 0 1.1.2 1.4.6 1.4.7 0 1 .4.8 1.3-.1 1 .2 1.8.9 2.2.8.5.8 1 .2 2.7-.8 2.4-.5 3.5.7 2.8 1.3-.6 1.4 1.8.2 4.8-.9 2.4-1 3.4-.4 3.5.5 0 .8-.2 1.3-1.2 1-2.1 1.6 7 1 13.2-.4 3.8-.9 11.6-.6 10 0-.4.3-1 .4-1.4.2-.6.6-3.1.9-6.1 1.4-14.2-1-29-5.5-34.1-1.7-2-2.5-2.3-3.6-1.4m-78-.1c-.8.2-2.3 2.1-2 2.5.5.4.8.3 1-.3.3-1 1-1.4 1.7-1.2h1.5c.8-.2 1-.2 1.3 0 .8.5 1.7.7 2 .3.5-.4 0-.9-1.3-1a13.3 13.3 0 0 1-3.2-.4h-1m38 1c-.6.7-.7 1.2-.3 1.2.4 0 1.2-1.1 1.2-1.6 0-.6-.4-.4-1 .3M43.8 41c-.4.3-.4.7 0 .6.4 0 .9-.9.5-.9l-.5.3m49.7 0c-1.3.5-1.1.6.5.6 1.7 0 2-.1 1-.6-.5-.3-.7-.3-1.5 0m-12.3.7c-.4.5-.5.8-.3 1.3.1.4.6.1 1-.7.5-1.2.1-1.6-.7-.6m26.5 2.8c-.2.2.1.4.3.3.2-.2.1-.4 0-.4l-.3.1m-61.8 1c-.2.3.4.7 2.6 1.5 1.3.4 2.8 1 3.3 1.3 1.6.8 1.5-.1 0-1.5-1.2-1-5.5-2-5.9-1.4m29.5 4.2a13 13 0 0 0-3.3 1.1l-.7.3c-1.9 1.2-4.8 1.2-6.1 0-.3-.2-.6-.3-1-.3-.8.1-.9.6-.2.7.8 0 1 .2.7.5-.3.3-1 .3-1.3 0-.4-.4-.8-.4-1.5 0-1.1.7-1.1 1 0 2.7a14.8 14.8 0 0 1 1.7 3.3c.8.6.7 7 0 7.7l-.1.6c0 .1-.3.8-.7 1.3-1 1.7-1.6 4.7-.7 3.4.4-.5.5.1.4 2.2 0 1.5 0 1.6-.4 1.5-.6 0-.6.5-.1 1.6 1 2.3 4.3 4.2 7.3 4.2.7 0 1.9.1 2.6.3 2.5.5 2.3.5 2 0-.7-2 0-9.1.9-8.7.5.1.4 8.7-.1 9l-.4.4c1.8 1.2 2 1.4 2.7 2.8.6 1.3.8 1.2 1.7-.4.2-.4.6-1 .8-1.1l.8-.8.7-.4c.2 0 .4 0 .5-.2.2-.3 3.3-.9 4.8-.9 1.2 0 1.7 0 2.2-.4l1-.3c.4 0 1.6-.7 2.5-1.6 2.7-2.5 3-6 .8-10.3-2.4-4.7-2-9.3 1.2-13.8.9-1.2.8-1.2-1.2-2.5-1.2-.9-1.9-1-2.4-.5-1.5 1.3-3.6 1.3-6.6-.1a15.5 15.5 0 0 0-8.5-1.3m38.8.7c-.2.3.8.6 1.7.5 1.2-.1 1.5-.3.8-.5-.9-.2-2.4-.2-2.5 0m-14 .3L99 51c-.6 0-.6 0-.2.3.5.3 1.1.3 1.8-.2 1-.6.8-.8-.5-.4m-18.2.7c2 .7 1.3.9-4.4.8-5.6 0-6.4-.1-4.6-.8 1.8-.7 7.1-.7 9 0m10 .4c.1.4-.8.5-1 .3l-.4-.4c0-.3 1.4-.1 1.4.1m-36.2.5c-.1.2.1 1.2.3 1.2.2 0 .2-1 0-1.1h-.3m37.7 1c0 1-.1 1-8 1-6.3.1-7.3.1-7.3.4 0 .2 1 .3 7 .3 6 .1 6.8.2 6.8.4.2.9 0 1-6.7 1-6.3 0-6.7 0-6.2.6.1.2 1.1.2 6 .2 5.4 0 5.7 0 5.9.4.4.7 0 .8-6 .9-4.7 0-5.5.1-5.5.4 0 .2.8.2 5.4.3 3 0 5.5.1 5.5.2.2.1 0 .9-.2 1h-5c-5 0-5.4.2-4.9.7.2.2 1.3.3 5 .3 4.9 0 5.1 0 4.9.9-.2.4-1.9.5-2.3 0-.3-.3-.7-.2-6.9 1.8l-2 .5c-1.3 0-.6.9 1.3 1.6 1.5.5 1.7.5 2.7-.3.5-.4 7-.5 7.6-.2l1 1.7.7 1.5v4.2c0 4.4-.1 5-.9 5-.3.1-.4 0-.4-.2 0-6-.1-10.6-.3-10.7-.5-.6-.6 0-.6 5.8 0 6 0 6.2-.6 6.4-.6.2-.7-.5-.7-6.4 0-5.8 0-6.3-.6-5.8-.2.2-.3 1.3-.3 6.4v6.2h-1.2v-6.4c-.1-5.4-.2-6.3-.4-6.3s-.3.9-.4 6.3c0 5.6 0 6.3-.4 6.5-.6.4-.8-.1-.8-2.5 0-2 0-2.2-.5-2.6l-.4-.4v3c-.1 3-.2 3.4-1 3-.3-.2-.3-.3-.3-3.4V74h.4c.7 0 .6-.2-.5-1.8l-4.4-6.3c-.2-.5-.7-.2-1.3.5L72 73l-1 1.4V77c-.1 2.3-.2 2.8-.4 3-.8.4-.9 0-.9-6.5 0-6 0-6.7-.6-6.4-.3 0-.3.8-.3 6.4v6.3h-.5c-.7.1-.8-.1-.8-6.5 0-6.1 0-6.6-.6-6.1-.2.2-.3 1.2-.3 6.1 0 5.9 0 6-.4 6-.7 0-.7-.4-.8-6.4-.1-5-.2-5.8-.4-5.8s-.3.7-.3 5.4c0 5.8-.1 6.2-1 5.2-.4-.5-.5-10.7-.2-10.7l.4-.6c.3-.8.4-.8 4.3-.8h3.2l.9.5.9.6 1-.4c2.5-.9 3-1.3 1.9-1.6L72 63.5C67.7 62 67 62 67 62.4c-.2.4-1.7.4-2 0-.5-.6.1-1 1.3-1h4.6c4.3 0 4-.1 5.2 1.7 1.2 2 1.2 1.9 1.2-3.8v-5H70c-7.7 0-8.3 0-8.3-1 0-.4-.2-.4 16.1-.4 15 0 15.6 0 15.6.3m-16.8 2.3c.1.8-.3.8-6.8.8h-6.2l-.3-.4c-.5-.8-.3-.9 6.7-.8 6.3 0 6.5 0 6.6.4m-.7 2c.7.8-.2 1-5.8 1s-6.4-.1-6-1c.3-.4 11.4-.5 11.8 0m-19.5.8c-1.4.4-1.1 1 .4 1 2.2-.2 3-.2 3.2.2l.3.2c0-.3-.6-.8-1.3-1.3-.5-.3-1.7-.3-2.6 0m18.6 1c.4 0 .4.6.1.9-.2.2-9.6.3-10.2 0-.3 0-.4-.8 0-1H75M56.2 61c-2 .5-3.4.7-4.5.4-1.3-.3-1.8-.2-1 .3 1.4.8 1.4.7.4 2.1-2.7 4-5.6 5.8-10.2 6.3l-.4.2c0 .3 1 .5 2 .4 1.6-.1 1.6 0 1.1 2.1-.6 3.3-.3 4.6 1.6 6.6 1.8 1.9 3.2 2.6 5.4 2.7.9 0 1.7.2 2 .4 2 1 2.5 1.2 4 1 1-.2 1.8-.2 2.4 0h1.7l1 .1c.1.2.5.2 1.2.1.8 0 1 0 1.7.5.6.4 1 .5 1.6.5.7 0 1.5.7 1.5 1.3 0 .2 1.3 1 2.2 1.3.9.3 1.1.2 1.8-.8s1.7-1.1 2.3-.2c.4.6.2 1.1-.6 1.3-1.3.3-.8 2 .8 2.7.5.3.6.3 1.4-.2 1.3-.8 3.3-.8 4.4 0 1 .6 1.4.6 2.3-.4 1.1-1.1 1-1.8-.1-2.2-.6 0-.7-.5-.5-1 .4-1 2-1 2.3 0 .5 1.4 4.2.5 4.2-1 0-.4.7-.8 1.4-.8.4 0 1-.1 1.5-.5.7-.5.9-.6 1.8-.4l1.2-.1a13.9 13.9 0 0 1 6.6.2c.6.2 1.6.5 2.2.5a9 9 0 0 1 2 .4c3 1 4.6.2 3.5-1.7-.4-.6-.5-1-.5-1.8 0-1.5-.6-1.1-.9.6-.3 2.4-1.4 2.6-1.4.4 0-1.8-.5-2.3-1-1.2-.7 1.4-1.2.8-1.4-1.5-.2-2.5-.2-2.7-1-2.6-.8.2-1.3-.4-1.5-2-.3-2.4-2.7-4-2.7-1.8 0 .4-.3 1-.6 1.4l-.6 1.5c-.7 3.4-4.3 6-8.7 6.2-5 .3-7.3 1.2-9.2 3.8-.7 1-1.2 1-2 0-2.2-2.7-4.2-3.5-9.4-3.8-5.3-.3-8.8-3.8-8.8-8.7 0-1-.1-1.6-.3-1.8-.3-.4 0-1.4.8-2.4.4-.6.5-.8.4-1.3 0-.5 0-.8.4-1.4.3-.3.5-.8.5-1 0-.7-.4-3.1-.5-3.2-1-1-2-1.8-2.2-1.8l-1.6.3m13 3c.4.1.7.4.6.5-.2.3-5.1.2-5.2-.1-.2-.6 0-.8 1.3-.9 1.9-.1 2.7 0 3.3.4m21-.1c.4.7.1.8-2.5.8l-2.6-.1c0-.2.8-.8 1.3-1 .5-.2 3.7 0 3.8.3m3.9 2c-.4.3-.3.3.1.3.5 0 .6 0 .8 1 .2 1.2 1.9 2.2 1.9 1.1 0-1.8-2-3.5-2.8-2.5M60.9 67c-.3.4-.5 1-.5 1.5s-.1 1-.3 1c-.3.2-1 1.5-.8 1.7.6 1 2.3-1.8 2.3-3.9 0-1-.2-1.1-.7-.3M71 67c-.2.2-.1 4.2 0 4.2.8 0 1.2-4 .5-4.2h-.5m12.8.1a17 17 0 0 0 0 5.4c.4 1.5.6.7.6-2.4 0-3-.1-3.5-.6-3M96.8 70l-.2 1.6c-.1 1.4-.2 1.5-.6 1.7-.5.2-.5.6 0 1 .7.4 1.2-.6 1.2-2.6 0-1.5-.1-2.2-.4-1.7m-19.6 6.6c0 5.9 0 6.3-.3 6.4-.2 0-.3 0-.3-.2s-.1-.3-.3-.4c-.5-.2-.4-11.3.1-11.8.8-.8.8-.6.8 6m1.7-5.7c.5.3.6 1 .6 6 0 5.2 0 5.7-.8 6.3-.6.6-.7.4-.7-5.9 0-6.7 0-7 .9-6.4M93.6 73c0 1.4-.2 2-.5 1.4-.3-.9 0-3.6.3-3l.2 1.6m-32.4-.3c0 .7 0 1 .2 1l.2-1-.2-1c-.1 0-.2.3-.2 1m20.3 4c0 3.9 0 4-.4 4.2-.6.5-.7.2-.7-4.4 0-4.6 0-4.7.7-4.1.4.4.4.4.4 4.3m-42.1-3.4c-.6 3.7-4.6 8.3-7.3 8.3-.5 0-.6.2-.8 1.8-.3 2-.3 1.7.4 4.8.6 3 .6 2.9 1.3 3.3.8.4 1 .1 1.8-2.7.4-1.4.5-1.5 1.8-1.4.7.1 1 0 1.5-.2 1.1-.7 2-.6 2 .3l.4 1c1.4 1.2.8 3.6-.9 3.9-1.3.2-2-1.4-1-2.2.6-.5.7-.8 0-1-2-.4-3.6 2.8-2.5 5 .7 1.3 1.4 1.2 3.2-.2.1-.2.6-.3 1-.4.5-.1.6-.2.6-.6 0-.3 0-.6.2-.6l1.7-1.2c1.8-1.5 2.2-1.6 4-1 1 .3 1.5.2 1-.2a.6.6 0 0 1-.3-.6c0-.3 0-.4-.2-.4-.6 0-.2-.7.7-1.2 1.6-.8 3-1.5 3.3-1.9.7-.6-.6-1.5-1.6-1-.5.1-1-.2-3.7-2.1l-3-2.2c-1.9-1.2-2-1.4-2-2.9-.2-1-.3-1.5-.7-2-.3-.5-.5-1-.5-1.6 0-1.4-.2-1.8-.4-.8m33.7 3.4c0 3.5 0 3.8-.8 3.8-.6 0-.6-6.5 0-7 .7-.5.8-.3.8 3.2m34.5-2.1a3 3 0 0 1-1.2.3c-1.1 0-1.6.2-1 .4 1 .3 2.2.2 2.8-.2.9-.6.4-1-.6-.5m-57 9c0 .1.6.5 1 .5l.8.6c.8.8 1.2.9 1.2.1 0-.2 0-.5.2-.6.4 0 0-.6-.7-.7-1-.2-2.4-.1-2.5 0m51.1 2c-.4.5-.4.8 0 .8.3 0 .4-.1.4-.2 0-.6 1.6-.2 3 .8h.5c.3-.4 0-.8-.7-1-.5-.1-.9-.3-1-.5-.3-.3-1.8-.3-2.2.1m-41.4 2a4 4 0 0 1-2 .9c-1.3.3-2.6 1-4.3 2.5-1.5 1.3-1.5 1.3.4 1.6l2.8.7a33 33 0 0 0 6.2 1h.7l-.3-.5c-1.8-2.4-3-2.8-6-1.5-1.5.7-2.8.3-1.9-.5.6-.6 2.9-1.6 4.4-2 2.4-.6 4.3-1.6 4.3-2.2V87h-1.9c-1.7 0-1.8 0-2.4.6m7.4 1.2c-.3.7 0 1 .6.6.3-.3.4-.3.7 0 1 1 .3 2-1.2 2-.8 0-1 .3-.8.8.2.3.3.3 1 .2.7 0 .8 0 .9.3.3 1-1 1.8-3 1.9h-1.2l1.3.1 4.3.4a100.7 100.7 0 0 0 19.6-.4c1.7-.1 1-.4-.8-.3-1.1 0-1.9-.3-2.2-1-.3-.7 0-1.1 1-1 .5.1.7 0 .8-.2.3-.5 0-.7-1-.8-1.1-.1-1.4-.3-1.3-1.2 0-.8.5-1.1 1-.8.8.5 1.1-.1.5-.7-.6-.7-1.5-.2-3 1.6a9 9 0 0 1-1.4 1.4l-.7.7c0 .3-.9 1.2-1.9 2l-.9.7h-2.2c-2 0-2.1 0-2.8-.5-1.5-1.2-1.8-1.6-2-2 0-.2-.3-.6-.6-.8-.4-.2-1-.8-1.6-1.5-1.7-2-2.7-2.5-3.1-1.5m-18.5 2.3l.5.2c.3 0 .4-.1.4-.2l-.6-.2c-.3 0-.4 0-.3.2m2 .6c.4.1.7 0 .8 0 .2-.2 0-.3-.7-.2h-.9l.7.2M46 92l-.5 1c-.2.6-.2.9.2.9s.8-1 .8-1.7c0-.8-.3-.9-.5-.2m62.8.3c0 .5 1.2 1.6 1.6 1.6.5 0 .2-.7-.4-1.3-.8-.8-1.2-.9-1.2-.3m-76.7 0c-.1.5.4 2.2.8 2.4.4.1.6 0 .5-.6-.1-.4-.1-.4.4-.3.8.1.7-.2-.2-.9-1-.8-1.4-.9-1.5-.5m15-.2v.6c.2.5.7.3.7-.2s-.4-.6-.6-.4m1.7.7c-.3.1-.6.4-.6.7-.2.8.3 1.6.5.9l.4-1c.3-.8.3-1-.3-.6m57.4.7c0 .5-.2 1.1-.3 1.3-.1.4 0 .5.3.4.4 0 .8-1.3.9-2.5 0-.7-.7-.1-.9.8m-56 .3l-.2 1c-.2.7.3.5.8-.2.3-.5.3-.7.2-1-.3-.5-.7-.4-.8.2m-8.5.3c0 .3-.4.7-1 1.2-1.5 1.2-1.4 2 .1 2 1 0 1.3-.6 1.4-1.9.1-.9.2-1 .5-1.2.4-.1 0-.6-.5-.6-.3 0-.5.1-.5.5m10.4 0c-.3.7-.4 1.6-.3 1.7.3.2.8-.4.8-1 0-.2 0-.5.2-.6.3-.2.2-.6-.2-.6-.2 0-.4.2-.5.4m51.4-.1c0 .1 0 .3.2.3v.5c-.1.5.8 1.3 1.1 1 0-.1 0-.3-.2-.4-.2-.2-.3-.5-.4-1.6 0-.2-.7-.1-.7.2m9.4 0c-.2.2-.1.2.2.3.3.1.3.3.3 1.1 0 1.6 1.1 2.4 2.4 1.7.6-.3.4-.6-.7-1.6-.8-.7-1.1-1-1.1-1.4 0-.5-.7-.6-1.1-.1m-10.8.1c0 .2 0 .5.2.8l.3.8c0 .5.5.8.6.4.2-.5 0-1.2-.3-1.7-.4-.6-.7-.7-.8-.3m-48.5.3c0 .2-.2.4-.4.4-.4 0-.4.3-.1.9.4.8.6.8.6 0 0-.4 0-.8.2-1 .2 0 .3-.2.2-.4-.1-.3-.4-.3-.5.1m58 0c-.4.3 0 .4.5.3.3-.1.4-.2.2-.3-.3-.2-.3-.2-.7 0m-68.2.2c.5.2.9.2.9 0l-.6-.2c-.5 0-.6 0-.3.2m13.4.4c-.5 1.2-.6 1.8-.4 2 .3.3.7 0 .7-.5l.2-.9c.1-.3 0-.5 0-.8-.3-.3-.3-.3-.5.2m42.6-.3c-.2.1.3 2.3.5 2.3h.3c.2 0 0-1.5-.2-2l-.4-.4-.2.1m-54.9.2v1.1c-.8.8-1.5 2.4-1.3 2.5.6.5 2-1.2 2-2.4 0-.2.1-.5.3-.6.4-.3.4-.3 0-.5-.6-.3-.8-.3-1 0m65.7 0c-.5.2-.5.2-.1.4l.6 1.2c.2 1.1.7 1.8 1.3 2 .5.2.7-.3.3-.9l-.6-1c-.1-.4-.3-.7-.4-.7l-.2-.7c0-.6-.2-.6-1-.3M96 96.3c.2 1 .6 1.5 1.1 1.5.4 0 .4 0 0-.4l-.4-1.1c0-.6-.2-.8-.4-.8-.4-.1-.4 0-.3.8m-49.7-.1c0 .3 0 .9-.4 1.7-.6 1.3-.5 1.6.2 1.7 1.6.4 2.5 3.3 1.1 3.7-.8.2-1.5-1-1-1.7.7-.7-.1-1-.8-.4-1.5 1.6 1.5 3.8 3.4 2.4.8-.6.8-.7.1-2-1.1-2.2-1.6-4.5-1-5 .3-.4-.4-1-1.1-1-.6 0-.6 0-.5.6m13.7-.3c-.2.5.4 2 .8 2 .3 0 .3-.1.3-.7-.2-1.1-.8-2-1.1-1.3m48.2 0c-.3.4-.3.5-.1.7.5.5 0 3-1.2 5.1-.6 1.2-.6 1.4.3 2 1 .7 2 .6 2.8-.2 1-.9 1-2.3 0-2.6-.6-.2-.9.4-.4.9.6.5-.2 1.7-1 1.5-1.4-.6-.4-3.7 1.4-3.7.5 0 .5-.5 0-1.4-.2-.5-.4-1.2-.4-1.7 0-1-.7-1.3-1.4-.5m-14.8 0v.6l.2 1c.1.8.6.9.7 0 .2-1.1-.4-2.1-.9-1.5m-29.9 1c0 1.2 0 1.6.5 1.2.5-.5.4-2 0-2.1-.4 0-.4 0-.5 1m-15-.7l.4.2c.3 0 .4.1.4 1.1 0 1.3.2 2.4.7 2.9.6.6.6.6 1.3-1.9.3-1 .3-1 1-1 .9 0 1 .3.7 1.6-.6 2.7-.6 3.2.6 3.4.7.1.9-.3.5-.9-1-1.4 1-1.6 2.5-.2 1 1 .8 2-.5 2.6-.9.5-.8.8.2 1 1.1.1 1.7 0 2.3-.7.6-.7 1.3-.8 2-.2 1.4 1 2.5 0 2.9-2.2 0-.5.2-1.2.4-1.6l.2-.8c0-.2-1.3-.5-2.7-.7a53 53 0 0 1-4.7-.8l-4.2-.8c-.2 0-.5 0-.7-.2-.6-.5-3.6-1.2-3.4-.8m16.8.3c0 .2-.3.4-.5.5-.3.1-.3.4.2.8.5.6 1 .5.6 0-.3-.4-.3-.5 0-.7.3-.4.3-1 0-1 0 0-.2.1-.3.4m40.3-.1l-1.5.6c-.2.2-.7.3-1 .3a1969.4 1969.4 0 0 1-3.5.6 70 70 0 0 1-5.6 1c-2.3.3-2.2.1-1.6 2.7.6 2.7 1.5 3.4 2.9 2.5.9-.6 1.2-.6 2 .2.8.7.9.7 1.9.7 1.7 0 1.7-.3.3-1.2-1.1-.8-1-2 .4-2.8 1.4-1 2.4-.6 2 .6-.3.7-.1 1 .5.9 1.1-.3 1.2-.9.6-3.3-.3-1.4-.3-1.7.6-1.7.8 0 1 .2 1.3 1.7.3 1.6.5 1.8 1 1.1.6-.6.9-1.7.8-2.6 0-1.2 0-1.3.4-1.3.2 0 .4 0 .5-.2.1-.2-.5-.2-2 .2m-37.9.3c-.3.7.3 2 .9 2 .4 0 .4-.2.1-.7l-.3-1c-.1-.6-.5-.8-.7-.3m3.3.2a7 7 0 0 1-.8 1l-.4.6c0 .4.7.3 1-.2 0-.2.4-.6.7-1 .4-.5.5-.6.3-.7-.4-.3-.5-.2-.8.3m15.5.7c0 1 0 1.1.3 1.1.5 0 .5 0 .4-1.2-.2-1.6-.7-1.6-.7 0m3.4-1c-.2.2.2 1 .6 1.5.8.8 1.2.2.5-.7l-.4-.7c0-.2-.5-.3-.7-.1m-13.1.4c-.2.3 1.4 2 1.8 2 .5 0 .2-.6-.6-1.5-1-.9-1-1-1.2-.5m-3.7.3c-.5.5-.4 1.4.2 1.5.3 0 .3 0 .3-1 0-1.1 0-1-.5-.5m10.3.6c0 .8 0 1 .3 1 .6-.2.6-1.5 0-1.9-.3-.1-.3 0-.3.9m-8.4-.7l-.1.9c0 .9.5 1 .7.2.2-.7-.2-1.5-.6-1.1m6.5.2c-.4.4-.4.7 0 1.2.5.7.6.5.6-.6 0-1-.1-1.2-.6-.6m-1.3 3.5c.5.5.7 1.4.5 2-.2.4-.1.6.4 1.1.7.8.6 1.1-.4 2.4l-1 1.3c0 .4-1.2 1.5-1.6 1.5-.5 0-1.8-1-1.8-1.5l-.9-1.3c-1-1.2-1-1.7-.4-2.4.4-.4.4-.5.3-1.2 0-.9.2-1.8.7-2 .6-.2 4-.1 4.2.1"/>
  </g>
</svg>
