<svg xmlns="http://www.w3.org/2000/svg" width="480.46399" height="187.42133">
  <defs/>
  <defs>
    <clipPath id="a" clipPathUnits="userSpaceOnUse">
      <path d="M0 140.566h360.348V0H0z"/>
    </clipPath>
  </defs>
  <g clip-path="url(#a)" transform="matrix(1.33333 0 0 -1.33333 0 187.42133)">
    <path fill="#0062ac" d="M298.2085 21.3296c14.771.994 27.249 6.469 37.299 16.422 11.165 11.061 16.751 25.032 16.751 41.901 0 15.38-4.39 28.572-13.772 39.055-.272.303-.739.532-1.177.532-.843 0-1.529-.684-1.529-1.53 0-.146.018-.285.057-.422 6.918-18.597 2.892-37.29-9.321-42.235-8.555-3.463-18.917.716-27.099 9.777-.615.615-1.66.632-2.275.02-.558-.558-.608-1.429-.156-2.042 0 0 .167-.194.17-.198 7.068-7.975 10.676-17.854 10.676-29.455 0-11.581-3.558-21.31-10.669-29.186-.295-.279-.482-.674-.482-1.112 0-.843.683-1.527 1.527-1.527M162.2056 59.0918c-1.442-.707-4.656-1.059-8.537-1.059h-2.912v17.96h2.299c3.754 0 6.992-.298 8.615-.895 1.621-.597 2.878-1.625 3.77-3.076.895-1.455 1.342-3.077 1.342-4.867 0-1.821-.4-3.444-1.205-4.868-.806-1.425-1.93-2.489-3.372-3.195m21.548-32.581c-1.235 1.788-2.874 4.451-4.919 7.997-3.25 5.632-5.771 9.577-7.564 11.842-1.793 2.26-3.628 4.048-5.504 5.363 3.193 1.308 6.194 3.287 7.902 5.936 1.71 2.655 2.564 5.795 2.564 9.429 0 5.331-1.742 9.562-5.232 12.689-3.486 3.125-8.753 4.692-14.69 4.692h-14.708v-62.416h9.154v27.165h.653c2.748 0 4.704-.335 5.87-1.005 1.162-.67 2.468-1.762 3.912-3.279 1.445-1.514 3.034-3.553 4.767-6.12l2.814-4.873 2.602-4.558 1.637-2.457c.25-.36.419-.612.504-.762l2.56-4.111h10.787zM194.4819 84.4585h31.309v-8.81h-22.038v-15.737h22.038v-8.783h-22.038v-29.086h-9.271zM116.0269 36.3276c-4.208-4.572-9.458-6.861-15.752-6.861-6.264 0-11.482 2.246-15.649 6.728-4.169 4.482-6.252 10.102-6.252 16.856 0 6.961 2.078 12.685 6.232 17.169 4.155 4.481 9.459 6.724 15.912 6.724 6.131 0 11.301-2.267 15.509-6.79 4.209-4.532 6.314-10.112 6.314-16.747 0-6.813-2.105-12.504-6.314-17.079m6.819 39.868c-6.033 6.104-13.586 9.157-22.657 9.157-9.072 0-16.575-3.053-22.509-9.157-5.936-6.11-8.903-13.826-8.903-23.145 0-9.088 2.946-16.645 8.84-22.678 5.892-6.03 13.263-9.046 22.111-9.046 9.267 0 16.944 3.016 23.035 9.046 6.089 6.033 9.134 13.654 9.134 22.852 0 9.211-3.017 16.861-9.051 22.971"/>
    <path fill="#0062ac" d="M281.4731 36.3276c-4.21-4.572-9.46-6.861-15.753-6.861-6.264 0-11.481 2.246-15.65 6.728-4.168 4.482-6.25 10.102-6.25 16.856 0 6.961 2.076 12.685 6.23 17.169 4.156 4.481 9.46 6.724 15.913 6.724 6.13 0 11.3-2.267 15.51-6.79 4.208-4.532 6.312-10.112 6.312-16.747 0-6.813-2.104-12.504-6.312-17.079m6.817 39.868c-6.034 6.104-13.586 9.157-22.657 9.157s-16.575-3.053-22.509-9.157c-5.936-6.11-8.903-13.826-8.903-23.145 0-9.088 2.946-16.645 8.841-22.678 5.892-6.03 13.264-9.046 22.109-9.046 9.268 0 16.946 3.016 23.035 9.046 6.09 6.033 9.135 13.654 9.135 22.852 0 9.211-3.017 16.861-9.051 22.971M60.1743 36.3276c-4.785-4.572-10.75-6.861-17.901-6.861-7.12 0-13.048 2.246-17.785 6.728-4.737 4.482-7.104 10.102-7.104 16.856 0 6.961 2.36 12.685 7.082 17.169 4.722 4.481 10.747 6.724 18.083 6.724 6.966 0 12.84-2.267 17.625-6.79.053-.054.097-.102.15-.153v10.126c-7.537 3.425-14.386 5.139-20.549 5.139-8.937 0-16.452-3.099-22.546-9.297-6.094-6.194-9.14-13.834-9.14-22.918 0-5.719 1.331-11.036 3.992-15.948 2.662-4.92 6.275-8.777 10.842-11.577 4.565-2.8 10.127-4.199 16.683-4.199 8.069 0 15.185 1.786 21.348 5.362V37.0806c-.024-.016-.05-.028-.076-.044-.229-.236-.463-.479-.704-.709M328.7251 98.5415c-2.147 2.172-4.835 3.259-8.062 3.259-3.228 0-5.896-1.087-8.007-3.259-2.114-2.174-3.169-4.919-3.169-8.235 0-3.233 1.048-5.919 3.145-8.067 2.098-2.148 4.72-3.221 7.869-3.221 3.295 0 6.027 1.073 8.195 3.221 2.167 2.148 3.25 4.856 3.25 8.131 0 3.273-1.074 5.997-3.221 8.171"/>
  </g>
</svg>
