<?xml version="1.0" encoding="UTF-8" standalone="no"?>
<svg
   xmlns:dc="http://purl.org/dc/elements/1.1/"
   xmlns:cc="http://creativecommons.org/ns#"
   xmlns:rdf="http://www.w3.org/1999/02/22-rdf-syntax-ns#"
   xmlns:svg="http://www.w3.org/2000/svg"
   xmlns="http://www.w3.org/2000/svg"
   xmlns:sodipodi="http://sodipodi.sourceforge.net/DTD/sodipodi-0.dtd"
   xmlns:inkscape="http://www.inkscape.org/namespaces/inkscape"
   version="1.1"
   id="svg2"
   xml:space="preserve"
   width="480.46399"
   height="187.42133"
   viewBox="0 0 480.46399 187.42133"
   sodipodi:docname="logo gris.ai"><metadata
     id="metadata8"><rdf:RDF><cc:Work
         rdf:about=""><dc:format>image/svg+xml</dc:format><dc:type
           rdf:resource="http://purl.org/dc/dcmitype/StillImage" /></cc:Work></rdf:RDF></metadata><defs
     id="defs6"><clipPath
       clipPathUnits="userSpaceOnUse"
       id="clipPath18"><path
         d="M 0,140.566 H 360.348 V 0 H 0 Z"
         id="path16" /></clipPath></defs><sodipodi:namedview
     pagecolor="#ffffff"
     bordercolor="#666666"
     borderopacity="1"
     objecttolerance="10"
     gridtolerance="10"
     guidetolerance="10"
     inkscape:pageopacity="0"
     inkscape:pageshadow="2"
     inkscape:window-width="640"
     inkscape:window-height="480"
     id="namedview4" /><g
     id="g10"
     inkscape:groupmode="layer"
     inkscape:label="logo gris"
     transform="matrix(1.3333333,0,0,-1.3333333,0,187.42133)"><g
       id="g12"><g
         id="g14"
         clip-path="url(#clipPath18)"><g
           id="g20"
           transform="translate(298.2085,21.3296)"><path
             d="m 0,0 c 14.771,0.994 27.249,6.468 37.299,16.422 11.165,11.061 16.751,25.031 16.751,41.9 0,15.381 -4.39,28.573 -13.772,39.056 -0.272,0.303 -0.739,0.532 -1.177,0.532 -0.843,0 -1.529,-0.684 -1.529,-1.53 0,-0.146 0.018,-0.286 0.057,-0.422 C 44.547,77.36 40.521,58.668 28.308,53.723 19.753,50.26 9.391,54.438 1.209,63.5 c -0.615,0.614 -1.66,0.632 -2.275,0.02 -0.558,-0.558 -0.608,-1.429 -0.156,-2.042 0,0 0.167,-0.195 0.17,-0.199 C 6.016,53.305 9.624,43.426 9.624,31.824 9.624,20.244 6.066,10.516 -1.045,2.639 -1.34,2.36 -1.527,1.965 -1.527,1.527 -1.527,0.684 -0.844,0 0,0"
             style="fill:#1e130f;fill-opacity:1;fill-rule:nonzero;stroke:none"
             id="path22" /></g><g
           id="g24"
           transform="translate(162.2056,59.0913)"><path
             d="m 0,0 c -1.442,-0.707 -4.656,-1.059 -8.537,-1.059 h -2.912 v 17.96 h 2.299 c 3.754,0 6.992,-0.298 8.615,-0.895 C 1.086,15.409 2.343,14.381 3.235,12.93 4.13,11.476 4.577,9.853 4.577,8.063 4.577,6.242 4.177,4.619 3.372,3.195 2.566,1.77 1.442,0.706 0,0 m 21.548,-32.58 c -1.235,1.787 -2.874,4.45 -4.919,7.996 -3.25,5.633 -5.771,9.577 -7.564,11.843 -1.793,2.259 -3.628,4.048 -5.504,5.362 3.193,1.308 6.194,3.287 7.902,5.936 1.71,2.656 2.564,5.795 2.564,9.429 0,5.332 -1.742,9.563 -5.232,12.689 -3.486,3.126 -8.753,4.692 -14.69,4.692 h -14.708 v -62.416 h 9.154 v 27.165 h 0.653 c 2.748,0 4.704,-0.335 5.87,-1.005 1.162,-0.67 2.468,-1.761 3.912,-3.281 1.445,-1.511 3.034,-3.551 4.767,-6.117 l 2.814,-4.873 2.602,-4.559 1.637,-2.457 c 0.25,-0.359 0.419,-0.611 0.504,-0.762 l 2.56,-4.111 h 10.787 z"
             style="fill:#1e130f;fill-opacity:1;fill-rule:nonzero;stroke:none"
             id="path26" /></g><g
           id="g28"
           transform="translate(194.4819,84.4585)"><path
             d="M 0,0 H 31.309 V -8.81 H 9.271 V -24.548 H 31.309 V -33.33 H 9.271 V -62.416 H 0 Z"
             style="fill:#1e130f;fill-opacity:1;fill-rule:nonzero;stroke:none"
             id="path30" /></g><g
           id="g32"
           transform="translate(116.0269,36.3276)"><path
             d="m 0,0 c -4.208,-4.572 -9.458,-6.861 -15.752,-6.861 -6.264,0 -11.482,2.246 -15.649,6.727 -4.169,4.484 -6.252,10.103 -6.252,16.857 0,6.961 2.078,12.684 6.232,17.169 4.155,4.481 9.459,6.723 15.912,6.723 6.131,0 11.301,-2.266 15.509,-6.79 C 4.209,29.294 6.314,23.714 6.314,17.079 6.314,10.266 4.209,4.574 0,0 m 6.819,39.867 c -6.033,6.104 -13.586,9.158 -22.657,9.158 -9.072,0 -16.575,-3.054 -22.509,-9.158 -5.936,-6.109 -8.903,-13.825 -8.903,-23.144 0,-9.088 2.946,-16.645 8.84,-22.678 5.892,-6.031 13.263,-9.046 22.111,-9.046 9.267,0 16.944,3.015 23.035,9.046 6.089,6.033 9.134,13.654 9.134,22.852 0,9.21 -3.017,16.861 -9.051,22.97"
             style="fill:#1e130f;fill-opacity:1;fill-rule:nonzero;stroke:none"
             id="path34" /></g><g
           id="g36"
           transform="translate(281.4731,36.3276)"><path
             d="m 0,0 c -4.21,-4.572 -9.46,-6.861 -15.753,-6.861 -6.264,0 -11.481,2.246 -15.65,6.727 -4.168,4.484 -6.25,10.103 -6.25,16.857 0,6.961 2.076,12.684 6.23,17.169 4.156,4.481 9.46,6.723 15.913,6.723 6.13,0 11.3,-2.266 15.51,-6.79 C 4.208,29.294 6.312,23.714 6.312,17.079 6.312,10.266 4.208,4.574 0,0 m 6.817,39.867 c -6.034,6.104 -13.586,9.158 -22.657,9.158 -9.071,0 -16.575,-3.054 -22.509,-9.158 -5.936,-6.109 -8.903,-13.825 -8.903,-23.144 0,-9.088 2.946,-16.645 8.841,-22.678 5.892,-6.031 13.264,-9.046 22.109,-9.046 9.268,0 16.946,3.015 23.035,9.046 6.09,6.033 9.135,13.654 9.135,22.852 0,9.21 -3.017,16.861 -9.051,22.97"
             style="fill:#1e130f;fill-opacity:1;fill-rule:nonzero;stroke:none"
             id="path38" /></g><g
           id="g40"
           transform="translate(60.1743,36.3276)"><path
             d="m 0,0 c -4.785,-4.572 -10.75,-6.861 -17.901,-6.861 -7.12,0 -13.048,2.246 -17.785,6.727 -4.737,4.484 -7.104,10.103 -7.104,16.857 0,6.961 2.36,12.684 7.082,17.169 4.722,4.481 10.747,6.723 18.083,6.723 6.966,0 12.84,-2.266 17.625,-6.79 0.053,-0.053 0.097,-0.101 0.15,-0.152 v 0.518 8.709 0.899 c -7.537,3.425 -14.386,5.139 -20.549,5.139 -8.937,0 -16.452,-3.099 -22.546,-9.297 -6.094,-6.195 -9.14,-13.834 -9.14,-22.918 0,-5.719 1.331,-11.036 3.992,-15.948 2.662,-4.92 6.275,-8.777 10.842,-11.577 4.565,-2.8 10.127,-4.199 16.683,-4.199 8.069,0 15.185,1.785 21.348,5.362 v 0.887 8.944 0.561 C 0.756,0.737 0.73,0.725 0.704,0.709 0.475,0.473 0.241,0.23 0,0"
             style="fill:#1e130f;fill-opacity:1;fill-rule:nonzero;stroke:none"
             id="path42" /></g><g
           id="g44"
           transform="translate(328.7251,98.5415)"><path
             d="m 0,0 c -2.147,2.172 -4.835,3.258 -8.062,3.258 -3.228,0 -5.896,-1.086 -8.007,-3.258 -2.114,-2.174 -3.169,-4.919 -3.169,-8.235 0,-3.233 1.048,-5.919 3.145,-8.067 2.098,-2.148 4.72,-3.221 7.869,-3.221 3.295,0 6.027,1.073 8.195,3.221 2.167,2.148 3.25,4.856 3.25,8.13 C 3.221,-4.898 2.147,-2.174 0,0"
             style="fill:#1e130f;fill-opacity:1;fill-rule:nonzero;stroke:none"
             id="path46" /></g></g></g></g></svg>
