<svg xmlns="http://www.w3.org/2000/svg" width="175.5" height="108.7" display="block">
  <g fill-rule="evenodd">
    <path fill="#f3c20b" d="M88.1 18.7c-2.6.4-3.8.8-4.7 1.3-.8.5-1 .5-1.9.4-1.9-.1-7.6 2-7.6 2.8 0 .3-1 .7-1.6.7-1.5 0-5.5 3-6.8 5-.2.3-.6.6-1 .8-1.8.8-5.5 4.9-5.5 6 0 .2-.3.8-.8 1.2-1.4 1.6-3 4.7-3.4 7-.1.6-.4 1.6-.7 2.2-1 2.6-.7 4.3.7 4.8 1.1.4 18.6.3 19.4 0 .2-.2.4-.4.4-.6l1-1.6 1.2-2c.2-.7.5-1.2 1.3-2a9 9 0 0 0 1.4-1.6 18.8 18.8 0 0 1 11.8-5.2 24 24 0 0 1 7.7.8l2.4.6c.5 0 .9.2 1 .4.3.5 2.2 1.7 3 2 .6 0 .8.2 1.1 1l1.5 1.7c.8.8 1 1 1.2 1.7.2 1 .6 1.9 1.2 2.5.2.2.5.6.6 1 .8 1.4 1.1 1.5 11 1.5 8.7 0 9.5 0 10.2-.7.9-.9.6-3.4-.5-5-.5-.9-.7-1.2-.7-1.8 0-2.1-1.4-5-3.2-7a5.7 5.7 0 0 1-1.3-1.5c0-.6-1.2-2.5-2.6-3.8a7.5 7.5 0 0 0-3-2.2c-.5-.1-.8-.4-1-.8-.5-1.4-5-4.4-6.5-4.4-.8 0-1.3-.3-2-1-1-1.3-5.7-3-7.6-2.8-1 .1-1.1 0-1.6-.3-1.3-1-3-1.2-9.3-1l-2.3-.1h-2.5"/>
    <path fill="#0e1b8d" d="M174.9.1a48 48 0 0 1-4.3 3.7 84.2 84.2 0 0 1-2.9 2.6L165.8 8a137.9 137.9 0 0 1-5.2 4.6 165.5 165.5 0 0 0-6.5 5.8 103.1 103.1 0 0 0-6.5 5.7c-1 .9-2 1.7-2 1.9-.8 1-2.7.7-4.6-.8l-1.7-1-1.6-.8a75.6 75.6 0 0 0-17.3-6.9c-.4 0-.9-.2-1.1-.4l-1.5-.4a39.6 39.6 0 0 0-4.3-1c-.8 0-1.6-.3-1.9-.4-.3-.2-1-.4-1.8-.4s-1.8-.3-2.3-.5l-1.9-.4-2.7-.4a47.8 47.8 0 0 0-8.5-1A186.8 186.8 0 0 0 62 12a25 25 0 0 0-4.5 1c-.3 0-1 0-1.5.2l-2.3.6a49.3 49.3 0 0 0-9.2 2.7l-1.2.5-1 .5a6 6 0 0 0-1 .4c-.3 0-.7.3-1 .4-.3 0-1 .3-1.4.6l-1 .4c-.1 0-.3 0-.4.2-.1.2-.7.4-1.2.5l-1.1.5-3.2 1.7a18.5 18.5 0 0 0-2.7 1.6l-1.2.6-1 .7-.5.4c-.2 0-2 1.2-2.3 1.5-.1.2-.3.3-.4.3-.1 0-.4.1-.5.3l-.8.5-.9.6-2.8 2.5a43.5 43.5 0 0 0-4.6 4c-.2 0-1.7 1.6-3.6 3.7a44 44 0 0 0-4.9 5.5c-.1.5-1.2 2.1-1.6 2.4l-.2.4-.5.8A18.9 18.9 0 0 0 1.6 51l-.8 1.2c-1 1.6-1 3 0 4.2l.5 1c0 .2.2.6.4.7l.3.5.5.8.5.7c0 .2.1.3.3.5l.6.8.9 1.3.7 1c0 .2.3.5.6.9a53.2 53.2 0 0 1 2.6 3.3 74.3 74.3 0 0 1 3.3 3.7l2 1.8a171.7 171.7 0 0 0 6.4 5.6l1.1.9 1.3.8 1.8 1.3c.5.4 1.2.9 1.6 1l1.8 1.1a36.2 36.2 0 0 0 4.8 3l2 1a31.8 31.8 0 0 0 3.8 1.6l.8.4c.4 0 .9.3 1.1.4.5.3 2 1 3.5 1.4.6.2 1.2.4 1.4.6l1.2.4c.4 0 1 .3 1.1.4l1.5.4c.6.1 1.3.3 1.6.5l1.7.4 1.7.5 1.7.4c.8 0 1.8.2 2.3.4.5.2 1.7.4 2.7.5a191.3 191.3 0 0 0 37.5 0c1.4 0 2.9-.3 3.3-.5l3.2-.4c1.4-.1 2.6-.4 3-.5a4 4 0 0 1 1.3-.3l1.7-.2a44.8 44.8 0 0 1 5.4-1.3 9 9 0 0 1 1.6-.4l1.4-.4 1.4-.5a39.7 39.7 0 0 0 4-1.2c.2-.3 1-.5 3-1.2l1.5-.6 1.5-.6 1-.4c0-.3 1.9-1.1 2.5-1.3.4 0 .8-.2 1-.4l1.2-.6 1-.5.8-.5c.8-.3 2-1 3-1.7 1.6-1.1 2.6-1.6 3-1.4a58.8 58.8 0 0 1 7.6 6.5 52.5 52.5 0 0 0 4.4 3.9 134 134 0 0 1 5.5 4.9 449 449 0 0 1 7.7 6.9 71 71 0 0 0 5.8 4.7c.2-.5.2-6.7 0-7.2 0-.2-.7-1-1.4-1.6a11 11 0 0 1-1.7-2 49.9 49.9 0 0 1-7.4-11.3 8 8 0 0 0-.6-1l-.2-.6-.6-1.4-1.3-3c0-.4-.4-1-.6-1.5l-.4-1-.3-1a7 7 0 0 1-.5-1.5l-.5-1.6a7 7 0 0 1-.4-1.6l-.4-1.3-.5-2c0-1-.3-2-.4-2.3-.2-.4-.3-1.5-.4-2.4a77.8 77.8 0 0 1 0-19 33.2 33.2 0 0 1 .8-5.5c0-.6.3-1.4.4-1.8l.5-1.5c0-.5.2-1 .4-1.4l.4-1.3a344 344 0 0 0 2.8-7.8 44.7 44.7 0 0 1 5.4-9.6 172.8 172.8 0 0 0 2.6-3.3c1.9-2.4 2.6-3.2 3.7-4.2.9-.7 1-1.4.8-5.2 0-3.4-.2-3.8-.5-3.4M96.8 15.4a44.2 44.2 0 0 1 18.9 5.3c.3 0 2 1 2.3 1.4l.4.3.7.4 1 .5 2.4 2a68.8 68.8 0 0 0 3.4 2.8l1 1.2c1.1 1.2 1.2 1.2 2 2.3a28.4 28.4 0 0 0 1.5 2l.6 1a37 37 0 0 1 5 12.2 42.8 42.8 0 0 1-.3 15c-.4 1.9-1 3.5-1.8 5.3l-1 2.1a25.4 25.4 0 0 1-2.4 4c0 .2-.8 1.4-1.5 2.2a155 155 0 0 0-3.2 3.7l-.9.8-.9.9-1.2 1.2a61 61 0 0 0-4 2.8l-.7.4-1 .5a29.9 29.9 0 0 1-6 3l-1.3.5-1.5.5c-.5 0-1.1.3-1.3.4a1123.5 1123.5 0 0 0-3.8 1c-2.4.4-3.3.5-6.3.7l-3.9.1a103.4 103.4 0 0 1-9.3-.8c-2.1-.3-3.4-.7-4.1-1-.4-.2-1-.4-1.5-.4l-1.4-.5a3 3 0 0 0-1-.3l-.9-.4-1.1-.5c-.6-.2-3-1.3-3.8-1.8l-1.4-.8-1-.7-.4-.3c-.3 0-1-.5-1.5-1l-1.2-.8-.5-.4-1.2-1a43.4 43.4 0 0 1-9.4-11.8l-1-2.3a13 13 0 0 1-.9-2.1c0-.4-.2-1-.4-1.2l-.4-1.7c0-.6-.3-1.4-.4-1.8a43.2 43.2 0 0 1 .4-15.6l.5-1.6.4-1.1.4-.9.5-1.1.5-1.2.5-.8a36.5 36.5 0 0 1 15.8-16.5 36.9 36.9 0 0 1 7-3.3l1.7-.6 1.8-.6a52 52 0 0 1 17-1.7m-75.6 23c2.9.6 3.8 3.9 1.3 5l-1 .4c-1 .7-3.3-.5-3.7-2-.4-1.2.6-2.9 2-3.3l.4-.2 1 .2"/>
    <path fill="#50566d" d="M-7.5-21c-1.2.1-2 .3-2.7.6a6 6 0 0 1-1 .5l-.8.4-1.2.9a10.1 10.1 0 0 0-3.6 6c-.3 1.8-.3 132 0 133.8a9.8 9.8 0 0 0 5.6 7.3c.4.1.7.3.9.5.3.2 2 .7 2.8.7.3 0 .7 0 .9.2l.7.2c3 0 188.4 0 188.6-.2l1.6-.3c3.6-.5 7-3.2 8.4-6.8l.4-1.2V-13.2l-.3-.7-.5-1.2c-.2-.5-1.1-1.9-1.3-2l-1.5-1.3A8.3 8.3 0 0 0 184-21c-2.6-.3-189.2-.3-191.6 0m190.5.8c1.3 0 1.8.1 2.4.5l1.1.4c.2 0 .8.4 1.4.9l1.1.8c.5 0 2.4 3 2.7 4.2.2.8.4 128.2.2 133.5-.1 3.3-2.6 6.9-5.2 7.7l-1.3.6-1 .4H89c-99.7.1-97.1.1-98.5-.6l-.8-.3-1-.5-.7-.5-2.1-2-.5-1c-.3-.4-.6-1-.7-1.5a7 7 0 0 0-.4-1l-.1-67v-66.8l.4-1.1c.9-2.7 3-5.1 5.2-5.8l1.3-.5c.5-.3 1.1-.4 2.8-.5H183M-5.7-17.7l-.8.3c-1 .1-1.9.4-2 .7l-.6.4c-.2 0-.4.3-.5.5l-.3.3c-.4 0-1.2 1-1.8 2l-.5 1V121l.5 1c1 2 2.5 3.4 4.7 4.1l1.3.5h187.9l1-.5c.6-.2 1.4-.5 1.7-.8l.7-.4c.2 0 1.4-1.2 1.9-1.7l.7-1.5.4-1.2V-12l-.5-1.1c-.8-1.9-3.1-4-5-4.3a3 3 0 0 1-1-.4C182-18-5.6-18-5.7-17.8m187.4 1c1.7.1 2 .2 2.6.7l.8.5.4.4.4.4.7 1.1.7 1.2V121l-.5 1a6.7 6.7 0 0 1-4.6 3.3l-1.4.4H-4.4l-1.5-.4c-2-.5-4.3-2-4.7-3.3-.7-1.8-.7 1-.7-68v-65.4l.4-1.3c.2-.7.5-1.4.7-1.4l.2-.3c0-.3 1-1.3 2-1.8.8-.6 1.3-.7 2.7-.7l1.7-.1c.8-.3 183-.1 185.3 0M174.3 0a226.2 226.2 0 0 0-5.5 4.9 3152 3152 0 0 1-23 20.5c-1.5 1.4-2.5 1.3-4.6-.4l-2.7-1.5-2.5-1.3a49.8 49.8 0 0 0-7.8-3.4 352.9 352.9 0 0 1-9.8-3.2c-.5 0-1.6-.2-2.4-.5l-2-.5-2-.5-2-.5-2.3-.4a75.1 75.1 0 0 0-10.3-1.7 171.5 171.5 0 0 0-32.6-.2 106.6 106.6 0 0 0-33.3 10.8 49.8 49.8 0 0 0-8.6 5.4 34.3 34.3 0 0 0-4.8 3.8 46 46 0 0 0-4 3.6A78.5 78.5 0 0 0 1.4 50.6C-1 54.3-1 54.5.2 56.2l.8 1.4 1 1.7a82.3 82.3 0 0 1 2.8 4 144.7 144.7 0 0 1 2.4 3.2A83.4 83.4 0 0 0 47 93.5l.9.3 1 .3A76 76 0 0 0 63 97c.6.2 1.7.3 6.4.8a206.4 206.4 0 0 0 32.1-1.4 133 133 0 0 0 16-3.1l3.1-1a52.8 52.8 0 0 0 6.2-2.1 61.4 61.4 0 0 0 14.7-7.1c2.4-1.6 2.7-1.6 3.9-.4a29 29 0 0 0 2.6 2.4 194.5 194.5 0 0 0 7.8 6.9 63.9 63.9 0 0 1 4.5 4 55.4 55.4 0 0 0 4.3 3.9 175.1 175.1 0 0 1 9.3 8.3 6 6 0 0 0 1.7 1.2l.4.1v-3c-.2-5.8-.1-5.4-1.7-6.9a26.7 26.7 0 0 1-4.3-5.3 34.6 34.6 0 0 1-4.2-6.7 55.5 55.5 0 0 1-5-11.3 72 72 0 0 1 5.5-56.4l1-1.6c1-2 4.4-6.1 7-8.7l1.6-1.6V5v-4l.2-1.4-.5-.2c-.5-.3-.5-.2-1.3.5m1.1 3.5c.2 3.8 0 4.5-.8 5.2-1 1-1.8 1.8-3.8 4.2a172.8 172.8 0 0 1-2.5 3.3l-.6.9-.8 1.1-1 1.7a44.7 44.7 0 0 0-5.1 11.5c-.4.9-.7 1.8-.7 2.2 0 .4-.3 1-.4 1.3-.2.3-.4 1-.4 1.4 0 .5-.3 1.1-.5 1.5l-.4 1.8c0 .7-.2 1.5-.3 2l-.6 3.5-.5 4.3a77.8 77.8 0 0 0 2.7 24.3l.5 1.6c0 .5.3 1.2.5 1.6l.3.9.4 1 .6 1.5 1.3 3 .6 1.4c0 .2 0 .4.2.6l.6 1 1.1 2 1 1.8a49.9 49.9 0 0 0 8.4 11 42 42 0 0 1-.2 7.5l-1.3-1.2a71 71 0 0 1-7.2-6.4A449 449 0 0 0 153 89.1a52.5 52.5 0 0 1-4.3-3.8l-4.5-3.8c-.5-.2-1.5.3-3 1.4a20.9 20.9 0 0 1-4 2.2l-1 .5-1 .6c-.3.2-.7.4-1 .4-.7.2-2.5 1-2.7 1.3l-.9.4-1.5.6-1.4.6a13.3 13.3 0 0 0-3.6 1.4 39.7 39.7 0 0 1-4.9 1.5l-1.4.4a9 9 0 0 0-1.6.4l-2.4.6a44.8 44.8 0 0 0-4.7 1 4 4 0 0 0-1.3.2c-.4.1-1.6.4-3 .5-1.3 0-2.7.3-3.2.4-.4.2-2 .4-3.3.6l-3.5.4a191.3 191.3 0 0 1-34-.5c-1-.1-2.2-.3-2.7-.5s-1.5-.4-2.3-.4a7 7 0 0 1-1.7-.4l-1.7-.5a13 13 0 0 1-1.7-.4c-.3-.2-1-.4-1.6-.5-.6 0-1.3-.3-1.5-.4l-1.1-.4-1.2-.4c-.2-.2-.8-.4-1.4-.6-1.5-.5-3-1-3.5-1.4l-1-.4c-.5-.1-.8-.3-.9-.4l-.7-.3a31.8 31.8 0 0 1-5.1-2.4l-1.6-.9-1.3-.8-2-1.2c-.5-.4-1.3-.9-1.7-1L24.6 82l-1.8-1.3-1.3-.8-1-1a166 166 0 0 1-8.5-7.3l-1.5-1.7a74.3 74.3 0 0 0-3-3.6 53.2 53.2 0 0 0-2.7-3.6l-1-1.3c-.1-.4-.4-.7-.5-.8-.2-.2-.3-.3-.3-.5l-.5-.7-.5-.8-.3-.5c-.2-.1-.4-.5-.4-.7 0-.3-.3-.7-.5-1-1-1.2-1-2.6 0-4.2l.8-1.2A106.5 106.5 0 0 0 4 46.9c.4-.3 1.5-2 1.6-2.4l.3-.3s.6-.5 1-1.2a44 44 0 0 1 3.6-4 36.4 36.4 0 0 1 4.4-4.4c.8-.8 2.6-2.4 3.8-3.3a58.6 58.6 0 0 0 3.7-3l.8-.6c.1-.2.4-.3.5-.3l.4-.3c.2-.3 2.1-1.5 2.3-1.5l.5-.4 1-.7 1.2-.6.8-.6 1.9-1c2.1-1 3-1.5 3.2-1.7l1.1-.5c.5-.1 1-.3 1.2-.5l.4-.2 1-.4c.4-.3 1-.5 1.4-.6l1-.4a6 6 0 0 1 1-.4l1-.5 1.2-.5c.6-.1 1.2-.3 1.4-.5l1.2-.4 1.4-.4a49.3 49.3 0 0 1 9-2.2l1.5-.4 3-.6a186.8 186.8 0 0 1 41 .6l2.7.4 2 .4c.4.2 1.4.4 2.2.5.7 0 1.5.2 1.8.4l2 .5a39.6 39.6 0 0 1 4.2 1l1.5.3c.2.2.7.4 1 .4l1 .3 1.6.6a39 39 0 0 1 5.6 1.8c.3 0 1 .3 1.5.6l1.2.5.4.1.7.4a75.6 75.6 0 0 1 8.7 4.4c1.9 1.5 3.8 1.8 4.6.8 0-.2 1-1 2-1.9a149.4 149.4 0 0 0 8.8-7.7 165.5 165.5 0 0 1 9.4-8.4l2-1.7a188.7 188.7 0 0 1 7-6.3c.4-.4.5 0 .6 3.4m-86 11.9A36.2 36.2 0 0 0 78 17.6l-1.7.6-.3.3-1 .3a36.9 36.9 0 0 0-13.1 8.1c-.5.6-1 1-1.1 1l-.3.3c0 .2-.2.4-.3.4-.2 0-.8.8-1.5 1.5l-1.2 1.5c-.1 0-.3.2-.5.6l-.7 1c-.2.1-.3.3-.3.4 0 .2-.2.3-.3.4l-.5.7a292.2 292.2 0 0 1-2.7 5.3 5 5 0 0 1-.5 1.1l-.4.9-.4 1.1-.5 1.6-.5 2A43.2 43.2 0 0 0 51.4 65l.9 2.1 1 2.3a32 32 0 0 0 1.7 3 43.4 43.4 0 0 0 13.5 13l1.4.8a31.6 31.6 0 0 0 5 2.3l.9.4.9.3 1.4.5c.5 0 1.1.2 1.5.4.7.3 2 .7 4.1 1l1.6.4a103.4 103.4 0 0 0 11.6.3 33.3 33.3 0 0 0 11.4-2.1l1.5-.5 1.3-.5c.5 0 1-.3 1.1-.4l.4-.2a29.9 29.9 0 0 0 5.5-2.9c.3 0 .6-.3.7-.4l1.2-.9a25 25 0 0 0 5-4l.8-.8 1.1-1.3a48 48 0 0 0 4.4-5.7l.7-1.3.9-1.6 1-2.1c.8-1.8 1.4-3.4 1.8-5.3l.4-1.6a42.8 42.8 0 0 0-.4-14.8 30.8 30.8 0 0 0-4.7-10.7l-.6-1.1-.5-.6-1-1.4-2-2.3a7 7 0 0 1-1-1.2s-.3-.4-.7-.6a68.8 68.8 0 0 1-5.2-4.2l-1-.5a2 2 0 0 0-.6-.4l-.4-.3c-.2-.3-2-1.4-2.3-1.4l-2-.9-2-1c-.2 0-.7-.1-1.3-.4-.5-.3-1-.5-1.3-.5l-.9-.3a44.2 44.2 0 0 0-18.8-2.2m9.5.6l2.5.2 1.5.3a79 79 0 0 0 3.8 1l1.7.5a39 39 0 0 1 7.3 3.1l2 1.1 1.1.9a15 15 0 0 1 3 2.1l2.6 2.2 1.2 1 1.4 1.5a25.1 25.1 0 0 1 3 3.8 34.5 34.5 0 0 1-6.2 46.9c-.6.7-2.5 2.2-3.6 2.8l-.7.4c0 .2-1.1 1-2 1.4a50.9 50.9 0 0 0-2.6 1.5l-1.9.8a33 33 0 0 1-9.2 3l-2.6.6a90.7 90.7 0 0 1-17.8-.4c-.7 0-1.7-.3-2.3-.5l-2.2-.7a20.3 20.3 0 0 1-4.6-1.6 34 34 0 0 1-7.5-4l-4.2-3.1a43.7 43.7 0 0 1-11-16.3l-.4-1.2-.3-1.4-.5-2.2a34.3 34.3 0 0 1 8-28.8 36.5 36.5 0 0 1 3.9-4 38.6 38.6 0 0 1 14-8.3A39.6 39.6 0 0 1 87.2 16c1.9-.4 8.6-.3 11.8 0M19.6 38.5c-1.3.4-2.3 2-2 3.4.5 1.4 2.7 2.6 3.9 2 .1-.2.6-.4 1-.5 1.6-.8 1.8-3.2.2-4.3-.5-.3-2.6-1-2.6-.8l-.5.2m3 .8c1.5 1.3 1.2 3.2-.7 4-2.7 1.3-5.4-1.7-3.3-3.8a3 3 0 0 1 4-.2"/>
    <path fill="#018ede" d="M86.1 58l-.6.5c-.1.4-.5.4-12.7.4-12.5 0-15.3 0-17.2.3l-1 .1v.8c.2 3 .2 3.1.6 3.6.3.3.5.7.6 1.3l.2 1 .4.8c.2.7 1 1.7 1.4 1.7l.8.4 1 .4.3.1-.3.1-1.2.5c0 .3 1 2 1.2 2.2.1.1.3.3.3.5 0 .3 1.1 1.5 1.4 1.5l1 1c.4.7 1.2 1.7 2.1 2.4a33 33 0 0 1 1.7 1.5 8 8 0 0 0 3 1c.7 0 .7 0 .4.5v.5l.2.5c0 .3.3.5 2 1.3.4.2.9.4 1 .6l1.7.8 2 .9a31.2 31.2 0 0 0 5 1.8l1.6.4c.8 0 1.8.3 2.3.4a41 41 0 0 0 28.3-4.4c2.3-1.1 2.6-1.4 2.8-2.3.2-.7.3-.8.9-1l1-.5.8-.2c1 0 4.8-3.2 4.8-4 0-.2 0-.4.2-.5.1 0 .3-.1.3-.3l.8-.9 1.1-1c.1-.3.3-.5.4-.5 0 0 .4-.4.6-1l.5-1-.4-.3-.8-.4c-.3 0 1.5-1 1.9-1 .7 0 1.7-2 1.6-3.5 0-.7 0-.8.6-1.3.8-.6.9-1.2.2-1.8-.5-.5-.5-1 .1-1.5.7-.7.7-1-.1-1l-1.3-.3c-.4-.1-5.2-.2-14.6-.2h-14l-.5-.5c-.3-.2-.8-.5-1.1-.5-1-.3-12.8-.2-13.3.1"/>
  </g>
</svg>
