<svg xmlns="http://www.w3.org/2000/svg" width="274.8" height="280.7" display="block">
  <g fill-rule="evenodd">
    <path fill="#e74133" d="M124.9.2c-.3 0-.5.3-.6.4-.2.3-.8.4-3.2.4-3 0-3 0-3 .5.1.5.1.5-2.2.5-2.2 0-2.9.1-2.9.8 0 0-.7.2-1.5.2-1 0-1.5 0-1.7.3-.2.2-.3.2-.4 0-.1-.1-.2 0-.3.2-.1.4-3.5.7-4.8.5-.4-.1-1 .2-1.2.6-.1.3-.3.4-1 .4-.6 0-1 0-1.4.5l-.5.3c0-.1.2-.4.5-.5.4-.3.4-.4 0-.3a1 1 0 0 0-.6.5c-.1.3-.4.4-1.3.5-.8 0-1.2.2-1.4.5-.3.3-.6.5-1.2.5-.7 0-1.9.4-2.1.8l-1.2.2c-1.4 0-1.9.1-1.9.6 0 .2-.1.4-.3.4-.2 0-.3-.1-.2-.2v-.2c-.2 0-.3 0-.3.2 0 0-.2.2-.5.2-.4 0-.6.2-.7.5 0 .4-.2.5-1 .5s-1 .1-1 .5-1.7.7-2.9.5c-.4 0-.9.2-1 .6 0 .2-.3.4-.5.4s-.4 0-.5.2l-.5.2c-.2 0-.2-.1.1-.2l.4-.2h-.4c-.2 0-.4.2-.4.3v.5l-.7.2c-.5 0-.6 0-.6.5 0 .3-.1.5-.3.5-.2 0-.2-.2-.2-.4.1-.3.1-.3-.2 0-.1.2-.5.4-.7.4-.4 0-.5.2-.5.4 0 .6 0 .5-1.6.6-1.3 0-1.4.1-1.4.5s0 .5-.7.5-1.4.4-1.4.8c0 0-.2.2-.5.2-.4 0-.5 0-.5.5 0 .4 0 .4-1 .5-.8 0-1 .1-1 .5 0 .3-.2.5-.3.5-.2 0-.2-.2-.2-.4.1-.3 0-.2-.2 0-.2.3-.5.5-.7.5-.2 0-.4 0-.5.4 0 .3-.3.5-.5.5-.3 0-.6.1-.8.3-.3.3-.4.3-.4 0l-.3.3c-.1.3-.4.5-.6.5-.3 0-.4 0-.4.4s0 .5-.6.5c-1.3 0-1.4 0-1.4.5 0 .2-.2.4-.5.5-.3 0-.5.2-.6.5 0 .3-.2.5-.5.5-.4 0-.5 0-.5.5 0 .4-.1.5-.6.5-1.4 0-1.7.1-2 .5a2 2 0 0 1-.8.6c-.3 0-.4.2-.2.3.3.1-.1.5-.8.7-.4 0-.5.2-.5.5s0 .4-.5.4-.6 0-.6.5c0 .4-.1.4-.8.5-.7 0-1 .2-1.1.6-.2.3-.4.4-.7.4-.4 0-.4 0-.3.4 0 .3 0 .4-.4.6-.3 0-.6.3-.6.6l-.3.4h-.6c-.2 0-.6.3-.8.5a2 2 0 0 1-.8.5 1 1 0 0 0-.5.6c0 .2-.2.4-.3.4-.4 0-.8.6-.8 1.3 0 .6 0 .7-.6.7-1.3 0-1.3 0-1.3.5 0 .4 0 .5-.8.5l-.3.1c.1.8 0 1-.4 1s-.5 0-.5.5c0 .4-.1.5-.5.5s-.5 0-.5.4c0 .3 0 .5-.3.5-1.3 0-1.7.4-1.8 1.9l-.4.2c-.4 0-.5 0-.5.4 0 .3 0 .5-.2.5-1.6.1-1.8.4-1.9 2.2 0 .7 0 .8-.5.8-.4 0-.5 0-.5.5 0 .4-.1.5-.5.5-1.3 0-1.4 0-1.4.5 0 .3 0 .5-.2.5-.5 0-.9.6-.9 1.3 0 .6-.2.8-.9.7v.1c.2.4-.1.9-.6.9-.4 0-.5 0-.5.4 0 .3-.2.5-.4.7-.3 0-.5.3-.6.6 0 .2-.2.5-.4.6-.3.3-.3.3 0 .2.3 0 .4 0 .4.2s-.2.3-.5.3c-.4 0-.5 0-.5.5 0 .3-.1.5-.4.5-.3 0-.5.2-.6.5 0 .4-.4.7-.7.6-.1 0-.2.1-.3.4 0 .6 0 .7-.5.7-.3 0-.4.3-.5 1 0 .5-.1.7-.4.8-.2 0-.5.3-.5.5 0 .3-.3.5-.5.5-.3 0-.5.3-.5.6l-.3.4c-.3 0-.8.6-.7.9 0 .1 0 .3-.2.3-.5 0-.9.8-.9 1.8s-.1 1-.8 1c-.1 0-.2 0-.1.2 0 .4 0 .6-.6.9-.3.1-.4.5-.5 1 0 .7-.3 1.1-.7 1l-.3.8c0 1.2-.1 1.3-.6 1.1-.3 0-.4 0-.4.3.1 1.2 0 1.7-.5 1.7-.4 0-.5 0-.5.5s-.2.6-.6.5c-.3 0-.4 0-.4.3.1 1.3 0 1.9-.4 1.8-.5 0-.5 0-.6 1.4 0 1.4 0 1.5.5 1.5.2 0 .6.1.7.3l1.7 1.3a35.3 35.3 0 0 1 3.4 2.7 179.6 179.6 0 0 1 8.5 6.6 378.7 378.7 0 0 0 9.8 7.6A805.5 805.5 0 0 1 57.2 110a252 252 0 0 1 5 3.7c.3 0 .6.6.6 1.4 0 1.4 1 .4 1-1.1 0-1.4 0-1.5.6-1.4h.4c-.2-1.1 0-2.1.5-2 .3 0 .4-.1.4-.4v-1c0-.2.3-.5.5-.6.3-.1.5-.4.6-.6 0-.4 0-.4-.3 0l-.5.5c-.1 0 0-.3.3-.6.4-.4.5-.7.5-1.4 0-.4 0-.8.2-.8.4 0 .8-.7.8-1.3 0-.6 0-.7.5-.7s.5-.1.5-1 0-1 .5-1c.3-.1.4-.3.5-1 0-.8.1-1 .4-1.1.4 0 .4 0 .2.2-.1.1-.2.3-.1.4.1.2.5-.7.4-1 0-.2 0-.5.4-.8.3-.2.6-.7.6-1 .1-.7.6-1 1-.8 0 0 .1 0 0 0 0-.8.1-2 .4-2 .2 0 .2.2.2.4-.1.2 0 .3 0 .2.2 0 .3-.5.4-.8 0-.4.2-.7.3-.7.4 0 .8-.7.8-1.3 0-.6 0-.7.5-.7.4 0 .5-.1.5-.5 0-.3.1-.5.3-.5 1.2-.1 1.7-.7 1.7-2 0-1 0-1 .5-1 .8 0 2.5-1.8 2.5-2.6 0-.5 0-.6.5-.6.3 0 .4 0 .3-.3 0-.3.7-.8 1-.6.1 0 .2-.1.2-.4 0-.4.1-.5.5-.5s.5-.1.5-.6 0-.6.5-.6c.3 0 .4 0 .4-.4s.1-.5.5-.5.5-.1.5-.5c0-.3 0-.4.3-.4 1.1-.1 1.5-.4 1.7-1.4.1-.6.3-.7.9-.6.1 0 .2-.1.2-.3 0-.5 0-.7.6-.8l.9-.2c.2 0 .4-.3.5-.5 0-.2.2-.4.3-.4.2 0 .4-.3.5-.5.1-.4.3-.5.7-.5.3 0 .4 0 .4-.4s0-.4.5-.4c.4 0 .8-.2 1.2-.6.3-.3.7-.5.9-.5.3 0 .4-.2.4-.4 0-.3.2-.5.5-.5.3-.1.5-.3.6-.6 0-.3.2-.4.5-.4l.7-.3c.2-.3.3-.3.4-.1.1.1.2 0 .3-.2 0-.2.3-.4.5-.4l.9-.5c.3-.3.5-.4.5-.3l-.4.5c-.5.3-.5.3-.1.2.2 0 .5-.2.6-.5l.4-.4c.7-.1 1-.3 1.3-.6l.7-.4c.3 0 .3 0 0-.2-.2-.1-.2-.2.1-.5.4-.3.4-.3.5 0 0 .3 0 .3 0 0 0-.2.3-.3.8-.3.6 0 1.3-.4 1.3-.8l1-.3c.8 0 1-.1 1-.5 0-.2.2-.4.3-.4.2 0 .2.1.2.3-.1.3-.1.3.2 0 .1-.2.5-.3.8-.3.4 0 .5-.1.5-.5 0-.5.6-.7 1.8-.6l.1-.4c0-.5 0-.5 2-.6 1 0 1.6 0 1.4-.2-.3 0-.3-.1 0-.1s.6-.2.6-.3c0-.2.3-.3.4-.3.2 0 .3 0 .2.2v.2c.2 0 .3-.1.3-.2s.6-.3 1.1-.3c.9 0 1 0 1-.5 0-.4 0-.4 1-.4.6 0 1-.1 1.4-.5.3-.3.5-.4.5-.3l-.4.5c-.5.3-.5.3-.1.2.2 0 .5-.2.6-.5.2-.4 1-.6 2.8-.5l.3-.1c-.1-.9-.3-.8 4.9-.8 4.9 0 5.9-.2 5.9-.7 0-.6 8.3-.5 8.8.1.4.5 0 .5 6.5.5 5 0 5 0 5.2.5.2.4.4.5 1.5.5s1.4.2 1.5.4c0 .3 0 .3 0 0 .1-.3.2-.2.6.2.4.3.8.5 1.4.5.6 0 .8 0 1 .4.1.3.4.5.6.5.4 0 .4 0 0-.2l-.5-.5c0-.1.2 0 .5.3.4.3.8.5 1.4.5.7 0 1 0 1.3.4.3.4.6.5 2 .5 1.5.1 1.6.1 1.6.6 0 .4 0 .5 1 .5s1.1 0 1 .8l.5.1c.3 0 .7.3 1 .6.4.4.6.5 2 .5 1.5 0 1.5 0 1.5.5 0 .4.1.5.5.5s.5 0 .5.5c0 .4.1.5.6.5.6 0 1.3.6.8.6-.2 0 0 .1.2.2l.8.6c.3.4.6.5 2 .5.5 0 .6.1.6.6 0 .4.1.5.6.5.4 0 .5 0 .5.4s.1.5.5.4c.2 0 .4.2.4.4 0 .3.4.8.7.8.2 0 .5.2.8.5.3.3.7.5 1 .5.6 0 .7 0 .6.4 0 .4.1.5.5.5s.5 0 .5.5c0 .3.1.5.4.5.3 0 .6.2.8.4.3.3.3.3.2 0 0-.2 0-.3.2-.3s.3.2.3.5c0 .4.1.5.5.5.3 0 .5 0 .5.4 0 .3.3.5.6.5s.4.2.4.6c0 .7 2.7.7 2.8 0 0-.3.2-.5.4-.6.4 0 .4 0 .2.2s-.2.3 0 .3.4-.6.3-1c-.1-.2 0-.4.8-.5.6-.1 1.1-.5 1.1-.9 0-.1.1-.2.3-.2.4 0 .7-.5.8-1.2.2-.7.3-.9.6-.7.4.1 1.3-.4 1.3-.8 0-.2.2-.3.4-.4.2 0 .5-.3.5-.5l.4-.4c.4 0 .7-.5.8-1.1 0-.7 0-.7.8-.8.6-.1 1.1-.5 1.1-.9 0-.1.1-.2.3-.2.2 0 .3-.1.3-.2 0-.2 0-.2-.2-.1-.1 0-.2 0-.2-.2s.2-.3.5-.4c.3 0 .4-.2.5-.6 0-.4.1-.5.5-.5.3 0 .4 0 .4-.4s0-.4.5-.4.6-.1.6-.5c0-.3.1-.5.3-.5.2 0 .2 0 .2.3-.1.2 0 .3 0 .2.2 0 .3-.3.3-.4 0-.2.1-.3.3-.3.4 0 .7-.5.8-1.2.1-.6 0-.6.8-.7.6-.1 1.1-.5 1.1-.9 0-.1.1-.2.3-.2l.4-.3c.1-.1 0-.2-.2 0-.2 0-.3 0-.3-.2s.2-.3.5-.3c.4 0 .5-.1.5-.6s0-.6.4-.6.5 0 .5-.3.2-.5.5-.5c.3-.1.5-.3.6-.6 0-.2.2-.4.3-.4.2 0 .2 0 .2.3-.1.2 0 .3 0 .2.2 0 .3-.3.3-.4 0-.2.1-.3.3-.3l.4-.3c.1-.1 0-.2-.2 0-.2 0-.3 0-.3-.2s.2-.3.5-.4c.2 0 .4-.2.5-.5 0-.2 0-.4.2-.5h.5c.6 0 1.1-.5 1.1-.9 0-.1.1-.2.3-.2l.4-.3c.1-.1 0-.2-.2 0-.2 0-.3 0-.3-.2s.2-.3.5-.3c.4 0 .5-.1.5-.5 0-.3.1-.5.4-.6.3 0 .4 0 .2.2s-.2.3 0 .3.4-.6.3-1c-.1-.2 0-.4.8-.5.6-.1 1.1-.5 1.1-.9 0-.1.1-.2.3-.2.4 0 .7-.5.8-1.2.2-.7.3-.9.6-.7.4.1 1.3-.4 1.3-.8 0-.2.2-.3.4-.4.2 0 .5-.3.5-.5l.4-.4c.4 0 .7-.5.8-1.1 0-.7 0-.7.8-.8.6-.1 1.1-.5 1.1-.9 0-.1.1-.2.3-.2.2 0 .3-.1.3-.2 0-.2 0-.2-.2-.1-.1 0-.2 0-.2-.2s.2-.3.5-.4c.3 0 .4-.2.5-.6 0-.4.1-.5.5-.5.3 0 .4 0 .4-.4s0-.4.5-.4.6-.1.6-.5c0-.3.1-.5.3-.5.2 0 .2 0 .2.3-.1.2 0 .3 0 .2.2 0 .3-.3.3-.4 0-.2.1-.3.3-.3.9 0 1.2-3.2.3-3.5-.2-.1-.5-.4-.5-.6 0-.2-.3-.4-.5-.4l-.4-.3c0-.4-.7-.8-1.3-.8-.6 0-.7-.1-.7-.5s-.1-.5-.5-.5c-.3 0-.5-.1-.5-.3 0-.2.1-.3.3-.2h.2c0-.2-.4-.4-.8-.4-.7-.2-.8-.3-.7-1h-.3c-.4 0-.7-.2-.8-.8 0-.7-.6-1.2-1.3-1.3h-1c-.4 0-.6-.2-.6-.5s-.3-.5-.5-.5c-.4 0-.5-.2-.5-.5 0-.4-.1-.5-.5-.6-.5 0-.6-.1-.5-.5 0-.4 0-.5-.4-.4-.3.1-.5 0-.6-.3-.3-.6-.6-.7-1.3-.7-.4 0-.7-.2-.8-.5a1 1 0 0 0-.6-.5.5.5 0 0 1-.4-.5c0-.4-.1-.4-.9-.5-1 0-1 0-1-.6l-.2-.4c-1.2.1-1.8 0-1.8-.5s-.1-.5-.6-.5c-.4 0-.5-.1-.5-.5 0-.3-.1-.4-.4-.4-.3 0-.5-.1-.5-.3 0-.6-.4-.8-1.3-.8-.7 0-.9-.1-1-.4 0-.3-.3-.5-1-.6-.7-.1-.8-.2-.7-.6 0-.3 0-.4-1-.4s-1 0-1-.6c0-.2-.2-.4-.5-.4s-.6-.3-.8-.7c0-.2-.5-.3-1.8-.3-.6 0-.8-.1-1-.5-.2-.3-.4-.4-1-.5-.8 0-.9-.1-.9-.5l-.1-.5c-1.1.2-1.9 0-1.9-.5 0-.4-.1-.5-.5-.5-.3 0-.5-.2-.6-.4-.1-.4-.6-.7-1-.6-1 .1-1.9 0-2-.5-.1-.2-.2-.3-.3-.2-.1.2-.2.2-.4 0s-.6-.3-1.2-.3c-1 0-1.1-.2-1-.9l-.1-.1c-1 .1-1.8 0-2-.5-.2-.4-.4-.4-1.5-.5-.7 0-1.4-.2-1.6-.3a3 3 0 0 0-2-.7c-.6 0-.8-.1-.9-.4 0-.3-.2-.4-.4-.5h-.4l-1.1-.1c-.7 0-1-.1-1.1-.5-.2-.4-.4-.4-1.5-.5-1.1 0-1.3-.1-1.5-.5-.1-.2-.4-.5-.6-.5-.4 0-.4 0 0 .3.3.1.5.4.5.5 0 .2 0 .2-.1 0-.3-.6-1.3-.8-3.6-.8-2.2 0-2.2 0-2.2-.5s0-.5-2.3-.5c-1.3 0-1.6 0-1.7-.4 0-.3 0-.3 0 0-.1.3-.2.3-.6-.1-.5-.5-.7-.5-2.5-.5-1.9 0-2 0-2-.5.1-.4 0-.4-2.9-.5-2.6 0-3-.1-3.2-.4l-.7-.5c-.4-.1-.4 0 .1.4s.5.5.2.5c-.2 0-.6-.2-.9-.5l-.4-.4h-14.2a185 185 0 0 0-14.1.1c-.5 0-.7 0-1 .3-.2.3-.6.5-.8.5-.4 0-.3-.1.2-.5.6-.6.6-.6 0-.3M98 6.7c0 .1-.1.3-.3.3-.3 0-.3 0-.1-.3l.3-.3.1.3m-4.3.6c-.5.3-.4.3.6 0 .7-.3.7-.3.3-.3-.3 0-.7.1-1 .3m92.9 0c1 .3 1.1.3.6 0-.2-.2-.6-.3-.9-.3-.4 0-.4 0 .3.3M59.1 25.6c-.1.2-.3.4-.5.4s-.2-.1.1-.4l.4-.4v.4m168 4c.5.5.5.5.2.4-.4 0-1-.8-.7-.8l.6.5M50 32.6c-.1.2-.3.4-.5.4s-.2-.1.1-.4l.4-.4v.4M234.2 39c-.2.3-.4.4-.4.2 0-.3.6-.9.8-.7 0 0-.1.3-.4.5M41.1 40.5c0 .3-.3.5-.5.5-.4.1-.4.1 0-.3.6-.6.6-.6.5-.2m-3 3c0 .3-.3.5-.5.5-.4.1-.4.1 0-.3.6-.6.6-.6.5-.2m191.3.3l-.3.4c-.2.2-.3.2-.3-.1 0-.2.1-.3.3-.3h.3m-1.8 1.8l-.4.5c-.3.3-.4.3-.4 0 0-.2.2-.3.3-.4l.5-.1m-1.2 1.2l-.3.4c-.2.2-.3.2-.3-.1 0-.2.1-.3.3-.3h.3m-1 1l-.4.5c-.4.3-.4.3-.3-.1.1-.3.7-.7.7-.4m-2 2l-.3.4c-.2.2-.3.2-.3-.1 0-.2.1-.3.3-.3h.3m-1 1l-.3.4c-.2.2-.3.2-.3-.1 0-.2.1-.3.3-.3h.3m-4 4l-.4.5c-.4.3-.4.3-.3-.1.1-.3.7-.7.7-.4m-73.2 3.4c0 .2.1.4 0 .4l-.5-.4c-.3-.3-.3-.4 0-.4 0 0 .3.1.5.4m66.2 3.6l-.4.5c-.4.3-.4.3-.3-.1.1-.3.7-.7.7-.4M22.7 63.1l-.4.7v-.1c-.1-.5.5-1.5.7-1.2 0 .2 0 .4-.3.6m186.9.5l-.4.5c-.3.3-.4.3-.4 0 0-.2.2-.3.4-.4l.4-.1M173 65.1c0 .3 0 .3-.3 0-.2 0-.3-.2-.3-.3h.3c.2 0 .3.1.3.3m-70.6 2.7l-.3.4c-.2.2-.3.2-.3-.1 0-.2.1-.3.3-.3h.3m77.7 1.4v.4l-.4-.4c-.3-.4-.3-.4 0-.4.1 0 .3.1.4.4m24.3-.4l-.3.4c-.2.2-.3.2-.3-.1 0-.2.1-.3.3-.3h.3m-1.8 1.8l-.4.5c-.3.3-.4.3-.4 0 0-.2.2-.3.3-.4l.4-.1h.1m-1.2 1.2l-.3.4c-.2.2-.3.2-.3-.1 0-.2.1-.3.3-.3h.3m-107 1l-.3.4c-.2.2-.3.2-.3-.1 0-.2.1-.3.3-.3h.3m91.7.2l.6.4.4.1h-.4c-.3 0-.7-.1-1-.3-.3-.3-.3-.4 0-.4.1 0 .3 0 .4.2m14.3-.2l-.4.5c-.4.3-.4.3-.3-.1.1-.3.7-.7.7-.4m-2 2l-.3.4c-.2.2-.3.2-.3-.1 0-.2.1-.3.3-.3h.3m-1 1l-.3.4c-.2.2-.3.2-.3-.1 0-.2.1-.3.3-.3h.3m-110 3l-.3.4c-.2.2-.3.2-.3-.1 0-.2.1-.3.3-.3h.3m-7 7l-.3.4c-.2.2-.3.2-.3-.1 0-.2.1-.3.3-.3h.3m-1 1l-.3.4c-.2.2-.3.2-.3-.1 0-.2.1-.3.3-.3h.3M77.3 90c-.2.4-.4.5-.5.3l.3-.6c.2-.2.3-.5.3-.7l.1.1c0 .2 0 .6-.2 1m-5.9 7.8l-.3.4c-.2.2-.3.2-.3-.1 0-.2.1-.3.3-.3h.3m-10.3 25.4l-.2.4c.3 0 .8-.6.7-.7 0 0-.3 0-.5.3m0 34.4l.5.3c0-.2-.4-.7-.7-.7l.2.4M4.2 177.9c0 .3.6.8.7.6 0 0 0-.2-.3-.4l-.4-.2"/>
    <path fill="#f9bb00" d="M130.2.1H130.5h-.3m19.5 0H150.6h-1m-25 .6c-.2.2-.2.3.2.3l.6-.3c.2-.3.2-.3-.2-.3a1 1 0 0 0-.6.3m30.8 0c.1.1.4.3.7.3.5 0 .1-.5-.5-.6-.4 0-.4 0-.2.3M167 2.4c.5.5.8.6.5.2L167 2c-.4-.2-.4-.1.1.3m-66.4 3l-.4.4.6-.4c.6-.5.4-.6-.2 0m-3 1.3c-.2.2-.2.3 0 .3.3 0 .4-.2.4-.3v-.3l-.4.3m-3.1.5c-.4 0-.7.3-.8.5-.1.4.2.4.5 0 .1-.2.4-.3.5-.3l.4-.2c0-.1.1-.2 0-.2l-.6.2m91.2 0l.3.2.6.3c.4.4.7.3.4 0 0-.2-.4-.4-.8-.5h-.5M58.8 25.5c-.4.4-.4.5-.1.5l.3-.3c0-.2.2-.4.3-.5l.2-.2-.7.5m167.8 4c.2.3.5.5.7.5.3.1.3 0-.1-.3-.6-.6-.9-.7-.6-.1m-176.9 3c-.3.3-.3.4 0 .4l.4-.4v-.4l-.4.4m184.4 6l-.3.6c0 .2.1.1.4-.2.5-.5.5-.7 0-.3M40.6 40.6c-.4.4-.5.5-.2.4.2 0 .5-.3.6-.5.3-.7.3-.7-.4 0m-3.2 3.3l-.6.6.6-.3.6-.6c0-.4 0-.4-.6.3m191.3.3c0 .3 0 .3.3 0 .2 0 .3-.2.3-.3h-.3c-.2 0-.3.1-.3.3m-1.3 1.4c0 .1-.2.3-.4.3s-.3.1-.3.3c0 .3.1.3.5-.2l.5-.6c-.1-.1-.2 0-.3.2m-1.7 1.6c0 .3 0 .3.3 0 .2 0 .3-.2.3-.3h-.3c-.2 0-.3.1-.3.3m-1 1c-.2.5-.2.5.2.2.5-.5.5-.5.1-.5l-.4.4m-1.9 1.9c0 .3 0 .3.3 0 .2 0 .3-.2.3-.3h-.3c-.2 0-.3.1-.3.3m-1 1c0 .3 0 .3.3 0 .2 0 .3-.2.3-.3h-.3c-.2 0-.3.1-.3.3m-4 4l-.4.4c-.1.2-.2.3 0 .3l.6-.5c.4-.4.4-.5.1-.5-.1 0-.3.1-.3.3m-73.1 3l.5.5c.1 0 0-.2 0-.4-.2-.3-.4-.4-.6-.4-.2 0-.2 0 .1.4M121 60.3c-.5.5-.5.5 0 .3l.5-.4c.3-.4 0-.4-.5.1m38.2-.4c0 .2.3.5.6.6.4.3.4.3.2 0a15 15 0 0 1-.6-.5c-.2-.3-.2-.3-.2 0m3 1c0 .1.3.4.6.5.4.3.4.3.2 0a15 15 0 0 1-.6-.5c-.2-.3-.2-.3-.2 0m48.5 1.3l-.3.5.5-.4c.6-.6.6-.6.2-.6 0 0-.3.2-.4.5m-188.2.5l-.3.9c0 .2 0 .3.1 0l.4-.6.3-.6c0-.1-.3 0-.5.3m186.7.8l-.4.5c0 .2.1.2.5-.1.4-.4.6-.7.4-.6l-.5.2m-36.8 1.2l.3.4c.2.2.3.2.3-.1 0-.2-.1-.3-.3-.3h-.3m-70.6 3.3c0 .3 0 .3.3 0 .2 0 .3-.2.3-.3h-.3c-.2 0-.3.1-.3.3m-1.8 1.2c-.5.5-.5.5 0 .3l.5-.4c.3-.4 0-.4-.5.1m79.7-.1l.4.4v-.4c-.1-.3-.3-.4-.5-.4s-.2 0 .1.4m24.1-.1c0 .3 0 .3.3 0 .2 0 .3-.2.3-.3h-.3c-.2 0-.3.1-.3.3m-1.3 1.4c0 .1-.2.3-.4.3s-.3.1-.3.3c0 .3.1.3.5-.2l.5-.6c-.1-.1-.2 0-.3.2m-1.7 1.6c0 .3 0 .3.3 0 .2 0 .3-.2.3-.3h-.3c-.2 0-.3.1-.3.3m-107 1c0 .3 0 .3.3 0 .2 0 .3-.2.3-.3h-.3c-.2 0-.3.1-.3.3m92 0c.2.3.6.5.9.5h.4l-.4-.2-.6-.4-.5-.2c-.2 0-.2 0 .2.4m14 0c-.2.4-.2.4.2 0 .5-.4.5-.4.1-.4l-.4.4m-1.9 1.9c0 .3 0 .3.3 0 .2 0 .3-.2.3-.3h-.3c-.2 0-.3.1-.3.3m-1 1c0 .3 0 .3.3 0 .2 0 .3-.2.3-.3h-.3c-.2 0-.3.1-.3.3M14 78.4c0 .3-.2.5-.5.7-.3.1-.4.4-.5 1 0 .7-.1.9-.5.9s-.4.2-.5 1.4c0 1.2 0 1.5-.5 1.8-.3.3-.5.6-.5 1 0 .5-.1.7-.5.9-.3.1-.4.4-.5 1 0 .6-.1.8-.5 1-.3.1-.4.4-.5 1 0 .5-.2.9-.5 1.2-.4.4-.5.6-.5 2s0 1.6-.5 2c-.4.4-.5.6-.5 1.6s0 1-.5 1-.5.1-.5 1c0 .8 0 1-.4 1.3-.4.2-.5.5-.5 1.8-.1 1-.2 1.5-.5 1.7-.2.2-.3.5-.2 1 0 .5 0 .9-.2.9-.1 0-.2.6-.2 1.6 0 1.5 0 1.7-.5 1.9-.4.1-.4.3-.5 2 0 1-.1 1.9-.2 1.9-.6 0-.8.6-.8 2.2 0 1.5 0 1.7-.5 2l-.5.5v12.7H.5l-.5.2v20.9l.5.5.5.6V164l.5.4c.4.5.5.7.5 1.8 0 1.5.2 2.4.7 2.4.2 0 .3.3.3 2 .1 1.7.1 1.9.5 2 .4.2.5.4.5 1.4l.2 1.7c.2.3.2.5 0 .7-.3.4 0 1.2.4 1.7.3.2.4.6.4 1.3 0 .7.1 1.2.5 1.7s.5 1 .5 1.7c0 1 0 1 .5.8.5 0 .5 0 .5 1.2 0 1 0 1.3.5 1.6.4.5.5.7.5 2 0 1.4 0 1.6.5 2 .3.3.5.7.5 1 0 .4.2.8.5 1 .3.3.5.7.5 1 0 .4.2.8.5 1 .3.4.5.7.5 1.4s.2.9.5 1c.4 0 .5.1.5 1.3s.2 1.4.5 1.6c.4.1.5.3.5.7 0 .4.2.8.5 1 .2.3.5.6.5.9 0 .2.3.4.6.4.2 0 .4.2.4.3 0 .3.8.2 1.2-.3l2.3-1.8a830 830 0 0 0 20-15.4l2-1.5a311 311 0 0 1 8-6.3A319.1 319.1 0 0 1 62 167.4c.8-.4.8-.6.8-3.3 0-2.4 0-2.5-.5-2.9-.4-.3-.5-.5-.5-1.7s0-1.4-.5-1.8c-.4-.3-.5-.5-.5-2-.1-1.5-.1-1.6-.6-1.7h-.4v-4.6c0-24.3 0-22.6.4-22.7.5 0 .5-.1.6-1.7 0-1.4 0-1.7.5-2 .5-.4.5-.5.5-1.9 0-1.3 0-1.5.4-1.6.9-.2.9-5.7 0-5.7-.2 0-1.1-.7-2.1-1.4a252 252 0 0 0-7.4-5.8 192.6 192.6 0 0 0-6.8-5.2 805.5 805.5 0 0 0-16-12.5 625.7 625.7 0 0 0-13.7-10.6c-.4-.6-2.2-.4-2.2.1m72.8.7c0 .3 0 .3.3 0 .2 0 .3-.2.3-.3h-.3c-.2 0-.3.1-.3.3m-7 7c0 .3 0 .3.3 0 .2 0 .3-.2.3-.3h-.3c-.2 0-.3.1-.3.3m-1 1c0 .3 0 .3.3 0 .2 0 .3-.2.3-.3h-.3c-.2 0-.3.1-.3.3m-1.4 1.8c0 .2-.1.5-.3.7l-.3.6c.2.4.8-.7.7-1.2 0-.2 0-.2 0 0m-6.7 9c0 .4 0 .4.3.2l.3-.4h-.3c-.2 0-.3.1-.3.3m-4.6 10l-.2.4c.2 0 1-1 .8-1l-.6.6"/>
    <path fill="#32a753" d="M4.2 103.4l-.2.8c0 .3.2.2.3-.4.3-1 .2-1-.1-.4M0 151c0 .2.6.8.8.8.1 0 .2-.1.2-.3 0-.1 0-.1-.1 0-.2.1-.7-.3-.6-.6v-.1c-.2 0-.3 0-.3.2m62.8 14.8c0 1-.1 1.2-.8 1.6l-2.7 2a541.1 541.1 0 0 1-13.1 10.1 311 311 0 0 0-11.2 8.7 56 56 0 0 1-5 3.8 830 830 0 0 1-14.6 11.2c-.7 0-.5 2.4.1 2.5.4 0 .5.2.5 1s.2 1 .5 1c.4 0 .5.2.5.6 0 .4.1.5.5.5s.5 0 .5 1c0 .7.2.9.5 1 .4 0 .5.1.5 1s0 1 .5 1c.4 0 .5 0 .5.7 0 .6.4 1.3.8 1.3l.2.4c0 .3.3.5.5.5.4 0 .5.2.5.9 0 .6.1 1 .5 1.3.3.3.5.6.5.8l.6.9.6.8.4.3c.2 0 .4.3.4.5 0 .3.3.5.5.5.4 0 .5.2.5.6 0 .3.2.7.5 1 .3.2.5.7.5 1 0 .2.3.4.5.4.3 0 .5.3.5.5 0 .3.3.5.5.5.4 0 .5.2.5.5s.2.5.4.7c.4.1.5.4.6 1 0 .6.2.8.5.8.4 0 .5.2.5.6 0 .4.1.5.5.5.3 0 .5 0 .5.4 0 .3.3.5.5.5.4 0 .5.2.5.7 0 .3.2.8.5 1l.6.9c.2.4.3.4 1.3.4.5 0 .6.1.6.6 0 .4.1.5.5.5.5 0 .5 0 .5 1 0 .8 0 1 .4 1 .2 0 .5.3.5.6.1.2.3.4.6.4s.5.1.6.4c0 .2.3.4.5.5.3 0 .4.3.4.6s.1.5.4.5c.2 0 .5.3.5.5.1.3.3.5.7.5.3 0 .5.2.5.4l.4.5c.3 0 .5.3.6.5 0 .2.3.4.5.5.2 0 .4.3.4.5 0 .3.3.5.5.5.3 0 .5.3.5.5 0 .4.2.5 1 .5 1 0 1 .1 1 .7 0 .7 1.2 2 2.3 2.5.4.2.7.4.7.6 0 .1.2.3.6.3.3 0 .5.2.5.5 0 .2.2.4.4.4.3 0 .5.3.5.5 0 .3.3.5.5.5.3 0 .5.3.6.4 0 .2.2.4.4.4 1.2.2 1.5.3 1.5.8 0 .4.1.5.5.5.3 0 .5 0 .5.4 0 .3.3.5.5.5s.6.3.8.6c.3.3.6.5.9.5.2 0 .5.2.6.5.2.4.4.5 1.2.5 1 0 1 0 1 .5 0 .4.1.5.5.5s.5 0 .5.5c0 .4.1.5.5.5.3 0 .5 0 .5.4s.2.5 1 .5c.9 0 1 .2 1.2.6l.4.5c.2 0 .5.2.7.5.3.3.7.5 1 .5.5 0 .7 0 .7.4s.3.5.9.6c.6 0 .9.2 1 .5.2.4.4.5 1.1.5 1 0 1 0 1 .5 0 .3.1.5.4.5.3 0 .7.2 1 .5.2.3.6.5 1 .5s.6 0 .6.4c.1.4.2.5 1.6.5 1.3 0 1.4.1 1.4.6 0 .4.1.4.9.5.6 0 .8.2 1 .5.1.3.4.5.8.5.3 0 .5 0 .4.1-.3.5 1 1 2.1.9l.5.4.4.5-.4-.4-.5-.2c0 .5.5.6 2.5.6 1.2 0 1.3 0 1.3.6 0 .4 0 .5 1 .5s1 0 1 .5c0 .4 0 .5.8.5.6 0 .9 0 1.1.5.3.4.5.5 1.5.5s1.2 0 1.5.4c.1.2.3.3.4.2l.1.1c0 .2.5.3 1.4.3 1.5 0 2.2.2 2.2.7 0 .2.4.3 1 .3.8 0 1 0 1 .3.2.4.2.4 1.9.6.7 0 1.2.2 1.2.4.1.1.3.4.6.5.4.2.4.2.1-.2-.3-.3-.3-.3.1 0s.8.4 2.7.4c2.1 0 2.3 0 2.7.5.4.4.6.5 2.1.5 1.3 0 1.6 0 1.7.3 0 .1.3.4.6.5.4.2.4.2.1-.2-.3-.3-.3-.3.1 0 .3.3.9.4 2.3.4 1 0 1.9.2 1.9.3 0 .6.4.7 3.4.7 2.8 0 4 .2 3.6.6-.3.3 2.3.4 16.3.3h15.2l.3-.5c.3-.4.4-.4 3.4-.4s3.9-.2 3.4-.7c-.3-.2.4-.3 2.7-.4 1.7 0 2.3-.1 2.3-.3v-.4l2-.3c1.9 0 2 0 2-.5.1-.4.2-.4 3.1-.4s3.8-.2 3.8-.7H179.3c0-.2.5-.3 1-.3 1.7 0 2.3-.3 2.3-.7l-.4.2-.5.4.4-.5.5-.4c1.2.2 2.2 0 2.2-.5s0-.5 2-.6c1.6 0 1.9 0 2.2-.5.3-.3.6-.4 1.5-.5 1 0 1.2 0 1.3-.5 0-.4.2-.4.8-.4.6 0 1-.2 1.3-.5.3-.3.8-.5 1.1-.6.5 0 .7-.1.8-.5 0-.4 2.4-.7 2.9-.4 0 0 .9-.5.9-.7l-.4.2c-.5.4-.5.4-.2 0 .3-.3.7-.5 1.3-.5 1 0 1.5-.3 1.5-.7 0-.2.2-.3.5-.4.2 0 .4-.2.5-.5 0-.4.1-.4 1-.4 1 0 1 0 1-.5s0-.5 1.4-.6c1.1 0 1.3 0 1.5-.5.1-.3.4-.4.8-.4.3 0 .7-.2 1-.5.2-.3.6-.5.8-.6.2 0 .4-.2.5-.5 0-.3.2-.4 1-.5.8 0 1-.1 1-.5 0-.3.2-.4 1-.5.8 0 1-.1 1-.5 0-.3.2-.4.5-.4s.5-.2.5-.3c0-.1.2-.4.5-.5.3-.2.5-.5.5-.8 0-.4 0-.4 1-.4s1.8-.3 1.8-.7H219.3c0-.2.2-.2.3-.3h.3l.4-.1s.3-.2.4-.5l.6-.5c.2 0 .4-.2.5-.5 0-.3.2-.4.6-.4.4 0 .8-.2 1-.5l.9-.6c.2 0 .4-.2.5-.5 0-.3.2-.4.5-.4.4 0 .5-.1.5-.5s.1-.5.5-.5c.2 0 .5-.2.6-.5.1-.3.4-.5.8-.5.7 0 1.1-.4 1-.7 0 0 .1-.3.5-.4.3-.1.6-.4.6-.6 0-.2.2-.3.5-.4.2 0 .4-.2.5-.5 0-.3.2-.4.5-.4s.5-.2.6-.4c0-.3.2-.5.4-.6.4 0 1-1 .7-1l-.3-.5c0-.3-.2-.5-.3-.5l-.9-.6-1.9-1.7a416.9 416.9 0 0 1-11.3-8.7 163.7 163.7 0 0 0-8.2-6.4 175.6 175.6 0 0 0-7-5.4 68.6 68.6 0 0 1-5.4-4.2 211.8 211.8 0 0 1-10.4-8.4c-.2-.7-2.2-.6-2.3.1 0 .5-.1.5-1.5.6-.3 0-.4.1-.5.4 0 .4-.2.5-.7.5-.6 0-1.3.4-1.3.8 0 0-.2.2-.5.2-.2 0-.5.1-.6.4-.1.3-.4.5-.9.6-.5 0-.8.2-.9.5-.2.4-.3.5-1.3.5-1.1 0-1.6.2-1.8.7 0 .1-.5.3-.9.3-.6 0-.9.2-1 .5-.1.3-.4.5-1 .5s-.8.2-1 .5c-.2.4-.3.5-1.7.5s-2.2.2-2.2.6l.5-.2.4-.3-.4.4c-.2.3-.6.4-1.7.4-1.5 0-2 .3-2 .8 0 .2-.3.3-1.1.3-1.6 0-1.6 0-1.8.5-.2.4-.3.5-1.6.5-1.5 0-1.5 0-1.5.5v.5h-6.1c-5.6 0-6.8 0-6.7.4v.4c0 .5-9.3.2-9.5-.3-.2-.4-.2-.4-5.5-.5h-5.4v-.5c0-.4-.2-.4-1.7-.5-.8 0-1.5-.1-1.4-.2.2-.4-.4-.7-1.6-.8-.8 0-1.4-.2-1.4-.3 0-.5-.4-.7-1.3-.7-.7 0-1-.1-1.4-.5-.5-.5-.7-.5-2.7-.5-1.5 0-1.5 0-1.5-.5s0-.5-1-.5-1 0-1-.5-.1-.5-.8-.6c-.7 0-1-.1-1.1-.5-.2-.4-.4-.4-1-.4-.8 0-1-.1-1.4-.5-.3-.4-.7-.5-1-.5-.4 0-.7-.1-.7-.2 0-.4-.6-.8-1-.8s-.6-.2-.8-.5c-.2-.3-.4-.5-.7-.5-.3 0-.5-.1-.5-.2 0-.4-.7-.8-1.3-.8-.5 0-.7-.1-.8-.4 0-.3-.2-.4-.3-.5H98l-.7-.1c-.4 0-.5-.1-.5-.5s-.1-.5-.5-.5c-.3 0-.5-.2-.5-.5s-.2-.4-.8-.5c-.5 0-.8-.2-1-.5-.2-.3-.4-.5-.7-.5-.2 0-.5-.2-.6-.5l-.4-.4a.6.6 0 0 1-.6-.6l-.4-.4c-.3-.1-.5-.3-.5-.4 0-.3-.7-.7-1.3-.7-.5 0-.7-.1-.9-.5 0-.3-.3-.5-.5-.5s-.3-.2-.3-.5-.2-.6-.5-.7c-.3-.2-.5-.4-.5-.6l-.5-.3c-.4 0-.6-.2-.6-.3 0-.2-.2-.4-.4-.5-.3-.1-.5-.4-.5-.6 0-.3-.3-.5-.5-.5-.4 0-.5-.2-.5-.5 0-.4-.1-.5-.5-.5-.3 0-.5-.2-.5-.5s-.3-.5-.5-.5a.6.6 0 0 1-.5-.5c0-.3-.3-.5-.5-.5-.4 0-.5-.2-.5-.5s-.2-.6-.5-.7c-.3-.2-.5-.4-.5-.6 0-.1-.1-.2-.3-.2l-.5-.5c-.2-.3-.4-.5-.7-.5-.4 0-.5-.1-.5-.8 0-.5 0-.8-.2-.8l-.2-.1c.2-.2-1-1.3-1.3-1.3-.2 0-.3-.2-.3-.5 0-.4-.1-.5-.5-.5s-.5-.1-.5-.6c0-.4-.2-.8-.5-1.1-.3-.3-.5-.7-.5-1 0-.1-.1-.3-.3-.3-.3 0-.7-.7-.7-1.4 0-.4-.2-.6-.5-.6-.4 0-.5-.2-.5-.5s-.1-.5-.3-.5c-.4 0-.7-.5-.7-1.2 0-.5-.2-.8-.5-1-.3 0-.4-.4-.5-1 0-.7 0-.8-.5-.8-.4 0-.5-.1-.5-1 0-.8-.2-1-.5-1-.4 0-.5-.2-.5-.7 0-.3-.2-.7-.5-1-.4-.4-.5-.7-.5-1.6 0-1-.4-1.9-.8-1.6-.1 0-.2-.4-.2-1 0-1-.1-1-.5-1s-.5 0-.5-1c0-.9-.2-1-.5-1.1-.4 0-.5-.2-.5-1 0-1.1-.2-1.7-.7-1.9-.2-.1-.3 0-.3.7M5 180.8c0 .2.6.9.7.8l-.3-.6c-.2-.3-.4-.4-.4-.3m192.2 19.6c-.1.1-.2.4-.1.5 0 .2 0 .1 0 0 0-.3.3-.5.6-.6.3-.2.3-.2 0-.2-.1 0-.4.1-.5.3"/>
    <path fill="#3e82f1" d="M139.1 114.1L139 142v27.8h74v1.3c0 1.2 0 1.4-.5 1.8-.5.4-.5.6-.5 2.8v2.3h-.5c-.4 0-.5 0-.5.7 0 .6-.1 1-.5 1.2-.4.4-.5.7-.5 1.3 0 .6 0 .7-.5.8-.3 0-.4.2-.5.8 0 .4-.2.8-.5 1-.3.4-.4.8-.5 1.5l-.2 1.2c-.2.1-.2 0-.1-.1 0-.2 0-.1-.3.1-.2.3-.4.7-.4 1 0 .3-.1.5-.4.5-.4 0-.5.2-.6.6 0 .2-.2.7-.5 1-.5.6-1.5 2.5-1.5 3 0 .2-.2.4-.4.4-.3 0-.5.2-.6.5 0 .2-.2.5-.4.5s-.5.3-.5.5l-.6.8c-.3.3-.5.7-.5 1 0 .5-.1.7-.4.7-.3 0-.5.2-.6.5 0 .3-.2.5-.5.5-.2 0-.4.2-.5.5 0 .3-.2.5-.5.5s-.4.2-.5.6c0 .3-.2.6-.4.6s-.4.3-.4.4c0 .2-.3.4-.6.5-.3.1-.6.4-.6.5 0 .2-.2.4-.4.4-.3 0-.5.2-.6.5 0 .2-.2.5-.4.5s-.5.3-.5.5c0 .3-.3.5-.5.5-.3 0-.5.3-.5.6-.1.2-.3.4-.6.4s-.5.1-.6.4c0 .2-.3.4-.5.5a6 6 0 0 0-1.4 1.1c-.6.7-1 1-1.4 1-2 0-2 2.2 0 3.7a194.7 194.7 0 0 1 9.1 7 122 122 0 0 1 6.8 5.4 60 60 0 0 0 5.6 4.3 300.1 300.1 0 0 0 10.9 8.5 416.9 416.9 0 0 0 11.4 9c0-.1.2 0 .3.4.2 1 2.1 0 2.1-1.1 0-.3.1-.4.5-.4.5 0 2.5-2 2.5-2.6 0-.3.1-.4.5-.5.2 0 .4-.2.5-.5 0-.3.2-.4.5-.4.4 0 1.5-1 1.5-1.4 0-.1.2-.4.5-.6.3-.2.5-.5.5-.8l.1-.4c.5 0 .7 0 .8-.4 0-.2.3-.4.6-.5.2 0 .4-.2.5-.4 0-.3.2-.5.5-.6.3-.2.4-.5.5-1 0-.4.2-.7.6-.8.2-.2.4-.4.4-.7 0-.3.1-.4.5-.5.2 0 .4-.2.5-.5 0-.2.2-.4.5-.5.2 0 .4-.2.5-.4 0-.3.3-.6.5-.9.3-.2.5-.6.5-1 0-.5.1-.6.4-.7.3 0 .5-.2.6-.5 0-.3.2-.7.5-.9.2-.2.3-.3.1-.2-.3 0-.3 0 0-.2l.6-.5c.2-.3.2-.3 0 0 0 .2 0 .2.3 0l.4-.7c0-.2.3-.6.5-.8l.5-1.1c.1-.5.4-.8.7-1 .2 0 .4-.3.4-.5 0-.3.2-.5.4-.6.3-.1.5-.4.6-.7 0-.2.2-.6.5-.8.4-.4.5-.7.5-1.5s0-1 .4-1 .5-.2.6-1c0-.8 0-1 .5-1 .3 0 .5 0 .5-.2s.2-.5.5-.7c.4-.2.5-.5.5-1 0-.4.2-.7.5-1 .4-.3.5-.6.5-1.2 0-.5 0-.8.2-.8.4 0 .8-.7.8-1.3 0-.5.1-.7.5-.8.3-.2.4-.4.5-.9 0-.4.2-.8.5-1 .3-.2.4-.5.5-1.7 0-.8.2-1.4.3-1.4.4 0 .7-.4.7-1.3 0-.4.1-.6.5-.7.3-.2.4-.4.5-1 0-.5.2-1 .5-1.3.3-.3.5-.6.5-1s.2-1 .5-1.3c.4-.5.5-.8.5-2s0-1.5.5-2c.4-.4.5-.8.5-1.4 0-.6.1-.9.5-1.3.4-.3.5-.6.5-1.5 0-.8 0-1 .5-1.5.4-.4.5-.6.5-1.7 0-1 0-1.5.4-2 .4-.4.5-.9.6-2.8 0-1.8.1-2.3.3-2.3.5 0 .7-.8.7-2.2 0-1.3 0-1.5.5-2 .5-.4.5-.5.5-2.5 0-1.9 0-2 .5-2.5l.5-.4v-6.7c0-4 0-6.7.2-6.6.8.4.8 0 .8-12.1l-.1-11.5-.5-.1h-.4v-6.2c0-7.7 0-7.2-.6-7.6-.4-.3-.4-.5-.4-2 0-1.1 0-1.8-.2-2-.3-.3-133.2-.4-133.5-.1"/>
  </g>
</svg>
