<svg xmlns="http://www.w3.org/2000/svg" width="400" height="400" display="block">
  <path fill="#0357df" fill-rule="evenodd" d="M179 .6A200.6 200.6 0 0 0 11.7 268.5c5.6 15.7 23.5 48.6 29.2 53.5l4.5 5.5A249.9 249.9 0 0 0 78 359.1l8.5 6.1a202.7 202.7 0 0 0 225 1.3 200.7 200.7 0 0 0 67.3-256.7C352.2 56.5 298 14.5 243 4.3l-10-2a390 390 0 0 0-54-1.7M268.8 85c38.4 1 38 .9 32.7 4a20.2 20.2 0 0 0-7.6 25.9c3.8 7.5 2.7 85.8-1.3 88.8-3.2 2.3-9.3 1.8-12.1-1L278 200V172c0-29.8 1.4-50.8 3.5-55 2.3-4.4 3.1-15.3 1.2-14.8-1 .1-8.8 6-17.6 13l-15.9 12.7 2 7.3c5.8 22.2 1.2 36-18.2 53.8-16.4 15-16.2 16.4 4.8 37 19.7 19.4 23 26.2 22 45.7-1 16.8-9.3 28.4-27 37-21.5 10.7-56.6 10-81.4-1.6-46.5-21.8-19.8-74.1 39.3-77l13.2-.6-2.9-4.3a22 22 0 0 1-3.3-20.4l2-5.8h-5.2c-26.8 0-49.5-20.7-49.5-45.2V150h-23.3c-28.9-.2-28.6 0-20-6.7 3.8-3 21.4-17.6 39.3-32.8L173.5 83l30 .6 65.3 1.3m-82.2 30.3c-21.2 5.7-23.1 47.8-3 67.4 16.9 16.5 36.9 13.8 44-6.1 11-31.1-14-68.4-41-61.3m3.2 122.8c-49.7 7.9-48 61.7 2.2 67.4 29.8 3.5 52-10.5 52-32.8 0-16.7-19.8-33.8-40.5-35-4.4-.3-10.5 0-13.7.4"/>
</svg>
