<svg xmlns="http://www.w3.org/2000/svg" width="395.4" height="382.3" display="block">
  <g fill-rule="evenodd">
    <path fill="#3c5da9" d="M179 .1a686 686 0 0 1-18.6.7 2222.8 2222.8 0 0 1-13.3 1 167.3 167.3 0 0 0-16.2 1.7l-2.7.4a47.3 47.3 0 0 0-6.3 1l-1.4.1A81.1 81.1 0 0 0 110 7a100.6 100.6 0 0 1-4 1 229 229 0 0 1-8.7 2 33 33 0 0 0-4.4 1.3c-.2 0-.5 0-.7.2l-1.2.4a56.4 56.4 0 0 0-6 1.8 52.5 52.5 0 0 0-5.2 1.8 56.9 56.9 0 0 0-8.4 3.3l-1.2.5a264.2 264.2 0 0 0-16.1 8 44.6 44.6 0 0 0-3 1.7 136.1 136.1 0 0 0-28.7 23.6l-1.4 1.6A140.4 140.4 0 0 0 10 68.8l-.5.8c0 .1 0 .2-.2.2 0 0-.2.1-.2.3l-.4.8-.5.8-.5.9a54 54 0 0 0-3.2 5.7c-.8 1.5-1 1.4 5.8 1.5l18 .4c10 .2 11.8.2 12 0 .2-.2.7-1 1.1-1.9a28.7 28.7 0 0 1 1.6-2.7 44.8 44.8 0 0 1 5-6.7 85.6 85.6 0 0 1 37.1-24.6 401 401 0 0 0 5.7-2 102.4 102.4 0 0 1 16.8-4.7 65.7 65.7 0 0 0 3.7-.7 114.4 114.4 0 0 0 7.7-1.3 2891 2891 0 0 1 11.5-1.4 194 194 0 0 1 10.7-.8A404.8 404.8 0 0 1 189 35l2.6.3a160 160 0 0 1 11.4 1.4 185.5 185.5 0 0 1 16 2.6 263.8 263.8 0 0 0 8.7 1.8 50.8 50.8 0 0 1 5.6 1.4 38.3 38.3 0 0 1 5 1.4 62.9 62.9 0 0 1 8 2.5l.6.2c.3 0 .5 0 .6.2l.4.2 1 .3.8.3.5.1 1 .4 1.4.6a96.7 96.7 0 0 0 4.8 2 134.1 134.1 0 0 1 15.1 7.8A71.9 71.9 0 0 1 289.7 73a45 45 0 0 1 3.4 5.1l.8 1.6h57c.8-.2 1-.9 1-3.5l.2-2.8.4-3.4a23.3 23.3 0 0 1 1-5 54.5 54.5 0 0 1 4.4-12.7l1.3-2.2a35.8 35.8 0 0 1 17.7-14.9c2.6-1.2 7-2.2 11.4-2.6.6-.1 1.2-.2 1.3-.4.4-.2.4-31.7 0-32-.1 0-2.7.4-4.2.8l-1.3.2A75.6 75.6 0 0 0 371 5a25.5 25.5 0 0 1-2.4 1 132.6 132.6 0 0 1-4.2 1.8 67.1 67.1 0 0 0-16.7 10.4 73.3 73.3 0 0 0-15.2 18.4c-.6 1-2.9 5.5-3.6 7.3l-.6 1.4A41.6 41.6 0 0 0 326 51a34 34 0 0 0-1.4 4.4 104 104 0 0 0-2.1 8.7c0 1.7-.6 1.5-2.9-1.3A126.8 126.8 0 0 0 266 25a.9.9 0 0 0-.5-.2c-.3 0-1.2-.3-2-.8l-.7-.2a1 1 0 0 1-.5-.1l-1.9-.7a76.3 76.3 0 0 1-5.4-1.8l-1-.3a33.5 33.5 0 0 0-4.4-1.4l-.5-.1-1-.2a96.7 96.7 0 0 0-9.3-2.4 143.5 143.5 0 0 0-14.6-2.8 94.5 94.5 0 0 0-9.4-1.3 62.5 62.5 0 0 0-7.5-.8l-8.3-.7c-6.6-.4-5.9.3-5.9-6.2 0-4.4 0-4.7-.4-4.9a166 166 0 0 0-13.5 0m-69.9 71.5c-1.2.3-3.6 1.7-5 3a9.4 9.4 0 0 0-2.7 4.5l-.4 1.2v14.3a82 82 0 0 0 .3 14.4c.4.3 7 .3 7.3 0 .2-.2.3-2.1.3-7.6 0-5.6 0-7.4.2-7.5.1 0 6.5-.2 14-.2l13.9-.1v-3c0-3.8.6-3.4-4.8-3.5l-9-.2-9.2-.2c-5.5 0-5.1.1-5.1-2.3 0-2.3.4-3.3 2-4.3 1.6-1.2 2-1.2 17.1-1.2 12.3 0 13.5 0 13.8-.3.4-.6.4-6 0-6.5-.3-.3-30.8-.8-32.7-.5m-37.4 1c-.2 0-.2 4-.2 18.6v18.4l.4.1h8.5V91.4c0-14.7 0-18.5-.2-18.7-.3-.1-8-.2-8.5 0m150.7 1.5l-.2 18.1V109h8.6l.4-.2v-5c0-3 .1-5.5.2-5.7l.2-.5h30.1l1.3-.6a6 6 0 0 0 3-2.9c.5-1 .7-11.8.4-14.6a7.3 7.3 0 0 0-3.8-5.9c-1-.6-4.1-.7-24.4-.8l-15.7-.1-.1 1.6m-62.4-.8l-.9.1c-2 0-4.7 2.3-5.6 4.7-.4 1.3-.5 25.9 0 27.2a7.5 7.5 0 0 0 3.2 3.9c2 1 1 1 21.2 1h18.6l1.2-.7c2.1-1 3.5-2.7 4-5 .4-1.2.5-23.8.2-25.4-.6-2.9-3-5.3-5.9-5.7-1.3-.2-35.7-.3-36-.1m96.4 6.4c1.4 1.1 1.5 1.5 1.6 4.5.2 4.4-.2 5.7-2.1 6.7-1.1.6-23.1.6-23.7 0-.4-.4-.6-10.6-.2-11.4.2-.4.5-.4 12-.4h11.7l.7.6M190 80a6 6 0 0 1 3 2.5c.5 1.3.5 16-.2 17.2-.6 1-1.1 1.7-1.4 1.7l-.3.1c0 .8-1.5.8-14 .8h-12.1l-.8-.5c-1.1-.7-1.5-1.1-2-2.1l-.5-1V83l.6-.8c.6-1 1.9-2 2.4-2l.5-.1c.2-.3 23.8-.3 24.8 0M33.7 103h-9c-7 .1-20 .5-20.5.7-.3 0-.3.1 0 .8A127 127 0 0 0 18 126.8l1.7 2.1a195.2 195.2 0 0 0 15.7 15.3A144.5 144.5 0 0 0 82.7 169a340.8 340.8 0 0 1 8 2.5 109.7 109.7 0 0 0 5.6 1.5 444.3 444.3 0 0 1 9.2 2.3 39.5 39.5 0 0 0 3.7.8l1.7.3a111 111 0 0 1 5.7 1.1l4.2.7a361 361 0 0 1 9.8 1.5 113.4 113.4 0 0 0 9 1 96.6 96.6 0 0 0 8 .8 470 470 0 0 0 45 1.4c.4-.2.4-.3.4-5 0-6.2-.3-5.6 3.1-5.8a178.6 178.6 0 0 0 16.4-1.5 58.2 58.2 0 0 1 6.3-.7 97.3 97.3 0 0 1 6.2-1 233.2 233.2 0 0 1 9.5-1.8 32.9 32.9 0 0 1 4.4-.9l2.6-.6a43.6 43.6 0 0 0 6.9-1.8 4 4 0 0 0 1.3-.3c.4-.2 1.2-.5 1.6-.5l1.4-.5a8 8 0 0 1 1.6-.5 5 5 0 0 0 1.3-.3l1.5-.6a44.4 44.4 0 0 0 7.6-2.6l2.4-1a91.7 91.7 0 0 0 7.5-3.2 144.3 144.3 0 0 0 21.7-12.4c7.6-5.3 18.8-15.5 23-21 2.1-2.9 3-3.4 3.2-2A92.5 92.5 0 0 0 338 155a77.3 77.3 0 0 0 13 12.7 79.8 79.8 0 0 0 29.8 13.5c2.9.8 8.3 1.8 8.8 1.6.4-.1.5-31.7 0-32l-1.8-.4a47 47 0 0 1-21-8.8 38.1 38.1 0 0 1-13.3-22.8 17 17 0 0 0-.5-2.3 338.5 338.5 0 0 0-1.6-12.8c-.3-.2-57-.3-57.3 0-.2 0-.6.7-1 1.6a39 39 0 0 1-5.5 8.3 76 76 0 0 1-21 16.4 182.3 182.3 0 0 1-16.8 7.6l-.7.1a31.9 31.9 0 0 0-17.9 5.3l-1 .2c-.4 0-.8 0-1 .2a144.4 144.4 0 0 0-5.5 1.2 133.7 133.7 0 0 1-10.7 1.8 185.3 185.3 0 0 1-19.8 2.2l-13 .8c-4.3.3-25.9.3-29.8 0a282.8 282.8 0 0 1-40.3-4.9 65.6 65.6 0 0 1-7.5-1.7l-1.8-.4-1.1-.4-.6-.2a31.4 31.4 0 0 0-4-1.2l-1.3-.3a22.2 22.2 0 0 1-3.6-1.2c-.2 0-.5 0-.7-.2l-1.3-.5a29.8 29.8 0 0 1-2.9-1A31 31 0 0 1 82 136a126.9 126.9 0 0 1-22.3-12.2l-2.8-2.1a61 61 0 0 1-12-11.9l-.9-1.1-.4-.8c0-.2-.2-.3-.3-.3l-.2-.2-.6-1.1a20 20 0 0 1-2-3.3c-.2-.3-1.5-.3-6.7 0"/>
    <path fill="#6f6c6e" d="M192.7.2c.3.3.3.8.4 5.1v5-5.1c0-5 0-5.1-.4-5.2-.4 0-.4 0 0 .2m197.2 0a29997 29997 0 0 0-.2 32c-.2.3-.2.3 0 .3A398.2 398.2 0 0 0 390 0m-24 41.8l-.5.6c.5-.3 1.6-1.3 1.5-1.3 0 0-.5.2-1 .7m-2.8 3c-1.5 1.6-2.5 3-2.3 3l.5-.5c.4-.7 1.3-1.8 2.3-2.9.5-.5.8-1 .7-1l-1.2 1.4m-2.8 3.5c-.5.6-1.7 2.7-1.3 2.4.2-.1.3-.3.3-.4l.7-1.3c.7-1 .8-1.3.3-.7m-2 3.2c-.3.5-.4.7-.2.7s.7-1 .6-1c0-.1-.2 0-.4.3m-.7 1.4c-.3.4-.6 1.3-.5 1.3.1 0 1-1.6.8-1.7 0 0-.2.1-.3.4m-1 2c-.6 1.2-.6 1.8 0 .7.2-.5.4-1 .3-1.1 0-.1-.2.1-.3.5m-1 2.4l-.3 1s.2 0 .2-.2l.4-.9V57l-.4.6m-.7 2.2c-.4 1.3-.6 2-.3 1.9l.2-.5.3-1.2c.2-.4.3-.8.2-1l-.4.8m-1 3.3l-.4 2v.9l.2-.8.3-1.3c0-.3 0-.6.2-.7.1-.1.2-.4.1-.7 0-.3-.1-.2-.3.6m-1 3.8c-.2 1-.4 4.2-.2 3.4l.2-1.4.2-1.3.2-1c0-.4-.1-.4-.3.3m-.8 6.2a32 32 0 0 0-.3 3.5c0 1.9-.2 3-.7 3.1-.2 0-.1.1.2.1.6 0 .7-.2.7-1.9 0-.7.1-2.2.3-3.2.2-2.8.1-4-.2-1.6m-210.3 5.5v.5c.2 0 .4-.5.3-.8 0 0-.2 0-.3.3m124.7 7.1a182.6 182.6 0 0 1 0 7.3 149.4 149.4 0 0 0 0-7.3m-34.6-.4V88a155.2 155.2 0 0 0 0-2.8m-29.8 6.5c0 6.6-.1 12.1-.2 12.4v.5l.1-.5c.2-.3.2-4.5.2-12.3v-12l-.1 12M38 80.4h.7-.7m227 14.8c-.3.5-.4.8-.2.6.4-.3 1.1-1.3 1-1.4l-.7.8m86.6 9.2l.1 2.2c0 1.7.4 5.2.6 5.4v-1.7a136.6 136.6 0 0 1-.7-6.6c-.1-.1-.2.1 0 .7m.8 9.9l.4 2.1c.2.4.3.5.2.2l-.3-2c-.2-2-.5-2.2-.3-.3m-31.6 4.3l-.7.9-1 1.2a126.3 126.3 0 0 1 1.7-2m32.5.2c0 .5.6 2.5.7 2.3v-.7a45.6 45.6 0 0 1-.7-1.6m.9 3.4c.2 1 .7 2.1.8 2l-.2-.8-.3-1-.2-.5c-.2-.1-.2 0-.1.3m1 3c.1.6.6 1.5.6 1.1 0-.1 0-.3-.2-.3l-.2-.6c0-.3 0-.5-.2-.6 0 0-.1 0 0 .4m-60 17.1l-.6.5.7-.4c.6-.4.7-.6.5-.6l-.6.5m-1.7 1.1l-.8.7 1.8-1.2c0-.2 0-.1-1 .5m-3 2l-1.5 1 3.2-2-1.7 1m-3.6 2.2c-.3.1-.3.2-.2.2 0 0 .3 0 .5-.2.3-.2.3-.3.2-.3l-.5.3m102.7 19v16l-.7.1c-.6.1-.6.1.3.1h.9v-16c0-10.4 0-16-.2-16.1-.1-.1-.2 5.3-.3 15.9M279.1 152l-.6.4c.3 0 1.5-.5 1.5-.7l-1 .3m-2.1 1.1c-.3.2-.4.3-.2.3l.6-.3c.5-.4.2-.4-.4 0m-6 2.7c-.7.4-.3.4.4 0 .3-.1.5-.3.3-.3l-.8.3m-14.9 5.6c-.3.1-.3.1 0 .2l.6-.2c.2-.3 0-.3-.6 0m-2.7.9c-.5.2-.5.2 0 .1s1-.4.8-.4a3 3 0 0 0-.8.3m-6.5 1.8c-.2.2-.2.2.1.2.3 0 .5 0 .6-.2.1-.2-.3-.2-.7 0m-11.4 2.7l-.4.2h.4c.2 0 .5 0 .7-.2.4-.2-.1-.2-.7 0m-9.4 1.8c-.4.1-.4.1-.1.1l.8-.1c.5-.2 0-.2-.7 0m-3.9.7h.7l-.3-.1h-.4m-9.5 1.3c-.7.2-.7.2-.1.2l1.1-.2c.8-.2 0-.2-1 0m-8.4 1h1c.3-.1 0-.1-.5-.1h-.5m-7.5.6H197.4h-.8m-3.6 5.7c0 4.4 0 4.9-.3 5-.3.2-.3.3 0 .3h.5v-5a66.6 66.6 0 0 0-.2-.3m-58.5 2.5h.7l-.4-.1h-.3m2.9.3l.6.2c.5 0 .4 0-.4-.2-.4-.1-.5-.1-.2 0m6.6.8h.7l-.3-.1h-.4m3.5.5h.7c.2-.1 0-.1-.3-.1h-.4m9.4.6h.3-.3m2 .2h.4-.5M68.2 222.2a3 3 0 0 1-1 .2c-.5 0-1.3.2-2.7.7-3.2 1.3-6.7 4.9-6.7 6.9l-.2.8c-.3.5-.3 4.8 0 5l.2.7c0 .5.7 2 1.8 3.3 1.4 2 3.7 3.4 6.8 4.5a31.5 31.5 0 0 1 2.4.7c1.7.4 2.3.5 2.6.7l1 .2.7.2.7.2c.4 0 .7 0 .8.2l.6.2c.5 0 1.7.4 3.3 1.2.7.3 2 1.7 2 2.1l.2.5.2 1.2c0 .5 0 1-.2 1.1l-.2.6c0 1-2.6 3.3-4.5 3.7-1 .3-5.6.3-5.8.1l-.7-.2c-.7 0-2.4-1-3.3-2-1-1-1.6-2-2.4-4.4l-.3-.9H62l-2.4.3-2.4.2h-1.4v1.1l.4 1.5.1.8.2.6.2.5.3.9.3.6c0 .7 2.2 3.5 3.7 4.7 1.1.9 2.3 1.6 3.7 2l1.4.5a43.1 43.1 0 0 0 13.6-.2c.4 0 .7-.1 2.3-.8 1.5-.7 4.5-3.1 4.5-3.7l.2-.4c.2-.2 1-1.6 1.5-3 .7-1.4.6-6.5 0-8-1.4-3.4-3-5.1-6.1-6.5a60 60 0 0 1-2.5-1.1c-.2 0-.5 0-.7-.2-.6-.3-2.2-.8-2.7-.8-.2 0-.4 0-.5-.2l-.8-.2a19.5 19.5 0 0 1-5-1.3 60.1 60.1 0 0 0-2.3-1c-3.5-1.5-3.8-4.3-1-6.3.6-.4 1.3-.7 1.6-.7l.7-.2c0-.1 1.3-.2 3-.2s3 0 3 .2l.5.2c1.2 0 3.7 2.5 3.7 3.7 0 .2 0 .4.2.5l.2.7v.6l1.7-.1 4-.3 2.3-.1v-1.2l-.2-1.4c-.2 0-.2-.3-.2-.6l-.2-.8-.7-1.5c-1.4-3-4.8-5.3-9.2-6.2a57 57 0 0 0-9-.1m206.5 0l-1.1.2a9 9 0 0 0-3 .8l-.5.1c-1.3 0-6 3.7-7.5 6a174 174 0 0 1-2.5 5l-.4 1a41.7 41.7 0 0 0-.3 14.3c0 2 2.6 6.8 4.9 9.2 3.7 3.7 7.5 5 14.3 5 4.6 0 6.5-.2 8.7-1.4l.6-.1 1.8-1a18 18 0 0 0 7.6-10.4l.5-1.7c.6-1.9.6-9.8 0-12.2a21 21 0 0 0-3.2-7.5 19.2 19.2 0 0 0-7.4-6c-.4 0-.8-.3-1-.4l-1-.3c-.3 0-.7-.2-.8-.3l-1-.1a43.3 43.3 0 0 0-8.6-.3m-52.5.8c-.2.1-.2.8-.2 3.2v3h6c4.5 0 5.9.1 6 .3.2.2.3 5.2.3 17v16.7h4l4 .1v-16.8c0-13.7 0-16.8.2-17l6-.3h5.7V222.8h-32m142 0c-.1 0-.2 7-.2 20.2v20.2h31l-.1-3.1v-3.2h-11.2c-8 0-11.3-.2-11.5-.3-.2-.2-.2-1.3-.2-5.7v-5.5h20.6v-6.6h-10.2c-7.8 0-10.1-.1-10.3-.3-.2-.5-.1-8.9.1-9.1.2-.2 3.5-.2 11.2-.3h10.9v-6.2l-15-.1h-15.1M0 243v20.2h7.5a1764 1764 0 0 0 0-40.1c0-.3-.3-.3-3.7-.3H0V243m16.3 0v20.2h7.2v-12.9c0-12.9 0-12.9.4-13 .3 0 .5 0 .6.2l.5 1 .5.7 1.4 2.2a20.1 20.1 0 0 1 1.5 2.6c.1 0 1.2 1.6 1.2 1.8l.9 1.5a9.7 9.7 0 0 1 1 1.8c.2 0 1.8 2.6 1.8 2.8 0 .1 0 .2.2.2 0 0 .2.1.2.3l.4.8.5.8 1 1.4a9.7 9.7 0 0 1 1 1.8c.1.1 1.1 1.7 1.1 1.9l.5.7.5.9.2.2c.1 0 .2 0 .2.2l.6 1.1.6 1h8.1v-40.4h-7.2V236l-.1 13.4c-.3.2-2.2-2.2-2.2-2.7l-.2-.4a77.2 77.2 0 0 1-4.6-7.4l-.6-1.2-.5-.7-.5-.9c0-.1 0-.2-.2-.2l-.2-.2-.5-.9-.5-.7-.6-1.2-.7-1.3-.2-.2c-.1 0-.2 0-.2-.2l-.5-.8-.5-.8-.9-1.5-.8-1.5-.2-.3-.7-1a69 69 0 0 0-1-1.7l-.6-1h-7.9V243m77.3-17v3l5.8.1c3.8 0 5.8.2 6 .3.2.2.2 3.2.2 17v16.8h7.9v-16.8c.1-11.8.2-16.8.3-17 .2-.2 1.5-.2 6.1-.3h5.9v-6.2h-16.1l-16.1-.1v3.1m38 17v20.3h7.9v-40.4h-8V243m13.6-17v3.2h5.9c4.6 0 5.8 0 6 .2.1.2.2 5 .2 17l.1 16.7h7.8v-16.7c0-12 .1-16.8.3-17 .2-.2 1.4-.2 6-.2h5.8v-6.4h-32v3.2m38.2-3.1c-.2.2-.1 25.2 0 27.5.4 3.7.5 4.5.7 4.6l.1.5c0 .6 1.7 3.5 2.7 4.5a16.7 16.7 0 0 0 6 3.4 46.1 46.1 0 0 0 13.9-.2 12 12 0 0 0 3.7-1.8c2-1.3 3.5-3.4 4.2-5.9.7-2.5.8-2.7.8-17.8v-15l-3.8.1H208l-.1 14.3c-.1 8.5-.2 14.4-.4 14.8-1 4-3.2 5.4-7.7 5.4-4 0-7.9-2.3-7.9-4.8a133.2 133.2 0 0 1-.5-15.3v-14.4h-7.9M322.2 243v20.2h8.9a69.6 69.6 0 0 0 14.3-.8l.5-.1a11 11 0 0 0 3.2-1.6 19.5 19.5 0 0 0 5-5.8c.1 0 .2-.1.2-.3l.6-1.8c2-4.9 2-15.2 0-19.6a26.3 26.3 0 0 0-2-4c0-.6-3.7-4-5.3-4.8-2-.9-2.2-1-3-1.1-2.3-.4-4.2-.5-12.8-.5h-9.6V243M281 228.9c.9.1 1 .2 2.7 1 2 1 4.8 4 4.8 5.2 0 .2 0 .3.2.3.1 0 .5 1.1.9 2.7.3 1.4.4 7.7 0 9-1 5-3.4 8-7.6 9.7-1.6.6-5.8.6-7.3 0a6.8 6.8 0 0 1-1.9-1l-.3-.2c-1 0-4.1-4-4.8-6.4-.9-2.8-.9-9.8 0-12.7a11.5 11.5 0 0 1 7-7.3l1-.2 1-.2a15 15 0 0 1 4.3 0m60.2.9c.9.3 1.3.4 2.3.9.6.3 2 1.7 2.6 2.6.5.7.7 1.1 1.4 2.9.7 1.8.6 12-.1 14.4-1.1 3.3-2.3 4.6-5.4 5.8-1 .5-10.7.7-11.4.3l-.4-.2V243c0-12.6 0-13.4.3-13.6.5-.4 9.4-.1 10.7.3M69.4 279.6l-1.6.1c-.6 0-1.1.2-1.2.3l-.5.2a16.6 16.6 0 0 0-10.9 8.5l-.4.6-.1.2-.8 2-.2.7c0 .2 0 .6-.2.7a34.1 34.1 0 0 0 .4 16.6l.2.3a13.4 13.4 0 0 0 2.3 4.4c0 .8 4 4.2 6 5.2l.8.5.5.1c.3 0 .5.1.5.2l.4.2 1 .3c.4.2 1 .3 1.3.3l.8.2c.3.3 8.6.4 9.5 0l1.7-.5a17.8 17.8 0 0 0 12.2-12c.2-.4.6-2.8 1-6a27 27 0 0 0-.5-7.7 160.8 160.8 0 0 1-.6-2.7l-.1-.4a20 20 0 0 0-8.2-10 .9.9 0 0 0-.6-.4c-.2 0-.4 0-.4-.2 0 0-.1-.2-.3-.2l-.5-.1c-.2-.2-2.2-.8-2.6-.8l-.6-.2c-.4-.4-7.3-.7-8.3-.4m303.5 0l-1.6.1c-.6 0-1 .2-1.2.3l-.6.2c-.5 0-1.4.2-2.4.8l-.7.1-.2.2-.3.2c-.5 0-3.1 2-4.4 3.3a19.6 19.6 0 0 0-4.9 9.5 33.4 33.4 0 0 0 .6 14.8 20 20 0 0 0 3.5 6.4 17.7 17.7 0 0 0 10.5 5.7 44 44 0 0 0 10-.2c3.8 0 10-4.9 12.2-9.6a65.3 65.3 0 0 1 1-2.6l.1-.5.3-1a61.6 61.6 0 0 0 0-13.7l-.2-.9c-.2 0-.2-.3-.2-.5l-.2-.7a15 15 0 0 1-.5-1.1c-.6-1.5-.8-1.8-2-3.4-1.5-2.2-5.2-5.5-6.2-5.5-.2 0-.3 0-.3-.2l-.4-.2a2 2 0 0 1-.7-.1c-1-.5-1.9-.8-2.3-.8l-.6-.2c-.4-.4-7.3-.7-8.3-.4M0 300.6V321h7.9v-8.6c0-5.6.2-8.7.3-8.8l8.6-.3h8.4V297h-8.4a64 64 0 0 1-8.6-.3c-.2-.2-.2-1.2-.2-5v-4.8h10l10-.1v-6.6H0v20.4m117.9 0V321h7.4v-15.3l.1-15.8c.2-.5.5-.4.6.1l.3.8.2 1 .5 1.7.4 2a59.2 59.2 0 0 0 1.8 6.8l.3 1.5c.6 1.8.7 2.2.7 2.7 0 .2 0 .5.2.6l.1.6.4 1.5c.5 1.8.6 2.2.6 2.7l.2.6.2.7.3 1.5c.6 1.8.7 2.2.7 2.7 0 .2 0 .5.2.6l.2.6.3 1.5.3 1h3.6c4.5-.1 4.1.1 4.7-2.7a62.5 62.5 0 0 1 1.8-7c.1-.8.6-2.5.8-2.9l.1-1 .2-.8.3-.8c.1-.9.5-2.4.7-2.8l.2-.8a79.7 79.7 0 0 0 2.5-10.2l.2-.7c0-.5.4-1.6.7-1.9.4-.4.5 2 .5 16V321h7.1v-40.7l-6-.1H145v.4l-.1.6c-.1 0-.3.4-.3.8-.2 1-.6 2.8-.8 3l-.1.7-.2.8-.2.5c0 .5-.5 2.4-.8 3l-.2.8c0 .4 0 .7-.2.7l-.2.9a13 13 0 0 1-.8 2.8l-.1.9-.2.7-.3.8-.4 1.8-.5 1.8-.2.9c-.1 0-.2.2-.2.5 0 .4-.5 2.4-.8 2.9l-.2 1c0 .9-.6 1.3-1 .7l-.1-.9-.2-.5-.3-.9-.4-1.8-.4-1.6a5 5 0 0 0-.3-1l-.3-.9c-.2-1.2-.6-2.5-.7-2.6l-.2-.8c0-.4 0-.7-.2-.8l-.2-.7-.1-.8a98.2 98.2 0 0 0-2.6-9.6l-.8-2.7-.1-.8v-.6h-12.5v20.4m67.3 0V321h30.9v-6.6h-11.4l-11.4-.1v-11.5H213.6V296H193.3v-9.2h11l11-.1v-6.6h-30v20.4m57.6-20.2v40.5h3.5l3.6.1V308c0-7.2.2-13.2.3-13.3.2-.2 1 .9 1.6 1.9l.5.8.1.2.5.8.5.8.7 1 .7 1.1.8 1.5 1 1.5s.1.4.4.7l.5.9c0 .1 0 .2.2.2l.2.2 1.1 2a16 16 0 0 1 1.4 2.3c.1.1 1.2 1.7 1.2 1.9l.5.7.4.9.2.2a25.5 25.5 0 0 0 1.8 2.8 46.6 46.6 0 0 1 2 3.3l.6.7h7.8v-20.5l.1-20.4-3.7.1h-3.8V304.5c0 2.2-.1 2.6-.4 2.6-.1 0-.3 0-.3-.2l-.5-.9-.4-.7-.7-1.2-.7-1.3s0-.2-.2-.2l-1.2-1.8-.8-1.5-1-1.5-.4-.7-.5-.8-1.4-2.2a19 19 0 0 1-1.5-2.6c-.1 0-.2 0-.2-.2l-.5-.8-.5-.8-1.3-2.2a29.7 29.7 0 0 1-1.9-3l-.5-.8-.8-1.4c-.5-.8-1-1.5-1-1.7-.1-.4-7.8-.5-8-.1m57.5 3v3.4h12.2V321h8v-17.1l.1-17h6.1l6-.1v-6.6h-32.4v3.3M73 286.2l1 .2a9 9 0 0 1 5.6 2.4 27 27 0 0 1 2 2.2 14 14 0 0 1 1.4 3l.5 3a38.3 38.3 0 0 1-.5 9.7l-.2.4a10.4 10.4 0 0 1-1.6 3.2c0 .5-2.6 2.7-4 3.4-4 2-9.3 1.2-12.3-1.7a9.9 9.9 0 0 1-2.6-3.4c-.7-1.3-.7-1.4-.7-1.8l-.2-.7a21 21 0 0 1-.4-9.6 96 96 0 0 0 .8-3.2l.2-.4c0-.8 3.1-4.8 3.8-4.8l.3-.1a7 7 0 0 1 2.4-1.2l.6-.2 1.2-.2a4 4 0 0 0 1.4-.2c.4-.3 1.1-.3 1.3 0m304.5.1c.7 0 1.4.2 1.5.3l.5.2c2 0 6.8 5 6.8 7.1a27 27 0 0 1 0 13c0 1.4-3 5.5-4.8 6.3l-.7.4c-.7.8-7 1.6-7.6 1l-.7-.2c-.4 0-1.8-.6-2-.8 0-.1-.1-.2-.3-.2-1 0-4.7-4.3-4.7-5.3l-.2-.4-.2-.6-.2-.6-.3-.8-.3-2a29 29 0 0 1 .6-9.4l.2-.5c0-2.1 4.8-7 6.8-7l.5-.2 1.2-.2 1.5-.2c.2-.1.6-.1.8 0l1.6.1m-268.5 50.9a103 103 0 0 1-3 .6l-.4.1-1.8.8a11 11 0 0 0-5.5 6.1c-.4 1-.7 4.7-.4 5 .2.2.3.6.3 1 0 1.6 3 6 4.6 6.5.2 0 .4.2.4.3l.4.2c.2 0 .4 0 .4.2 0 0 .1.2.3.2.1 0 .5 0 .8.2a23 23 0 0 0 5.4 2l.8.1c.4 0 .8 0 1 .2.4.2 1.9.6 2.7.7.4 0 .7.2.8.3l.5.2c2.6 0 5.4 2.8 5.1 5.1-.2 1.7-2 4.2-3 4.2 0 0-.2 0-.2.2s-1.6.7-2.7.9c-5 .7-8.6-.9-10.3-4.4l-.7-1.4-.1-1c0-.2-.1-.6-.3-.7-.2-.1-3.6 0-4.3.1l-3.2.5c-.5 0 .6 4.9 1.4 5.7l.2.4c0 .3 1.2 2.2 2.1 3.2a12.8 12.8 0 0 0 5.3 3.3l.6.2 1.3.3c3.2 1 12.3.6 13.5-.5l.5-.2c.6 0 3-1.4 4.2-2.4a13 13 0 0 0 3.4-5.8c.5-2.1.3-5.9-.4-7.7a9.2 9.2 0 0 0-2.6-3.8c-1.3-1.3-3.7-2.8-4.5-2.8-.2 0-.3-.1-.3-.2 0-.2-.1-.2-.3-.2l-2.5-.8-1-.3a44 44 0 0 1-5-1.3l-.9-.1-1.2-.5-1.4-.5a35 35 0 0 0-1.2-.5c-.8-.4-2-1.6-2-2l-.3-.6c-.2-.3-.2-.6 0-1.3 1.2-4.6 11.7-4.9 13.8-.4a45.7 45.7 0 0 0 .7 2l.4.6a195 195 0 0 0 7.5-.2c.5 0 0-3-.6-4.6-.8-1.9-3.6-5.1-4.4-5.1-.1 0-.2 0-.3-.2a8.4 8.4 0 0 0-2.7-1.2c-.2 0-.4 0-.4-.2l-.8-.2c-.3 0-.7 0-.8-.2-.3-.2-7.4-.4-8.9-.1m53.2 0c-2.5.3-3 .4-3 .6l-.5.1c-1.7 0-8.6 4.8-8.6 6l-.5.7a15.4 15.4 0 0 0-2 3.8l-.3.6-.4 1.7a34.7 34.7 0 0 0 .4 16.1c.2.7 1 2.3 1.7 3.7a22.5 22.5 0 0 0 5 5.3 22.9 22.9 0 0 0 4 2l.6.2c2.3 1.1 9.7 1.4 12.9.5l1.7-.5 1.1-.4c.4-.3 1-.1 2.2.7l1.3.9 1.3.8a17.8 17.8 0 0 0 4 2.1c.7.4 1.8-.1 1.8-1l.2-.4c.1 0 .2-.1.2-.3 0-.2 0-.4.2-.5.3-.4 1.5-3 1.4-3 0-.2-.2-.2-.4-.2l-.5-.2-.4-.2-1-.5-1-.5c-.2 0-1.8-1-2-1.2l-.4-.2c-.6-.3 0-2.1.8-2.5l.2-.3c0-.2 0-.3.2-.3 0 0 .2-.1.2-.3l.5-1c1.9-3.3 2.6-7.6 2.3-13.8a17.1 17.1 0 0 0-.5-4 20.1 20.1 0 0 0-2.5-6.6l-.5-.7a16.3 16.3 0 0 0-8.9-6.5l-.4-.1a39.7 39.7 0 0 0-10.4-.6m209.5 0l-2 .3c-.4 0-.8.2-.8.3l-.6.1-1 .3-1.2.5a15 15 0 0 0-3 2c-1 .7-2.3 2.1-2.9 3l-.6.7c-.1 0-.2 0-.2.2s0 .4-.2.5a18.7 18.7 0 0 0-3 8.1l-.2 1.9a31.6 31.6 0 0 0 2 14 22 22 0 0 0 4.9 6 20.5 20.5 0 0 0 7.2 3.4c3.3 1 11.7.6 12.8-.5l.5-.2c1.5 0 6.2-3.3 7.9-5.7l.8-1 .9-1.5c1-2 1.3-3 1.3-3.3 0-.2 0-.4.2-.4l.1-.8.3-1a57.3 57.3 0 0 0-.4-13.9l-.4-1a9.5 9.5 0 0 0-1.2-2.7c0-.8-4.7-6.2-5.3-6.2l-1.2-.7a18 18 0 0 0-3.7-1.7l-.4-.1a1194.2 1194.2 0 0 0-3.1-.6c-1.6-.3-6-.2-7.5 0M0 357.9v20.4h7.8v-7.7l.2-7.7h5.7a31.6 31.6 0 0 0 10.6-1.4l1.5-.8c3.4-2 5.1-5.5 5.1-10.6 0-4.7-.8-6.7-3.7-9.5-2.7-2.7-4-2.9-17.3-3H0v20.3m49.2 0v20.5h31.1v-6.6h-11l-11.7-.1-.4-.2V366c0-4.8 0-5.5.3-5.6H78V353.6H68l-10.5-.1c-.4-.2-.5-8.8 0-9.2.1-.2 2.8-.2 11-.2h10.9V337.5H49.3V358m154.3-6.1a94 94 0 0 0 .7 18c0 3 4.3 7.2 8.6 8.4 3.9 1.2 13.2 1 14.6-.3l.7-.2.4-.1c0-.1.2-.3.5-.4a12 12 0 0 0 5.7-6.3l.2-.9.2-.9c.5-1 .7-5.8.7-18.5l.1-13.2h-8v13c0 18.4-.1 19.3-4.2 21.2-1.9.9-8.4.6-8.4-.3l-.3-.2c-.5 0-2.2-1.8-2.7-2.8-1-2-1-1.9-1-16.8l-.1-14h-7.8v14.3m52.6 6v20.4H287v-6.5h-11.1c-7.4 0-11.4 0-11.6-.2-.5-.3-.6-10.5 0-11 .2-.3 1.4-.3 10.3-.3h10.1v-6.6h-10.2c-9.9 0-10.2 0-10.4-.4-.2-.5-.3-8 0-8.6l.2-.5H286V337.5h-30V358m49.3 0v20.4h4l4 .1V370c0-7.3 0-8.5.2-8.7a15.7 15.7 0 0 1 6.1.6l1 .5 1 1c.3.1.6.4.6.5l.7.8c.3.4.6.8.6 1l.5.6c.3.3.5.6.5.8l.2.2.2.2.2.5a77.2 77.2 0 0 1 3.6 5.4 41.7 41.7 0 0 1 3.4 4.7c.2.3 9.2.5 9.4.2 0-.1-.6-1.4-1.5-2.8a30.4 30.4 0 0 1-1.8-3 8 8 0 0 1-1.2-1.8l-.5-.8-.5-.8c0-.1 0-.2-.2-.2l-.2-.2a26.7 26.7 0 0 0-6-7l-.7-.4c-.2 0-.9-.8-.8-1l.7-.2c.5 0 2.4-.6 2.7-.8l.5-.2c.3 0 .5 0 .5-.2l.3-.1c1.3 0 5.1-4.5 5.1-6l.3-.4c.1-.2.2-1.3.2-3.4 0-2 0-3.2-.2-3.3a1 1 0 0 1-.3-.6c0-1.6-3.9-6.2-5.2-6.2-.1 0-.4 0-.6-.2-1.7-.8-4-1-15.7-1l-11.1-.2V358m73.3-14c.2.2.5.3.7.3.5 0 2.6 1 2.6 1.2l.3.1c.9 0 4.2 4.7 4.2 6 0 .2 0 .4.2.6l.2 1 .3 1.9a23.3 23.3 0 0 1-.7 9.2c0 1.9-4.2 7-5.7 7-.2 0-.4 0-.5.2-1.2 1-9 1-9 0 0-.1-.1-.2-.3-.2-.7 0-4.4-3.2-4.4-3.8l-.1-.3a11 11 0 0 1-1.4-3l-.4-1.7a28.6 28.6 0 0 1 .6-11.2c0-1.2 3.3-5.7 4.2-5.7l.3-.1c0-.2 2-1.1 2.8-1.3 1.6-.4 5.4-.5 6.1-.1m-209.4 0c.8.3 2.8 1.2 2.8 1.4l.2.1c.3 0 1.9 1.6 2.7 2.7.6.8.8 1.2 1.4 2.4a23 23 0 0 1-.6 15.9c-1.3 2.3-1.6 2.4-3.1 1.3-1.7-1.2-5.3-3-6-3-.3 0-1.6 2.3-2.4 4 0 .2.5.5 1.1.7a26.6 26.6 0 0 1 2.3 1.2c3.7 1.9-2.8 2.6-6.6.8-1.3-.7-3.8-2.6-3.8-3l-.3-.6c-.8-.8-1.8-3.2-2.2-5.5a33.8 33.8 0 0 1 .7-11.5c0-.7 1.7-3.3 2.8-4.3a11.3 11.3 0 0 1 3.6-2.2c0-.2.3-.2.7-.2l.6-.2c.2-.3 5-.2 6 0m-151 .5c4.7.8 6.4 6.5 3.1 9.8-1.5 1.5-2.9 1.8-8.6 1.8H8v-11.7c0-.3 8.4-.2 10 .1m308.4 0c3.5.8 5 5 2.9 8.1-1.3 2-2.4 2.3-10 2.2h-6l-.1-4.9v-5.3l.1-.4h6.2c3.4 0 6.5.2 6.9.3"/>
  </g>
</svg>
