<svg xmlns="http://www.w3.org/2000/svg" width="262.4" height="261.8" display="block">
  <path fill="#1270b7" fill-rule="evenodd" d="M115.8.2a2 2 0 0 0-.4.4c-.1 0-1.1.2-2.4.2-1.7 0-2.2.2-2.4.4-.2.3-.8.4-2.5.4-2.6.2-2.7.2-2.7.4s-.6.4-1.7.5c-1.5 0-1.7.2-1.9.4-.1.3-.9.4-2.7.4-.6 0-.8.1-.7.3.1.1 0 .2-.2 0-.2 0-.3 0-.2.2 0 .1-.5.3-1.5.3-1.2 0-1.6.2-1.8.5-.1.2-.4.3-1.6.3-1.3 0-1.5 0-1.6.4 0 .3-.3.4-1.6.4-1.2 0-1.4 0-1.7.4-.1.3-.4.4-1.1.4-.7 0-1 0-1.2.4-.1.2-.4.4-1 .4-.3 0-.8 0-1 .2-.1.2-.1.2 0 0 0-.2 0-.1-.2.1-.3.3-.6.4-1.2.4-.5 0-.9.1-.9.2 0 .2 0 .2-.2.1 0 0-.2 0-.3.2 0 .2-.4.3-1 .3s-1 .1-1.2.4l-.8.4-.4.2c0 .1 0 .2-.2.1-.1 0-.2 0-.3.2l-.8.4c-.3 0-.8.2-1 .4l-.8.4c-.3 0-.6.2-.7.3-.1.2-.5.4-.9.4s-.8.3-1 .5c0 .2-.3.3-.4.3-.3-.1-1.1.3-1.1.6 0 .2-.3.3-.8.3-.7 0-.8 0-.8.4 0 .3-.1.4-.7.4s-.8.1-.8.4c-.1.3-.3.4-.9.4-.6 0-.8 0-.8.4 0 .3 0 .4-.4.4-.3 0-.6 0-.6.2h-.3c-.1 0-.2 0-.2.3 0 .2-.2.3-.5.3s-.5 0-.6.2h-.3c-.1 0-.2 0-.2.2 0 .3-.2.3-.6.3-.3 0-.6.1-.6.3 0 0-.3.3-.7.4l-.6.6c0 .2-.2.3-.5.3s-.5.1-.5.2h-.3c-.2 0-.3 0-.3.3l-.4.4c-.2 0-.4.2-.4.4 0 .1-.1.3-.3.3-.3 0-1 .4-1.3.6l-.4.2c-.2.1-.3.3-.3.4 0 .2-.4.4-.7.5-.4.2-.8.4-.9.6l-.4.2-.4.2c0 .4 0 .6-.5.7-.3 0-.5.3-.5.4 0 .3-.5.4-1 .3-.2 0-.2 0-.1.1.1.2-.3.7-.6.7-.2 0-.3.2-.5.5 0 .2-.3.4-.5.3-.2 0-.3.2-.2.6l-.4.2c-.3 0-.5.1-.5.3-.1.3-.3.4-.4.4l-.4.4c0 .2-.3.4-.5.5-.2 0-.4.2-.4.4s-.1.3-.4.3c-.2 0-.4.1-.4.4 0 .2 0 .4-.3.4-.1 0-.3.2-.4.5-.2.3-.4.5-.6.5-.3 0-.4 0-.3.3 0 .2 0 .3-.3.3-.2 0-.4.1-.4.4a81.7 81.7 0 0 0-11.7 11.7l-.3.3c0 .2-.2.4-.5.5-.2.1-.4.3-.4.5s-.2.3-.3.3c-.2 0-.4.2-.5.5l-.4.4c-.2 0-.3.1-.3.3 0 .2-.2.5-.4.6-.2.1-.4.5-.5.8 0 .4-.2.6-.4.6-.1 0-.3.1-.4.4 0 .3-.3.5-.4.6-.2.1-.2 0 0 0 0-.3 0-.3-.1-.2-.2 0-.3.3-.3.6s0 .5-.2.4c-.2-.1-.6.5-.6 1 0 .3 0 .5-.3.5s-.4 0-.4.2-.2.4-.4.5l-.4.5c0 .2-.1.4-.3.5a2 2 0 0 0-.5.7c-.1.4-.4.7-.6.8-.3 0-.4.1-.3.2 0 .2-.1.5-.4.8-.3.2-.5.7-.5.9 0 .2-.1.4-.4.4-.2.1-.4.3-.4.5s-.1.4-.3.5c-.1 0-.2.2-.1.3l-.1.2-.2.4c0 .2-.2.5-.4.6-.2.1-.4.3-.4.5s-.2.3-.3.4c-.2 0-.3.2-.2.3l-.1.2c-.1 0-.2.2-.2.5 0 .2-.1.5-.3.5-.3 0-.5.4-.5 1 0 .4-.1.5-.4.5-.3 0-.4.1-.4.8 0 .7 0 .8-.4.8-.3 0-.4.1-.4.5 0 .3 0 .4-.2.4a50 50 0 0 1-1 2l-.2.1c0 .4-.6 1.5-.7 1.5l-.2.1c.1.4-.3 1-.5 1-.3 0-.5.5-.5 1.2 0 .2 0 .4-.2.4l-.4.8c-.1.5-.3.8-.4.8-.2 0-.6 1-.6 1.4 0 .2-.1.4-.3.5l-.2.3c.1 0 0 .2 0 .2l-.2.1c.1.8 0 1.5-.4 1.6-.3 0-.4.2-.4.8 0 .6-.1.8-.3.8-.3 0-.5.4-.6 1.3v.6c-.3-.3-.7.6-.7 1.3 0 .6-.1.8-.6.8l-.2 1c0 1.2 0 1.4-.4 1.4-.2 0-.3.4-.3 1 0 1.1-.4 1.7-.7 1.5 0 0-.2.4-.2 1 0 1 0 1.2-.3 1.3-.4.1-.4.3-.5 1V94c0 .3-.2.5-.4.6-.2 0-.3.1-.3.3-.1 1.5-.3 2.8-.5 3-.4.2-.5.8-.5 2.1l-.2 1.3c-.4.4-.4.6-.5 2.2-.1.9-.3 1.5-.5 1.8-.2.3-.3 1-.3 2.4 0 1.5-.2 2-.4 2.2-.3.3-.4.7-.4 3.2 0 2.7-.1 3-.5 3.2-.6.4-.5 25.9 0 26 .4.2.4.4.4 3 0 3 .1 3.6.5 3.6.2 0 .3.6.4 2.2 0 1.7 0 2.2.4 2.4.2.2.3.7.4 2 0 1.4.1 2 .4 2.1.2.2.3.7.4 1.6 0 1 .2 1.4.4 1.6.2.2.3.7.4 1.9 0 .9.2 1.6.3 1.7.3.2.6 1.2.6 2 0 .7.2.9.6.8l.2 2c0 .2.1.3.3.4.4 0 .4.2.4 1 0 1 .2 1.5.5 1.5.2 0 .3.2.3 1s.1 1.1.4 1.3c.3.2.4.6.4 1.3 0 .6.2 1 .4 1 .3.2.4.5.4 1 0 .4 0 .6.4.7.3.1.4.3.4 1 0 .4 0 .8.2.8s.4.6.6 1.2c.1.6.3 1 .5 1 .1 0 .2.3.2.7 0 .4.2.7.4.9.2.1.4.4.4.7 0 .7.2 1 .5 1 .2 0 .3.3.3.7 0 .4 0 .8.2.8l.1.3.3.5.3.6v.3c.2 0 .3.2.3.3 0 .2 0 .3.2.3l.4.9c.1.5.3.8.4.8.1 0 .3.2.3.4s.2.5.4.5c.3 0 .4.3.5.9 0 .5.1.7.3.7.2 0 .3.3.4.8 0 .5.1.8.4.8.3.1.4.3.4.8s.1.6.4.7c.2 0 .4.3.4.5l.4.7.4.8c0 .2.1.4.4.5.2 0 .4.2.4.6 0 .4.1.7.4.8.2.1.3.3.3.5l.3.5c.3.3.6 1 .6 1.2 0 0 0 .2.2.3.2 0 .4.3.5.6l.4.4c.2 0 .3.3.4.7.1.4.4.7.5.7.2 0 .3.2.4.5 0 .2.3.5.5.5.2.1.4.3.4.7 0 .4 0 .6.4.7.2 0 .3.3.3.5 0 .3.2.4.4.4.3 0 .4.2.4.4 0 .3.2.4.4.4.3 0 .4.1.4.5 0 .3.1.5.2.4.1 0 .1 0 0 .2 0 .3 0 .3.3.2h.2c0 .2 0 .3.2.5.2.1.2.3.2.4 0 0 0 .2.2.2s.3.1.3.4c0 .2.1.3.3.3l.5.5c.1.3.3.5.5.5.1 0 .3.2.3.4s0 .4.2.4c0 0 .1 0 0 .2l.3.4c.3.1.4.3.3.5v.3c.4 0 1.7 1.2 1.7 1.5 0 .1.1.2.3.2l.4.4c0 .3.3.4.5.4s.4.2.4.4c0 .3.1.4.4.4.2 0 .4.1.4.4 0 .3 0 .4.3.4s.4.1.4.4c0 .2.2.4.3.4.2 0 .4.2.5.4 0 .2.2.4.4.5.2 0 .4.3.5.5 0 .2.2.4.4.4.1 0 .3.1.3.3.1.3.3.4.4.4.2 0 .4.2.4.4s.3.4.4.4c.2 0 .4.1.4.3 0 .2.1.3.4.4.2 0 .3.3.3.4l.4.4c.3 0 .4.2.4.4 0 .1.2.3.5.4.3.2.5.4.5.6 0 .1.1.3.3.3l.4.3c0 .3.3.4.5.4s.4.2.4.4.3.4.4.4c.2 0 .4.2.4.4s.2.4.4.4.3.2.4.4c0 .2.3.4.5.4s.4.1.4.3c0 .2.7.6 1 .5.1 0 .3.2.4.5.1.3.3.5.5.4l.3.1c0 .3 1.3 1.5 1.6 1.5l.1.3c0 .2.2.3.3.2h.3c0 .2.2.3.4.3.3 0 .5.2.6.4 0 .2.2.4.4.4s.4.1.4.3c0 .3.8.7 1 .6l.1.2c0 .3.2.4.6.4.5 0 .7.2.7.5 0 .2 0 .3.2.3l.7.4c.2.3.6.4 1 .4.3 0 .4.1.4.4 0 .3.1.4.4.4.2 0 .4.1.4.3 0 .3.4.5 1 .5.4 0 .6.1.6.3 0 .2.1.4.3.4l.6.5c.1.2.5.4.8.5.3 0 .6.3.8.5l.4.4c.1 0 .5.1.7.3.3.3.7.4.9.4l.8.4.8.4c.2 0 .3.1.3.3 0 .3.3.4 1.3.5.2 0 .4.2.4.4s.2.3.7.4c.5 0 .8.1.8.3l.4.4c.2 0 .6.3.8.5.2.2.5.4.8.4.2 0 .5.1.6.3.2.2.6.3 1.3.4.8 0 1 .2 1 .5s.1.3.8.3c.6 0 .7 0 .7.4 0 .3.2.4.8.4.6 0 .8 0 .9.4 0 .4.5.5 1.2.4.2 0 .3.1.3.3 0 .3.4.5 1.2.6 1 .1 1.2.2 1 .5l.8.3c.5 0 1.1.3 1.3.5.2.2.6.3.8.3.3 0 .7.2 1 .4.2.3.7.4 1 .4.5 0 1 .2 1.2.4.2.3.6.4 1.2.4s1 .1 1.2.4c.2.3.6.4 1.7.4l1.3.1.1.7c1-.2 2.2 0 2.4.4 0 .3.2.4 1.5.4 1.2 0 1.4 0 1.6.4.2.3.5.3 1.8.3 1.4 0 1.5.1 1.4.7l2 .1c1.9 0 2 0 2 .4 0 .3.3.3 1.8.4 2.2 0 2.7.1 2.7.5 0 .2.2.3 1.2.3 3.4.1 3.7.2 4 .5.2.3 2.3.4 8.6.5 2.5 0 3.4 0 3.4.2-.2.7 7.2.8 7.6 0l4.3-.3c3.5 0 4.3-.2 4.5-.4.1-.2.7-.3 2.8-.4 2.4 0 3.3-.3 3.6-.7 0 0 1.3-.2 2.8-.2l2.8-.1c0-.6.1-.7 1.9-.7 1.7 0 1.9 0 2-.4.2-.3.5-.4 1.6-.4 1.2 0 1.4 0 1.6-.3.3-.4.5-.4 1.7-.4 1.3 0 1.5 0 1.6-.4 0-.4.2-.4 1.3-.4.8 0 1.3-.1 1.3-.2s0-.2.2-.1c0 0 .2 0 .2-.2s.2-.3 1.1-.3c1 0 1.2 0 1.4-.4.2-.3.4-.4 1-.4 1.1 0 1.6-.1 1.6-.5 0-.1.3-.3 1-.3.6 0 1-.2 1.2-.4 0-.2.4-.4.9-.4.6 0 .8 0 .9-.3 0-.3.2-.5.6-.5a5.3 5.3 0 0 0 1-.1c.2 0 .2-.1.2-.2-.2-.3.3-.5 1.1-.5l.9-.1.2-.3c0-.2.3-.4.7-.4 1-.1 1.5-.3 1.4-.6l.9-.3c.8 0 1 0 1-.4 0-.3 0-.4.7-.4s.9-.1.8-.6l.8-.2c.6 0 .8 0 1-.4 0-.2.2-.3.7-.3.4 0 .6-.1.7-.4.1-.3.3-.4.7-.4.4 0 .7-.2.9-.4.1-.3.4-.4.8-.4.5 0 .7-.1.8-.4 0-.3.6-.5 1.3-.4l.2-.4.4-.4c.7 0 1.4-.3 1.2-.6 0 0 0-.2.3-.2.7 0 .7 0 1-.2 0-.1 0-.2-.2 0-.3 0-.3 0 0-.2l.3-.3c.2.2 1.3-.5 1.3-.8 0-.1 0-.2.2-.1s.8-.2.7-.4c0-.1.3-.3.7-.4.5-.1.7-.3.7-.5 0-.3.2-.4.7-.4.6 0 .7 0 .8-.4 0-.2.3-.4.6-.4s.4 0 .3-.2c0-.2 0-.2.2-.1.3 0 .4 0 .3-.2v-.2c.4 0 1-.3 1-.6 0-.1.2-.3.4-.3s.4-.1.5-.3c0-.3.2-.4.6-.4.3 0 .5-.1.5-.2 0-.2 0-.2.2-.1.1 0 .2 0 .2-.2s.2-.3.4-.3.4-.2.4-.4.3-.4.5-.4c.3 0 .5 0 .5-.2 0-.1 0-.2.2-.1l.2-.2.1-.3c.2 0 1-.7 1.7-1.3l.6-.3s.2-.1.2-.3c.1-.4.7-.7 1.1-.7.1 0 .2 0 .3-.2 0-.2.3-.4.6-.5.2-.1.4-.3.4-.5s.2-.3.4-.3c.3 0 .4-.1.4-.4 0-.3.2-.4.4-.4.4 0 .5-.2.4-.6l.4-.2c.2 0 .4-.2.5-.4 0-.2.3-.4.4-.4.2 0 .4-.1.4-.3 0-.2.4-.5.7-.6.4 0 .6-.3.6-.4l.1-.2c.2 0 .6-.3 1-.7l.5-.7.1-.3c.1-.2.3-.2.4-.2.1 0 .3 0 .3-.2l.6-.5c.3 0 .5-.3.4-.4 0 0 0-.2.4-.3.3 0 .5-.2.5-.5 0-.2.1-.3.3-.3l.4-.4c0-.3.3-.4.5-.4s.3-.2.3-.4c0-.3.2-.4.4-.4.3 0 .4-.1.4-.4 0-.2.1-.4.3-.4.2 0 .4-.2.5-.5 0-.2.3-.5.5-.5.2-.1.3-.2.2-.3 0-.1.1-.3.4-.4l.5-.5c0-.2.1-.3.4-.4.2 0 .4-.2.3-.3 0-.4.3-1 .6-1l.4-.4c0-.2.2-.4.3-.4.2 0 .4-.2.4-.5.1-.3.2-.5.3-.4.2 0 1.1-1 1.3-1.4 0-.3.2-.4.3-.4.2 0 .3-.3.5-.7 0-.5.2-.7.5-.7.2 0 .4-.2.4-.4s0-.4.3-.4c.1 0 .3-.2.4-.5l.5-.6c.1-.1.1 0 0 .1v.1c.2-.1.3-.5.4-.8 0-.4.1-.7.3-.7.2 0 .4-.2.5-.4l.4-.4c.2 0 .3-.2.4-.6 0-.3.2-.5.2-.4.2 0 .7-.8.7-1.2 0-.2.1-.3.3-.3l.4-.4c0-.2.2-.4.3-.4.2 0 .4-.3.4-.7.1-.5.3-.7.5-.8.3 0 .4-.3.4-.5 0-.3.2-.4.7-.3l.1-.4c0-.9 0-1.2.4-1.2.3 0 .4-.1.4-.5 0-.3 0-.5.2-.5.1 0 .2 0 .1-.2 0 0 0-.2.2-.2.1-.1.3-.3.3-.5 0-.3.2-.5.4-.5.3-.1.4-.3.4-.8s0-.7.4-.8c.3 0 .3-.2.3-.8 0-.5.1-.7.4-.7.3-.1.4-.3.4-.7 0-.3 0-.5.2-.4.2.2.6-.4.7-1l.3-.6c.2-.1.3-.3.3-.4v-.3l.2-.4c0-.2.2-.4.3-.5l.3-.3c0-.6.4-1.3.6-1.3l.4-.8c0-.3.3-.8.5-1 .2-.2.4-.6.4-1 0-.7 0-.9.3-1 .2 0 .4-.3.4-.8 0-.4.2-.8.4-1 .2-.3.4-.7.4-1 0-.2.2-.4.4-.5.3 0 .4-.3.4-1.2 0-.9 0-1 .4-1.1.3-.1.4-.3.4-1s.4-1.3.7-1c-.1-1 .1-2 .5-2.2.3-.1.4-.3.4-1.3 0-.7 0-1.1.1-1 .4.1.6-.7.6-1.9 0-1 0-1.2.4-1.2s.4 0 .5-2c0-.2.1-.4.3-.4.3 0 .4-.2.5-1.2 0-.6.3-1.1.4-1.2.2-.2.3-.8.4-1.8 0-1 .2-1.6.4-1.8.2-.1.3-.7.4-1.6.1-1.9.2-2.4.5-2.3.2 0 .3-.6.3-2.2 0-1.8.2-2.3.5-2.6.3-.3.3-.6.3-2.8 0-2.2 0-2.5.4-2.8.4-.4.4-.7.4-6.4 0-5.5 0-6.1.4-6.4.6-.7.5-6.6-.1-6.6-.2 0-.3-.9-.3-4.9v-4.9l-.4-.4c-.3-.4-.5-3.2-.4-5.8 0-.3 0-.6-.3-.8-.4-.2-.4-.5-.5-2 0-1.7 0-1.9-.4-2-.3 0-.3-.3-.4-1.7 0-2.1 0-2-.3-2.3-.3-.2-.4-.7-.5-1.8 0-1.7-.2-2.2-.5-2-.1.1-.2 0-.2 0v-.4l-.2-1.8c0-.2-.1-.4-.3-.4-.1 0-.3-.1-.3-.3a26.6 26.6 0 0 0-.1-2c0-.7-.2-1-.5-1s-.4-.3-.4-1.3 0-1.1-.4-1.1c-.3 0-.3-.1-.3-1 0-1-.2-1.6-.6-1.5 0 0-.2-.4-.2-1 0-1-.3-1.5-.6-1.3-.2 0-.3-1.3-.2-2h-.3c-.3.1-.3.1-.2 0v-.3c-.2 0-.3-.2-.3-.5 0-.8-.2-1.2-.5-1.2-.2 0-.3-.3-.3-.8 0-.4 0-.8-.2-.9v-.3c0-.1 0-.2-.3-.2-.2 0-.3-.2-.3-.7 0-.4-.1-.8-.3-1-.2-.2-.5-.7-.5-1-.1-.5-.3-.8-.4-.8-.1 0-.3-.3-.4-.7-.2-1.2-.2-1.3-.5-1.4-.2-.2-.5-1-.5-1.3v-.1c-.2 0-.4-.3-.5-.6-.1-.4-.4-.6-.5-.6-.1 0-.3-.4-.4-.9-.1-.5-.3-.8-.5-.8s-.3-.2-.3-.8c0-.5-.2-.7-.5-.8-.3 0-.4-.3-.4-.8 0-.4 0-.6-.3-.7-.3-.1-.4-.3-.4-.6s-.2-.7-.4-.8l-.4-.7-.2-.5a.2.2 0 0 1-.1-.3s0-.2-.1-.1c-.2 0-.3-.2-.4-.5 0-.4-.1-.5-.4-.5-.3 0-.4-.2-.4-.5 0-.7-.2-1.1-.5-1.1 0 0-.3-.2-.4-.5 0-.2-.3-.4-.4-.4-.1 0-.3-.3-.3-.7-.1-.5-.3-.8-.5-.8-.1 0-.2-.1-.2-.4 0-.2-.2-.4-.4-.5-.2 0-.4-.2-.4-.5 0-.2-.1-.3-.2-.3-.2 0-.2-.2-.2-.3.1-.2 0-.3-.2-.4-.2 0-.4-.2-.4-.3 0-.4 0-.6-.3-.6-.1 0-.4-.3-.5-.7-.1-.4-.3-.7-.4-.7-.1 0-.3-.2-.4-.5 0-.2-.3-.5-.5-.5-.1 0-.3-.1-.3-.3 0-.2-.1-.4-.3-.5-.2 0-.4-.3-.5-.7l-.5-.7c-.2 0-.3-.3-.3-.7 0-.2-.2-.3-.6-.2l-.1-.4c0-.3-.2-.5-.4-.5s-.4-.3-.4-.5-.1-.4-.4-.4c-.3 0-.4 0-.4-.4a1 1 0 0 0-.4-.8c-.2-.1-.4-.3-.4-.5 0-.1 0-.2-.2-.2 0 0-.1-.1 0-.2 0-.1 0-.2-.2 0-.3 0-.4-.2-.4-.7l-.5-.3c-.2-.1-.4-.3-.3-.4 0-.1 0-.3-.3-.3-.2 0-.4-.3-.4-.4 0-.2-.2-.4-.4-.4s-.4-.2-.4-.4c0-.1-.2-.4-.5-.5-.3-.2-.5-.5-.5-.6 0-.2-.2-.3-.4-.3s-.4-.2-.4-.4c0-.3-.1-.6-.3-.7-.1-.2-.3-.3-.3-.2l-.3-.4-.4-.4c0 .1-.2 0-.4-.3-.1-.3-.3-.5-.4-.5l-.3-.5c0-.3-.2-.5-.3-.5-.1.1-.8-.4-1.5-1.1a7.4 7.4 0 0 0-1.5-1.3c-.1 0-.2 0 0-.1 0-.2-.6-.7-1-.7-.2 0-.4-.2-.4-.4s-.3-.4-.5-.4-.4-.3-.4-.4c0-.2-.2-.4-.4-.4s-.4-.2-.3-.3c.1-.2-.4-.7-.5-.5-.1 0-.3-.1-.4-.4 0-.3-.3-.5-.4-.5-.2 0-.4-.2-.5-.4 0-.3-.2-.4-.4-.3-.1 0-.2 0-.2-.3 0-.2-.1-.4-.2-.3-.1 0-.4-.1-.7-.4l-1-.6c-.2 0-.5-.3-.6-.5 0-.2-.2-.4-.3-.4-.2 0-.4-.1-.4-.4 0-.2-.3-.3-.5-.3l-.3-.2c0-.1-.2-.3-.6-.4-.3-.2-.5-.3-.4-.4.1-.3-.6-.6-1.1-.6l-.4-.1c.3-.2-.2-.7-.6-.7-.2 0-.4-.1-.4-.3 0-.2-.3-.3-.7-.4-.5 0-.7-.2-.7-.5 0-.2-.1-.4-.3-.4-.2 0-.5-.1-.5-.4 0-.2-.3-.3-.4-.3-.2 0-.3-.2-.3-.4 0-.3-.2-.4-.4-.5a4.4 4.4 0 0 1-1-.1l-.2-.3c0-.2-.3-.4-.6-.5l-.5-.4-.6-.3c-.4 0-.7-.3-.8-.5 0-.2-.3-.4-.6-.4-.2 0-.4 0-.3-.2 0-.2-.5-.5-1.2-.5-.1 0-.3-.2-.4-.5 0-.3-.2-.4-.8-.4-.5 0-.7 0-.7-.3 0-.4-.1-.4-.8-.4-.6 0-.7-.1-.7-.4 0-.3-.2-.4-.4-.4-.3 0-.6-.2-.8-.4-.2-.2-.6-.4-.9-.4-.5 0-1-.3-.9-.5 0-.1-.2-.2-.5-.2a2 2 0 0 1-1-.5c-.1-.2-.5-.4-.7-.4a1 1 0 0 1-.7-.4 1 1 0 0 0-.8-.4c-.2 0-.6-.1-.8-.3-.2-.2-.6-.5-.9-.5-.3 0-.6-.2-.7-.4l-.3-.2c-.6-.1-1.2-.4-1.3-.6 0-.2-.5-.4-1.1-.4-.6-.1-1-.3-1-.4 0-.3-.6-.5-1.3-.5-.3 0-.5-.1-.5-.3 0-.3-.4-.5-1.4-.5-.7 0-.9 0-1-.4 0-.3-.2-.4-.7-.4-.6 0-1.5-.3-1-.4.4 0-.8-.3-1.5-.3-.6 0-1-.2-1.2-.4-.2-.3-.5-.4-1-.4s-1-.2-1.2-.4c-.3-.3-.7-.4-1.4-.4-.5 0-.9 0-.8-.2.2-.3-.7-.6-1.9-.6-1 0-1.2 0-1.2-.4 0-.3-.1-.4-1.5-.4s-1.6 0-1.7-.4c0-.3-.2-.4-.8-.4-1.7 0-2.3-.1-2.4-.4-.2-.3-.5-.3-2.4-.5-1 0-1.5-.2-1.7-.4-.2-.3-.8-.4-3.3-.4-.9 0-1.4-.1-1.4-.2.3-.4-.7-.6-3.5-.6-2.3 0-3-.1-3-.3-.2-.2-.3-.3-.4-.2l-.3-.1c-.2-.3-27.5-.3-28 0m21.8 6.6c.1.3.6.3 4 .4 3.2 0 4 .1 4.3.4.4.4.6.4 3.3.4 1.7 0 2.1.1 2.1.3 0 .4.7.5 2.4.5 1.2 0 1.5.1 1.8.4.2.3.6.4 1.6.4s1.4.1 1.7.4c.3.3.6.4 1.6.4.9 0 1.2 0 1.5.4.3.3.7.4 1.6.4 1 0 1.3 0 1.5.4.2.3.5.4 1.2.4s1 0 1.3.4c.2.2.5.3 1.2.3.8 0 1 .1 1.4.4.2.3.6.4 1.3.4.5 0 .9.1.8.2 0 .2.4.5 1.1.7.3 0 .4.2.3.6l-.1 1c0 .3 0 .4-.2.4 0 0-.2 0-.3.3a65.1 65.1 0 0 1-1.9 5.3c0 .4 0 .7-.2.7-.2-.2-.5.5-.5 1.4 0 .6-.1.8-.4.9-.4 0-.4.2-.4.9 0 .4-.1.8-.2.7-.2-.1-.5.3-.6 1 0 .3-.2.6-.4.7l-.4 1.2c0 .6-.2 1-.4 1.1-.3.2-.4.4-.4 1.3 0 1 0 1-.4 1-.3 0-.4.2-.4.8 0 .5 0 .9-.3 1-.3.3-.3.3-.2 0 .1-.2.1-.2 0-.1-.2 0-.3.6-.3 1.2 0 1 0 1-.3 1s-.4.2-.5.6c0 .7-.2 1.3-.4 1.2-.1 0-.3.3-.4.7l-.4 1-.3.5-.1.5v.7c-.1.3-.2.5-.5.6-.3 0-.4.3-.4.8 0 .4 0 .7-.2.7s-.6 1-.6 1.4c0 .2-.1.4-.3.5l-.2.3c.1 0 0 .2 0 .2-.2 0-.3.3-.3.7 0 .6 0 .9-.3 1l-.4.4c0 .6 0 1.2-.3 1.2-.2 0-.3 0-.2.2l-.1.2c-.1 0-.2.4-.2 1 0 .8 0 1-.4 1-.2 0-.3.1-.4.7 0 .4-.2.9-.4 1-.3.3-.4.7-.4 1.3 0 .8-.1 1-.5.8l-.3.9c0 .4-.2.8-.3.8-.2-.1-.4.5-.4 1.3 0 .4-.1.6-.2.6-.2-.3-.6.4-.6 1.1 0 .6-.2.9-.4 1l-.5.9c0 .3-.2.6-.4.8l-.3.5c0 .9-.3 1.7-.6 2l-.4.8-.4.8c-.2.2-.4.6-.4 1s-.1.8-.4 1c-.2.3-.4.6-.4 1.1 0 .5 0 .7-.2.7-.2-.2-.5.5-.5 1.1 0 .3-.2.6-.4.7-.2.1-.4.5-.4.8 0 .4-.2.9-.4 1l-.4 1.2c0 .4-.2.8-.3.8-.3 0-.5.5-.5 1.3 0 .4 0 .6-.2.5-.2-.1-.6.7-.6 1.5 0 .4-.1.6-.4.8-.3.1-.4.4-.4.8 0 .5 0 .7-.4.8-.2 0-.4.2-.3.4 0 .9 0 1.9-.3 1.9s-.5.4-.5 1.1c0 .3-.1.5-.4.5-.3 0-.4.1-.4.3 0 .2-.2.3-.4.4-.4 0-.5.3-.4.7l-.3.1c-.2 0-.4.3-.5.8l-.4.4c-.2.2-.2.2 0 .1s.3 0 0 0c0 .2-.3.3-.6.4-.2 0-.5.2-.5.3 0 .2-.3.4-.6.4h-.7l-.4.5c-.1.3-.3.5-.5.5-.3 0-.4.6-.4 1.8 0 .8.1 1.1.3 1.1.2 0 .4.2.5.5 0 .3.3.5.4.4.3 0 .8 1.7.5 1.8v.4c.2.6-2.4.3-3-.3l-.7-.8s-.5-.2-1.1-.2c-.7 0-1.3-.2-1.5-.4-.2-.2-.8-.3-1.5-.4-.9 0-1.2-.1-1.2-.4-.1-.3-.3-.4-.8-.4-.4 0-.7-.1-.9-.4-.1-.2-.4-.4-.6-.4-.3 0-.4 0-.3-.2 0 0-.1-.3-.4-.4-.3-.1-.5-.3-.5-.5 0-.1-.2-.3-.5-.4-1-.2-1-.2.3-.2 1 0 1.2-.1 1.2-.4l.4-.4c.2 0 .4-.2.4-.3v-.5l.1-1.3c0-.8.1-1 .5-1.1.2 0 .4-.2.3-.4 0-.7 0-1.1.4-1.1.1 0 .4-.3.5-.6 0-.3.2-.6.3-.5.2.1.4-.4.4-1 0-.2.2-.4.4-.4s.4-.3.4-.5.1-.4.4-.4c.2 0 .4 0 .3-.2 0 0 .1-.4.4-.6.3-.3.5-.7.5-1 0-.3.1-.5.4-.6.7-.2.5-1.4-.3-1.3-.4 0 0-.4 1-1.4.7-.6 1.2-1.3 1.3-1.5 0-.3.2-.7.4-.8.2-.2.3-.5.3-.8 0-.2.4-.7.8-1.2l.6-.8.4-.2.6-.1V72l.5-.5c.6-.4.5-3.4-.1-3.5-.2 0-.4-.2-.3-.3 0 0 0-.2-.3-.3-.5-.1-.6-3.7 0-3.6.2 0 .2.1.2-2.3 0-2-.2-3-.5-2.9l-.1-5.3-.1-6c-.1-.4 0-.7.3-1 .3-.2.5-.5.5-.6l.4-.4c.2-.2.4-.4.4-.6 0-.2.2-.2.4-.2.2.1.3.1.2 0-.2-.2.3-.7.8-.7.2 0 .4-.2.6-.4.1-.3.4-.4 1-.4s.8 0 1-.4c0-.2.2-.3.4-.3.3 0 .3-.2.3-1 0-1-.3-2-.6-1.9h-.1c0-.2-.2-.3-.4-.3-.3 0-.4-.1-.4-.3 0-.2.2-.5.4-.6.2-.2.4-.4.4-.7 0-.2 0-.3.2-.3.1 0 .3-.2.4-.6.1-.3.4-.6.5-.6.2 0 .3-.2.4-.4 0-.2.4-.4.7-.6.4-.1.8-.4.8-.5.1-.2.4-.3.6-.3.5 0 1.1-.4 1-.6-.1-.1.2-.2.7-.2.8 0 1 0 1-.3.1-.2.4-.5.9-.6.4 0 .7-.2.6-.3 0-.2.3-.3.8-.3l.9-.1v-2c0-1.8 0-1.9-.3-1.9-.2 0-.6-.1-.8-.4-.2-.2-.6-.3-.8-.3a.9.9 0 0 1-.6-.4c-.4-.6-2.7-.6-2.8 0 0 .2-.3.4-.4.4-.2 0-.4.1-.4.3-.1.3-.3.4-.5.4s-.6.3-.8.5c-.2.3-.5.4-.7.4-.2 0-.3 0-.4.3 0 .2-.3.4-.7.5-.4 0-.7.2-.8.4 0 .1-.4.3-.9.4-.5 0-.8.2-.9.5 0 .2-.2.4-.5.4-.2 0-.4.1-.4.4 0 .2-.1.4-.4.4-.2 0-.4 0-.4.3s-.1.5-.3.6c-.3.2-.4.5-.4 1.3 0 .2-.2.5-.4.6l-.4.7c0 .2-.2.4-.4.4-.3 0-.4.1-.4.4v.5l-.2-.5c-.1-.2-.3-.4-.5-.4s-.3-.2-.3-.4c0-.6-2-.6-2 0l-.5.5c-.7.2-.7 2.2 0 2.2.2 0 .4.2.4.4 0 .4 0 .4.7.4s.8 0 .8.4c0 .3-.1.4-.3.4-.6 0-1.2.6-1.3 1.1 0 .3-.1.1-.1-.5 0-.7-.1-1-.4-1.2-.7-.4-2.7-.1-2.6.3 0 .1-.3.3-.7.4-.6 0-.9.2-1 .5 0 .2-.2.4-.3.4-.7 0-.8 3.3-.2 3.4.3.1.5.3.5.5s.1.4.3.5c.3 0 .4.2.4.3 0 .1-.1.2-.3.1h-.2v.3c-.2 0-.2.7-.2 1.8 0 1.5-.1 2-.3 2-.3 0-.5.3-.5 1s-.7.5-.9-.3c0-.2-.3-.4-.4-.4l-.3-.1c0-.5-.3-1-.7-1.2-1-.3-3.2 0-3.4.3-.1.2-.3.4-.4.3-.6-.3-.6 4 0 4.6.3.4.3.4 0 .5-.2 0-.3.2-.3.4s-.1.4-.3.3c-.3 0-.4.2-.5 1.2 0 .2-.1.4-.3.4-.2 0-.4.1-.5.3 0 .4-.5.6-1.2.7l-.1.3-.1.2c-.2 0-.2.1-.2.2v2.2h-1.2c-1 0-1.1.1-1.2.5l-.3.6c-.2.1-.3.3-.2.5.1.1 0 .2 0 0-.2 0-.3.3-.3 1.1 0 1 0 1.2.5 1.3h-1.6c.1-.2.3-.3.4-.3.6 0 .7-2.5.1-2.6l-.4-.4c0-.6-2.1-.9-2.5-.3l-.7.4-.7.3v-.8a9.2 9.2 0 0 0-.2-1.5c0-.1-.1-.2-.3-.2-.2 0-.4-1.7-.3-2.6l-.3-.5c-.4-.3-.4-.6-.5-1.8 0-1.2 0-1.4-.4-1.5-.3 0-.3-.3-.3-1.2 0-2.2-.3-3.1-.6-2.9-.1 0-.2-.2-.2-.7 0-1.5-.2-2.1-.5-2.4-.2-.1-.3-.7-.4-1.6 0-.9-.2-1.4-.4-1.5-.2-.2-.3-.8-.4-1.9-.1-1.8-.2-2-.5-1.9-.1.1-.2 0-.1 0v-.3c-.2 0-.3-.8-.3-1.6 0-1.3 0-1.5-.4-1.6-.3-.1-.4-.3-.4-1.6s0-1.5-.3-1.6c-.4 0-.4-.3-.4-1.5s-.1-1.4-.4-1.6c-.4-.2-.4-.5-.4-1.6 0-1.2 0-1.5-.4-1.7-.3-.2-.4-.4-.4-1.4 0-1.4-.1-1.8-.5-1.8-.2 0-.3-.4-.3-1.4 0-1 0-1.3-.4-1.5-.3-.3-.4-.5-.4-1.6 0-1 0-1.4-.4-1.8-.3-.3-.4-.7-.4-1.7s-.1-1.3-.4-1.5c-.6-.5-.6-2.7.1-2.7.3 0 .7-.2 1-.4.2-.3.6-.4 1.8-.4 1.9 0 2.2-.1 2.2-.5 0-.2.4-.3 1.8-.3 1.5 0 1.8 0 2.1-.4.3-.3.7-.3 2.7-.4 1.4 0 2.5-.1 2.7-.2.2-.2.2-.2 0 0 0 .2 0 .3.1.2.2-.1.3-.3.3-.5s.5-.2 3-.3c5.3 0 6.4-.1 6.4-.6 0-.3 13-.2 13.1.2m-41.6 5.4c0 .7.1 1 .4 1.2.4.2.4.4.4 1.7 0 1.2 0 1.4.4 1.5.4.1.4.3.4 1.6 0 1.4 0 1.6.4 1.7.3 0 .4.2.4 1.5s0 1.5.4 1.6c.3.1.4.3.4 1.4 0 1.4.1 1.9.5 1.9.2 0 .4 1.5.3 2.4 0 0 .1.3.4.5.2.3.3.7.4 1.4 0 1.4 0 1.8.4 2 .2.2.3.7.3 1.5 0 .9.2 1.3.4 1.6.3.2.4.7.5 1.9l.1 1.6h.3c.2-.1.3 0 .3 1 0 1.7 0 1.8.4 2 .3.2.4.7.5 1.6 0 1 .2 1.5.4 1.6.2.2.4.6.4 1 0 2.4 0 2.6.3 2.6.4 0 .5.5.5 2.1 0 1.3 0 1.5.4 1.6.4 0 .4.3.4 1.7s0 1.7.4 2c.3.4.4.7.4 1.8 0 1.3.3 2 .7 1.7l.1 1.4c0 1.4 0 1.6.4 1.7.3.1.4.3.4 1.4v1.3h-1.4c-1.1 0-1.4 0-1.6.4 0 .2-.3.4-.6.4-.2 0-.3.1-.3.4 0 .2-.2.4-.4.4s-.5 0-.5.2h-.4c-.1 0-.1 0 0 .2v.3c-.4 0-1 .3-1 .6l-.5.2c-.2 0-.5.2-.5.4s-.2.4-.4.4c-.1 0-.3.2-.4.5 0 .3-.2.5-.4.5-.1 0-.3.2-.3.4l-.4.4c-.2 0-.4.2-.4.4-.1.3-.3.4-1 .4-.6 0-.7 0-.7.4 0 .2-.1.3-.5.3-.3 0-.4.1-.4.2 0 .2 0 .2-.2.1-.3-.1-.3 0-.2.2v.2c-.2 0-.3.1-.3.4 0 .3-.1.5-.4.6-.5.1-.6 4 0 4 .2 0 .4.4.4 1.1 0 .4-.1.6-.6.5l-.2 1.4c0 .1 0 .2-.2.2-.3 0-.8 1-.6 1.2 0 .1 0 .2-.3.3-.2 0-.4.2-.4.3 0 .2-.2.4-.4.6l-.5.6c0 .1-.2.3-.4.3-.1 0-.3 0-.3.2 0 .1-.2.3-.5.4l-.5.5c0 .2-.2.3-.7.3-.5 0-.7 0-.8.4 0 .3-.2.4-.8.4-.5 0-.7 0-.7.3-.1.3-.4.4-.9.5-.5.1-.8.2-.8.4s-.2.3-.4.3c-.7 0-1.1.2-1.1.5 0 .2-.2.3-.5.3s-.7.2-1 .5c-.3.2-.5.4-.6.3l-.3.5-.6.6c-.3 0-.4.3-.4.7 0 .5 0 .7-.4.8-.2 0-.4.3-.4.5s0 .5-.2.5c-.2.1-.4.5-.5.8 0 .4-.2.6-.2.6-.1 0-.3 0-.3.3-.1.2-.3.4-.5.4s-.4.2-.5.4c0 .2-.3.4-.5.5-.2 0-.4.2-.4.3l-.4.5c-.2.2-.4.5-.4.8 0 .4-.1.6-.4.7-.3.1-.4.3-.4 1.3s0 1.1-.4 1.2c-.3.1-.3.3-.3.8 0 .4-.2.8-.4.9-.5.3-.6 1.3-.6 6.9 0 6 0 7 .6 7.2.3 0 .4.3.4.9 0 .6 0 .7.3.7.4 0 .4.1.4.7 0 .5.1.8.4.8.2 0 .4.3.5.5 0 .2.2.4.4.4.1 0 .3.1.4.4 0 .2.3.4.4.4.2 0 .3 0 .3.2s.2.4.4.4c.4.2.6 2.1.2 2-.5 0-.6.2-.6 1.7 0 1.3 0 1.6.3 1.9.2.2.5.5.5.7.1.2.4.3.9.3.4 0 .8.1 1 .3.4.6 3 .7 3.4.1.2-.2.5-.4.8-.4.6 0 1-.3.8-.6 0-.1.6-.2 2.1-.2 1.4 0 2.4 0 2.5-.2.2-.2.3-.1.5 0 .2.2.3.4.2.5 0 0 0 .2.2.2.2.1.3.4.3.6 0 .3.1.5.2.5s.2 0 .1.2c0 .1 0 .2.2.3.8.3 0 .5-2.4.5h-2.8v1.2c0 1.8 0 1.8 3 1.9 1.5 0 2.5.1 2.4.2 0 .1-.2.2-.3.1l-.3.6c0 .4-.2.7-.4.7-.1 0-.3.2-.4.5 0 .2-.2.5-.4.5s-.4.4-.4 1c0 .2-.2.4-.4.5-.5.3-.6 1.1 0 1.3.1 0 .4.3.4.5.2.9 3 .5 3.2-.5 0-.3.2-.4.3-.4 0 0 .2-.1.3-.5 0-.3.3-.6.5-.7.2 0 .4-.3.4-.5 0-.3.4-1 .8-1l.1 1c0 .6.2 1 .4 1.2.3.3.4.7.4 1.1v.7h1.4l1.5-.2c.4-.5.3-2.3-.1-2.7-.3-.2-.4-.6-.4-1l-.2-1.1-.2-.5h1.5c1.4 0 1.6 0 1.9.4l.4.4c1.5-.3 3.1.4 1.9.7-.2 0-.4.2-.4.4l-.4.6-.5 1c0 .3-.2.6-.3.5-.3-.2-.6.7-.6 1.4l.1.8h1.6l1.6-.1c-.1-.1 0-.2.2 0 .2 0 .3 0 .2-.3-.1-.2 0-.3 0-.2.1 0 .2-.1.2-.4 0-.4.1-.5.4-.5.2 0 .4-.2.5-.3v1.3c.1 1.4 0 1.6-.3 1.7-.2 0-.3.2-.3.3.1 0 0 .4-.4.6-.4.5-.5.7-.5 1.7s0 1.2-.3 1.2c-.4 0-.4.1-.5.9v1.2c0 .2-.2.3-.4.4-.2 0-.3.2-.3.3 0 .2-.2.5-.5.8-.3.3-.5.7-.5.9 0 .2-.2.4-.4.5-.2 0-.4.3-.4.5s-.1.4-.3.4c-.2 0-.2.2-.2.3v.2c-.2 0-.3.1-.2.2 0 .4-.1.6-.4.6l-.3.3c0 1.4-3.4 2.8-4.1 1.7-.4-.6-2.6-.6-3 0-.1.2-.4.4-.6.4-.2 0-.4.1-.4.4 0 .2-.2.4-.4.4l-.5.7c-.2.4-.3.6-.1.5l-.1.2c-.3.2-.5.7-.5 1.2s-.2.9-.4.9c-.1 0-.3.1-.3.3-.1.2-.4.3-1 .3s-.7 0-.7.4c0 .2-.1.4-.4.4-.3 0-.4.1-.4.7s0 .8-.4.9c-.2 0-.4.2-.4.4s-.1.3-.3.3l-.7.4c-.5.5-7.2.6-7.2.1 0-.4-.5-.5-3.4-.5-2.8 0-3.3 0-3.3.5 0 .2-.2.3-.4.3a1 1 0 0 0-.6.4c-.1.2-.4.4-.6.4-.2.1-.3.3-.3.5l-.4.4c-.3 0-.4.2-.4.4l-.4.4c-.2 0-.4.2-.4.4l-.4.4c-.7.2-.6 6 .1 6 .2 0 .3.3.3 1.9 0 1.7 0 2 .4 2.1.3.2.4.4.4 1.8 0 1.7.1 2.4.5 2.4s.3.2-.1.6c-.4.3-.4.6-.4 3s0 2.6.4 2.7c.3.1.4.3.4.8 0 .6 0 .8.3.8s.4.2.4.3l-.4.4c-.3.3-.3.6-.3 2.2 0 2.1-.1 2 1.7 2.1.4 0 .8.2.8.3 0 .2.7.4 1.6.5.7 0 .8 0 .8.6 0 .3 0 .6.3.8.3.2.4.5.4.9 0 .5.1.7.4.8.3 0 .4.2.4.7 0 .6.1.8.4.8.3.1.4.3.4.8 0 .4.1.7.4.9.3.1.4.4.4.8 0 .5 0 .7.4.8.2 0 .4.4.5.8.1.3.3.6.4.5.2 0 .3.2.3.5s0 .5.3.6c.3 0 .5.3.5.5l.4.4c.2 0 .3.1.3.3 0 .3.1.4.2.4s.2.1.1.2c0 .1.1.3.4.4.3.1.5.3.4.4 0 .1.1.3.4.5l.4.3c-.2 0 1.9 2 2.4 2.2.4.1.6.4.7.6 0 .2.2.3.4.3.1 0 .3.2.4.5 0 .2.2.3.4.3.2-.1.3 0 .4.3 0 .3.2.5.3.5l1.2 1c1.2 1.2 1.6 1.4 3.4 1.4 1.1 0 1.5 0 1.5.2 0 .3.7.7 1 .6v.3c0 .2 0 .3.1.2h.3l.5.2c.3 0 .4.2.4.4 0 .3.2.4.4.4s.4.2.6.4c.1.3.4.4 1 .4.9 0 1-.1 1-.6l.6-.2c.5 0 .8-.1 1-.4 0-.2.3-.4.7-.4.2 0 .4 0 .3.2-.2.2.3.6.7.6.2 0 .4 0 .4.2l.1.6c.8-.1 1.3 0 1.3.4s0 .4 1.7.4 2.8-.3 2.8-.6c0-.1.4-.2 1-.2.7 0 1 0 1 .3s.3.5 1.8.5c.7 0 1.3.2 1.3.2 0 .4 2.4.7 6.9.8.2 0 .3.1.3.3 0 .1.2.3.5.3h1c.7 0 1.1.3 1 .6l.3.1c.3 0 .5.2.4.7 0 .1.3.2.6.1l.1.4c0 .2.2.4.4.5.2 0 .4.3.5.5 0 .2.2.4.4.4s.3.2.3.4c0 .6 4.5.6 4.7 0 0-.2.2-.4.4-.4.3 0 .4-.2.4-.4 0-.3.1-.4.4-.4.5 0 1.2-.4 1.2-.7 0-.2.1-.2.3-.2.2.1.3 0 .4-.3.2-.4.2-.4.2 0 0 .2.2.5.5.8l.4.4h13l.5-.6.6-.8s.1-.2.4-.2c.2 0 .4-.1.5-.3 0-.2.3-.5.6-.5.2-.1.4-.2.3-.3 0-.1 0-.2.2-.1.2 0 .4 0 .4-.2s.3-.3.4-.3l.4-.4c0-.2.2-.4.4-.4s.4-.2.4-.4c.1-.3.3-.4 1.4-.4 1 0 1.3 0 1.6-.4.2-.3.5-.4 1.3-.4.9 0 1 0 1.3-.4.1-.3.4-.4 1.5-.4 1.2 0 1.4 0 1.6-.4.2-.2.5-.4.8-.4.4 0 .6 0 .7-.3 0-.3.3-.4.5-.4s.4-.2.5-.4c0-.3.3-.4.9-.4.6 0 .7 0 .7-.4 0-.3.1-.4.4-.4.3 0 .6-.5.7-1.3 0 0 .1-.2.3-.1l.3-.5c0-.3.4-.9.6-1.2l.5-.7.1-.1h.3l1-.1c.4 0 .8-.2.9-.3 0-.1.1-.2.3 0v-.3c0-.2.1-.3.5-.4.3 0 .6-.2.6-.4l.4-.5c.3-.2.4-.4.4-1.6 0-1.4 0-1.5 1-1.4l.3-.3c.2-.2.4-.4.6-.4.3 0 .4-.1.4-.4 0-.3.2-.4.5-.4 1 0 1.2-.6 1.3-2.4 0-.6.1-1 .4-1.3l.4-.8.1-.4c.4 0 .7-1.1.7-3.3 0-1.9 0-2.4.2-2.4.3 0 .5-.8.5-2.2l.2-1c.2 0 .2-.2.1-.3 0-.1 0-.2.2-.3.2 0 .3-.4.3-1 0-.8 0-.8.5-.7.3 0 .4.2.4.4s.2.3.9.4c.5 0 .9.2.8.3 0 .3 0 .5.4.6.2 0 .3.2.3.4 0 1.4 0 2.4.5 2.5.2 0 .3.3.3.5l.2.4c1 .1 1.5.3 1.6.4.4.6 4 .8 4.4.2l.5-.4c.6 0 1-.2 1-.5 0-.1.2-.4.5-.5l.5-.4v-.6c0-.3.1-.5.4-.6.2 0 .4-.2.4-.4l.3-.4c.3 0 .4-.2.4-.4s.2-.3.4-.3c.3 0 .4-.1.4-.4 0-.3.2-.4.4-.4.3 0 .4-.1.4-.4 0-.3.1-.4.4-.4.3 0 .5-.1.5-.3 0-.3.3-.5.5-.5s.4-.2.4-.4.2-.3.4-.4c.2 0 .4-.2.4-.4 0-.3.2-.3 1.4-.3 1.3 0 1.5 0 1.6-.4 0-.2.3-.4.5-.5.2 0 .4-.2.4-.5 0-.2 0-.4.2-.3h.2c0-.2 0-.3.2-.2 0 0 .2 0 .2-.3 0-.2 0-.3.2-.3 0 0 .3 0 .4-.3.2-.3.2-.3.5 0 .3.4 2.4.4 2.7 0 .1-.2.4-.4.6-.4.3 0 .7-.2 1-.5l.8-.4.2-.2c0-.5 0-.8.3-.7.3.2.5-.4.5-2.1 0-1.5 0-1.7.4-1.8.4-.1.4-.3.4-1.1 0-.6-.1-1-.2-1-.2.4-.6-.4-.6-1.3s0-1-.4-1.2c-.5-.1-.5-1.7 0-2 .3-.2.4-.4.3-1.7 0-2 0-1.8-.4-1.8-.2 0-.3-.3-.3-1.5 0-1 .1-1.5.3-1.4.1 0 .2-.1.2-.3l.1-.5c.4-.2.3-2-.2-2.3-.3-.3-.4-.6-.4-1.8 0-2.4-.2-3-.5-2.7-.1 0-.3-.3-.3-.7-.1-.5-.3-.8-.3-.7-.1 0-.3-.2-.4-.6l-.4-1c-.3-.3-.2-.4.3-.4.7 0 1.7-.3 1.5-.5 0 0 .1-.2.4-.3.4-.2.5-.4.5-1 0-.4.1-.6.4-.7.3 0 .4-.2.4-1.2 0-.9 0-1 .4-1.1.5-.2.5-2.1 0-2.1-.1 0-.3-.2-.3-.4s-.3-.5-.5-.5a.6.6 0 0 1-.4-.5c0-.3-.1-.4-.4-.4-.2 0-.4 0-.4-.2 0 0-.1-.2-.4-.3-.5-.2-.6-6 0-6 .3 0 .5-.6.4-1.7 0-1.2-.1-1.4-.5-1.4-.2 0-.3-.3-.3-.8 0-1.3-.1-1.8-.4-2-.4-.2-.4-.5 0-.6.7-.2.7-13.2 0-13.4-.3 0-.3-.3-.3-1.5l-.2-1.6c-.1 0-.2-.2-.1-.3l-.3-.4-.4-.4c0-.2-.4-.6-.8-1-.4-.3-.8-.9-.9-1.1 0-.3-.2-.6-.3-.7-.2 0-.4-.4-.5-.8 0-.5-.3-.8-.4-.7-.1 0-.3-.2-.3-.5s0-.5-.3-.6c-.3 0-.4-.3-.4-.8 0-.4-.1-.7-.4-.7-.2-.1-.4-.3-.4-.5l-.4-.4c-.2 0-.4-.2-.4-.4l-.4-.4a.7.7 0 0 1-.5-.4c0-.2-.2-.4-.4-.4-.1 0-.3-.2-.3-.4 0-.3-.1-.4-.4-.4-.3 0-.4-.1-.4-.6 0-.3.1-.6.3-.6.5 0 .5-.5.1-.9-.2-.3-.3-.7-.4-1.7 0-1.3-.2-2-.5-1.8-.1 0-.3 0-.3-.4-.1-.4-.3-.5-.7-.5-.9 0-1.5-.7-1.1-1.2.2-.4.3-1.3.1-2.4 0-.2 0-.2-.2-.2-.1 0-.3 0-.4-.4-.2-.4-.3-.5-2.2-.5-1.6 0-2 0-2-.3 0-.1 0-.3-.3-.4a.7.7 0 0 1-.5-.5c0-.2-.2-.3-.5-.4h-1c-.4 0-.7-.2-.8-.4-.1-.3-.3-.3-1.1-.3-.5 0-1 .1-.9.2.2.3-.3.4-1.2.5-.6 0-.9-.1-.9-.3 0 0-.1-.2-.4-.3-.2 0-.4-.3-.4-.5 0-.4-.2-.5-.6-.4l-.1-.4c0-.2-.2-.4-.5-.5-.3 0-.5-.2-.4-.3.1-.2-.9-.6-1.7-.6l-.7-.1c.2-.3-.5-.6-1.3-.6-.4 0-.5-.1-.5-.4.1-.2 0-.2-.2-.1l-.5-.1c-.3-.5-2.9-.2-2.9.3 0 .2-.2.3-.8.3-.7 0-1-.1-1-.3 0-.4 0-.4-1.5-.4-1 0-1.7.1-1.5.5 0 0-.3.2-.8.2-.5.1-.8.3-.8.5s-.8.2-4.6.3c-5.3 0-4.8 0-5.6.5l-.9.4-.1.3c0 .2-.3.3-.8.4-.5 0-.8.2-.8.4s-.3.3-1.4.3a27.7 27.7 0 0 0-2.4.2c-.1 0-.3.2-.3.4s-.2.4-.3.4c-.7-.1-.7 4 0 4.4.4.3.3.3-.9.3-1 0-1.4 0-1.6.4-.3.3-.6.4-1.6.4-1.6 0-1.7-.4-.5-1.4l.8-.9.5-.6c.3-.4.5-.7.5-1.3l.1-.7c.7 0 .9-3.4.3-3.8l-.5-1c0-.5-.1-.6-.4-.7-.5 0-.5-1 0-1 .1 0 .3-.2.3-.4v-.5l.1-.8c0-.4.2-.7.3-.7.3 0 .6-.4.6-1 0-.2.1-.5.3-.7.3-.3.4-.7.4-1.3 0-.7.1-.9.4-1 .3 0 .4-.2.4-.9 0-.4 0-.8.1-.7.3.3.7-.3.7-1 0-.6 0-.8.3-.8.2 0 .3-.1.2-.2v-.2c.2 0 .3-.4.3-.9 0-.7 0-.8.4-1 .3 0 .4-.2.4-.8 0-.5 0-.7.3-.8.3 0 .4-.3.4-.7 0-1 .2-1.3.6-1.3.2 0 .2-.2.2-.9 0-.6.1-.8.4-1 .3 0 .4-.3.5-.8 0-.5.2-.8.3-.8.2 0 .4-.6.5-1.6l.5-1c.2 0 .4-.4.4-.7 0-.4.1-.7.3-.7l.3-.3c-.1-.4.2-1.4.5-1.5l.4-1c0-.5.3-1.1.5-1.3.2-.2.3-.6.3-1 0-.3.1-.5.3-.5l.4-.2V56l.1-1c0-.6.1-.8.4-.8.3-.1.4-.3.4-.8s.1-.8.4-1c.3-.2.4-.5.4-1.2s0-.9.4-1c.3 0 .4-.2.4-.8 0-.5 0-.7.4-.8.3 0 .4-.3.4-1 0-.5 0-.8.2-.7.2.1.5-.6.5-1.5 0-.7.1-.8.4-.8.4 0 .4-.1.4-.8 0-.6.1-.7.4-.8.4-.1.4-.3.5-1.9 0-.4.1-.5.6-.4l.1-.3.1-.5v-.6c0-.2.2-.4.4-.4h.2c0-.2 0-.6.2-1 .1-.4.2-.7.1-.8l.3-.3c.2-.2.4-.6.4-1 0-.2.2-.7.5-.8.2-.2.4-.6.4-1s0-.8.3-1c.3-.2.4-.6.4-1.2s.1-.8.4-.9c.3 0 .4-.2.4-.8 0-.4.1-.7.3-.9.2-.1.4-.6.4-1 .1-.6.3-1.1.5-1.3.2-.2.4-.6.4-1 0-.3.1-.6.3-.6l.2-.3v-.2l.2-.8c0-.5.2-1 .5-1.2.2-.3.4-.6.4-1.2 0-.8 0-1 .3-1 .4 0 .4 0 .4-.7 0-.5.2-.8.4-1l.4-.6.1-1c0-.4.1-.7.4-.7.2 0 .3-.2.3-.3 0-.2.2-.3.5-.3s.5 0 .5.3l.2.3c.8 0 1.3.2 1.5.5l1 .4c.4 0 .9.2 1 .3.3.3 1.2.6 1.4.6l.4.3c.1.3.4.4 1 .4s.7 0 .7.4c0 .3.2.4.8.4.6 0 .8 0 .9.4 0 .3.2.4.8.4.6 0 .7 0 .7.4 0 .2.1.4.4.4.2 0 .6.1.8.4.2.2.6.4.9.4l.4.1c0 .5.1.6.8.7.4 0 .7.1.7.3 0 .1.2.3.5.4.3 0 .5.2.5.3 0 0 .3.3.7.4.3.1.7.4.7.6 0 .1.2.3.4.3.7 0 1 .2 1.4.6l.5.4c.2 0 .2 0 .2.3v.2c.4 0 1.5.3 1.5.5s.2.4.6.5l.5.4c-.1.1.2.2.5.3.5 0 .7.3.8.5 0 .2.3.4.5.4.3 0 .4.1.4.4 0 .3.1.4.4.4.2 0 .5.1.5.3l.3.2h.2c0 .2.2.3.5.3s.5 0 .5.4c0 .2 0 .4.4.4.2 0 .3 0 .3.4 0 .2.2.3.5.3.4 0 .5.2.5.4s.1.2.3.2c.2-.1.3 0 .2 0 0 .1.1.2.4.2.4 0 .5.1.5.4 0 .3.1.4.4.4.2 0 .4.1.4.3 0 .2.2.4.4.4l.4.4c0 .2.1.4.4.4.2 0 .4.3.5.5 0 .2.1.3.2.3s.4 0 .6.3l.4.2.2.2c.1.2.4.3.5.3l.4.4c0 .3.2.4.5.4l.4.2c-.1.4 0 .6.4.6.2 0 .4 0 .3.2 0 .4.1.6.5.6.2 0 .4.1.4.4 0 .3 0 .4.3.4s.4.1.4.4c0 .2.2.4.4.4.3 0 .4.1.4.4 0 .2.2.4.4.4.3 0 .4 0 .4.3s.1.4.4.4c.3 0 .4.2.4.4 0 .3.1.4.4.4.2 0 .4.2.4.4 0 .3.1.4.4.4.2 0 .4.1.4.4 0 .2 0 .4.3.4.1 0 .3.2.4.5.1.3.4.5.5.5.2 0 .3 0 .3.2 0 .3 1.1 1.5 1.3 1.4l.4.7c.1.5.4.8.6.8.1 0 .3.2.3.4s.3.4.4.4c.2 0 .4.2.4.4s0 .4.4.4c.2 0 .3.1.3.3 0 .2.2.3.4.4.3 0 .4.3.4.6s.1.4.3.3c.1 0 .1 0 0 .2 0 .2 0 .3.2.2h.3c0 .4.3 1.1.5 1.1s.3.2.3.4.2.4.4.5c.2 0 .4.2.4.4 0 .1.1.3.4.4.3 0 .6.7.6 1.1 0 0 0 .2.3.2.1 0 .3.1.3.3 0 .4.4.9.6.7l.1.3c0 .3.2.5.4.6.2 0 .4.3.5.6 0 .3.4.8.8 1.2l1 1.4c0 .3.3.5.4.5.2 0 .3.2.3.3-.1.5 0 .7.4.7.2 0 .4.2.4.4 0 .6.3 1.2.6 1l.1.5c0 .3.2.5.4.6.3 0 .4.3.4.6 0 .6.2 1 .5 1 .2 0 .3.3.3.6 0 .4.1.7.4.9.2 0 .4.3.4.5l.4.7c.2.2.4.5.4.8 0 .2.1.5.3.6.1 0 .3.2.3.4 0 .6.4 1 .6 1 .3 0 .3.2.3.7 0 .6.4 1.2.7 1l.1.4c0 .6.4 1.3.6 1.2.1-.1.2.1.2.4 0 .7.5 1.9.6 1.7l.3.8c0 .5.2.8.3.8.2-.1.6.5.6.8-.1.6 0 1 .3 1 .2 0 .4.2.4.3 0 1 0 1.3.5 1.4.3 0 .3.2.3 1 0 .7.1 1 .4 1.1.3.2.4.5.4 1 0 .6.2 1 .4 1.3.3.2.4.7.4 1.1 0 .6.1.8.4.8.3.1.4.3.4 1.2 0 .9 0 1 .4 1.1.3.2.6 1.4.4 2.4l.4.1c.3 0 .4.1.4 1.3 0 1.1 0 1.4.4 1.7.3.3.4.6.4 1.5 0 1 0 1.3.3 1.5.3.3.4.7.5 1.8 0 1.1 0 1.5.3 1.7.3.2.4.5.4 2 0 1.3.1 1.8.4 2 .3.3.4.8.5 2.6v2.3h.4c.2 0 .3.4.3 2.1a34.8 34.8 0 0 0 .2 4.2c0 .5.2.8.3.8.2 0 .3.3.3.6a176.7 176.7 0 0 1-1.1 28.8c-.4.4-.5 1-.5 3.2 0 1 0 1.7-.1 1.6-.3-.2-.6.9-.7 2.2 0 1.2 0 1.6-.4 1.8-.2.1-.4.4-.3.5 0 1-.1 2.5-.3 2.5-.4 0-.5.6-.5 1.6 0 .6-.2.9-.4 1-.4.3-.4.5-.4 1.5s-.1 1.3-.4 1.6c-.3.3-.4.6-.4 1.3 0 .7 0 1-.3 1s-.5.6-.5 1.6c0 .4-.1.7-.3.9-.3.1-.4.6-.5 1.3 0 .7-.2 1-.4 1s-.3.3-.3.8c0 .4-.3 1-.5 1.1-.2.3-.4.7-.4 1.3 0 .6 0 .8-.3.9-.3 0-.4.3-.4.7 0 .3-.2.7-.4 1-.2 0-.3.4-.4.6l-.1.6-.1.6c0 .2-.1.4-.3.4-.3 0-.5.4-.5 1l-.4.7c-.2.2-.4.6-.4.9 0 .3-.1.5-.4.5-.3.1-.4.3-.4.9 0 .5 0 .7-.4.8-.3 0-.4.3-.4.8 0 .6 0 .8-.3.9-.2 0-.5.3-.5.7l-.3.6c-.1 0-.3.2-.3.5l-.5.6c-.3 0-.4.3-.4.8s0 .6-.4.6c-.3 0-.4.2-.4.5l-.4.9-.4.7c0 .2-.2.3-.4.4-.2 0-.4.3-.4.8s-.2.8-.4.8c-.1 0-.3.1-.3.3 0 .2-.3.6-.5.8l-.3.6c0 .2-.3.5-.5.8-.9 1-1 1.2-1 1.3l-.1.2c-.1 0-.2.1-.2.4 0 .2-.2.4-.4.4s-.4.3-.4.6c0 .2 0 .4-.1.3-.1-.2-.7.3-.7.6l-.3.3-.2.3c.1.1 0 .2 0 .2-.2 0-.2.2-.2.4s-.2.4-.4.5c-.3 0-.4.3-.4.5 0 .3 0 .4-.2.3-.2-.2-.6.3-.6.7 0 .2-.1.3-.2.3-.2 0-.4.3-.5.8-.1.4-.3.7-.4.7-.3-.1-.5 0-.5.3s-.1.4-.4.4c-.2 0-.4.2-.4.4s-.1.4-.3.4c-.1 0-.4.2-.5.5 0 .3-.2.5-.3.5-.2 0-.7 1-.5 1.2 0 .1 0 .2-.3.2-.2 0-.4 0-.4.3 0 .1-.2.3-.5.4-.3.1-.5.4-.5.5 0 .2-.1.3-.3.3-.2 0-.4.3-.5.5-.1.3-.3.5-.4.4-.1 0-.3 0-.3.3 0 .2-.2.4-.4.4s-.3.2-.4.4c0 .2-.2.4-.4.4-.1 0-.2.1-.2.3l-.5.5c-.3.2-.5.5-.5.7 0 .1-.1.2-.3.2 0 0-.3.1-.4.4-.1.2-.3.4-.5.4-.1 0-.3.2-.3.4s-.3.4-.4.4c-.2 0-.4.2-.4.4s-.3.4-.5.4-.4.1-.4.4c0 .3 0 .4-.4.4-.2 0-.3.1-.3.4 0 .2-.2.4-.4.4-.3 0-.4.1-.4.4 0 .2-.2.4-.4.4-.3 0-.5.1-.6.3 0 .4-.6.7-1.1.6-.2 0-.2.1-.2.3.1.2 0 .3-.2.3-.5 0-1 .5-.7.7l-.3.1c-.3 0-.5.1-.6.4 0 .2-.3.4-.5.5-.2 0-.3.2-.3.4 0 .1-.2.3-.4.3s-.4 0-.4.2l-.3.2c-.2 0-.3 0-.3.2 0 .1-.1.3-.4.3a1 1 0 0 0-.6.5c-.1.2-.3.3-.5.3-.1 0-.3.2-.3.4 0 .3-.1.4-.4.4-.2 0-.4.2-.4.4 0 .3 0 .4-.7.4-.5 0-.7.1-.8.4 0 .2-.2.4-.4.4-.4 0-.5.2-.4.6l-.4.2c-.6 0-1.2.3-1 .6 0 .1 0 .2-.5.2-.2 0-.6.5-.5.6l-.4.1c-.2 0-.4.2-.5.4 0 .3-.3.4-.6.4a1 1 0 0 0-.7.4l-.5.4-.5.2c0 .1-.2.2-.3.1-.1 0-.2 0-.3.2 0 .2-.3.3-.5.3s-.4.2-.5.4c0 .2-.3.4-.9.5-.4 0-.7.2-.7.3 0 .1-.2.3-.6.4-.3 0-.6.3-.6.3l-.4.4c-.2 0-.6.3-.8.5-.4.4-.5.5-1.2.5-.2 0-.4.2-.5.4 0 .3-.3.4-.7.4-.5 0-.7.1-.8.4-.1.3-.3.4-.8.4-.6 0-.8 0-.8.4-.1.3-.3.4-.8.4s-.7 0-.8.4c0 .3-.3.4-.8.4s-.7 0-.8.4c0 .3-.2.4-.8.4-.7 0-.8 0-.8.3 0 .4-.1.4-.8.4-.9 0-1.6.3-1.4.6 0 .1-.2.2-.6.2-.6 0-1.4.4-1.2.7l-.6.1c-.4 0-.8.1-1 .4 0 .2-.5.4-1.1.4-.6 0-1 .3-1.2.5-.2.2-.6.3-1.8.4-.2 0-.3.2-.3.4l-.1.2c-.4 0-1.9.3-2 .6-.2.3-.8.4-1.9.4-.4 0-.5.1-.5.4 0 .4-.1.4-1.5.4-1.3 0-1.5 0-1.6.4 0 .4-.3.4-1.5.4-1.3 0-1.5 0-1.6.4 0 .3-.3.4-1.4.4-1.3 0-2.1.3-2 .6.2.1-.3.2-1.2.2-1.5 0-2 0-2 .5 0 .2-.4.3-1.9.3-1.8 0-2 0-2 .4-.1.3-.3.3-2.9.3-2.2 0-2.8.1-2.9.3-.1.4-.7.5-3.7.5-2.6 0-3.7.3-3.3.7l-7.7.1c-7.2 0-7.8 0-8-.3-.2-.3-.7-.4-4-.4-3.4 0-3.9-.1-4.2-.5-.4-.2-.8-.3-2.4-.3-1.5 0-2-.1-2.1-.4-.3-.4-.7-.4-2.8-.4-1.6 0-1.8 0-2-.4 0-.4-.2-.4-1.5-.4-1.4 0-1.5 0-1.6-.4-.1-.4-.3-.4-1.6-.4s-2-.3-1.7-.7h-1c-1 0-1.3-.2-1.5-.5-.3-.3-.6-.4-1.6-.4s-1.3 0-1.3-.3-1.2-.7-1.7-.5l-.7-.3c-.2-.3-.5-.5-.6-.5-1.2 0-1.6-.2-1.8-.5-.2-.2-.5-.4-1-.4-.3 0-.7-.2-.8-.3-.2-.2-.6-.4-1.2-.5-.6 0-1-.2-1.2-.4-.2-.3-.5-.4-1-.4-.3 0-.6 0-.5-.1.2-.3-.6-.7-1.2-.7-.4 0-.6 0-.6-.2.2-.2-.5-.6-1.3-.6-.5 0-.8 0-1-.4 0-.2-.3-.3-.7-.3-.4 0-.7-.2-.8-.4-.1-.3-.4-.4-.9-.4-.4 0-.6-.1-.7-.4 0-.2-.3-.4-.4-.4l-.8-.4c-.2-.2-.6-.4-.9-.4-.2 0-.4-.1-.4-.3 0-.2-.1-.3-.2-.2H73c0-.2-.3-.3-.7-.3-.5 0-.7 0-.8-.4-.1-.3-.4-.4-1-.4l-.3-.3c0-.3-.3-.5-.4-.5h-.5c-.2 0-.4-.2-.5-.4l-.8-.5c-.3 0-.7-.2-.9-.4l-.4-.4a2 2 0 0 1-.7-.4l-.9-.4c-.2 0-.4-.2-.4-.4l-.4-.4-.7-.4-.7-.4c-.2 0-.5-.1-.6-.4l-.7-.4c-.2 0-.3 0-.3-.2l-.7-.5c-.3 0-.7-.3-.7-.5s-.2-.3-.4-.3l-.4-.4c0-.3-.2-.4-.7-.4-.5 0-.7-.1-.8-.4 0-.2-.3-.4-.5-.4s-.4-.1-.4-.4c0-.2-.1-.4-.3-.4a.5.5 0 0 1-.5-.3c0-.3-.4-.5-.8-.5-.5-.1-.7-.3-.7-.6 0-.2-.2-.3-.4-.3s-.4-.2-.5-.5c0-.2-.2-.3-.3-.3 0 .1-.3 0-.6-.3-.2-.3-.5-.5-.7-.5-.2 0-.2-.1-.2-.2s0-.3-.4-.4l-.5-.5c0-.1 0-.2-.2-.1l-.1-.2-.4-.2c-.2 0-.5-.2-.5-.4l-.4-.4c-.2 0-1.3-1.1-1.3-1.4l-.4-.1c-.3 0-.4-.2-.4-.4 0-.3-.1-.4-.4-.4-.2 0-.4-.1-.4-.4 0-.3-.1-.4-.3-.4-.2 0-.5-.2-.5-.4s-.3-.4-.4-.4a.3.3 0 0 1-.3-.3c0-.2-.3-.4-.5-.5-.3 0-.5-.3-.5-.5 0-.1-.1-.3-.3-.3l-.3-.1c0-.3-2-2.4-2.3-2.4-.2 0-.2 0-.2-.2.1-.1 0-.3-.2-.4-.3-.2-.4-.4-.4-.5l-.5-.4c-.3-.2-.5-.4-.5-.6l-.2-.3c-.3 0-1.4-1-1.4-1.3l-.4-.3a.5.5 0 0 1-.4-.5c0-.2-.1-.5-.3-.7-.2-.2-.5-.5-.5-.7 0-.2-.3-.4-.4-.4-.2 0-.3-.1-.3-.4 0-.2-.2-.4-.4-.4-.3 0-.4-.1-.5-.4 0-.3-.2-.4-.4-.4s-.3-.1-.3-.4c0-.5-.4-1.2-.6-1-.1 0-.2 0-.2-.2l-.3-.6c-.2-.2-.5-.5-.5-.7-.1-.2-.3-.4-.5-.4-.1 0-.3-.2-.3-.4l-.4-.8-.4-.6-.2-.1s-.1-.1 0-.2c0-.1 0-.2-.2-.2a.3.3 0 0 1-.3-.3c0-.2-.2-.4-.4-.5-.2 0-.5-.4-.6-.8l-.5-.9c-.2 0-.3-.2-.2-.3 0-.1 0-.2-.3-.3l-.4-.2-.1-.6-.1-.6-.3-.2c-.2 0-.4-.4-.6-.8l-.5-.8-.2-.4c0-.3-.1-.5-.3-.5-.3-.1-.4-.3-.4-.8s-.1-.7-.4-.8c-.2 0-.4-.3-.5-.7 0-.3-.2-.5-.3-.5-.2.2-.4-.3-.4-.8 0-.3-.1-.4-.4-.4-.3 0-.4-.1-.4-.6 0-.4-.1-.7-.4-.8a.9.9 0 0 1-.4-.7c0-.6-.2-1-.5-1l-.4-.8c0-.5-.2-.8-.4-.8-.1 0-.2-.2-.2-.6 0-.4-.2-.7-.4-1-.2-.1-.4-.5-.4-.7 0-.6-.2-1-.5-1-.2 0-.3-.2-.3-.4a4.4 4.4 0 0 0-.2-1c0-.1-.1-.2-.3-.2-.2 0-.3-.3-.4-1 0-.4-.3-1-.5-1.2-.2-.3-.4-.6-.4-.9l-.4-.7c-.2-.2-.4-.6-.4-1a1 1 0 0 0-.4-.8c-.2-.1-.3-.4-.3-.9 0-1-.2-1.6-.6-1.6-.1 0-.2-.2-.2-.7l-.2-1c-.1 0-.2-.1 0-.3h-.6c.1-1 0-1.8-.4-2-.3 0-.4-.2-.4-1 0-1.5-.2-2.1-.6-2-.1.2-.2-.2-.2-.9 0-1.2-.1-1.7-.5-1.7-.2 0-.3-.3-.3-1.2 0-1 0-1.3-.3-1.3l-.2-.2v-.3c-.2 0-.2-.6-.2-1.2 0-.9-.1-1-.4-1.2-.4 0-.4-.3-.4-1.5 0-1.7-.1-2-.5-2.4-.2-.3-.3-1-.4-2.4 0-1.5-.2-2-.4-2.3-.2-.2-.3-.7-.3-1.3 0-3-.1-3.5-.4-3.8-.4-.2-.4-1-.6-8.4a62.3 62.3 0 0 1-.5-11.8c.4 0 .5-1.3.6-5.4.1-3.4.2-4.4.4-4.6l.3-.5.1-2.4c.1-1.6.2-2.2.5-2.4.2-.3.3-.8.4-2.1 0-1.3 0-1.8.3-2 .2-.1.4-.7.4-1.7 0-.9.2-1.5.4-1.6.2-.1.3-.8.4-1.7.1-1 .3-1.5.5-1.6.3-.1.3-.5.3-1.4 0-1 .1-1.3.4-1.5.2 0 .3-.5.4-1.2 0-.7.2-1.2.4-1.3.3-.3.3-.3.4-1.5 0-.5 0-.9.2-.8.3.2.5-.4.6-1.3 0-.6.1-1 .4-1.1.3-.2.4-.5.4-1.2 0-.8 0-1 .4-1.1.3-.1.4-.3.4-.9 0-.6 0-.8.3-.8.3-.1.4-.3.4-.8 0-.4.2-.8.4-1 .4-.3.5-.9.5-1.9 0 0 .1-.2.3-.2l.4-.2V79l.4-.7.5-1c0-.3.2-.6.4-.6s.3-.2.3-.4c0-.6.1-1 .4-1.4.2-.1.4-.6.5-1 0-.3.2-.6.4-.7.1 0 .3-.3.3-.7.1-.3.3-.6.5-.6l.4-.3c-.1-.7 0-1.4.3-1.3.2.1.3 0 .4-.7.1-.5.3-.8.5-.8s.4-.3.4-.4l.4-.8c.2-.2.4-.5.4-.8 0-.2.1-.4.4-.5.3 0 .4-.2.4-.8 0-.7 0-.8.4-.8.2 0 .3-.1.3-.3l.4-.7c.3-.2.4-.6.4-.9 0-.3.1-.4.3-.4.2 0 .4-.3.5-.5.1-.3.3-.5.4-.5 0 0 .3-.3.4-.7.1-.4.4-.7.6-.8.2 0 .4-.2.3-.3 0 0 0-.3.2-.4.2-.2.5-.5.6-.9 0-.3.3-.7.5-.8l.4-.5c0-.2 0-.3.3-.3s.7-.8.5-1c0-.1 0-.2.2-.2.1 0 .3-.2.4-.5.1-.4.4-.7.5-.8.2 0 .4-.2.4-.4 0-.1.1-.3.3-.3.2 0 .4-.2.5-.5 0-.2.3-.4.4-.4l.4-.5c0-.3.3-.6.5-.7.1 0 .3-.3.3-.5 0-.4 0-.5.3-.5s.4-.1.4-.4c0-.3.2-.5.7-.4l.1-.4c0-.2.2-.4.3-.4.2 0 .4-.1.5-.3 0-.2.2-.5.4-.6.2-.2.4-.4.4-.6 0-.1 0-.2.2-.2.1 0 .2-.2.1-.3 0-.1 0-.2.2-.2s.7-.4.7-.6l.1-.2c.3 0 .7-.5.7-.7l.3-.3c.3 0 .4-.2.4-.4l.4-.4c.2 0 .4-.2.4-.4 0 0 .2-.3.5-.4.3-.2.5-.3.4-.4 0-.1.1-.3.4-.4l.4-.4.4-.6.5-.3.3-.4c.2-.3.4-.5.5-.4 0 0 .2-.1.3-.4.2-.3.4-.5.6-.5 0 0 .3-.2.3-.4.1-.2.2-.4.4-.4s.7-.5.6-.6c-.1-.1 0-.2 0-.2.4 0 1-.5.8-.6l.2-.1 1.3-1c.5-.5 1-1 1.2-1 .2-.1.3-.3.3-.5s.2-.3.4-.3c.3 0 .4-.1.4-.4 0-.2.1-.4.3-.4.2 0 .4-.1.4-.4.1-.2.3-.4.5-.4s.4 0 .4-.3.2-.4.6-.5c.3 0 .5-.2.5-.3-.1-.1 0-.2.1-.2.2 0 .4-.2.5-.4 0-.3.3-.4.7-.5.4 0 .7-.2.7-.3 0-.4 0-.6.3-.6.2 0 .4-.1.4-.3l.8-.6c.4-.2.6-.4.6-.5-.1-.2-.1-.2 0-.1.2.2.9-.2 1.2-.7l.5-.3.7-.4c.1-.2.4-.3.6-.4l.5-.4.7-.4c.2 0 .4-.1.3-.2 0-.1 0-.1.2 0 .1 0 .3 0 .3-.2 0-.1.2-.3.5-.4.2-.1.5-.3.5-.5 0-.3.4-.4 1.1-.3.1 0 .3-.1.4-.4 0-.2.2-.4.4-.4s.4-.1.5-.4c0-.2.2-.3.7-.3.4 0 .7-.2.8-.4.2-.3.5-.4.9-.4.5 0 .7-.1.8-.4 0-.3.2-.4.8-.4.5 0 .7-.1.8-.4 0-.4.4-.5 1.1-.4l.3-.4c.1-.3.3-.4.9-.4.5 0 .7 0 .8-.4 0-.2.3-.4.5-.4.7 0 1.1-.2 1.1-.5 0-.1.2-.3.6-.3a5.8 5.8 0 0 0 1.1-.1c.2 0 .3-.2.2-.3 0-.1 0-.2.2-.2 1.2-.2 1.8-.4 1.8-.6 0-.2.4-.3 1-.4.5-.1.8-.2.9-.5 0-.2.2-.4.4-.4 1 .1 1.6 0 1.7-.4.1-.3.3-.4 1.2-.4 1 0 1.2 0 1.3-.4 0-.3.2-.4 1.2-.4.7 0 1.2 0 1.3-.2 0-.1 0-.2-.1 0-.3 0-.3 0 0-.2.1-.3.5-.4 1.5-.4 1.3 0 2-.3 1.7-.6l1-.1c1.1 0 1.3 0 1.4-.4.2-1 1-.5 1 .6m60.9 7.5c-.3.3-.6.6-.7.5l-.1.7c0 .5 0 .7.4.7.2 0 .3.1.3.4 0 .5 1.6.5 2 0 .4-.3.5-1.8.2-2.5-.1-.5-1.6-.3-2.1.2m-4 .8l-.8.4c-.5 0-.8.2-.9.5 0 .2-.2.4-.4.4-.1 0-.3.2-.3.4v.4l-.3-.4c-.3-.5-1-.6-1.5 0-.2.2-.5.4-.8.4-.5 0-.5 0-.6 1.3 0 .8 0 .8 1.6.9 1.2 0 1.8-.1 2.1-.6.1-.2.7-.3 2-.3 1.7 0 1.8 0 2-.4 0-.2.2-.4.4-.4.3 0 .4-.2.4-1 0-.7 0-1.1-.1-1l-.3-.1-.6-.2c-.2 0-.5-.1-.7-.3-.3-.4-1-.4-1.1 0m-10 3.8c-.3.1-.5.3-.5.4l-.4.2c-.2 0-.5.2-.5.4s-.3.4-.5.4c-.2.1-.4.3-.4.5 0 .4-.7.3-.8-.1-.1-.6-1.8-.6-2.1 0-.2.1-.4.4-.6.4-1 .4-.3 3.1.8 3.1l.7.3c.2.4 1.4.6 1.8.4l.5-.2c.2 0 .5-.6.5-1 0-.3.1-.4.2-.4h.3c.1-.2.3-.2.4-.2.2 0 .4 0 .4-.2.1-.2.4-.3 1-.3s1 0 1.3-.4c.2-.2.5-.4.8-.4.6 0 1-.2 1-.5.6-2.5.5-2.6-1.7-2.6l-2.3.2m-5.7 7.8c-.6.1-.5 3 0 3 1 .3 2 0 2-.5l.1-.3c.3 0 .7-1 .6-1.5-.1-.7-1.3-1-2.7-.7m3 8c0 .2.1.4.3.5.3.2.3.2 0 .2l-.6-.1c-.2-.2 0-.7.3-.7 0 0 .1 0 0 .2M54 43.7c-.1.3-.3.4-.8.4s-.8.1-1 .4c0 .2-.3.4-.5.4s-.4.2-.4.4c0 .3-.1.4-.4.4-.2 0-.3.1-.3.4 0 .2-.2.4-.3.4-.2 0-.4.2-.5.4l-.5 1c-.5.8-.4 7 0 7.1.4 0 .5.3.5.8s0 .7.4.9c.2 0 .4.3.4.5 0 .1.1.3.3.3.3 0 .5.1.6.5.1.2.3.4.4.3.1 0 .3 0 .4.3.1.4.4.6 1 .6.3 0 .5.2.5.4.1.3.3.4 1.3.4 1.2 0 1.9.2 1.7.5 0 .1.4.2 1 .2 1 0 1.2 0 1.3-.3.1-.3.3-.4 1-.4.5 0 1-.1 1.3-.4l.8-.4c.2-.1.3-.3.3-.5 0-.1.2-.3.4-.3.3 0 .4-.1.4-.3 0-.3.2-.5.4-.5.2-.1.4-.3.4-.5 0-.3.1-.4.3-.4.3 0 .4-.1.4-.8 0-.6.2-.8.5-.8s.3-.2.3-2.7V50c-.4.2-.7-.4-.7-1 0-.5-.2-1-.4-1.2L64 47c0-.2-.2-.4-.3-.5-.4-.1-1.2-.9-1.4-1.3 0-.2-.2-.3-.4-.3l-.7-.4c-.3-.3-.7-.4-1.3-.4L59 44c.5-.5-.4-.7-2.7-.7-2.2 0-2.4 0-2.5.4m151 0c0 .4 0 .4-.7.4-.6 0-.8.1-1 .4 0 .3-.2.4-.7.4-.5 0-.7.1-.8.4 0 .2-.4.4-.9.5-.5 0-.7.2-.7.4 0 .1-.2.3-.4.3h-.6a4 4 0 0 1-.4.1c-.2 0-.2.2-.1.4 0 .2 0 .3-.4.3-.8 0-1 0-1.2.4 0 .2-.4.4-.7.4l-.6.4c0 .2-.4.3-.6.3-.4 0-.5.1-.5.4 0 .3-.2.4-.6.4-1.4 0-2.8 2.7-1.6 3.1.2 0 .6.5 1 .9.6.6.8.8 1.5.8 1.6 0 1.8 0 1.9-.5 0-.3.2-.4.9-.4s.8 0 .8.4c0 .3.1.4.4.4.2 0 .4.1.4.3 0 .1.3.4.7.6.9.4 1 .5.4 1.1-.6.6-.5 3.5.1 3.7.3.1.5.3.5.5s.2.3.3.3c.2 0 .3.2.4.4.2.7 2.1.5 2.3-.3 0-.3.3-.7.5-.7.2-.2.3-.5.3-1 0-.6 0-.7.4-.8.3-.1.3-.3.3-1 0-.4.1-.7.2-.7.5 0 .6 0 .6-.7 0-.4.2-.7.4-1 .2-.1.4-.5.4-.7l.1-.7v-.5c.1-.2.2-.4.4-.4l.3-.1.1-.4v-.6c0-.2.2-.4.4-.4s.3-.3.4-.8c0-.4.3-.8.4-1 .7-.4.6-4.5 0-4.5-.2 0-.4-.2-.5-.4 0-.2-.2-.4-.4-.4-.3 0-.4-.1-.4-.4 0-.3-.1-.4-1.5-.4-1.3 0-1.4 0-1.4.4M136 46.1c0 .3 0 .6-.1.5-.5 0-.6.2-.6 2.1a65.3 65.3 0 0 1 .4 17.9c-.4 0-.4.3-.4.9 0 .5 0 .8.3 1 .6.5.6 1.8 0 2-.1 0-.4.3-.4.5s-.2.4-.3.3c-.1 0-.3 0-.5.3 0 .3-.3.6-.5.7-.1 0-.3.6-.3 1.2s-.2 1.1-.3 1.2l-.2.3c0 .3-.9.4-2 .3-.6 0-.7.7-.7 3.1 0 2.4 0 2.6-.4 2.6-.3 0-.4.1-.4.3 0 1 0 1.3-.4 1.3-.3 0-.4 0-.4.4 0 .3-.1.5-.2.5s-.2.1 0 .3h-.6c.1.6 0 1-.4 1.2-.3 0-.4.2-.4.9 0 .4 0 .7-.2.7 0 0-.3 0-.4.3-.5.9-1 1.1-2.1 1.1-1 0-1.2.1-1.5.5-.2.2-.3.3-.2.1.1-.2 0-.2-.2 0-.2.3-.5.4-.6.4-.2 0-.3 0-.2.2l-.1.5c-.2.5 0 1.2.4 1.5.1 0 .2.7.2 1.5 0 1.2.1 1.4.4 1.5.2 0 .7.5 1.2.9l1.2.9c.3 0 .6.3.6.5s.3.4.5.4.5 0 .5.2c.1.2.4.4.8.5.3 0 .7.2.8.4.3.4.3.4 1.6.4.5 0 .8.1.8.2-.2.3.5.6 1.5.6.5 0 .9.1.8.2-.2.3.5.6 1.6.6.5 0 .7 0 .7.4 0 .2 0 .4.3.4.2 0 .4.2.5.4 0 .3.3.4 1.2.4h1v.9c0 .7 0 .8-.3.8s-.4.2-.4.7c0 .4-.1.9-.4 1.1-.3.3-.4.7-.4 1.4 0 .8 0 1-.3 1-.3-.1-.4 0-.4.8 0 .5-.2.9-.2.8-.1 0-.4.3-.5.7l-.6.8c-.2 0-.4.2-.4.4l-.4.4c-.2 0-.3.2-.3 1 0 1.7-.2 2.1-1 2.1-.7 0-1.4.3-1.3.6.1.1 0 .2 0 .2-.4 0-.3 2.2.1 2.7.5.6.5 1.3 0 1.4-.2 0-.4-.2-.4-.4 0-.5-1.9-.7-2.2-.3-.1.2-.2.2-.2 0-.3-.7-2.3 0-2.3.7 0 .4-.1.6-.4.7-.2 0-.4.3-.4.5 0 .4-.1.3-.1-.2 0-.4 0-.6.3-.8.3-.1.4-.4.4-.7 0-.4.2-.6.7-.5l.1-.3c.2-2.6 0-3.6-.6-3.6-.2 0-.3 0-.2-.3 0-.1 0-.3-.2-.3-.4-.2-1.1 0-1.1.3s-.8.5-1 .3c0-.1.1-.2.4-.2.3 0 .4-.1.4-2.1 0-2.3-.1-2.6-1-2.6-.6 0-.6 0-.6-.7 0-.5-.1-.7-.4-.8-.3 0-.4-.3-.4-1.6s0-1.6-.4-2c-.2-.2-.4-.6-.4-1.5 0-1.5-.2-1.8-.5-1.8-.2 0-.4-1.8-.3-2.6 0-.3-.4-1-.6-.8 0 0-.2-.4-.2-1.2a15.6 15.6 0 0 0-.1-1.9c0-.1-.1-.2-.2 0-.3 0-.4-.3-.5-2 0-1-.2-1.6-.4-1.8-.2-.2-.3-.7-.3-1.3a10.4 10.4 0 0 0-.2-1.7c0-.3-.1-.4-.3-.4-.2 0-.3-.3-.3-.9a17 17 0 0 0-.2-2c0-.3-.1-.5-.3-.5h-.3l-.1-1.7c0-1.3-.2-1.8-.5-2-.3-.3-.4-.6-.4-1.5 0-1.4 0-1.8-.5-1.8-.2 0-.2-.4-.2-1.4 0-1.1-.1-1.4-.4-1.7-.4-.3-.4-.6-.4-1.9 0-1.3 0-1.5-.4-1.6-1.2-.3-.4-.9 1.1-.9.9 0 1.7 0 1.7-.2 0-.1.2-.1.4 0 .1 0 .1 0 0-.2v-.3c1.8.2 5-.1 5.2-.6.1-.3.3-.4.5-.3.2 0 .3 0 .3-.3 0-.4.1-.4 2.5-.5 3.6 0 3.7 0 4.1-.4a4 4 0 0 1 1.1-.5c.8-.3 1.4-.8 1.2-1l.3-.1c.2 0 .3-.2.4-.6 0-.5.1-.7.4-.7.4 0 .4-.1.4-3.2 0-3.2 0-3.3.4-3.4l.4-.3c0-.3 0-1.1.1-1 .6 0 .7-.2.7-2.4 0-2.2 0-2.2-.5-2.4-.3-.1-.5-.3-.5-.4l-.3-.2c-.5 0-.4-1.7 0-2 .3 0 .5-.4.5-.8s.2-.6.4-.6c.1 0 .3-.2.3-.5 0-.4.3-.5.7-.4l.1-.4.1-.4.1.6m-78.4 2.3c0 .2 0 .4.2.4.4 0 .8 0 .7.2 0 0 .1.3.4.4l.6.6c0 .2.2.4.4.5.1 0 .2.2.1.3 0 .1.1.3.3.3.6.2.7 3.3 0 3.5-.2 0-.3.3-.3.4l-.4.4c-.2 0-.4.2-.4.4 0 .5-2.3.4-2.6-.1a1 1 0 0 0-.7-.5c-.3 0-.4 0-.3-.3 0-.2 0-.2-.1-.1h-.2c0-.2-.3-.3-.5-.3-.4 0-.5 0-.5-.4l-.2-.5c-.1 0-.2-.2 0-.3 0-.1 0-.2-.2-.1-.3 0-.3 0-.4-.5l-.2-.8c-.1-.2-.1-.3 0-.4 0 0 0-.1-.2 0-.5 0-.5-1 0-1.5l.4-.8c0-.2.2-.4.4-.4s.4-.3.4-.4c0-.3.2-.4 1.6-.4 1.6 0 1.7 0 1.7.4m146 1.5l-.4.9c-.2 1-.6 1.2-1.2.7-.7-.7-.7-1.1-.2-1.1.3 0 .7-.2.9-.4.1-.2.5-.4.8-.4.4 0 .4 0 .1.3m-72 4.6l-.2.2c.1.1 0 .2 0 .2-.2 0-.3-.1-.3-.3 0-.2.2-.3.5-.3s.3 0 0 .2m-89.7.3v.3l-.3.5c0 .3-.3.5-.5.5s-.4.3-.4.4c0 .2-.1.4-.3.4-.3 0-.4.3-.4.5s-.2.5-.3.5c-.2 0-.3.2-.2.3l-.1.2-.2.4c0 .2-.2.4-.4.5-.2 0-.4.3-.4.5s-.1.4-.3.4c-.1 0-.3.2-.4.5 0 .3-.2.5-.4.5s-.3.3-.4.7c0 .5-.2.7-.5.7-.2 0-.4 0-.4.3 0 .2-.1.4-.4.5-.4.1-.6 2-.2 2 .2 0 .4.3.7.6l.5.4c.1 0 .3 0 .4.2.3.6 2 .6 2 0 0-.1 0-.3.2-.3l.1-.3c0-.1 0-.2.2-.2s.3-.2.4-.5c0-.5.2-.5 1-.5.4 0 .7.1.7.3 0 0 .3.4.8.6.5.2.9.5.9.6l.4.2c.2 0 .4.1.4.3 0 .1.2.4.5.5.3 0 .6.3.8.4.1.2.4.3.7.3.2 0 .3.2.3.4 0 .3.2.4.4.4s.4.1.5.3c0 .3.7.7 1.7 1.1l.6.5c0 .8 2 .4 2.3-.5 0-.3.2-.6.4-.7.7-.5.6-2.8 0-3-.4-.1-.6-.3-.6-.4 0-.1-.3-.3-.7-.3-.4-.1-.6-.3-.6-.4 0-.2-.2-.4-.4-.4l-.6-.5a1 1 0 0 0-.6-.4c-.2 0-.4 0-.4-.2 0-.1-.2-.4-.6-.5-.4-.1-.7-.4-.7-.5 0-.2-.3-.3-.5-.3s-.4-.2-.4-.3c0-.2-.2-.4-.5-.5l-.4-.4-.7-.3c-.8-.3-1-.9-.3-1.6l.4-.8c0-.1.1-.3.4-.3.5-.2.5-2.1 0-2.3a.8.8 0 0 1-.5-.4c-.1-.3-.3-.4-1-.4-.3 0-.8-.1-1-.3-.3-.3-.7-.4-.7-.2m89.2 1c0 .1-.1.3-.4.3-.4.1-.4.1 0-.2.4-.5.4-.5.4-.1m86.8.4c-.2 0-.3.2-.3.4 0 .1-.2.3-.4.3s-.4 0-.5.2c0 .2-.4.4-.7.5-.3.2-.6.4-.6.6l-.5.2c-.3 0-.4.2-.4.4 0 .3-.2.4-.6.5-.4 0-.6.2-.5.3 0 0-.1.2-.4.3-.3 0-.7.3-1 .6-.2.3-.5.5-.6.5-.1 0-.3.1-.3.3 0 .1-.2.3-.6.4-.5 0-.8.2-.8.5-.1.2-.3.4-.5.4-.3 0-.4 0-.4.3s-.1.4-.4.4c-.2 0-.6.2-.9.5l-.8.7c-.5.4-.4 2.3.1 2.5.2 0 .4.3.4.5s.2.4.4.5c.2 0 .4.2.4.4 0 .5 1.9.5 2.2 0 .1-.2.4-.3.6-.4.2 0 .3-.3.3-.4 0-.2.2-.3.4-.3l1-.5c.2-.3.5-.5.6-.4.1 0 .3 0 .3-.3 0-.2.2-.4.3-.4l.5-.1c.2-.1.3 0 .2.3-.2.9-.4 1.4-.5 1.2-.1 0-.2 0-.2.2 0 .8-.3 1.5-.6 1.9-.3.3-.4.8-.4 1.3 0 .6 0 .9-.3.9-.5 0-.7 1.9-.2 2.4l.6.9c.2.3.4.6.5.5.1 0 .2 0 .2.2 0 .7 2.1 1 2.3.2 0-.2.3-.3.6-.3.2 0 .4 0 .4-.2l.8-.6c.4-.2.7-.5.7-.6 0 0 .2-.3.7-.5l.8-.5.4-.2c.4-.1.5-.2.4-.4 0-.3 0-.3.4-.3s.5-.1.5-.4c0-.4.4-.5 1-.4.1 0 .2-.1.2-.3l.5-.5c.3-.1.6-.4.6-.5 0-.2.3-.3.5-.3s.4-.1.4-.4c0-.2 0-.4.2-.4s.5-.1.6-.3l.5-.3c.6 0 1-.5 1-1 .1-1.5 0-2-.4-2.2a.5.5 0 0 1-.4-.5c0-.3 0-.4-.4-.4-.2 0-.4-.1-.4-.4 0-.3 0-.4-1-.4s-1.1 0-1.1.4c0 .3-.1.4-.4.4-.3 0-.5.2-.5.4-.1.3-.3.4-.7.4-.3 0-.6.1-.6.3l-.6.5c-.3 0-.5.3-.5.5s-.2.3-.5.3h-.4l.4-.3c.3-.2.5-.5.5-.8 0-.7.2-1.3.4-1.2h.2v-.5l.1-.8c0-.3.1-.5.3-.5.3 0 .5-.5.5-1.2 0-.3.2-.6.3-.7.4-.1.3-.9 0-.9-.2 0-.3-.3-.3-.9 0-.7 0-1-.4-1-.2 0-.4-.3-.4-.5s0-.3-.2-.3c0 0-.1-.1 0-.2.2-.5-1.8-.8-2.6-.5m-90.7 1c0 .2-.1.4-.3.4-.3 0-.5.5-.5 1.4 0 .3 0 .6-.1.5-.1 0-.3 0-.3.2-.2.5-1.3.4-1.3 0 0-.3.1-.5.4-.5.2-.1.3-.3.3-.4 0-.2.2-.4.4-.4.4-.1.5-.6.4-1.3l.2-.4c.4-.3.8 0 .8.5m-4.7 6c0 .2-.8.3-.9.1 0 0 .1-.2.4-.2l.5.1m-8 2c0 .4-.4.5-.7.2-.4-.4-.4-.5.2-.5.3 0 .5.1.5.3m-4.7 4.8l.4.3c0-.1.2.5.2 1.2 0 1.2 0 1.5.3 1.8.3.3.4.6.5 1.7 0 1.2.3 2 .6 1.7l.1 1.5c0 1.5.3 2.7.6 2.5.1 0 .2.4.2 1a14.1 14.1 0 0 0 .2 1.9c0 .2.1.3.3.3.2 0 .3.2.3.7 0 2.1.1 2.3.5 2.6.2.2.3.5.4 1.5 0 .8.2 1.5.3 1.7.2.2.2.2 0 .1-.4-.2-.3 0 .1.4.3.3.4.7.5 1.8 0 1.2 0 1.4.4 1.5.3.1.3.4.3 1.7 0 1.4 0 1.5.4 1.7.2 0 .4.2.4.4s-.2.5-.4.5l-.4.4c0 .2-.1.3-.3.3-.1 0-.3.2-.4.5-.1.3-.4.5-.5.6-.2.1-.4.5-.4.8 0 .3-.2.6-.4.6l-.4.5c-.1.4-.1.4-.4.1-.1-.2-.3-.3-.3-.2l-.2-.5c0-.3 0-.6-.2-.7-.1-.1-.1-.3 0-.4 0-.1 0-.1-.2 0-.2 0-.3 0-.3-.4l-.4-.7c-.2-.1-.5-.4-.5-.6-.2-.4-2-.5-2.7-.2-.6.3-.6 2 0 2.1.2 0 .4.3.4.5 0 .7 0 .7.4 1 .3.2.4.7.5 1.6l.4.2-2.8.1-3.1.1v.8c-.1.6 0 1 .2 1.2.2.2.5.5.5.7.1.3.4.4 2.5.4h2.3v.5c-.1.4-.3.6-.4.6 0 0-.3.2-.4.6-.1.4-.4.7-.6.8-.3 0-.5 3.6-.1 4 .2.4 1.6.5 1.6.2 0-.2 0-.3.3-.4.1 0 .3-.2.3-.4l.4-.7c.3-.3.5-.6.5-.8 0-.2.2-.3.3-.4.2 0 .3-.3.3-.5 0-.3.1-.4.4-.4.3 0 .4-.1.4-.4 0-.2 0-.4.2-.4.1 0 .2.1.2.3 0 .2 0 .3.2.3l.3.5c0 .3.2.5.5.5.2 0 .3 0 .3.2-.2.3.1 1.3.5 1.4.3 0 .4.3.4.8s0 .7.3.8c.3 0 .4.2.4.7 0 .3.1.6.3.7.1.1-1.1.2-2.8.3h-3l-.1 1.2c-.1 1.8 0 1.8 3.8 1.9h3.2l.6.6c.9 1 .8 1-2 1-3.2 0-3.3 0-3.3 1 0 2.2-.1 2.1 4.2 2.2 3.3 0 3.8.2 3.8.6 0 .3-.5.3-2.7.3h-2.7v2.4h-.8c-1 0-1.1.3-.9 1.7l.1 1c0 .1.1.2.3.2l.5.8c0 .4.3.8.4.8.6.3.5 1.1 0 1.1s-.6 0-.6-.3-.2-.4-.4-.4c-.4 0-.4-.2-.4-1.5 0-1.5-.3-2.6-.6-2.4 0 0-.2-.1-.3-.5 0-.3-.2-.5-.4-.5-.1 0-.3-.2-.3-.4-.1-.3-.3-.4-.6-.4-.2 0-.4-.2-.4-.4 0-.3 0-.4-.6-.4-.4 0-.6 0-.7.4 0 .4.2.4-5.1.4-1.6 0-1.9 0-2 .4 0 .5-1 .5-1 0-.1-.3-.3-.4-.5-.4l-.6-.4c-.6-.5-1.8-.6-2 0-.1.4-.6.5-.6 0 0 0 0-.2-.2-.2l-.2-.4c0-.2-.2-.4-.4-.5-.2 0-.3-.2-.3-.3 0-1-.1-1.6-.3-1.5 0 .1-.1 0 0-.2 0-.2 0-.3-.2-.2H96c.1-.2 0-.2-.3-.2-.4 0-.5-.2-.5-.4 0-.6-2.9-.6-3 0-.1.2-.3.4-.6.4-.2 0-.4 0-.3.1 0 .4-.1.6-.4.6l-.4.4c0 .2-.2.4-.3.4-.2 0-.4.2-.5.5-.1.3-.3.5-.5.5 0 0-.2 0-.2.2 0 .4-1.9.5-1.9.1l-.1-.3-.5-.1c-.2 0-.4 0-.5.2 0 .2-.3.4-.6.5-.2 0-.4.3-.4.5s-.3.3-1.3.3c-1.3 0-2-.6-.9-.9.4 0 .4-.2.4-2.2s-.1-2.1-.6-2c-.1 0-.2 0-.2-.2.2-.5-.3-1-1-1.1-.4 0-.8-.2-.8-.3l-.7-1c-.5-.3-.8-.8-.8-.9 0-.1-.1-.3-.3-.3-.4 0-.5-.8-.4-3.6 0-2.4-.1-4-.5-4s-.2-3.3.2-3.8c.2-.3.3-.8.4-1.3 0-.9.1-1.2.4-1 .1 0 .2-.1.2-.3v-.6l.2-.8c0-.4 0-.6.3-.6l.2-.2c-.1-.6.3-1.3.9-1.5l.6-.4c0-.2.2-.3.5-.3.5 0 .6 0 .6-.4 0-.2.2-.4.4-.4.3-.1.4-.3.4-.8s0-.7.4-.8c.2 0 .4-.3.4-.6 0-.2.2-.4.4-.4s.3-.3.4-.7c0-.4.2-.7.3-.6.2 0 .3-.2.4-.5l.5-.5c.2 0 .3-.1.4-.4 0-.2.3-.4.7-.4.4 0 .6 0 .7-.3 0-.3.3-.4.8-.4s.7-.1.7-.4c.1-.3.3-.4 1-.4.6 0 1-.1 1.3-.4l.8-.4c.2 0 .5-.2.8-.5.2-.2.6-.4.7-.3.2 0 .3 0 .4-.4 0-.2.2-.4.4-.4.1 0 .4-.2.5-.5 0-.2.3-.5.4-.5.2 0 .3-.1.3-.3 0-.3.1-.4.3-.4.1 0 .3-.2.4-.6.1-.3.4-.8.7-1l.4-.6.3-.5c.2-.1.4-.5.4-.8 0-.3.2-.7.4-.8.3-.2.4-.6.4-3.1.1-2.6.1-2.8.5-2.8l.4-.2c0-.1.1-.2.3-.2.1 0 .2-.1.1-.2 0-.1.2-.2.6-.2.9 0 1.3-.2 1.3-.5 0-.2.2-.3.4-.4.3-.1.4-.3.4-.9 0-.6 0-.8.4-.8.2 0 .4-.1.4-.4 0-.3.1-.4.5-.4.3 0 .4 0 .3-.2 0-.1 0-.2.2 0 .2 0 .3 0 .2-.2 0-.2.1-.3.4-.3.9 0 1.3-.2 1.5-.7.2-.3.3-.5.4-.4l1-1.1c0-.4 1.2-.2 1.4.2m-78.4.6c-.1.1-.3.5-.3.9 0 .5 0 .7-.3.7-.6 0-.6 2 0 2.2.2 0 .3.3.3.4 0 .3.7.5 1.3.6l.2.2c0 .1.2.3.5.4.3 0 .6.2.6.4 0 .1 0 .3.2.3h.4l.6.1c.2 0 .4.2.4.3 0 .2.2.4.4.5.2 0 .6.3.8.5.2.2.6.3.8.3.3 0 .5.1.4.2 0 .2.5.8.6.7.3-.2.9 0 1 .3 0 .2.2.4.4.4.4 0 .3 2.1-.2 2.4-.2 0-.3.3-.3.6 0 .5-2.3.5-2.8 0-.2-.3-.6-.4-1-.4s-.5-.1-.5-.4c0-.2-.1-.2-.4-.2-.2.1-.2.1-.2 0 .1 0-.1-.2-.5-.3-.3-.1-.6-.4-.6-.5 0-.1 0-.2-.3-.2-.7 0-.8-.1-1-.5-.2-.2-.7-.4-1.2-.4-.5-.1-1-.2-1-.4-.1 0 0 0 0 0 .3.1.3.1.1-.1-.5-.6-3.3-.4-3.3.3 0 .3-.2.4-.3.4-.3-.2-.6.9-.5 1.8 0 1 0 1 .8 1 .6 0 .7.1.7.4 0 .3.1.4.4.4.2 0 .5.2.5.3 0 .2.5.4.8.5l1.2.6.9.4c.2 0 .3 0 .3.2s0 .3.2.3l.3.1.6.2c.3 0 .5 0 .5.3 0 .1 0 .2.2.2h.3c0 .2.4.3.7.3l.5.1c-.3.4.7.6 2.9.6 1.9 0 2.3 0 2.3-.3 0-.2.8-.7 1.1-.6.3.1 1.4-1.2 1.4-1.7 0-.3.1-.5.4-.6.3-.1.5-.5.4-1.1h.3c.2 0 .3 0 .2-.2-.1-.2 0-.4 0-.4.5 0 .3-5.6-.2-6-.2-.1-.4-.4-.4-.6 0-.1-.1-.3-.3-.3-.2 0-.5-.3-.8-.5-.2-.2-.6-.4-.9-.4-.3 0-.4 0-.4-.2.1-.1 0-.2 0-.2-.2 0-.2 0-.2-.2.1-.1-.1-.2-.6-.2-.7 0-.8 0-.8-.3s0-.4-.5-.5l-.6-.2c.2-.3 0-.5-.1-.5-.9 0-1.2 0-1.2-.4s-.1-.4-.6-.4c-.3 0-.7-.2-.9-.4l-.9-.5c-.3 0-.7-.2-.8-.5-.3-.4-1.3-.5-2-.2m198.3 2.7c-.1.3-.3.4-.5.4-.4 0-.6 2.7-.3 3l.2.4c0 .2.1.2.2.2.2 0 .3.1.3.4 0 .2-.1.3-.2.2-.1 0-.3 0-.3.2-.1.2-.4.3-.6.3-.3 0-.5.1-.5.2 0 .2 0 .2-.2.1-.1 0-.3 0-.3.2s-.3.3-.5.3-.5.2-.5.4-.3.4-.9.5c-.5 0-.7.2-.7.4s-.2.3-.4.3a4.3 4.3 0 0 0-1 .2c-.1 0-.2.1-.2.3 0 .2-.3.4-.6.4h-.7c-.1 0-.3.2-.4.5 0 .3-.3.4-.8.4s-.7 0-.8.3c0 .2-.2.4-.5.5-.5.1-.5 1.8 0 2 .3.2.5.5.5.8 0 1 .1 1 1.5 1s2.5-.2 2.3-.6l.6-.1c.4 0 .7-.1.9-.4.1-.3.5-.4.8-.4.3 0 .6-.2.8-.4.2-.3.7-.5 1.4-.6.2 0 .3-.2.4-.4l.2-.4c.7.1 1.3 0 1.4-.4.3-1 2.6-.2 2.4.9 0 .2.1.3.3.3.2 0 .4.2.5.5.3.6 1.6.7 2.1.1l.6-.4.5-.5c0-.3.3-.5.4-.5.5 0 .4-1 0-1.4-.3-.2-.5-.6-.5-.8 0-.3-.1-.6-.4-.7-.2-.2-.4-.4-.4-.8 0-.5-.4-1-.6-.9l-.1-.4c0-.8-.2-1.3-.5-1.3-.2 0-.3-.2-.4-.7 0-.5-.1-.7-.3-.7-.2 0-.3-.3-.4-.8 0-.5-.1-.8-.4-.8-.3-.1-.4-.3-.4-.6 0-1-.2-1-1.6-1-1.1 0-1.3 0-1.4.3M23 89.3l-.2.2c-.3 0-.6.3-.6.5 0 .1 0 .2-.2.2-.3 0-.5.5-.5 1.3 0 .5 0 .9-.4 1.1-.2.2-.4.6-.4 1.1 0 .5 0 1-.3 1.2-.4.3-.4.7-.4 1.6 0 .9-.1 1.1-.3 1.1-.3 0-.5.6-.6 2 0 .4-.1.7-.3.7-.3-.1-.5.7-.2 1 .1.2.6.3 1.2.3.7 0 1 0 1 .4.4 1 2.3 0 2.3-1.2 0-.5.1-.8.4-1 .2-.1.4-.4.4-.8 0-.5 0-.5.1-.2 0 .4.2.4 1.3.4 1 0 1.2.1 1.2.7l1.2.1c1 0 1.2 0 1.2.3s.2.4 1.2.5c.7 0 1.2.1 1.2.2v.4s.5.2 1.2.2c1 0 1.2 0 1.3.3.1.5 1.2.5 1.2 0 0-.1.2-.3.4-.3.3 0 .4-.2.4-.5 0-.2.2-.4.4-.5.7-.1.6-2.7-.1-3-.3 0-.6-.3-.7-.4 0-.1-.7-.3-1.4-.3-.9 0-1.3-.2-1.3-.3 0-.4-.4-.5-1.4-.5-.5 0-.9-.2-1.1-.4-.3-.3-.7-.4-1.4-.4s-1 0-1-.3-.6-.5-1.6-.5h-.8v-1.3c0-1 .1-1.2.4-1.3.3-.1.4-.3.4-.7 0-.5 0-.6-.4-.6-.2 0-.4-.1-.4-.4 0-.4-.4-.6-1.3-.6-.2 0-.4 0-.5-.2 0-.3-.7-.4-.6-.1m150.1 1.4c0 .7 4.3.7 4.3 0 0-.3 0-.3.2 0 .1.4.3.5.8.5s.8.1 1 .4c.1.3.4.4 1.2.4l1.1.1c0 .4 0 .6.4.6.2 0 .5.4.8.8.3.5.6.8.8.8.1 0 .4.2.6.5.5.5 3.4.6 4 0 .4-.3.3-.3 1.3-.4.7 0 .8 0 .8.7 0 .6 0 .8.3 1l.7.4c.2.2.6.4 1.2.4h.8l.1 1c.1 1.3.1 1.3.8 1.3.2 0 .6.3.8.5l.7.3.7.4.7.4c.4 0 .4-.2.4 3.3 0 1.8 0 2 .4 2.1.2 0 .4.3.4.5s.2.4.4.5c.2 0 .4.3.4.5l.4.7.4.5c0 .3.5.7.6.6l.1.3c0 .3.2.5.4.5.3 0 .4.3.4.5s.1.4.3.4c0 0 .1 0 0 .1l.3.4.3.6c-.1.2 0 .3.3.4.3 0 .4.3.5.8.1.6.2.8.5.8.2 0 .3.1.3.2s0 .4.4.6c.2.3.5.6.5.8l.1.4c.1 0 .4.3.5.7l.6.6c.2 0 .2.3.3 1.2 0 1 .1 1.2.4 1.2.6 0 .6 6.4 0 6.6-.6.2-.5 8 0 8.4.5.3.5 1 .1 1-.6 0-.7 3 0 3.2.3 0 .3.2.3 3.7 0 3.9 0 4.4.5 4.4.2 0 .3.1.3.3 0 .3.1.4.4.4.2 0 .4.2.4.4s.3.4.5.4.3.2.3.5-.1.5-.3.5c-.2 0-.3.2-.4.3 0 .3-.4.4-1.6.4-2.3.1-2.3.1-2.5 1-.2 1.2 0 2.8.5 3 .2 0 .3.2.3.7 0 .6.1.7.4.8.3.1.4.3.4.9 0 .6.1.7.4.7.3 0 .4.2.4.8 0 .7 0 .8.4.8s.4.1.4 5.7c0 5.5 0 5.7-.4 5.8-.5.1-.5 1.2-.1 1.6.2.3.2.3 0 .2-.3-.2-.3-.1-.2 0l.4.2c.2 0 .3.3.3 1 0 1.2.1 1.6.5 1.6.2 0 .3.4.3 2 0 1.5 0 2-.3 2-2.2 0-3.5.1-3.6.5 0 .3-.3.4-.9.4-.6 0-.8 0-.8.4-.1.2-.3.4-.5.4-.2.1-.4.3-.4.5 0 .1-.2.3-.4.3s-.4 0-.3.1c0 .6-.1.7-1.4.7-1.2 0-2 .2-1.7.6 0 0-.1.3-.4.5-.3.3-.5.6-.5.8 0 .3-.1.4-.4.4-.2 0-.4.1-.4.4 0 .2-.2.4-.4.4-.2.1-.4.3-.4.5s-.2.3-.7.3a2 2 0 0 0-1.4.5l-.8.5c-.1 0-.2.1-.2.3 0 .2-.2.5-.4.6-.2.1-.3.3-.3.4v.2c-.2 0-.3.2-.3.4s-.1.4-.3.4l-.4.4c0 .2-.3.4-.5.4-.5 0-1.2.4-1 .6l-.1.2c-.1 0-.3-.2-.3-.4-.1-.3-.3-.4-.7-.4-.5 0-.7-.1-.7-.4l-.4-.4-.3-.1c0-1-.3-1.8-.6-2a2 2 0 0 1-.4-.7c0-.2-.5-.4-.8-.4l-.7-.2V185l-.1-1.5h-.8c-.6 0-.8-.2-.7-.7l-.8-.1c-.6 0-.7-.1-.8-.4-.3-1-3.9-.5-3.9.4 0 .3-.2.7-.4 1-.6.5-.5 3.4 0 4 .6.5.6 3.7 0 4l-.4.2v1.2c0 .5 0 .9-.2.8-.6-.4-.8 2.5-.2 3 .5.2.5 1 0 .9l-.4.4c0 .3-.3.5-.4.5-.3 0-.3.2-.3.7 0 1.2-.3 2.5-.5 2.5s-.3.1-.4.4c0 .2-.3.4-.5.4s-.4 0-.4.2c0 0-.1.1-.2 0-.1 0-.2 0-.2.2s-.2.3-.5.3-.5.2-.6.4c0 .2-.3.4-.5.5-.3 0-.4.2-.4 1.3 0 .8 0 1.2-.2 1.1l-.4.4-.5.5c-.1 0-.3 0-.4.2 0 .2-.2.3-.4.3-1 0-1.8.5-1.9 1.1 0 .4-.2.7-.4.7-.3 0-.7.8-.5 1h-.3c-.3 0-.3 0-.2.3v.2c-.2 0-.3 0-.3.4 0 .3 0 .5-.3.5s-.4 0-.4.4c0 .2-.2.3-.5.3s-.5.1-.5.3c0 0-.1.1-.2 0l-.2.1c0 .2-.3.3-.6.5-.4 0-.5.2-.5.4.1.3 0 .3-1 .3-.8 0-1 0-1.3.4a1 1 0 0 1-.7.4c-.8 0-1.8.4-1.7.6 0 .1-.3.2-.9.2-1.1 0-1.5.1-1.5.5 0 .2-.3.3-1 .3-1.6 0-2 0-2.3.5-.3.3-.6.4-.8.4-.1 0-.2.1-.2.3 0 .1-.2.3-.6.4-.3.1-.7.3-.7.5l-.5.5c-.2 0-.4.3-.4.4 0 .2-.5.3-2.8.3-2.6 0-2.7 0-2.7.4 0 .5-5.8.6-6 0 0 0-.4-.3-.8-.3s-.7-.3-.7-.5c-.2-.6-2.8-.6-3 0 0 .3-.3.4-.8.4-.6 0-.8.1-.7.6 0 .1-.2.2-.5.2s-.4 0-.4.4c0 .3-.2.4-.7.4h-1c-.1 0-.2 0-.2-.2 0-.1-.1-.3-.4-.5-.3 0-.5-.3-.5-.4 0-.2-.3-.3-.7-.4-.4 0-.7-.3-.7-.5-.1-.3-.3-.4-1-.4-.9 0-1.3-.1-1.3-.5 0-.1-.2-.3-.5-.3l-3.9-.2c-1 0-1.3 0-1.3-.2 0-.4-.6-.5-2.7-.5-1.5 0-2-.1-2.1-.4-.2-.3-.7-.3-3.3-.4h-3.4a.5.5 0 0 1-.5-.4c0-.3-.3-.4-.5-.4s-.5-.1-.6-.3c0-.2-.2-.3-.3-.3-.8-.2-1-.3-1-.5 0-.3-.4-.5-1.5-.5s-1.6.2-1.6.5c0 .2-.2.3-.4.3-.7 0-1.1.2-1.1.5s0 .3-.4 0c-.2-.2-.3-.2-.1 0 0 .3 0 .3-.1 0l-.7-.5c-.3-.1-.5-.3-.5-.5s-.2-.3-.4-.3-.4-.1-.4-.3c0-.1 0-.3-.2-.3h-.4l-.5-.1c-.2 0-.4-.3-.5-.5-.1-.3-.2-.4-1.4-.3-1.4 0-2.5-.5-2.5-1.2 0-.1-.2-.3-.4-.3l-.5-.3c0-.4-.1-.6-.6-.6l-.4-.1c.2-.2-1.2-1.5-1.5-1.5-.2 0-.4-.2-.6-.5-.2-.2-.4-.5-.6-.5-.1 0-.3 0-.3-.3 0-.5-.3-1-.6-1 0 .1-.2 0-.2-.3-.1-.3-.3-.5-.4-.5-.2 0-.3-.2-.4-.5 0-.3-.3-.5-.4-.5-.2 0-.3-.2-.3-.4 0-.3-.2-.4-.4-.4-.3 0-.4-.1-.4-.4 0-.7-.1-.8-.4-1-.2-.2-.4-.4-.4-.6 0-.2-.1-.3-.4-.3-.3 0-.4-.2-.4-.7 0-.6 0-.8-.4-.8-.3-.1-.5-.7-.4-1.3 0-.1-.1-.3-.3-.3-.3 0-.4-.3-.5-.9-.1-.5-.2-.7-.4-.7s-.3-.2-.3-.6c0-.3-.2-.7-.4-.9a3 3 0 0 1-.5-1.4l-.2-1c-.2 0-.8-.5-.7-.6 0-.2 0-.2-.2-.2H77c0-.2-.7-.2-1.4-.2h-1.2v-1.6c0-1.6-.3-2.5-.6-2.3-.2.2-.2.4-.2-5.3 0-4.2 0-4.3-.4-4.4-.4-.1-.4-.3-.4-2.6 0-3.1 0-3-.4-3-.6-.1-.5-3.4 0-3.4.3 0 .4-.1.4-.4 0-.2.1-.4.4-.4.3 0 .4-.1.4-.4 0-.2.1-.4.4-.4.2 0 .4 0 .4-.4 0-.5 1.6-.5 2 0 .3.4 0 .4 3.5.4 1.5 0 2.7.1 2.7.2-.1.5 0 .6 1.4.6 1.2 0 1.4 0 1.5-.4 0-.3.3-.4 1.3-.4 1.4 0 1.9 0 1.9-.5 0-.2.2-.2.7-.2.8 0 1-.3 1-1.3 0-.3.2-.5.4-.6.2 0 .4-.3.4-.6 0-.7 0-.7 1.5-.9l.1-.3c0-.1.2-.3.4-.3a4.4 4.4 0 0 0 1-.1l.2-1.2c0-1 0-1.2.4-1.3.3 0 .4-.2.4-.8 0-.8.5-1 1.1-.3.5.4 3.7.6 3.5.2-.1-.1 0-.2 0-.2.2 0 .2 0 .2-.2-.1-.1.2-.2.6-.2.6 0 .8 0 .8-.3 0-.2.2-.4.4-.4s.5-.3.5-.5.3-.4.4-.4c.2 0 .4-.1.4-.3.1-.3.3-.4.4-.4.2 0 .4-.2.4-.4s.5-.6.9-1c.6-.5.7-.8.7-1.3s.2-.7.4-.8c.3 0 .4-.3.5-.8 0-.5.1-.7.3-.7.3 0 .7-1 .5-1.2-.1 0 0-.2.2-.2.3-.1.5-.4.6-1 0-.4.2-.7.4-.7.3 0 .3 0 .3-1.4 0-.6.1-1 .3-1 .4 0 .7-.6.7-1.5 0-.7 0-1 .4-1.1.3-.2.4-.5.4-1.3 0-.7 0-1 .3-1l.4-.3c0-.2.2-.4.3-.4.3 0 .5-.4.5-1.1 0-.3.1-.5.3-.5.2 0 .4-.1.4-.3l.5-.6c.2-.2.4-.5.4-.9s0-.5.5-.5c.6 0 .6.4 0 .8l-.3.5c0 .2-.2.4-.4.6-.2.1-.4.3-.3.4v.2c-.2 0-.3.2-.3.4s-.1.4-.3.4c-.2 0-.3.1-.3.2v.8c-.2.9 0 1.2.7 1.2s.7 0 .4.3c-.7.6-.2 1.2 1 1.4 2.1.2 1.7.8-.5.8-2 0-2.2 0-2.5.7 0 .3-.2.5-.3.4-.2 0-.4.5-.4 1.4v.5l2.8.1c2.6.1 2.8.2 3 .5 0 .4 0 .4-3.4.4s-4.1 0-4.1.6c0 .2-.1.3-.3.3-.3 0-.5.4-.5 1.4 0 .8.1.9 2 1 .5 0 1.1.1 1.3.3.3.2.8.3 1.5.3 1 0 1 0 .8.5l-.4.4c-.2 0-.3.3-.4.6 0 .3-.2.6-.3.5l-.4.6-.6.8a1 1 0 0 0-.4.7v.3c-.2 0-.3 0-.5.2-.2.3-.2.3-.2 0l-.4-.7-.5-1c0-.5-.2-1-.4-1a2 2 0 0 1-.5-1c-.2-.8-2-1.2-2.1-.4 0 .2-.2.4-.4.4-.3 0-.5.7-.4 2 0 .8.1 1 .3 1 .2 0 .4.3.4.8s.2.8.4.8c.3.1.4.3.4.7 0 .4.2.7.5.9.4.3.4.3-.2.2l-.7-.3c-.2-.4-3.5-.6-4.5-.3-.2 0-.5.3-.7.5l-.6.8c-.6.6-.3 1.5.7 1.7.3 0 .6.2.7.4.3.3 1.1.4 3 .4 1.2 0 1.5.7.6 1.4-.2.1-.4.4-.4.6 0 .4-.2.5-.6.4l-.1.4c0 .2-.2.4-.4.5-.5.3-.5 1 0 1.4l.4.5c0 .5 3 .4 3 0 .1-.3.3-.5.4-.5.3 0 .4-.2.3-.6l.4-.2c.2-.1.4-.4.5-.8.1-.9.9-1 .9-.2 0 .6.1 1 .5 1l.2.5c0 .7.2 1.1.5 1.1.2 0 .3.2.3.6 0 1 2 1.6 2.3.6 0-.2.3-.4.5-.5.4 0 .5-2 .1-2.2-.1 0-.1 0 0 .2s0 .2-.2 0a1 1 0 0 1-.3-.7c0-.7-.2-1.1-.5-1.1-.2 0-.3-.2-.3-.5 0-.4 0-.4 1.9-.3 1.9 0 3.2-.1 3.1-.3 0-.1 0-.2.2-.2.6-.1.6-1.6 0-1.8l-.6-.5c0-.3-.4-.3-1.6-.3-1.2 0-1.4 0-1.5-.4-.1-.3-.3-.4-.8-.4-.8 0-.9-.2-.3-.7l.4-.7c0-.2.1-.4.3-.4.2 0 .3-.3.4-.8 0-.6.2-.8.5-.8.2 0 .3 0 .3-.4 0-.5.3-1 .6-1 0 0 .2 0 .2-.3 0-.2.2-.4.3-.5l.5-.6c.2-.3.2-.3.2.3s.1.8.4.8c.3.1.4.3.4.9 0 .5 0 .7.4.8.3 0 .4.3.4.7 0 .5 0 .7.4.8.2 0 .4.3.4.4 0 .3.6.6 1.1.4.4-.1.4-.3.4-2.5 0-2 0-2.3-.4-2.5a1 1 0 0 1-.4-.8c0-.5-.4-1.2-.6-1l-.1-.4-.2-1.2.1-.7c.2 0 .3 0 .3.2 0 0 0 .2.2.2.3 0 .3.2.3.7 0 .5.1.7.4.8.3 0 .4.3.4.8 0 .4.2.7.4 1 .2.1.4.4.4.6 0 .8 1.4 1.3 1.4.6 0-.1.2-.3.5-.4.5-.2.8-3.3.3-3.3-.2 0-.2-.1-.1-.3 0-.1 0-.2-.2 0-.2 0-.3-.2-.3-.7l-.2-.8c-.1 0-.2-.1-.1-.2 0-.1 0-.2-.2-.2s-.3-.2-.3-.5c0-.2 0-.5-.2-.6-.1 0-.2-.2 0-.3 0 0-.1-.2-.3-.2-.2 0-.3-.1-.3-.6 0-1.3.9-.4 1 1 0 .1.1.2.3.2.1 0 .3.3.4.8 0 .6.2.8.4.8.3 0 .4.1.4.2 0 1.3 0 1.4 1 1.4.9 0 1-.1 1.2-.5.2-.4.2-.4.2.1v.8c.1.4.8.4 1.3 0l.7-.5c.2 0 .3-.2.3-.3 0-.1 0-.3.3-.5.2-.1.4-.5.5-.9 0-.3.2-.6.5-.7.2 0 .3-.2.3-.5 0-.2.2-.4.3-.4.2 0 .3 0 .4-.2l.1.5c0 .6 0 .8-.4.8-.2.1-.4.3-.4.5s-.1.5-.4.6c-.2.2-.3.6-.3.9 0 .3-.2.5-.4.5-.3 0-.4 0-.4.3 0 .2-.2.4-.4.6-.6.3-.6 2.7 0 2.9.2 0 .4.2.4.4 0 .3.2.3.8.3.4 0 1.5-1 1.5-1.5 0-.2.1-.3.3-.3.2 0 .3-.3.4-.6 0-.3.3-.7.5-.8.2 0 .4-.3.4-.5s.6-.4.8-.1c.2.1 0 .8-.3.8-.2 0-.3.3-.4.5 0 .3 0 .5-.2.5 0 0-.3.2-.5.6-.1.4-.4.8-.6 1l-.4.7c0 .1-.1.3-.3.3l-.2.1v.3c-.4.2-.3 3.1 0 3.6.4.5 1.7.3 2-.3l.5-.8.4-.6c0-.2.1-.4.3-.4.2 0 .4-.4.5-.7 0-.4.3-.7.4-.7.2 0 .3-.2.4-.5v-.2l.5.5c.3 0 .4.3.4.8s.1.7.4.8c.3 0 .4.2.4.5s.2.7.4.8l.4.8c0 .6.2 1 .5 1 .2 0 .3.3.3.5v.5h-2.7l-2.7.1v1.3 1.1c.2 0 .3 0 .5.2.1.4.4.4 2.2.5h2c.2.2-.3 1.2-.4 1.1-.1 0-.3.2-.4.6-.1.4-.4.8-.6.9-.3.2-.4 2.7-.1 3.2.4.7 1.4.7 2 0l.6-.4c0 .4.4-.5.4-1 0-.4 0-.5.4-.5.2 0 .3-.1.3-.4 0-.2.2-.4.3-.4.2 0 .3-.2.4-.5.1-.5.9-.7 1-.3l.1.8v.2l.4.4c.2.1.3.3.3.4l.1.5c.1.1.2.3 0 .3l.3.4c.3.2.5.5.5.6 0 .6 1.8.5 2.2-.1 0-.2.3-.3.4-.3.5 0 .4-1.5 0-2.1-.3-.2-.5-.6-.5-1s-.4-1-.6-.7c0 0-.2-.3-.2-.7 0-.5 0-.8-.2-.9l.9-.1c1 0 1.1 0 1.2.4.1.4 2 .5 2.6.2.5-.3.5-2.2 0-2.2-.2 0-.3-.2-.4-.4 0-.3-.3-.4-1.6-.4-1.4 0-1.6 0-1.8-.4a1 1 0 0 0-.7-.4c-.2 0-.3 0-.2-.1l.2-.4c0-.2.2-.4.4-.5.3 0 .4-.3.4-.8 0-.6.1-.7.4-.7.2 0 .4-.1.4-.3 0-.2.2-.4.4-.5.3-.2.4-.5.4-1.1 0-.7 0-1-.4-1-.2 0-.4-.3-.4-.5s-.2-.4-.6-.4c-1-.2-1.5 0-1.5.3 0 .2-.2.4-.4.4l-.4.4-.5.8c-.3.3-.5.7-.5 1 0 .1-.1.3-.3.3l-.4.4c-.2.6-.6.3-.8-.5 0-.4-.2-.7-.3-.8a.2.2 0 0 1 0-.3s0-.1-.2 0c-.2 0-.3-.1-.3-.4 0-.6-.5-1.6-.7-1.4l-.1-.3c0-.5-.5-1.4-.7-1.3 0 .1-.1 0-.1 0 0-.2.8-.3 2.9-.3 2 0 3 0 3.1-.2.4-.4.3-1.2-.1-1.3-.3 0-.4-.3-.4-.5 0-.3-.2-.4-1.2-.4s-1.2 0-1.3-.3c-.1-.4-.3-.4-2.4-.5-1.7 0-2.3-.1-2.3-.3v-.5c0-.2-.2-.4-.4-.6-.3-.3 0-.3 2.6-.3 1.6 0 3 0 3.2-.2.3-.2.2-1.3-.2-1.3-.2 0-.3-.2-.4-.4 0-.3-.2-.5-.2-.5-.8 0-1.6 0-1.5-.1.2-.3-.3-.5-1.2-.6-3.8 0-4-.1-4.4-1.2-.2-.5.3-.6.6-.1.1.2.7.3 2.6.3h2.4l.1-1.1c.1-1 .2-1.2.6-1.2l.8-.1c.4-.3.2-2.1-.3-2.1-.2 0-.3-.3-.3-.8 0-.7 0-.8-.3-.8s-.4-.2-.5-.9c0-.8 0-.9.4-.9.3 0 .4.2.5.5v.7c0 .2.2.3.4.4.3 0 .4.5.3 1.1l.4.4c.2 0 .4.3.4 1 .1.4.3 1 .6 1.2l.4.7c0 .4 1.4.6 2.8.3.2 0 .1-2-.1-2-.2-.2-.2-.1 0 0 0 .3 0 .3-.2 0-.2-.1-.4-.5-.4-1 0-.6 0-.7-.4-.7-.3 0-.4-.1-.4-1.1 0-.8 0-1-.2-1a.5.5 0 0 1-.4-.3c-.1-.1 0-.2.4-.1.3 0 .5.1.5.3 0 0 .1.3.3.3.3 0 .4.3.4.5 0 .3.2.4.4.4.4 0 .4.1.4.8 0 1 .3 1.5.6 1.3.1-.1.2 0 .2 0-.1.6 0 1.3.4 1.6.2.2.4.4.4.6 0 .3.6.6 1.3.6.2 0 .4 0 .4.2-.2.3.6.6 1 .4.6-.3.6-2.7 0-2.8-.2-.1-.3-.4-.4-1 0-.4-.2-.8-.3-1-.2 0-.3-.4-.4-.8l-.1-.7h2.8c2.7 0 2.9 0 3 .4 0 .3.3.4.8.4.6 0 .7 0 .7.5 0 .4-.1.5-.4.5-.2 0-.4.1-.4.4 0 .2-.2.4-.4.4-.3.1-.4.3-.4.8 0 .6 0 .7-.4.7-.3 0-.4.1-.3 1.2v1l1.5.1 1.4-.1.4-.6.7-1c.1-.4.3-.6.4-.6.2 0 .2 0 .2-.7 0-.1.2-.2.5-.2.2 0 .4 0 .4.2l.1.9v.3l.3.1c.2 0 .3.2.4.5 0 .9.2 1.4.5 1.2.1 0 .2 0 .2.3.1.5 2.7.7 3 .3.3-.4.1-1.5-.2-1.9-.3-.2-.4-.6-.4-1 0-.6-.1-.7-.4-.7-.4 0-.4-.2-.4-1 0-.5-.1-.8-.2-.7-.1 0-.2 0 0-.2 0-.3 0-.3-.2-.3-.2.1-.3 0-.3-.1 0-.2.2-.3.8-.3.6 0 .9 0 .9.3 0 .1 0 .3.2.4.1.1.2 0 0-.1 0-.3 0-.3.2 0 .1.1.9.2 2 .2 2 0 2.3-.2 2.2-1.5a190.4 190.4 0 0 1-.3-1l-.2-.2c0-.3-.7-.4-2.9-.4l-2.2-.1c-.3-.2 0-1.5.3-1.5.1 0 .4-.3.5-.6.2-.3.4-.5.5-.4.2 0 .2-.3.2-.8 0-.4.1-.8.2-.7.5 0 .6-.1.6-.8 0-.5 0-.6-.4-.6-.2 0-.4-.2-.4-.4 0-.6-2-.6-2.2 0l-.5.5-.3.4c0 .1 0 .3-.3.4l-.3.4v.2c-.2 0-.3.2-.3.4 0 .4-.4.6-1 .5-.5-.1-.7-.5-.6-1.2 0-.2-.1-.3-.3-.4-.4-.1-.5-.2-.5-1 0-.2-.2-.4-.5-.5-.2-.1-.4-.3-.3-.5.2-.4-.8-.6-2.8-.4-.5 0-.3 2.7.1 2.8.4.1.6.7.5 1.3l.3.3c.2 0 .4.3.4.5 0 .6.4 1.2.6 1 .1 0 .2 0 .2.2 0 .4-2.5.2-2.6-.2-.2-.4-.3-.4-2.4-.4-2 0-2.2 0-2.2-.4 0-.2.1-.4.3-.5.3 0 .4-.2.4-.5 0-.2.2-.4.3-.4.3 0 .5-.4.5-1 0-.3.2-.5.4-.6.3 0 .4-.3.4-.6l.1-.3c.1.1.3 0 .4 0 .4-.3.4-2 0-2-1.7-.2-3.6 0-3.3.4l-.1.3-.2.5c0 .2-.2.4-.4.4-.3 0-.4.1-.4.4 0 .2-.2.4-.4.6-.3 0-.4.4-.4.7 0 .4-.1.6-.4.7-.2 0-.4.2-.4.4s-.1.3-.3.3l-.4.4c-.1.5-1 .6-1 0 0-.2.1-.4.3-.4.3-.1.4-.3.4-.6 0-.2.2-.4.3-.4.3 0 .6-.8.5-1.3l.4-.2c.2 0 .4-.2.5-.4 0-.2.2-.4.4-.5.6-.2.3-1-.4-1.3-.5-.1-.9-.3-1-.5-.8-.5-1.9-.2-2.1.8 0 .2-.3.5-.4.5-.2 0-.4.2-.4.4s-.3.4-.4.4c-.2 0-.3.2-.3.4 0 .3-.2.4-.3.4l-.4.4c-.3.4-.3.4-.3-.1 0-.4.1-.5.3-.5.2 0 .4-.2.4-.4l.5-.7c.2-.2.3-.5.3-.8v-.8c-.1-.2-.3-.3-.5-.3s-.3-.2-.3-1c0-1.4-.2-1.5-2.7-1.5-1 0-1.3 0-1.3-.3 0-.2-.1-.3-.3-.3a9.7 9.7 0 0 0-1.3-.2c-.4 0-.5-.1-.3-.1.2-.1.3-.3.3-.4 0-.4.3-.4 2-.3 1.1 0 1.5.1 1.5.3 0 .4.5.5 2.2.5 1 0 1.6 0 1.6-.2 0-.1 0-.2.2-.1.2.2.5-.6.5-1.4 0-.5 0-.7-.3-.7-.2 0-.4-.1-.5-.4 0-.3-.3-.3-1.5-.3-1.1 0-1.5-.1-1.8-.4-.2-.3-.6-.4-1-.4-.5 0-.5 0-.4-.5.1-.5.1-.5.7-.6.3 0 .5 0 .4-.1l.2-.4c.3-.2.4-.1.5.2.2.3.4.4 2.2.4 1.6 0 1.9 0 1.9.3 0 .6 1.7.5 2 0 .1-.3.3-.5.4-.4.1 0 .6-1 .6-1.5s-.7-.8-1.7-.8c-.8 0-1 0-1.2-.3-.2-.3-.6-.4-2-.4s-1.6-.1-1.6-.5c0-.2.1-.3.3-.3.1 0 .4-.3.5-.6 0-.4.3-.6.4-.6.3 0 .3 0 .4-.8 0-.2.1-.5.4-.5.2 0 .4-.3.4-.5s.1-.4.4-.4c.2 0 .3-.1.4-.3l.4-.8.5-.5v.7c0 .6.1.8.4.9.4 0 .5.6.4 1.2l.4.3c.3.1.5.7.4 1.3 0 .1.1.2.3.2.1 0 .3.2.5.6.3.7 1.5.8 1.4.1 0-.2.1-.3.5-.4.6-.2.7-3 0-3.7-.2-.2-.3-.5-.3-.7 0-.3-.2-.6-.4-.8a2 2 0 0 1-.6-1c0-.3-.2-.7-.4-.8-.2-.1-.1-.2.5-.2.7 0 .8 0 1 .4 0 .4.2.4 2 .4h2l.6-.7c.7-.6.8-.8.7-1.5v-.8l-3.4-.2a42 42 0 0 1-3-.1l.2-.3c0-.1.1-.4.4-.6.2-.2.4-.5.4-.8 0-.2.1-.5.3-.6.3-.2.4-.4.4-.6 0-.1.2-.3.4-.3.5-.1.6-2 .1-2.3l-.3-.3c0-.2-.1-.3-.3-.3l-.3-.2.2-.2c.1 0 .2-.1.2-.3 0-.2.2-.3.4-.3l.8-.4c.4-.3.7-.4 2.3-.4 2.3 0 2.2.2 2.1-3v-2.5h1.2c2.1 0 2.6-.2 2.9-1 0-.3.3-.5.4-.4l.1-.1c0-.2 1.7-.2 5.2-.2 5 0 5.2 0 5.3-.4 0-.2.3-.4.5-.5.2 0 .4-.2.4-.4s0-.3.2-.3c.1 0 .2.1.2.3m51.1 4.7c-.2.3-.1 1 .2 1.3.2.1.4.5.4.9 0 1.2.2 1.6.9 1.7.4.1.5.2.3.3l-.1.2.3.1h1.4l1.2.1v.7c0 .5 0 .7.4.8.3 0 .4.3.4 1s0 .8-.4.8c-.3 0-.4.2-.4.4 0 .3-.1.4-.4.4-.3 0-.4.1-.4.4 0 .2-.2.4-.4.5-.3 0-.4.2-.4 1 0 1 0 1.1.4 1.2.3 0 .4.3.4 1 0 1.4 1.2 2 2.1 1l.7-.4c.2-.1.3-.3.3-.5s.2-.3.6-.3c.3 0 .6 0 .7-.3l.6-.4c.3-.1.5-.4.5-.5 0-.2.8-.5 1.3-.5l.3-.4c0-.2.3-.4.4-.4.2 0 .3-.1.3-.3 0-.2 1-.6 1.5-.5v-.2l.5-.5.5-.5s.1-.2.5-.3a2 2 0 0 0 .9-.5l.6-.3c.1 0 .3-.2.3-.4.1-.3.3-.4.5-.4 1.2 0 1.8-3.5.8-4.5l-.4-.7c0-1.1.4-1.1-8.8-1.1l-8.5.1m12 4l-.7.3-.6.4c-.2 0-.4.2-.4.4 0 .4-1 .5-1.2 0l-.3-.3c-.2 0-.3-.2-.3-.5v-.5h2c1.1 0 1.8.1 1.5.2m-87.2 1.5l-.2.5c0 .2-.2.4-.4.4-.3 0-.4.1-.4.3 0 .3-.2.5-.4.5-.3.1-.4.3-.4.8 0 .6 0 .7-.4.7-.2 0-.4.2-.4.5 0 .2-.1.1-.1-.3s-.2-.8-.3-.9c-.1 0-.2 0 0 .1 0 .3 0 .3-.2 0a1 1 0 0 1-.4-.7c0-.3 0-.4-.1-.3-.2 0-.2 0-.1-.3 0-.2 0-.3-.2-.2-.4.2-.3-.2.2-.8.3-.3.6-.4 2.2-.4 1 0 1.8 0 1.6.1m-31.3 3.2l.1.4s.1.2.3.2c.3.1 0 .2-.6.2-1.1 0-1.3-.5-.5-1 .2-.1.4-.4.4-.6 0-.4 0-.4.1 0l.2.8m24.5.6l.6.9c.2 0 .3.2.3.3 0 .1-.1.1-.4 0l-1.2-.2c-.5 0-.7 0-.6-.2.5-.1.6-.4.6-1 0-.8.4-.7.7.2m-124.3 3c-.1.2-.4.3-.6.4-.6 0-.7 3.9-.1 3.9.2 0 .4.1.5.4.1.3.3.3 1.8.4 2.2 0 2 0 2.4.4.3.2.8.3 2.4.4 1.6 0 2 .2 2.2.4.5.6 6 .6 6.2 0 0-.3.1-.5.3-.5.3 0 .5-.6.5-1.9 0-1-.1-1.1-.6-1l-.3-.4c-.1-.4-.8-.5-3-.6-1.2 0-1.6 0-1.8-.3-.3-.4-.5-.4-3.3-.5-1 0-1.4 0-1.4-.2 0-.5-.4-.5-2.5-.6-1.1 0-2 0-2-.2l-.1-.2c-.4-.2-.5-.2-.6.1m101.3 2v1.2s.1.2.4.2c.6.2.6 2.8 0 2.8-.4 0-.5-.2-.4-.6l-.4-.3c-.3 0-.4-.3-.4-.7a1 1 0 0 0-.4-.8c-.2-.1-.4-.5-.5-.8 0-.3-.3-.8-.5-1-.7-.6-.5-.9.9-.9h1.3v1m23.4.3c-.7.8-.9 1-1 1.5 0 .3-.3.6-.5.6-.3 0-.4.2-.3.4 0 .2 0 .4-.3.6l-.5.8c-.2.6-.9.9-1.4.5-.4-.2-.3-2.3.1-2.6.2-.2.4-.6.4-1 0-.3.2-.7.4-.8l.2-.3c-.1-.1.6-.2 1.6-.2h1.8l-.5.5m96.7 3.2c-.1.4-.3.4-3.3.4-2.9 0-3 0-3.2.4 0 .3-.3.4-1.2.4l-1.2.1v2.2c0 2.5-.2 2.4 2.8 2.4 2.3 0 2.4 0 2.6-.4 0-.4.1-.4.4.3.1.4.3.7.4.7l.2.6c0 .5 0 .6-.4.6-.2 0-.4 0-.3.1 0 .5-.1.7-.5.7-.2 0-.3.1-.3.4 0 .3-.2.4-1.7.4-2.3 0-2.4 0-2.4 2.5-.1 2.9 0 3 1.3 3 1.4-.1 1.8-.2 1.8-.6 0-.2.3-.2 1.3-.2 1.5 0 2.6-.2 2.6-.5 0-.7 1.6-1.4 1.9-.7.2.7 5.3.5 5.3-.1 0-.3.3-.4.7-.3l.1-.4c0-.2.2-.4.3-.4.7 0 1.3-1.7 1.3-3.4 0-1-.1-1.7-.2-1.7-.3 0-.4-.8-.5-2.8 0-2.8 0-2.7-.3-2.6-.2.1-.2 0 0 0 0-.2 0-.4-.3-.6l-.3-.6c0-.5-6.8-.4-7 .1m4 4.7v3.7h-2.5v-1.2a175.3 175.3 0 0 1-.2-2.7l1.2-.1c1.2 0 1.4 0 1.4.3m-227 .2c-.2.3-.5.4-.6.4-.2 0-.2.7-.3 2.8v9.4c.1.3.4.3 2 .4 1 0 1.8 0 1.8-.2v-.3l.1-2v-1.4h6.4l6.3-.1v-2c.2-2.8.5-2.6-6.5-2.6h-5.6v-1.7c.1-2.3.2-2.3-.7-2.4-.5 0-.8-.2-.8-.4 0-.4-1.7-.3-2.1.1m120.7.7c0 .7 0 .6-.2-.1v-.6c.1 0 .2.3.2.7m-7.2 3.9c0 .2 0 .4.2.4 0 .1.1.3 0 .4 0 .1 0 .2.2 0 .2 0 .3 0 .3.2s-.1.3-.3.3c-.3 0-.4.5-.4 1.5 0 .6-.1.9-.3.9-.2 0-.3 0-.3.2s0 .2-.3 0l-1-.2c-.9 0-1-1.1-.2-2 .3-.4.5-.8.4-1 0 0 .1-.3.4-.4.3 0 .5-.2.4-.3-.2-.2.3-.6.6-.5.1 0 .3.3.3.5m-7.3 5.5c0 .2.2.4.4.5.6.2 1.2 1 1.3 1.8v.8h-1.6c-2.2 0-2.4 0-2.4 1.3 0 .6-.8.2-1.2-.8-.7-1.7-.9-1.9-1-1.9l-.3-.6c0-.4-.3-.8-.5-1-.4-.3-.3-.4 2.4-.4 2.5 0 3 0 3 .3m15 .5c1.6 0 1.8 0 2 .4 0 .2.2.4.4.4.3 0 .3 0 .2.1-.1 0-.2.2-.1.3 0 .1 0 .2-.2.2l-.3.1c0 .4-.3 1-.6 1.2-.3 0-.4.3-.4.8s0 .6-.4.6c-.3 0-.4.2-.4.4 0 .3-.1.4-.3.4l-.4.4c0 .4-.3.4-1.3.4h-1.1l.4-.5.7-.5c.1 0 .2-.3.2-.7v-.6h-1c-1 0-1.2-.1-1.6-.5-.4-.4-.4-.5-.2-.5s.4-.2.4-.4c.1-.4.3-.5.7-.4.1 0 .2 0 .1-.2 0-.4.1-.8.3-.7 0 0 .1 0 0-.1 0-.2 0-.4.3-.4l.3-.6v-.5l.2.5c.1.4.2.4 2 .4m-28.4 1c0 .1 0 .3.3.4.5.4.6 2 0 2-.4 0-.5-.3-.4-1l-.4-.4c-.3-.3-.3-.3 0-.7.5-.5.7-.6.5-.3m-4.8 1s.2.3.4.3.4.3.4.5.1.4.4.4l-3 .1h-3.3l.1-.4c0-.3.3-.5.5-.6.2 0 .4-.2.4-.4 0-.3.3-.3 2-.3 1.8 0 2 0 2 .3m139.3 2.5l-.2 1.6c0 1.2 0 1.4-.3 1.4-.2-.1-.3 0-.3.3s0 .4-2.5.4c-2.2 0-2.6 0-2.6-.3 0-.5-.6-.5-4-.5h-3v4.6h4.7c5 .2 4.7.2 4.6.5-.2.2.4.4 1.5.4h1.1v3.6c.1.3.7.5 2.3.5h1.6l.1-2.4v-2.5c0-.1 0-.2.2-.2.5 0 .9-4.5.6-6.7l-.1-1h-1.7c-1 0-1.8.1-2 .3m-101 .4c-.1.2-.3.3-.4.2 0 0-.2 0-.2.2-.1.1-.1 0-.2-.1 0-.2.2-.4.3-.4.2 0 .3 0 .3-.2 0-.1 0-.2.1-.1.1 0 .1.3 0 .4m-.7.9l-.3.3-.2.3c.1.1 0 .2 0 .2-.3 0-.3-.6-.1-.9h.6m-116.5 1.8c-.2 0-.3.2-.3.3l-.7.3c-.6.1-.7.2-.7.6l-.4.3-.5.5v.3l-.2.4-.2.2c-.2 0-.3 0-.3.2l-.2-.7v-.9h-1.9c-1.7 0-1.8 0-2 .3 0 .3-.2.4-.3.4-.2 0-.4.3-.5.5 0 .3-.3.5-.5.5-.5 0-.4 7.7.1 7.8.3 0 .4.3.4.8 0 .4.1.6.4.7.2.1.4.3.4.5s.1.4.3.4l.7.4c.7.7 5.3.6 5.3-.1 0-.2.2-.3.4-.3s.4 0 .5-.2h.3l.1-.1.1-.5.2-.8c.1-.3.3-.5.4-.5.3 0 .3-.5.3-2.7 0-3.2 0-3.2 1-3.2.7 0 .8 0 .8.4 0 .2.1.4.4.4.3 0 .4 0 .4.6 0 .3-.1.5-.2.4-.1 0-.2 0-.1.2 0 .1 0 .3-.2.4-.2 0-.3.3-.3.5s-.1.4-.3.4c-1.2 0-2 3.8-1 5 .5.4 1.8.4 1.7 0 0-.2.3-.3 1.1-.3 1 0 1.2 0 1.4-.5l.5-.5c.3 0 .5-.4.5-1l.4-.4c.5-.1.6-7 .2-7-.1 0-.2-.1-.1-.3 0-.2 0-.3-.2-.2H32c.1-.7 0-1.1-.4-1.2-.2 0-.4-.2-.4-.4l-.3-.4c-.2 0-.5-.3-.6-.5-.1-.2-.4-.3-.5-.3a.3.3 0 0 1-.3-.3c0-.4-3.2-.7-4.4-.4m98.9 1c0 .3-.2.6-.3.7-.3.2-.4.8-.5 1.5l-.2.2c-.2 0-.4.2-.5.6l-.2.8h-3.2c-1.8 0-3.1-.1-2.9-.2.2 0 .4-.3.5-.5.1-.3.3-.5.5-.5s.3-.2.3-.4c0-.5.2-1 .5-1 .1 0 .3-.1.4-.4 0-.2.2-.4.4-.4l.4-.3c.2-.7 4.8-.6 4.8 0m10-.2c0 .2.7.5 1.6.5.4 0 .6.2.7.5 0 .2.2.3.4.3.1-.1.2 0 .2.3 0 .4.1.5.4.5.3 0 .4.1.4.8 0 .7 0 .8.4.8.3 0 .4.1.4.8 0 .6 0 .8.4.8.2 0 .4.1.4.4l.1.5h-2c-2 0-2.2 0-2.3-.4 0-.3-.3-.3-.8-.3s-.7-.1-.7-.3c0-.2-.2-.4-.5-.4-.3-.2-.3-.2.3-.3.4 0 .8-.2.8-.3v-.7c.1-.2 0-.4 0-.4-.1 0-.1-.2 0-.4 0-.3 0-.4-.2-.3-.3.2-.4 0-.4-1.2 0-.7-.2-1-.4-1l-.2-.2c0-.2.3-.2.6-.2s.5.1.5.2m-5.9 3.6c0 .4.2.6.3.6.1 0 .2 0 .3.4l.2 1c0 .2.2.4.4.4s.3.3.3.8c0 1.3 0 1.6-.9 2.4-.4.5-.8.9-.7 1 .1.1 0 .7-.4.8-.2.1-.4.3-.4.6-.1.3-.1.3-.2-.1 0-.3-.2-.8-.4-1-.2-.2-.4-.6-.4-.9 0-.6-.2-1-.5-1-.2 0-.3-.3-.3-.8 0-.4 0-.8-.2-.9v-.3s0-.2-.2-.1c0 0-.2 0-.3-.2 0-.2 0-.3.2-.3s.4-.1.5-.3c0-.2.3-.5.5-.7.2-.2.3-.6.3-.8 0-.4.1-.5.4-.5.4 0 .5-.2.4-.7 0-.5 1 0 1.1.6m-106.6 2.5v1.7h-.8c-.7 0-.7 0-.7-.7 0-1 .2-1.7.4-1.5l.3-.5c.3-1.5.8-.8.8 1m97 1.7h-1.8c-.5 0-.2-.1.8-.1h1m110.6 4.2c-.3 0-.3.3-.3 1.2 0 1 0 1.1-.4 1.2-.4.1-.4.2-.3.7l.1.9c0 .5.6.6 2.3.7.6 0 .8.1.8.3 0 .4-.2.3 2 .4 1.4.1 1.9.2 2.2.5.3.3.6.4 1.6.4s1.3 0 1.3.3c0 .2.1.3.3.2h.3c0 .2.7.2 1.6.3 1.3 0 1.7 0 2 .4.4.4 1.5.4 1.6 0 0-.1.2-.2.3-.1l.1-2c0-2.2 0-2.2-.3-2.2s-.5-.2-.6-.5c0-.2-.2-.4-.3-.4-.6.3-3.4 0-3.5-.3-.1-.3-.6-.4-2.7-.5l-.7-.2c-.2-.3-.8-.5-2.3-.6-1 0-1.5-.2-1.6-.4-.3-.3-2.7-.6-3.5-.3m-197.7 5.6c-.2.1-.3.3-.3.4 0 .2-.3.3-1.2.3-1.1 0-1.4 0-1.6.4-.1.3-.4.4-1.1.4-.7 0-1 0-1.3.4-.3.2-.8.4-1.3.4-.6 0-1 .2-1.2.4-.2.2-.5.3-1 .4-.9 0-1.5.1-1.5.5l-.4.2c-1.2 0-1.3.2-1.3 1.7 0 1.8.1 2.6.5 2.6.2 0 .2.1.2.2-.3.5 2.7.5 3 0 .4-.5 2.7-.7 2.7-.3 0 .2 0 .3-.3.2-.2 0-.3 0-.2.2.1.2 0 .3 0 .2-.2 0-.2.1-.2.3 0 .3-.2.5-.4.6-.2 0-.5.2-.5.4s-.3.4-.5.5c-.2 0-.4.2-.4.4l-.4.4c-.2 0-.3.2-.3.3 0 .2 0 .4-.3.5-.6.2-.8 2.5-.2 2.9.3.1.4.5.4 1.1.1 1.4.1 1.4 1.6 1.4 1.2 0 1.4 0 1.5-.4 0-.4.3-.4 1.1-.4 1.2 0 2.2-.3 2-.6 0-.1.3-.2 1.1-.2 1.1 0 1.3 0 1.4-.4 0-.3.3-.4 1.2-.4 1 0 1.1 0 1.2-.4.1-.3 1.3-.6 2.3-.4l.1-.4c0-.3 1.2-.5 2.2-.4.5 0 .5-3.2 0-3.7l-.5-.6c-.1-.4-3.1-.5-3.3-.2-.1.1-.2.2-.3.1-.1 0-.2 0-.2.2 0 .3-.2.3-1 .3-1 0-1.8.4-1.4.7l-.5.1-.6-.1c0-.3.2-.6.6-.7.2-.1.3-.3.3-.6 0-.2.1-.3.3-.3l.4-.4c.1-.2.4-.4.6-.4l.3-.3c0-.2.4-.7.8-1.1.4-.4.8-.8.8-1 0 0 .1-.3.4-.5.5-.5.6-4.7 0-4.9h-3.3m196.6 5.6l-.6.2c0 .5 0 .6-.5.6-.3 0-.5 0-.5.4 0 .2-.1.4-.4.4-.2 0-.4.1-.4.4 0 .2 0 .4-.3.4s-.4.1-.4.6c0 .4-.2.8-.5 1-.6.5-.7 7 0 7.5l.5.7c0 .2.3.3.4.3.2 0 .4.3.4.5.1.4 1.5.6 2.7.4l.3-.8c0-.5.2-.8.5-.9.3 0 .3-.3.3-1.3 0-1.1-.2-1.7-.5-1.5 0 0-.3-.1-.4-.4l-.4-.5-.2-.8c0-.7 0-1 .3-1l.4-.3c0-.2.2-.4.4-.4.1 0 .3-.2.3-.4 0-.4.1-.4 2.1-.4 1.2 0 2.2 0 2.1.2-.1.2.3.6.6.6.6-.1 1 0 1 .3 0 .2.2.4.4.4.4.1.4.3.4 1.7 0 1.8-.4 2.5-1.5 2.5-.4 0-.6.1-.7.4 0 .2-.3.4-.5.4-.3 0-.5.1-.5.4l-.4.4c-.2 0-.3 0-.2.1v.3c-.3.2-.3 2.7 0 2.7l.1.3c0 .2 0 .3.2.2h.3c0 .2.7.3 1.5.3 1.6 0 2-.2 1.8-.4l.6-.3c.4 0 .7-.3.8-.4 0-.2.2-.3.3-.3.3 0 .7-.4.8-.7 0 0 .1-.2.2-.1l.3-.6c.2-.3.3-.6.5-.6l.3-.7c0-.5.2-.8.4-.8.6 0 .7-5.3 0-5.9-.3-.3-.5-1-.4-1.6 0-.1-.1-.2-.3-.2-.2 0-.4-.2-.5-.5 0-.2-.3-.4-.4-.4-.2 0-.3-.2-.3-.4 0-.3-.1-.4-.5-.4-.3 0-.5-.2-.5-.4-.1-.3-.3-.4-.8-.4s-.7-.1-.8-.4c-.1-.5-5.5-.8-7.8-.4m-189 12.4c-.3.2-.7.3-1.2.3-.6 0-.8.1-.9.4 0 .3-.3.4-.9.4-.6 0-.7 0-.7.4s-.2.4-1 .4-1.1.1-1.3.4l-.7.4c-.6 0-1 .2-1 .5 0 .2-.2.3-.7.3-.4 0-.7.1-.9.4-.1.2-.4.4-.9.4s-.7 0-.7.4c-.1.2-.3.3-.6.3-1 0-1 .2-1 1.7v1.5c.6-.1.7 0 .7.7 0 .8.6 1.1 1.8 1l1-.1c.2 0 .4-.2.4-.4s.1-.4.6-.4c.9 0 1-.1 1.3-.5.1-.2.5-.3 1-.3.6 0 .8-.1.8-.4.1-.3.3-.4 1-.4l.7-.1c0-.5.1-.7.8-.7.6 0 .8 0 .9-.4 0-.3.2-.4.8-.4.4 0 .7 0 .7-.3.1-.3.4-.4 1-.5.6 0 1.1-.2 1.2-.4.1-.2.4-.3.6-.4.6 0 .6-3.4 0-3.7l-.3-.6c0-.5-2.1-.5-2.6 0m180.6 6c-.2.1-.3.3-.3.4 0 .2-.1.3-.2.3l-.4.1h-.6c-.2.1-.4.3-.4.5s-.2.4-.4.5c-.2 0-.4.2-.4.4 0 .3-.2.4-.6.3-.1 0-.2.2-.2.5s0 .5-.3.5c-.2 0-.3 0-.2.3v.2c-.2-.1-.2.3-.2 1s-.1 1.1-.4 1.4c-.3.3-.4.7-.4 1.6 0 .9 0 1.2.4 1.5.2.3.4.7.4 1.4l.1 1c.4-.1.6 0 .6.5s1 1.5 1.7 1.8c.4.2.7.4.8.7 0 .2.2.3.6.3.3 0 .5 0 .4.2-.3.2 1 .6 2.3.6 1.2 0 1.4 0 1.6.4l.6.3h.5l.2-.4c0-.2.2-.3 1.2-.3 1.4 0 1.9-.1 1.9-.5l.6-.4c.3 0 .5-.2.5-.3 0-.2 0-.2.2-.2s.3-.2.4-.5c0-.5.2-.6.5-.6.2 0 .4-.2.4-.4s.1-.4.3-.5c.3 0 .4-.2.4-.8 0-.6.2-1 .4-1.1.5-.4.6-4.3.2-4.6v-.3h-.3c-.2 0-.3-.1-.3-.8 0-.6 0-.8-.3-.9-.2 0-.5-.3-.5-.6s-.3-.7-.6-.8c-.3-.2-.5-.3-.4-.4.1-.1-.5-.6-.9-.6s-.9-.5-.7-.7l-.2-.1c-.7 0-1.1-.2-1.3-.4-.3-.5-5.1-.8-6.7-.4m4.2 4.7c.2 0 .4.2.4.3 0 .2 0 .3.2.3l.4.1h.6c.2.1.3.2.3.4s.2.3.4.4c.3 0 .4.3.4.4l.4.4c.6.2.6 3.4 0 3.4-.2 0-.4 0-.3.2.2.3-.2.6-.8.6-.5 0-.7.2-.8.4-.1.5-.9.5-1.2 0a1 1 0 0 0-.7-.4c-.6 0-1.1-.2-1-.4 0 0-.2-.3-.6-.4-.3-.1-.7-.3-.7-.5s-.2-.3-.6-.3l-.1-.3c0-.2-.2-.4-.4-.5-.4-.1-.4-.3-.4-1.6s0-1.5.4-1.7c.2-.1.4-.3.4-.5 0-.3 1.3-.5 3.7-.3m-38 33c-.2 0-.4.2-.5.3-.2.2-.7.4-1.8.4l-.1.4-.4.2c-.5 0-2 1.4-2 2-.1.3-.3.6-.6.7-.2 0-.3.2-.3.7 0 .5-.1.7-.4.8-.6.2-.6 4.5 0 5 .2.3.4.8.4 1.1 0 .5.2.8.4.8.3.1.4.4.4.8l.3.1c.3 0 .4.1.4.4 0 .4.7 1.2 1 1.2.1 0 .4.2.6.5.3.2.6.5.8.5.2 0 .4 0 .4.2 0 .3.8.5 2 .5.7 0 1 .1 1.1.4.3.6 1.8.5 2 0 0-.3.2-.4 1-.4.7 0 1 0 1.3-.3.2-.2.7-.5 1-.5.4-.1.7-.3.7-.6 0-.2.3-.3.4-.3.2 0 .4-.2.4-.4s.3-.4.5-.5c.3 0 .4-.2.4-.8 0-.5 0-.7.3-.7.4 0 .4-.1.4-3.4 0-3.2 0-3.4-.4-3.5-.3-.1-.3-.3-.3-1 0-.6-.1-.7-.4-.7-.3 0-.4-.1-.4-.3l-.4-.5c-.2-.1-.4-.3-.4-.5l-.4-.4c-.2 0-.4-.2-.4-.4 0-.1 0-.3-.2-.3-.1 0-.4-.1-.6-.4-.3-.3-.8-.4-1.5-.5-.7 0-1-.2-1-.4-.2-.4-3-.6-3.8-.3m2.5 4.8c.2 0 .3.2.2.2l.3.3c.3.1.5.2.6.1l.4.4c.1.3.3.6.5.6.1 0 .3.3.3.6.1.4.3.7.4.7.2 0 .3.2.4.5 0 .9 0 1 .4 1.2.3.2.3.3 0 .8-.3.3-.5.8-.5 1 0 .4-.3.6-.7.7l-.8.5c-.3.5-2.4.5-2.5 0 0-.2-.3-.4-.5-.5-.2 0-.4-.2-.4-.4 0-.1-.1-.2-.3-.2-.2 0-.4-.2-.6-.5 0-.2-.3-.4-.4-.4-.1 0-.2-.1-.2-.4 0-.3-.2-.7-.4-.9-.5-.5-.6-3-.2-2.9.1 0 .3-.1.5-.4 0-.2.2-.4.4-.4l.5-.4c.4-.4 1.8-.6 2.6-.2m-107 1l-.6.5-.5.5c0 .2-.2.3-.4.3-.3 0-.4.2-.4.4s-.2.4-.3.4c-.2 0-.3.1-.3.2l-.5.7-.5.6v.6c0 .3-.1.5-.4.5-.6.2-.6 6.8 0 7 .3 0 .4.2.4.7 0 .6.1.7.5.8.3 0 .4.2.4.4v.3l.7.4c.5.5.5.5 1.1.5.2 0 .5.2.5.5.1.3.3.3.9.3.5 0 .7.1.8.4.1.6 5.3.6 5.3 0 0-.2.1-.4.5-.4l.5-.1c-.1-.4 0-.6.3-.6l.4-.4c0-.2.3-.4.4-.5.4-.3.3-1.4-.1-1.4-.2 0-.3 0-.3-.2 0-.3-.3-.6-.5-.6h-.4l-.2-.4-.2-.2c-.1.1-.2 0-.2 0 0-.4-2.3-.3-2.5 0-.8 1.4-4-.7-4-2.7 0-.7.1-1 .4-1l.4-.4c-.1-.6 0-1 .3-1 .2 0 .4-.2.4-.4s.3-.5.5-.5.4-.2.4-.4.2-.3.4-.4c.2 0 .4-.2.4-.4 0-.5 1.7-.4 2.3 0l.7.5c.2 0 .3.2.3.4s.1.4.3.5c.2 0 .3.2.2.4v.1c.2 0 .3.4.3 1.2v1.2l.7.2c.4 0 .7.2.7.4 0 .3 1 .5 1.7.4l.7-.1.1-.8c0-.7 0-.8.4-1 .6 0 .5-2.7-.1-2.7-.2 0-.3-.3-.3-.8 0-.6 0-.8-.4-.9-.2 0-.4-.3-.4-.6 0-.5-.6-1-1.2-1-.2 0-.4-.2-.4-.5-.1-.2-.3-.3-.8-.3s-.7-.2-.8-.4c-.2-.6-7.4-.7-7.6-.1m90.3 3.2c0 .3-.3.4-.7.4-.5 0-.8 0-1 .2h-.4c-.6.1-.8 2.8-.2 3.1l.2.2c-.1 0-.1 0 0 .2.2 0 .3.5.3.9s.2.7.4.8c.3 0 .3.3.3.8v.5l-.5-.2-.6-.4-.8-.4c-.2 0-.4-.2-.6-.4 0-.2-.3-.4-.5-.4a.3.3 0 0 1-.3-.3c0-.2-.2-.4-.5-.5-.2 0-.5-.3-.5-.4-.2-.6-3.4-.6-4 0-.3.2-.7.4-1 .4-1 0-1.6 1.9-.6 2.1.3 0 .3.3.3.9 0 .6.1.8.4.9.3 0 .4.2.5.8 0 1.2 0 1.3.3 1.2l.3.4.2 1c0 .3.2.5.4.5s.3.2.3.4v.5l.2.5c0 .1.1.2.3.2.1 0 .3 0 .3.2 0 1.3.2 1.7.6 2 .2.2.4.6.4 1 0 .5 0 .7.4.8.2.1.3.3.3.8 0 .6.1.8.5.9.3 0 .5.3.6.5l.5.2h.5l.1-.4c0-.2.2-.3.6-.3 1 0 1.6-.2 1.6-.5l.1-.3c.1 0 .2-.5.2-1.2l-.1-1.1c-.2 0-.2-.1-.1-.2 0-.1 0-.3-.2-.3-.2-.1-.3-.4-.3-.7 0-.8-.2-1.2-.5-1.2-.2 0-.3-.2-.3-.7 0-.4-.1-.7-.4-.9-.5-.2-.5-1 0-1 .2 0 .4.2.4.5 0 .2.3.3.5.3l.7.4c.2.3.6.4.8.4.2 0 .3.2.3.3 0 .2.3.4.5.5.3.1.5.3.5.5s.2.3.4.3.4 0 .4.2l.8.5.8.6c0 .5 2 .5 2.2 0 0-.3.3-.4 1-.4 1.3-.1 2-1.8 1-2.8-.2-.1-.3-.4-.3-.5-.1-.6-.4-1.3-.6-1.3l-.3-.9c-.1-.4-.3-.8-.4-.7-.2 0-.3-.3-.4-.7a3 3 0 0 0-.3-1c-.2-.3-.2-.3 0-.2.2.1.2.1.1 0l-.3-.2c-.2 0-.3-.4-.3-.9 0-.4-.2-.9-.3-1-.1-.2-.2-.1 0 0 .1.3 0 .3-.2.1-.2-.1-.3-.5-.3-1s-.1-.6-.4-.7c-.3-.1-.4-.3-.4-.9 0-.9-.3-1.6-.6-1.4-.1 0-.2-.1-.2-.4 0-.3-.1-.5-.2-.5l-.6-.4c-.6-.6-1.2-.7-1.3-.2m-72.2 3.4v.6H99c-.3-.1-.5.5-.5 1.8 0 .8 0 1-.4 1.1-.3.1-.4.3-.4 1.2 0 1 0 1.1-.4 1.2-.3.1-.4.3-.4 1.3l-.1 1.1c-.6 0-.7.1-.7 1.2 0 1 0 1.2-.4 1.3-.3 0-.3.2-.3 1 0 1-.1 1.1-.4 1.2-.7.2-.7 2.4 0 2.4l.6.4c1 1 3.7.4 3.7-.8 0-.3 0-.6.2-.7.2-.3.2-.3 0-.2-.2.1-.1 0 .1-.2.3-.3.5-.6.5-1.2s0-.8.2-.8c.3 0 .5-.4.5-1 0-.3.2-.4.5-.4s.5 0 .4.2c-.2.3.3.6 1.3.6s2.4 1 1.5 1c-.2 0-.3.1-.3.4-.1 1.5-.2 1.8-.5 2-.3.3-.4.6-.4 1.9 0 1.8 0 2 1.6 2 .8 0 1 0 1 .3v.3h1.3c0-.1 0-.2.3-.1.2 0 .3 0 .4-.2 0-.9.3-1.8.5-2 .3-.3.4-.6.5-2 0-.3.1-.5.3-.5.1 0 .3 0 .3-.3v-.4l.1-1c0-.6.2-.8.3-.8.4 0 .6-.4.6-1.3 0-.4.1-.8.3-1 .4-.4.6-1.6.5-2.5h.2c.1 0 .2-.1.2-.3l.1-.2c.1 0 .2-.7.2-1.6v-1.5h-.8c-.5 0-.8-.1-1-.4-.2-.5-1.7-.6-2.2-.1-.2.2-.3.2-.3.1 0-.5-.4.6-.4 1.2 0 .5-.1.9-.4 1.2-.2.2-.4.7-.4 1.2v.8h-1.2c-1-.1-1.3-.2-1.6-.5l-.4-.4c-.8 0-.9 0-.9-.9 0-.5 0-.8.2-.8.2.2.6-.8.6-1.9 0-.6.1-.8.3-.8.2.1.3 0 .3-.8 0-.6-.2-.8-.4-.7-.2 0-.2 0-.1-.1.1-.3 0-.3-1.5-.3-.6 0-1-.2-1.2-.4-.5-.5-1-.5-1.3 0m53.6 3.1c0 .4-.3.4-1.8.5-1.2 0-1.7.2-2 .4 0 .2-.5.3-1.5.4-1 0-1.4.1-1.7.4-.2.2-.6.3-1.3.4-1.3 0-1.4.3-1.3 2.6 0 1.3.1 1.8.4 2 .2.1.3.6.4 1.4a15.2 15.2 0 0 0 0 1.6h.3c.2 0 .5.4.5 1 0 2.5 0 2.7.3 2.7.4 0 .5.4.6 2.1 0 1.2 0 1.5.4 1.6.2 0 .3.3.4.8v.7h2.1c-.5-.4.3-.7 2-.7s1.9 0 2-.4c.1-.3.3-.4 2-.4s1.9 0 2-.4c0-.3.2-.4.8-.4 1 0 1-.2 1-2.2-.2-1.8 0-1.7-2.9-1.7-2.2 0-2.5.1-2.5.4-.1.3-.3.4-1.4.4h-1.2l-.1-.7c-.2-.9-.2-.8.6-.9.3 0 .7-.2.9-.4.2-.3.6-.3 1.6-.4.8 0 1.5 0 1.6-.2h.3c.3.2.5-.8.5-2.5v-1.7l-.7-.2c-1.3-.4-3.7 0-3.4.4 0 .1 0 .1-.1 0h-.3c0 .2-.5.2-1.2.3h-1.3v-.6c0-.3 0-.5.2-.5l.4-.3c.2-.2.6-.3 1.6-.4 1.4 0 1.8-.2 1.6-.5 0-.2.3-.2 1.2-.2 1 0 1.3 0 1.4-.3 0-.2.2-.3.3-.2 0 0 .2-.1.3-.4.1-.6-.3-1.6-.5-1.4-.2.1-.2-.2-.2-.7 0-.6-.1-.8-.4-.9a.7.7 0 0 1-.5-.5c-.1-.5-1.2-.5-1.4 0m-35 2.2c-.1 0-.2.3-.2.7 0 .5-.4 1.2-.7 1v2.5c0 2.4-.1 2.7-.5 3-.3.4-.4.7-.4 3.1 0 2 0 2.7-.2 2.6-.3 0-.5.7-.5 1.9v.9h.8c.6 0 .8.2.8.4s.3.3 1.4.4c1.7 0 1.6 0 1.7-2 0-.6.1-1.1.2-1.1.4 0 .5-.8.6-3 0-2 0-2.3.3-2.2h.2c-.1-.1 0-.3 0-.4.2-.2.2-.4.2-.5-.2-1.3 0-5 .4-5.2.5-.1.6-1.3.1-1.3-.2 0-.4-.2-.5-.5-.2-.5-3.3-.8-3.8-.3m10.4.7l-.1 8.4v8.1l.6.1 5.2.1c5.4 0 5.2 0 5.2-2s-.2-2-3.6-2h-2.7v-5.6c0-5.3 0-5.6-.4-6l-.4-.7c0-.4-3.4-.7-3.8-.4"/>
</svg>
