<?xml version="1.0" encoding="UTF-8" standalone="no"?>
<svg
   xmlns:dc="http://purl.org/dc/elements/1.1/"
   xmlns:cc="http://creativecommons.org/ns#"
   xmlns:rdf="http://www.w3.org/1999/02/22-rdf-syntax-ns#"
   xmlns:svg="http://www.w3.org/2000/svg"
   xmlns="http://www.w3.org/2000/svg"
   xmlns:sodipodi="http://sodipodi.sourceforge.net/DTD/sodipodi-0.dtd"
   xmlns:inkscape="http://www.inkscape.org/namespaces/inkscape"
   width="1972"
   height="390"
   version="1.1"
   id="svg14"
   sodipodi:docname="intemit.min.svg"
   inkscape:export-filename="D:\BiblioMit\BiblioMit\wwwroot\images\ico\intemit.min2.png"
   inkscape:export-xdpi="96"
   inkscape:export-ydpi="96"
   inkscape:version="1.0 (4035a4fb49, 2020-05-01)">
  <metadata
     id="metadata20">
    <rdf:RDF>
      <cc:Work
         rdf:about="">
        <dc:format>image/svg+xml</dc:format>
        <dc:type
           rdf:resource="http://purl.org/dc/dcmitype/StillImage" />
      </cc:Work>
    </rdf:RDF>
  </metadata>
  <defs
     id="defs18" />
  <sodipodi:namedview
     inkscape:document-rotation="0"
     pagecolor="#ffffff"
     bordercolor="#666666"
     borderopacity="1"
     objecttolerance="10"
     gridtolerance="10"
     guidetolerance="10"
     inkscape:pageopacity="0"
     inkscape:pageshadow="2"
     inkscape:window-width="2400"
     inkscape:window-height="1271"
     id="namedview16"
     showgrid="false"
     inkscape:zoom="0.65872211"
     inkscape:cx="986"
     inkscape:cy="195"
     inkscape:window-x="2391"
     inkscape:window-y="-9"
     inkscape:window-maximized="1"
     inkscape:current-layer="g12" />
  <g
     fill="#2b527d"
     fill-opacity=".871"
     id="g12">
    <path
       d="M1527.072 390.636c1.202-2.972 3.805 2.92 0 0zm-11.779-4.055c-10.904-3.055-21.725-20.169-17.09-29.59 10.765-1.729 18.517 4.035 24.72 12.022 5.979 6.9 15.016 23.539-2.613 19.318-1.74.008-3.891-.185-5.017-1.75zm.176-19.49c-3.237-4.631-3.522-.782 0 0zm27.245 20.128c-5.86-8.003-11.095-23.66-14.702-28.117-4.223-6.392-13.462-17.027-21.855-19.088-18.027-4.223-8.882-15.096 4.288-11.396 16.727-1.53 24.11 16.878 30.337 26.83 1.353 13.26 9.345 20.064 8.487 31.821-1.765 1.512-4.859 1.655-6.555-.05zm16.005-2.4c-4.1-10.678-8.602-18.57-10.29-30.207-3.867.489-2.533-15.237-5.705-8.907-3.081-10.095-6.466-16.607-13.559-25.09-1.571-16.402-27.08-9.528-27.473-20.314 13.011-14.087 37.544-4.197 43.34 11.943 4.89 11.467 10.575 20.353 11.826 33.351 4.083 11.181 9.301 27.332 4.04 39.753zm11.876-3.699c-2.15-14.666-3.161-37.263-6.131-45.65 1.317-15.763-6.893-16.994-7.502-31.7-4.218 4.178-3.587-12.996-8.495-10.324-9.488-9.422-15.227-19.62-24.601-17.431-5.269-3.512-27.4 1.765-12.451-9.877 16.514-9.098 36.79-3.633 48.434 10.285 13.495 17.22 15.182 39.147 18.13 59.857-1.093 12.796 4.563 40.537-7.384 44.84zm-6.78-93.194c-3.205-3.938 1.094 4.958 0 0zm-17.346-.834c-3.237-4.632-3.522-.783 0 0zm13-6c-3.237-4.632-3.522-.783 0 0zm-37-11.682c-2.819-3.573-1.939 5.299 0 0zm63.27 104.274c-1.787-24.553.093-49.257-.189-73.793-7.37-2.422 1.192-7.313-3.786-13.672-2.973 4.676-1.998-8.303-5.557-9.043 2.016-8.548-3.669-2.473-8.685-13.331-11.248-14.277-28.902-21.985-46.738-15.648-21.277-.44 8.5-20.657 19.131-14.871 19.66-1.354 40.665 4.425 50.815 22.725 11.502 16.18 11.573 37.433 10.225 57.177-1.016 17.702-2.356 35.926-9.081 52.133.35 3.12-1.75 15.595-6.136 8.323zm15.13-9.76c1.303-12.1 3.237-31.68 7.47-34.455.274-9.274 5.423-12.004-.523-11.59-1.956-16.927 7.297-8.533 4.042-27.174-.515-13.437-1.402-29.457-6.515-38.654.463-10.96-8.109-18.428-17.928-28.271-15.266-12.46-36.459-10.032-55.13-8.21-19.55-3.185 12.207-18.006 21.188-13.626 12.473-7.878 30.96-1.778 42.754 3.005 16.059 2.909 25.025 18.524 30.68 32.262 2.334 15.56 4.69 33.323 1.626 50.925-1.655 19.126-7.393 36.522-13.532 53.892-2.603 6.094-5.431 28.888-14.132 21.895zm25.325-111.687c-1.428 4.272.823 10.404 0 0zM1615 358.857c-1.561-15.135 13.722-27.85 11.63-42.258 5.789-6.14 5.348-21.636 9.785-31.254 1.914-18.524 5.3-37.369 2.731-56.496-5.111-8.538-1.552-18.538-11.242-21.968-5.09-11.081-17.56-16.95-28.224-20.001-15.148-6.21-33.807-4.222-51.752-5.106-21.76-5.473 12.956-12.494 19.44-14.397 18.551-.018 40.264-3.29 55.57 5.143 13.438 2.863 24.76 15.118 31.512 26.667 3.884 12.96 3.134 25.515 7.871 32.771 1.632 12.022-9.32 18.654-1.685 27.856 3.288-18.35 9.453-30.707 8.626-48.974 1.124-12.913-3.177-22.621-7.614-31.552-7.276-15.5-22.305-20.22-36.246-25.606-19.751-3.748-39.883-3.469-60.087-3.6-20.979-7.076 22.97-13.527 31.905-12.47 5.774-4.555 37.776-4.063 47.8-.298 8.272.68 17.676 4.78 22.825 9.358 11.816 4.981 15.71 19.61 21.314 27.627.155 14.47 8.126 27.954.766 40.493 1.814 15.73-5.002 27.111-7.17 40.443-3.652 9.386-6.328 18.37-11.825 28.642-3.582 13.064-11.191 24.037-16.048 36.157-5.607 6.777-11.95 23.701-1.968 7.116 7.896-10.832 12.904-23.092 20.115-34.418 5.117-12.907 9.974-11.715 12.377-24.95 5.712-13.29 11.744-25.931 15.096-39.563 2.411-17.867 11.575-40.765 3.424-56.979-2.122-19.075-9.835-26.373-25.04-36.35-13.178-7.047-26.779-12.35-42.632-10.333-20.024-1.15-36.838.804-55.457 6.098-21.625-4.39 17.917-16.036 24.978-16.245 17.656-5.01 37.88-8.983 57.421-8.41 17.884-1.948 27.904 6.887 41.617 6.632 7.752 6.533 25.285 13.443 26.113 25.682 7.098 9.704 12.508 31.174 7.072 41.178-.966 4.074-.813 21.023-4.133 29.982-3.91 9.28-6.997 23.41-13.274 32.674-4.901 9.213-8.074 23.866-18.619 28.953-1.875 14.962-16.004 27.675-24.502 40.026-8.602 10.169-18.846 32.639-30.894 33.45-.9-18.41-16.233 23.888-16.442 1.076 6.264-8.594 5.173-21.657-.084-4.526-3.801 4.771-6.35 22.885-15.05 17.73zm22.97-32.388c.043-3.362-3.07 3.332 0 0zm6.5-7.393c-3.014-3.299-3.048 1.358 0 0zm25.683-11.794c-1.762-1.897.63 5.77 0 0zm-20.383-10.472c-3.724-5.378.2 8.805 0 0zm5.521-16.375c-9.526.345 2.878 5.098 0 0zm3.95-10.466c-4.117-7.675-4.611 7.183 0 0zm-15.078-2.23c-1.64-1.42.861 8.54 0 0zm29.726 61.507c4.506-13.637 17.985-21.702 24.285-34.432 11.789-13.1 19.488-29.58 29.898-43.018 5.96-15.658 16.193-29.98 21.708-45.594 5.3-8.82 6.008-22.172 9.857-33.467 3.852-18.093-1.166-31.771-4.655-47.454-11.056-6.915-18.706-21.245-32.455-24.243-16.623-6.285-32.21-9.167-50.72-8.19-20.73-1.119-40.714.378-60.468 3.57-19.667 2.494.68-12.307 10.302-11.664 14.156-1.193 20.487-5.802 35.579-7.3 15.288-3.8 35.049-4.658 54.316-2.083 10.873 5.018-6.79-6.65 10.295-.907 9.689 4.545 18.573 4.242 28.639 8.042-4.531 2.06 9.247.888 7.36 5.426 9.306-.395 19.48 10.448 26.82 18.88 2.59 6.213 11.408 15.838 10.137 26.364 8.886 19.396-1.304 34.37-3.335 53.225-6.899 6.767-5.611 18.824-12.903 28.621-9.232 13.579-17.03 29.314-28.08 41.608-7.98 11.011-17.729 21.26-25.963 30.839-13.386 15.171-27.498 29.645-43.036 41.987-1.878 1.481-11.287 8.468-7.58-.21zM1629.22 87.78c-8.574-.973-.368 1.61 0 0zm100.822 217.118c5.293-13.829 22.696-27.813 33.437-41.436 13.342-16.161 26.202-32.511 37.09-49.993 6.155-12.903 14.868-27.45 19.952-38.469 3.22-16.69 10.75-34.055 4.936-51.544-1.82-13.481-7.985-22.09-16.987-31.836-10.703-11.614-24.694-18.537-37.644-22.9-16.38-5.947-33.494-7.558-51.106-9-20.27-4.73-40.758 2.372-61.055 1.275-13.039-8.27 21.74-13.244 29.473-12.074 21.502-6.511 44.926-.502 67.256-2.935 4.116-1.063 26.28.213 11.999 2.849 11.158.676 26.852.503 30.034 6.157 10.431-.515 14.821 4.741 20.02 7.12 10.502 5.183 19.54 8.868 28.603 18.798 7.272 8.473 10.84 19.183 14.068 29.723 4.939 18.93.412 37.614-5.304 55.116-4.524 15.202-13.915 27.732-21.938 40.678-11.096 15.713-23.342 30.24-36.97 43.685-12.066 12.691-23.654 24.08-36.326 35.637-10.497 3.829-17.95 23.338-29.538 19.149zM1702.219 48.78c-8.574-.973-.368 1.61 0 0zm109.591 214.135c7.1-18.201 25.441-29.874 34.66-47.284 7.805-11.843 18.698-23.536 22.877-35.902 7.104-6.895 9.402-22.254 15.257-31.735 2.78-13.57 7.684-25.407 6.935-40.983-2.28-13.581-9.22-27.156-16.836-39.542-11.277-9.938-23.168-16.787-37.06-22.153-12.621-4.728-24.862-6.898-39.575-9.025-21.752.244-44.524-3.066-65.434 2.797-9.884 2.688-29.2-3.33-10.164-7.619 14.776-4.003 27.654-7.846 43.79-7.705 13.565-7.764 36.106 2.224 44.733-13.295 18.77-5.874 38.965-8.805 58.977-8.49 17.826-.516 33.966 2.554 48.635 7.106 12.16 6.693 24.489 12.422 34.98 24.262 10.685 13.126 15.205 25.553 19.146 41.641 1.948 23.171.067 47.604-6.943 69.715-6.776 12.926-11.2 26.442-21.484 37.491-8.648 12.201-19.569 23.234-31.835 31.223-6.25 9.063-27.365 8.421-11.437-4.613 12.996-14.481 24.682-30.022 32.013-47.696 5.982-13.085 12.338-27.96 12.498-44.599.91-15.994-1.971-39.084-3.19-50.277-8.668-8.094-16.62-27.624-32.48-33.763-13.87-9.399-28.671-11.798-44.098-15.79-15.826 1.368-45.407-4.044-53.736 3.626 15.852.834 22.788.83 39.952 5.223-4.53.709 19.232 4.056 24.275 9.83.28 1.717 18.465 8.834 24.32 15.44 10.557 12.467 16.142 22.41 21.171 37.269.222 19.442 3.727 38.628-3.756 56.961-5.864 17.624-15.369 33.678-26.517 48.96-9.768 12.52-20.67 23.911-30.44 34.988-13.223 11.423-25.73 21.993-39.564 33.145-2.376 2.163-7.28 3.732-9.67.794z"
       id="path2" />
    <g
       style="font-size:350px;line-height:1.25;font-family:'Trajan Pro 3';-inkscape-font-specification:'Trajan Pro 3, '"
       id="text6"
       aria-label="intemit">
      <path
         id="path12"
         d="m 24.208,195.79501 c 0,26.25 0,51.1 -1.75,63.7 -1.05,8.4 -2.1,15.4 -8.05,16.8 -2.8,0.7 -6.6499998,1.05 -8.3999998,1.05 -3.15,0 -4.55,1.05 -4.55,2.45 0,1.75 2.45,2.45 5.6,2.45 9.7999998,0 30.4499998,-1.05 31.4999998,-1.05 1.75,0 22.05,1.05 39.9,1.05 3.5,0 4.9,-1.05 4.9,-2.45 0,-1.4 -0.7,-2.1 -3.85,-2.45 -1.4,0 -8.75,-0.35 -13.3,-1.4 -9.1,-2.1 -10.5,-5.95 -11.9,-16.1 -1.75,-12.6 -1.4,-37.1 -1.4,-64.05 v -52.5 c 0,-46.200003 -0.35,-54.250003 0.35,-63.700003 0.7,-10.15 1.75,-15.4 11.9,-16.8 2.45,-0.35 4.2,-0.35 6.3,-0.7 2.8,-0.35 3.85,-1.05 3.85,-2.45 0,-1.75 -1.75,-2.45 -5.25,-2.45 -9.8,0 -30.1,1.05 -31.5,1.05 -1.05,0 -21,-1.05 -31.8499998,-1.05 -3.85,0 -5.25,0.7 -5.25,2.45 0,1.4 1.4,2.1 3.85,2.45 2.1,0.35 4.55,0.35 8.0499998,1.05 7.35,1.4 9.45,6.65 10.15,16.1 0.7,9.45 0.7,17.85 0.7,64.050003 z" />
      <path
         id="path14"
         d="m 152.16034,238.49501 c 0,25.55 -1.75,35 -9.45,37.45 -4.55,1.4 -8.4,1.4 -10.85,1.4 -3.5,0 -4.9,1.05 -4.9,2.45 0,2.1 2.1,2.45 5.25,2.45 15.05,0 28,-1.05 30.45,-1.05 2.45,0 15.05,1.05 33.95,1.05 3.85,0 5.6,-0.7 5.6,-2.45 0,-1.4 -1.4,-2.45 -4.2,-2.45 -2.8,0 -8.75,0 -14.35,-1.4 -8.75,-2.1 -10.85,-11.2 -11.55,-35.35 l -4.55,-136.85 c 8.75,9.1 43.75,45.5 80.15,83.3 30.45,29.75 79.1,78.05 80.5,78.75 17.15,16.1 20.65,18.55 23.1,18.55 2.45,0 3.15,-1.75 3.15,-19.25 l 0.7,-175.700003 c 0,-21 2.45,-24.5 10.5,-26.25 3.85,-0.7 6.65,-0.7 8.75,-1.05 2.1,-0.35 3.15,-1.4 3.15,-2.8 0,-1.75 -1.05,-2.1 -4.9,-2.1 -13.65,0 -24.5,1.05 -28,1.05 -3.15,0 -17.85,-1.05 -32.9,-1.05 -3.5,0 -6.3,0.35 -6.3,2.1 0,1.4 0.7,2.8 4.2,2.8 2.45,0 7.7,0.35 13.65,1.4 9.45,2.45 11.55,8.75 11.9,27.65 l 3.85,145.600003 c -9.1,-8.4 -44.1,-44.45 -71.4,-71.05 -49,-50.05 -97.65,-99.750003 -100.8,-103.250003 -2.45,-2.45 -8.4,-9.45 -10.85,-9.45 -2.8,0 -3.85,3.5 -3.85,14.35 0.35,58.100003 0,4.2 0,171.150003 z" />
      <path
         id="path16"
         d="m 523.80566,70.845007 c 10.15,0 21,0.35 34.3,0.35 35.35,0.35 39.9,3.85 41.3,17.85 0.35,3.5 0.35,3.85 0.35,4.9 0,2.8 0.7,4.2 2.45,4.2 1.05,0 2.45,-1.05 2.45,-4.2 0,-2.8 0.7,-25.9 0.7,-35.7 0,-1.4 -0.7,-3.15 -2.1,-3.15 -1.05,0 -2.1,0.35 -6.65,1.4 -4.9,1.05 -15.4,1.75 -25.2,1.75 h -114.8 c -0.35,0 -10.15,-0.35 -22.4,-1.75 -6.3,-0.7 -12.95,-3.85 -15.4,-3.85 -1.05,0 -2.1,1.4 -3.15,5.6 -2.1,9.45 -7.35,32.55 -7,34.65 0,1.75 0.35,3.15 1.75,3.15 1.4,0 2.1,-0.35 3.15,-2.8 0.7,-1.75 2.1,-5.95 5.25,-10.85 4.9,-7.35 9.8,-10.85 32.2,-11.2 14,-0.35 32.55,-0.35 44.1,-0.35 V 195.79501 c 0,26.25 0,51.45 -1.4,64.05 -1.4,11.9 -2.45,16.1 -9.1,17.15 -2.8,0.35 -4.9,0.35 -7.7,0.35 -2.8,0 -3.85,1.4 -3.85,2.45 0,1.75 1.4,2.45 5.25,2.45 9.1,0 29.75,-1.05 31.15,-1.05 1.4,0 22.05,1.05 39.9,1.05 3.5,0 4.55,-1.05 4.55,-2.8 0,-1.05 -1.4,-2.1 -4.2,-2.1 -2.8,0 -9.45,-0.35 -13.65,-1.4 -8.75,-2.1 -9.45,-7 -10.5,-15.4 -1.4,-12.95 -1.75,-37.8 -1.75,-64.75 z" />
      <path
         id="path18"
         d="m 667.46972,195.79501 c 0,26.6 -0.35,40.95 -0.7,52.85 -0.7,21.7 -4.9,26.25 -11.2,27.65 -2.45,0.7 -4.9,1.05 -7,1.05 -1.75,0 -3.15,1.05 -3.15,2.45 0,1.75 1.75,2.45 4.9,2.45 8.4,0 15.05,-1.05 23.1,-1.05 12.95,0 29.05,0.7 41.3,1.05 12.25,0 22.05,0.7 45.15,0.7 11.55,0 14,-0.7 15.4,-7.7 1.05,-5.95 3.85,-28 3.85,-30.45 0,-2.1 0,-5.25 -2.1,-5.25 -1.4,0 -2.45,1.4 -3.15,4.9 -2.8,12.95 -5.25,19.95 -15.75,23.1 -8.75,2.45 -19.95,2.1 -26.6,2.1 -11.9,0 -20.3,-0.7 -25.55,-3.15 -7.35,-3.15 -9.1,-9.8 -9.8,-22.75 -0.35,-5.95 0,-36.75 0,-47.6 v -25.55 c 0,-1.4 0.35,-2.45 2.45,-2.45 5.6,0 33.95,0.7 42,1.4 13.3,1.05 15.4,5.95 16.8,10.5 0.7,2.8 1.05,6.3 1.05,8.4 0,2.45 0.35,4.55 2.1,4.55 1.4,0 2.1,-1.05 2.45,-3.85 0.35,-4.55 0.35,-11.55 1.4,-21.35 1.05,-10.15 2.45,-16.8 2.45,-18.55 0,-1.75 -0.7,-2.1 -1.4,-2.1 -1.4,0 -2.45,0.7 -3.85,2.8 -2.8,3.85 -8.05,4.9 -16.1,5.25 -7.35,0.7 -43.05,1.05 -47.25,1.05 -1.75,0 -2.1,-1.4 -2.1,-3.5 V 73.295007 c 0,-2.1 0.7,-2.8 1.75,-2.8 0.7,0 35.35,0.35 39.9,0.7 17.5,1.05 20.65,3.5 22.75,10.5 1.05,2.45 2.1,5.95 2.45,11.2 0,2.45 0.7,3.85 2.45,3.85 1.75,0 2.45,-2.1 2.45,-5.25 0.35,-6.65 0.7,-12.25 1.05,-18.2 0.7,-8.75 2.8,-13.65 2.8,-15.75 0,-1.75 -0.7,-2.45 -1.4,-2.45 -1.4,0 -1.75,0.35 -3.85,1.05 -2.8,1.05 -6.65,1.4 -13.65,1.75 -7,0.35 -69.3,0.35 -71.05,0.35 -19.6,-0.35 -29.05,-1.05 -36.05,-1.05 -3.5,0 -5.25,0.7 -5.25,2.8 0,1.05 2.1,2.1 4.55,2.1 2.8,0 6.3,0.35 8.4,0.7 10.15,2.1 12.6,7 13.3,16.8 0.7,9.45 0.7,17.85 0.7,63.700003 z" />
      <path
         id="path20"
         d="m 1066.4588,61.745007 c -0.35,-5.6 -1.4,-8.75 -3.5,-8.75 -2.1,0 -3.5,2.1 -5.25,5.95 l -89.25002,181.300003 -93.8,-181.650003 c -2.45,-4.55 -3.5,-5.6 -5.25,-5.6 -1.75,0 -3.15,2.8 -3.85,8.75 l -23.45,192.150003 c -1.75,14 -4.9,22.4 -13.3,23.1 -3.85,0.35 -4.2,0.35 -6.65,0.35 -3.15,0 -4.55,1.4 -4.55,2.1 0,2.45 2.1,2.8 5.25,2.8 8.75,0 23.45,-1.05 26.95,-1.05 2.8,0 17.85,1.05 29.05,1.05 3.85,0 5.95,-0.35 5.95,-2.8 0,-0.7 -0.7,-1.75 -3.5,-2.1 -3.5,-0.35 -5.95,-0.35 -9.8,-1.05 -7,-1.4 -8.75,-6.65 -8.75,-10.5 0,-5.25 0,-8.4 0.35,-13.3 l 12.95,-134.75 c 2.8,7.35 37.1,75.25 39.2,79.45 2.1,3.15 30.1,59.15 35.7,69.3 6.65,11.9 8.4,15.05 10.5,15.05 3.15,0 4.2,-3.15 10.85,-16.8 l 74.20002,-150.5 15.4,149.8 c 0.7,4.9 -0.35,9.1 -2.1,9.8 -1.75,0.7 -3.15,2.1 -3.15,3.15 0,1.75 2.8,2.45 10.5,3.15 11.2,0.7 49,2.1 55.3,2.1 3.85,0 5.25,-1.05 5.25,-2.8 0,-1.75 -3.15,-2.1 -4.55,-2.1 -4.9,-0.35 -11.9,-1.05 -17.85,-2.45 -13.65,-3.15 -15.75,-22.75 -16.8,-31.15 z" />
      <path
         id="path22"
         d="m 1180.8486,195.79501 c 0,26.25 0,51.1 -1.75,63.7 -1.05,8.4 -2.1,15.4 -8.05,16.8 -2.8,0.7 -6.65,1.05 -8.4,1.05 -3.15,0 -4.55,1.05 -4.55,2.45 0,1.75 2.45,2.45 5.6,2.45 9.8,0 30.45,-1.05 31.5,-1.05 1.75,0 22.05,1.05 39.9,1.05 3.5,0 4.9,-1.05 4.9,-2.45 0,-1.4 -0.7,-2.1 -3.85,-2.45 -1.4,0 -8.75,-0.35 -13.3,-1.4 -9.1,-2.1 -10.5,-5.95 -11.9,-16.1 -1.75,-12.6 -1.4,-37.1 -1.4,-64.05 v -52.5 c 0,-46.200003 -0.35,-54.250003 0.35,-63.700003 0.7,-10.15 1.75,-15.4 11.9,-16.8 2.45,-0.35 4.2,-0.35 6.3,-0.7 2.8,-0.35 3.85,-1.05 3.85,-2.45 0,-1.75 -1.75,-2.45 -5.25,-2.45 -9.8,0 -30.1,1.05 -31.5,1.05 -1.05,0 -21,-1.05 -31.85,-1.05 -3.85,0 -5.25,0.7 -5.25,2.45 0,1.4 1.4,2.1 3.85,2.45 2.1,0.35 4.55,0.35 8.05,1.05 7.35,1.4 9.45,6.65 10.15,16.1 0.7,9.45 0.7,17.85 0.7,64.050003 z" />
      <path
         id="path24"
         d="m 1383.083,70.845007 c 10.15,0 21,0.35 34.3,0.35 35.35,0.35 39.9,3.85 41.3,17.85 0.35,3.5 0.35,3.85 0.35,4.9 0,2.8 0.7,4.2 2.45,4.2 1.05,0 2.45,-1.05 2.45,-4.2 0,-2.8 0.7,-25.9 0.7,-35.7 0,-1.4 -0.7,-3.15 -2.1,-3.15 -1.05,0 -2.1,0.35 -6.65,1.4 -4.9,1.05 -15.4,1.75 -25.2,1.75 h -114.8 c -0.35,0 -10.15,-0.35 -22.4,-1.75 -6.3,-0.7 -12.95,-3.85 -15.4,-3.85 -1.05,0 -2.1,1.4 -3.15,5.6 -2.1,9.45 -7.35,32.55 -7,34.65 0,1.75 0.35,3.15 1.75,3.15 1.4,0 2.1,-0.35 3.15,-2.8 0.7,-1.75 2.1,-5.95 5.25,-10.85 4.9,-7.35 9.8,-10.85 32.2,-11.2 14,-0.35 32.55,-0.35 44.1,-0.35 V 195.79501 c 0,26.25 0,51.45 -1.4,64.05 -1.4,11.9 -2.45,16.1 -9.1,17.15 -2.8,0.35 -4.9,0.35 -7.7,0.35 -2.8,0 -3.85,1.4 -3.85,2.45 0,1.75 1.4,2.45 5.25,2.45 9.1,0 29.75,-1.05 31.15,-1.05 1.4,0 22.05,1.05 39.9,1.05 3.5,0 4.55,-1.05 4.55,-2.8 0,-1.05 -1.4,-2.1 -4.2,-2.1 -2.8,0 -9.45,-0.35 -13.65,-1.4 -8.75,-2.1 -9.45,-7 -10.5,-15.4 -1.4,-12.95 -1.75,-37.8 -1.75,-64.75 z" />
    </g>
    <g
       style="font-size:62px;line-height:1.25;font-family:'Trajan Pro 3';-inkscape-font-specification:'Trajan Pro 3, '"
       id="text10"
       aria-label="instituto tecnológico de mitilicultura">
      <path
         id="path27"
         d="m 19.366,357.05099 c 0,4.65 0,9.052 -0.31,11.284 -0.186,1.488 -0.372,2.728 -1.426,2.976 -0.496,0.124 -1.178,0.186 -1.488,0.186 -0.558,0 -0.806,0.186 -0.806,0.434 0,0.31 0.434,0.434 0.992,0.434 1.736,0 5.394,-0.186 5.58,-0.186 0.31,0 3.906,0.186 7.068,0.186 0.62,0 0.868,-0.186 0.868,-0.434 0,-0.248 -0.124,-0.372 -0.682,-0.434 -0.248,0 -1.55,-0.062 -2.356,-0.248 -1.612,-0.372 -1.86,-1.054 -2.108,-2.852 -0.31,-2.232 -0.248,-6.572 -0.248,-11.346 v -9.3 c 0,-8.184 -0.062,-9.61 0.062,-11.284 0.124,-1.798 0.31,-2.728 2.108,-2.976 0.434,-0.062 0.744,-0.062 1.116,-0.124 0.496,-0.062 0.682,-0.186 0.682,-0.434 0,-0.31 -0.31,-0.434 -0.93,-0.434 -1.736,0 -5.332,0.186 -5.58,0.186 -0.186,0 -3.72,-0.186 -5.642,-0.186 -0.682,0 -0.93,0.124 -0.93,0.434 0,0.248 0.248,0.372 0.682,0.434 0.372,0.062 0.806,0.062 1.426,0.186 1.302,0.248 1.674,1.178 1.798,2.852 0.124,1.674 0.124,3.162 0.124,11.346 z" />
      <path
         id="path29"
         d="m 42.031843,364.61499 c 0,4.526 -0.31,6.2 -1.674,6.634 -0.806,0.248 -1.488,0.248 -1.922,0.248 -0.62,0 -0.868,0.186 -0.868,0.434 0,0.372 0.372,0.434 0.93,0.434 2.666,0 4.96,-0.186 5.394,-0.186 0.434,0 2.666,0.186 6.014,0.186 0.682,0 0.992,-0.124 0.992,-0.434 0,-0.248 -0.248,-0.434 -0.744,-0.434 -0.496,0 -1.55,0 -2.542,-0.248 -1.55,-0.372 -1.922,-1.984 -2.046,-6.262 l -0.806,-24.242 c 1.55,1.612 7.75,8.06 14.198,14.756 5.394,5.27 14.012,13.826 14.26,13.95 3.038,2.852 3.658,3.286 4.092,3.286 0.434,0 0.558,-0.31 0.558,-3.41 l 0.124,-31.124 c 0,-3.72 0.434,-4.34 1.86,-4.65 0.682,-0.124 1.178,-0.124 1.55,-0.186 0.372,-0.062 0.558,-0.248 0.558,-0.496 0,-0.31 -0.186,-0.372 -0.868,-0.372 -2.418,0 -4.34,0.186 -4.96,0.186 -0.558,0 -3.162,-0.186 -5.828,-0.186 -0.62,0 -1.116,0.062 -1.116,0.372 0,0.248 0.124,0.496 0.744,0.496 0.434,0 1.364,0.062 2.418,0.248 1.674,0.434 2.046,1.55 2.108,4.898 l 0.682,25.792 c -1.612,-1.488 -7.812,-7.874 -12.648,-12.586 -8.68,-8.866 -17.298,-17.67 -17.856,-18.29 -0.434,-0.434 -1.488,-1.674 -1.922,-1.674 -0.496,0 -0.682,0.62 -0.682,2.542 0.062,10.292 0,0.744 0,30.318 z" />
      <path
         id="path31"
         d="m 97.390093,373.04699 c 2.975997,0 5.951997,-0.62 8.369997,-2.17 3.782,-2.604 4.712,-6.572 4.712,-8.804 0,-4.402 -1.674,-7.688 -8.122,-12.648 l -1.426,-1.116 c -5.145997,-3.906 -6.633997,-5.704 -6.633997,-8.618 0,-3.72 2.79,-5.952 6.509997,-5.952 5.208,0 6.634,2.356 6.944,2.914 0.558,1.054 0.682,2.356 0.744,2.914 0.062,0.434 0.124,0.682 0.434,0.682 0.31,0 0.434,-0.372 0.434,-1.302 0,-3.596 0.248,-5.766 0.248,-6.014 0,-0.248 -0.124,-0.372 -0.558,-0.372 -0.434,0 -0.93,-0.062 -2.108,-0.31 -1.364,-0.31 -2.852,-0.496 -5.022,-0.496 -6.943997,0 -11.469997,3.844 -11.469997,9.548 0,3.658 1.24,6.944 7.192,11.718 l 2.479997,1.922 c 4.526,3.658 6.138,5.828 6.138,9.362 0,3.1 -2.48,6.634 -7.625997,6.634 -3.596,0 -7.254,-1.55 -8.06,-5.58 -0.186,-0.744 -0.186,-1.488 -0.186,-1.86 0,-0.434 -0.124,-0.62 -0.434,-0.62 -0.31,0 -0.434,0.31 -0.496,0.868 -0.062,0.868 -0.248,2.976 -0.248,5.828 0,1.488 0,1.736 0.806,2.108 2.356,1.054 4.774,1.364 7.378,1.364 z" />
      <path
         id="path33"
         d="m 135.83881,334.91699 c 1.798,0 3.72,0.062 6.076,0.062 6.262,0.062 7.068,0.682 7.316,3.162 0.062,0.62 0.062,0.682 0.062,0.868 0,0.496 0.124,0.744 0.434,0.744 0.186,0 0.434,-0.186 0.434,-0.744 0,-0.496 0.124,-4.588 0.124,-6.324 0,-0.248 -0.124,-0.558 -0.372,-0.558 -0.186,0 -0.372,0.062 -1.178,0.248 -0.868,0.186 -2.728,0.31 -4.464,0.31 h -20.336 c -0.062,0 -1.798,-0.062 -3.968,-0.31 -1.116,-0.124 -2.294,-0.682 -2.728,-0.682 -0.186,0 -0.372,0.248 -0.558,0.992 -0.372,1.674 -1.302,5.766 -1.24,6.138 0,0.31 0.062,0.558 0.31,0.558 0.248,0 0.372,-0.062 0.558,-0.496 0.124,-0.31 0.372,-1.054 0.93,-1.922 0.868,-1.302 1.736,-1.922 5.704,-1.984 2.48,-0.062 5.766,-0.062 7.812,-0.062 v 22.134 c 0,4.65 0,9.114 -0.248,11.346 -0.248,2.108 -0.434,2.852 -1.612,3.038 -0.496,0.062 -0.868,0.062 -1.364,0.062 -0.496,0 -0.682,0.248 -0.682,0.434 0,0.31 0.248,0.434 0.93,0.434 1.612,0 5.27,-0.186 5.518,-0.186 0.248,0 3.906,0.186 7.068,0.186 0.62,0 0.806,-0.186 0.806,-0.496 0,-0.186 -0.248,-0.372 -0.744,-0.372 -0.496,0 -1.674,-0.062 -2.418,-0.248 -1.55,-0.372 -1.674,-1.24 -1.86,-2.728 -0.248,-2.294 -0.31,-6.696 -0.31,-11.47 z" />
      <path
         id="path35"
         d="m 161.28787,357.05099 c 0,4.65 0,9.052 -0.31,11.284 -0.186,1.488 -0.372,2.728 -1.426,2.976 -0.496,0.124 -1.178,0.186 -1.488,0.186 -0.558,0 -0.806,0.186 -0.806,0.434 0,0.31 0.434,0.434 0.992,0.434 1.736,0 5.394,-0.186 5.58,-0.186 0.31,0 3.906,0.186 7.068,0.186 0.62,0 0.868,-0.186 0.868,-0.434 0,-0.248 -0.124,-0.372 -0.682,-0.434 -0.248,0 -1.55,-0.062 -2.356,-0.248 -1.612,-0.372 -1.86,-1.054 -2.108,-2.852 -0.31,-2.232 -0.248,-6.572 -0.248,-11.346 v -9.3 c 0,-8.184 -0.062,-9.61 0.062,-11.284 0.124,-1.798 0.31,-2.728 2.108,-2.976 0.434,-0.062 0.744,-0.062 1.116,-0.124 0.496,-0.062 0.682,-0.186 0.682,-0.434 0,-0.31 -0.31,-0.434 -0.93,-0.434 -1.736,0 -5.332,0.186 -5.58,0.186 -0.186,0 -3.72,-0.186 -5.642,-0.186 -0.682,0 -0.93,0.124 -0.93,0.434 0,0.248 0.248,0.372 0.682,0.434 0.372,0.062 0.806,0.062 1.426,0.186 1.302,0.248 1.674,1.178 1.798,2.852 0.124,1.674 0.124,3.162 0.124,11.346 z" />
      <path
         id="path37"
         d="m 197.11225,334.91699 c 1.798,0 3.72,0.062 6.076,0.062 6.262,0.062 7.068,0.682 7.316,3.162 0.062,0.62 0.062,0.682 0.062,0.868 0,0.496 0.124,0.744 0.434,0.744 0.186,0 0.434,-0.186 0.434,-0.744 0,-0.496 0.124,-4.588 0.124,-6.324 0,-0.248 -0.124,-0.558 -0.372,-0.558 -0.186,0 -0.372,0.062 -1.178,0.248 -0.868,0.186 -2.728,0.31 -4.464,0.31 h -20.336 c -0.062,0 -1.798,-0.062 -3.968,-0.31 -1.116,-0.124 -2.294,-0.682 -2.728,-0.682 -0.186,0 -0.372,0.248 -0.558,0.992 -0.372,1.674 -1.302,5.766 -1.24,6.138 0,0.31 0.062,0.558 0.31,0.558 0.248,0 0.372,-0.062 0.558,-0.496 0.124,-0.31 0.372,-1.054 0.93,-1.922 0.868,-1.302 1.736,-1.922 5.704,-1.984 2.48,-0.062 5.766,-0.062 7.812,-0.062 v 22.134 c 0,4.65 0,9.114 -0.248,11.346 -0.248,2.108 -0.434,2.852 -1.612,3.038 -0.496,0.062 -0.868,0.062 -1.364,0.062 -0.496,0 -0.682,0.248 -0.682,0.434 0,0.31 0.248,0.434 0.93,0.434 1.612,0 5.27,-0.186 5.518,-0.186 0.248,0 3.906,0.186 7.068,0.186 0.62,0 0.806,-0.186 0.806,-0.496 0,-0.186 -0.248,-0.372 -0.744,-0.372 -0.496,0 -1.674,-0.062 -2.418,-0.248 -1.55,-0.372 -1.674,-1.24 -1.86,-2.728 -0.248,-2.294 -0.31,-6.696 -0.31,-11.47 z" />
      <path
         id="path39"
         d="m 225.51406,347.75099 c 0,-8.184 0,-9.61 0.062,-11.284 0.124,-1.736 0.372,-2.79 1.86,-2.976 0.496,-0.062 0.992,-0.124 1.364,-0.124 0.31,0 0.744,-0.124 0.744,-0.434 0,-0.31 -0.186,-0.434 -0.868,-0.434 -1.674,0 -5.332,0.186 -5.828,0.186 -0.434,0 -3.782,-0.186 -6.448,-0.186 -0.682,0 -0.93,0.124 -0.93,0.496 0,0.186 0.248,0.372 0.682,0.372 0.496,0 1.24,0.062 1.612,0.124 1.922,0.248 2.232,1.302 2.294,2.976 0.186,1.674 0.186,3.1 0.186,11.284 v 7.688 c 0,7.688 1.922,11.408 4.588,13.888 4.03,3.72 9.858,3.72 11.594,3.72 3.348,0 7.316,-0.31 11.346,-3.72 4.402,-3.782 5.022,-10.478 5.022,-16.058 v -5.518 c 0,-8.122 0,-9.548 0.062,-11.222 0.124,-1.798 0.372,-2.914 2.108,-3.1 0.62,-0.062 0.744,-0.062 1.116,-0.062 0.372,0 0.62,-0.186 0.62,-0.434 0,-0.31 -0.248,-0.434 -0.868,-0.434 -1.736,0 -4.402,0.186 -4.712,0.186 -0.248,0 -3.348,-0.186 -6.014,-0.186 -0.558,0 -0.868,0.124 -0.868,0.496 0,0.186 0.248,0.372 0.62,0.372 0.558,0 1.302,0.062 1.736,0.124 1.984,0.31 2.17,1.24 2.294,3.038 0.124,1.674 0.124,3.1 0.124,11.222 v 6.572 c 0,5.394 -0.558,10.106 -3.038,12.958 -2.356,2.728 -5.27,3.596 -8.494,3.596 -2.542,0 -5.518,-0.496 -8.184,-2.852 -2.356,-2.108 -3.782,-5.332 -3.782,-12.896 z" />
      <path
         id="path41"
         d="m 281.63569,334.91699 c 1.798,0 3.72,0.062 6.076,0.062 6.262,0.062 7.068,0.682 7.316,3.162 0.062,0.62 0.062,0.682 0.062,0.868 0,0.496 0.124,0.744 0.434,0.744 0.186,0 0.434,-0.186 0.434,-0.744 0,-0.496 0.124,-4.588 0.124,-6.324 0,-0.248 -0.124,-0.558 -0.372,-0.558 -0.186,0 -0.372,0.062 -1.178,0.248 -0.868,0.186 -2.728,0.31 -4.464,0.31 h -20.336 c -0.062,0 -1.798,-0.062 -3.968,-0.31 -1.116,-0.124 -2.294,-0.682 -2.728,-0.682 -0.186,0 -0.372,0.248 -0.558,0.992 -0.372,1.674 -1.302,5.766 -1.24,6.138 0,0.31 0.062,0.558 0.31,0.558 0.248,0 0.372,-0.062 0.558,-0.496 0.124,-0.31 0.372,-1.054 0.93,-1.922 0.868,-1.302 1.736,-1.922 5.704,-1.984 2.48,-0.062 5.766,-0.062 7.812,-0.062 v 22.134 c 0,4.65 0,9.114 -0.248,11.346 -0.248,2.108 -0.434,2.852 -1.612,3.038 -0.496,0.062 -0.868,0.062 -1.364,0.062 -0.496,0 -0.682,0.248 -0.682,0.434 0,0.31 0.248,0.434 0.93,0.434 1.612,0 5.27,-0.186 5.518,-0.186 0.248,0 3.906,0.186 7.068,0.186 0.62,0 0.806,-0.186 0.806,-0.496 0,-0.186 -0.248,-0.372 -0.744,-0.372 -0.496,0 -1.674,-0.062 -2.418,-0.248 -1.55,-0.372 -1.674,-1.24 -1.86,-2.728 -0.248,-2.294 -0.31,-6.696 -0.31,-11.47 z" />
      <path
         id="path43"
         d="m 321.66928,373.04699 c 13.206,0 21.948,-9.672 21.948,-21.514 0,-12.462 -9.362,-19.778 -21.638,-19.778 -15.314,0 -21.7,12.338 -21.7,20.584 0,9.424 6.2,20.708 21.39,20.708 z m 1.55,-2.108 c -10.416,0 -17.174,-8.06 -17.174,-20.212 0,-11.718 6.944,-17.05 15.562,-17.05 8.494,0 16.182,6.944 16.182,19.406 0,15.748 -10.416,17.856 -14.57,17.856 z" />
      <path
         id="path45"
         d="m 388.92475,334.91699 c 1.798,0 3.72,0.062 6.076,0.062 6.262,0.062 7.068,0.682 7.316,3.162 0.062,0.62 0.062,0.682 0.062,0.868 0,0.496 0.124,0.744 0.434,0.744 0.186,0 0.434,-0.186 0.434,-0.744 0,-0.496 0.124,-4.588 0.124,-6.324 0,-0.248 -0.124,-0.558 -0.372,-0.558 -0.186,0 -0.372,0.062 -1.178,0.248 -0.868,0.186 -2.728,0.31 -4.464,0.31 h -20.336 c -0.062,0 -1.798,-0.062 -3.968,-0.31 -1.116,-0.124 -2.294,-0.682 -2.728,-0.682 -0.186,0 -0.372,0.248 -0.558,0.992 -0.372,1.674 -1.302,5.766 -1.24,6.138 0,0.31 0.062,0.558 0.31,0.558 0.248,0 0.372,-0.062 0.558,-0.496 0.124,-0.31 0.372,-1.054 0.93,-1.922 0.868,-1.302 1.736,-1.922 5.704,-1.984 2.48,-0.062 5.766,-0.062 7.812,-0.062 v 22.134 c 0,4.65 0,9.114 -0.248,11.346 -0.248,2.108 -0.434,2.852 -1.612,3.038 -0.496,0.062 -0.868,0.062 -1.364,0.062 -0.496,0 -0.682,0.248 -0.682,0.434 0,0.31 0.248,0.434 0.93,0.434 1.612,0 5.27,-0.186 5.518,-0.186 0.248,0 3.906,0.186 7.068,0.186 0.62,0 0.806,-0.186 0.806,-0.496 0,-0.186 -0.248,-0.372 -0.744,-0.372 -0.496,0 -1.674,-0.062 -2.418,-0.248 -1.55,-0.372 -1.674,-1.24 -1.86,-2.728 -0.248,-2.294 -0.31,-6.696 -0.31,-11.47 z" />
      <path
         id="path47"
         d="m 414.37381,357.05099 c 0,4.712 -0.062,7.254 -0.124,9.362 -0.124,3.844 -0.868,4.65 -1.984,4.898 -0.434,0.124 -0.868,0.186 -1.24,0.186 -0.31,0 -0.558,0.186 -0.558,0.434 0,0.31 0.31,0.434 0.868,0.434 1.488,0 2.666,-0.186 4.092,-0.186 2.294,0 5.146,0.124 7.316,0.186 2.17,0 3.906,0.124 7.998,0.124 2.046,0 2.48,-0.124 2.728,-1.364 0.186,-1.054 0.682,-4.96 0.682,-5.394 0,-0.372 0,-0.93 -0.372,-0.93 -0.248,0 -0.434,0.248 -0.558,0.868 -0.496,2.294 -0.93,3.534 -2.79,4.092 -1.55,0.434 -3.534,0.372 -4.712,0.372 -2.108,0 -3.596,-0.124 -4.526,-0.558 -1.302,-0.558 -1.612,-1.736 -1.736,-4.03 -0.062,-1.054 0,-6.51 0,-8.432 v -4.526 c 0,-0.248 0.062,-0.434 0.434,-0.434 0.992,0 6.014,0.124 7.44,0.248 2.356,0.186 2.728,1.054 2.976,1.86 0.124,0.496 0.186,1.116 0.186,1.488 0,0.434 0.062,0.806 0.372,0.806 0.248,0 0.372,-0.186 0.434,-0.682 0.062,-0.806 0.062,-2.046 0.248,-3.782 0.186,-1.798 0.434,-2.976 0.434,-3.286 0,-0.31 -0.124,-0.372 -0.248,-0.372 -0.248,0 -0.434,0.124 -0.682,0.496 -0.496,0.682 -1.426,0.868 -2.852,0.93 -1.302,0.124 -7.626,0.186 -8.37,0.186 -0.31,0 -0.372,-0.248 -0.372,-0.62 v -14.074 c 0,-0.372 0.124,-0.496 0.31,-0.496 0.124,0 6.262,0.062 7.068,0.124 3.1,0.186 3.658,0.62 4.03,1.86 0.186,0.434 0.372,1.054 0.434,1.984 0,0.434 0.124,0.682 0.434,0.682 0.31,0 0.434,-0.372 0.434,-0.93 0.062,-1.178 0.124,-2.17 0.186,-3.224 0.124,-1.55 0.496,-2.418 0.496,-2.79 0,-0.31 -0.124,-0.434 -0.248,-0.434 -0.248,0 -0.31,0.062 -0.682,0.186 -0.496,0.186 -1.178,0.248 -2.418,0.31 -1.24,0.062 -12.276,0.062 -12.586,0.062 -3.472,-0.062 -5.146,-0.186 -6.386,-0.186 -0.62,0 -0.93,0.124 -0.93,0.496 0,0.186 0.372,0.372 0.806,0.372 0.496,0 1.116,0.062 1.488,0.124 1.798,0.372 2.232,1.24 2.356,2.976 0.124,1.674 0.124,3.162 0.124,11.284 z" />
      <path
         id="path49"
         d="m 466.63787,373.04699 c 3.472,0 7.626,-0.31 9.796,-1.24 0.868,-0.372 1.054,-0.558 1.426,-1.55 0.434,-1.364 1.24,-6.386 1.24,-6.882 0,-0.434 0,-0.868 -0.31,-0.868 -0.372,0 -0.558,0.31 -0.682,0.93 -0.31,1.736 -0.93,3.286 -2.046,4.464 -2.17,2.108 -5.27,2.542 -9.486,2.542 -10.912,0 -19.282,-9.052 -19.282,-19.344 0,-5.456 0.93,-9.92 4.96,-13.578 1.86,-1.674 5.022,-3.596 11.904,-3.596 4.774,0 9.114,1.55 10.974,3.162 1.55,1.178 2.418,3.596 2.418,5.394 0,0.806 0.062,1.178 0.496,1.178 0.31,0 0.434,-0.31 0.496,-1.178 0.062,-0.744 0.062,-3.968 0.124,-5.704 0.124,-1.984 0.31,-2.542 0.31,-3.038 0,-0.31 -0.062,-0.62 -0.558,-0.62 -1.488,-0.062 -3.472,-0.372 -5.456,-0.682 -3.038,-0.434 -5.332,-0.682 -8.184,-0.682 -8.308,0 -13.33,2.294 -16.678,5.518 -4.898,4.712 -6.262,10.85 -6.262,14.322 0,5.146 1.364,11.222 6.634,15.81 4.402,3.782 9.982,5.642 18.166,5.642 z" />
      <path
         id="path51"
         d="m 490.32091,364.61499 c 0,4.526 -0.31,6.2 -1.674,6.634 -0.806,0.248 -1.488,0.248 -1.922,0.248 -0.62,0 -0.868,0.186 -0.868,0.434 0,0.372 0.372,0.434 0.93,0.434 2.666,0 4.96,-0.186 5.394,-0.186 0.434,0 2.666,0.186 6.014,0.186 0.682,0 0.992,-0.124 0.992,-0.434 0,-0.248 -0.248,-0.434 -0.744,-0.434 -0.496,0 -1.55,0 -2.542,-0.248 -1.55,-0.372 -1.922,-1.984 -2.046,-6.262 l -0.806,-24.242 c 1.55,1.612 7.75,8.06 14.198,14.756 5.394,5.27 14.012,13.826 14.26,13.95 3.038,2.852 3.658,3.286 4.092,3.286 0.434,0 0.558,-0.31 0.558,-3.41 l 0.124,-31.124 c 0,-3.72 0.434,-4.34 1.86,-4.65 0.682,-0.124 1.178,-0.124 1.55,-0.186 0.372,-0.062 0.558,-0.248 0.558,-0.496 0,-0.31 -0.186,-0.372 -0.868,-0.372 -2.418,0 -4.34,0.186 -4.96,0.186 -0.558,0 -3.162,-0.186 -5.828,-0.186 -0.62,0 -1.116,0.062 -1.116,0.372 0,0.248 0.124,0.496 0.744,0.496 0.434,0 1.364,0.062 2.418,0.248 1.674,0.434 2.046,1.55 2.108,4.898 l 0.682,25.792 c -1.612,-1.488 -7.812,-7.874 -12.648,-12.586 -8.68,-8.866 -17.298,-17.67 -17.856,-18.29 -0.434,-0.434 -1.488,-1.674 -1.922,-1.674 -0.496,0 -0.682,0.62 -0.682,2.542 0.062,10.292 0,0.744 0,30.318 z" />
      <path
         id="path53"
         d="m 559.25522,373.04699 c 13.206,0 21.948,-9.672 21.948,-21.514 0,-12.462 -9.362,-19.778 -21.638,-19.778 -15.314,0 -21.7,12.338 -21.7,20.584 0,9.424 6.2,20.708 21.39,20.708 z m 1.55,-2.108 c -10.416,0 -17.174,-8.06 -17.174,-20.212 0,-11.718 6.944,-17.05 15.562,-17.05 8.494,0 16.182,6.944 16.182,19.406 0,15.748 -10.416,17.856 -14.57,17.856 z" />
      <path
         id="path55"
         d="m 598.79766,347.75099 c 0,-8.184 -0.062,-9.548 0.062,-11.222 0.124,-1.798 0.496,-2.79 2.232,-3.038 0.62,-0.062 1.24,-0.124 1.674,-0.124 0.372,0 0.682,-0.186 0.682,-0.434 0,-0.248 -0.186,-0.434 -0.806,-0.434 -1.736,0 -5.518,0.186 -6.386,0.186 -0.124,0 -3.844,-0.186 -6.448,-0.186 -0.62,0 -0.93,0.124 -0.93,0.434 0,0.248 0.248,0.434 0.682,0.434 0.496,0 1.178,0 1.55,0.062 2.108,0.248 2.356,1.364 2.48,3.1 0.124,1.674 0.124,3.038 0.124,11.222 v 9.3 c 0,4.774 0.124,9.052 -0.248,11.408 -0.186,1.488 -0.558,2.728 -1.612,2.914 -0.496,0.124 -0.992,0.124 -1.488,0.124 -0.496,0 -0.682,0.186 -0.682,0.372 0,0.372 0.372,0.496 0.992,0.496 2.17,0 3.41,-0.186 5.456,-0.186 6.2,0 10.85,0.31 15.066,0.31 2.976,0 2.914,-0.31 3.286,-1.55 0.372,-1.426 0.744,-4.96 0.744,-5.58 0,-0.62 -0.124,-0.806 -0.372,-0.806 -0.31,0 -0.434,0.248 -0.496,0.744 -0.124,0.93 -0.558,2.17 -1.178,3.1 -1.364,1.736 -3.844,1.736 -6.572,1.736 -4.278,0 -5.518,-0.372 -6.51,-1.24 -1.054,-0.992 -1.302,-4.588 -1.302,-11.718 z" />
      <path
         id="path57"
         d="m 641.11459,373.04699 c 13.206,0 21.948,-9.672 21.948,-21.514 0,-12.462 -9.362,-19.778 -21.638,-19.778 -15.314,0 -21.7,12.338 -21.7,20.584 0,9.424 6.2,20.708 21.39,20.708 z m 1.55,-2.108 c -10.416,0 -17.174,-8.06 -17.174,-20.212 0,-11.718 6.944,-17.05 15.562,-17.05 8.494,0 16.182,6.944 16.182,19.406 0,15.748 -10.416,17.856 -14.57,17.856 z m 5.022,-51.088 c -0.434,-0.372 -0.744,-0.372 -1.054,-0.372 -0.186,0 -0.868,0.434 -1.612,1.054 -1.426,1.116 -5.022,5.084 -6.572,6.696 -0.31,0.31 -0.434,0.558 -0.434,0.744 0,0.62 1.178,-0.186 1.302,-0.248 1.86,-1.116 5.146,-2.976 7.936,-4.278 0.868,-0.372 2.108,-0.62 2.294,-0.682 0.248,0 0.558,-0.186 0.186,-0.744 -0.62,-0.992 -1.426,-1.674 -2.046,-2.17 z" />
      <path
         id="path59"
         d="m 707.96125,362.19699 c 0,-2.232 0,-3.782 0.124,-5.58 0.124,-1.798 0.496,-2.914 1.984,-3.1 0.496,-0.062 0.62,-0.062 1.054,-0.062 0.558,0 0.744,-0.248 0.744,-0.434 0,-0.31 -0.248,-0.434 -0.868,-0.434 -1.674,0 -5.332,0.124 -5.58,0.124 -0.248,0 -3.844,-0.124 -6.324,-0.124 -0.682,0 -0.93,0.124 -0.93,0.434 0,0.186 0.248,0.434 0.744,0.434 0.496,0 1.116,0.062 1.488,0.124 2.17,0.31 2.48,1.116 2.48,5.208 v 8.928 c 0,0.868 -0.434,1.488 -1.054,1.86 -1.426,0.744 -4.154,1.054 -5.89,1.054 -5.394,0 -9.982,-1.798 -14.074,-5.766 -1.612,-1.55 -5.642,-7.006 -5.642,-14.384 0,-6.138 2.046,-10.85 5.208,-13.268 4.154,-3.162 8.06,-3.286 11.408,-3.286 6.944,0 11.408,2.294 12.834,4.34 0.93,1.364 1.178,3.286 1.178,3.844 0.062,0.372 0.124,0.744 0.434,0.744 0.434,0 0.496,-0.248 0.496,-1.116 0,-5.456 0.434,-7.316 0.434,-8.06 0,-0.248 0,-0.496 -0.496,-0.496 -1.302,-0.062 -3.72,-0.372 -4.712,-0.558 -2.232,-0.372 -4.898,-0.868 -8.866,-0.868 -3.782,0 -9.052,0.372 -13.826,3.162 -5.084,3.038 -9.362,9.052 -9.362,17.484 0,7.068 3.348,12.276 6.696,15.066 6.324,5.27 14.136,5.58 18.166,5.58 3.038,0 7.998,-0.62 11.408,-2.356 0.682,-0.372 0.744,-0.434 0.744,-2.914 z" />
      <path
         id="path61"
         d="m 724.37381,357.05099 c 0,4.65 0,9.052 -0.31,11.284 -0.186,1.488 -0.372,2.728 -1.426,2.976 -0.496,0.124 -1.178,0.186 -1.488,0.186 -0.558,0 -0.806,0.186 -0.806,0.434 0,0.31 0.434,0.434 0.992,0.434 1.736,0 5.394,-0.186 5.58,-0.186 0.31,0 3.906,0.186 7.068,0.186 0.62,0 0.868,-0.186 0.868,-0.434 0,-0.248 -0.124,-0.372 -0.682,-0.434 -0.248,0 -1.55,-0.062 -2.356,-0.248 -1.612,-0.372 -1.86,-1.054 -2.108,-2.852 -0.31,-2.232 -0.248,-6.572 -0.248,-11.346 v -9.3 c 0,-8.184 -0.062,-9.61 0.062,-11.284 0.124,-1.798 0.31,-2.728 2.108,-2.976 0.434,-0.062 0.744,-0.062 1.116,-0.124 0.496,-0.062 0.682,-0.186 0.682,-0.434 0,-0.31 -0.31,-0.434 -0.93,-0.434 -1.736,0 -5.332,0.186 -5.58,0.186 -0.186,0 -3.72,-0.186 -5.642,-0.186 -0.682,0 -0.93,0.124 -0.93,0.434 0,0.248 0.248,0.372 0.682,0.434 0.372,0.062 0.806,0.062 1.426,0.186 1.302,0.248 1.674,1.178 1.798,2.852 0.124,1.674 0.124,3.162 0.124,11.346 z" />
      <path
         id="path63"
         d="m 766.70819,373.04699 c 3.472,0 7.626,-0.31 9.796,-1.24 0.868,-0.372 1.054,-0.558 1.426,-1.55 0.434,-1.364 1.24,-6.386 1.24,-6.882 0,-0.434 0,-0.868 -0.31,-0.868 -0.372,0 -0.558,0.31 -0.682,0.93 -0.31,1.736 -0.93,3.286 -2.046,4.464 -2.17,2.108 -5.27,2.542 -9.486,2.542 -10.912,0 -19.282,-9.052 -19.282,-19.344 0,-5.456 0.93,-9.92 4.96,-13.578 1.86,-1.674 5.022,-3.596 11.904,-3.596 4.774,0 9.114,1.55 10.974,3.162 1.55,1.178 2.418,3.596 2.418,5.394 0,0.806 0.062,1.178 0.496,1.178 0.31,0 0.434,-0.31 0.496,-1.178 0.062,-0.744 0.062,-3.968 0.124,-5.704 0.124,-1.984 0.31,-2.542 0.31,-3.038 0,-0.31 -0.062,-0.62 -0.558,-0.62 -1.488,-0.062 -3.472,-0.372 -5.456,-0.682 -3.038,-0.434 -5.332,-0.682 -8.184,-0.682 -8.308,0 -13.33,2.294 -16.678,5.518 -4.898,4.712 -6.262,10.85 -6.262,14.322 0,5.146 1.364,11.222 6.634,15.81 4.402,3.782 9.982,5.642 18.166,5.642 z" />
      <path
         id="path65"
         d="m 807.25522,373.04699 c 13.206,0 21.948,-9.672 21.948,-21.514 0,-12.462 -9.362,-19.778 -21.638,-19.778 -15.314,0 -21.7,12.338 -21.7,20.584 0,9.424 6.2,20.708 21.39,20.708 z m 1.55,-2.108 c -10.416,0 -17.174,-8.06 -17.174,-20.212 0,-11.718 6.944,-17.05 15.562,-17.05 8.494,0 16.182,6.944 16.182,19.406 0,15.748 -10.416,17.856 -14.57,17.856 z" />
      <path
         id="path67"
         d="m 862.42069,356.92699 c 0,5.022 0.062,9.238 -0.31,11.532 -0.186,1.364 -0.558,2.666 -1.612,2.852 -0.496,0.124 -0.93,0.186 -1.426,0.186 -0.496,0 -0.682,0.248 -0.682,0.434 0,0.31 0.31,0.434 0.868,0.434 0.93,0 2.418,-0.124 3.596,-0.124 1.178,-0.062 1.984,-0.062 2.108,-0.062 0.186,0 2.108,0.186 4.464,0.31 2.356,0.186 5.394,0.31 7.75,0.31 9.424,0 14.136,-3.658 16.554,-6.076 3.038,-3.1 5.89,-8.246 5.89,-14.818 0,-6.262 -2.542,-10.602 -5.27,-13.33 -6.572,-6.634 -16.74,-6.076 -22.196,-6.076 -3.472,0 -6.696,0.186 -7.13,0.186 -0.186,0 -4.092,-0.186 -6.634,-0.186 -0.558,0 -0.93,0.124 -0.93,0.496 0,0.186 0.31,0.372 0.62,0.372 0.496,0 1.426,0.062 1.798,0.124 1.798,0.372 2.294,1.24 2.418,2.914 0.124,1.612 0.124,3.162 0.124,11.346 z m 5.084,-10.168 c 0,-3.72 0,-8.99 0.062,-10.788 0,-0.558 0.186,-0.806 0.682,-1.054 0.372,-0.248 2.294,-0.434 3.162,-0.434 6.138,0 12.214,0.62 17.484,5.89 2.108,2.046 5.332,6.324 5.332,13.33 0,4.96 -1.302,9.61 -4.03,12.338 -3.224,3.224 -7.812,4.836 -12.896,4.836 -6.448,0 -8.432,-1.302 -9.114,-2.356 -0.434,-0.558 -0.558,-2.232 -0.62,-4.154 0,-0.93 -0.062,-5.766 -0.062,-11.346 z" />
      <path
         id="path69"
         d="m 912.06912,357.05099 c 0,4.712 -0.062,7.254 -0.124,9.362 -0.124,3.844 -0.868,4.65 -1.984,4.898 -0.434,0.124 -0.868,0.186 -1.24,0.186 -0.31,0 -0.558,0.186 -0.558,0.434 0,0.31 0.31,0.434 0.868,0.434 1.488,0 2.666,-0.186 4.092,-0.186 2.294,0 5.146,0.124 7.316,0.186 2.17,0 3.906,0.124 7.998,0.124 2.046,0 2.48,-0.124 2.728,-1.364 0.186,-1.054 0.682,-4.96 0.682,-5.394 0,-0.372 0,-0.93 -0.372,-0.93 -0.248,0 -0.434,0.248 -0.558,0.868 -0.496,2.294 -0.93,3.534 -2.79,4.092 -1.55,0.434 -3.534,0.372 -4.712,0.372 -2.108,0 -3.596,-0.124 -4.526,-0.558 -1.302,-0.558 -1.612,-1.736 -1.736,-4.03 -0.062,-1.054 0,-6.51 0,-8.432 v -4.526 c 0,-0.248 0.062,-0.434 0.434,-0.434 0.992,0 6.014,0.124 7.44,0.248 2.356,0.186 2.728,1.054 2.976,1.86 0.124,0.496 0.186,1.116 0.186,1.488 0,0.434 0.062,0.806 0.372,0.806 0.248,0 0.372,-0.186 0.434,-0.682 0.062,-0.806 0.062,-2.046 0.248,-3.782 0.186,-1.798 0.434,-2.976 0.434,-3.286 0,-0.31 -0.124,-0.372 -0.248,-0.372 -0.248,0 -0.434,0.124 -0.682,0.496 -0.496,0.682 -1.426,0.868 -2.852,0.93 -1.302,0.124 -7.626,0.186 -8.37,0.186 -0.31,0 -0.372,-0.248 -0.372,-0.62 v -14.074 c 0,-0.372 0.124,-0.496 0.31,-0.496 0.124,0 6.262,0.062 7.068,0.124 3.1,0.186 3.658,0.62 4.03,1.86 0.186,0.434 0.372,1.054 0.434,1.984 0,0.434 0.124,0.682 0.434,0.682 0.31,0 0.434,-0.372 0.434,-0.93 0.062,-1.178 0.124,-2.17 0.186,-3.224 0.124,-1.55 0.496,-2.418 0.496,-2.79 0,-0.31 -0.124,-0.434 -0.248,-0.434 -0.248,0 -0.31,0.062 -0.682,0.186 -0.496,0.186 -1.178,0.248 -2.418,0.31 -1.24,0.062 -12.276,0.062 -12.586,0.062 -3.472,-0.062 -5.146,-0.186 -6.386,-0.186 -0.62,0 -0.93,0.124 -0.93,0.496 0,0.186 0.372,0.372 0.806,0.372 0.496,0 1.116,0.062 1.488,0.124 1.798,0.372 2.232,1.24 2.356,2.976 0.124,1.674 0.124,3.162 0.124,11.284 z" />
      <path
         id="path71"
         d="m 1002.8487,333.30499 c -0.062,-0.992 -0.248,-1.55 -0.62,-1.55 -0.372,0 -0.62,0.372 -0.93,1.054 l -15.80995,32.116 -16.616,-32.178 c -0.434,-0.806 -0.62,-0.992 -0.93,-0.992 -0.31,0 -0.558,0.496 -0.682,1.55 l -4.154,34.038 c -0.31,2.48 -0.868,3.968 -2.356,4.092 -0.682,0.062 -0.744,0.062 -1.178,0.062 -0.558,0 -0.806,0.248 -0.806,0.372 0,0.434 0.372,0.496 0.93,0.496 1.55,0 4.154,-0.186 4.774,-0.186 0.496,0 3.162,0.186 5.146,0.186 0.682,0 1.054,-0.062 1.054,-0.496 0,-0.124 -0.124,-0.31 -0.62,-0.372 -0.62,-0.062 -1.054,-0.062 -1.736,-0.186 -1.24,-0.248 -1.55,-1.178 -1.55,-1.86 0,-0.93 0,-1.488 0.062,-2.356 l 2.294,-23.87 c 0.496,1.302 6.572,13.33 6.944,14.074 0.372,0.558 5.332,10.478 6.324,12.276 1.178,2.108 1.488,2.666 1.86,2.666 0.558,0 0.744,-0.558 1.922,-2.976 l 13.144,-26.66 2.72795,26.536 c 0.124,0.868 -0.062,1.612 -0.372,1.736 -0.31,0.124 -0.558,0.372 -0.558,0.558 0,0.31 0.496,0.434 1.86,0.558 1.984,0.124 8.68,0.372 9.796,0.372 0.682,0 0.93,-0.186 0.93,-0.496 0,-0.31 -0.558,-0.372 -0.806,-0.372 -0.868,-0.062 -2.108,-0.186 -3.162,-0.434 -2.418,-0.558 -2.79,-4.03 -2.976,-5.518 z" />
      <path
         id="path73"
         d="m 1023.1121,357.05099 c 0,4.65 0,9.052 -0.31,11.284 -0.186,1.488 -0.372,2.728 -1.426,2.976 -0.496,0.124 -1.178,0.186 -1.488,0.186 -0.558,0 -0.806,0.186 -0.806,0.434 0,0.31 0.434,0.434 0.992,0.434 1.736,0 5.394,-0.186 5.58,-0.186 0.31,0 3.906,0.186 7.068,0.186 0.62,0 0.868,-0.186 0.868,-0.434 0,-0.248 -0.124,-0.372 -0.682,-0.434 -0.248,0 -1.55,-0.062 -2.356,-0.248 -1.612,-0.372 -1.86,-1.054 -2.108,-2.852 -0.31,-2.232 -0.248,-6.572 -0.248,-11.346 v -9.3 c 0,-8.184 -0.062,-9.61 0.062,-11.284 0.124,-1.798 0.31,-2.728 2.108,-2.976 0.434,-0.062 0.744,-0.062 1.116,-0.124 0.496,-0.062 0.682,-0.186 0.682,-0.434 0,-0.31 -0.31,-0.434 -0.93,-0.434 -1.736,0 -5.332,0.186 -5.58,0.186 -0.186,0 -3.72,-0.186 -5.642,-0.186 -0.682,0 -0.93,0.124 -0.93,0.434 0,0.248 0.248,0.372 0.682,0.434 0.372,0.062 0.806,0.062 1.426,0.186 1.302,0.248 1.674,1.178 1.798,2.852 0.124,1.674 0.124,3.162 0.124,11.346 z" />
      <path
         id="path75"
         d="m 1058.9365,334.91699 c 1.798,0 3.72,0.062 6.076,0.062 6.262,0.062 7.068,0.682 7.316,3.162 0.062,0.62 0.062,0.682 0.062,0.868 0,0.496 0.124,0.744 0.434,0.744 0.186,0 0.434,-0.186 0.434,-0.744 0,-0.496 0.124,-4.588 0.124,-6.324 0,-0.248 -0.124,-0.558 -0.372,-0.558 -0.186,0 -0.372,0.062 -1.178,0.248 -0.868,0.186 -2.728,0.31 -4.464,0.31 h -20.336 c -0.062,0 -1.798,-0.062 -3.968,-0.31 -1.116,-0.124 -2.294,-0.682 -2.728,-0.682 -0.186,0 -0.372,0.248 -0.558,0.992 -0.372,1.674 -1.302,5.766 -1.24,6.138 0,0.31 0.062,0.558 0.31,0.558 0.248,0 0.372,-0.062 0.558,-0.496 0.124,-0.31 0.372,-1.054 0.93,-1.922 0.868,-1.302 1.736,-1.922 5.704,-1.984 2.48,-0.062 5.766,-0.062 7.812,-0.062 v 22.134 c 0,4.65 0,9.114 -0.248,11.346 -0.248,2.108 -0.434,2.852 -1.612,3.038 -0.496,0.062 -0.868,0.062 -1.364,0.062 -0.496,0 -0.682,0.248 -0.682,0.434 0,0.31 0.248,0.434 0.93,0.434 1.612,0 5.27,-0.186 5.518,-0.186 0.248,0 3.906,0.186 7.068,0.186 0.62,0 0.806,-0.186 0.806,-0.496 0,-0.186 -0.248,-0.372 -0.744,-0.372 -0.496,0 -1.674,-0.062 -2.418,-0.248 -1.55,-0.372 -1.674,-1.24 -1.86,-2.728 -0.248,-2.294 -0.31,-6.696 -0.31,-11.47 z" />
      <path
         id="path77"
         d="m 1084.3855,357.05099 c 0,4.65 0,9.052 -0.31,11.284 -0.186,1.488 -0.372,2.728 -1.426,2.976 -0.496,0.124 -1.178,0.186 -1.488,0.186 -0.558,0 -0.806,0.186 -0.806,0.434 0,0.31 0.434,0.434 0.992,0.434 1.736,0 5.394,-0.186 5.58,-0.186 0.31,0 3.906,0.186 7.068,0.186 0.62,0 0.868,-0.186 0.868,-0.434 0,-0.248 -0.124,-0.372 -0.682,-0.434 -0.248,0 -1.55,-0.062 -2.356,-0.248 -1.612,-0.372 -1.86,-1.054 -2.108,-2.852 -0.31,-2.232 -0.248,-6.572 -0.248,-11.346 v -9.3 c 0,-8.184 -0.062,-9.61 0.062,-11.284 0.124,-1.798 0.31,-2.728 2.108,-2.976 0.434,-0.062 0.744,-0.062 1.116,-0.124 0.496,-0.062 0.682,-0.186 0.682,-0.434 0,-0.31 -0.31,-0.434 -0.93,-0.434 -1.736,0 -5.332,0.186 -5.58,0.186 -0.186,0 -3.72,-0.186 -5.642,-0.186 -0.682,0 -0.93,0.124 -0.93,0.434 0,0.248 0.248,0.372 0.682,0.434 0.372,0.062 0.806,0.062 1.426,0.186 1.302,0.248 1.674,1.178 1.798,2.852 0.124,1.674 0.124,3.162 0.124,11.346 z" />
      <path
         id="path79"
         d="m 1113.8094,347.75099 c 0,-8.184 -0.062,-9.548 0.062,-11.222 0.124,-1.798 0.496,-2.79 2.232,-3.038 0.62,-0.062 1.24,-0.124 1.674,-0.124 0.372,0 0.682,-0.186 0.682,-0.434 0,-0.248 -0.186,-0.434 -0.806,-0.434 -1.736,0 -5.518,0.186 -6.386,0.186 -0.124,0 -3.844,-0.186 -6.448,-0.186 -0.62,0 -0.93,0.124 -0.93,0.434 0,0.248 0.248,0.434 0.682,0.434 0.496,0 1.178,0 1.55,0.062 2.108,0.248 2.356,1.364 2.48,3.1 0.124,1.674 0.124,3.038 0.124,11.222 v 9.3 c 0,4.774 0.124,9.052 -0.248,11.408 -0.186,1.488 -0.558,2.728 -1.612,2.914 -0.496,0.124 -0.992,0.124 -1.488,0.124 -0.496,0 -0.682,0.186 -0.682,0.372 0,0.372 0.372,0.496 0.992,0.496 2.17,0 3.41,-0.186 5.456,-0.186 6.2,0 10.85,0.31 15.066,0.31 2.976,0 2.914,-0.31 3.286,-1.55 0.372,-1.426 0.744,-4.96 0.744,-5.58 0,-0.62 -0.124,-0.806 -0.372,-0.806 -0.31,0 -0.434,0.248 -0.496,0.744 -0.124,0.93 -0.558,2.17 -1.178,3.1 -1.364,1.736 -3.844,1.736 -6.572,1.736 -4.278,0 -5.518,-0.372 -6.51,-1.24 -1.054,-0.992 -1.302,-4.588 -1.302,-11.718 z" />
      <path
         id="path81"
         d="m 1141.1785,357.05099 c 0,4.65 0,9.052 -0.31,11.284 -0.186,1.488 -0.372,2.728 -1.426,2.976 -0.496,0.124 -1.178,0.186 -1.488,0.186 -0.558,0 -0.806,0.186 -0.806,0.434 0,0.31 0.434,0.434 0.992,0.434 1.736,0 5.394,-0.186 5.58,-0.186 0.31,0 3.906,0.186 7.068,0.186 0.62,0 0.868,-0.186 0.868,-0.434 0,-0.248 -0.124,-0.372 -0.682,-0.434 -0.248,0 -1.55,-0.062 -2.356,-0.248 -1.612,-0.372 -1.86,-1.054 -2.108,-2.852 -0.31,-2.232 -0.248,-6.572 -0.248,-11.346 v -9.3 c 0,-8.184 -0.062,-9.61 0.062,-11.284 0.124,-1.798 0.31,-2.728 2.108,-2.976 0.434,-0.062 0.744,-0.062 1.116,-0.124 0.496,-0.062 0.682,-0.186 0.682,-0.434 0,-0.31 -0.31,-0.434 -0.93,-0.434 -1.736,0 -5.332,0.186 -5.58,0.186 -0.186,0 -3.72,-0.186 -5.642,-0.186 -0.682,0 -0.93,0.124 -0.93,0.434 0,0.248 0.248,0.372 0.682,0.434 0.372,0.062 0.806,0.062 1.426,0.186 1.302,0.248 1.674,1.178 1.798,2.852 0.124,1.674 0.124,3.162 0.124,11.346 z" />
      <path
         id="path83"
         d="m 1183.5129,373.04699 c 3.472,0 7.626,-0.31 9.796,-1.24 0.868,-0.372 1.054,-0.558 1.426,-1.55 0.434,-1.364 1.24,-6.386 1.24,-6.882 0,-0.434 0,-0.868 -0.31,-0.868 -0.372,0 -0.558,0.31 -0.682,0.93 -0.31,1.736 -0.93,3.286 -2.046,4.464 -2.17,2.108 -5.27,2.542 -9.486,2.542 -10.912,0 -19.282,-9.052 -19.282,-19.344 0,-5.456 0.93,-9.92 4.96,-13.578 1.86,-1.674 5.022,-3.596 11.904,-3.596 4.774,0 9.114,1.55 10.974,3.162 1.55,1.178 2.418,3.596 2.418,5.394 0,0.806 0.062,1.178 0.496,1.178 0.31,0 0.434,-0.31 0.496,-1.178 0.062,-0.744 0.062,-3.968 0.124,-5.704 0.124,-1.984 0.31,-2.542 0.31,-3.038 0,-0.31 -0.062,-0.62 -0.558,-0.62 -1.488,-0.062 -3.472,-0.372 -5.456,-0.682 -3.038,-0.434 -5.332,-0.682 -8.184,-0.682 -8.308,0 -13.33,2.294 -16.678,5.518 -4.898,4.712 -6.262,10.85 -6.262,14.322 0,5.146 1.364,11.222 6.634,15.81 4.402,3.782 9.982,5.642 18.166,5.642 z" />
      <path
         id="path85"
         d="m 1213.1547,347.75099 c 0,-8.184 0,-9.61 0.062,-11.284 0.124,-1.736 0.372,-2.79 1.86,-2.976 0.496,-0.062 0.992,-0.124 1.364,-0.124 0.31,0 0.744,-0.124 0.744,-0.434 0,-0.31 -0.186,-0.434 -0.868,-0.434 -1.674,0 -5.332,0.186 -5.828,0.186 -0.434,0 -3.782,-0.186 -6.448,-0.186 -0.682,0 -0.93,0.124 -0.93,0.496 0,0.186 0.248,0.372 0.682,0.372 0.496,0 1.24,0.062 1.612,0.124 1.922,0.248 2.232,1.302 2.294,2.976 0.186,1.674 0.186,3.1 0.186,11.284 v 7.688 c 0,7.688 1.922,11.408 4.588,13.888 4.03,3.72 9.858,3.72 11.594,3.72 3.348,0 7.316,-0.31 11.346,-3.72 4.402,-3.782 5.022,-10.478 5.022,-16.058 v -5.518 c 0,-8.122 0,-9.548 0.062,-11.222 0.124,-1.798 0.372,-2.914 2.108,-3.1 0.62,-0.062 0.744,-0.062 1.116,-0.062 0.372,0 0.62,-0.186 0.62,-0.434 0,-0.31 -0.248,-0.434 -0.868,-0.434 -1.736,0 -4.402,0.186 -4.712,0.186 -0.248,0 -3.348,-0.186 -6.014,-0.186 -0.558,0 -0.868,0.124 -0.868,0.496 0,0.186 0.248,0.372 0.62,0.372 0.558,0 1.302,0.062 1.736,0.124 1.984,0.31 2.17,1.24 2.294,3.038 0.124,1.674 0.124,3.1 0.124,11.222 v 6.572 c 0,5.394 -0.558,10.106 -3.038,12.958 -2.356,2.728 -5.27,3.596 -8.494,3.596 -2.542,0 -5.518,-0.496 -8.184,-2.852 -2.356,-2.108 -3.782,-5.332 -3.782,-12.896 z" />
      <path
         id="path87"
         d="m 1261.3016,347.75099 c 0,-8.184 -0.062,-9.548 0.062,-11.222 0.124,-1.798 0.496,-2.79 2.232,-3.038 0.62,-0.062 1.24,-0.124 1.674,-0.124 0.372,0 0.682,-0.186 0.682,-0.434 0,-0.248 -0.186,-0.434 -0.806,-0.434 -1.736,0 -5.518,0.186 -6.386,0.186 -0.124,0 -3.844,-0.186 -6.448,-0.186 -0.62,0 -0.93,0.124 -0.93,0.434 0,0.248 0.248,0.434 0.682,0.434 0.496,0 1.178,0 1.55,0.062 2.108,0.248 2.356,1.364 2.48,3.1 0.124,1.674 0.124,3.038 0.124,11.222 v 9.3 c 0,4.774 0.124,9.052 -0.248,11.408 -0.186,1.488 -0.558,2.728 -1.612,2.914 -0.496,0.124 -0.992,0.124 -1.488,0.124 -0.496,0 -0.682,0.186 -0.682,0.372 0,0.372 0.372,0.496 0.992,0.496 2.17,0 3.41,-0.186 5.456,-0.186 6.2,0 10.85,0.31 15.066,0.31 2.976,0 2.914,-0.31 3.286,-1.55 0.372,-1.426 0.744,-4.96 0.744,-5.58 0,-0.62 -0.124,-0.806 -0.372,-0.806 -0.31,0 -0.434,0.248 -0.496,0.744 -0.124,0.93 -0.558,2.17 -1.178,3.1 -1.364,1.736 -3.844,1.736 -6.572,1.736 -4.278,0 -5.518,-0.372 -6.51,-1.24 -1.054,-0.992 -1.302,-4.588 -1.302,-11.718 z" />
      <path
         id="path89"
         d="m 1297.7333,334.91699 c 1.798,0 3.72,0.062 6.076,0.062 6.262,0.062 7.068,0.682 7.316,3.162 0.062,0.62 0.062,0.682 0.062,0.868 0,0.496 0.124,0.744 0.434,0.744 0.186,0 0.434,-0.186 0.434,-0.744 0,-0.496 0.124,-4.588 0.124,-6.324 0,-0.248 -0.124,-0.558 -0.372,-0.558 -0.186,0 -0.372,0.062 -1.178,0.248 -0.868,0.186 -2.728,0.31 -4.464,0.31 h -20.336 c -0.062,0 -1.798,-0.062 -3.968,-0.31 -1.116,-0.124 -2.294,-0.682 -2.728,-0.682 -0.186,0 -0.372,0.248 -0.558,0.992 -0.372,1.674 -1.302,5.766 -1.24,6.138 0,0.31 0.062,0.558 0.31,0.558 0.248,0 0.372,-0.062 0.558,-0.496 0.124,-0.31 0.372,-1.054 0.93,-1.922 0.868,-1.302 1.736,-1.922 5.704,-1.984 2.48,-0.062 5.766,-0.062 7.812,-0.062 v 22.134 c 0,4.65 0,9.114 -0.248,11.346 -0.248,2.108 -0.434,2.852 -1.612,3.038 -0.496,0.062 -0.868,0.062 -1.364,0.062 -0.496,0 -0.682,0.248 -0.682,0.434 0,0.31 0.248,0.434 0.93,0.434 1.612,0 5.27,-0.186 5.518,-0.186 0.248,0 3.906,0.186 7.068,0.186 0.62,0 0.806,-0.186 0.806,-0.496 0,-0.186 -0.248,-0.372 -0.744,-0.372 -0.496,0 -1.674,-0.062 -2.418,-0.248 -1.55,-0.372 -1.674,-1.24 -1.86,-2.728 -0.248,-2.294 -0.31,-6.696 -0.31,-11.47 z" />
      <path
         id="path91"
         d="m 1326.1352,347.75099 c 0,-8.184 0,-9.61 0.062,-11.284 0.124,-1.736 0.372,-2.79 1.86,-2.976 0.496,-0.062 0.992,-0.124 1.364,-0.124 0.31,0 0.744,-0.124 0.744,-0.434 0,-0.31 -0.186,-0.434 -0.868,-0.434 -1.674,0 -5.332,0.186 -5.828,0.186 -0.434,0 -3.782,-0.186 -6.448,-0.186 -0.682,0 -0.93,0.124 -0.93,0.496 0,0.186 0.248,0.372 0.682,0.372 0.496,0 1.24,0.062 1.612,0.124 1.922,0.248 2.232,1.302 2.294,2.976 0.186,1.674 0.186,3.1 0.186,11.284 v 7.688 c 0,7.688 1.922,11.408 4.588,13.888 4.03,3.72 9.858,3.72 11.594,3.72 3.348,0 7.316,-0.31 11.346,-3.72 4.402,-3.782 5.022,-10.478 5.022,-16.058 v -5.518 c 0,-8.122 0,-9.548 0.062,-11.222 0.124,-1.798 0.372,-2.914 2.108,-3.1 0.62,-0.062 0.744,-0.062 1.116,-0.062 0.372,0 0.62,-0.186 0.62,-0.434 0,-0.31 -0.248,-0.434 -0.868,-0.434 -1.736,0 -4.402,0.186 -4.712,0.186 -0.248,0 -3.348,-0.186 -6.014,-0.186 -0.558,0 -0.868,0.124 -0.868,0.496 0,0.186 0.248,0.372 0.62,0.372 0.558,0 1.302,0.062 1.736,0.124 1.984,0.31 2.17,1.24 2.294,3.038 0.124,1.674 0.124,3.1 0.124,11.222 v 6.572 c 0,5.394 -0.558,10.106 -3.038,12.958 -2.356,2.728 -5.27,3.596 -8.494,3.596 -2.542,0 -5.518,-0.496 -8.184,-2.852 -2.356,-2.108 -3.782,-5.332 -3.782,-12.896 z" />
      <path
         id="path93"
         d="m 1369.26,357.05099 c 0,4.65 0.062,9.734 -0.248,11.966 -0.186,1.488 -0.558,2.17 -1.612,2.356 -0.496,0.124 -0.93,0.124 -1.364,0.124 -0.372,0 -0.744,0.186 -0.744,0.372 0,0.372 0.248,0.496 0.868,0.496 1.674,0 4.402,-0.186 5.394,-0.186 0.248,0 3.72,0.186 6.944,0.186 0.62,0 0.868,-0.186 0.868,-0.496 0,-0.186 -0.248,-0.372 -0.806,-0.372 -0.496,0 -1.178,-0.062 -1.798,-0.124 -2.046,-0.248 -2.232,-1.488 -2.418,-2.976 -0.31,-2.232 -0.31,-6.758 -0.31,-11.718 v -0.868 c 0,-0.248 0.062,-0.31 0.31,-0.31 l 6.386,0.062 c 0.372,0 0.496,0.124 0.744,0.372 1.054,1.302 3.534,4.65 5.952,7.626 3.224,4.154 5.084,6.944 7.688,8.06 1.364,0.558 2.728,0.744 5.642,0.744 h 4.34 c 0.868,0 1.116,-0.124 1.116,-0.434 0,-0.248 -0.186,-0.434 -0.682,-0.434 -0.186,0 -1.488,-0.062 -1.922,-0.124 -1.736,-0.248 -3.596,-0.744 -6.572,-3.782 -3.162,-3.286 -6.882,-7.874 -11.408,-13.454 4.898,-3.968 6.572,-8.308 6.572,-11.718 0,-4.216 -2.542,-6.696 -3.72,-7.564 -2.914,-2.046 -6.696,-2.356 -10.168,-2.356 -1.736,0 -5.952,0.186 -6.51,0.186 -0.124,0 -3.906,-0.186 -6.572,-0.186 -0.558,0 -0.744,0.186 -0.744,0.434 0,0.248 0.248,0.372 0.682,0.372 0.496,0 1.116,0.062 1.488,0.124 1.922,0.372 2.356,1.302 2.48,2.976 0.124,1.674 0.124,3.162 0.124,11.346 z m 4.774,-21.762 c 0,-0.31 0.186,-0.496 0.372,-0.558 0.744,-0.186 2.046,-0.31 3.596,-0.31 5.518,0 9.114,3.72 9.114,10.478 0,3.968 -1.24,6.696 -3.1,7.874 -1.302,0.868 -2.852,0.93 -4.154,0.93 -2.232,0 -4.712,-0.372 -5.518,-0.806 -0.248,-0.124 -0.31,-0.434 -0.31,-0.744 z" />
      <path
         id="path95"
         d="m 1426.3194,357.23699 c 0.248,0 0.372,0.124 0.496,0.31 l 4.898,12.462 c 0.372,0.93 0,1.24 -0.248,1.364 -0.248,0.062 -0.434,0.248 -0.434,0.434 0,0.31 0.372,0.372 1.55,0.434 4.154,0.124 8.804,0.124 9.424,0.124 0.682,0 0.93,-0.124 0.93,-0.434 0,-0.31 -0.31,-0.434 -0.744,-0.434 -0.434,0 -1.302,0 -2.108,-0.31 -0.868,-0.31 -2.666,-1.116 -4.712,-6.014 -3.286,-7.75 -11.718,-29.388 -12.586,-31.434 -0.682,-1.736 -0.93,-1.984 -1.24,-1.984 -0.434,0 -0.62,0.31 -1.302,2.108 l -12.4,32.674 c -1.054,2.604 -2.108,4.65 -4.774,4.898 -0.372,0.062 -0.93,0.062 -1.24,0.062 -0.496,0 -0.744,0.186 -0.744,0.434 0,0.31 0.31,0.434 0.992,0.434 2.604,0 5.332,-0.186 5.952,-0.186 0.682,0 3.534,0.186 4.898,0.186 0.434,0 0.93,-0.124 0.93,-0.434 0,-0.248 -0.186,-0.434 -0.744,-0.434 -0.186,0 -0.248,0 -0.434,0 -1.364,0 -2.046,-0.496 -2.046,-1.612 0,-0.992 0.434,-2.666 1.054,-4.402 l 2.728,-7.75 c 0.124,-0.31 0.31,-0.496 0.62,-0.496 z m -10.664,-2.17 c -0.124,0 -0.248,-0.124 -0.124,-0.372 l 4.65,-13.702 c 0.31,-0.868 0.372,-0.868 0.682,0 l 4.898,13.702 c 0.062,0.186 0.062,0.372 -0.186,0.372 z" />
    </g>
  </g>
</svg>
