<svg xmlns="http://www.w3.org/2000/svg" width="291.5" height="385" display="block">
  <g fill-rule="evenodd">
    <path d="M141.1 2.4c0 2.7-.2 3-2.8 3.1l-2.2.2v7.6h2.3c3.3.2 4 3.7 1 4.4-3.3.7-6.5 3.4-8 6.8l-.7 1.7-3.1.1-3 .2V34h1.2c.7.1 1.3.4 1.3.7l2 4 2 3.5h-3.4c-7.2 0-11.6 3.6-12.7 10.4l-.5 2.7-1.2-1-3.7-3.4c-3.2-3-2-3.6-11 6-8.5 9-8.6 9-9 7.3-.7-3.6-4-4.2-13.4-2.2l-3.6.7-1.2-1.4c-4.1-4.7-10-2.3-9.3 3.9l.2 2.5-2.5 2c-7.5 5.7-9 8.2-7 11.7 1.1 2 1.8 1.9-9.7 2.4-11 .4-11.8.5-12 1.3-.2.2 0 3.5.2 7.3l.4 6.8h1.7c1.7.2 1.8.2 1.4 1.3-.1.6-.3 2.7-.3 4.7v3.7l-2 .6c-6 1.9-9.6 8-8.6 14.2l.4 2.5-1.4 1.2c-4 3.5-1.7 9.6 3.7 9.6.8 0 1 .1.8.9l-1 4.5c-1.3 7.2-2.6 8.6-7.2 8.3-4.2-.3-5.7.6-5.7 3.2 0 4.1 4.7 5.5 10.1 3 2.7-1.3 2.7-1.2 1 1.5a140 140 0 0 0-24 80.2c0 13 0 14.7 2 26.2a145.1 145.1 0 0 0 143.1 119.5 145.2 145.2 0 0 0 121.7-224.9c-2.2-3.4-2.2-3.5.1-2.4 6.4 3.1 13.5-1 9.2-5.3-1.2-1.3-1.3-1.3-4.6-1-4.8.4-7.3-3.2-8.8-12.4l-.2-1.6 2.2-.2c5.8-.5 7-7.2 2-10.2-.6-.3-.7-.6-.3-1.7 2.5-7-3.6-15-12.5-16.3-2.7-.4-2.7-.3-1.6-2.7 2.2-4.8 1.5-9.2-1.5-10-2.1-.5-1.3-3.4 1.3-4.3 1.5-.5 1.5-1.2 0-5.1l-1.1-3-1.7-.1c-1 0-2.6-.2-3.6-.4-1.4-.1-2.2 0-3.1.4-1.7.9-1.6 1-1.8-1.2-.3-3.3-1.5-6.5-2.3-6.5-2 0-4.3-1.4-7.2-4.2-1.6-1.6-3.2-3-3.5-3.1-.5-.1-.5-.4.1-1.5 2.2-4.2-2-9-6.6-7.7-1.6.5-3.6 2.4-3.6 3.5 0 .7-.1.7-2.6 0-1-.4-2.7-.6-3.7-.6-2 0-4-.8-5.8-2.2-1.6-1.2-2-1.3-4.2-.2l-1.7.7-2.1-1.4c-2.3-1.5-3.8-1.7-5.6-.7-1.5.7-1.6.7-1-.3.9-1.8-.1-4-2.2-4.5-.6-.2-1.3-.7-1.7-1-.4-.5-1-.8-1.4-.8-.4 0-1.3-.5-2-1-1.4-1.3-.9-1.5-5.1 2.3-2.7 2.3-2.7 2.3-3-.3-.6-6.2-5.5-10.2-12.4-10.2-3.8 0-3.8 0-2.7-1.6l2-3.7c1-2 1.4-2.6 2.3-2.7l1.1-.3v-7.5l-3-.2-3-.2-.5-1.7c-1-2.8-3.7-5.6-6.4-6.4-2.8-.9-3.3-1.2-3.3-2.4 0-1.8.4-2.1 2.6-2.1 2.5 0 2.6-.2 2.6-4 0-3.9 0-4-2.6-4-2.4 0-2.6-.3-2.6-3.3v-2h-9.2v2.2m7.2 2.6v2.4l2.3.1 2.3.2.1 1.7.2 1.7h-4.9v4l.2 4.1 1.9.3c3.8.6 7.1 3.4 7.8 6.7l.2 1.3h-12.6c-13.5 0-13.3 0-12.5-1.9 1.3-3 4.6-5.5 8-6l1.8-.3v-8.2h-4.8V7.5h4.8V2.7h5.2V5m16.4 25.2V32h-38.4v-3.8h38.4v1.9m-32.4 3.6c0 5.2 8.1 13 13.4 13 5 0 11.8-6.1 13-11.6l.5-2.1h1.6c1.5 0 1.6 0 1.3 1-.5 2.1-3.1 6.3-5.3 8.5-2 2.2-3.5 4.1-5 6.8l-.7 1.3-5.5-.1-5.5-.1-1-2c-.5-1-2.3-3.3-3.9-5a34 34 0 0 1-6.3-9.5c-.2-.9-.1-1 1.6-1 1.5 0 1.8.2 1.8.8m25.8.5c-1.5 7-9.2 12.9-14.4 11.2a16.4 16.4 0 0 1-9.8-9c-1.3-3.7-2.4-3.4 11.8-3.4h12.7l-.3 1.2m-25.3 11a10 10 0 0 1 4.5 4.4l.8 1.6h15.2l1.2-2.2c5.4-9.3 19.2-5.5 19.8 5.5.2 4.3.6 4.8 2.4 3.2l2-1.7 1-.8-.4.8c-.2.7 0 1 .7 1.1 1.4.3 3.7 5 3.3 6.6a38 38 0 0 1-9.2 8.4c-.9.6-2 1.8-2.4 2.7-.4.8-1.2 2-1.7 2.6-1.2 1.4-1 3 .4 3 1.3 0 2.1 2.9 1.3 4.7-.4 1.2-.4 1.4.7 2.7 3.2 3.8 4.5 7.2 3 8.5-.2.2-6.9-1-7-1.4-.2-.1-3-1.2-6.5-2.3l-9.3-3.5-3-1.4-2 1-2 1.1-1.9-1-1.8-1.1-3.5 1.5-9.2 3.4-6.2 2.2c-.3.3-2.1.7-4 1.1-21.7 4.2-42.3 13-59.4 25.7-3.6 2.7-8.1 2.5-12.5-.6-1.5-1.1-1.6-1-1 .7 2.6 7.2-1.6 12-9.4 10.6-3.7-.7-4.8-.5-7.4 1.3-3.8 2.6-7.6.5-6-3.2 1.1-2.7 4.2-3.2 12.3-2 4.3.7 4.4.7 5.4-.1 1.6-1.2 1.7-3.6.4-5.2-.9-1-1-1.3-.5-2 2-2.6-.7-6.8-4-6.4a5 5 0 0 0-4.2 3c-.7 1.6 0 1.8 1 .2 1.9-3.4 7-2.7 7 1 0 1.3-1 2.9-1.8 2.9-1 0-.5.9.6 1.2 1.3.3 2.2 1.9 1.9 3.3-.5 1.8-1.4 2-7 1a45 45 0 0 0-6.5-.7c-1.4.2-1.4.1-1.9-2-1.3-6.7 1.8-11.5 8.7-13.6 2.5-.8 2.3-.3 1.8-5.6-.4-3.7 1-7.2 2.6-7.2 1 0 1.2-.2 1.3-1.5l.1-1.5 2.7-.2c2.6 0 2.7 0 2.7.9 0 1.4.9 2 2.9 1.8l1.7-.1v-5.8l1.6-.2 5.3-.4 3.6-.2 1 1.3 1.4 2c.7.8-4.3 6.3-5.1 5.6-2.2-1.7-7.6-2.2-10.2-1-10.4 4.8.3 24.4 11.7 21.3 5.6-1.5 8.4-9.7 4.8-14-.3-.4.1-1 1.9-2.8l2.3-2.4 2.2 2.4c2.7 2.9 2.3 2.8 6 .1 4.7-3.4 13-7 16.3-7 1.6 0 1.9-.8 1.4-4-.5-3.5-1-3 3.7-3.4l3.8-.2.4 1.2c2.7 7.6 12.8 8.3 16.6 1 1.3-2.3 1.3-9.9 0-12.7-4.5-9.8-14.7-9.2-17.3 1.1-.4 1.6-.6 1.9-1.5 1.9-.6 0-2.5 0-4.3.2l-3.3.3-.6-2.7-.7-2.7 3.9-4.2c4.5-4.8 4-4.7 6.5-2.3l2 1.9 1.4-1.4c1.6-1.5 1.7-1.8.6-3l-.9-.9 1.8-2c2-2.3 2.1-2.4 3.3-1.2l1 .8 2.8-3 3-2.8V55c.2-8.7 8.1-13.6 16-9.9m-7.2 3.8c-3 1.2-3.9 5.1-2.1 8.6l.7 1.5-4 4.6c-5 5.5-4.8 5.1-3.1 6.6.8.6 2 2.1 3 3.3A8.5 8.5 0 0 0 122 76c.8 0 3.5-1.7 3.5-2.2 0-1.9 3.5-2.5 4.8-.8 1.2 1.6 3.8.7 3.4-1.2l-.6-3.2c-.1-1.1-.5-2-.7-2.2-.2 0-1.3-.7-2.3-1.5-1-.8-2-1.3-2.1-1.2-.3.3 1.4 2 3.4 3.5 1.1.8 1.6 5 .7 5.4-.4.2-1-.1-1.5-.6-1.7-1.6-5.9-.7-5.9 1.3 0 1.4-2.5 1.7-3.4.5-.4-.7-1.6-2-2.5-3.1l-1.8-2 2.8-3 4-4.5c1.5-1.7 1.5-1.8.5-4.1-1.8-4 0-7.5 4.2-7.5 3.6 0 5 2.5 2.9 5-2.2 2.7-2.4 4.3-.8 6.2 2.3 2.6 7.2 1.7 8-1.3l.4-1.3 6.4-.2c6 0 6.5 0 6.8.6.9 2.9 2.4 4 5.3 3.6 3.9-.4 5-3.7 2.6-7-2.4-3.4-1.5-5.6 2.4-5.6 4.3 0 6.2 3.5 4.1 7.7-1 2.1-1.2 1.6 3.9 7.4l3.5 4-1.7 2c-1 1-2.2 2.4-2.6 3-.9 1.3-3.4 1-3.4-.4 0-1.1-1.5-2.1-3.3-2.1-1.3 0-2 .2-2.5.8-.8.8-1.6 1-2 .4-.4-.8.6-5 1.3-5.4 1.2-.7 3.5-3 3.2-3.3-.8-.8-5 3.5-5.2 5.4l-.5 3c-.4 1.6 2.3 2.4 3.5.9 1.3-1.7 4.7-1 4.7.9 0 .4 1.5 1.3 3 1.8.7.2 1.1-.1 2.4-2 .9-1.2 2.2-2.7 2.9-3.2 1.8-1.4 1.8-1.4-2.9-6.7l-4.2-4.7.7-1.2c2.5-4.9.3-9.1-4.7-9.1s-6.5 3-3.4 6.8c2 2.4 1.7 4.4-.9 5.4-2.5 1-5.3-.5-5.3-2.9v-1H138v1c0 3.4-5.4 4.5-7 1.4-.7-1.2-.5-2 .9-3.8 3.4-4.6-.5-8.8-6.1-6.6m-14.8 6c4.4 4 4.4 3.7 1.9 6.2l-2 1.9-.9-1c-1-1.2-1-1.2-4 2.2l-2.1 2.4 1 1 .8 1-.9 1-1 1-2-2-2-2.1-2.5 2.5-4.2 4.5-1.8 2-.7-3.1-.7-3 2-2.2c8-8.7 14.7-15.8 15-15.8 0 0 2 1.5 4 3.4m73-2.2c.3.3.9.6 1.4.6.5.1 1 .4 1.2.7.1.2.9.6 1.6.9 1.7.6 1.7 1.4 0 1.8-2.3.5-2 1.5 1.4 3.8 2 1.4 2 1.4 3 .8 3-2.2 7 .6 7.1 4.8 0 2.4-1.3 1.5-1.3-.9 0-1.5-.3-2-1.2-2.7l-1.2-.8-1.8 1c-1.8 1-2 1.2-2.1 3-.1 1-.4 2.3-.7 2.8-.7 1.3-.7 1.3 1.5 1 1.8-.1 2 0 2.4.8.6 1.6 1 6.4.5 6.4-.2 0-.5-1-.7-2.3-.4-4-.8-4.2-4.3-3a6.5 6.5 0 0 0-3.3 2.4 26 26 0 0 1-5.4 4.9c-.5.2-.5.5 0 1.3.5 1 .4 3.5-.1 5-.7 1.9 4.3 4.2 6.5 3 1-.5 1.1-.5 1.3.4.6 3.2-8.6-.4-9.4-3.7-.7-2.8-3-5.1-3-3a7 7 0 0 1-1.8 4c-.9 1-.9 1 2.5 8 1.3 2.6 1.3 2.7-.1 2.3-1-.2-1-.4-1-2.1 0-1.8-2.5-6-4-7-.3-.2-.3-.6 0-1.3.7-2.1-.6-7-2-7-.6 0-.6 0 0-.5.2-.2.8-1 1.2-1.9.3-.7 1.3-2 2.2-2.7 2.9-2.5 7.8-6.5 8.6-7 2.2-1.6 1.3-8-1.5-10-.8-.5-.6-2 .5-3.1 1.2-1.3 1.4-1.3 2-.7M69 61c.7.5 1.3 1.1 1.5 1.6.5 1.6 1.9 1.9 6.1 1 8.6-2 10.1-1.7 11 1.5 1 3 1 3-2.7 3.5-2 .3-5 1-6.7 1.6l-3.3 1-1.3-.7c-2.3-1.3-5.7.3-5.7 2.8 0 1 0 1.1-4 3.7l-5.3 4-2.3 2.1-.8-1c-2.8-3.3-2.4-4.8 2.5-8.9 5.5-4.6 6-5.2 5.8-6.5-.9-3.5-.9-3.6.6-5C66 60 67.1 59.9 69 61m136.8.3a10 10 0 0 0 6.4 2.1c1.2 0 3.1.4 4.3.8 2.4.9 3.4.5 3.4-1.2 0-2.2 3.8-3.6 6-2.1 2 1.5 2.4 3.4 1 5.5-1.3 2-1.3 2 1 3.4 1 .6 2.6 2 3.4 3 1.5 1.9 4.9 3.9 6.5 3.9.7 0 1 .3 1.3 1.7l.6 2c.1 0-.8.7-2 1.3-2.3 1-4.4 3-6.2 5.3l-1 1.4-1.4-.8c-1-.5-1.2-.7-.7-.9.4 0 .7-.3.7-.4 0-.4-6.3-4.7-7.4-5.1-.5-.2-.6-1.3-.6-5.4 0-6 .2-6-4.3-2.2l-3.7 3-2.3-.8-4.7-1.5c-2.9-1-3.1-1-2.9 0 .3 1 .3 1-1.5 0-1-.4-1.3-.8-1.2-1.2 1-2.6 1.2-8 .4-10.7-.2-.7 0-1 1.3-1.4 2-.9 2-.9 3.6.3m-65.6 2c-.8 1-1.8 1.5-3 1.8-2 .6-2.1.8-1.7 3.5.7 4.3 3.8 9 8 12.2 2.3 1.8 2.4 1.7 5.3-1.2 6-6.4 8.6-13.6 5-14.3-1-.2-2.1-.9-3.1-1.9-1.6-1.5-1.7-1.6-3.3-1.3l-2 .3c-3-.7-4.1-.5-5.2.9m3.8-.3a8 8 0 0 0 3 0c1.4-.3 1.6-.2 3.2 1.3 1 .9 2.3 1.7 3 1.8 3 .6-1.1 10-6.3 14-1.5 1.3-1.5 1.3-5-2.1-5-5-7.3-11.3-4.4-11.9.7-.1 2-1 3-1.8.8-1 1.7-1.6 1.8-1.6l1.7.3m53.3 2.3c0 .9.4 2.2.8 3l.7 1.5 1-1.5 1-1.4-.3 1.8c-.5 3.2-2.6 7.8-3.4 7.4-.1-.1-.4-1.5-.6-3.1-.3-3.7-.7-4.2-2.4-4.6-1.4-.2-1.5-.3-1.2-1.4l.2-2c0-.4.6-1.1 1.3-1.5 1.8-1.1 2.9-.4 3 1.8M89 70.3c.2 1.3.6 1.1-5.6 2.1a42.1 42.1 0 0 0-22.2 11l-2.9 2.5-.7-1-.7-1.2 2.2-2c1.2-1 3.9-3 6-4.3 3-2 3.6-2.6 3.6-3.5 0-2.4 2.5-3.7 4.7-2.5l1.4.9 2.3-.9c5.5-2.1 11.7-2.7 12-1M193.6 72l.6 3.6.5 3.1-1.6 1.6c-.9.9-1.8 2.2-2.1 2.9-2.5 6.2-8.2 5.6-8.1-1V79l1.8-1.3c1-.7 2.2-2 3-3 1-1.4 2.3-2.3 4.5-3 1-.3 1.2-.3 1.4.3M90.2 74.5c.7 3.2.6 3.8-.4 3.8-.6 0-3.2.5-5.8 1.2-3.7.9-5 1-5.7.8-2.4-1.3-5.4 0-6 2.4-.2 1.1-.7 1.7-3.5 3.6a46.2 46.2 0 0 0-4.7 3.5c-1.6 1.6-1.7 1.6-3.5-.8-1.9-2.5-2-2.2 1-4.8a41.2 41.2 0 0 1 23-11.1c5.3-1 5-1 5.6 1.4m24-1c3 1.8 5.3 7 5.3 11.5 0 11.6-12 14.6-16.4 4.1l-.4-1-4.2.2c-4.9.2-4.7.3-5.2-3.3l-.3-2.3h2l4.6-.3 2.7-.3.2-1.4c1.1-6.4 7-10 11.7-7.2M217 77.7c-2.8 5.5-3 5.6-3.4 2l-.2-2.2 2.7-2.2c3.4-2.8 3.4-2.7.9 2.4m2.6 2.8c-.2.7-4.2 2.7-4.2 2.2 0-.3 1-2.3 2.1-4.6l2.1-4 .1 3v3.4M202 75.7c2 1 2.2 1.2 3.2 3.9 1.4 3.6 1.6 3-1.7 7.1-3.5 4.3-3.5 4.2 2.4 4l4.8-.1 1.8 2.5 3 4c1.4 2 1.3 2.1 2.6-2.5 1.4-5.4 1.3-5.3 4.8-6.3l3-.9 2 1c1.6.9 2 1.3 1.8 1.8l-.8 5.3c-.6 5.3-.8 5.7-2.8 7.5-2.8 2.4-5.1 2.6-10.7.6a14.7 14.7 0 0 0-7.4-1.2l-3.2.1-1.2-2c-1.2-2.1-2.9-3.6-7-6.3-6.5-4.1-6.9-9.9-1-15 1.2-1 2.6-2.4 3.2-3.2 1-1.6.7-1.6 3.2-.3m8 1c2.9.9 3 1 3.3 4 .4 2.5.6 2.6-3.6-1.7-2-2-3.3-3.6-3-3.5l3.3 1.1m-76.7-.2c-1 .5-1.2.7-1.2 2.4 0 3.4-3.4 4.6-5 1.8-.5-1.1-.7-1.2-2.2-1-2.2.4-2.4.7-1.8 2.8.3 1 .4 3.1.4 4.7l-.2 3 2.6-.2c5-.2 11.5-2.6 15-5.4l1.2-1-3.4-3.8c-3.6-4.1-3.6-4-5.4-3.3m20.8 1.4l-3.4 3.8-1.8 2 1.2.8a29.9 29.9 0 0 0 15 5.5l2.6.2-.1-3c-.1-1.7 0-3.9.3-4.8.5-2 .4-2.3-1.9-2.7-1.3-.2-1.7-.1-1.7.3 0 1.8-3 2.8-4.6 1.5-1-.8-1-1-.8-2.6.2-1.7.2-1.8-1.2-2.4-2-.8-2-.8-3.6 1.4m55.2 1.8c3.6 3.3 4 4 2.3 3.7L209 83c-1.5-.3-1.4-.2-3.8-6.2-.4-1 .6-.3 4 2.9m-73-1.2a96 96 0 0 0 2.8 3.1l1.8 1.9-1.8 1.2a26.3 26.3 0 0 1-12.8 4.5h-1.9v-2.7l-.2-4.2c-.4-2 .7-2.3 2.4-.7 2.9 2.7 6.6 1.3 6.6-2.2 0-2.6 1.4-3 3.1-1m21-1c.5.2.7.8.7 2 0 3.4 3.8 4.8 6.5 2.3 1.8-1.7 3.3-1.3 2.7.6-.3.7-.4 2.5-.3 4l.1 2.9h-2c-3.7 0-8.2-1.6-12.5-4.3l-2.1-1.4 2.6-2.8c1.4-1.6 2.6-3 2.6-3.2 0-.4.9-.4 1.8-.1m-66 2.4c.5 1.3.2 1.7-1.3 2a43.2 43.2 0 0 0-22.6 10c-3 2.4-3.1 2.5-3.8 1.3-.8-1.2 3.8-5.4 8-7.4 1.2-.5 1.5-1 1.5-1.8 0-2.6 3-4 5.1-2.5.9.6 1.2.5 4-.4 5.4-1.8 8.7-2.2 9-1.2m17 .5c-2.2 2.3-1.3 7.9 1.4 9 2.4 1 4.6-.4 5-3.3.7-5.2-3.2-8.8-6.3-5.7m4.1.7c2.7 2.6 1.5 8-1.5 7.7-2.4-.3-3.8-4.4-2.4-7.1 1-2 2.4-2.1 4-.6M223 83.2c3.6 2.2 3.6 2.2-2 1.5-5.3-.7-5.6-1-3.3-2.3 2-1.2 2.2-1.2 5.3.8m17.1 2.2c-.1 1.8-.5 3.4-1.2 4.8a7 7 0 0 0-1 2c.9 0 3.5-1.3 3.5-1.7 0-.3.6-.5 1.7-.5 2.5 0 2.6-1 .2-2.7-.8-.5-.7-.6.6-1.4 1.5-.9 3-.7 3.7.3.2.3.6.4 1 .3 1-.4 1.9 2 1 3-.3.3-.6.8-.6 1 0 .2-.5 1-1.2 1.6-.8.7-1 1.2-.8 1.5.7.7.5 1.7-.5 2.3-.8.6-.7 1.5.3 2.7l2-.8c3.7-1.6 5.3 2.9 2.6 7.5-3.6 6.2-12.1 14.6-14.7 14.6-.8 0-.8-1.8-.1-4 .5-1.6.6-2 .1-2-.3 0-.5.2-.5.5 0 2.7-2.7 1.9-3-1-.3-1.3-.4-1.5-1-1.3-1.5.6-2 .6-3 0l-1-.7 1.4-1.2c2-1.8 3.2-4.1 2.8-5.7a20 20 0 0 1-.3-3.1c0-1.7-.2-2-1-2-2.7 0-1-9.7 2.5-13.5 4.1-4.6 6.8-4.7 6.5-.5m-148-.8l.8 3c0 .4-.2.7-1.2.9l-4.5 1.2c-3 1-3.2 1-4.6.3-2.5-1-5.3.3-5.8 2.8-.2 1-.8 1.7-3.3 3.4l-4 2.7c-.8.6-.9.5-2.5-1.5-2-2.6-2-2.7 1.1-5.3 5.8-4.8 10.4-7 18.3-8.9 5.5-1.2 5.2-1.3 5.8 1.4m86.8 0c.9 2.6 4.8 5.9 6.6 5.4 2-.5 5.5.6 6.8 2.1.6.8 2.7 2.5 4.6 3.7 3.7 2.5 5.2 4 6.4 6.5.7 1.4 1 1.5 2 1.3 2.3-.7 6.1-.3 9.8 1 5.1 1.8 9.2 1.5 11.7-.8.5-.5 1-.7 1-.5 0 .2.1 0 .3-.3.3-.4.6-.7.8-.7.3 0 .3.2.2.4-.2.3-.1.4.2.2.4-.3.4-.5-.1-.9-1-.6-.5-1.8.7-1.7.6.1.8.5 1 1.4 0 .6.2 1.6.5 2.3.7 1.7-1 4.8-2 3.4-.1-.3 0-.4.3-.1.5.3.5.2 0-.3-.2-.4-.7-.6-1-.5-.5.2-.5.4.3 1.2l1 1-1.4 1.1c-2.1 1.8-1 3.7 2.2 3.7 1.2 0 2.5 2.3 1.8 3.3-.1.2 0 .2.3 0 .4-.2.5 0 .3.5-.3.6-.2.7.2.3.9-1 1.4-.6 1.7 1.2.1 1 .5 1.9.7 2 1.5.5 8.5-4.5 11.3-8.1l2-2.5 3.3.2c9 .5 14.6 7 12.4 14.4l-.5 1.6-3.6.5-6.4.9c-2.3.3-3 .3-3.7-.2-1.7-1-.8-4.5 1.2-4.5.4 0 .7-.3.7-.6 0-.4-.2-.6-.4-.6-1.3 0-2.1-3.1-1.2-4.8 1.2-2.3 5.3-1.7 6.3.8.8 1.9 1.5 2 1.2.3-.4-1.7-1.9-3-3.8-3.4-3.4-.6-6.3 3-4.8 6 .6 1.2.6 1.5 0 1.9-.8.7-1.4 3.3-.8 4.5.7 1.7 2 2 6.7 1.3 9.2-1.4 13.7 0 12.3 3.8-.9 2.6-3.5 3-6.5 1-2.2-1.4-3.9-1.5-8-.8-7.2 1.3-11.3-4.3-8.4-11.5.2-.5-.4-.4-2.5.7-4.9 2.5-10 2.6-10 .3 0-.3-.4-.5-.7-.5-1 0-5-3-5-3.7 0-.4.3-.7.6-.7s.6.2.6.6c0 .3.2.6.5.6.2 0 1 .4 1.6 1 1 1 1.1 1 .8.3a4 4 0 0 0-1.4-1.3c-.6-.3-1-.7-.9-.9.5-.7-1.5-.8-2-.1-.6.7-.7.6-2.7-.7-10.5-7-27.5-14.7-40-17.8-4.3-1.1-4.3-1.1-4.3-2.4 0-.6-.2-1.5-.5-2-1.7-2.4-3.6-7.8-3-8.5.4-.3.8-1.1 1-1.7.6-1.5 1.2-1.4 1.7.4m32.1-.9c2.2.4 2 .6-2.5 2.7-5.5 2.6-5.7 2.5-3-.8 1.7-2.3 2.2-2.4 5.5-1.9m9.9 1.6c6.1.8 6.2.9 1.4 2l-3.2.9-1.7-1.4c-2.8-2.3-2.7-2.4 3.5-1.5M59.4 89c.9 1.3.5 1.4-4 1.6-6.2.1-6 0-5.8 3 0 2 0 2.8-.5 3-1 .7-2 .5-2-.4 0-1.8-.4-2-4.2-1.9l-3.6.2.1 1.5.2 1.5h-6l-.3-5c-.2-2.8-.2-5.3 0-5.6 0-.4 2.5-.6 10.9-1l11.3-.6c.6-.1 2.7 1.8 3.9 3.7m153.7-3.7l-1 2.1-1.2 2-3.1.2c-4.8.5-4.7.3.5-2.5 3.5-1.9 4.8-2.4 4.8-1.8m3.8 1.4c1.6 1.4 1.7 1.8.8 5.4-.9 3.3-1.2 3.2-1.8-.3l-.8-4.6c-.4-2 0-2.1 1.8-.5m-2.6-.7l.8 4.5c1 5.2 1 5.2-1.4 2.3-2-2.7-2.1-3.2-1-5.4.8-1.3 1.6-2 1.6-1.4m-70.8 3.9c2 1 2.2 1 4.3-.1l1.6-.9 5.2 2c2.8 1.2 5.8 2.3 6.7 2.6 2.4.7 2.8 1.3.6 1-7.8-1-24.9-1-32.3 0-2.3.3-2.2-.4.2-1l6.5-2.4c5.4-2.3 5.2-2.3 7.2-1.2m-50 .8c0 1-.1 1-3.6 1.9-7 1.7-13 4.6-17.3 8.4l-1.5 1.3-.8-.9-.8-1 1.5-1.3c.8-.7 2.7-2 4-2.8 2.3-1.4 2.6-1.8 2.7-2.8.2-2.6 2.6-3.8 4.8-2.5l1.3.8 3.6-1.2c4.3-1.4 5.9-1.4 6 0m.7 3.7c.2 1.1-.3 1.6-1.9 1.6-2.7 0-11.3 3.8-15.6 6.9-3.2 2.3-3.3 2.3-4.4.4-.9-1.5 9.8-7.7 16-9.3 5.3-1.4 5.4-1.4 5.9.4m-26.2 5.9c0 .3-1 1.6-2.2 2.8-2.5 2.6-2.5 2.6-1.4 5 4.4 9.7-6.8 15.6-15 7.9-9.2-8.8-3.6-20.6 7.5-15.5l2.3 1 2.7-2.8 2.7-2.8 1.7 2c1 1 1.7 2 1.7 2.4m92.2-3.7c109.2 10.4 166.1 136.8 102 226.4-66.5 93-211.5 73.3-251-34A143.6 143.6 0 0 1 160 96.5M51.3 106c-2.7 2.7.9 8.3 5.3 8.3 4.3 0 4-6.3-.4-8.4-2.3-1.1-3.7-1-5 .1m88.3-.5c-2.7 0-4.7.2-4.3.3 1 .1 1.1.9 1.1 9.9 0 7.7 0 8.6-.7 9-.5.2 1 .3 5 .3 3.1 0 5.7 0 5.8-.2l.5-2c.2-1.3.1-1.4-.2-.7-.8 1.3-1.7 1.8-3.8 1.8-3 0-3.4-.5-3.4-5V115l2.5.1c2.2.1 2.5.3 3 1.2l.5 1V116c0-.7.1-1.7.3-2.2.2-.8.1-.9-.6-.5-.5.3-2 .5-3.2.5h-2.4l-.2-3.3c-.2-4.2 0-4.5 3-4.2 2 .3 2.4.5 2.9 1.4.6 1 .6 1 .6-.8 0-1.6-.1-2-.7-1.9l-5.7.4m15.1 0c.7.2.9.7.9 1.8 0 2.5-1.9 15.6-2.4 16.5-.5 1-.2 1 3 1.5 1.8.2 2 .2 1.3-.3-.8-.6-.7-6.2 0-7.5 1-1.4 2.9 0 4.8 3.5 2.6 4.7 3.6 5.5 6.4 5.9 1.3.1 3.1.6 4.1 1 8.4 4 13.3-2.2 8-10.2-2.7-3.9-3-4.4-2.3-5.6 1.3-3 6.3-1.6 6.3 1.7 0 1.5.7.6 1-1.4l.3-1.6-2-.7c-6.7-2.3-11 2.9-7.2 8.4l2.1 3c1.7 2.4 1.8 4 .2 5.6-2.3 2.3-5.7.8-6.3-2.9l-.3-1.7-.6 2c-.8 3.6-2.8 2.6-6.6-3.5-2.5-4.1-2.6-4.4-1.2-5.2 2.3-1.2 3.3-5 2-7.5-.7-1.4-2.2-2-6.3-2.5l-4.6-.5c-1.2-.2-1.3-.2-.6.1m-25.5.5l-2.4.3c-1.2 0-1.3.1-.7.6.7.4.7.9-.7 7.6l-1.4 7.3c0 1-1.3-.8-4.3-6-4-6.6-4-6.8-3-7.4.6-.4.4-.4-.7-.2l-4 .8c-1.4.2-2.1.5-1.5.5 1.3 0 2.3 1 4 3.7.6 1.2 2.5 4.2 4.1 6.8 1.7 2.5 3.3 5.1 3.7 5.9.7 1.4 1.5 1.6 1.8.6l2.3-9.1c2.6-10.7 2.7-10.8 3.7-11.4 1-.5.5-.5-.9 0m96-.2c-.5.1-.8.4-.8.5 0 .6 1.3.9 2 .4.5-.3.4-.3-.4-.1-.9.2-1 .2-.4-.4l.4-.6-.9.2m-169 1c3.5 2.5 4 6.8.6 6.8-3.6 0-6.8-4.7-4.7-6.8 1-1 2.4-1 4 0m106.3 1c3.4 2.1 1.8 8.6-2.1 8.6-2.4 0-2.5-.4-2-4.8.6-5.1 1.1-5.6 4-3.8m-60 4.3l-2.4.9.9.8c.5.5 1.6 3.3 3.3 8.5 2.7 8.6 2.7 8.6 1.7 9.3-.7.4-.7.4 0 .2a676 676 0 0 1 6.3-2.1h-.7c-1.3.4-1.7-.4-4.3-8.2-2.8-8.3-3-9.3-1.9-10 1.2-.6-.3-.4-2.9.6m92.1 2.8c.1.5-.4 2.4-1.2 4.3-.8 1.8-1.6 4-1.9 5-1.2 4-3.3 7.8-4.1 7.8-.5 0 .6.6 2.5 1.3 3.2 1.3 4.7 1.7 2.8.6-1.2-.6-1-1.6 2.2-10 3-7.6 3.2-8 4.3-7.8 1.5.4.1-.4-2.2-1.3l-2.5-.8.1.9m-105.5 2.1a65 65 0 0 0-2.7 1.5h1c1-.2 4.1 3.5 4.1 4.9l1.8 3.3c2.6 4.6 3.4 4.5-8.5.4a121 121 0 0 0-9.7-3c-.2 0 1.5 4 3.8 8.6l4.2 8.6-.9 1c-.8.8-.6.8 2-.5 3.1-1.6 3.5-1.8 2-1.6-1 .2-1.8-.8-5.7-8-2.2-4.2-2.2-4.2 1.3-2.9 4.6 1.8 16.6 5.5 16.8 5.3.1-.1-1.6-4-3.8-8.6-4.6-9.4-4.3-8.7-3.4-9.7.8-1 .8-1-2.3.7m143 .6c-.2.2-.6.3-1 .2-.5 0-.7 0-.6.2.4.5 1.2.4 1.8-.2l.3-.6-.5.4m-23.7 2c1.2 1 .8 2-2.5 7.4-4.7 7.4-6 9.3-6.7 9.4-1.2.3 8.5 6.3 11 6.8a10 10 0 0 0 11.2-5.8c2.2-4.9.6-9.2-4.7-12.8-5.8-3.9-10.2-6.5-8.3-5m-158.3 4l3.7 1c2.2.3 2.2.2-2 3.8a209 209 0 0 0-20.5 21.2s.6-1.7 1.6-3.7 1.9-4.5 2-5.4c.3-1.5.5-1.7 1.2-1.7 1.9 0 3-2.4 2-4.5-.2-.5.1-.6 2.1-.6 5.2 0 7.7-2.7 7.7-8.2l.1-2.7 2.1.7m194 1.5c-.7 5.2 4 9.9 8.8 8.7.9-.2 1-.1.7 1.4-.2 2 .4 3.2 2 3.6 1.1.3 1.3.5 1.6 2 .2 1 1 3.2 1.7 4.8 1.8 3.7 1.6 4-.6 1a192.4 192.4 0 0 0-17.6-17.9c-4.6-3.8-4.5-3.7-1.8-4.2l3.5-1c1.9-.9 2-.8 1.7 1.6m-29.3-.4c9.3 6.4 2 21.2-8 16-4.3-2.1-4.2-2.4 1.2-11.1 4-6.5 4.2-6.7 6.8-4.9m-149.5 6.2l-2 1.7h1c2.2-.4 10.3 11 9.9 13.8-.8 4.8-6.2 5.8-10 1.8-4.9-5.3-7.6-9.8-6.6-11 .6-.7-.2 0-3 2.2-2.7 2.1-3 2.4-2 1.9 1.4-.7 1.5-.7 5.7 4.7 6 7.7 8.5 8.7 13.5 5.4 5.8-3.8 5.4-7.4-1.8-16.7-2.2-2.9-2.9-4-2.7-4.6.3-1 .3-1-2 .8m70.4.4c-54.7 6.8-94.3 47.7-97.8 101.2a108.6 108.6 0 0 0 195 71.8 108.4 108.4 0 0 0-85.2-173.2c-5-.1-10.5 0-12 .2m6 2.1a8 8 0 0 1 2.2 1.6l1 1.1.1 48.9c.1 52.4.2 50.2-2 52l-1.2 1H42.2l-1.3-1.3c-2-2-2-5.3-.4-14.8 8.2-47.5 46-83 94.2-88.6 4.5-.5 5.1-.5 6.5.1m19.1.5a106.7 106.7 0 0 1 91.4 97.3v4.1l-1.5 1.4-1.5 1.4h-49c-55 0-50.8.2-52.4-2.8-.7-1.4-1-97-.2-99 1.2-3.3 3.7-3.7 13.2-2.4m-124 .2c1.7 1.6.7 4.3-1.5 3.7-.6-.2-.8.1-1.2 2.3a30.2 30.2 0 0 1-6.6 12.6c-4.4 4-11.5 5-11.5 1.8 0-1.5.7-1.7 4.4-1.4 5.2.4 6.7-1.5 9-12 1.7-7.4 2-7.8 4.5-7.8 1.4 0 2.2.2 2.8.8m223.8-.3c.3.3.8 2 1.2 4.3 2 11.5 4.7 15.4 10.4 15 4.2-.4 5.9 1 3.3 2.8-5.2 3.4-15.2-5.7-17.1-15.4-.5-2.5-.6-2.6-1.7-2.7-1 0-2.2-1-2.2-2 0-2 4.4-3.4 6-2m-33 9.5c-8.7 4.7-10 5.2-11 4.3-.2-.3-.4-.4-.4-.3l2.1 2c2 1.8 2.1 1.8 2.1.8 0-.8.5-1.2 2.5-2.3l2.5-1.4 2.4 2c1.3 1 2.4 2 2.4 2.3 0 .8-1.7 5.1-2.3 5.8-.4.5-.2.8 1.2 2 2.4 2 3.4 2.7 2.8 2-1-1.1-.5-3.7 2.3-12.3 2.8-8.5 3.1-9.8 2.5-9.7-.2 0-4.3 2.1-9 4.8m5.3-.5c0 .8-2.2 6-2.6 6-.6 0-3.6-3-3.3-3.4 1-1 5.9-3.2 6-2.6m-122.2 14.2v9.7H101l-9 .2V177l9 .1 9.1.2.1 27.3.1 27.3h10.4V177h18.4v-10.4h-18.4V147h-10.4v9.7m9.2.9v9.8H138v8.8h-18.4V231h-8.4v-54.8l-8.9-.1-8.9-.1-.1-4.3-.1-4.3h18v-19.6h8.4v9.8m128-7.3c.7 1.4.4 1.6-7.6 8-5.6 4.5-6.2 4.9-7.1 4.2a3540 3540 0 0 0 4 5.7c5 6.9 11.8 8 17 3 4.5-4.6 3.9-9.2-2.3-16.5a194 194 0 0 1-3.6-4.4l-.8-1.1.5 1.1m-57.3 3.6c-4.1 1.3-7.1 7.3-5.6 11.3.4 1 .5.9-4.6 12.7l-1.5 3.5h-10.4c-5.6 0-10.3 0-10.3.2l1.5 2.2c.8 1 1.3 2 1.3 2.1-.1 0-1 .4-2.1.6-10.8 3-9.1 20.2 2 21.5l2.1.3v9.6l-3 7c-2.1 4.8-3 7-2.6 7.4.2.2.6 0 1.2-1l2.6-4.2 1.8-2.7v7.4h59.6v-3l.2-3.1 2 3.4c2.8 4.8 3.7 5 1.9.2-4-10.2-4-10.2-4-15.8v-5.2l2.1-.3c12.9-1.3 13-20.8.1-21.8-3.2-.2-3 0-1-2.6l1.6-2-8.7-.2c-8.5 0-8.6 0-9-1-5-12.8-5.3-13.5-5.3-17.5-.1-7.1-5.4-11-11.9-9m6.8 1.3a8.2 8.2 0 0 1 3.1 11.6c-3.4 5-10.3 5-13.8-.2-4.4-6.5 3.6-15 10.7-11.4m54.1.9a9.3 9.3 0 0 1-.6 13.4c-4.4 3.8-8.6 3.6-12-.6-2.5-3.3-2.6-3.2 5.7-10 5.1-4.3 5.4-4.4 7-2.8m-60 .1c-4.5 1.3-6 7.4-2.6 10.8 2.6 2.7 6.3 3 8.9.6 5.6-5 1-13.3-6.2-11.4m5 1.4c3.6 1.9 3.5 8-.1 10-1.9 1-5 .7-6.3-.5-5.6-4.7 0-12.8 6.4-9.5m-160.9 2.1c0 .2 2 3.4 4.3 7.1 6.2 9.8 6.7 10.8 6.2 12-.7 1.4-.2 1.2.9-.5a166.4 166.4 0 0 1 1.8-3c-.8.6-1.4.1-3.1-2.4-1.7-2.4-1.5-3.2 1.9-7.2.3-.4 6 1 6.5 1.6.4.4 3.9-3.6 3.9-4.5 0-.2-.2 0-.6.4-.8 1.1-2.5.9-12.2-1.6-9-2.4-9.6-2.5-9.6-1.9m8.1 4.5l2.8.8-.7 1c-2.3 3.6-2.3 3.6-4.5.3-1.8-2.7-2-3.5-1-3.2l3.4 1m158.5 4.9a22579.6 22579.6 0 0 1 21 55.3c-.3-.1-5.1-8.5-10.8-18.5a2111.3 2111.3 0 0 0-15.4-27l-2.7-4.7 1-1.4c.5-.8 1.7-1.8 2.8-2.4a7 7 0 0 0 2.3-2c.7-1.2 1.2-1 1.8.7m-15.2-.3c1 1.4 3.7 2.7 6 2.7l1.8.1a1722.6 1722.6 0 0 1-23 36.7l-8.7 13.9c-3 4.5-2.4 2.9 3.5-10.5a1085.3 1085.3 0 0 0 10.4-24 3620 3620 0 0 0 8-18.5c.7-1.6 1.2-1.7 2-.4m-159.1 3c-2.8 5-3.2 5.8-2.4 5.1.9-.7 1-.7 3.8.9 10 5.4 12.9 7.4 12.6 8.5-.3 1 .4 1 .7 0 .1-.4.8-1.8 1.6-3 1.6-2.7 1.8-3.2.6-2-1 1-1 1-5.4-1.4l-5.3-3c-4.5-2.5-5.9-3.6-5.9-4.6 0-.9 0-1-.3-.5m167.9 7l1.4 2.7H190l.5-1c1.1-2.2 3.3-5 3.5-4.8l1.8 3m-127.4 1.5c-9.5 3.5-12 18.7-4.2 26a36 36 0 0 0 15.7 7.5c.4.1.3.5-.5 1.4-1.2 1.4-1.3 2.6-.4 4.7 2.3 5.1 2.3 4.6-.3 6.7-2 1.6-3 3.1-3 4.5 0 .8.1.9 9 .9h9l-.2-1.5c-.2-1.2-.8-2-2.9-4-2.9-2.6-3.4-4.1-1.8-5.5.9-.8 1-2.3.4-3.5-.4-.6-.3-1 .2-1.5.9-1 .8-3.5-.3-5.3l-.8-1.6.8-1c.4-.7 1.6-1.7 2.5-2.5 5.7-4.2 6-4.4 7.2-6.9 1-2 1.2-3 1.2-4.8v-2.3H69l.2 2.6c.4 4.8 2 7 8.1 11.3 3.8 2.6-1.4 1.3-6.3-1.6-11.7-7-3.3-23.5 8.6-17a9.3 9.3 0 0 0 9.7.1c1-.6 2.4-1 3-1 .6 0 1.3-.3 1.6-.6.4-.6.3-.6-1.1-.6-1.5 0-1.8-.3-3-1.8-2.4-2.9-3.2-3-12-3.2-6.4-.1-8 0-9.5.5m12.9.5c6.2-.2 11.3 3.8 7.2 5.7-3 1.4-5.2 1.3-8.3-.4-6.2-3.3-13-1.1-14.8 4.7C63 199 66.4 204 77 207.4c3.7 1.3 5 2.7 4 5-.3 1.1-9.2-2-13.5-4.7-12.6-8-7.4-28.5 7-27.2 1.8.2 4.9.3 6.8.2m96.7 1.8l-.6 2-.7 1.8h-14.2l-1.3-1.7a9 9 0 0 1-1.2-2c0-.2 4-.3 9-.3s9 0 9 .2m20.8 1.3c1.3 2.5 1.4 2.5-5.4 2.5-3.4 0-6.2-.1-6.2-.3l1-2 1-1.7h8.8l.8 1.5m24.4-1.3l-1.3 2-1.3 1.7h-10.9l-.6-1.7-.7-2c0-.1 3.3-.2 7.4-.2 4 0 7.4 0 7.4.2m-138.8 1c0 .2.3.4.6.4s.6-.2.6-.4c0-.3-.3-.4-.6-.4s-.6.1-.6.4m-63.7 2.7c-5.9 9.6-2.2 18.5 7.7 18.5 5 0 9-3.9 10.7-10.2.7-2.8.7-2.9-1-4-1.9-1.3-2.4-1.3-1.3 0 3 4-2 11-8 11a14 14 0 0 1-8.4-4.1c-2.9-4 .1-11.5 4.6-11.6h1.6l-2-1c-2.6-1.2-2.3-1.3-4 1.4m238.6-1c-6.3 3.4-7.6 9.5-3.5 17.2l1.3 2.3 2-.2c2.4-.3 3.2-.9 1.2-1-3.3 0-5.8-5-4.6-9.4 1-3.3 6.3-7 10.1-7 5.5 0 9.5 7.9 6 11.7-1.2 1.3-1.2 1.3 1.3.3 2.3-.9 2.4-1.1 1-5.7-2.3-7.7-9-11.3-14.8-8.2m-83.2 2.4c0 .4-4.5 10.5-4.8 10.8-.2.2-.4-.2-.6-.8-1.3-5.3-9.7-6.3-10.7-1.3-.3 1.5.5 3.7 1.7 4.3 1.1.6 1.1-.3 0-1.3-2-1.8-.2-5.4 2.6-5.4 6.9 0 7.8 9.4 1.2 12.4-10.8 5-18.3-12.5-7.8-18 1.3-.8 18.4-1.3 18.4-.7m25.9 1.8l3.2 5.5 2.1 4c0 .4-3.4.6-14.2.6-7.8 0-14.2-.2-14.2-.3 0-.3 1-1.9 5-8l2.3-3.7h14.7l1 1.9m26.1-1.3c10.5 5 4.3 21.6-6.9 18.5-5.7-1.6-7.1-9.6-2.2-12.2 4-2 8.3 2 5.4 4.9-1 1-1.3 1.8-.7 1.8 2.3 0 3.1-4.7 1.2-6.6-3-3-9.9-.5-9.9 3.8 0 .3 0 .4-.2.3-.2-.2-4.2-10.7-4.2-11 0-.6 16.2-.1 17.5.5m-129 6.5c-.1 3.3-1.7 5.8-5.3 8.3-4.1 3-6 4.8-6.2 6.5-.4 2.2-.8 2.7-2.9 3.4-2.5.9-2.5 1-2.5-1.4 0-3.1-.8-4.3-5-7.4-3.8-2.8-4.6-3.6-5.6-5.5-.7-1.2-1.4-5.4-1.1-6 0-.1 6.6-.2 14.4-.2l14.3.2v2.1m110 7.2l2.5 4.4 1.7 3V220c-.2 10-.3 10.9-.9 11-.6.1-.7-.6-.7-10.5v-10.7l-1-1a3 3 0 0 0-4.4 0l-1 1v10.6c0 10.4 0 10.7-.8 10.7s-.8-.3-.8-10.7v-10.6l-1-1a3 3 0 0 0-4-.3c-.7.6-.8 1.2-1 11.5-.2 10-.3 10.9-.9 11-.6.1-.7-.6-.7-10.3v-10.4l-1-1.2c-.8-1-1.4-1.2-2.4-1.2s-1.6.3-2.4 1.2l-1 1.2v10.4c0 8.8 0 10.4-.6 10.4-.5 0-.6-1.7-.7-10.6 0-10.6 0-10.6-1-11.6-1.3-1.3-3-1.4-4.3 0l-1 1v10.5c0 10.4 0 10.7-.8 10.7s-.8-.3-.8-10.7v-10.6l-1-1c-.6-.6-1.4-1-2.2-1-.8 0-1.6.4-2.2 1l-1 1v10.6c0 10.4 0 10.7-.8 10.7s-.8-.4-.9-10.5V210l1.5-2.6a816 816 0 0 1 3.1-5l1.5-2.2h30l1 1.5m12.2 9.6c0 4-.2 4-2.2-1-1.8-4.8-1.8-4.7.4-3.5l1.8 1v3.5m-54-3.4l-2 4.3-1.1 2.6V208l1.6-.8c2.3-1.2 2.4-1.2 1.5.8m90.6-.7l.5 2.4c.2 1.6.3 1.7 1.2 1.5 1.5-.4 6 .6 6.3 1.4l1 5.5c0 .2-5.5 3.4-6 3.4-.3 0-.3.5-.2 1.7.5 2.7 1 4.5 1 3.6 0-1.8.6-2.2 12.7-9.7 3-1.8 5.3-3.4 5.3-3.6 0-.3-7.3-2-15.2-3.5-4-.8-6-1.5-6-2.3 0-.3-.2-.7-.5-.9-.3-.2-.3 0-.1.5m-244.9 3a85 85 0 0 1-.7 3.2l-.3 1 .8-1 .8-1 7.2 1.7c10.2 2.4 10.2 2.4 10.4 3.4.2.6.4.3.7-1.3l.8-3.4.3-1.2-.7.9-.8.9-5.8-1.4-8.3-1.9a8 8 0 0 1-3.3-1.2c-.6-.7-.7-.6-1.1 1.4m165.5-1c.8.8.8 1.3.7 11.2v10.3h-2.4l-2.3.2v-10.4c0-10 0-10.5.8-11.2 1-1 2.2-1 3.2 0m7.5-.2c.9.6 1 .7 1 11.2V231h-4.5v-10.4c0-12.1.5-13.6 3.5-11.4m8.2 0c.6.6.7 1.5.7 11.2v10.6l-2.3-.1-2.3-.1v-10.3c0-9.5 0-10.3.8-11.1.9-1 2-1 3-.2m8 .2c.8.7.8 1.2.7 11V231h-2.2l-2 .2v-10.6c0-10.5 0-10.6.8-11.2 1.2-.8 1.7-.8 2.7.2m8 .2c.8 1 .8 1.5.7 11.1v10H206l-.1-10.2c-.1-9.9 0-10.4.7-11.1 1.1-1.1 2.2-1 3.2.2m-120.8 4c0 1.6-2 3-5 3.8-1 .2-2.6.7-3.3 1.2l-1.3.7-.2-1.4c-.4-2 .4-2.7 4.3-4 2.2-.7 3.3-1.3 3.8-2 .8-1.3 1.7-.4 1.7 1.7m127.2 1l2 3.5v6.3l-.2 6.4h-2l-2.2.2v-10c0-5.5 0-10 .2-10l2.2 3.5m-45.2 6.9v9.6h-4.4v-13.2l2-3c1-1.7 2-3 2.1-3 .2 0 .3 4.3.3 9.6m100.5-8.4c2.9.5 2.9.6-.5 2.5-3.4 2-3.3 2-3.8-.6s-.4-2.9 1-2.6l3.3.7m-183.1 5.1c.5 1.5-.4 2.4-2.9 2.9-1.3.2-2.7.7-3.2 1-1.2.7-1.7.4-1.7-1s.6-1.8 4-2.9c3-.9 3.5-.9 3.8 0m77.2 12.3c0 .3-.5.6-1 .6-1.3 0-1.2-8.3.1-10.2l1-1.2v10.8m54.5-8.9c.7 1.1.8 2 .8 5.4v4h-2v-5.3c0-6 0-6 1.2-4.1m-210 3.4c0 1.7-.1 4.3-.3 5.7-.2 2.5-.2 2.5.5 1.8.6-.6 1.1-.7 3.2-.5l8.1.7c6 .4 7.3.7 7.4 1.9 0 .3.2-.3.3-1.5.4-2.5.4-5.9.1-4.6-.3 1.4-2.5 1.7-7.6 1.1l-2-.3v-1.7c0-2.4.5-3.7 1.6-3.7 1.3 0 .6-.4-1.4-.8-1.8-.3-1.8-.3-1.5.5.2.5.2 2 0 3.3l-.2 2.3h-3.2c-4-.3-3.8-.2-3.8-2.5.1-2.8.5-3.8 1.6-4l1-.3-1-.3c-2.7-.7-2.8-.5-2.8 2.9m76.8-1.7c0 1.3 2.6 4.5 3.7 4.5.3 0 1.9 2.5 2 3 0 .3-15.9.4-16.2 0-.5-.4 1-2.3 2.8-3.7 1-.8 2-2 2.4-2.8 1.3-2.6 5.3-3.4 5.3-1m191.8 2.3c.6.5.8 1.2 1 3.6v3l-1.5.2c-2 .3-15.4.3-16 0-.2-.2-.5-.7-.6-1.1-.1-.5-.2 1-.2 3.4 0 2.3.1 3.7.2 3 .3-1.9.8-2 9.7-2.2l8.4-.2v2.8c0 3-.2 3.4-1.4 4-.7.5-.5.5 1 .5h1.9v-8.5c-.1-9.4 0-9-2.5-9-.7 0-.7 0 0 .5M29.2 240.3c-.1 1.7-.9 1.9-10 2.2l-8.4.3-.7-1c-.5-.6-.6-.7-.4-.2l.2 3.6c0 2 .2 2.6.4 2 .5-1.2.8-1.3 10-1.6 8-.2 8.3-.2 8.9.6.5.7.5.4.4-2.3-.1-3.5-.4-5.2-.4-3.6M143 242l1.5 1.5.1 48.9c.1 46 0 49-.6 50.2-1.1 2.3-3 3-6.7 2.7-40.5-3-76-29.5-91-67.8-4.7-12.1-8.2-31.6-6.2-34.6 1.8-2.9-2.4-2.7 52.3-2.5h49l1.6 1.6m107.6 0l1.4 1.6-.2 4.4a107 107 0 0 1-49.8 81.6c-18.2 11.5-49 19.4-54.2 14l-.9-1-.1-49.2c-.1-54.4-.3-50.7 2.4-52.4 1.3-.7 2.3-.7 50.6-.6h49.4l1.4 1.6m17.8 3.9c-9.5 1.7-11.3 15.6-2.7 20 4 2.1 10 1.2 12.4-1.8 6.5-8.5.4-20-9.7-18.2m-201 .3c-.2.2.4 1.8 1.2 3.4.8 1.7 1.4 3.1 1.3 3.2a62 62 0 0 1-5.8 2.7c-.2 0-1.5-1.3-2.9-2.8a17.6 17.6 0 0 0-3-2.8c-.8 0 0 1.1 2.3 3.6l2.6 2.6-2.3 2.4-2.3 2.5-3-2.2a20.5 20.5 0 0 0-3.6-2.1c-1 0-.2.9 2.8 3 2.2 1.5 3.2 2.4 3 2.8l-.8 2.7-.6 2.2-3.8-2.2c-2.1-1.2-4-2.1-4.3-2.1-1 0 .3 1 3.9 3l4 2.4.4 2.6c1.3 6.7 6.5 11.6 15.5 14.4 4.9 1.5 6.2 3 4.6 5.4-.5.7-1.8 11-2 15.7-.1 2.7 1.8 4.2 5 4 3.1-.3 4.3-1.3 4.3-4 0-2.6-1.5-15-1.9-15.6-.1-.3-.3-1.8-.3-3.4 0-2.6-.1-3-1-4-1.7-1.7-1.6-2.5.2-2.5a7 7 0 0 0 5.8-3c1-1.6 9.3-6.7 10-6 .5.5-.6 3.6-1.5 3.7-.8.1-.9.3-.9 2v2h14.3l.3 7.3v7.5c-.5.5-3-1.8-5.1-4.9-4.8-7-10.5-9.1-14.8-5.6-.8.7-1.9 1.4-2.3 1.4-.4 0-.8.1-1 .3-.2.4.7.9 1.8.9.4 0 1.4.5 2.3 1.2 1.5 1.2 1.6 1.2 4.4 1 3.4-.4 3.6-.3 6 4.3 1.6 2.8 4 5.5 5 5.5.2 0 0 .4-.4.9-3.4 3.7-3.3 9.3.3 11.8l1.3 1-1.1 1c-2.1 2.3-1.5 7.2 1 9 .8.5.9.7.4 1.8-.7 1.6 0 3 1.8 3.6 1.4.5 1.7 1 2 3 .3 2.3 2.7 1.7 3-.7 0-1 .4-1.6 1.5-2.5 1.7-1.3 2.2-2.6 1.7-4-.3-.9-.3-1.2.3-2 2.5-2.5 2.8-6.4.7-8.5l-1-1.2 1.7-1.7c2.7-2.6 3-6.9.8-9.6l-1-1.2 1.8-1.9c1-1 2.5-3.1 3.4-4.7 2.4-4 2.7-4.3 5.6-4 2.3.3 2.6.3 4.4-.9 1.1-.6 2.5-1.2 3.2-1.3 1.7-.2 1.4-.7-1.9-2.4-6.1-3.3-12.2-.8-16.4 6.6-.9 1.6-2 3.2-2.6 3.6l-1 .7.3-6.7c.2-9.6-.7-8.5 7.1-8.5h6.6v-2c0-1.6-.1-2-.8-2.2-.5-.1-.8-.5-.8-1.1 0-.5-.2-1.9-.5-3-.7-2.5-.5-3.2.7-3.5.6-.2 1.2-.7 1.5-1.3.2-.5.6-1 1-1 .7 0 1.7-1.4 1.7-2.5v-1H126c-5.1 0-5.5-.1-7.7-1.1a19.1 19.1 0 0 0-13.5 0c-4.2 2.2-5.3 1.3-1.6-1.3 3-2.1 3.7-2.8 2.7-2.8a29 29 0 0 0-4.3 2.6l-3.8 2.6h-3.1c-3.5 0-4 .5-2.6 2.7.6.8.5.9-2.7 3-4 2.7-5 3-4 .9l.5-2.2c0-.5 2.7-3.8 7-8.4 6.6-7 7.6-8.2 6.7-8.2-.2 0-3.5 3.3-7.3 7.4-4 4.3-7.2 7.4-7.7 7.5-.7.1-.8 0-.4-.4.3-.3.5-1.5.5-2.8 0-4.3.8-5.3 3-4 2.2 1.4 2.5.6.6-1.3l-1.6-1.7 1.8-4c1.1-2.3 1.8-4 1.6-4.5-.3-.7-1.4 1.3-3.3 6-.7 1.7-1 2-1.6 1.7a17 17 0 0 0-9.4-1.7l-4.8.1L70 250c-1.4-3.1-2.2-4.3-2.6-3.8m123.6.8c-2.7 1.2-3.7 3.7-2.9 7.2l.4 1.3-3 1.3c-4.4 2.1-9.4 3.1-16.6 3.4l-6 .2-.3-1.1c-.8-3.2-5.5-3.6-6.8-.5-1 2.4.8 5.5 3.2 5.5 1.2 0 1.3-.3-.3 3.4-7.6 17.3-7.7 17.8-6.5 20.2 3.5 6.7 15.5 5.3 16.9-2 .2-1-.1-2-1.2-4.4a313 313 0 0 1-7-16.9c0-.2 4.9-.3 13-.3H187l.3 2.5c.4 4.7 1 15.3 1 17.3 0 2.1 0 2.1-1.4 2.4-2.3.4-7.9-.5-10.2-1.6-2.4-1.3-3-1.3-3.6-.1l-3.9 6-6.7 10.3c-3 4.5-3.4 5.4-3.2 6.3.2.6.3 2.2.4 3.5v2.5l2 .4c3.4.8 12.6 2.5 13.3 2.5.3 0 1.3.7 2.1 1.6 1.8 1.9 4.3 2.2 6.2.7 1-.9 1-.9 4.2-.1 3.5.8 3.6.9 3.6 5.8 0 5.8 3.4 4 3.6-1.7 0-2.7-.2-2.7 4.7-1.5 3 .8 3.4.8 3.8.3.5-1 14.7-21.3 15.4-22 .6-.7.6-.9-.3-2.4-.6-1-.8-2-.7-3l.1-1.5-3.3-.3c-4.1-.4-7.2-1.2-10-2.8a8.2 8.2 0 0 0-4.7-1.3h-2.4v-2l.8-12 .7-9.8H212c10.4 0 13.2 0 13 .5l-6 14c-3.3 8-2.6 11 3.3 13 5.8 2 13.5-3 11.7-7.5l-2.3-5.4c-6.6-15.5-6.2-14.5-4.3-14.8 2.2-.3 3.3-1.6 3.3-3.7 0-4.4-5.6-5.2-7.2-1.1-.8 2.2-16.2.7-22.5-2.2-3-1.4-3.7-2-3.1-3.2 2.1-4-2.7-8.8-7-6.9m4.5 1c2 1.4 2.6 3.8 1.5 6-.8 1.4-.4 1.8 3.1 3.7 6.3 3.3 24 5 24.4 2.3.2-1.6 2-2.8 3.4-2.3 1.5.5 2.4 2.2 1.9 3.6-.7 2-1.2 2.1-17 2.1h-14.6l-.7 9.6a18993 18993 0 0 1-2.7 37.5c-.9 13.8-1 15.6-1.6 16-1 .6-.8 2.4-3-29.6a2584.8 2584.8 0 0 1-2-32.5l-.2-1h-14.7c-12.8 0-14.8 0-15.6-.6-2.8-2-1.1-6 2.1-5.2 1 .3 2.4 2.4 2 3-.3.5 5.7 1 8.7.6 9-.9 15.8-3 19.4-6 .1 0-.1-.5-.5-1-2.5-3.7 2.4-8.7 6.1-6.1m79 1.8c10.3 2.7 4.8 15.5-6 13.5-5.6-1-8-4-6.9-8.3 1.3-4.8 6.4-6.9 12.8-5.2m-192.3 4c4.4 1.3 4.7 2 1 1.7-11-.8-18.2 4.2-18.6 12.9-.4 7 2.4 10.4 11.7 14 4.2 1.6 4.6 2.1 4.6 5.6v3h-1.4c-1.4 0-1.4 0-1.4-1.6 0-3-.5-3.4-6.6-5.3-15.7-4.9-18.8-20-5.8-28.2a22 22 0 0 1 16.5-2.2m-71 0c-.6 0-1 .2-1 .4.3.4 2.6 13 2.8 14.9.1 1.6.5 2 2.2 2h1.4l-1-1c-1.4-1.2-2.6-6.1-1.5-6.4l8.6-1.5 8-1.3.7 1c.5.5.7.7.6.3-.1-.4-.5-2.2-.7-4-.4-2.6-.6-3-.8-2.1-.3 1.5-1 1.7-10.2 3.4-7.9 1.4-7.4 1.5-7.8-1.4-.4-2.7-.2-3.6 1-4.2 1-.4 0-.5-2.3-.2m72.5 2.9c1.4.3.7 2.5-1.1 3.4-.6.3-1.4.9-1.7 1.2-.8 1-1.2.8-1.2-.7 0-.8-.2-1.4-.4-1.4s-.4.6-.4 1.4c0 1.4-.5 1.8-1 .8 0-.3-.9-.9-1.8-1.3-1.5-.6-2.4-1.9-1.8-2.4.8-1 7.2-1.5 9.4-1M73.1 259c.2.5.4 1.6.4 2.7 0 1 .2 2.2.4 2.6 1 1.7-1.2.7-3.1-1.5l-2-2.3 1.4-1.1c1.8-1.3 2.3-1.4 2.9-.4m3.3 2.5c1.3 1 2.6 4.2 2 4.8-1 1-3.7-1.7-4-4-.2-2 .3-2.2 2-.8m7.5.4c0 2-2 4.8-3.6 4.8-1.2 0 .1-4 1.7-5.3 1.3-1 2-1 2 .5m33.2-.1c1.7.7 1.9 1 1.5 1.6-.6 1.2-.5 4 .2 4 .4 0 .6-.5.7-1.8l.1-2h5.3c4.2-.1 5.3 0 5.2.3-.1.4-1.4.6-4.4.7-3.5 0-4.3.2-4.3.7 0 .4.7.6 3.2.6 4.3 0 4.2.8-.1 1.3-3.4.4-4.2 1-1.3 1 1 0 1.8.2 1.8.4 0 .8-1.5 1.3-3.8 1.3-1.3 0-2.2.1-2.2.4 0 .3 1.1.4 3 .3 3.6 0 3.7 0 3.8 3.4v1.9h-14.2c-7.8 0-14.2-.2-14.3-.3a9 9 0 0 1 .2-2.6l.4-2.3h3.1c1.9 0 3.2-.2 3.2-.4 0-.3-1.1-.4-2.5-.4-2 0-2.7-.2-3.3-.8-.7-.8-.7-.8 1.1-.8 2.3 0 2.6-.8.4-1-3.2 0-3.8-.2-4.4-.8-.6-.6-.4-.6 2.6-.6 2.7 0 3.3-.2 3.3-.6 0-.5-.7-.6-4-.6-3 0-4-.2-4.4-.7-.5-.5.1-.6 5-.5l5.6.2.1 1.9c.1 1 .3 1.9.6 1.9s.3-1 .2-2.6l-.2-2.6 2.3-.8c3-1.1 7.8-1 10.5.3m-47 1.9a11 11 0 0 1 2.3 3.3c.1.6.5 1.5.8 2.2 1 1.8-1 1.4-4.6-1.2-3.5-2.4-3.5-2.4-1.7-5.4.9-1.5.9-1.5 3.3 1m6.2 3.5c1.2 1 2.4 3.3 2 4-1 1.5-5-1.9-5-4.2 0-1 1.7-.8 3 .2m8.2 0c0 1.8-2.4 4.4-4.2 4.4-.8 0-.8-1 .2-2.8 1.2-2.4 4-3.5 4-1.6m10 .2c.5.5 1.2 1 1.6 1 .8 0 1.3 1.4.7 1.9a59 59 0 0 1-10.5 5.3c-1.2 0-1.2-.3-.4-1.9l.6-1.8c0-.6 6.3-5.4 7.1-5.5l1 1M68.5 269c1.7 1.2 3 2.3 3 2.6l.8 2 .8 1.6c0 1.1-6.7-1.7-7.7-3.2-.3-.5-.4-5 0-5l3.1 2m91.3 7v8h-7.1l2.2-5.5 3.3-7.8c1.5-4 1.7-3.3 1.6 5.4m4.8.2c1.6 3.8 3 7 3 7.3 0 .2-1.3.4-3.4.5h-3.5v-8c0-6.2.1-8 .5-7.4l3.4 7.6m60.4-.2v7.9h-3.6c-2 .1-3.5 0-3.4-.2 1.8-4.6 6.6-15.6 6.8-15.6.2 0 .3 3.5.2 7.9m2.6-4.6c2.9 6.5 5.1 12 5.1 12.3 0 .2-1.5.4-3.4.4H226v-8l.1-8c.1 0 .8 1.4 1.6 3.3m29.9-1.1l-.7 2c-.1.7-.8 2.7-1.6 4.6-1.6 4.3-1.6 4.2 0 5.2 1.7 1 2.2 1 1.2-.2-1.5-1.6 0-6.6 2-6.6a44 44 0 0 1 16 6.3c0 .3.5-.8 1.1-2.5l1-3.4c-.1 0-.3.1-.4.5-.5 1.2-3.5.5-13.2-3.1-4.5-1.7-5.1-2-4.9-3.1.3-1.1 0-.9-.5.3M76.1 272c1.8 1.2 2.9 4.2 1.6 4.2-2 0-5.4-3.3-4.8-4.7.2-.6 1.9-.4 3.2.5m9.6-.7c.4.7-.9 2.7-2.2 3.6-1.6 1.2-3.4 1.3-3.3.3.4-2.3 4.6-5.3 5.5-3.9m-52.4 1.7L18 278.9c-1.6.6-1.8.6-2.5 0-1-1-1-.8.1 1.8.8 1.6 1 2 1.3 1.5.5-.8 2-1.5 7.8-4 5.4-2.3 5.4-2.3 4.6-.6a2138.7 2138.7 0 0 1-6.9 15.6c-1.3 3-1.2 3 2.6 1.5 14.6-5.7 14.6-5.7 15.5-4.5.3.3 0-.6-.5-2.2-1.3-3.3-1.6-3.8-1.4-2.2.2 1.3-2.2 2.6-9.4 5.5-3.2 1.3-3.2 1.3-1.5-2.5 3-6.4 6.7-15.4 6.5-15.7 0-.2-.5-.2-.9 0m35.8 2.7c1.1.6 2 1.3 2 1.5 0 .3.6 1 1.3 1.8 1.2 1.2 1.2 1.2.3 1-1.5-.5-4.2-2.5-5.2-3.8-1.4-2-1.1-2 1.6-.5m7.8 1.8c2 1.5 1.8 2.3-.4 2.3-2 0-5-2.3-4.4-3.3.5-.7 3.3-.1 4.8 1m9.2-.9c.6 1-2.4 3.2-4.4 3.2-2 0-2.3-.6-1-1.9 1.8-1.5 4.8-2.3 5.4-1.3M128 278v1.2l-16.3-.1-16.3-.1-.1-1.1-.1-1.1h32.8v1.2m-13.8 10.3c-.3 9.6-.1 8.8-2.4 7.7l-1.8-.8v-2.5l-.3-7.6-.2-5.1h4.9l-.2 8.3m-35.4-6.5c0 .7-.4.7-2 0l-1.4-.6H77c1.3 0 1.7.1 1.7.6m17.7 2.5c2.5 1 4.5 3 6.6 6.2 2 3 4.4 5 7.3 6 3.5 1.4 7.7 4 8.4 5.2 2.6 4.1-1 10.7-4.8 9-1.5-.6-1.5-1 0-1.5 5.7-2.4 3-7.5-5.3-10.2-4.3-1.4-5.5-2.4-7.5-6.3-2.5-4.7-4.4-5.9-7.4-4.7-2 .7-5.2-1.4-4.3-2.8 1-1.7 4.1-2.1 7-.9m36.4.1c3 1.7.7 3.8-3.8 3.4l-2.7-.3-1.4 1.6c-.8.8-2 2.5-2.7 3.8-2.2 4.3-4.8 6.3-6.5 5.2-1.3-.9-1.3-1.4.5-2.8.8-.7 2.2-2.5 3-4 3.3-6 9.5-9.1 13.6-6.9m35.1 1.6c0 5-9.9 7.3-13.7 3.3-3.5-3.9-3.1-4.1 6-4.1 7.6 0 7.7 0 7.7.8m9.5.2c2.4.8 4 1 7.1 1.2h4l.3 2.4.3 5v2.7l-3.9 6.4-4.5 7.3-.7 1-1-.9c-2-2-3.4-2.3-9-2.3-5.9 0-10.8-1.5-9.8-2.8l4.6-6.8a79000.7 79000.7 0 0 1 9.4-14.2l3.2 1m55.9-.7c.4.8-1.5 3.7-3.1 4.6-5 2.9-12.7.2-12.7-4.3 0-.7 15.3-1 15.8-.3m17.3 3.4c-1.2 2.6-1.3 3-.5 2.1l.9-1.1 2.3 1c12.5 5.2 14.7 6.4 14.4 7.8l1.2-2.3c1.5-3.2 1.7-3.7 1-3-1 1-.7 1.1-12.7-4.4a18 18 0 0 1-4.8-2.7c-.2-.5-.7.3-1.8 2.6m-47 1.3c3.2 1.7 6.3 2.6 9.6 2.8 3.7.3 3.6 0 .8 4a1626 1626 0 0 0-7.4 10.4l-5.1 7.3-1.8.2c-3 .5-4.2 0-4.2-1.5a719 719 0 0 1 1.5-22.5l.2-1.7h2.2a8 8 0 0 1 4.3 1m-122 3.3c.6 4.2 1.4 13.5 1.2 14.3-.4 1.7-3.3 2.6-5.6 1.8-1.8-.7-2-1.8-1.2-9 1-9.4.7-8.6 3.2-8.6h2.1l.2 1.5m135.8 4.1c.5 1 .4 1.2-1.2 3.4l-7.7 10.9c-6.1 8.8-6.6 9.2-6.6 5.8 0-1.8-.3-1.2 8.6-14 4.9-7 6-8.4 6.1-7.7l.8 1.6m-181 .7c-7.6 2.7-9.2 10.8-3.5 17.2 6.2 6.9 17.8 2.5 17.8-6.7 0-7.7-7.3-13-14.3-10.5m212 .6c-3.3.9-6.1 3.3-8.3 7.2-1.7 3.1-1.7 3.4 0 5 1.6 1.6 1.9 1.6 1-.2-1.9-3.7 2.9-9.1 8-9.1 5.6 0 11.2 5.5 10 9.9-1 3.6-4.7 6.9-7.2 6.4l-1.4-.2 1.6 1.2c2.1 1.6 2.3 1.6 4.4-1 3-3.6 4.3-6.7 4.3-9.5 0-6.4-6.4-11.4-12.5-9.7m-58.4 6.6c.5 7.1.7 6.7-2 5.8a6.7 6.7 0 0 0-4-.3c-2.4.5-2.4.6-.2-3l3.7-6c1-1.6 1.8-2.8 2-2.8l.5 6.3m-81.4-5.6c1.2.5 1.3 1.7.2 2.7-3.4 3-1.6 6.2 5.5 9.4 3 1.3 3.8 2.5 3.8 5 0 3.2-1.8 5.4-3.7 4.6-1.5-.7-1.5-.8 0-2.1 2.5-2.2 1.6-3.7-4.2-6.5-5.4-2.7-7.7-5.2-6.8-7.9l.4-1.6c.3-1.3 2.4-4 3.2-4l1.6.4m-62.3 1.4c4.5 4 2.4 10.8-4.4 14.2-4.3 2.2-7.6 1.2-9.5-3-3.3-7 8.3-16.3 14-11.2m65.8 0l1.4.6v3.2c0 3.5-.8 4.6-2.6 4-.6-.3-1-8.3-.4-8.3l1.6.5m3.3 2.9c.7 1.4.6 2-.3 2.8-.8.7-.8.7-.8-1.6 0-2.4.4-2.9 1.1-1.2m-5.9 1.6c0 2.3 0 2.3-.8 1.6-1-.9-1-1.4-.3-2.8.7-1.7 1.1-1.2 1.1 1.2m60.3 4.2c5.5 0 7 .3 8.5 2.2 1.5 1.8 1.9 1.9 3.1 1 1.7-1.3 4.8-1.5 7-.5l2 .8v2.2c0 1.3-.3 2.3-.5 2.3a44 44 0 0 1-3.2-.7c-2.9-.6-3-.5-3.9.3-1.5 1.4-3.6 1.2-5-.6-1.4-1.4-1.9-1.6-13-3.5-4.3-.6-4-.5-4-3v-2l2 .7c1.6.6 3 .8 7 .8m65.3 3.4c-1.2 1.2-1.8 2-1.3 1.8 1-.5 1.2-.3 2.7 2.6 1.3 2.8 1.3 2.9-1.1 5.3l-2.1 2-2.8-1.2c-1.5-.7-3-1.5-3-1.7-.3-.3-1.3.5-2.7 1.9-1.3 1.3-1.8 2-1.2 1.7 1.3-.8 1.7-.8 9.3 2.4a63.5 63.5 0 0 0 11.7 4.4 79 79 0 0 0-5.3-12.6c-2.6-5.8-3-7.5-2.1-8.4.3-.2.4-.4.3-.4l-2.4 2.2m-125.4.6c.2.2-.1.8-.7 1.6-2.1 2.4-1.5 3.5 3.2 6 4 2 4.8 3.5 2.8 5-1.3.8-1.6.7-1.4-.6.4-1.6-.2-2.1-3.3-3-3-.9-4.6-2.2-5.3-4.3-1-3.5 2.4-7 4.7-4.7m2.6 1.2c1.1.6 1.1 3.6 0 4.6-1.1 1-1.6.3-1.6-2.5 0-2.6.2-2.9 1.6-2.1m88.5 3l.1 2.4-2.8-.6-2.8-.7-.1-1.7-.1-1.6h5.5l.2 2.3m-91-.4c0 1.3 0 1.4-.5.7a2 2 0 0 1-.3-1.5c.3-1.3 1-.8.9.8M61 319c.7 1.3.2 2.1-5.8 7.8-6.4 6-6.6 6.2-7.6 4.9-2.6-3.7 3.4-10.2 6.6-7 .4.4.4.3.2-.2-1.2-3-7.7-2.5-9.6.9-1.3 2.5-.7 3.9 3.7 8.3 2 2.1 3.5 3.4 3.1 2.8-.8-1.3-.9-1.2 7.5-9.1 4.2-4 4.9-4.5 5.8-4.3 1 .3.7-.1-1.5-2.3-2.8-2.9-3-3-2.4-1.8m178.8 6c.7 1.5 1.3 2.8 1.1 3-.2.1-5.6-2-6.3-2.5a13 13 0 0 1 3.6-3.6l1.6 3m-129.8.3c.4 1.7.1 2-1.3 1.5-1.3-.4-1.7-2-.7-2.8 1-.7 1.8-.2 2 1.3m2.5 2.5c.1 3 0 3.3-.6 3.2-.6-.1-.7-.7-.8-3.5-.1-3 0-3.3.6-3.2.6.1.7.7.8 3.5m-31.4 8.8l1 .8-1.8 3.3c-4.8 9.4-7 13-8.2 12.6-1-.3-.1.8 1 1.2.4.1 2.1 1.1 3.7 2.1 7.6 5 14.4 4 17.8-2.7 2.9-5.8.4-10.1-8.9-15.2-5.3-3-6.2-3.4-4.6-2m124.1 2c-6.5 3.7-6.2 3.5-4.7 3.3 1.5-.3 1.5-.2 6.5 8.7 3.3 6 3.6 7 2.7 8a539.6 539.6 0 0 1 6.6-3.4c3.8-2 3.8-2 3-4-.7-1.5-1.3-2-.9-.6.5 1.6-3.4 4.8-5 4.1-1-.3-4.4-6.7-3.9-7.2 1.2-1 4-1.9 4.7-1.4 1 .6 1 .3 0-1.5-.4-.8-.8-1.2-1-1-.6 1.1-4.7 3-5 2.5a67 67 0 0 1-3.2-5.7c0-1.1 4.7-2.5 5.7-1.6 1 .9 1 0 0-1.7l-.7-1.2-4.8 2.7M87.7 341c9.3 6.5 2.6 21.3-7.3 16.3-4.2-2.1-4.2-2.4.4-10.6 4.4-8 4-7.6 6.9-5.7m101.2 5.7c-1.5.6-2.6 1.1-2.3 1.1.7 0 5.1 10.4 7.1 16.7.1.3-.1.8-.4 1.1-1 1-.5.8 5.2-1.3 6.2-2.4 6-2.3 5.4-4.5-.5-1.7-.6-1.7-.7-.5-.2 1.6-.6 2-3.1 3-3.4 1.2-3.4 1.1-7.5-9.7l-2-5.6.9-.8c1.2-1 .7-1-2.6.5m-86.3.4c1.5.8 1.2 1.9-2.5 12.1-2 5.7-2.3 6.2-3.5 6.3-.5 0 .6.5 2.5 1.1l5.5 2c2.8 1.1 2.8 1.1 3.5-.6.8-1.9.8-2-.2-1-1.2 1.3-5.7 0-6.2-1.6-.2-.5 1.8-6.8 2.4-7.5.3-.3 4.1 1.3 4.6 2 .6.8.7.7 1.3-.7.7-1.3.7-1.4 0-1.2-1.6.5-5.1-1.1-5-2.4.1-2.7 1.7-5.8 2.8-5.6 2.5.6 3.9 1.6 4.1 2.8l.2 1.2.7-1.7a9 9 0 0 0 .6-1.8 6068.7 6068.7 0 0 1-10.8-3.4m74.5 3.4c-1.6.5-2.7 1-2.3 1 .9 0 1 0 2.9 6.4 2.6 8.9 3 11 2.3 11.8-.6.6-.5.6.5.4 3-.6 6-1.8 5-1.8-1.6 0-1.9-.8-4.4-9.8l-2.2-7.5 1-.8c1.1-1 1-1-2.8.3m-13.4 2.9c-2 .1-2 .1-1 .6 1 .6 2.3 6.7 1.6 7.6-.3.3-9.5 1.6-10 1.3-.8-.5-1-7.1-.1-7.7.6-.5.4-.6-1.9-.3-3.2.3-3.3.4-2.6 1.5a46 46 0 0 1 1.5 18.2c-.5.4-.3.4 1 .2a2949.2 2949.2 0 0 1 4.8-.9c-1.4 0-1.7-.8-2.3-5.6-.5-4.5-1.2-3.8 4.7-4.6 5.8-.8 5.3-1 5.7 2.2.7 4.6.5 6.7-.5 7.2-.6.2-.2.3 1.3 0 3.3-.3 6-.7 5-.8-1.5 0-1.8-1-2.8-8.3-1.2-8.7-1.2-10-.3-10.5.8-.5.1-.5-4-.1m-31.6 1c-4.8 1.3-7.3 4.7-7.3 9.8 0 6.6 4 10 12.1 10.4l4.1.2.6-1.5c1-2.2.8-3.6-.2-2-1.7 3-6.8 2.8-10-.2-6.4-5.7-2.7-16.9 5.2-16 1.6.3 5.2 1.6 5.2 2l.6 1.7.5 1.5.3-2.3c.3-2.6.2-2.7-2.8-3.3-3.4-.8-6.3-.9-8.3-.3"/>
    <path fill="#e42436" d="M196.1 78.9c-6.7 7-6.3 11 1.6 16 3.5 2.3 4.8 3.5 6 5.7l1 1.7h3.5c2.7 0 4.1.2 6.9 1.1 4.8 1.6 5.3 1.7 7.5 1.2 4.2-.9 5.5-3 6.3-9.3l.8-5.1c.2-.5-.2-1-1.7-1.7l-2-1-3.1.9-3.2.9-1.4 4.7c-1.6 5.6-1.2 5.6-4.8.6l-3-4-4.9.2c-6 .3-5.8.5-2-4.3 1.4-2 2.7-3.6 2.7-3.8-.1-2.1-2.4-5.9-4-6.7-2.4-1.2-2.1-1.4-6.2 2.9M111.4 148c-.2.2-.3 4.6-.3 9.8v9.6h-18v8.4h18l.1 27.5.1 27.5h4.1l4.1.2v-55.2H138v-8.4h-18.4v-19.6h-4c-2 0-4 0-4.1.2m102.2 151.2c-12.3 17.5-12.1 17.2-11.5 19.6.3 1.4.2 1.6 8-9.5 8.1-11.5 7.6-10.5 6.9-12.5l-.6-1.5-2.8 3.9M161 310.6c0 1.9 0 2 1 2.2l8.1 1.5c6.5 1.2 7.2 1.4 7.5 2.2.7 1.9 3.9 2.4 5.4 1 1-.9 1-1 4-.3l3.2.7c.6 0 .1-4-.5-4.5-2-1.8-5.3-1.8-8.2-.2l-1.5.8-1-1.3c-2-2.4-3.5-2.8-9.3-2.8-3.8 0-5.5-.1-6.7-.6-2-.9-2-.9-2 1.3m34.4 5.6c-.9.9 0 2.8 1.3 3.2 3.3 1 4.7 1 4.4.3a8 8 0 0 1-.3-2.2v-1.4h-2.6l-2.8.1"/>
    <path fill="#f9b939" d="M143.5 5.5v2.4h-5.2v2.8h5.2v9.2H142c-2.8 0-6.6 2.3-8 4.8-1.2 2.4-1.7 2.4 11.7 2.4 13.9 0 13.3.1 11-3.3a10.5 10.5 0 0 0-7-4.2l-1.8-.3v-8.6h4.8V7.9H148V3h-4.4v2.4m-17 23.7c-1 2.4-1.8 2.3 19.1 2.4h19.1v-2.9h-19c-16.1 0-19 0-19.2.5m3 5c0 1.2 3 5.7 6.1 9.2 1.7 1.9 3.5 4.2 4 5.2l.8 1.7H151l.4-1c.6-1.7 4-6.2 5-7A25 25 0 0 0 162 34c0-1.6-2.3-.3-2.8 1.6a18.3 18.3 0 0 1-12.6 11.7C142 48.2 133 40.6 132 35c-.3-1.7-2.6-2.5-2.6-.8m4.2.6c1 4.4 5.6 9 10.7 10.7 3.4 1 10.2-3.7 12.6-8.6 1.7-3.7 2.6-3.4-11.3-3.4h-12.3l.3 1.3M123.3 45c-3.8 1.1-5.9 4.8-6 10.7 0 3.2 0 3.5-1 4-.5.2-1.8 1.4-3 2.7l-2 2.3-1.3-.8-1.2-1-1.6 1.8c-1.7 1.7-1.7 1.7-.9 2.4 1.2 1.1 1 1.9-.8 3.7l-1.6 1.5-1.3-1.2-2-1.9c-1-1-.8-1-5 3.5l-3.8 3.8.6 2.4.5 2.3h3.2c3.4.2 5 0 5-.6 0-2.6 3.6-7.7 6.2-8.9 8.1-3.7 16.4 8.5 12.6 18.6-3 7.9-12.6 8.5-17 1.1-1.3-2.2-1.6-2.3-6-1.8l-2 .2v3.3c0 3.1 0 3.2-1 3.5l-5.2 1.6c-4.5 1.3-9.7 4-12.6 6.5-2.3 2-2.6 1.9-5.2-.8l-2.2-2.3-2 2-2 2 .8 1.9c1.4 3.2 1.5 5.3.1 8-1 2-1.1 2.2-.3 1.7 16-10.3 33.2-17.5 51-21a33.4 33.4 0 0 0 9.3-2.9c2.3-.5 10.4-3.4 14-5l2.2-1 1.9 1 1.9 1.2 1.8-1 2-1.1 6 2.4c3.2 1.3 7.3 2.7 9.1 3.2 1.8.5 3.5 1.1 3.8 1.4 1 .8 6.5 1.8 6.9 1.2 1-1.6-.1-4.4-3.3-8-1.2-1.3-1.2-1.4-.5-2.6 1-1.6 0-4.4-1.4-4.4-1 0-1.3-2.3-.4-3.3l1.6-2.4c1-1.9 3.7-4.3 4.5-4.3.3 0 .9-.5 1.4-1.1l3-2.6c3.3-2.7 3.5-3.5 2-6.7-1.2-2.3-1.6-2.8-2.7-3-1.2-.2-1.5-.1-3.7 1.5-1.2.9-1.8-.5-1.8-3.9 0-11.3-15.5-14.7-19.8-4.4l-.6 1.4h-7.8c-7.2 0-7.8-.1-8.1-.8-2.1-5.2-8-7.7-14.3-6m6.8 3.2c3.3 0 4.5 4.1 2 7.3-1.7 2.3-1.7 3-.2 4.4 2.1 1.8 5.6.8 5.6-1.5 0-1.7.7-1.9 8.2-1.8l7.1.2.5 1.3c.8 2.5 3 3.5 5.1 2.4 2.2-1.2 2.4-2.6.7-4.8-2.7-3.3-1.7-6.9 2-7.5 5.5-1 9.2 3.7 6.9 8.9l-.8 1.8 4.4 5 4.4 4.9-1.6 1.4c-.8.7-2.3 2.4-3.2 3.7-1.5 2-1.9 2.2-2.6 2-1.7-.5-3-1.4-3-2 0-1.9-3.5-2.4-4.8-.7-.7 1-.9 1-2 .6-2-.8-2.1-1.2-1.5-3.4.3-1.1.6-2.5.6-3.1 0-.6.2-1.1.4-1.1l2.3-1.6c3.4-2.8 4.2-1.7 1 1.2-1.7 1.5-2 2-2.5 4-.5 2.6-.5 2.6 1.5 1.3 2.2-1.5 5.2-.7 6.1 1.6.5 1.3 2 1.8 2.6.8a26 26 0 0 1 2.4-2.8l1.9-2.1-4-4.6c-4.6-5.1-4.4-4.7-3.3-7.1 2-4.3-.4-8-4.6-7.2-3 .5-3.3 2.3-1.2 5.4 2.2 3.1 1.1 6.4-2.4 7.3-2.4.6-6.2-1.5-6.2-3.5 0-.7-.3-.7-6.4-.7-6 0-6.4 0-6.4.7 0 2-3.7 4.1-6.3 3.5-3.5-.9-4.5-4.2-2.3-7.4 2.5-3.7 1.5-5.7-2.8-5.3-3.2.3-4.6 3.5-3 7 1.2 2.4 1.2 2.3-3.2 7.3l-4 4.6 1.9 2 2.4 2.9c.5 1 2 .5 2.5-.8.9-2.3 4-3 6.2-1.6 1.9 1.3 2 1.2 1.4-1.4-.3-1.8-.7-2.4-2.4-3.9-1.1-1-2-2-2-2.2 0-1.2.8-1 2.5.5 1 1 2 1.8 2.4 1.9.7.2.9.7 1.3 3.6 0 .8.2 2 .3 2.3 0 .6-.3 1-1.4 1.6l-1.4.8-1-1c-1.2-1.7-3.5-1.5-4.3.3-.4 1.1-2.9 2.6-4.2 2.6-.1 0-.9-1-1.7-2.4-1-1.2-2.3-2.8-3-3.4-2-1.5-2-1.5 2.7-6.8l4.2-4.7-.8-1.8c-2-4.6 1.5-10.3 5.5-9.1l1.5.2M105.5 53c-.5.7-4.2 4.6-8.1 8.8l-7.1 7.6.4 2.1.6 2.7c.2.5 2.5-1.8 7-6.7l1.2-1.4 2.1 2c2.2 2.2 2.2 2.2 2.9 1.4.7-.8.7-.9-.2-1.8-1-1.2-1.1-1 2.6-5l2-2 1 1 1 1 1.8-1.9c2-2.2 2.2-1.8-2.2-5.7-4.1-3.7-3.7-3.6-5-2m76.5.5c-1 1-1 2.7-.2 2.7.3 0 .5.2.5.5 0 .2.6 1.7 1.4 3.3l1.4 2.8-.8 1.8c-.9 1.7-3.4 4.2-7.5 7-5 3.6-5.7 5.3-4.3 9 1 2.3 1 3.4.5 5.2-.2.3.4 1.3 1.4 2.4 1.6 1.7 1.6 1.7.8.3-1-1.7-1.1-2.7-.3-3 .8-.3 1.7-2 2-3.9.2-.8.4-1.4.6-1.4.6 0 2.4 2.4 2.6 3.5.4 1.8.6 2.1 1 1.9.7-.5 1-3.9.4-5.4-.5-1.3-.4-1.4.5-2 .5-.3 2.2-2 3.8-3.5 4-4 7.8-5.7 8.9-3.8.2.3.4.5.4.3 0-1.2-.8-1.6-2.8-1.5a6 6 0 0 1-2 0l.8-2c.4-1 .8-2.3.8-3 0-1.9 1.9-3 4.3-2.8 2 .2 2.1 0 .3-.7-1.4-.6-3.6-.5-4 .2-.9 1.4-6.6-2.3-6.6-4.3 0-.2.8-.6 1.7-.8l1.7-.4-1.2-.6c-.7-.4-1.8-.6-2.8-.5l-1.6.2 1-.8c.9-.8.9-.8 0-.8-.4 0-.9-.2-1-.4-.4-.7-.8-.5-1.7.5m-38.2 8.3a7 7 0 0 0 3.5 0c1.7-.5 1.7-.5 3.3 1 .9 1 2.4 2 3.4 2.2l1.7.6V68c-.3 4.3-7.3 14.7-10 14.7-3.2.1-10.6-10.4-10.6-15v-2l2-.7a7 7 0 0 0 3.1-2c1.2-1.6 1.2-1.6 3.6-1m-2.4 2.1c-.4.5-1.6 1.4-2.7 2l-2 .9.2 1.8c.4 3.5 6.5 12 8.7 12 1.6 0 7-7.5 8.1-11 .8-2.7.8-3-.6-3.2-.6-.1-2-1-2.9-1.8-1.5-1.4-1.8-1.5-3-1.2-1.4.3-2.8.2-4.5-.3-.4 0-1 .2-1.3.8m52.8-.1c-.4.2-.7.8-.7 1.3 0 .6-.2 1.5-.4 2-.3 1-.3 1 .4.9 1.5-.5 2.8 1.3 3.3 4.4.2 1.6.6 2.8.8 2.7.6-.4 2.2-4 2.5-5.6l.2-1.5-.6 1c-.8 1.4-.7 1.4-1.9-.3-.6-1-.9-2.2-.9-3.3 0-2-1-2.6-2.7-1.6m4.6 1.8c0 .8 0 1.1.2.6v-1.6c-.1-.3-.2 0-.2 1m-7.7 6.8c-1 .4-2 1-2.3 1.5l-3 3.1-2.3 2.3-.1 3c-.2 5.6 5.5 6.5 7 1.2.2-.5 1.2-2 2.1-3.1 1.8-2.2 1.8-2.3 1.4-4-.2-.9-.4-2.3-.4-3.1 0-1.7 0-1.7-2.4-.9m-82.8.6c-2.5 1-5 4.5-5.4 7.7l-.3 1.7-2.6.3-4.6.3c-2.1 0-2.1 0-1.4 3.1l.5 2 4.2-.2 4.3-.3.5 1.4c2 6.3 10.4 8 13.8 2.9 5.3-8-1.4-22-9-18.9m28.2 3.5a40 40 0 0 0 3.3 3.7c3 3.2 3 3.4-.3 5.5-3.6 2.4-8.3 4-12.5 4.5-4.3.5-4.4.4-3.9-2.5a10 10 0 0 0-.1-4.7c-.6-2.7-.5-3 1-3.6 1.8-.7 2.5-.5 3.2.7 1.5 2.8 4.9 1.7 4.6-1.5-.2-2.8 3.2-4.4 4.7-2.1M158 76c1.7.7 1.7.7 1.4 2.4-.5 3.7 3.9 4.5 5.1.9.2-.6 2.7-.2 3.6.6.6.4.6.7.3 2.3-.3 1-.4 3.2-.2 4.9.2 3.7.3 3.6-4.3 3a30 30 0 0 1-12.3-4.4c-3.2-2.1-3.2-2.3-.8-4.8l3.5-3.8c1.6-2 1.5-2 3.7-1m-23.7 1.2c-.5 0-.7.5-.7 1.9 0 4-4 5.4-7 2.6-1.5-1.6-2.4-1.4-2 .5.2.6.3 2.4.3 4V89l2-.3c3.8-.4 9.5-2.5 12.4-4.6l1.2-.8-2-2.1-2.7-3c-.5-.6-1-1-1.5-1m19.4 3l-2.9 3 2.3 1.5c2.8 1.8 8 3.7 11 4l2.2.3.2-4c.2-4.5 0-5-1.7-3.3-3 3-8 1-7-3 .6-2.4-1-1.9-4.1 1.5m-40.6-.7c2 1.8 2.7 5.3 1.3 8-1.6 3.3-4.7 3.3-6.6 0-3-5 1.2-11.4 5.3-8m-3.3 1c-2.7 1.8-.9 9 2 7.8 2.8-1 2-8.1-1-8.1-.3 0-.8.1-1 .3m127.5 2.9c-3.9 2.2-6.2 6.1-6.9 11.5-.4 3.8-.4 4 1.2 4 1.1 0 1.2.1 1.1 2 0 1 .1 2.4.3 3.1.4 1.9-.4 3.8-2.3 5.7-2 2-1.7 2.9.9 2.2 1.8-.5 2-.4 2 1.1 0 2.8 1.3 3.5 2.3 1.3 1.3-2.6 1.7-1.3 1 3.2-.3 2.3 0 2.3 3 .2 5.7-4 11.1-10.7 12.3-15.3 1-4.2 0-5.7-3.2-4.2-2 1-2.3.8-3-.8-.3-1-.2-1.3.4-1.7.9-.4 1-1.5.4-2.2-.3-.3 0-.8 1-1.8.8-.7 1.4-1.6 1.4-2 0-.4.2-.7.4-.8 1.4-.5 0-2.3-1.5-1.9-1.8.5-3 .2-1.9-.6 1.3-1-.3-1.2-1.8-.3-1.1.7-1.2.8-.4 1 2.3.6 2 3.6-.4 3.4-1 0-1.8 0-2 .4-.2.3-3.2 1.7-3.8 1.7l.9-2.5c2.3-5.7 1.7-8.5-1.4-6.7M178 84c0 .3-.4 1.1-1 1.7l-1 1.2 1 1.8c2 3.6 3 6.3 3 7.3 0 .6.2 1.2.5 1.2l7.3 2.3c12 3.6 25.6 9.7 34.4 15.3 3.7 2.3 4 2.5 4.7 2 .6-.6.9-.6 2.5 0 2 .8 3.7.3 3.2-1l-.5-1.2c-.1-.5-.6-.7-1.5-.7-3 0-4.2-2.5-2.1-4.2 1.7-1.5.8-2.6-2.1-2.6-1 0-2-.2-2.2-.4-.1-.3-1.5-.4-3-.4a13 13 0 0 1-5.9-1.3 14 14 0 0 0-7.2-1.3h-4.1l-1.2-2a13 13 0 0 0-5.5-5.3c-1-.6-2.8-2-4-3.2-2.2-2.2-6-3.5-7.6-2.6-1.3.7-6.9-4-6.9-5.8 0-.5-.2-1-.4-1.1-.2-.2-.4 0-.4.3M48.1 86c-4.2.4-9.2.6-11 .6h-3.6V90c0 1.8.1 4.2.3 5.2l.2 1.9h5.1v-3.2h7.6s.4.5.6 1.3c.8 3.2 2.3 2 2.1-1.6v-3.1l4.8-.3c2.7-.1 5-.3 5.1-.4.2-.2-3-4.4-3.3-4.3l-7.9.6M188 88.7c-.5.3-.4.3.3.3.5 0 1-.1 1-.3 0-.5-.5-.5-1.3 0m-47.6 1.2l-4 1.6-4.2 1.6-1.6.8 3.2-.3c4-.4 19.8-.4 24 0l3.2.3-2-.9-5.7-2.2-3.8-1.5-1.5.9c-2 1-2.5 1-4.6-.1-1.6-1-1.6-1-3-.2m-87 1.9c-2.5 0-2.7.1-2.4 1l.2 2.9v2l2.2.3c1.1 0 2.9.6 3.8 1l1.8 1 2.3-2.5 2.2-2.5-1.2-1.8-1.2-1.7h-2.5l-5.1.3M177 94c0 .7.2 1.4.4 1.6.8.4.8 0 .2-1.5l-.6-1.3V94m-136.4 3c0 1.5 0 1.6-1.4 1.6-2 0-3.1 4.3-2.2 8.7.6 2.9.3 3.4-1.9 3.8a11 11 0 0 0-9.2 11.2c.4 4.2.4 4.3 2.9 4.3 1.1 0 4 .2 6.2.6 2.2.3 4.4.5 4.8.3 1.8-.5 1.3-3.9-.6-4.4-1-.3-1.4-1.7-.4-1.7 1.6 0 1.7-3.9.1-5-1.7-1.3-4.3-.3-5.3 2-.4 1-.7 1.3-1.2 1.1-1.4-.5.1-3.4 2.5-4.6 4.1-2 8 1.4 6.5 5.9-.4 1.2-.4 1.5.2 2.1a3.8 3.8 0 0 1-.1 5.2c-1.4 1.4-2 1.5-6.9.7-7.7-1.4-11.6-.4-11.6 3 0 2.8 3.4 3.5 6.3 1.3 2.1-1.7 2.7-1.8 8.8-1.2 6.7.7 9.7-3 7.7-9.9-.6-2.4-.4-2.5 1.6-1.2 4.5 2.8 8.3 3.3 11 1.3l1.8-1.4-2 .2c-11.6 1-20.2-17-10.6-22.3.8-.4.7-.4-.3-.4s-1.5-.7-1.5-2c0-.8-.3-.8-2.6-.8h-2.6V97m97.4-1a165 165 0 0 0-37.1 7A143.4 143.4 0 0 0 3.4 222c-.7 5-.7 29 0 34.2A150.2 150.2 0 0 0 32 325.9a143 143 0 0 0 253.8-57.4c2.6-12.8 2.8-15.2 2.8-29 0-55.9-30.1-104.3-80.3-129.1a148.1 148.1 0 0 0-70-14.3m-76.4 3l-2.6 2.8-2.6-1.2c-10.4-5.1-15.9 5.8-7.3 14.5 8.4 8.6 19.5 2.2 14.2-8.2-.8-1.4-.7-1.5 0-2.2a36 36 0 0 0 2.5-2.7c1.8-2 1.8-2-.6-4.8l-1-1.1-2.6 2.8m167.6 1.9c-.1.1 0 .5.3.8.4.4.5.8.3 1.3-.5.9-.3 3.2.2 3.7 1 1 1.2-.1 1-4.1 0-1.9-.9-2.6-1.8-1.7m-2.7 3.6c-.5.6-.5.6.2.5.4 0 .8-.4 1-.6.1-.8-.6-.7-1.2.1m-170.4 1c5.2 3 5 9.5-.2 9-3.5-.2-6-2.8-6-6.2 0-3.3 3-4.6 6.2-2.8m90 .5c0 1.6-.4 3-.8 3-.2 0-.4-.3-.4-.8 0-1-1.4-1.5-3.6-1.5h-1.6v6.8h2.2c1.3 0 2.6-.2 3-.5.8-.3.8-.2.8 1.8 0 2.4-.6 3.3-1.2 1.7-.3-1-.6-1-2.6-1H140v3.3c0 3.9.5 4.8 2.5 4.8 2.4 0 3.4-.5 3.9-1.8.6-1.9 1.3-.6.9 1.7l-.3 1.8h-6.2c-5.7.2-8.2-.2-5.8-.8l1-.3v-8.5c0-9 0-9.2-1.7-9.7-2.4-.6-.8-1 4.4-1l6.6-.3c1 0 1.1 0 1.1 1.3m12.3-.8c8.8 1.1 11.3 4.9 6.7 9.9l-1.8 1.9.6 1.3c1.3 2.5 4.6 7.1 5.4 7.5 1.2.7 1.4.6 2.1-1.5.9-2.4 1.5-2.6 1.5-.5 0 3.3 3.7 5.2 5.8 3.1 1.5-1.5 1.3-3-.7-5.9-2.6-3.7-3-4.9-3-7 0-4.1 4.7-6.3 9.4-4.2 2.1 1 2.2 1.1 1.4 3.4-.6 2-1.3 2.5-1.3 1 0-2.5-3.5-4.4-5.2-3-1.3 1.3-1 3 1 5.9 6.1 8.2 1.1 15.7-7.6 11.4-1.1-.6-3-1.2-4.4-1.4-3.2-.6-4-1.3-6.3-5.5-1.8-3.3-2.1-3.7-3.2-3.9-1.6-.2-1.5-.5-1.8 3.5l-.2 3.4 1.3.2c2.4.6.8 1.1-2.3.9-4.8-.5-6.2-1-4-1.6 1.3-.3 1.3-.6 2.3-9.2 1-8.8 1-8.6-.2-9-1-.4-1.4-1.2-.5-1.2l5 .5m-27.5.4c0 .2-.4.6-.9.9-1 .4-2.3 5.2-5 17-1.2 4.9-1.5 5-4.3.7-9-14-9.1-14.1-10.5-14.3-2.3-.2-1.2-1 2-1.5 4.2-.7 5.5-.7 4.6 0-1 .8-1 1 5.7 12l.7 1.2.5-2.4 1.4-6.7c1.2-5.4 1.2-5.4 0-5.4s-1.3-.8 0-1c5.1-1.1 5.8-1.2 5.8-.5m-79 1.6c-1.6 2.5 2 6.5 5.2 5.7.9-.2 1-.5 1-1.8 0-3.4-4.6-6.3-6.2-3.9m106.8.8c-1.3 6-1.1 7.6.6 8 3 .6 5.1-3.6 3.4-7-1-1.9-3.6-2.6-4-1m-53.3 3.4c-1.2 1-1.2 1.4 1.5 9.7 2.8 8.4 2.8 8.3 4.4 8 2.4-.3 1.1.6-2.6 1.9-4.3 1.5-5.2 1.6-3.8.4l1-.8-1.2-3.8c-1-3.9-3-9.7-4-12-.5-1.2-.7-1.3-1.6-1.1-.7.2-1 0-1-.4s.7-.7 2.1-1a25 25 0 0 0 3.3-1c2-1 3-.8 2 .1m141.8 1.5c-2 2.6-5.1 5.2-8.6 7.3-2.7 1.7-3.5 1.4-3.7-1-.2-2-.2-2-1.7-1-1.2.6-1 1.6.3 2.7.4.3.5.7.4 1.1-.9 2.3 3.3 2 8.3-.5 3.5-1.8 3.6-1.8 3-.2-.7 1.8-.7 6.6 0 8 1.4 2.7 3 3 11.7 2.5 2.3-.1 2.8 0 3.8.8 3.2 2.5 5 2.6 6.5.2 2.4-3.9-2.1-5.4-11.4-3.9-2.3.4-4.6.5-5.1.4-2.3-.6-3.1-4.1-1.5-6.3.5-.7.6-1.2.4-1.6-1.9-3 1.1-7.5 4.6-7 3 .5 6 4 4.2 5-.6.4-.8.3-1-.5-1-4-6.8-3.7-6.5.3 0 1.3.3 1.7 1 2 1.1.5 1.2 1.9.2 1.9-1.7 0-2.9 2.6-1.8 4l.8.9 4.7-.7 6.4-.7c1.6-.1 1.6-.2 2.3-2.5 2-6.6-3.8-13-12-13.3l-3.5-.2-1.8 2.3m-51 1.5c3 1.2 4.7 2.6 2.5 2-.8-.2-3.5 4-3.5 5.7l-2 5.4c-2.4 6-2.3 5.4-.8 6.3 1.8 1.1.9 1.4-1.6.4l-3.9-1.4c-2-.7-2.2-1.3-.5-1.3 1 0 1.2-.3 3.4-5.8 3.7-9.5 4-10.6 3.3-11.4-1.5-1.6-1-1.6 3 0m-105 2c-1 1-1 .7 3.8 10.5 3.3 6.6 4 8.3 3.2 8.2-.6 0-7.9-2.3-13.8-4.3-5.5-1.9-5.9-2-5.4-1.1 4.6 9 5.6 10.4 7.2 10 2.1-.4 1.1.6-2.2 2.2-3.3 1.7-4.1 1.8-3 .5 1-1.1.9-1.7-3.6-10.7a56.8 56.8 0 0 1-3.6-8c.4-.3 1.9.1 11.5 3.4 9.3 3.2 8.8 3.2 7.5.6-3.9-7.9-5.1-9.6-6.3-9-.9.5-1.4 0-.7-.7 2-1.6 6.6-3 5.3-1.7m137 2.6c.7.8 2.8 2 2.6 1.4a6 6 0 0 0-2.8-2c-.2 0-.1.3.1.6m-15.1 3.2c9.4 5.9 11.6 10.9 7.3 17-4.1 6-10.5 6.1-18.3.5-1.4-1-3.1-2.2-3.8-2.5-1.4-.8-1.6-1.7-.2-1.4 1.2.3 1.5 0 6.3-7.6 4-6.5 4.3-7.3 3.3-8.1-.8-.7-.8-1.4 0-1 .5 0 2.9 1.5 5.4 3m-165.2 3.7c0 5.3-2.8 8.3-7.7 8.3H38l.1 1.7c.2 1.8-1 3.5-2.5 3.5-.3 0-.8.7-1 1.7l-1.2 3.6c-1 2.7-.9 2.6 1.4-.2 2.8-3.5 11.3-12 15.7-15.7l3.8-3.2-2.6-.9-3.2-1.1c-.6-.3-.7 0-.7 2.3m192-1.4l-3 1 2.4 2a187 187 0 0 1 17.9 17.9l1.5 1.8-1.2-3c-.6-1.7-1.2-3.5-1.2-4 0-.6-.2-.8-.7-.8-1.6 0-3-2-2.8-3.7l.2-1.5h-2c-4.8 0-8.2-3.8-7.8-8.9v-1.9l-3.3 1m-30.1 2.5c-7.8 12.5-7.6 11.5-2.8 13.8 4 2 7.2 1 9.8-3.4 3-4.8 1.6-9.3-3.7-12.9-1.3-.9-1.2-1-3.3 2.5m-141.9 2c0 .3-.2.8-.5 1.2-.4.7-.1 1.2 2 3.9 7 9 7.7 11.4 5 15.3-4.2 5.6-10 5.6-14.5-.1-5.6-7.2-6.3-8-7-7.6-.4 0-.9.3-1.2.4-1.3.5-.5-.7 1.5-2.2l3.2-2.5c1.3-1 2-.7 1 .4-.8.8-.7 1 2.2 4.7 6.6 8.8 9.3 10.2 12.7 6.3 2-2.3 1.7-4.1-1.7-8.4l-3.9-5c-1.9-2.4-2.3-2.6-3.7-2-1.6 1-.5-.7 2-2.7 2.4-2 3-2.3 3-1.6m91.6 2.6a108.5 108.5 0 0 1 94.7 108.1 108.8 108.8 0 1 1-214.2-27.2c12.7-45.1 49.5-77 93.6-81.1l6.2-.6c2.6-.3 14.6.2 19.7.8M31 134c-.2.3-1 3.3-1.7 6.5-2 10.2-4 12.8-9 12.7-4.8-.2-6 .4-4.2 2 1.5 1.3 6.8 0 10-2.3a28 28 0 0 0 7.2-14c.2-1.8.3-1.9 1.2-1.7 2.1.4 3-1.6 1.4-3-1-1-4.2-1-4.9-.2m224 .3c-1.5 1.5-.5 3.4 1.5 3 .6-.3.8 0 1.3 2.2 2 10 11.3 18.9 16.8 16 2.2-1.2.9-2.2-3-2.2-6.4 0-8.2-2.5-10.6-14.6-.5-2.6-1.1-4.8-1.4-5-.9-.6-3.8-.3-4.6.6m-18.2 4c.1.1-.5 2.2-1.3 4.6-4 11.4-5 15.4-4.4 16.7 1.4 2.3 0 1.7-3.3-1.3-1.5-1.4-1.6-1.7-1.1-2.2.3-.2 1-1.6 1.5-3l.8-2.6-2-2c-2.6-2.2-2.1-2.1-4.7-.6-2.1 1.2-3 2.4-2.2 2.7.6.2.7.9.1.9s-5-3.7-5.1-4.3c-.2-.6.5-.7 1-.1.5.9 2.3.1 11-4.5 9.3-5 9.3-5 9.7-4.4m-7.8 5.9c-1.2.7-2.2 1.5-2.3 1.6-.1.6 3 2.6 3.3 2.2l1.8-5.1c0-.3-.7 0-2.8 1.3m20 7l3.6 4.6c5.3 6.4 5.8 11.6 1.3 15.8-5.5 5.3-12.3 4.1-17.3-2.8a83 83 0 0 0-3.6-4.5c-1.5-1.9-1.7-3.2-.2-2 .8.7 1.5.3 8.3-5.3 6.1-4.9 6.8-5.6 6-6.4-.6-.5-.6-1.4-.1-1.4.2 0 1.1.9 2 2m-1.3 5.5c-10.2 7.9-11.1 9-9.2 11.8 5.5 7.9 18.7-.3 14.3-9-2-4-3-4.5-5-2.8m-203 4.7c9.2 2.3 11.4 2.5 12.2 1.6.6-.8 1.2-.8 1.2-.2 0 .6-3.6 5.6-4 5.6-.2 0-.4-.2-.4-.4s-1.3-.7-2.9-1.2l-2.9-.9-1.5 1.7c-2.4 2.8-2.3 3.8.5 6.9.9 1 1 1 1.7.4 1.4-1.3.8.4-1 3l-1.9 2.7c0 .2-.8 1.8-1.9 3.6-1.8 3.3-3 4.3-2.6 2.4.2-1-.3-1.5-5-4.3-10.8-6.3-10-6-10.9-5-1.6 2-1.5.3.2-2.4a14 14 0 0 0 1.4-2.5c0-.2.4-.7.8-1 .8-.8.8-.8.7.5-.1 1.5.8 2.2 8.3 6.4 7.6 4.2 7.5 4.2 8.6.9l.5-1.6-5.4-8.6c-3-4.8-5.5-9-5.5-9.2 0-1 .2-.9 9.9 1.6m-4.7 2.8l1.4 2.4 1.5 2.3 1.3-1.6c1.8-2 1.8-2-1.2-2.7-2.8-.7-3-.7-3-.4M71 180.6C61.6 183 57.4 195 63 203.3c2.3 3.3 9.4 7.3 15.5 8.8l2.1.5v-1.8l-.2-1.8-4-1.4c-10.6-3.6-14-8.7-11.4-17.5 1.5-5.2 8.9-7.4 15-4.4 3.1 1.5 4 1.6 7 .7 2.5-.7 2.9-1.4 1.4-3-2.1-2.2-3-2.5-9-2.5-3 0-5.8-.2-6.4-.3-.5-.2-1.5-.1-2.2 0m15 2.6c0 .8-1 1.3-1.7.7-.6-.6 0-1.7.8-1.6.4.1.8.5.8.9m74.7 0l1.1 1.6.8 1h13.9l.6-1.1c1-2 1.2-2-8-2-6.8 0-8.6 0-8.4.5m27.9 1l-1 1.7h12.1l-1-1.5-.9-1.5-4.2-.2h-4.1l-1 1.5m21-.1l.6 1.6s2.3.2 5.2.2h5.1l1.3-1.6 1.3-1.6h-14.1l.6 1.4m-184.8.4c2.7 1.2 2.8 1.8.4 1.8-3.1 0-6.4 5.2-5.4 8.7 1.3 5 9.7 7.7 14 4.7 3.4-2.4 4.8-7.1 2.8-9.2-1.1-1.3-.8-1.7.8-1 3.2 1.3 3.4 2.9.9 8.4-4 9-14.7 9.9-19.5 1.8-2-3.5-1.7-7 1.3-12.7 2-4 1.7-3.9 4.7-2.5m243.2.3c3.4 1.6 5.8 5.2 7.2 10.7.8 2.9.7 3-2.3 4-2.7.9-3 .6-1.3-1 2-2 1.7-5.4-.9-9-3.3-4.3-12.6-1.4-14.3 4.6-1.3 4.5.6 8.6 4.3 9.3 2 .4 1.2 1-1.8 1.5-4 .6-7-9.9-4.5-15.2 2.3-5 8.7-7.2 13.6-4.9m-108.4 3c-9.6 2.3-8.3 18 1.5 18.8 8.1.6 12.6-9.8 5.1-12-3.9-1.1-6.5 1.6-4.2 4.4 1.4 1.6 1.1 2.9-.3 2-2.5-1.7-2.9-4.9-.9-6.9 2.8-2.7 8.2-1.3 10.4 2.7.4.8 1-.2 4.5-8.8a76 76 0 0 0-16-.2m23.3 5.4l-3.6 5.7h27.5a87 87 0 0 0-5.5-10l-.9-1.4h-13.9l-3.6 5.7m28-5.4c0 .3.9 2.5 1.9 5l1.9 4.7.7-1.4c2.6-5.2 10.7-4.4 10.7 1 0 2.5-2 5.2-2.8 4-.5-.8-.5-1.2 0-1.2.3 0 .7-.7 1-1.4 1.4-3.3-1.5-5.2-5.2-3.7-4.4 1.9-3.7 8.7 1.2 11 10.6 5 18-11.8 7.6-17.5-1.5-.8-17-1.3-17-.5m-140 6.8c0 3.4 1.4 5.5 5.8 8.6 4.6 3.3 5.5 4.5 5.7 7.5l.2 2.3 1.5-.4c2-.6 2.7-1.3 3-3 .2-2 1.8-3.7 6-6.7 3.7-2.6 5.2-4.7 5.6-8.2l.3-2h-28v1.9M175 205.3l-2.9 4.6.1 10.4c.2 13.7.8 13.5 1-.2.1-12.2.2-12.4 3.5-12.4 3.2 0 3.2 0 3.2 12.2 0 9.3 0 10.8.6 10.8.5 0 .6-1.5.6-10.4 0-12.3.6-13.8 4.7-12.4 2 .7 2.1 1 2.1 12.3 0 9 0 10.5.6 10.5.5 0 .6-1.5.6-10.6 0-11.6 0-12 2.6-12.5 1.4-.2 2.8.3 3.7 1.4.3.5.5 3.5.5 11.2 0 9 0 10.5.6 10.5.5 0 .6-1.5.6-10.5 0-11.3 0-11.6 2.2-12.3 4-1.4 4.6.3 4.6 12.7 0 6.4.2 10 .4 10 .3 0 .4-3.7.4-10.3 0-11.5.2-12.3 2.8-12.5 4.2-.3 4.4.2 4.4 12.8 0 6.4.2 10 .4 10 .3 0 .4-3.8.4-10.8v-10.9l-2.4-4.1-2.5-4.1H178l-2.9 4.6m83.5 2c.3 1.2-.5 1 19.8 5.3 2.8.6 2.5.8-9.5 8.2-6 3.8-6.9 4.5-6.9 5.9 0 2.7-.9 1.3-1.6-2.6-.5-3.2-.5-3.6.2-3.3 1.3.5 5.9-2.6 5.6-3.7l-.4-3c-.3-2-.2-2-4-2.6-1.4-.3-1.9-.2-2 .2-.5 1.7-.6 1.9-1 1.5-.3-.3-1.2-5-1.2-6.3 0-1 .7-.8 1 .3m-39.6 2.2c1.8 4.5 1.8 4.5 1.8 1.4 0-2.8-.9-4.1-2.7-4.1l1 2.7m-205-1.5c0 1 .5 1.2 7.4 3 8.3 2 10.3 2.2 10.7.8.1-.6.4-1 .6-1 .6 0 .5 1.2-.2 3.9l-.8 3.4c-.3 1.3-1 1.4-1 0 0-1.2-1.6-1.7-12.4-4l-5-1-.6 1c-1.1 1.3-1.3.6-.6-2.4l.8-3.6c.3-1.2 1-1.2 1-.1m151.5-.4c-1 .4-1 .5-1 3 0 1.5 0 2.6.1 2.5.4-.4 2.5-6 2.3-6l-1.4.5m10.1 2.4c-.8.7-.8 1.3-.8 10.8v10h4v-10c0-10.5-.2-11.6-2-11.6-.2 0-.8.3-1.2.8m7.9-.1c-.6.6-.7 2-.7 10.8v10h3.6v-10.3c0-9.9 0-10.4-.8-10.8-1-.6-1.4-.6-2.1.3m7.8-.3c-.4.4-.5 3.3-.5 10.8v10.4h3.6v-10a70 70 0 0 0-.4-10.9c-.5-.8-2-1-2.7-.3m8.2 0c-.6.4-.7 1.3-.7 10.8v10.4h3.6v-10.2c0-10 0-10.2-.9-10.8-1-.7-1-.8-2-.2m7.8.2c-.9.6-.9.7-.9 10.8v10.2h4v-10c0-9.5 0-10-.8-10.8-1-1-1.2-1-2.3-.2m-119.8 2.8c-.5.6-1.7 1.2-3.6 1.8-3.3 1-4.3 1.7-4.3 3s.3 1.3 2.3.5c1-.4 2.7-1 3.7-1.2 2.3-.6 3.8-2 3.4-3.5-.4-1.6-.7-1.7-1.5-.6m127 8.9v9.3h3.5v-12.3l-1.6-3-1.8-3c-.1-.2-.2 3.9-.2 9m-44.9-7.2c-2.2 3.4-2.3 3.6-2.3 10.2v6.3h3.6v-9l-.1-9-1.2 1.5m98.1-.8c0 3.4.4 3.7 3.3 2 2.6-1.5 2.6-1.7 0-2.1a18 18 0 0 1-2.7-.5c-.4-.2-.6 0-.6.6m-183.2 5.2c-3 1-4 2-3.2 3.2.3.5.4.5 1 0 .4-.3 1.9-.8 3.3-1.2 2.4-.5 2.7-.7 2.7-1.6 0-1.2-.6-1.3-3.8-.4m80.5 2.8c-.8 1.3-.7 9.3.1 9.3.5 0 .6-.9.6-5l-.1-5-.6.7m-150.5 1c0 .1-.3.3-.8.3-1.4 0-2.6 5.2-1.3 5.7 1.8.7 6 .3 6.3-.6.3-1.5.2-3.5-.2-4.4-.5-.8-.4-.8 1.7-.5 2.5.3 3.2.8 1.8 1.3-1 .4-1.5 1.4-1.5 3.5v1.2l2.7.3c5.2.5 5.7.4 6.2-1 .3-.6.6-1.1.8-1.1.3 0 0 7.2-.3 8.3-.3.7-1 .2-1-.7 0-2-18-2.8-18.3-1 0 .5-.4 1-.7 1-.4 0-.6-.3-.4-.7l.4-5.9c.3-5 .4-6.8.6-6.9.2-.2 4 .8 4 1.1m205.2 3.7c0 3.9.1 4.7.6 4.7.8 0 .8-7 0-8.4-.5-1-.6-.6-.6 3.7M84 222.8c-.5.2-1.2 1-1.6 1.5-.3.6-1.7 2.1-3 3.4-3.5 3-3.6 3 5.2 3 9 0 8.7.1 5-3.4-2.2-2.1-2.8-2.9-2.8-3.8 0-1.4-1-1.6-2.8-.7M281 225c.4.2.5 2.6.6 9l.1 8.9h-1.1c-2.5.4-3.9-.5-2.2-1.3.8-.3 1-.7 1-3l.1-2.7h-4l-8.6.3-4.4.3-.2 1.2c-.4 2.6-1 1-1.1-3.1 0-2.8 0-4.3.3-4.3.2 0 .4.2.4.5 0 1.5 2.4 1.7 12.5 1.2l5.1-.3v-2.3c0-2-.1-2.5-1-3.3a4 4 0 0 1-1-1.2c0-.4 3-.3 3.5 0M30 243.8c0 3.7-.6 5.7-1 3.3-.1-1.1-4.4-1.4-13-1l-5 .3-.4 1.2c-.2.6-.5 1.2-.7 1.2-.3 0-.8-7-.5-8 .3-.6 1-.1 1 .7 0 1.2.6 1.2 9.3.9 8.9-.4 9-.5 9-1.8 0-.5.1-1 .3-1.2.6-.6 1 .6 1 4.4m245.8 3.2c4.7 2.5 6.3 7.5 4.5 13.5-3.6 11.8-20.5 8.4-20.4-4 0-8.6 8.5-13.6 16-9.5m-85.1 1.6a3.8 3.8 0 0 0-1.3 5l.8 1.8-.9.7c-4 3.3-13 5.5-22.4 5.4-5 0-5.2 0-5.6-1.7-.6-2.1-4-2.4-4.7-.4-1.3 3.5 0 3.8 17 3.8 12.3 0 14.6 0 14.6.5l.8 11.3c1 14.2 1.5 21.7 2.2 34.5 1.1 20.1 1.5 21.6 2.4 9l1.6-21.3a1196 1196 0 0 0 2.2-33.1v-1h14.8c17.4 0 18.8-.3 16.8-4-1.2-2-4.4-1-4.4 1.3 0 2.8-19.2.8-25.4-2.7-3.4-1.9-3.6-2.1-2.8-3.9 1.8-3.7-2.4-7.6-5.7-5.2m76.1 1.5c-6 2.3-7.3 9.5-2.1 12 8.1 3.8 17.3-1.8 13.8-8.5-1.6-3.2-7.6-5-11.7-3.5m-253.6 4.5c-1 .9-1 1.2-.8 2.7.5 2.9.6 3.1 1.5 3 .5-.2 3.9-.8 7.5-1.4 8.2-1.3 8.4-1.4 8.4-3 0-1.3.7-1.6 1-.2.8 4 1.4 7.2 1.2 7.4-.3.3-1-.4-1-1 0-.8-11.9.6-16.7 2-1.3.5.3 6.3 1.7 6.3 1.1 0 .4 1-.8 1-2.4.4-3 0-3-2.2a89 89 0 0 0-2.4-14c-.5-1.2-.4-1.3 1.7-1.6 2.5-.4 3-.1 1.7 1m95.4 6.7c-3.7.8-3.8 1-3.7 4 .2 2.5.1 2.7-.7 2.7-.7 0-.8-.3-.8-2v-2h-5l-5.2.1 4.4.2c3.8.2 4.4.4 4.5 1 .2.6-.2.7-3.3.7-2.2 0-3.4.1-3.2.4.1.2 1.5.4 3 .4 2 0 2.8.1 3.2.6.7.8 0 1.3-2 1.3-.7 0-1.1.2-1 .5.1.2 1.4.4 2.8.4 2.3 0 2.6 0 2.6.8 0 .7-.3.8-3 .8-3.2 0-3.4.1-3.4 3v1.4h28l-.2-1.2c0-.7-.3-1.7-.4-2.3-.2-1.1-.2-1.1-3.3-1.1-2.6 0-3.1-.2-3.2-.7-.1-.7.2-.7 2.7-.7 3 0 4.2-.7 1.5-1-3.4-.2-2.3-1.6 1.4-1.8 4.1-.1 4-.8-.1-.8-2.9 0-3.2-.1-3.1-.7.1-.6.7-.8 4.5-1l4.4-.2h-5l-5.1-.1-.2 1.9c0 1.4-.3 1.9-.8 2-.7.1-.8-.1-.6-2.5l.1-2.6-1.8-.8c-2.5-1-5.4-1.3-8-.7m-34 .7c0 1.5 2 4.4 3 4.4 1.1 0-.4-4.1-1.8-4.8-1-.6-1.2-.6-1.2.4m7.7-.6c-1.2.5-3 5-2 5s3.1-2.8 3.1-4c0-1.2-.1-1.4-1-1m-8.6 5.9c0 1.2 2.5 3.8 3.7 3.9.8 0 .2-2.2-.9-3.3-1.2-1.2-2.8-1.6-2.8-.6m7.8.8c-1.4 1.4-1.9 3-.8 3 .8 0 3.3-2.3 3.6-3.4.4-1.5-1.2-1.2-2.8.4m176.7 2.2c-.2 1 .6 1.5 9.3 4.4 8.5 2.9 7.7 2.7 8.2 1.5.4-1 1.2-1.4 1.2-.5-.1 1.1-2.6 7.5-3 7.5-.2 0-.3-.5-.3-1 .2-1.2-.4-1.6-2.9-2.4l-6.7-2.2c-6.1-2.2-6.7-2.1-7.6.9l-.8 2.3.9 1.2c1.1 1.6.8 1.9-1.2 1-2-1-2-1.3-1.4-3.6l3.7-10c.3-.5.8.2.6 1m-185.3 2.1c0 1.2 4 4 4.7 3.3.5-.5-.9-2.7-2-3.3-1.4-.7-2.7-.7-2.7 0m9.3 0c-1 .8-2.3 3-2 3.4.7.6 4.3-1.8 4.8-3.2.4-1-1.5-1-2.8-.1m-47.7.5c0 .7-7 17-7.8 18.3l-.6 1 2.3-1c1.3-.7 3.5-1.6 5-2.2 4-1.7 4.7-2.2 4.7-3.7 0-1.1 0-1.2.5-.7s2.7 5.6 2.7 6.2c0 .4-1.1 0-1.3-.4-.4-1-1-.8-6.8 1.4-14 5.4-13.3 5.4-11 .3a312 312 0 0 0 6.7-15.2c0-.2-.7 0-1.5.3l-5.3 2.3c-4.6 1.9-4.8 2-4.8 3.7 0 2-.6 1.7-1.4-.7l-1.3-3.3c-.7-1.4-.4-1.8.7-.9.8.8 1.9.5 13.2-4 4.7-1.7 6-2 6-1.4m37.6 4c0 1 3.9 3 5 2.6.9-.3.6-1-1-2-1.3-1-4-1.3-4-.6m9.6.6c-1.6 1-1.9 1.7-1 2 1 .4 4-1 4.6-2.1.6-1.2-1.8-1.2-3.6 0m13.6.4c0 .7.3.8 16 .8s16 0 16-.8-.3-.8-16-.8-16 0-16 .8m14.5 5c.2 1.5.3 4.9.3 7.5v4.7l1.4.6c1.8.9 1.7 1.5 2-7.5l.2-8h-4.1l.2 2.8m-19.6 1.5c-2.2 1.5.7 3.7 3.8 3 3.2-.9 5 .5 7.7 6 1.4 2.7 2.5 3.6 6 4.8 9 3 11.4 6.4 7.4 10.2-1.8 1.6-1.8 1.7-1 2.1 2 1.1 5-2.4 5-5.7 0-3.3-.8-4-7.9-7.6-6-3-6.1-3-7.9-5.7-4.6-6.7-9.7-9.5-13.1-7.1m37 0c-4 1.3-5.6 2.9-8.4 7.8-.6 1-1.7 2.4-2.5 3-1.7 1.4-1.7 1.9-.4 2.5 1.5.7 3-.7 6-5.4 3.2-5 4-5.7 6.6-5 1.8.5 5.6-.7 5.6-1.7 0-1.4-4.4-2.2-6.9-1.3m-34.3.4c0 .3-.1.6-.3.8-.3.3-1.3-.6-1-1 .3-.5 1.3-.4 1.3.2m37.8-.1c.4.7-.5 1.4-1 .9-.5-.5-.2-1.3.4-1.3.2 0 .5.2.6.4m122 .9c0 1.9 16.2 8.9 16.8 7.3.3-.5 1.4-1 1.4-.5l-1.6 3.6c-1.6 3.5-2.4 4.3-2.4 2.5 0-1.2-.4-1.5-4.2-3.2l-6.9-3c-4.3-1.9-5-2-6.1-.7-1.3 1.5-1-.1.8-4 1.6-3.3 2.2-3.9 2.2-2m-100.2.7c0 4.4 9.5 6.1 13.3 2.4 3-3 2.6-3.2-5.9-3.2-7.3 0-7.4 0-7.4.8m65.4.3c1 4.5 9.3 5.8 13.1 2 3-3 2.6-3.1-6-3.1h-7.4l.3 1M76.6 298.5c-1 8.9-1 9.7.5 10.4 1.7 1 3.4.8 4.6-.3l1-.9-.6-6.8c-1-9.3-.7-8.5-3-8.5h-1.9l-.6 6m-32.7-.4c5.8 2.6 8.8 9.8 6.2 15-5.3 10.7-20.8 6.4-20.8-5.7 0-7.2 8-12.3 14.6-9.3m211.2 1.2c7.1 3.5 8 11.2 2.1 18.5-2.7 3.3-2.8 3.4-5 1.8-2.4-1.7-2.7-2.8-.5-2 2.8 1.1 7-3.2 7-7.2 0-5.7-7.5-9.8-13.3-7.2-3.4 1.5-5.4 6-3.6 8.7 1 1.6-.3 1.2-2-.6l-1.6-1.6.9-2.1c3.1-7.7 10-11.2 16-8.3m-149.3 1.5c-4.1 4.5-2.7 9.3 3.5 11.6 6.2 2.4 8 4.6 5.4 7.2-1.2 1.2-1.2 1.2-.4 1.6 1.2.7 1.5.6 2.3-.8 2.3-4 1.6-5.7-3.7-8.6-6.4-3.5-7.6-5.5-5-8.7 2-2.6 0-4.7-2-2.3m-66.3 0c-7.8 3.6-10 11-4.5 14.8 3.4 2.3 10-.8 12.3-5.7 2.7-6-2.1-11.6-7.8-9m71.1 4.1c0 4 .1 4.2 1.8 3.6 1.3-.5.8-6-.6-6.7l-1.2-.7v3.8M238 311l-.4.7c-.9.5-.3 2.9 1.6 7 7.6 16.4 7.5 15.4 1.2 12.8l-8.7-3.6c-4.7-2-7.7-2.6-8.3-1.6-.3.5-1 .5-1 0 0-1 5-5.3 5.3-4.6.5.8 4.2 2.5 5.4 2.6.5 0 1.4-.8 2.5-2l1.7-2.1-1.1-2.4c-1.3-2.7-1.6-3-2.4-2.3-1.5 1.2-.9-.3 1-2.4 2-2.2 3.2-3 3.2-2m-131.5 3.3c-2.8 3-1 6.6 4.1 8.3 3.5 1 4 1.4 3.7 2.8-.3 1.4.3 1.5 1.1.2 1-1.5.4-2.1-3.4-4-4-1.9-4.6-2.8-4-5.2.3-.8.7-1.6 1-1.7.6-.2.6-.3 0-.8-1-.8-1.5-.7-2.5.4m4.7 3c0 1.4.2 2.5.4 2.5 1.3 0 1.7-4.5.3-4.8-.6 0-.7.2-.7 2.3m-44.8 6.3c0 .4-.2.4-1 0-1.2-.4-1.4-.2-8.5 6.6-4.6 4.5-5.6 5.9-4.5 6.6.6.3.5 1-.2.9-1.1-.3-7.8-8-8-9.3-1-5.5 8.3-8.6 11.2-3.8.5.8-.2 1.2-1.1.6-3.7-2.6-9.2 3.4-5.9 6.4.8.7.9.7 3.5-2l6.2-6c3.7-3.6 3.9-3.9 3-4.6-.4-.3-.7-.8-.7-1.2 0-.4 1.2.6 3 2.4 1.7 1.6 3 3.2 3 3.4m170.3 0l-1.5 1.6 2.7 1.3c3.3 1.5 3.2 1.6 1.7-1.7-1.4-3.1-1-3-3-1.1m-128.3.3c-.7.6-.3 2.2.6 2.5 1.2.5 1.2.4.9-1.3-.3-1.3-.9-1.8-1.5-1.2m3.2 3.6c.1 1.6.3 3 .6 3 .5 0 .2-5.7-.3-6-.2 0-.3 1-.3 3m-28.7 8.9l5 2.8c7.5 3.9 10 9.3 7 15.1-3.3 6.5-10 7.4-17.9 2.4-1.5-1-3.5-2.2-4.5-2.6-1.9-1-2.2-1.8-.4-1.5 1.3.3 1.4.2 6.6-9 3.2-6 3.4-6.5 2.2-7.1-.9-.5-1-1.2-.3-1.2.3 0 1.4.5 2.3 1m128.4.8c1 2.4.8 3-.8 1.6-.6-.6-2.4 0-4.4 1.3-.4.3 1.4 4.4 2.6 6 .3.3 4.3-2.1 4.5-2.6.4-1 1.2-.5 1.8 1.4 1 2.5.9 2.8-.3 1.7l-1-1-1.6 1c-2.3 1.1-2.3 1.6-.5 4.6 2 3.6 2.4 3.8 4.8 2.3 1.6-1 2-1.4 2-2.5 0-2 .4-2 1.4.1 1.1 2.3 1.2 2.2-5.2 5.6-5.2 2.8-5.7 3-4.8 1.5.5-.9-.2-2.6-4.8-11-2.9-5.2-3.3-5.6-4.6-5-2.6.9-.7-.7 3.2-2.8a118.8 118.8 0 0 0 6.8-4l.9 1.8M83.3 343c-6.6 11.8-6.6 11.6-3.7 13.5 4.3 2.9 8 2 10.7-2.5 3-5 1.9-10-3-12.8-2.2-1.3-2.3-1.3-4 1.8m109.4 2.4l-.8.8c-1.1.7-1 1 1.4 7.4 4 10 3.5 9.4 6.6 8.4 2-.6 3.5-2 3-3.1 0-.4 0-.7.2-.9.4-.2.9.7 1.4 2.7.3 1.4-.6 2-5 3.6l-4.9 1.7c-2.1 1-3 .9-2.2 0 1-1.2.9-2.1-1.4-8l-2.9-7.4c-.6-1.8-.8-2-2-2-2.3 0-1.5-.7 2.2-2.1 3.6-1.4 4.4-1.6 4.4-1.1m-85 2.9c7.1 2.4 6.5 1.9 5.4 4.2-.8 1.9-1.4 2-1.4.4 0-.9-2.8-2.6-4.2-2.6-.6 0-2.8 5.8-2.3 6.1.6.5 4 1.5 4.7 1.3 1-.2 1 .2.2 2.4-.8 2-1.8 2.3-1.8.7 0-1-2.3-2.5-3.8-2.5a20 20 0 0 0-2.3 7.3c.8 1.3 4.6 1.8 5.8.8 1-1 1.3-.4.5 1.4-1 2.2-1 2.2-7.3 0-5.5-2-6.8-2.7-4.7-2.7 1.2 0 1.4-.3 4.7-9.8l2.3-6.8-1-.9c-.9-.7-1.3-1.3-.9-1.3l6.1 2m73.4 1.1c0 .3-.4.6-.8.9-1.1.5-1 1.3 1.8 10.4l2 7h1.5c2.3.3 1.8.7-2 1.9-4 1.1-4.9 1.3-4.9.7 0-.3.3-.4.6-.4 1.2 0 1-1.2-.4-6.3l-2-7.5c-.9-3-1.6-4.3-2.5-4.1-1.1.1-1.2-.7 0-1l3.3-1c2.8-1 3.4-1 3.4-.6m-12 3.6c0 .2-.4.5-.8.6-1 .2-1 .8-.4 6 1.3 12 1.4 12.3 3.2 12.3 1 0 1.8.7 1 .8-.9 0-6.5.8-7.5 1-1.4.3-1.5-.5 0-1 1-.5 1-.5.4-5.5l-.4-3.8-1.3.3-4.7.5c-4.4.5-4.1 0-3.3 4.9.7 4.6.7 4.5 2 4.5 3.6.1-2.1 1.7-6.5 1.8-1.1 0-1.2-.7 0-1 1-.3 1-1-.1-10.7-.7-6.8-.8-7.2-2.2-7.4-2-.4-1.6-1.1.9-1.4l4.2-.5c2-.2 2.5.2.9 1-1 .4-1 .6-.8 2l.4 3.4.3 2 1.7-.3 4.7-.5c3.7-.3 3.6 0 3-3.8-.5-3.3-.8-4-2.1-4-2 0-1-.7 1.3-1 1.3 0 2.6-.3 3-.3 1.2-.3 3.1-.2 3.1.1m-29 1.3c3.8.7 3.8.6 3.8 2.3-.1 3.2-1.6 6-1.6 2.9 0-3.4-6.8-5.2-10.6-2.8-2.3 1.4-3.6 6.6-2.6 10.3 1.6 6 10 8.3 12.7 3.4.7-1.3 1-.3.5 1.8-.7 2.8-1 3-5.5 2.8-9.2-.5-14.5-6.9-11.9-14.3 2-5.7 7.1-7.9 15.2-6.4"/>
    <path fill="#4f77b5" d="M143.8.1h4c1 0 .1-.1-2-.1-2.3 0-3.1 0-2 .1m-3 2.6c0 1.2.1 1.7.2 1V1.7c-.1-.7-.2-.2-.2 1m9.6 0c0 1.3.1 1.8.2 1.2V1.6c-.1-.7-.2-.2-.2 1m-2.3 2.5v2.6h4.6l-2.2-.1-2.2-.2-.1-2.5-.2-2.4V5m-10 .2h2l-1-.1c-1.2 0-1.6 0-1 .1m13.6 0h2l-1-.1c-1.2 0-1.6 0-1 .1m-12.2 2.4h2.6c.7 0 .1-.1-1.3-.1-1.4 0-2 0-1.3.1M148 15c0 2.3 0 4.2.2 4.3.2.1.3-1.1.2-2.7-.2-5.1-.4-5.7-.4-1.6m-10-1.2h2l-1-.1c-1.2 0-1.6 0-1 .1m13.8 0h1.8c.5 0 .1-.1-.9-.1s-1.4 0-.9.1m-11 1.8c0 .7 0 1 .2.7v-1.4c-.1-.4-.2-.1-.2.7m9.6 0c0 .7 0 1 .2.7v-1.4c-.1-.4-.2-.1-.2.7m16.3 15c-.1 2 0 3.6.1 3.4.2-.2.3-1.8.2-3.7L167 27l-.2 3.6m-31.2 10.7l1.3 1.3 1.3 1.2-1.2-1.3c-1-1.3-1.4-1.5-1.4-1.2m-8.9 1h1.6c.4-.2 0-.2-.9-.2s-1.2 0-.7.1m36.8 0h1.8c.5 0 .1-.1-.9-.1s-1.4 0-.9.1m-46.6 13.2c0 1 .1 1.5.2.8v-2c-.1-.4-.2 0-.2 1.2m-17.1.3l-1.2 1.3 1.3-1.2c1.2-1.1 1.5-1.4 1.2-1.4 0 0-.7.5-1.3 1.3m-.6 3.8l-1.4 1.5 1.5-1.4 1.5-1.5c0-.3-.3 0-1.6 1.4M139 58c-.2.2-.3.5-.3.7 0 .3.1.3.3 0 .2-.4 2.2-.6 6.7-.6l6.4-.2h-6.4c-3.6-.1-6.6 0-6.7.1m-45 3.5l-1.5 1.7 1.7-1.6c1.6-1.5 1.9-1.8 1.6-1.8L94 61.6m108-.6c-1.2.5-1.4.7-1.2 1.4.8 2.7.6 8-.4 10.7-.1.4.2.8 1.2 1.3 1.8.8 1.8.8 1.5-.1-.2-1 0-1 3 0l4.6 1.5 2.3.8 3.7-3c4.5-3.7 4.3-3.9 4.3 2.2 0 4 .1 5.2.6 5.4 1 .4 7.4 4.7 7.4 5 0 .2-.3.5-.7.5-.5.2-.4.4.7 1l1.4.7 1-1.4c1.8-2.4 3.9-4.2 6.2-5.3 1.2-.6 2.1-1.3 2-1.4l-.6-2c-.3-1.3-.6-1.6-1.3-1.6-1.6 0-5-2-6.5-4-.8-1-2.4-2.3-3.5-3-2.2-1.3-2.2-1.3-.9-3.3 1.4-2 1-4-1-5.5-2.2-1.5-6-.1-6 2.1 0 1.7-1 2-3.4 1.2a16 16 0 0 0-4.3-.8 10 10 0 0 1-6.4-2c-1.6-1.3-1.6-1.3-3.6-.4M83.4 62.5c.5.1 1.2.1 1.6 0l-.9-.1c-.9 0-1.2 0-.7.1M80 63h1.4c.4 0 0-.2-.7-.2-.8 0-1 .1-.7.2m26 4.8c.5.7 1 1.2 1 1 .2 0-.2-.6-.9-1.2l-1.1-1 1 1.2m-44 2.2c-.9.7-1.1 1-.7.8.7-.3 2.6-2 2.2-2l-1.6 1.2m168-.7l1.3 1.3 1.3 1.2-1.2-1.3c-1-1.3-1.4-1.5-1.4-1.2m-35 2.7c0 .5-.2 1.4-.1 2 0 .5.1.2.3-.8.4-1.9.3-2.7-.1-1.2M77.3 74.7c-.5.2-.6.3-.2.3l1.4-.3c.5-.3.6-.4.2-.4l-1.4.4m13 2.3c0 .4-.2.9-.5 1-.3.1-.2.2.2.2.5 0 .7-.2.7-1 0-.5 0-1-.2-1l-.2.8m-6 2c-.4.4-.3.4.6.2 1.5-.3 1.8-.5.8-.5a3 3 0 0 0-1.4.4m64.2.9l-1.2 1.3 1.3-1.2a10 10 0 0 0 1.3-1.3c0-.3-.3 0-1.4 1.2m61.4.4l1.9 1.9c.3 0 0-.4-1.8-2l-1.9-1.8 1.8 1.9m-133.6-.6l2.4.6c.3.2.3 0-.2-.3-.4-.4-1.4-.6-2.4-.6h-1.6l1.8.3m-21.6 1.3l1 1.2c.2 0-.1-.6-.6-1.2l-1-1.2c-.2 0 .1.5.6 1.2m95.8.5l-1.6 1.7 1.7-1.6c1.6-1.5 1.9-1.8 1.6-1.8l-1.7 1.7m-9.8.5l1.6 1.4s-.4-.7-1.2-1.4a8.7 8.7 0 0 0-1.5-1.4c-.2 0 .4.6 1.1 1.4M57 82c-.6.5-1 1-.8 1 .2 0 .8-.5 1.3-1 1.2-1.3 1-1.3-.5 0m-12.4 1.6h2.8c.8 0 .2-.1-1.3-.1s-2.2 0-1.5.1m79.8 2c0 .8 0 1.1.2.6v-1.6c-.1-.3-.2 0-.2 1m87.3-.6c.3.3.2.4-.3.2s-.6 0-.4.2c.1.3 0 .4-.4.2-.5-.1-.6 0-.5.2.3.5.7.5 1.6-.2.6-.4.6-.6.2-.8-.4-.3-.4-.2-.2.2m4.4.5c0 .9.9 1.6 1.2 1.1 0-.2-.2-.6-.6-1-.6-.6-.7-.6-.6 0m-167.9 0c.5.1 1.2.1 1.6 0l-.9-.1c-.9 0-1.2 0-.7.1m-17.4 2c0 .8 0 1.1.2.6v-1.6c-.1-.3-.2 0-.2 1m173.5 1.8c0 .2.7.4 1.6.4.9 0 1.6-.1 1.6-.2l-1.6-.3c-.9-.1-1.6 0-1.6.1m-126 .9c-.6.4-.8.7-.4.4l1.4-.9c.4-.2.6-.4.3-.4-.2 0-.9.4-1.4.9m-21.6.1c.5.1 1.2.1 1.6 0l-.9-.1c-.9 0-1.2 0-.7.1m83.6 3.2c.5.1 1.2.1 1.6 0l-.9-.1c-.9 0-1.2 0-.7.1m9.6 0c.5.1 1.2.1 1.6 0l-.9-.1c-.9 0-1.2 0-.7.1m-116.7 6c.8.1 1.5.4 1.7.7.2.3.3.2.3-.2 0-.6-.3-.7-1.7-.7-1.6 0-1.6 0-.3.3m199 1.9v.6c.2-.4.2-1.2 0-1.6v1m-166.2.9l-1.4 1.5 1.5-1.4 1.5-1.5c0-.3-.3 0-1.6 1.4m163.6-.6l-.2.8c-.2 1-.5 1.2-1.3.6-.7-.5-.7-.5 0 .3.8.8 1.4.5 1.7-1 .1-.6 0-1.3-.2-.7m-185.9 4c0 1 0 1.2.2.7v-1.6c-.1-.3-.2 0-.2 1m182-1.2c-.1 1 1.5 1.9 2.7 1.6.7-.1 1.1 0 1 .1 0 .2 0 .6.4.8.7.6.6-.4-.1-1.2l-.4-.8-.3.3c-.7.8-2 .6-2.7-.3-.4-.5-.7-.7-.7-.5m-83.9.4h2l-1-.1c-1.2 0-1.6 0-1 .1m-1 1.2c.5.1 1.2.1 1.6 0l-.9-.1c-.9 0-1.2 0-.7.1m-93.5 8.7l1.3 1.3 1.3 1.2-1.2-1.3c-1-1.3-1.4-1.5-1.4-1.2m181.8 2.3c-.1.2 0 .4.2.4.3 0 .4.1.2.3 0 .2 0 .3.4.3s.5-.2.2-.7c-.5-.8-.6-1-1-.3m-77.2 7.2c.1.2.6.4 1.1.3.7 0 .8 0 .3-.3-.8-.6-1.7-.6-1.4 0m-13.5 8.2c.5.1 1.2.1 1.6 0l-.9-.1c-.9 0-1.2 0-.7.1m12.3.2a5.3 5.3 0 0 0-3.4 3c-.7 2-.5 97.6.2 99 1.6 3-2.6 2.8 52.3 2.8h49.1l1.5-1.4 1.5-1.4V231c-.4-30-21.1-64.2-49.6-82.2-14.8-9.3-43.1-17.9-51.6-15.7m-107.8 3a28 28 0 0 0-2.8 3 36 36 0 0 0 3.2-3 28 28 0 0 0 2.8-3 36 36 0 0 0-3.2 3m202.8-3l1.3 1.4 1.3 1.2-1.2-1.3c-1-1.3-1.4-1.5-1.4-1.2m-127 2.8c-2.1.8-1.3.8 1.2 0 1.1-.2 1.6-.5 1.2-.5l-2.4.5m131.4 1.7l1.6 1.4s-.4-.7-1.2-1.4a8.7 8.7 0 0 0-1.6-1.4l1.2 1.4m14.5-.8h1.4c.4 0 0-.2-.7-.2-.8 0-1 .1-.7.2m-165.7 6.6c-.8.4-1.2.7-1 .7l1.8-.7c.8-.5 1.2-.8 1-.8a7 7 0 0 0-1.8.8m11.2 13v9.7l-8.9.2h-8.9 18l.1-9.6.1-9.7 5.1-.1 5.1-.2h-5.3l-5.3-.1v9.7M31.7 148c.1.2 0 .4-.1.4-.2 0-.5.3-.7.6-.2.6-.1.6.6 0 .7-.7.8-1.4.2-1.4-.2 0-.1.1 0 .4m-14 2.6H19c.4 0 0-.2-.7-.2-.8 0-1 .1-.7.2m255.2 0h1.4c.4 0 0-.2-.7-.2-.8 0-1 .1-.7.2M13.2 154c0 .7 0 1 .2.7v-1.4c-.1-.4-.2-.1-.2.7m184.4.7c3.5 1.8 4.5 3.7 4.6 8.4 0 4 .2 4.7 5.3 17.5.4 1 .5 1 9 1l8.7.2-1.6 2c-2 2.6-2.2 2.4 1 2.6 12.9 1 12.8 20.5 0 21.8l-2.3.3v5.2c0 5.6 0 5.6 4 15.8 2 4.7 1 4.6-1.8-.2l-2-3.4-.1 3-.1 3h-59.6V224.6l-1.8 2.7-2.6 4.2c-.6 1-1 1.2-1.2 1-.3-.3.5-2.6 2.6-7.4l3-7v-9.6l-2-.3c-11.2-1.3-12.9-18.5-2.1-21.5l2-.6c.1 0-.4-1-1.2-2.1a17 17 0 0 1-1.5-2.2c0-.2 4.7-.2 10.3-.2h10.4l1.5-3.5c5-11.8 5-11.7 4.6-12.7-2.7-7.2 5.9-14.4 12.9-10.7m-120 2.6l-1 1.3 1.3-1.2 1.6-1.3-.3-.1c-.2 0-.9.5-1.5 1.3m-3 2.6l-1.4 1.5 1.5-1.4 1.5-1.5c0-.3-.3 0-1.6 1.4m-5.8 2.6l-2.4 2.5 2.5-2.4c2.3-2.3 2.7-2.6 2.4-2.6 0 0-1.2 1-2.5 2.5m116.3 0c0 1 0 1.2.2.7v-1.6c-.1-.3-.2 0-.2 1m-114.7 1l-1.2 1.4 1.3-1.2c1.2-1.1 1.5-1.4 1.2-1.4 0 0-.7.5-1.3 1.3m59.5 3h9.1v5.4c-.1 3 0 5.3.1 5.1.2-.2.3-2.6.2-5.5v-5.1h-18.5 9.1m-64 1.9l-1 1.3 1.2-1.2c1.2-1.1 1.5-1.4 1.2-1.4 0 0-.7.5-1.3 1.3m126.1 9.1l-1.8 3-.5 1h7.2l-1.4-2.7c-.9-1.5-1.6-2.9-1.8-3-.1-.2-.9.6-1.7 1.7m-133.5 0c-.5.6-.8 1.2-.6 1.2l1-1.2.7-1.2c-.1 0-.6.5-1 1.2m51.2 27.3v27.5l5.4-.1 5.5-.1-5.3-.1-5.3-.2v-27.3l-.2-27.2-.1 27.5m-38.8-25.5h2.2c.6 0 .1-.1-1-.1-1.3 0-1.8 0-1.2.1m5.2.4h1.4c.4 0 0-.2-.7-.2-.8 0-1 .1-.7.2m-13 3.7l-1.3 1.5 1.5-1.4 1.5-1.5c0-.3-.3 0-1.6 1.4m27 2.8c0 .1.5.2 1.2.1.8 0 1.4-.2 1.4-.3 0-.3-2.3-.1-2.5.2m-7.2 1.1h1.8c.5 0 .1-.1-.9-.1s-1.4 0-.9.1M51.1 190c-.5.9-.8 1.7-.7 1.8l1-1.7c1.1-2.2.8-2.3-.3-.1m44.3 1.4c1.7.3 4.8.3 4.6 0 0-.1-1.3-.2-2.8-.2-1.5 0-2.3.1-1.9.2m-36 3.6c0 2 0 2.8.1 1.9v-3.6c0-1-.2-.3-.2 1.7m36.4-2.4h2.2c.6 0 .1-.1-1-.1-1.3 0-1.8 0-1.2.1m-31.2 3c0 .7 0 1 .2.7v-1.4c-.1-.4-.2-.1-.2.7m151.2 4c0 .7 0 1 .2.7v-1.4c-.1-.4-.2-.1-.2.7M27 204.9h1.8c.5 0 .1-.1-.9-.1s-1.4 0-.9.1m63.4 1.6l-1.9 1.8 1.8-1.5c2.4-2 2.6-2.1 2.3-2.1l-2.2 1.8m-26.5 0l1.6 1.4s-.4-.7-1.2-1.4a8.7 8.7 0 0 0-1.6-1.4l1.2 1.4m14-.5c.2.3.3.6.1.8-.1.1.1.3.5.3.7 0 .7 0 0-.8-.8-1-1.3-1.2-.6-.3M67 208.9c0 .2 3.3 1.8 3.4 1.7.1-.1-.6-.6-1.6-1-1-.5-1.8-.9-1.8-.7M179 220.5c0 5.7 0 8 .1 5a263.2 263.2 0 0 0-.1-5m18.4 0c0 5.7 0 8 .1 5a263.2 263.2 0 0 0-.1-5m5.2 0c0 5.7 0 8 .1 5a263.2 263.2 0 0 0-.1-5m3.6 0c0 5.7 0 8 .1 5a263.2 263.2 0 0 0-.1-5M89.4 211c.1.3.4 1.4.5 2.4l.3 1.8v-1.7c0-1-.2-2-.5-2.4-.4-.4-.5-.5-.3-.1m121 9.6c0 5.6.1 7.9.2 5a251.3 251.3 0 0 0-.1-5m-20.4.2c0 5.5 0 7.8.1 5a241.5 241.5 0 0 0-.1-5m-110.9-7.1c.7.3.7.3 0 1-.5.4-.9 1-.9 1.1 0 .2.4-.1 1-.7 1-1.2 1-1.8-.1-1.7-.6 0-.6 0 0 .3m10 2.2c-.4.5-.4.8 0 1.3.3.7.4.7.1 0-.1-.4 0-1 .2-1.3.3-.3.4-.5.3-.5l-.7.5M40 225.5c0 .7 0 1 .2.7v-1.4c-.1-.4-.2-.1-.2.7m48.3-1.1l1.3 1.3 1.3 1.2-1.2-1.3c-1-1.3-1.4-1.5-1.4-1.2M10 228.7c0 .7 0 1 .2.7V228c-.1-.4-.2-.1-.2.7m83.4 1.6c.3 1.7.5 2 .5.7 0-.5-.2-1.2-.4-1.5-.3-.5-.3-.2-.1.8m-70-.6c.5.1 1.2.1 1.6 0l-.9-.1c-.9 0-1.2 0-.7.1m-11.8 2.4H13c.4 0 0-.2-.7-.2-.8 0-1 .1-.7.2m262.2.4h2.8c.8 0 .2-.1-1.3-.1s-2.2 0-1.5.1m7.4 3.4c0 1.6.1 2.3.2 1.5v-3c0-.9-.2-.2-.2 1.5M0 239c0 1.8.1 2.6.2 1.7v-3.4c0-1-.2-.2-.2 1.7m40.7-2.7c.5.7 2 1.6 2 1.3l-1.3-1c-.8-.6-1-.7-.7-.3M42 241c-2.9 1.8-3.2 5.4-1.3 16 7.3 41.8 38 75 78.6 85.3 10.4 2.6 20.3 3.7 22.6 2.4 3-1.6 2.8 2.3 2.7-52.3v-49L143 242l-1.5-1.5-49.1-.1c-48.1-.1-49.1-.1-50.4.6m207.9.7c.6.6 1.4 1.6 1.6 2.3.2 1 .3 1 .4.4 0-1-2.1-3.7-2.9-3.7-.2 0 .2.4.9 1M0 243.9c0 .7 0 1 .2.7v-1.4c-.1-.4-.2-.1-.2.7m146.9 49a6955.9 6955.9 0 0 0 0 0m-77-43l1.1 2.5h4.8c4.6-.2 5.7 0 9.4 1.6.6.3.9 0 1.6-1.8 2-4.6 3-6.6 3.3-5.9.2.4-.5 2.2-1.6 4.6l-1.8 4 1.6 1.6c2 1.9 1.6 2.7-.5 1.4-2.3-1.4-3-.4-3 4 0 1.2-.3 2.4-.6 2.7-.4.4-.3.5.4.4.5 0 3.7-3.2 7.7-7.5 3.8-4.1 7-7.4 7.3-7.4.9 0-.1 1.2-6.7 8.2-4.3 4.6-7 7.9-7 8.4 0 .4-.3 1.4-.6 2.2-.8 2 .1 1.8 4.1-.9 3.2-2.1 3.3-2.2 2.7-3-1.5-2.2-.9-2.7 2.6-2.7h3.1l3.8-2.6a29 29 0 0 1 4.3-2.6c1 0 .2.7-2.7 2.8-3.7 2.6-2.6 3.5 1.6 1.3a19.1 19.1 0 0 1 13.5 0c2.2 1 2.6 1 7.7 1h5.5v1.1c0 1.1-1 2.6-1.8 2.6-.3 0-.7.4-1 1-.2.5-.8 1-1.4 1.2-1.2.3-1.4 1-.7 3.5.3 1.1.5 2.5.5 3 0 .6.3 1 .8 1.1.7.2.8.6.8 2.2v2h-6.6c-7.8 0-6.9-1.1-7.1 8.5l-.2 6.7 1-.7c.5-.4 1.6-2 2.5-3.6 4.2-7.4 10.3-9.9 16.4-6.6 3.3 1.7 3.6 2.2 1.9 2.4-.7 0-2 .7-3.2 1.3-1.8 1.2-2.1 1.2-4.4 1-2.9-.4-3.2-.1-5.6 4-1 1.5-2.4 3.6-3.4 4.6l-1.8 2 1 1.1c2.3 2.7 2 7-.8 9.6l-1.8 1.7 1.1 1.2c2 2.1 1.8 6-.7 8.6-.6.7-.6 1-.3 1.9.5 1.4 0 2.7-1.7 4-1.1.9-1.5 1.5-1.6 2.5-.2 2.4-2.6 3-3 .8-.2-2.1-.5-2.6-2-3-1.7-.6-2.4-2-1.7-3.7.5-1 .4-1.3-.3-1.8-2.6-1.8-3.2-6.7-1.1-9l1-1-1.2-1c-3.6-2.5-3.7-8.1-.3-11.8.5-.5.6-1 .4-1-1 0-3.4-2.6-5-5.4-2.4-4.6-2.6-4.7-6-4.3-2.8.2-3 .2-4.4-1a5.7 5.7 0 0 0-2.3-1.2c-1.1 0-2-.5-1.8-.9.2-.2.6-.3 1-.3s1.5-.7 2.3-1.4c4.3-3.5 10-1.4 14.8 5.6 2.1 3.1 4.6 5.4 5.1 4.9V287l-.3-7.2H94.4v-2c0-1.8 0-2 .8-2.1.9-.1 2-3.2 1.4-3.8-.6-.6-8.8 4.5-10 6.1a7 7 0 0 1-5.7 3c-1.8 0-1.9.8-.3 2.5 1 1 1.1 1.4 1.1 4 0 1.6.2 3 .3 3.4.4.5 1.9 13 1.9 15.7 0 2.6-1.2 3.6-4.3 3.9-3.2.2-5.1-1.3-5-4 .2-4.8 1.5-15 2-15.7 1.6-2.3.3-3.9-4.6-5.4-9-2.8-14.2-7.7-15.5-14.4l-.4-2.6-4-2.3c-3.6-2-5-3.1-3.9-3.1.3 0 2.2 1 4.3 2.1l3.8 2.2.6-2.2.8-2.7c.2-.4-.8-1.3-3-2.8-3-2.1-3.8-3-2.8-3 .3 0 1.8 1 3.5 2.1l3 2.2 2.4-2.5 2.3-2.4-2.6-2.6c-2.4-2.5-3.1-3.6-2.2-3.6.2 0 1.5 1.2 3 2.8 1.3 1.5 2.6 2.8 2.8 2.8a62 62 0 0 0 5.8-2.7s-.5-1.5-1.3-3.2c-.8-1.6-1.4-3.2-1.3-3.4.4-.5 1.2.7 2.6 3.8m181.7-2c0 1.4.1 1.9.2 1.1v-2.4c-.1-.6-.2 0-.2 1.4m-54.9 0c.6.7 1 1.2 1.2 1l-1-1.2-1.1-1 1 1.2m1.3 7.4c.3.4 3.4 2 3.6 1.9 0-.1-.7-.6-1.8-1.2s-1.9-.9-1.8-.7m62 1.2v.9c.2-.5.2-1.4 0-1.8v.9m-183.5.1c-3.4.7-3.6 2-.7 3.2 1 .4 1.8 1 1.9 1.3.4 1 1 .6 1-.8 0-.8 0-1.4.3-1.4.2 0 .4.6.4 1.4 0 1.5.4 1.7 1.2.7.3-.3 1-.9 1.7-1.2 4.7-2.4.8-4.6-5.8-3.2m149.8-.3h1.4c.4 0 0-.2-.7-.2-.8 0-1 .1-.7.2m-70.5 1.2c-.4.6-.8 1.4-.8 1.7 0 .4.3 0 .6-.6.3-.7.9-1.5 1.3-1.7.4-.2.5-.4.2-.4-.2 0-.8.4-1.3 1m-85.7 1.7l-1.5 1.1 2 2.3c2 2.2 4.1 3.2 3.2 1.5-.2-.4-.4-1.6-.4-2.6 0-3.5-.9-4.1-3.3-2.3m143.2.7h1.8c.5 0 .1-.1-.9-.1s-1.4 0-.9.1M67 262.6c-1.8 3-1.8 3 1.7 5.4 3.6 2.6 5.6 3 4.6 1.2-.3-.7-.7-1.6-.8-2.2-.2-1-4-5.5-4.5-5.5-.2 0-.6.5-1 1m131.8 3c0 .7 0 1 .2.7v-1.4c-.1-.4-.2-.1-.2.7m-108.6 3.2c-2.1 1.4-3.5 2.6-3.5 3 0 .4-.3 1.3-.6 1.9-.8 1.6-.8 1.9.4 1.9.9 0 9-4.1 10.5-5.3.6-.5.1-2-.7-2-.4 0-1-.4-1.5-1-1-1.2-.5-1.3-4.6 1.5m97-.6c0 .8 0 1.1.2.6v-1.6c-.1-.3-.2 0-.2 1m-122 1.3c0 2.8 0 2.8 3 4.6 1.9 1.2 5 2 5 1.3l-.9-1.6-.8-2c0-.4-5.7-4.6-6.2-4.6-.1 0-.2 1-.2 2.3m34.6-2c.9 0 1.7.3 2 .6.2.3.2.3.1-.1-.1-.5-.7-.7-2-.7-1.7 0-1.7 0-.1.1m22.5 0c.5.1 1.2.1 1.6 0l-.9-.1c-.9 0-1.2 0-.7.1M64 269.5c0 1.2.1 1.7.2 1v-2.1c-.1-.7-.2-.2-.2 1m95.3 6.8c0 4.4.1 7.9.3 7.8.2-.1.3-3.7.3-8a51 51 0 0 0-.3-7.7c-.2 0-.3 3.5-.3 8m65.2 0c0 4.3.1 7.8.3 7.7.2-.1.3-3.7.3-8a51 51 0 0 0-.3-7.7c-.2 0-.3 3.5-.3 8m-26.5 0c0 1.2.1 1.7.2 1v-2.1c-.1-.7-.2-.2-.2 1M66.7 275c0 1.2 3.9 4.5 6 5.2 1 .2.9.2-.3-1-.7-.7-1.3-1.5-1.3-1.8 0-.2-.9-1-2-1.5-2-1.2-2.4-1.3-2.4-1m30.5.3c.2.5 2.1.6 14.5.6h14.4l-14.2-.1a69.6 69.6 0 0 1-14.7-.5m90.8 5.8c0 .8 0 1.1.2.6V280c-.1-.3-.2 0-.2 1m9.6 1.2c0 1.3.1 1.8.2 1v-2.4c-.1-.6-.2 0-.2 1.4m-121-.4c1.7.7 2.1.7 2.1 0 0-.5-.4-.6-1.7-.6h-1.7l1.4.6m112.5 1.8c0 .7 0 1 .2.7v-1.4c-.1-.4-.2-.1-.2.7m-75.2 1.4c0 .8 0 1.1.2.6V284c-.1-.3-.2 0-.2 1m102.5-.9c-.2.3-.2 1-.1 1.3 0 .5.2.3.4-.5.2-1.4 0-1.7-.3-.8m-106.9 1.3c0 .8 0 1.1.2.6v-1.6c-.1-.3-.2 0-.2 1m110.6 0c6.8.3 13.2.3 13 0 0-.1-3.7-.2-8-.2s-6.6.2-5 .2m20.4 1.6c-1 2-.8 2.3.2.4.4-.8.7-1.6.6-1.7 0 0-.5.5-.8 1.3m-43.3.2c0 .6.3 1 .7 1 .5 0 .5 0 .1-.1-.3-.1-.6-.6-.7-1-.1-.8-.2-.8-.1 0m-13.3-.5h2.2c.6 0 .1-.1-1-.1-1.3 0-1.8 0-1.2.1m-32.5.8c0 .3.4.9.8 1.4l.9 1-.7-1.2c-1-1.6-1-1.6-1-1.2m65.2 0c0 .7 2.8 3.8 3.3 3.8.2 0 0-.4-.7-1a9.5 9.5 0 0 1-1.8-2c-.5-.7-.8-1-.8-.7m-19.9 4.7c0 .8 0 1.1.2.6v-1.6c-.1-.3-.2 0-.2 1m-37.4-.8c.5.1 1.2.1 1.6 0l-.9-.1c-.9 0-1.2 0-.7.1m65.2 0c.5.1 1.2.1 1.6 0l-.9-.1c-.9 0-1.2 0-.7.1m-11 5.8c-.6.6-.9 1.2-.7 1.2l1-1.2.7-1.2c-.1 0-.6.5-1 1.2m3.1 4.8c-.5.6-.8 1.2-.6 1.2l1-1.2.7-1.2c-.1 0-.6.5-1 1.2m14.5.2c-.6.8-1 1.4-.7 1.2.5-.3 2.3-2.6 2-2.6-.1 0-.7.6-1.3 1.4m17.1-.4h1.4c.4 0 0-.2-.7-.2-.8 0-1 .1-.7.2m-134 3.6c0 2.3 0 2.3.7 1.6 1-.9 1-1.4.3-2.8-.7-1.7-1-1.2-1 1.2m-6-.8c-.7 1.4-.6 2 .3 2.8.8.7.8.7.8-1.6 0-2.4-.4-2.9-1.1-1.2m166.5 1.4l-.4 1.2.8-1.2.4-1.2s-.5.5-.8 1.2m-164.5 1.6c0 .7 0 1 .2.7v-1.4c-.1-.4-.2-.1-.2.7m-93 .8c.2.6.6 1.2.7 1.2.1 0 0-.6-.4-1.2-.3-.7-.7-1.2-.8-1.2-.1 0 0 .5.4 1.2m14.3 1.4c0 .8 0 1.1.2.6v-1.6c-.1-.3-.2 0-.2 1m127.8.8v2.4c0 .5.2.8.7.8h.1c-.5-.3-.6-.7-.4-2.7v-2.3c-.2 0-.3.8-.4 1.8m49.7 2.2c-.5.6-.8 1.2-.6 1.2l1-1.2.7-1.2c-.1 0-.6.5-1 1.2m11.1 2.3l-3.4 3.5 3.5-3.4a80.9 80.9 0 0 0-.1-.1m4.8-2l-1.4 1.5 1.5-1.4 1.5-1.5c0-.3-.3 0-1.6 1.4m-27.7 2h1.6c.4-.2 0-.2-.9-.2s-1.2 0-.7.1M109 317a2 2 0 0 0 .3 1.5c.5.7.6.6.6-.7 0-1.6-.6-2-.9-.8m-48.4 1.1c.3.1.4.4.2.7-.1.2 0 .3.1.2.2-.2.6-.1 1 .2.4.3.3 0-.2-.5-.4-.4-1-.8-1.2-.8-.2 0-.2.1.1.2m134.2 3.4c0 .7 0 1 .2.7v-1.4c-.1-.4-.2-.1-.2.7m1.3-.8l1.6.3c.6 0 .6 0-.2-.3-1.4-.5-2.4-.5-1.4 0m39 2.2a10.2 10.2 0 0 0-2 2.2l2.4-2.2c2.8-2.9 2.5-2.9-.5 0m-44.2 0c0 1 .1 1.5.2.8v-2c-.1-.4-.2 0-.2 1.2m-134.7 3l-1.2 1.4 1.3-1.2c1.2-1.1 1.5-1.4 1.2-1.4 0 0-.7.5-1.3 1.3m-2 6.4l-1.2 1.3 1.3-1.2c1.2-1.1 1.5-1.4 1.2-1.4 0 0-.7.5-1.3 1.3m140.6 1c-.8.5-1.2.8-1 .8.4 0 2.6-1.1 2.6-1.4 0-.2 0-.2-1.6.7m-157.2 3.3l1.3 1.3 1.3 1.2L39 338c-1-1.3-1.4-1.5-1.4-1.2m213.8 2.4l-1.6 1.7 1.7-1.6 1.7-1.7c0-.3-.3 0-1.8 1.6m-90.9 5.3h1.4c.4 0 0-.2-.7-.2-.8 0-1 .1-.7.2m-3 .4c.5.1 1.2.1 1.6 0l-.9-.1c-.9 0-1.2 0-.7.1m-6.6.4h1.4c.4 0 0-.2-.7-.2-.8 0-1 .1-.7.2m2.8 0h1.4c.4 0 0-.2-.7-.2-.8 0-1 .1-.7.2m-8.8 2.4h2l-1-.1c-1.2 0-1.6 0-1 .1m16.3 6.2c0 .2.4.4 1 .3.6 0 .7 0 .2-.3-.8-.5-1.2-.5-1.2 0m-13 1.6c-.8.3-.8.3 0 .3.6 0 1-.1 1.2-.3.3-.5 0-.5-1.2 0m-65.8 15l1.4.5c.2 0 0-.2-.6-.5-.5-.4-1.2-.6-1.4-.6-.2 0 0 .2.6.6"/>
    <path fill="#bcd3e7" d="M140.4 2.5v2.1l-2 .2-1.9.1h2c2.1.2 2.3-.1 2.1-2.7-.2-1.7-.2-1.7-.2.3m10.4.5v2h4.1l-1.9-.2-1.9-.2-.1-1.9-.1-1.8-.1 2m0 12.3c0 1 .3 1.6.7 1.8.4 0 .5 0 .1-.2-.2-.2-.5-1-.6-1.7-.2-1.4-.2-1.4-.1.1m-10.5.3c0 .7 0 1 .2.7v-1.4c-.1-.4-.2-.1-.2.7m-7.1 5.3L132 22l1.3-1.2c1.2-1.1 1.5-1.4 1.2-1.4 0 0-.7.5-1.3 1.3m33.3 5.5c.3.3.5 2.1.6 4l.1 3.4.1-3.5c0-2.9 0-3.5-.6-4s-.6-.5-.2 0m-43 4c0 2 .1 2.7.2 1.8v-3.4c0-1-.2-.2-.2 1.7m-19 19.5l-1.3 1.5 1.5-1.4 1.5-1.5c0-.3-.3 0-1.6 1.4m5.6 1.4l1.3 1.3 1.3 1.2-1.2-1.3c-1-1.3-1.4-1.5-1.4-1.2m67.6 2.2l-1.4 1.5 1.5-1.4c1.4-1.3 1.7-1.6 1.4-1.6 0 0-.8.6-1.5 1.5m-78.4 2L98 56.9l1.5-1.4 1.5-1.5c0-.3-.3 0-1.6 1.4m-34.3 5.9c-1.4 1-1.8 2.3-1.2 4.2.6 2.2 0 3.6-3 5.7-6.7 4.8-8 6.8-6 9.5 1.3 2 1.1 2 4.4-.7 1.5-1.3 3.8-3 5.2-4 2-1.2 2.5-1.8 2.9-3 .8-2.7 4-4 6.4-2.7.6.3 2 .1 5.5-.8 2.6-.6 5.6-1.3 6.8-1.4l2-.3-.5-1.9c-1.1-3.6-2.1-3.8-10.7-2-4.7 1-5.7.8-6.8-1-1.3-2.3-3.2-2.9-5-1.6m28 .7l-1 1.3 1.2-1.2c1.2-1.1 1.5-1.4 1.2-1.4 0 0-.7.5-1.3 1.3m118.5-.3c.5.1 1.2.1 1.6 0l-.9-.1c-.9 0-1.2 0-.7.1m-158 12.5l-1.3 1.5 1.5-1.4 1.5-1.5c0-.3-.3 0-1.6 1.4m30.7-1A45.2 45.2 0 0 0 63 83.5c-3.7 3-3.6 3-2.6 4.6 1.8 3 2 3 5.2.3 1.7-1.4 3.8-2.8 4.7-3.3 1-.6 1.7-1.2 1.7-1.7 0-3 5-5.4 6.8-3.2.4.4 1 .3 3.2-.5 1.5-.5 4-1.2 5.6-1.4 3-.6 3-.5 2.3-3.3-.6-2.4-.8-2.4-5.2-1.6m132.7 1.4c-.5.6-.5.8-.2.5.4-.3.8-.4 1-.2.2.1.2 0 0-.2 0-.3 0-.6.3-.7.3-.1.3-.2 0-.2-.2 0-.7.4-1.1.8m2.1.3l.1 3 .3 2.9v-3.1c.1-2.9 0-3.7-.4-2.8m-5.4 4.5c0 .7 0 1 .2.7v-1.4c-.1-.4-.2-.1-.2.7m-3.5 2l1.3 1.5h.3c.1-.1-.5-.8-1.3-1.6l-1.5-1.3 1.2 1.4m-123.2 2c-8 1.4-13.6 4.2-19.9 9.8l-1.8 1.6 1.6 2c1.6 2 1.7 2 2.5 1.5l3.6-2.5c2.4-1.6 3-2.1 3.5-3.7 1-2.8 3.4-3.8 6-2.5 1.3.5 1.6.5 4.9-.4 2-.6 3.9-1 4.3-1 .6 0 .7-.2.6-1-.2-.4-.4-1.6-.5-2.6-.4-2.1-.1-2-4.8-1.2m118 5.6c-.2.2 1 .3 2.7.3 3 0 2.8-.2-.6-.4-1-.1-2 0-2.2.1M91.4 93.5a39.2 39.2 0 0 0-19 9.4c-.1.1.1.5.5 1 .7.7.7.7 3-1 3.6-2.8 9.3-5.6 13.7-6.7 3.8-.9 4-1 4-2 0-.6-.2-1.1-.4-1.1l-1.8.4M268 121.3c0 .8 0 1.1.2.6v-1.6c-.1-.3-.2 0-.2 1M20.4 131.9c0 1 0 1.3.2.9V131c-.1-.5-.2-.1-.2.9m115 1.6a106.7 106.7 0 0 0-90.8 73.2c-3.8 12.3-5.7 25.9-4 28.8 1.5 2.5-1.5 2.4 51.4 2.4 53.9 0 50 .2 51.6-2.9 1.2-2.2 1.1-97.5 0-99.4-1.4-2.2-2.7-2.5-8.3-2m128.3 4.4c0 .6 0 .7.2.2 0-.4.6-.8 1.2-.9 1-.1 1-.1-.2-.2-1.1 0-1.3 0-1.2.9M121 156.5v9.8h18.4v11.2h-18.4v54.8H110v-54.8H92v-11.2h18v-19.6h11.2v9.8m-41.4 22.7c6.4.1 7.9.6 10.6 3.7 1 1.1 1.6 1.5 3.1 1.7l1.9.3-1 .6c-.6.4-1.6.8-2.3 1-.8.1-2.2.6-3.2 1-3 1.4-6.5 1.3-9.6-.4-4-2.2-10.1-1.2-11.8 2-3.6 7.1-1 13 7.4 16.2 3 1.2 3.3 1 .9-.7-5-3.4-6.2-5.3-6.5-10.2L69 191h31.4l-.2 2.7c-.4 5.2-1.6 7-7.4 11.3-4 3-4.6 3.8-3.3 5.4 1.2 1.6 1.4 3.5.5 5-.6 1-.7 1.6-.5 2 .7 1 .4 2.7-.4 3.6-1.5 1.4-1 2.6 2 5.5 2.5 2.4 2.8 2.8 2.8 4.2v1.5H75.1v-1c0-1.7 1-3.2 3.3-5.2l2.2-1.8-1.3-2.7c-1.6-3.2-1.7-5.2-.6-6.7.8-1 .8-1 .2-1-1.7 0-11-4.2-13.4-6a16.1 16.1 0 0 1-4.7-20.8c2.4-5 8.5-9 12.3-8.1l6.6.2m82.8 42.1c-.3 1 0 1.1.6.2.2-.5.3-.8 0-.8l-.6.6m59.3.7c.4.8.7 1.4.8 1.3.2-.2-.9-2.6-1.2-2.6-.1 0 0 .6.4 1.3M.4 225c0 .8 0 1.1.2.6V224c-.1-.3-.2 0-.2 1m290.4.8c0 .8 0 1.1.2.6v-1.6c-.1-.3-.2 0-.2 1m.4 5.2c0 1.3.1 1.8.2 1v-2.4c-.1-.6-.2 0-.2 1.4m-141.5 10.4c-2.8 1.3-2.6-2.4-2.6 51.5 0 53.7-.2 50.3 2.5 51.7 3.9 2 24.5-2.2 37.3-7.5a111.3 111.3 0 0 0 42.9-33c10.8-13.5 18.9-33.2 21.1-51.3 1-8.3.7-10.2-1.8-11.4-1.7-1-97.6-1-99.4 0m141.5 6.4c0 1.3.1 1.8.2 1v-2.4c-.1-.6-.2 0-.2 1.4M196 247c2.3 1.2 3.4 4.4 2.4 7.6-.3 1 4.6 3.2 9.2 4.1 6 1.2 15.6 1.5 15.6.6 0-1.2 2.3-3 3.9-3 5 0 5.6 7.3.7 8.2-1.7.3-1.8-.2.7 5.5a4141.5 4141.5 0 0 1 6 14c1.9 4-4.6 9.2-10.2 8.5-7.4-1-9.3-4.9-6.1-12.4 4.5-10.3 6.2-14.5 6.2-15 0-.3-3.3-.4-12.6-.4h-12.6v1.2c0 1.4-1 17-1.4 20l-.2 2h2.2c1.5 0 2.8.2 3.9.8 3.8 2 7 2.8 10.7 3.1l3.8.3-.1 1.7a6 6 0 0 0 .7 3.3l.8 1.5-5.7 8a14087.9 14087.9 0 0 1-10 14.4c-1 1.5-1.1 1.5-5 .5a49 49 0 0 0-3.4-.8c-.2 0-.3 1-.3 2.5 0 6.5-4 6.6-4.5 0-.4-4.3-.1-4-3.5-4.5-2.5-.5-3-.5-3.6.1-1.7 1.6-5 1.2-6.9-1-1-1-6.2-2.3-14.3-3.4-3-.4-3.2-.7-3-3.1.2-1.4.1-2.4-.2-3-.8-1.5-1-1.2 5.6-11.2 10.1-15.6 9-14.3 11.3-12.9 2.1 1.3 11.2 2.5 12.1 1.6.2-.2-.8-15-1.2-19l-.3-2.1H174c-8.7 0-12.8 0-12.8.4a111.8 111.8 0 0 1 3 7l3.6 8.4 1.9 4.4-.7 2c-2.4 7.8-16.5 7.2-18-.8-.1-1 0-1.9 1-3.7a156.3 156.3 0 0 1 4.5-10.4c1.5-3.4 2.8-7 2.6-7.1l-1.3-.5c-4.3-1.4-3.3-8.1 1.2-8.1 1.5 0 3.6 1.4 4 2.8.7 2 17.4 0 22.6-2.7l2.7-1.4-.5-1.5c-1.7-4.8 3.5-9 8.2-6.5m95 5.9v.6c.2-.4.2-1.2 0-1.6v1m-290.5.6c0 .7 0 1 .2.7v-1.4c-.1-.4-.2-.1-.2.7m75-.2h1.8c.5 0 .1-.1-.9-.1s-1.4 0-.9.1m-11.8 16.2c0 1 0 1.3.2.9v-1.8c-.1-.5-.2-.1-.2.9m97.1 6.7v7.7h3.2c3.8 0 3.7.4 1.3-5a510.2 510.2 0 0 1-4.3-10.2c-.1-.1-.2 3.3-.2 7.5m65.2.2v7.5h3.2c1.8 0 3.2-.1 3.2-.2L230 278l-2.9-7c-1-2.7-1.2-2-1.2 5.4m-2-5.8a241 241 0 0 0-5 11.8l-.6 1.5h6.4v-7.2c0-7.8 0-7.8-.8-6.1m-66.4 2.8a427 427 0 0 1-4.3 10c-.1.3.6.5 2.9.5h3V277c0-8 0-7.8-1.6-3.7m25.7 14.3h3.6l-1.9-.1c-2 0-2.7 0-1.7.1m5.6 8.2c0 .7 0 1 .2.7v-1.4c-.1-.4-.2-.1-.2.7m.3 6.5l.2 2.5.1-2.2c0-1.2 0-2.3-.2-2.5-.1-.2-.2.8-.1 2.2m-17.7 6.1h2.6c.7 0 .1-.1-1.3-.1-1.4 0-2 0-1.3.1m18.2 1.2c0 .8 0 1.1.2.6v-1.6c-.1-.3-.2 0-.2 1m-4.8.8h1.4c.4 0 0-.2-.7-.2-.8 0-1 .1-.7.2m-147 27l1.7 1.6a7 7 0 0 0-1.4-1.6c-.9-1-1.6-1.6-1.8-1.6a7 7 0 0 0 1.4 1.6m206.8 8.9l-1.6 1.7 1.7-1.6 1.7-1.7c0-.3-.3 0-1.8 1.6m-197.6.3l1.8 1.6a7 7 0 0 0-1.4-1.6c-.9-1-1.6-1.6-1.8-1.6a7 7 0 0 0 1.4 1.6m92.7 38.2h1.4c.4 0 0-.2-.7-.2-.8 0-1 .1-.7.2m10.8 0h1.4c.4 0 0-.2-.7-.2-.8 0-1 .1-.7.2"/>
  </g>
</svg>
