<svg xmlns="http://www.w3.org/2000/svg" width="400" height="475" display="block">
  <g fill-rule="evenodd">
    <path fill="#ab5153" d="M202 179v49a53 53 0 0 0 7 1 83 83 0 0 0 16 2 118 118 0 0 0 20 0v41h99v-4a85 85 0 0 0-1-13 85 85 0 0 0-2-11 57 57 0 0 0-3-10 37 37 0 0 0-2-6l-1-3-1-3a23 23 0 0 0-2-4 144 144 0 0 0-27-42 161 161 0 0 0-30-25h-1a15 15 0 0 0-2-1l-2-1-1-1a2044 2044 0 0 1-10-5l-3-2-2-1-2-1-3-1-3-1-3-1-3-1-3-1h-4l-4-1a141 141 0 0 0-25-3h-2v49m13-27c1 2 2 5 1 7a13 13 0 0 0-2 5l1 5c2 4 2 7 0 10-2 4-2 5-1 8 1 1 1 1-1 1s-2 0-3-2 0-4 2-8c2-3 2-4 0-8s-2-7 0-11v-6c-1-2-1-2 1-2l2 1m9 0v8c-2 4-2 5 0 9l1 5-2 6-1 2a35 35 0 0 1 8-9v-3c-2-5-2-7 0-11v-6c-1-2-1-2 1-2s2 0 3 2 1 4-1 7a10 10 0 0 0 1 10l5-3c-1-2 0-5 1-8v-6c-1-2-1-2 2-2 2 0 2 1 2 5 1 1 0 1-1 5a9 9 0 0 0-1 5h2c18-5 39 1 49 13s7 28-7 33h22v4h-95v-2c0-5 1-7 5-8 4-2 4-2 0-4-6-4-8-7-8-10v-1h35l-1 1c0 3-2 6-8 10-3 2-3 2-2 3l3 1 5 5v1h31l-2-1a14 14 0 0 1-3-24l1-1-2-2c-5-4-13-6-23-4l-2 1v1c-1 1-1 3 1 5l-2 1c-2 0-3-1-3-4v-1l-2 1a18 18 0 0 0-2 3l-2 1c-2 0-2 0-2-2 8-14 33-14 43-1 1 2 1 2-1 3-8 5-6 18 4 20 15 4 24-12 14-26-16-21-58-18-66 4l-2 2c-2 0-2 0-3-2s-1-4 1-7c2-4 3-5 0-9-2-5-2-7 0-10s2-5 0-8l2-1 2 1m-9 42l1 2c0 1 2 3 5 4 5 3 5 5 0 7-3 2-4 3-4 5h21-1c0-2-1-3-4-5-4-2-4-4 1-7l5-4c2-2 3-2-12-2h-12m52 31c2 1 2 1 1 3-2 3-2 5 0 8 5 6 6 8 4 13-1 6-9 9-14 6v-1l2-4c1-1 0-3-3-6-4-5-4-10-1-15 2-3 7-5 11-4m22 0l2 2c-3 4-3 6 1 11 6 7 3 16-5 18-4 1-9-1-7-2 3-2 4-6 1-9a16 16 0 0 1-4-6 11 11 0 0 1 12-14m23 0c1 1 2 1 1 2-3 4-3 6 0 10 5 5 6 9 3 14-2 4-9 7-13 4v-1c3-3 3-5-1-10s-5-9-2-14c2-4 7-6 12-5m-50 3c-5 2-6 8-2 13 5 6 5 8 3 11-1 1-1 1 1 1 6-2 7-7 3-12a22 22 0 0 1-4-6v-6l1-1h-2m22 0c-5 2-6 8-2 13a26 26 0 0 1 4 5 7 7 0 0 1-1 7h1c6-2 7-7 3-13-4-4-4-5-4-7l1-5h-2m23 0c-4 2-6 6-4 10l3 5c3 3 3 6 2 9l-1 1h1c6-1 8-7 4-12-5-6-6-8-4-12v-1h-1M56 280a130 130 0 0 0 8 41v2a38 38 0 0 0 3 6l1 2 1 3a174 174 0 0 0 11 20l1 2a169 169 0 0 1 4 6 1494 1494 0 0 1 7 7 150 150 0 0 0 33 29 141 141 0 0 0 70 21h2v-75l-2-1a32 32 0 0 1-7-3 1400 1400 0 0 0-4-2l-2-1a36 36 0 0 1-4-3 90 90 0 0 1-7-7 53 53 0 0 1-8-12l-1-2-1-2-1-3a48 48 0 0 1-2-5 30 30 0 0 1-1-6l-1-3-2-14v-4H56v4m59 3v6l1 2c3 2 5 7 4 11l-1 1 2-1h7l2-2c7-8 7-7 8-6l1 1-1 1-5 5-4 5-3 6v1h1l6-5c4-4 4-4 5-3l1 1-5 5-5 5v1l-3 6-1 1h2l4-3 3-3 3-3 1 1 1 2-5 5-5 4v2c-1 6-8 11-13 9l-1 3c0 3 0 3 2 3 3 0 6 2 12 7 7 6 14 6 20 0 6-5 9-7 14-7s7 1 12 6c4 4 6 5 10 5h1v4h-2c-3 0-6-1-11-6-4-4-7-5-10-5-4 0-7 1-11 6-5 4-9 6-15 5-4 0-7-2-11-6-9-7-13-7-22 1l-7 4-1-1v-2l6-4c3-4 6-5 8-6h1v-4-3h-1c-5 2-13-4-13-10l-5-6c-5-5-5-5-4-6l1-1 1 1a190 190 0 0 1 8 8h3l-1-2a12 12 0 0 1-3-5v-1l-5-5c-5-5-5-5-4-6s1-1 6 4l5 4a4 4 0 0 1 1 0v-2a11 11 0 0 1-3-5v-1l-2-3a382 382 0 0 0-6-5l-1-2 1-1 1-1 4 4 5 5h7l1 1v-1c-1-3 1-8 3-11l1-1 1-3v-5l1-3h2v4m-3 10c-3 3-3 11 0 14 2 1 5-2 5-6 0-5-3-9-5-8m-11 12c-1 1 0 4 2 6 3 3 8 3 8 1 0-4-7-9-10-7m21 0c-3 1-6 4-6 6-1 4 7 2 9-2s0-6-3-4m-9 9l-2 2h-1 1l2 4 1-1 2-2 1-1h-1l-2-2h-1m-12 2c-2 1 0 4 2 6 3 3 8 4 8 1-1-4-8-9-10-7m19 1c-2 1-4 3-4 5-1 4 7 2 9-2 1-4-1-5-5-4m-7 10a3 3 0 0 1-2 1h-1l1 1 2 3v1l1-2 1-2 1-1-2-1-1-1v1m-12 1c-2 1 1 7 4 8 5 2 7 0 5-4-2-3-7-5-9-4m20 0c-3 1-7 6-5 8 3 3 10-2 10-7 0-1-2-2-5-1m-2 32c3 0 5 1 10 6 7 6 13 6 20 0l3-3a14 14 0 0 1 10-3c5-1 8 1 14 6 3 3 5 4 9 4h1v4h-1c-4 0-7-1-12-5-4-5-7-6-10-6-4 0-6 1-11 5-8 8-17 8-26 1-8-7-13-7-19-2l-2 1-1-2-2-1 2-1c5-4 10-5 15-4m1 14l8 6c8 7 14 7 22 0 9-8 16-8 25 0l10 5h1v4h-1c-4 0-7-2-12-6-4-4-6-5-10-5s-6 1-11 5c-4 4-7 6-12 6-6 0-9-1-15-6l-8-5-2-1-3-3a19 19 0 0 1 8 0m47 15c3 1 5 2 8 6l10 5h2v4l-2-1c-3 0-5 0-7-2l-6-4c-6-6-12-6-19 0l-2 2-4-2 1-1 3-2c5-5 10-6 16-5"/>
    <path fill="#b1906f" d="M213 151l2 1c1 0 1 0 0 0l-2-1h-1 1m7 0v1l2-1h2-4m10 0v1l2-1h1-3m10 0h1l2 1h1-1l-3-1m-28 1v1-1m28 0v1-1m-15 4s0 1 0 0v-1 1m-4 0h1v-1 1m9 0s0 1 0 0v-1 1m-19 3v0m18 1c-1 1-1 1 0 0v-1 1m10 0h-1 1c1-2 0-2 0 0m-25 0c0 1 0 1 0 0l1-1-1 1m28 0s0 1 0 0l1-1-1 1m-10 0s0 1 0 0l1-1-1 1m-13 0l-1 2 1-1v-1m3 2v1-2 1m6 2v1-1m28 0h1-1m-4 0h1-1m7 0h1-1m3 0h1-1m-20 2h1-1m29 0h1-1m-49 1v0c0-1 0-1 0 0m15 1h0m16 0h2-2m5 0h1-1m-8 0h1-1m11 0h1-1m16 0h-1 1m-55 0l1 1v-1m6 0v0m3 0l1 1-1-1m-18 1l1 1v-1h-1m55 0l1 1v-1h-1m-122 0h1-1m8 0h1-1m86 1h1v-1l-1 1m39-1l1 1-1-1m-43 3h-1 1a6 6 0 0 0 1-1l-1 1m39 0h0l-1-1 1 1m-137 0h1-1m24 0h1-1m57 0l1 1v-1h-1m9 1h-1 1l1-1-1 1m-88-1h1-1m20 0h1-1m63 1v1-2 1m-80-1h1-1m14 0h1-1m-39 1l-1 1 1-1v-1 1m160 0l1 1h1l-2-1m-63 1v1-1m11 1l-1 1 1-1 1-1-1 1m-3 0v1c0 1 0 1 0 0l1-1h-1m58 0l2 1h-1l-1-1m6 0l2 2 1 1-1-1-2-2m-39 1h1v-1h-1m3 0h1-1m6 1c1 0 1 0 0 0h-1m-113 0h1-1m14 0h1-1m67 1h-1 1l1-1-1 1m18-1h1-1m-96 0h1-1m8 0h1-1m129 1h1v1-1h-1m-21 1l2 1-2-1m23 0v1h1-1v-1m-103 1v1-1m-35 1l-1 1 1-1 1-1-1 1m-25-1v1-1m33 1l1 1-1-1-1-1 1 1m63 0h-1 1c0-1 0-1 0 0m32-1h0m42 1v1l-1-1h1m-66 0l-1 1 1-1s0-1 0 0m30 0h1-1c-1 0-1 0 0 0m30 0l1 1v-1h-1m-115 1v1-1m-43 1v-1 1m15 0h1l-1-1m89 1l-1 1 1-1v-1 1m29-1l1 1-1-1m7 0v1l1 1-1-1v-1m20 1l1 1-1-1c0-1-1-1 0 0m-141 1l1-1-1 1m61 0v0c0-1 0-1 0 0m12-1v1-1m-3 2v-1 1m22 0v1l1-1-1-1m55 0v1-1l-1-1 1 1m-71 0v1l1-1h-1m12 0v1-1l1 1-1-1m31 2l1 1-1-1-2-2 2 2m-55-1v1-1s0-1 0 0m23 0v1-1h1-1m-26 1c0-1 0-1 0 0m82 1h1l-1-1v1m-18 0v2h-1 1v-2h-1 1m-158 0l1 1v1-1l-1-1m95 1l2 1 2-1h-4m28 0l3 1 1-1h-4m58 0l1 1v-1h-1m-165 1l1-1-1 1m92-1l-2 1h-2 2l2-1m6 0c-1 1 3 1 4 1l-2-1h-2m36 1v1-1h1-1m-121 0h1-1m14 0h1-1m111 2l-1 1 1-1 1-1-1 1m24 0v1s0 1 0 0v-1m-128 1h1-1l-1-1 1 1m-27 0h-1 1l1-1-1 1m34 0v0c0-1 0-1 0 0m91 0v1c0-1 0-1 0 0m-54 0v-1 1m-48 0h1-1c0-1 0-1 0 0m132 2a27 27 0 0 1 0 4v-6 2m4-2l1 1v-1m-160 2v1-2 1m128 0v1-1c1-1 1-1 0 0m-40 0h-12 12m-12 1v1h1l-1-1m25 1h-1 1v-1 1m59 0v-1 1m-87 0v1-1c-1-1-1-1 0 0m50 1v1-1m-25 1l-1 1 2-2-1 1m-20 0h1-1m45 1v-1 1m-23 1c-1 0-1 0 0 0l1-1-1 1m-24-1l1 1-1-1m83 1v-1 1m-77 0l1 1-1-1m2 2l1 1v-1l-1-1v1m13 0h-1 1l1-1-1 1m-94 0h1c1 0 0 0 0 0h-1m7 0c1 0 1 0 0 0m3 1h1-1m-18 0h1-1m36 0h1-1m94 1v0m26 1a25 25 0 0 1-2 2l3-3-1 1m-127 0v1l1-2-1 1m107 0l1 1-1-1c-1 0-1 0 0 0m-39 0v1l1 1-1-1v-1m-14 1a4 4 0 0 0-1 1l3-1h-2m76 2l-1 1 1-1a20 20 0 0 0 2-2l-2 2m-120-1v1-1m61 0v1h1-1v-1m6 1l1 1-1-1-1-1 1 1m-74 0v0m118 0v1l1-1h-1m-70 1l-1 1h0m-69-1l1 1h1-1l-1-1m93 2h1-1m-20 1h10-10m70 0c-1 0-1 0 0 0l1-1-1 1m-126 1l-1 1 1-1 1-1-1 1m113-1h-32 32m11 0l12 1h11v3h-95 95v-4h-11a118 118 0 0 1-12 0m-133 5h1v-1h-1m-62 4v32c1 0 1 0 0 0v-32h4-4m39 0h2v32c-1 0-1 0 0 0v-32h-4 2m-47 0h1-1m-3 21v10a2439 2439 0 0 0 0-10m3-17v34-17a1347 1347 0 0 0 1-17m26 16v-16 16m155-15h1c1 0 0 0 0 0h-1m22 0h1-1m22 0h1-1m-5 2l1-1-1 1m-23 0v1-1l1-1-1 1m-23 1l-1 1 2-2-1 1m33 1l-1 1 1-1v-1 1m-28-1h0m24 0v0c-1 0-1 0 0 0m21 0h2l-1 1 1-1h-2m5 1l-1 1 1-1c1-1 0-2 0 0m-12 0l-1 2h1v-1-1m-18 1h-1 1v-1 1m22 0a5 5 0 0 0-1 1l1-1m-107 1a53 53 0 0 1-11 2l-27 1h-2v47a51 51 0 0 0 2 10 66 66 0 0 0 5 19 42 42 0 0 0 5 8 13 13 0 0 0 1 2l1 2a58 58 0 0 0 16 14l3 2h1a179 179 0 0 1 6 2h5a59 59 0 0 1 6-2h1a18 18 0 0 0 4-2l3-2 1-1 1-1 1-1a93 93 0 0 0 9-9v-1l3-3a65 65 0 0 0 8-19 52 52 0 0 0 2-10l1-31v-24h-2a209 209 0 0 1-29-1l-9-2h-5m88 2s0 1 0 0v-1 1m-31 0v1-1m57 1l1 1v-1h-1m-12 0v1-1m-19 1v1-2 1m10 0v1-1c-1-1-1-1 0 0m-14 1v1-2 1m-19-1v1-1m-3 1v-1 1m32-1v0m22 0l1 2-1-1v-1m-50 1v2-2m52 3l1 1v-1c-1-1-2-2-1 0m-22 0h1-1l-1-1 1 1m-22 0l1 1-1-1c0-1 0-1 0 0m-59 9v10h21v7l-1 7h-20v38l-2 1c-4 3-6 3-11 0l-1-1v-38h-20v-7l-1-7h21v-19h14v9m92-8l1 1v-1h-1m5 0v1-1c-1 0-1-1 0 0m-32 1v1-2 1m6 1l1 1-1-1v-1 1m-82 1v18h-20v8h20v39h1a5 5 0 0 0 5 1l1-1v-39h21v-8h-10l-10-1v-17h-8m84 1c1 1 1 1 0 0v0m-23 0h1l1 1-1-1h-1m45 0h1v1-1h-1m12 2c0 1 0 1 0 0v-1 1m4-1v1-1m-26 1v-1 1m-29 0h1l-1-1v1m7 0v1-1m12 1l1 1-1-2v1m5 2v-1 1m-4 0v1-1m-15 2h-1l2-1-1 1m26-1v1l-1 1 1-2m-22 1h-1l1-1v1m-8 0l-1 1 1-2v1m26 0l1-1-1 1m22 0l-1 1 1-1 1-1-1 1m4 1h-1l1-1v1m-34 0v1l1-2-1 1m3 0v1l1-2-1 1m-20 0v1a6 6 0 0 0 2-1h-1m4 1l-1 1 1-1a17 17 0 0 0 1-1l-1 1m17 0s-1 0 0 0m5 1h-1l2-2-1 1m11 0v1-1h1-1m-1 1v0c1 0 1 0 0 0m-37 2h-1 1c1 0 0 0 0 0m-5 0h4a23 23 0 0 0-4 0m45 0h2-2m-21 0h1c1 0 1 0 0 0h-1m-198 2h1-1m48 0h1-1m-50 4h1-1m52 0h1-1m-4 0h1-1m-2 0h1-1m-21 2h3-2m5 18v3-6 3m-3-2v1-1m195 1h19v10-10h-19m-76 2h1l1 1 1-1h2v1l-2 1-1 1v1l1 1h1v2l-8-1v-5c1-2 3-2 4-2m45 7v-6 6m47 0v5l-2-2-2-2 2 2 2 2v-10 5m-94-4v3h1l1-2c0-2-1-3-2-1m-55 1a92 92 0 0 0 1 6h-1l-1-3v-2h-2v4h-1c-1 1-1 1-1-1v-2h-3v-1l1-1h7m-62 1s0 1 0 0v-1 1m3 1v3h1l-1-3v-1 1m-5 4l-1 1a75 75 0 0 1 1-1m6-1l1 1-1-1m115 1c5 1 3 9-1 8-3 0-5-1-5-4 0-4 3-5 6-4m-118 1h1l1 1-1-1h-1m-24 0c0 1 0 1 0 0l6 5 4 4-4-4-5-5h-1m49 1l1 1-1-1-1-1 1 1m90 0c-2 2-1 4 2 4 1 0 2-1 2-3 0-1-3-2-4-1m-53 0v1l-8 2v-2l4-1h4m-41 2l-2 2 2-2 2-2-2 2m-23-1l-1 1 1-1c0-1 0-1 0 0m-22 1v0l-1-1 1 1m18 0v1-1c1-1 1-1 0 0m29 2l-3 3 3-2m114-2v5-3-2m-73 3c1 4 1 5-2 7-3 1-5 0-6-5-1-1-1-1 2-2l3-2c2 0 2 0 3 2m-86-2v1h1-1v-1m26 2v1-2 1m3-1v1-1m204 1l1 1-1-1-1-1 1 1m-214 0v1-1m-18 0l2 1 1 2-1-2-2-1m37 1l-1 1h-1l1 1 1-1 1-2-1 1m44 0l-2 1a6 6 0 0 0 1 3c1 1 4 0 4-2l-1-3-2 1m-71 0c1 0 0 0 0 0m1 0h0m19 0h0m104 1h2c1-1 3 1 3 2l-2 6-8-3 2-3c1-3 2-3 3-2m-119 0c0 1 0 1 0 0m24 1l-1 1 1-1h0m93 1v1l-1 1h1c1 1 1 0 2-1l-1-1m-102 0h1-1m105 0l-2 3 2 1 1-4h-1m-124 0a30 30 0 0 1 2 1l-2-1c-1 0-1 0 0 0m17 0a3 3 0 0 0-1 1h1a30 30 0 0 1 1-1 4 4 0 0 0-1 0m8 1l-1 2 1-1a4 4 0 0 1 0-1l1-1-1 1m-32 0v2-1-1l-1-1 1 1m28 0v2-1-1c0-1 0-1 0 0m-31 4l4 4h1l-5-4-5-5 5 5m6-3s0 1 0 0v-1 1m15 0l-2 1h-1c1 1 3 0 3-2v1m23 0h1l-2 2-2 2 2-2 2-2h-1v-1 1m-30 1l2 1-2-1c-1-1-1-1 0 0m25 1l-2 2 2-2m-15-1h-1 1l1-1-1 1m-18 0l1 1v-1h-1m-9 3l3 3-3-3-3-3 3 3m89-2a217 217 0 0 0 3 5l-1 1a177 177 0 0 1-3-4l-1 1 1 2 1 1-1 1-1-2-1-1h-1v2l2 2-1 1-1 1v-1l-3-5 2-1 3-2 2-1m-63 0l-1 1h1v-1m6 3l-1 1 1-1 1-1-1 1m4-1l-1 2-1 1 1-1 1-2m97 1c4 1 4 1 3 2l-1 1c-2-1-2-1-3 1l-1 1 1 1v1c1 1 0 2-1 2l-4-7v-2h6m-113 1v-1m20 3a10 10 0 0 0-2 2c0 1 0 1 0 0l2-2m-3-1h-1v1l1-1 1-1-1 1m-17 0h-1l1-1v1m5 0l2 1h1l-1-1h-2m104 0l1 2 2-2h-1l-2-1m-114 1h1-1m2 0h1-1m-12 2l1 2-1-2-2-2 2 2m17 0h-1l1-1v1m72 0l3 4c0 1-1 3-2 2l-1-1 1-1-1-1c-1-2-2-1-1 2 2 2 1 3 0 4-2 1-6-4-5-6l2 1c-1 2 2 4 2 3v-2c-2-4-1-6 2-5m-62 1h0m-18 0a17 17 0 0 0 3 1l-3-1m-12 3a31 31 0 0 0 3 2l-3-2-3-3 3 3m22-2v1-1l1-1-1 1m4 0h1v-1l-1 1m15 1l-2 2 2-2 2-2-2 2m-46-1l4 5 5 5-5-5-4-5m41 0v1-1m-32 0l1 2-1-1v-1m12 1l1 1-1-1h-1l1 1m27 1l-1 2a108 108 0 0 1 1-2m78 1l3 2 1-2h3l-2 2-2 3-3-3-3-3v-1c1-1 1-1 3 2m-114-2l1 1-1-1m17 0l-1 1 1-1m-4 1h1-1m203 1l1 1-1-1-1-1 1 1m-214 1l1 1-1-1-1-1 1 1m24 0l-1 2 1-1 1-2-1 1m-3 0l-1 1c-1 1-1 1 0 0l2-2-1 1m76 0v1h-4v2h3v1h-3v2h4v2h-6v-9h6v1m9 0v1h-1c-2 0-2 0-2 4v3h-2v-7h-3v-2h8v1m-108 1l1 1-1-1-1-1 1 1m11 0v-1 1m18 1l-2 1 2-1 1-2-1 2m-32-1l1 1-1-1s0-1 0 0m7 0l1 1v-1h-1m20 1h1-1m-11 2l-1 1h-1l2-1v-1 1m1 1h1l-1-1v1m-11 0h0-2 2m18 0h4a8 8 0 0 0-4 0m-11 0l1 1 1 1-1-1v-1h-1m6 0v0m-19 1s0 1 0 0m32 0v1-1m-22 0l2 2-1-1-1-1m8 0l-1 2 1-1c0-1 0-1 0 0m3 0l-1 1 1-1 1-1-1 1m11 1c-1 1 0 1 0 0v-1l-1 1m-28-1l1 3v-2l-1-1m12 1l1 1-1-2v1m13 0c0 1 0 2 0 0l1-1-1 1m152 8v4a333 333 0 0 0 0-4m-150-4h-1l2-2-1 2m-4 0v1-1l1-1-1 1m-21-1l1 1h1-1l-1-1m9 1v-1 1m-10 1l1 1-1-1-1-1 1 1m3 0a5 5 0 0 0 2 1l-1-1h-1m21 0v1-1h1-1m-5 0v1l1-1h-1m134 5v5-3-2m-146-4h0m9 0h1-1m-6 2v7-4-3m-4 1h2-2m10 0h1-1m134 7v5-3c0-6-1-7-1-2m-130-1l2 1-1-1h-1m48 1h1l-1-1v1m3 1l1 1h1-1l-1-1m-9 1h1-1m-51 1h1s1 0 0 0a3 3 0 0 0-1 0m48 0h-1 2-2m8 0a4 4 0 0 0 1 0h-2 1m8 0l1 1-1-1h-1 1m-48 0h1l1 1-1-1h-1m24 1v1l1-1v-1l-1 1m19 0l1 1h1l-2-1m7 1l1 1-1-1-1-1 1 1m-54 0l2 1-1-1h-1m-21 0l-1 1 1-1h0m48 1h-1 1v-1l-1 1m4 1l-1 1 1-1 1-1-1 1m21 1h1-1v-1 1m-78 1v1h1-1v-1m180 2h1l1 1-1-1h-1m-133 2h-1 1m18 0h1m21 0h2-2m-46 0h1-1m49 0h-1 2-1m-76 0v1l1-1h-1m12 0l1 1-1-1m17 0h1-1m18 1h1v-1l-1 1m-50 2h-1 1v-1 1m65-1l1 1-1-1m-18 1h-1 1l1-1-1 1m106 0l1 1-1-1m15 1l-1 1 1-1 1-1-1 1m-123 0v1-1h1-1m8 0h-1 2-1m6 0h1-1m9 1l1 1v-1l-2-1 1 1m-71 0v1h1-1v-1l1-1-1 1m17-1l1 1-1-1m7 0v1h1-1v-1m-5 1l1 1 1 1-1-1-1-1m27 2l-1 1 1-1 1-1-1 1m21-1h1v1l-1-1m106 1h-1 1l1-1-1 1m-100 0h1l-1-1v1m-23 1l1-1-1 1m-47 0h-1l-1-1 1 1h1v-1 1m66 0l1 1-1-1v-1 1m77 0h2-2m-98 2h-1l2-2-1 2m23-1l1 1-1-1s-1 0 0 0m-47 1l1 1v-1h-1m11 1h2l-1-1h-1m139 0h1-1m4 2h1l1 1-1-1h-1m-150 0l1 1-1-1h-1m90 1h-1 1v-1 1m10-1h1m14 0l1 1-1-1m-131 2h2-2m-2 0c0 1 0 1 0 0h1-1m26 0h1-1m24 0h1-1m22 0h1-1m-18 0h1-1c-1 0-1 0 0 0m72 1l1 1-1-1v-1 1m13 0h1m-139 1h1l-1-1v1m159 0l-1 1 1-1 1-1-1 1m-54 0v1-1l-1-1 1 1m-95 0h1v1l-1-1m47 0l1 1h1l-2-1m50 1l1-1-1 1m19-1l1 1 1 1-1-1-1-1m31 2v1-1l1-1-1 1m-154 0h1-1m57 0l1 1v-1h-1m-47 0l1 1-1-1m36 0h1-1m-11 1v1-1l1-1-1 1m-23 1l2 1-1-1-1-1m-6 1l1 1-1-1v-1m54 1v1-1l-1-1 1 1m92 0v1-1l1-1-1 1m-119 1l1-1-1 1m128 0h2l-1-1h-1m-106 1l2 2a14 14 0 0 0-2-2m-46 1l1 1-1-1-1-1 1 1m23 0l-1 1 1-1m5 0l-1 1 1-1h1-1m25 0l1 1-1-1m-52 1l1 1-1-1m25 1l-1 1 1-1h0m24 0v1-1h-1 1m78 0l1 1-1-1m-71 0l1 1c1 0 1 0 0 0l-1-1m60 1v-1 1m21 0s0 1 0 0m-127 0h1l-1-1v1m6 0c-1 0-1 0 0 0h0m-5 0h1-1m47 0h1-1m89 1l1 1v-1 1m-57 0v-1m28 0v1c1 0 1 0 0 0v-1m-101 2h1c1 0 0 0 0 0m97 1c0-1-1-1 0 0m-80 0h1c1 0 1 0 0 0h-1m22 0h1-1m-29 2h-1 1l1-1-1 1m87 1l1 1-1-1-1-1 1 1m-80 1h1-1m11 0h1v1-1h-1m-23 1v1l1-1-1 1m26 0l1 1-1-1-1-1 1 1m47 0l-1 1-1 2 1-2 1-1c0-1 0-1 0 0m16 1v1-1l1-1-1 1m-91 1h-1 1c0-1 0-1 0 0m83-1h1-1m-78 2l-2 1 2-1 1-1-2 1m22 0v1-1l-1-1v1m-24 0l1 1v-1h-1m37 4v1-2 1m34-2v1h1-1v-1"/>
    <path fill="#28598d" d="M199 1a8 8 0 0 1-2 1h-1v3a126 126 0 0 1 1 11 182 182 0 0 0 2 18v1h3v-1a57 57 0 0 0 0-6l2-24V2l-2-1h-3m-9 5a5 5 0 0 0-1 1l-1 1v5a299 299 0 0 1 2 11l1 4a50 50 0 0 0 2 6c0 2 0 2 2 1h1v-1a164 164 0 0 0-3-15 98 98 0 0 0-1-9l-2-4m19 0a53 53 0 0 0-1 5l-1 6a164 164 0 0 0-3 15v3h3l1-4 1-5 1-4 1-5 2-6V8l-1-1-3-1m-27 5a14 14 0 0 1-3 1c-2 1-2 1-1 3a56 56 0 0 1 2 6l1 2a15 15 0 0 0 2 3l1 4 1 2 1 3 1 1c1 2 1 2 2 1 2-1 2-1 1-2l-1-3a35 35 0 0 0-1-4v-2a89 89 0 0 1-2-4 82 82 0 0 0-3-10l-1-1m35 2l-1 1v2a171 171 0 0 0-2 5l-1 3-1 4a59 59 0 0 0-2 6v2l3 2v-2l1-3a48 48 0 0 0 2-4l1-2 2-3 1-2a32 32 0 0 1 1-5l2-2c0-2 0-2-2-3l-3-1-1 2m-50 2h-3l2 2v1l2 2 1 2 1 1 1 1a48 48 0 0 0 4 6l1 1a74 74 0 0 1 4 6l1 1 1 1 1 1h2l1-1-2-3-1-2-1-2-1-1-1-2-1-2-1-1-1-2-1-2-1-2a58 58 0 0 1-3-4v-2h-2l-3 1m61 0l-1 2-1 1-1 2a35 35 0 0 1-2 4l-1 1-1 2-1 2-1 1a14 14 0 0 1-1 2l-1 2a21 21 0 0 1-1 2l-1 2-1 1 1 1h3v-1l1-1a65 65 0 0 1 5-6v-1l1-1 2-2a18 18 0 0 0 2-3l1-1 1-2a56 56 0 0 0 3-5l2-2-6-1-2 1m-77 4v4l2 1 2 2 1 1 1 1 1 1 2 1a197 197 0 0 0 11 9l1 1a65 65 0 0 0 5 4h3v-3a471 471 0 0 1-12-12 296 296 0 0 1-10-12l-2-1h-5v3m90 0a1019 1019 0 0 0-17 18l-3 4c-2 2-2 1-1 3 2 2 2 2 6-2a613 613 0 0 1 15-12 761 761 0 0 1 8-7l1-1v-6h-6l-3 3m-92 12a18 18 0 0 1-1 4 36 36 0 0 0 5 3l2 1 2 1 2 1 2 1 1 1 2 1 2 1a51 51 0 0 1 7 4l2 1 1-1 1-2a90 90 0 0 0-6-4l-2-1-1-1a21 21 0 0 1-2-1l-2-1-1-1-1-1a21 21 0 0 1-2-1l-2-1-1-1-1-1a21 21 0 0 1-2-1l-2-1-1-1a8 8 0 0 0-2-1v2m101-2l-1 1-2 1a35 35 0 0 1-4 3l-3 2-1 1-2 1-3 2-1 1-2 1-1 1-2 1-2 1-1 1-1 1h-1l2 3h1l1-1 2-1a122 122 0 0 1 9-5l2-1 2-1 2-1 1-1 2-1 2-1c3-1 3-2 3-3a186 186 0 0 1-1-5h-1M145 43l-1 1-1 3h2l1 1a63 63 0 0 0 7 2l3 1 4 1 4 1 3 1 6 2 1-4-3-1-3-1-2-1a24 24 0 0 1-3-1l-2-1a50 50 0 0 1-6-2 57 57 0 0 1-5-2 39 39 0 0 1-3-1c-1-1-1-1-2 1m109-1l-3 1a48 48 0 0 0-6 2l-2 1-3 1-3 1-2 1-3 1-2 1c-4 1-4 1-3 3 0 2 0 2 3 1l3-1h2a52 52 0 0 0 6-2 76 76 0 0 0 10-3 33 33 0 0 0 5-2c2 0 2 0 1-1l-1-3c-1-2-1-2-2-1m-57 9v4h-8v5h8v15h5V60h8v-5h-8v-7h-5v3m-59 2a37 37 0 0 0-2 4l17 2a1027 1027 0 0 1 17 2h2v-2c1-1 1-1-5-2l-4-1-6-1-5-1-5-1a70 70 0 0 1-7-1l-2 1m122-1a212 212 0 0 0-32 6v3h2l5-1 12-1 17-2-1-3-1-1-2-1M130 64l-1 1 1 2 1 1v1h10l9-1 10-1h11l1-1v-3h-27l-13-1-2 2m115-1h-17v3l11 1a369 369 0 0 0 30 2h1l1-2 1-2-1-1-1-1h-25m-75 7h-3l-9 1-9 1-8 1-7 1 5 4h3l6-1 5-1a260 260 0 0 1 13-2h3l4-2c-1-3-1-3-3-2m58 1c0 2-1 2 3 3h4l3 1 10 1a189 189 0 0 0 13 2h1l4-4-7-1-7-1-10-1a351 351 0 0 1-12-1l-2-1v2m-56 5h-2l-2 1a106 106 0 0 0-11 1 98 98 0 0 0-14 4l-4 1a17 17 0 0 0-3 1 48 48 0 0 0-8 3l-3 1-2 1-2 1-3 1a21 21 0 0 0-3 2 215 215 0 0 0-32 18l-1 1v1l-3 2-2 1-1 1a5 5 0 0 0-2 1v1a275 275 0 0 0-15 13 195 195 0 0 0-36 48l-1 2-1 2-1 2-1 2a23 23 0 0 0-2 4l-1 3-1 2a36 36 0 0 0-2 5l-1 2a154 154 0 0 0-6 19l-1 4-1 5a99 99 0 0 0-3 17l-1 10a257 257 0 0 0 1 40l1 3a102 102 0 0 0 2 15 49 49 0 0 0 2 6 50 50 0 0 0 2 8 95 95 0 0 1 1 5h1a53 53 0 0 0 2 8l1 3 2 4v1h1a31 31 0 0 0 2 6 225 225 0 0 0 16 29 64 64 0 0 0 6 8 287 287 0 0 0 10 12 209 209 0 0 0 46 39l2 1 1 1 2 1 2 1 2 1 2 1 2 1 3 1 1 1 2 1 2 1 2 1 3 1a30 30 0 0 0 5 2l2 1 3 1a43 43 0 0 0 6 2l4 1a54 54 0 0 0 10 3 73 73 0 0 0 9 2 88 88 0 0 0 12 2 221 221 0 0 0 66-2l5-1a29 29 0 0 0 4-1 66 66 0 0 0 9-2 47 47 0 0 0 6-2 57 57 0 0 0 7-3 28 28 0 0 0 5-2l3-1a57 57 0 0 1 5-2 747 747 0 0 1 12-6l1-1 2-1 2-1 2-1 1-1 3-1 1-1 1-1h1a61 61 0 0 0 6-5 56 56 0 0 0 8-6 40 40 0 0 0 6-5 232 232 0 0 0 28-28v-1l1-1 1-1 1-2a93 93 0 0 1 5-6 60 60 0 0 1 3-6l1-1 1-1 1-2 1-1a139 139 0 0 0 7-13 4914 4914 0 0 1 4-9l1-3 1-2 1-3a34 34 0 0 1 1-3l1-2 1-3 1-3 1-3 1-4 1-3a48 48 0 0 0 2-9 80 80 0 0 0 2-10l2-14v-41a117 117 0 0 0-2-14 102 102 0 0 0-4-15l-1-4a19 19 0 0 0-1-3 59 59 0 0 0-3-9l-1-3-1-2-1-3a32 32 0 0 0-2-6l-1-3a139 139 0 0 1-4-6l-1-2-1-2-1-2-1-2a45 45 0 0 0-2-3l-1-2a47 47 0 0 1-2-4 83 83 0 0 1-4-5 53 53 0 0 0-5-8l-1-1a76 76 0 0 0-7-8 24 24 0 0 0-2-4 172 172 0 0 0-16-15 2172 2172 0 0 1-8-7 50 50 0 0 0-5-5l-2-1-1-1h-1l-2-2-2-1-1-1a48 48 0 0 0-6-3 54 54 0 0 0-7-5l-2-1-1-1-2-1-2-1a18 18 0 0 0-2-1l-2-1-4-2-2-1a85 85 0 0 1-5-2 21 21 0 0 1-3-1l-2-1-3-1-2-1-4-1-3-1a33 33 0 0 0-6-2l-4-1-4-1-4-1a135 135 0 0 0-13-2h-2l-1-1v2c-1 3-1 3 5 4a75 75 0 0 1 13 2l3 1 4 1a49 49 0 0 1 7 2 115 115 0 0 1 14 5l4 2a6 6 0 0 1 1 0l2 1 2 1 4 2 3 1 2 1 1 1a100 100 0 0 1 12 7l2 1 1 1 2 1 1 1 2 1 1 1 2 1 1 2 2 1h1l1 1 1 1a81 81 0 0 0 6 5l2 1a215 215 0 0 1 28 31 87 87 0 0 1 5 7l1 1 1 2 1 2 1 1 1 1 1 3 1 1 1 1 1 3 1 1 1 2 1 2 1 2 1 2 2 4a14 14 0 0 1 1 3 18 18 0 0 0 1 2l2 3v2l1 2 1 3a124 124 0 0 1 4 12l1 4 1 4 1 4 1 5a123 123 0 0 1 2 11 205 205 0 0 1-4 74l-1 4-1 4a54 54 0 0 0-1 6 45 45 0 0 0-3 6 48 48 0 0 0-2 6 56 56 0 0 1-4 9 351 351 0 0 0-6 12l-1 1-1 2-1 3-1 1-1 1-1 2a33 33 0 0 0-2 3 3 3 0 0 0-1 1l-1 2a54 54 0 0 0-3 4l-1 2a65 65 0 0 0-5 6l-1 1-1 2a170 170 0 0 1-16 17 157 157 0 0 1-21 18 17 17 0 0 1-3 2l-2 1a20 20 0 0 0-3 2 29 29 0 0 1-3 2l-2 1-2 1a28 28 0 0 1-3 2 61 61 0 0 1-8 4l-3 1-1 1h-1a116 116 0 0 0-6 3l-2 1a33 33 0 0 1-5 2l-3 1-3 1-3 1a30 30 0 0 1-6 2 39 39 0 0 0-3 1l-6 1-4 1a180 180 0 0 1-27 4 202 202 0 0 1-65-6l-2-1-5-1-3-1-3-1-2-1-3-1-2-1-3-1a39 39 0 0 0-5-2l-1-1a45 45 0 0 1-6-3 106 106 0 0 1-10-5 27 27 0 0 1-4-2l-2-1-2-2a3 3 0 0 1-1 0l-1-1-2-2-2-1h-1l-1-1a44 44 0 0 1-4-3h-1l-1-1-1-1-1-1-5-4-2-2a200 200 0 0 1-57-81l-1-4a180 180 0 0 1-8-30l-1-9v-5a185 185 0 0 1 4-65 60 60 0 0 1 3-9v-3l1-3 2-3 1-3 1-3 1-2a27 27 0 0 1 2-5l1-2a40 40 0 0 0 2-5l1-2 1-2 1-2 1-2 1-2 1-2v-1l2-2a32 32 0 0 0 2-3v-1l1-1v-1h1l1-2a61 61 0 0 0 5-7v-1a76 76 0 0 1 6-7l2-2a149 149 0 0 1 5-7 208 208 0 0 1 37-32l1-1h1l2-2 2-1h1l2-1 2-2h1l2-1a61 61 0 0 1 4-3l3-1a65 65 0 0 1 10-5h2l3-1a40 40 0 0 1 3-2 35 35 0 0 0 3-1 43 43 0 0 0 6-2l6-2 3-1a37 37 0 0 0 5-1l8-2a99 99 0 0 1 12-2v-2-2h-2m18 15h-3l1 1c1 0 2 2 2 16 0 5 0 5-2 6h-1v1h17v-6h-1v1l-2 2h-1l-2 1c-3 0-3-1-3-3v-7h2c3 0 4 1 4 2l1 1h1v-4l-1-4-1 1c0 1-1 2-4 2h-2v-8h3c3 0 4 0 4 2h1v-5h-5l-8 1m21 0l1 1 1 6-1 3v4c-1 7-1 8-3 8l-1 1 3 1 7 1-1-2-1-1v-1a70 70 0 0 1 1-6h1l1 1 2 3a91 91 0 0 1 3 6h1l5 1h2l-1-1a8 8 0 0 1-1-2l-1-1-1-1a63 63 0 0 1-4-7l2-1h1l2-5c1-3-2-7-5-7l-5-1h-8m-31 0l-3 1h-2l1 1c2 0 2 0 1 4a41 41 0 0 0-1 4l-1 7c-1 2-1 2-2 0a78 78 0 0 0-4-7l-1-2-1-5h1v-1l-3 1a153 153 0 0 1-6 1v1h2l1 3 1 1 1 2a47 47 0 0 1 2 4l1 2a75 75 0 0 0 4 7c1 3 1 3 3 2h1l1-2v-3a82 82 0 0 0 2-9l1-4a43 43 0 0 1 2-5l1-2 1-1h-3m42 3c3 1 2 9-2 10l-3-1a1593 1593 0 0 0 2-9h3m-69 3a76 76 0 0 1-8 2h-1l1 1c2 0 2 1 4 9l1 3a55 55 0 0 1 2 7l-1 2v1l2-1a25 25 0 0 1 3 0l3-1a7 7 0 0 0 2-1h-1c-2 0-3-2-4-5v-2l-2-6-1-7v-1-1m90 0c-3 1-4 2-4 6 0 3 0 3 5 9 3 2 1 6-2 6s-5-2-6-4c0-2-1-2-1 0v2c-1 1-1 1 1 2 5 3 11 3 13 0 3-4 2-7-2-11l-3-6c1-4 8-2 8 1 0 2 1 2 2 1v-2c1-2 1-2-1-3a19 19 0 0 0-10-1m-107 5l-3 1-2 1 1 1c1-1 3 1 4 4v1a35 35 0 0 0 2 5l1 1-2-1-2-1-1-1-2-1-2-1a39 39 0 0 1-4-2l-1-1-2-1-2 1-3 1-2 1 1 1c1 0 2 1 4 6l1 2 1 2 1 2 1 3 1 2v3l-1 1 1 1a391 391 0 0 0 5-3c2 0 1-1 0-1h-1a32 32 0 0 1-4-8l-1-2a9 9 0 0 0-1-2v-1l-1-1v-2 1l2 1h1l1 1a58 58 0 0 0 6 3l2 2 2 1 2 1 2 1 1 1 3-1-1-3-1-2-1-2-1-2a41 41 0 0 0-2-5l-1-3v-5-1l-2 1m126 0l1 1v2a24 24 0 0 0-3 8l-1 2a44 44 0 0 0-2 5l-1 2-2 1v1l1 1h2l3 2c2 1 3 0 2-1l-1-1 2-5 1-3 1-2 1-3a42 42 0 0 1 2-5c0-1 1-2 2-1h1v-1l-1-1h-2l-3-2-3-1v1m16 6v1c1 1 0 2-1 5a23 23 0 0 0-2 4l-1 2-4 6c-1 2-1 2-3 2-1 0-2 0-1 1a56 56 0 0 0 4 2 49 49 0 0 0 7 4h9c6-2 10-10 8-16a15 15 0 0 0-6-6l-3-2a80 80 0 0 1-6-3h-2m8 6l1 1 2 2h1c1 2 1 5-1 7v2l-4 5c-2 2-4 2-7 1s-3-2-2-4a28 28 0 0 0 2-3l1-2 1-1 1-2 1-2 1-2a13 13 0 0 1 1-3l2 1m-176 0l-1 1-2 1-3 2c-1 0-1 1 1 1 1 0 2 0 3 2a46 46 0 0 0 2 3v1a84 84 0 0 1 4 7c2 2 2 4 0 6s-5 2-6 1l-4-5-1-1-1-1-1-2a52 52 0 0 1-2-3l-1-4v-1a52 52 0 0 1-8 5l1 1c1-1 3 1 5 5l1 1v1a60 60 0 0 0 5 6l1 1 1 1h6l2-1 2-2a3 3 0 0 1 1 0l3-4c1-2 1-5-1-8l-1-2a4 4 0 0 0-1-1v-1l-2-2-1-2-1-1-1-4v-1m201 14l-2 1-1 1-2 1-2 1-1 1-2 1-2 1-2 1-5 3-2 1c-2 0-2 0 0 1l2 2c2 2 2 2 3 1l-1-1v-1l4-3 1-1 2 1 1 1 1 1h1l1 1a144 144 0 0 0-2 4l-1 3h-2l2 2 4 3h1l1-4 1-3 1-3 1-3 1-3 1-3 1-3 1-2-1-1-1-1h-2m-120 2a69 69 0 0 0-11 1 102 102 0 0 0-20 4 1019 1019 0 0 0-4 1l-1 1a49 49 0 0 0-6 2 33 33 0 0 0-5 2l-3 1-3 1-2 1-2 1-1 1-2 1a74 74 0 0 0-10 6l-2 2-2 1a46 46 0 0 1-3 3h-1l-2 1-2 3a161 161 0 0 0-24 25 56 56 0 0 0-4 6l-2 3-1 1a32 32 0 0 0-3 6 67 67 0 0 1-3 4 128 128 0 0 0-8 19 45 45 0 0 0-2 6 83 83 0 0 0-2 8 53 53 0 0 0-1 7v3a130 130 0 0 0-2 17v4h98v-41h3a153 153 0 0 0 20 0 95 95 0 0 0 18-3h2v-98h-7m117 4l-1 3c-1 3-1 3-3 1l-2-1 2-2a5 5 0 0 0 1 0l1-1h2m18 6v1l1 1-7 8a338 338 0 0 0-4 3c-3 3-4 4-6 3h-1l2 3 3 3c6 7 10 8 16 6a15 15 0 0 0 8-9v-5c-1-3-2-5-7-10a22 22 0 0 1-4-4h-1m-257 6v1a39 39 0 0 1 2 5l1 2 1 3 1 2 1 3a38 38 0 0 1 2 4l1 4c-1 1 0 2 1 1l3-4 1-1h-1c-1 1-1 1-2-1l-1-1-1-2-1-2 1-1a47 47 0 0 1 3-3c1-1 1-1 4 1l2 1 1 2c-1 2 0 2 1 0l4-3c2-2 2-3 1-3h-1l-5-2-2-1-2-1a44 44 0 0 0-4-1l-2-1a63 63 0 0 1-6-3l-1-1-2 1m263 3l2 6v2l-6 6-3 2v1c-1 1-5 0-7-3-2-2-3 0 7-10l4-4c2-1 1-1 3 1m-119 2v1l1-1h2-4m10 0h3-3m9 1l2-1h-2m10 0v1l1-1h2-3m-165 2l3 1-1 1-1 2-1 1-1-2-2-4 3 1m140-1l1 1-1-1m29 0v1l-1-1h1m-3 4s0 1 0 0v-1 1m-28 0s0 1 0 0v-1 1m21 3s0 1 0 0v-1 1m-177 0l-5 6c-1 1-1 2 1 1l3 1 2 1v1l1 1 2 1a90 90 0 0 0 6 5c3 1 3 3 3 4v1h1a45 45 0 0 1 5-7v-1h-4l-2-2-1-1a15 15 0 0 1-2-1l-1-2c-7-4-9-7-8-8v-1l-1 1m172 2v1l1-1h-1m-48 2h1c0 1 0 1 0 0v1h1l-1 2h-59v-1-1-1h58m33 1v1-1m-4 0l1 1v-1m28 0v1-1m3 0v1-1m15 0h1-1m-5 0h1-1m-122 4h5s1 0 0 0h3l1 1a68 68 0 0 1 5 0h5l4 1 4-1h4a18 18 0 0 0 4 0 169 169 0 0 0 7-1h3l3-1 3 1h4v1h2c0 1 0 1 0 0v1h1a14 14 0 0 0 1 2c0-1 0 0 0 0h1v2h1v3l1 2-1 2v3h-1v2h-1l-1 1-1 1-1 1c0-1 0 0 0 0h-2v1c0-1 0 0 0 0h-1-1-5-1v-1h-1l-1-1c0 1 0 0 0 0h-1v-1a67 67 0 0 0-1-1l-1-1v-1l-1-1 1-4v-2c1 0 0 0 0 0h-1c1 1 0 1 0 0v1h-2s-1 0 0 0h-3l-3 1-3-1h-1-1v-1h-1l2-1h7c-1 0-1-1 0 0h1v-1h4s0-1 0 0v-1h3c1 0 0 0 0 0h3c-1-1 0-1 1-1l2 1h2l1 1h1c0 1 0 1 0 0v1h1v2a37 37 0 0 0 0 3v1l-1 1c1-1 1 0 0 0 0 1 0 1 0 0l-1 1h-1l-2 1-1-1h-1l-1-1v-1l1-2 1 1h2l1-1v-1l-1-2h-1s0-1 0 0l-1-1h-1v1h-2l-1 1-1 1v4s1 0 0 0l1 1v1l1 1s1 0 0 0h1v1h2s1 0 0 0h6v-1h2c-1 0-1 0 0 0v-1l1-1 1-2v-1-2-2-1s0-1 0 0l-1-1v-1l-1-1s0-1 0 0l-1-1h-1v-1h-1-1s0-1 0 0l-1-1h-1-5-1l-3 1a25 25 0 0 1-4 0h-2l-1 1h-1-3-7a81 81 0 0 1-13-1h-1-3a52 52 0 0 0-6-1h-6v1h-2l-1 1-1 1a6 6 0 0 0-1 1l-1 1v1s-1 0 0 0l-1 1c0-1 0 0 0 0v4c0-1 1 0 0 0v1h1v2c1 0 1 0 0 0h1v1l1 1c0-1 0 0 0 0h1v1h2s1 0 0 0h6v-1h2v-1-1h1v-1-4s-1 0 0 0l-1-1-1-1h-2v-1h-1v1h-1l-2 1c0 2 1 3 2 3h2l1-1 1 1v1s-1 0 0 0l-1 1v1h-2l-1 1-1-1h-1-1c0-1 0-1 0 0v-1h-1v-1h-1v-1-2-2h1v-1l1-1s0-1 0 0l1-1h2l2-1 2 1h5c0 1 0 1 0 0l1 1h4v1h2s1 0 0 0h7l1 1h-1l-1 1h-1-1l-3 1-2-1h-2-1-1-1-1-1l1 1v2c0-1 0 0 0 0v3l-1 1v1l-1 1-1 1h-1v1h-2c0 1 0 1 0 0v1h-2-5c1 0 0 0 0 0h-1v-1h-2l-1-1-1-1-1-1v-1h-1v-1l-1-1v-4-4h1v-1-1c1 0 1-1 0 0l1-1 1-1 1-1 1-1h2v-1h4c-1-1 1-1 2-1l3 1m125-1h1-1m3 0h1-1m-8 1h1-1m-29 2v1h1-1v-1m-174 3l-1 1-2 3-2 5v5c0 4 6 10 10 10h5a12 12 0 0 0 4-2l1-1c1-1 3-3 3-5l1-1 1-4-1-1h-1c-2-2-3-1-1 0 1 2 1 3-1 5-2 4-6 5-11 2l-2-1-5-5c-1-4 2-10 5-9h1c1-1 0-1-1-1l-1-1h-2m181 2l-1 1 1-1 1-2-1 2m-3-1l1 1v-1m64 2h1-1l-1-1 1 1m-41 0h1-1m4 0h1-1m3 0h1-1m90 1l-2 1c-7 2-10 9-6 16l4 6c1 1 3-1 3-1h1c1-1 1-2-1-1-2 0-5-3-5-6l-1-1 1-1 1-4 1-1 2-1 2-1a20 20 0 0 1 6-2h1c4 0 7 7 5 9-1 1 0 2 1 1l2-1 1-1a37 37 0 0 0-4-8c-2-3-9-5-12-4m-130 1v-1 1m70-1v1h1-1v-1m-132 1h1v1h1l1 1 1 1h1l2 1h3l1 1h1v1h2v1h1v2h-2v-1s-1 0 0 0h-1-1 1v1h1v1l1 2h2l1 1v-1h1v-1h1v3h-1c0 1 0 1 0 0v1h-3v-1h-2v-1h-1v-1l-1-1v-1h-1v-1c-1 0-1 0 0 0l-1-1v-1h-1v-1h-2-1c1 0 0-1 0 0l-1-1h-1l-1-1c-1 0-1 0 0 0l-3-2v-1l-1 1-1 1-1 1-1 1h-1l-1 1c-1 0-1 0 0 0h-2l-2 1v1h-1v1l-1 1v1h-1v1h-1v1h-1v1h-1-1v1h-2l-1-1v-2c-1 0 0 0 0 0v-1 1h1v1h2v-1l2-1 1-1v-1h1v-1h-1v1h-2a2 2 0 0 0-1 0v-1h-1v-1h3c0-1 0-1 0 0v-1h2v-1h1v-1h4l2-1 2-1 1-1 1-1h1l1-1 1 1m88 3c0 1 0 0 0 0h1v-1l-1 1m-8 1l-1 2 1-2 1-1-1 1m-88-1h-1 1m15 0h-1m110 1l1 1v-1l-2-1 1 1m-60 2v-1 1m28 0v-1 1m30 1a10 10 0 0 0 1 1l-1-1a10 10 0 0 0-1-1l1 1m28-1l1 1-1-1m-179 3v1-1a5 5 0 0 1-1-1l1 1m103 0h2-3 1m10 0h4-4m-18 1h2l-1-1h-1m-65 2h2l1 1v1l-1 1-1-1v1l-1 1h-2v-2h-1l-1 1h-1v-1h-1 1v-1l1-1h4m14 0h2v1l1 1-1 1c0-1 0 0 0 0h-1l-1-1-1 1c1 0 1 0 0 0v1h-2v-1h-1-1-1v-1l1-2h2l2-1h1m137 3v1-1m-168 0v1c-1 0-1 0 0 0l-1 1v1c1 0 1 0 0 0l1 1v1h3v1l1-1h1s1 0 0 0h2v-2c0-1 0-1 0 0l1-1h1v4c1 0 1 0 0 0h1c1 0 0 0 0 0v1l1 1h1l1 1c1 0 1 0 0 0h1v1l-1 1-1-1h-2v-1 2l1 1v1l1 1v1l1 1v1h1v1l1 1 1 1 1 1h1v1h2v1h4s0-1 0 0l1-1h2v-1h1l1-1h1v-1l1-1 1-1v-1h1c-1 0 0 0 0 0v-2h1v-1-1s1 0 0 0h1v-2c0 1 0 0 0 0 0-1 0-1 0 0h-2v1h-1v-1h-1v-1h1l1-1c0 1 0 0 0 0h1c0-1 0-1 0 0l1-1s1-1 0 0v-1h1v-3c0-1 0-2 1-1l1 1v1l1 1h1s0 1 0 0h1l1 1h1v-1c1 0 1 0 0 0h2v-1c0 1 0 0 0 0s1 0 0 0h1v-1-1-1c-1 0-1 0 0 0h-1v-1h1c0 1 0 1 0 0v1h2v4l-1 1-1 2v3l-1 1c1 0 1 0 0 0v1h-2c0 1 0 1 0 0l-1 1v1s1 0 0 0h1v2s-1 0 0 0l-1 1a32 32 0 0 0-1 1s-1 0 0 0h-1l-1 1-2-1-1-1v-1h2l2-1v-1-1h-1v-1h-1v-1h4l1-1c0 1 0 1 0 0l1-1c-1 1-1 1 0 0v-1-1c-1 0 0 0 0 0h-1-5v-1 2h-1v1s0 1 0 0v2 1h-1v1l-1 1c1 0 0 0 0 0s0 1 0 0v1c0 1 0 0 0 0v1c-1 0-1 0 0 0h-1v1c-1 0-1 0 0 0h-1v2h-1v1l-1 1-1 1h-1s0 1 0 0l-1 1h-1v1h-1-1-1-3c1 0 0 0 0 0h-2c0-1 0-1 0 0l-1-1h-1c0-1-1-1 0 0l-1-1-1-1a26 26 0 0 0-2-2l-1-1v-1a1 1 0 0 1-1 0 1 1 0 0 0 0-1s0-1 0 0c-1 0-1 0 0 0l-1-1v-1-1h-1v-1-1c-1 0-1 0 0 0h-1v-1-1-1c-1 0-1 0 0 0l-1-1v-1l-1 1h-4l-1 1v1c1 0 1 0 0 0l1 1h1v1h4v1h-1v1c-1-1-1 0-1 1v2h5l-1 1c0-1 0-1 0 0l-1 1h-3-1v-1l-1-1v-1-1-1-1h-1s-1 0 0 0h-1l-1-1c-1 0-1 0 0 0l-1-1v-1-2-1l-1-1-1-1c1 0 1 0 0 0v-2-1l2-1v-1h1c1 0 0 0 0 0m138 1v1c0-1 0-1 0 0m26 1l1 1v-2 1m4 0v-1 1m-160 0c0 1 0 1 0 0v-1 1m72 1h1-1v-1 1m-177 1a57 57 0 0 0-2 5l-2 3h1c1-1 3-1 6 1a46 46 0 0 0 5 2 56 56 0 0 1 8 3l1 3 1 1 1-1a16 16 0 0 1 1-3l1-3a8 8 0 0 0 1-2h-1-4l-2-1a66 66 0 0 1-5-2 43 43 0 0 0-7-3l-1-1-1-2-1-1v1m181 0l1 1h1-1l-1-1m52 2s0 1 0 0v-1 1m31-1v-1 1m-85 0l1 1-1-1h-1 1m-62 3h1l1 1c0-1 0-1 0 0l1-1h1c-1 0 0 0 0 0h1v2h-1-2v1l-1-1h-3v-2h2m14 0s0 1 0 0m73 0l-1 1 1-1h0m-7 2v1-1l1-1-1 1m112 0v1l1 4 2 2v-2l3-1c5 0 5 0 5 2l1 2 1 1v1l-1 1-3 2c-1 2-2 2-2 1-2-2-2 1-1 2l1 4a20 20 0 0 0 2 2v-1l1-1a196 196 0 0 1 11-10l1-1 6-5-2-2-12-1h-13l-1-1m-190 3h1c1-1 4 0 4 1h-1v1h-2-4l-1-1-1 1h-1v-1-1h5m137 0v1-1h1-1m-20 0v1h1-1v-1m-46 1h-1 1v-1 1m138 1a119 119 0 0 1-4 3 1 1 0 0 0-1 0v-3c-1-1-1-1 3-1h3l-1 1m-75 1h-1a6 6 0 0 0 2-1l-1 1m-72 0l-1 1 1-1h0m4 0v1-1h0m-68 0l1 1h2c0-1 0-1 0 0v-1l1 1v1h-1l-1 1-1-1h-1v-1-1m-123 3l-1 2-1 2a163 163 0 0 0-3 9v2l1-1h6a70 70 0 0 0 7 2l2 1c5 2 6 2 6 4h1l2-6 1-4-1 1c0 1-2 2-4 1a53 53 0 0 0-3-1l-2-1-2-1h1v-2l3-3h1v-1h-1l-5-2c-1 0-2 1-1 2l2 2a11 11 0 0 1-2 4l-3-1a37 37 0 0 1-4-1v-3c1-3 2-4 4-4v-1l-4-1v1m185-1v0m29 2c0-1 0-1 0 0m-29 2a9 9 0 0 0 0 2v-2c0-2 0-3 0 0m61-2h1-1m11 0c-1 0-1 0 0 0s1 0 0 0m-191 6h3c-1 0 0 0 0 0h3c-1 0 0 0 0 0h2v1h4v1h2v1h1l1 1 2-1h1s0-1 0 0v-1h1c-1 0 0 0 0 0h1l1-1h3v-1h2s1 0 0 0h6l4-1h4v2c0 2-1 2 1 2h2v-1h3l1 21v20l-2 1h-6-3-2-1s-1 0 0 0h-1l-1 1h-2-2c0 1 0 1 0 0l-1 1h-2c0 1 0 1 0 0v1h-1-1l-1 1h-1c0 1-1 1 0 0h-1v1h-7l-1-1h-1v-1h-1-1s0-1 0 0l-1-1h-2-1l-1-1h-1-2-1v-1h-2-2-3-6l-1-1v-41h3v1h3l1-2v-2h3l4 1m280 1h-3l-1 1 1 1 2 1 1 4h-2a417 417 0 0 0-10 3c-5 1-6 2-7 1l-1-2h-1a59 59 0 0 1 2 10c0 2 1 2 1 0s0-2 2-2l2-1a96 96 0 0 0 9-2l6-2 1 1c1 3 1 4-1 5s-1 2 2 1c2-1 3-1 2-2l-1-4-1-3-1-4-2-7v1m-284 1v32h4l1 1h5l1 1h4v1h2l1 1a139 139 0 0 0 1-16 486 486 0 0 0 0-16h-1v-1h-1-1v-1h-1-1l-1-1h-2c-1 0-1 0 0 0l-1-1h-2-1s-1 0 0 0h-2-5v-1 1m36 0h-2c1 0 0 0 0 0h-1-1-1c1 1 0 1 0 0v1h-1-2l-1 1c0-1 0 0 0 0h-2v1h-1-1v1c0-1 0 0 0 0h-1v32h1l1-1a3 3 0 0 1 1 0h1s0-1 0 0l1-1h2c-1 0-1 0 0 0h1a26 26 0 0 0 2-1h5l2-1h2l1-16v-16l-1 16v16c-1 0-1 0 0 0v-32h-1a40 40 0 0 1-4 0m-47 31v-20 20m3-27v34h5 4l1 1h5a60 60 0 0 1 2 1h2s0 1 0 0l1 1h2s0 1 0 0v1h1c1 0 1 0 0 0h1v1h2s0 1 0 0h7c0-1 0-1 0 0l1-1h1v-1h3v-1h4l1-1h3c-1 0 0 0 0 0h1l1-1h5 4v-17l-1-18-1 1h-2c1 0 0 0 0 0v31h-5-3a46 46 0 0 1-4 1h-2c0 1 0 1 0 0h-1v1h-1-1-1v1h-1-1v1h-2-6l-1-1s-1 0 0 0h-2v-1h-1-1-1v-1h-4a46 46 0 0 0-8-1h-2v-15l-1-16h-1-3m1 25v-17 17m177-23h-1 2-1m-3 2l-1 1 1-1 1-1-1 1m45 0l-1 1 1-1v-1 1m-16 0h0c-1 0 0 0 0 0m-25 1h-1 1l1-1-1 1m3 0l-1 1 1-1c0-1 0-1 0 0m40 1h-1 1l1-1-1 1m4 0v0m0 3s0 1 0 0v-1 1m-287 1l-2 7 1 1h1l1-2 6 1 5 1a76 76 0 0 1 7 2l2 2c0 2 1 1 1-1l1-2 1-6h-1c-1 2-2 2-6 1a183 183 0 0 0-12-3h-1l-3-2v-1l-1 2m281 1v-1 1m-48 1v-1 1m45 0v-1 1m3 0s0 1 0 0m-109 12v10h-20v14h20v38l1 1c5 3 7 3 12 0l1-1v-38h21v-14h-21v-19h-14v9m84-7h1-1v-1 1m39 0l1 1-1-1m-3 2l1 1-1-2v1m-110 9l1 9h20v8h-20v19l-1 20-1 1c-2 1-4 0-5-1h-1v-39h-20v-8h20v-18h7v9m88-9l1 1-1-1m-34 1l1 1v-1l-1-1v1m60 1v-1 1m49 0c-3 0-6 2-7 5a16 16 0 0 0 1 14c3 6 17 6 21-1v-1c1 0 2-6 1-8-1-4-3-7-5-8l-1-1-10-1m-96 2s0 1 0 0v-1 1m47 0v1-1m-299 3a436 436 0 0 0-1 7v4l-1 5v1h5v-1c-2 0-3-3-2-5h11l9 2 1 1v1c1 0 1 1 1-5l1-3-1-3c0 2-2 3-4 2l-16-1h-1v-1c0-3 1-4 2-5 2 0 2-1 0-1h-4v2m268 0s0 1 0 0v-1 1m23 0v-1 1m-37 0v1-1m33 0v1-1m11 1v1l1-1h-1m58 0l5 2c3 3 2 7-2 9a5 5 0 0 0-1 0c-1 1-10 2-12 1l-4-3c-1-5 2-8 10-9h4m-62 1l-1 1 1-1h0m71 1l1 2a37 37 0 0 0 2 5c1 2 2 1 3-1l1-1-2-3-1-1c-1-1-3-2-4-1m-91 1l-1 1 1-1 1-1-1 1m-11 0l-1 1 1-1 1-1-1 1M16 272v3l1 4v-1c0-1 1-2 6-2a36 36 0 0 0 5 0l2-1 1 1h-1l-1 2-2 1-1 1a62 62 0 0 1-5 4l-2 1-2 2v8h2c0-2 0-2 11-3l10 1 1 1v-7h-1c0 2-1 2-10 3h-3-4v-1l2-1 1-1a131 131 0 0 0 7-5 62 62 0 0 1 4-4l1-1 1-1 1-1 1-1v-2h-2a651 651 0 0 1-23 0m343 1v17h5v-1h-1c-2-1-2-2-2-4v-4l7 1h5c8 0 8 0 9 3v1h1v-10c0-2-1-2-1-1 0 2 0 2-12 1-9 0-9 0-10-2l-1-1m-114 3v4a27 27 0 0 1-1 7 90 90 0 0 1-5 22l-1 2a57 57 0 0 1-29 30l-2 1-3 1-2 1v75h2a133 133 0 0 0 55-13 140 140 0 0 0 35-23l7-7a113 113 0 0 0 16-18l3-5a32 32 0 0 1 2-3l1-2 1-2 1-1 1-2 1-2 1-2a26 26 0 0 0 3-6 44 44 0 0 1 2-5l1-2 1-3 1-3a34 34 0 0 0 2-6l1-3 2-6v-2a109 109 0 0 0 2-13l1-10v-4h-99m-132 3h1v1l1 1v-2h-3 1m213 12v0-10 20l-2-1-1-1v-1a13 13 0 0 1-1-1h-1v-1h-1l-1-2-1 1-1 1h-1s0 1 0 0l-1 1h-1v1h-1v1h-1l-1 1-1 1h-1s0 1 0 0v1h-1l-1 1c0-1 0 0 0 0h-1v1c0-1 0 0 0 0h-1v1h-1l-1 1h-1s0 1 0 0v1h-1l-1 1h-1v1c0-1 0-1 0 0-1 0-1 0 0 0h-1v1h-1l-1 1-1 1h-1v1h-1l-1 1c0-1 0 0 0 0h-1v1h-1l-1 1-1 1v-7-7 14-7l-1-7v1h-1v1h-1l-1 1h-1l-1 1-1 1h-2v1c0-1 0-1 0 0h-1l-1 1h-1v1h-1l-1 1h-1v1h-1l-1 1h-1l-2 1v1h-1v1h-1c0-1 0-1 0 0a1 1 0 0 0-1 0v1h-1v-10h-1-1l-1 1h-1s0 1 0 0l-1 1h-1v1h-1s0 1 0 0l-1 1h-1v1h-2s0 1 0 0v1h-1-1v1h-1s0 1 0 0l-1 1h-1v1h-1-1v1h-1v1h-1a12 12 0 0 1 0-4v-1h1c1 0 0 0 0 0l1-1h1v-1h2v-1h1l1-1h1c0-1 0-1 0 0v-1h2v-1h1l1-1h1l1-1h1v-1h2v-1h2v-1h1c0-1 0-1 0 0l1-1h1v5l1 5v-1h2v-1h1l1-1h1l1-1 1-1h1c-1 0 0 0 0 0l1-1h1v-1h1l1-1h1v-1h1l1-1h1l1-1c-1 1 0 1 0 0l2-1h1v-1h1l1-1h1v-1h1v7c0 7 0 7 1 6 0 0 0-1 0 0l1-1h1c0-1 0-1 0 0v-1h1v-1h1s1 0 0 0l1-1h1v-1h1s0-1 0 0v-1h1l1-1h1v-1c0 1 0 0 0 0h1l1-1 1-1h1s0-1 0 0v-1h1l1-1h1v-1h1v-1h1l1-1h1l1-1v-1h2v-1h1v-1h1s0-1 0 0l1-1 2 2 2 2-2-2-2-2 2 2 2 2v-10h-5c-5 0-5 0-4 1l1 1v2h-1v1h-1c-1 0 0 0 0 0s0 1 0 0l-1 1h-1v1h-1s0 1 0 0l-1 1-1 1h-1v1h-1-1v1c0-1 0 0 0 0h-1v1h-1s0 1 0 0l-1 1h-1v1h-1l-1 1c0-1 0 0 0 0h-1v1h-1s0 1 0 0l-1 1h-1v-6-6a8 8 0 0 1-1 0h-1v1h-1l-1 1h-1v1h-1l-1 1-2 1h-1v1h-1-1v1h-1l-1 1h-1v1h-1-1c0 1 0 1 0 0v1h-1l-1 1h-1l-1 1h-1s0 1 0 0v-6c0-6 0-6-1-5h-2v1s-1 0 0 0h-1-1v1h-1-1v1h-1l-1 1h-1l-1 1h-1s0 1 0 0v1h-1-1s0 1 0 0v1h-1l-1 1h-1l-1 1h-1s0 1 0 0l-1 1h-1s0 1 0 0v1h-2v-2a7 7 0 0 0 0-2v5-5l1-1h1l1-1h1l1-1h1v-1h2v-1h2v-1h2l1-1h1c0-1 0-1 0 0v-1h1c-1 0 0 0 0 0h1v-1l2-1h1c0-1 0-1 0 0l1-1h1c0-1 0-1 0 0v-1h2c0-1 0-1 0 0v-1h1l1-1h1v12c1 0 1 0 0 0h1v-1h2v-1h1c1 0 0 0 0 0h1v-1h1v-1h2v-1h2v-1h1l1-1h1v-1h2c0-1 0-1 0 0v-1h1l1-1h1s0-1 0 0l1-1h1s0-1 0 0v-1h2v6c0 7 0 7 1 6l1-1c0 1 0 0 0 0h1v-1h1v-1h1l1-1h1l1-1 1-1h1c0-1 0-1 0 0v-1h1v-1h2v-1l-1-1-1-1-1-1v-1h-1v-1h19v10m-214-8v-1 1m116 0l-1 4a24 24 0 0 0 0 2l8 1v-2h-1c-1 0-2 0-1-1v-1l1-1h1v-1c0-2 0-2-1-1l-1 1-1-1h-4m3 2v3h-3v-2c1-2 2-3 3-1m-116 2v1-2 1m56-1a59 59 0 0 1-4 0c-1 0-2 0-1 1v1h3v2l1 2 1-1v-2l-1-1h2v1l2 3a67 67 0 0 0 0-6h-3m-59 3v-1 1m4 3h1l-1-1v1m112 0c-3 1-4 6-1 8 3 1 6 0 7-4a4 4 0 0 0-6-4m-92 2l-1 1 1-1 1-1 1 1v1-1h-2m95 0c2 1 1 4-1 4-3 0-4-2-2-4h3m127-1l-1 2v2l-1 6h1l3-1a310 310 0 0 1 16 2l3 2c0 2 1 2 1 0l1-7v-2h-1l-2 2a83 83 0 0 1-13-2c-6-1-6-1-6-3l-1-1m-187 1l-4 1v2l8-2v-2l-4 1m-83 0v1-1h1-1m2 0l1 1h1-1l-1-1m47 2l-1 2 1-2 2-1-2 1m-45 0l1 1h1-1l-1-1m40 2a14 14 0 0 0-1 1l1-1a14 14 0 0 0 2-2l-2 2m-15-1v1-1m-22 1v1h1-1v-1m79 0l-3 2c-3 1-3 1-2 2 1 5 3 6 6 5 3-2 3-3 2-7-1-2-1-2-3-2m-67 1v1-1m10 1v1-2 1m-19 1l1 1-1-1-2-1 2 1m-68-1l-4 2h-1a10 10 0 0 0-3 4l-1 1v10l1 1c2 5 10 8 15 6l2-1a10 10 0 0 0 6-5c2-5 0-13-4-15l-1-1c-1-2-7-2-10-2m145 1c1 3 0 4-2 4l-2-3 4-2v1m-43 1a14 14 0 0 0-2 2l2-2a14 14 0 0 0 1-1l-1 1m-31-1h1-1m123 1l-3 5 8 3 2-6c0-1-2-3-3-2h-1-3m-97 0l1 1v-1h-1m-7 1h-1l1-1v1m-24 1a10 10 0 0 0 1 1l-1-1a10 10 0 0 0-1-1l1 1m130 0l-1 2h-2l1-1c1-2 1-2 2-1m3 0l-1 4-1-1 1-3h1m-94 3l-2 2 2-2m-97-1c5 0 7 6 3 9l-2 2-2 1c-4 2-10 1-12-1l-2-2c-1-3 2-7 6-8l3-1 6-1m77 2h-1 1v-1 1m208 10c0 10 0 11-1 10l-1-2h-1l-2-2a10 10 0 0 1-2-2l1 1-1-1h-1-1s0 1 0 0v1h-1l-1 1-1 1h-1s0 1 0 0v1h-1v1h-1l-1 1-1 1h-1v1h-1v1h-2v1h-1l-1 1v1l-2 1-1 1c0 1 0 0 0 0h-1v1h-1v1h-1l-2 2h-1l-1 1v1h-1l-1 1-1 1h-1v1h-1v1h-2v1h-1v1l-2 1v1h-1l-1 1h-1v1h-1s0 1 0 0l-1 1c-1 1-1 1-1-8v-7h-1c0-1 0-1 0 0l-1 1c0-1 0-1 0 0h-1l-1 1c0-1 0 0 0 0h-1v1h-1l-1 1h-1v1h-1l-1 1c0-1 0 0 0 0h-1l-1 1h-1v1l-2 1h-1v1h-1l-1 1c0-1 0 0 0 0h-1v1h-1l-1 1h-1c0 1 0 1 0 0v1h-1v-5l-1-5v1h-1v1c0 1 0 0 0 0h-2v1h-1v1h-1-1v1c0-1 0 0 0 0h-1v1h-1-1c0 1 0 1 0 0v1h-1l-1 1h-1v1h-1l-1 1c0 1 0 0 0 0-1 0-1 0 0 0h-1c0 1 0 1 0 0l-1 1-1 1-1-2v-2l1-1h1v-1c0 1 0 1 0 0h2v-1h1c0-1 0-1 0 0v-1h1l1-1h2v-1h1v-1h2c0-1 0-1 0 0v-1h1v-1h1l1-1h1s0-1 0 0l1-1h1s0-1 0 0v-1c0 1 0 1 0 0h2v-1h1s0-1 0 0l1-1a43 43 0 0 1 0 10l1-1h1c0-1 0-1 0 0v-1h1s0-1 0 0l1-1h1s0-1 0 0v-1h1c-1 1 0 1 0 0l1-1h1c0-1 0-1 0 0h1v-1l1-1h1l1-1 1-1h2v-1h1c-1 0 0 0 0 0v-1h1l1-1c0 1 0 0 0 0h1l1-1h1v-1h1c1-1 1-1 1 7l1 8c0-1 0-1 0 0v-1h1v-1h1v-1h1s0-1 0 0l1-1 1-1h1l1-1 1-1 1-1h1s0-1 0 0v-1h1l1-1 1-1c0 1 0 0 0 0h1v-1h1v-1l3-2h1v-1h1v-1h1l1-1c-1 1 0 0 0 0l1-1s1 0 0 0h1v-1h1l1-1 1-1h1v-1c0 1 0 0 0 0h1v-1h1l1-1c0 1 0 0 0 0h1v-1h1l1-1 1-1 1-1h1c1-1 2 0 2 1h1c0-1-1 0 0 0l1 1v-10h-4c-6 0-6 0-5 1l1 1 1 1c-1-1-1 0 0 0h0v1h-1v1h-1s0 1 0 0v1s-1 0 0 0h-1s0 1 0 0l-1 1h-1v1c0-1 0 0 0 0h-1v1h-1l-1 1-1 1h-1v1h-1l-1 1h-1v1h-1v1h-1l-1 1h-1v1h-1v1h-1l-1 1c0-1 0 0 0 0h-1v1h-1l-1 1h-1v1h-1v1h-1l-1 1c0-1 0 0 0 0h-1v1h-1v1h-1v-8l-1-7s0 1 0 0l-1 1h-1v1h-1l-1 1c0-1 0 0 0 0h-1v1h-1l-1 1h-1l-1 1h-1v1c0-1 0-1 0 0h-1l-1 1h-1v1h-2v1h-1v1h-1-1v1c0-1 0-1 0 0h-1l-1 1h-1v1h-1l-1 1-1-5v-6 1h-1l-1 1h-1s0 1 0 0l-1 1h-1v1h-1l-1 1s-1 0 0 0h-1l-1 1h-1s0 1 0 0v1h-1l-1 1h-1v1h-2a1 1 0 0 0 0 1h-2v1h-1l-1 1h-1v1c0 1 0 0 0 0h-1v-2l1-3 1-1c0 1 0 1 0 0h1l1-1h1v-1h2v-1h1l1-1c0 1 0 1 0 0h1v-1h2v-1h1l1-1h1l1-1 1-1h1v-1h2v-1h1l1-1h1l1-1v11h1l1-1h1v-1 1-1h1l1-1h1s0-1 0 0v-1h1c-1 1-1 1 0 0h1v-1h1s0-1 0 0l1-1 1-1h1l1-1c0 1 0 1 0 0 0 0 1 0 0 0h1v-1h2c0-1 0-1 0 0v-1h1l1-1h1v-1l1-1h2s0-1 0 0v-1h2v-1c1-1 1 1 1 8v7l1-1h1v-1h1l1-1 1-1h1v-1h1c0-1 0-1 0 0l1-1h1v-1l1-1c0 1 0 0 0 0h1c-1 0 0 0 0 0v-1h1l1-1h1v-1h1l1-1c-1 0 0 0 0 0s0-1 0 0l1-1 1-1h1l1-1v-1l2-1c1 0 1 0 0 0v-1l-1-1-1-1v-1h-1s0-1 0 0v-1c-2-1-2-1 9-1h9v11m-214-10l1 1-1-1-1-1 1 1m28 1l-2 2 3-2m-47 1l2 1-2-1-2-2 2 2m88 0a290 290 0 0 1-5 3l3 5v1l1-1 1-1-2-1v-3h1l1 1 1 2 1-1-1-1-1-2 1-1a81 81 0 0 1 3 4l1-1-1-2-2-3-2 1m-79 1v1-1c-1-1-1-1 0 0m4 1l1 1-1-1-1-1 1 1m257 0c-3 0-5 2-6 4l-1 1-1 5-1 2v3l1 1h4l-1-1c-3 0-1-8 2-10h1a15 15 0 0 1 6 0 22 22 0 0 1 6 2l1 1 1 1 1 2v6c-1 2-2 3-4 3v1h2c2 2 2 1 3-2a79 79 0 0 1 1-3v-10l-1-1-5-5h-9m-237 0l-1 1 1-1 1-1-1 1m95 0v2l4 7 1-2v-1l-1-1 1-1c2-2 2-2 3-1l1-1c1-1 1-1-3-2h-6m-102 1v-1 1m-16 0c1 0 1 0 0 0v0-1 1m-3 1h1l-1-1v1m31 0v1l1-1v-1l-1 1m-3-1v0m-20 0l1 1h-1v-1m16 1h-1l1-1v1m101 0v1h-1l-1-2 2 1m-127 1l2 2-1-2-2-1 1 1m34 1l-1 1h1l1-1 1-1-2 1m-17 0h-1 1c1-1 1-1 0 0m2 0h1a9 9 0 0 1-1 0m68 1c-1 1-1 1 1 4v2c0 1-3-1-2-3 0-1-1-2-2-1-1 2 3 7 5 5v-4c-1-2 0-4 1-2l1 2-1 1h1c1 1 2 0 2-2-1-2-4-4-6-2m-81-1h1-1m-11 2l2 1-1-1-1-1 1 1m45 0l-1 1 1-1m-39 0v-1 1m18 0l-1 1a71 71 0 0 1 1-1m-26 1a10 10 0 0 0 1 1l-1-1a10 10 0 0 0-1-1l1 1m48 1v1-1l1-1-1 1m75 0l-1 1 3 3 3 2 2-2 2-2h-3l-1 2-2-2-3-2m-87 1l-1 1 1-2v1m5 2l-2 2 2-2m-33 1l2 1-2-1-2-2 2 2m37 0l-2 1 1-1 2-2-1 2m59 2v5h6v-2h-4v-2h3v-1h-3v-2h4v-2h-6v5m7-4v1h3v7h2v-3c0-4 0-4 2-4h1v-2h-7v1m-85 1v-1 1m15 2l1-1-1 1m-24-1h1m2 3h1c-1 0-1 0 0 0h-1m6 0h0m-10 0l1 1-1-1m244 1l-2 5v1h1c0-2 1-1 4 2l2 2-1 1-2 5-7-1v-1c0-2-1-2-1-1a27 27 0 0 1-3 6c-1 2-1 3 1 2a109 109 0 0 1 24 1h1v-2l-3-4a623 623 0 0 1-12-13l-1-3h-1m-235 0v1-1h0m-82 2l-4 4c-1 2 0 8 1 8a33 33 0 0 0 2 4l1 3 1 2v-1l4-3 2-1a37 37 0 0 1 5-2l2-1 2-1h5c1 1 2 0 2-1a23 23 0 0 1-1-2 17 17 0 0 0-2-3c0-3-1-4-2-4v1c0 2 0 3-3 4l-3 1-2 1a22 22 0 0 0-2 1l-3 1-2 1-3 1-2-3c1-3 6-6 8-4l2 2 1 1 1-1-1-3-1-1-3-3a10 10 0 0 0-5-1m83 4v-1 1m7 0h1v-1l-1 1m2 1v1-1l1-1-1 1m149 12a45 45 0 0 1 0-3v-5 8m-159-9v6-3l1-3h-1m247 7l-7-1v-1l1-2 1-1 2 2 3 3m-200 0h2l-1-1h-1m11 4l1 1-1-1m-53 1l1 1-1-1m8 1l1 1-1-1m47 0l1 1-1-1m-74 1v1-1l1-1-1 1m51 3h-1 1v-1 1m110-1s0 1 0 0v1l1 1h1v1l1 1v3h1s0 1 0 0h1c-1 1 0 1 1 1v-1-1h1c-1 0-1 0 0 0l2-2h-1 1l1-1h3v1l2 1 1 1-1-1 1 1 1 2v1h-1v1s0 1 0 0l-1 1-1 1c-1 1-1 1 0 0v1l-1 1h-1 1v2h3c0 1 0 1 0 0l1 1h2v1h1l1 1-1-1v1l1 2v1l-1 1c0-1 0 0 0 0v1c0-1 0 0 0 0v2h-1-1-1l-1 1-1-1c1 0 0 0 0 0h-2-1l-1-1-1 1v1s0 1 0 0v1l1 1v2c1 0 1 0 0 0l1 1c0-1 0 0 0 0v1 1h-1v2h-1c-1 0-1 0 0 0h-1-1v1h-1c1 0 0 0 0 0h-1-1-1l-1-1h-1v-2h-1v-1-2-1h-2-1v1h-1l-1 1-1 1v1h-2l-1 1a4 4 0 0 0-1-1l-1-1-2-1-1-1v-3 1h-2l-1 1-1 2v1h3v1h1v1h1l1 1v2h-1v2c-1 0-1 0 0 0l-1 1v1h-1v1h-1-2-1s0-1 0 0h-1v-1h-1l-1-1-1 1h-1c1-1 1-1 0 0v2h1v6h-1l-1 1h-2l-1 1h-2l-1-1a5 5 0 0 1-1-2v-1h-1a1 1 0 0 1 0-1v-1l-2-1h-1v2l-1 1v1c0-1 0 0 0 0l-1 1h-1l-1 1h-1-1v-1h-1l-2-1h-1v-1-3-1l1-1v-1l1-1-1-1-1-1h1-1l-1 1c0-1 0 0 0 0h-3l-1 1-1-1h-1v-1h-1v-3h-1v-1a1 1 0 0 1 0-1v-1a8 8 0 0 1 2-2h2c0-1 0-1 0 0h1c-1-1 0-1 1-1l1-1c0-1 0-2-1-1v-1h-1-1v-1h-1l-1-1h-1v-1-2l1-1v-1s1 0 0 0l1-1v-1h1v-1a8 8 0 0 1 4 0v1h1l1 1 1 1 1-1v-1c0 1 0 1 0 0v-1-1-1l-1-1v-1-1s1 0 0 0v-1h1v-1h2v-1h3v-1h1v1l1-1v1l1 1 1 1v2l1 1v1h2l1-1v-1-1h1c0-1 0-1 0 0v-1l1-1h-1 2v-1h2v1h2v1h2l1 1v4h-1v2h-1v1h-1l1 1 1 1h2v-1h2c-1 0 0 0 0 0h1v-1h-1l-1-2s0-1 0 0v-1h1v-1s0-1 0 0v-1s0-1 0 0v-1-1l4-1h3l2 1v-1h1v-1s0-1 0 0v-1h-1v-1-5-1c0-1 0-1 0 0l1-1h3v-1h3m-88 1l1 1-1-1-1-1 1 1m-40 1h1c1 0 1 0 0 0h-1m9 0c1 0 1 0 0 0m-15 0l1 1v-1h-1m9 0h1-1m49 2v2h-2 1l1-2v-2 2m74-1h-1v1h-1l-1 1 1 1v2h1l1 1v2h-1v1l-1 1-1 1a7 7 0 0 0-2 2l-1-1h-1v-1h-1-3v2 1l1 1c0-1 0 0 0 0h4c-1 0 0 0 0 0h1v2h1v3h1v2h-1v1h-2v1l-1 1h-1v1l1 1 1 1h1l1-1 1-1 1-1v-1-1h1c-1 0 0 0 0 0h2v1h5v5c0-1 0 0 0 0v1h1v1h1s1 0 0 0h1s0-1 0 0h1v-1l1-1-1-1v-1l-1-1-1-1-1-1h1v-1l1-1 1-1 1-1 1-1v-1l2 1 1 1c0-1 0 0 0 0h4v-1s1 0 0 0l1-1-1-1h-5l-1-1v-1l-1-1c0-1 0-1 0 0v-1-1h-1v-2-1h1l1-1a15 15 0 0 0 2-2l-1-2v-1h-1l-1 1c0-1 0 0 0 0l-1 1-1 1v1c0-1 0 0 0 0 0 1 0 1 0 0v1h-2-2l-1-1h-1c1 0 0 0 0 0h-1-1v-1-2-1-2h-1l-1-1m-129 1l2 1-1-1a4 4 0 0 0-1 0m-16 1h0m47 1h1c1 0 0 0 0 0h-1m-43 0h1-1m-9 0h1-1m28 0h2-2m14 4l-1 1 1-1 1-1-1 1m122 0l-1 1 1-1h1-1m-148 0l1 1h1-1l-1-1m31 0v1l1-1h-1m10 0l2 1-2-1m-17 2h-1 1l1-1-1 1m-21 0v1-1l-1-1 1 1m96 0h-1-1l-1 1v1h1v2h1v1l1 1-1 1h-1v1l-1 1-1 1-1 1h-1v1l-1-1a20 20 0 0 0-2-2l-1-1h-2 1l-1 1-1 1v1l1 1h2v1h2l1 1v5c-1-1-1 0-1 1v1c0-1 0-1 0 0h-2l-3 1h-1v2h1v1h3l1-1c1-1 0 0 0 0h1v-1h1c1 1 1 1 0 0l3 3 1 1v1l1 1v1h-1v1h-1 0v1h-1v2l1 1h1v1l1-1h1c-1 0-1 0 0 0v-1-1l1-3h2s1 0 0 0h3 2v1h1v5h1l1 1 1-1s1 0 0 0h1l1-1h-1v-2l-1-1s0-1 0 0l-1-1v-1l1-1v-1 1l1-1 1-1 1-1 1-1c0 1 0 1 0 0h1l1 1 1 1h1l1 1h1c-1 0-1 0 0 0l1-1v-2c1 0 1 0 0 0 0-1 0-1 0 0v-1h-1-1s0-1 0 0h-1v-1h-2v-1 1-1-2-2c0 1 0 0 0 0v-1-2h3s1 0 0 0h1v-1h2v-1-1s0-1 0 0v-1s-1 0 0 0h-1c0-1 0-1 0 0h-2l-1 1h-1l-1 1h-1v-1l-1-1s-1-1 0 0l-1-1-1-1-1-1-1-1 1-1 1-1h1v-1h1v-1s0-1 0 0v-1s0-1 0 0h-1v-1h-1s0-1 0 0l-1-1v1h-1v2c-1 0-1 0 0 0l-1 1c0-1 0 0 0 0v1l-1 1h-1-1-4-1v-3l-1-2v-1h-1m-49 0l1 1-1-1m-72 1l1 1-1-1v-1 1m49 1h-1 1l1-1-1 1m33 4v-2 2m-73 2h1-1m-1 0v1h1v-1h-1m138 1v1s1 0 0 0l1 1v2l1-1h1c-1 0 0 0 0 0v-3h-2-1m-137 1h1l1 1-1-1h-1m62 4l1 1-1-1-1-1 1 1m-25 0l-1 1 1-1s1 0 0 0m-70 0l-1 1h1v1l-7 9-8 6h-2a55 55 0 0 0 12 11l5 1 5-1 1-1c4-2 7-7 6-11a16 16 0 0 0-3-7l-6-6a35 35 0 0 1-2-3h-1m72 3l-1 1 1-1 1-1-1 1m-27-1v1h1-1v-1m48 1l1 1-1-1-1-1 1 1m7 1h1-1m139 0c-4 0-8 4-9 8-1 2-2 6-1 7l1 2 1 2a23 23 0 0 0 5 5h11l1-1 4-5 2-6-1-4-1-1-1-2a7 7 0 0 1-1-1 22 22 0 0 0-4-3c-2-1-5-2-7-1m-169 1l1-1-1 1m36 0v4-2-2m-101 3a13 13 0 0 1 3 3c3 3-5 14-11 14-2 0-3 0-5-2s-2-1 5-9a529 529 0 0 0 7-7l1 1m234-1l1 1c4 1 10 8 10 12s-6 7-10 4l-1-1a21 21 0 0 1-7-8c0-3 1-6 4-7l1-1h2m-183 2h1-1m26 0h2-2m79 3h1l1 1-1-1h-1m-90 2v1-1l1-1-1 1m24 0v1h1-1v-1m-19 1h-1 1v-1 1m16 2h1-1l-1-1 1 1m2 1l1 1-1-1h-1 1m-75 1l1 1v2l-1 1-1 1a38 38 0 0 0-2 4l-1 1-1 1-1 1-6 7-1-1v2l1 1 2 1 1 1a41 41 0 0 1 3 2 71 71 0 0 0 5 4l2-2c2-2 2-3 1-3h-1c-1 2-2 2-4 0-3-2-3-2-2-4a22 22 0 0 0 2-2l1-1 1-2h2c1 0 3 4 2 5v1h1l1-1 1-1 1-2 1-2h-1c-1 1-2 1-5-1l-1-2 1-1 1-1 1-2 1-1 1-1 1 1c3 2 4 3 3 5 0 2 1 2 2 0l1-2v-2l-2-1-1-1h-1a47 47 0 0 1-5-4 4 4 0 0 0-1-1l-1-1h-2m201 0l-1 1a21 21 0 0 0-6 4 7 7 0 0 0 2 11h9c3 0 4 1 5 3 0 3-5 6-7 5l-2-1 1 2 1 2h3l1-1c5-3 7-7 6-11-1-2-3-4-5-4l-1-1h-2l-6 1-3-3c0-3 5-5 7-4h1v-1l-1-1-2-2m-21 6a84 84 0 0 0-2 7v1l1-1 1-1 1-1 1-1 1-1 1-1v-2a14 14 0 0 0-4 0m5 6a46 46 0 0 0-3 2l-4 2h2l3 4a23 23 0 0 0 2 3 34 34 0 0 1 3 5v1l1 2c2 3 2 4 1 4v1l3-1 1-1 2-1 2-1 1-1h-2l-4-4-1-3-1-2h-1a17 17 0 0 1-1-2l-1-2-1-2-1-4h-1m-161 4v3a195 195 0 0 1-2 23h2l1 1 5-4a202 202 0 0 1 9-8v-1l2-1 4-3-1-1h-1l-4-2v1c2 1 2 0-5 7l-6 6v-1a201 201 0 0 0 1-9l1-3 1-4c2 0 2 0 1-1l-2-1-3-1a3 3 0 0 1-1 0l-2-1m142 5l-1 1h-1l1 12-1 14 1 1a26 26 0 0 1 2-1l2-1 1-1c1 0 1-1-1-1l-2-5v-2l1-1h1l1-1h2l1-1 2 2a17 17 0 0 1 2 3v3h1l1-1a136 136 0 0 0 6-2v-2c-1 0-1 1-11-10a446 446 0 0 0-6-6l-2-1m-113 7a106 106 0 0 0-4 6l-3 3v1a23 23 0 0 0-3 3 115 115 0 0 0-3 3l-2 3h-2l2 1 2 1a9 9 0 0 0 3 1l-1-2v-2l1-1 1-1 1-1 1-1a88 88 0 0 0 5 1h1v4l-1 4h-1c-1 1-1 1 1 1l1 1 7 2v-1l-1-4-1-2a1820 1820 0 0 0 0-17l-1-3h-3m117 4c2 1 2 2 0 2a7 7 0 0 0-1 1h-2v-2-5l1 1 2 3m-29-2l-2 1a66 66 0 0 1-7 2h-1v1c2 0 3 1 4 6l1 4a68 68 0 0 1 2 8c1 1 0 3-1 3v1l5-1 2-1h2l-1-1h-1l-1-4-1-3v-1h1l1 1a109 109 0 0 1 7 5h8l1-1-1-1h-2a112 112 0 0 1-8-6l-1-1 3-6c0-5-4-7-10-6m-73 2v1c1 1 2 2 1 4l-1 6a105 105 0 0 1-1 9l-2 3h-1v1l6 1 10 1v-5c-1 2-2 3-5 2l-3-1a90 90 0 0 1 2-12l1-6 3-1 1-1-4-1h-3l-4-1m75 1l2 3c1 4 0 6-3 6l-1 1-1-3v-2a29 29 0 0 1-1-5h4m-25 1h-1l-1 1v1a60 60 0 0 0-2 7l-1 2a90 90 0 0 1-2 8 38 38 0 0 1-2 4l-1 1v2l5-1h2l-1-1-1-1a30 30 0 0 1 1-6v-1h6l1 1 1 1v1l1 2-1 2-1 1h8l2-1v-1c-1 0-2-1-5-8a1450 1450 0 0 0-7-13l-1-1m-66 7h-2l-2-1h-1l1-1a498 498 0 0 1 3-5l1 7m35-5l1 1h1v6c0 13 0 14-2 15l-1 1h9l2 1v-1l-1-1-2-1 1-19v-1h1c4 0 5 3 4 7l-1 2-3 1h-1v1l1 1h5c5-1 7-9 2-12-1-1-3-2-11-2h-5v1m31 10l1 2h-4v-4l1-1v-2l2 5"/>
  </g>
</svg>
