<svg xmlns="http://www.w3.org/2000/svg" width="380.5" height="105.6" display="block">
  <g fill-rule="evenodd">
    <path fill="#c31940" d="M340.1 74a30 30 0 0 0-16.3 8.2c-1.5 1.4-1.5 1.8 0 .9 13-7.6 25.9-6 33.2 4.4 7.5 10.6 15.9 15.6 22.6 13.6 1.3-.4 1.3-.6-.2-.9-5.7-1-9.1-4-15-12.7-3-4.5-3-4.6-4.5-6.4a22 22 0 0 0-19.8-7"/>
    <path fill="#ecc034" d="M183.9 71.2A98.1 98.1 0 0 0 135.4 87a104.5 104.5 0 0 1-72.5 15.3c-2.7-.4-3-.4-2.8-.1A108 108 0 0 0 139.4 92c36.4-21.8 92.2-18.3 122.3 7.8 2.5 2 2.7 2 .7-.5a69.7 69.7 0 0 0-19-15.5 72 72 0 0 0-11-5.5 112.6 112.6 0 0 0-48.5-7.2"/>
    <path fill="#2b3482" d="M69.1 0C31.1 2 8.3 29.2 25.6 52.3 40.8 72.6 80.9 78 106.3 63c1-.6 1-.7.7 1.3-3 15.3-26 25.9-49.2 22.5-6.7-1-11.1-2.5-18.2-6-6-3-8.6-4.3-12.3-5.7-10.7-4.3-22-5.3-26.6-2.3-1.1.7-1 .8.8.7 5.2-.3 11.9 2 17.3 5.9a41.6 41.6 0 0 1 14.8 20.4c1.5 3.8 1.6 4.2 2 4.4 1.3.9 1.6-1 .9-5.3-1.7-9.8-.7-11.3 5.1-7.7 32.8 20.2 86.1 4.4 87-25.9 1-31-52-48.2-86.5-28l-.8.5.1-1C44.2 16.1 81.7 5.5 107 18.2c3.3 1.7 6.3.3 6.3-3 0-1.5-.6-2.4-2.5-3.8A67.3 67.3 0 0 0 69 0m72 22.5c-7 .7-10.4 6.7-6.2 10.6 1.5 1.4 2.2 1.6 7.9 2.4 6 .7 7.3 1.6 6.3 3.8-1.9 3.7-12.2 2.4-12.2-1.5v-.4h-4.4l.1.8c.5 5 6.6 7.8 14.2 6.4 5.5-1 8.6-5.3 6.6-9.2-1.2-2.2-2.8-2.9-10-3.9-5-.6-5.8-1-5.8-2.6 0-4.2 10.4-4 11.2.2l.1.6h2.2c2.4 0 2.3.1 1.9-1.6-1.1-4.1-5.6-6.3-12-5.6m25 0c-7 1-11.1 7.2-9.4 14.2 2.4 9.7 17.5 11.3 22.2 2.3.8-1.6 1-1.5-1.7-1.5-2.3 0-2.3 0-2.5.4-2.5 5.4-12.7 3.7-13.7-2.3v-.6h19v-1.8c-.5-7.5-6-11.7-14-10.7m27.3 0a8.3 8.3 0 0 0-4.7 3l-.6.9v-3.2H183.6v21H187.9V38c0-6.2 0-6.3.5-7.3 1.1-2.9 4.2-4.2 8.1-3.5l.9.1v-2.2c0-1.4 0-2.3-.2-2.4-.3-.2-3.2-.2-4 0m16.8 0a9.3 9.3 0 0 0-5.2 2.4l-.7.7v-2.5h-4.4v21H204v-6.9l.1-6.9.5-.9c2.2-4.4 10.5-4.6 11.8-.3 0 .4.2 2.8.2 7.8v7.2H220.9v-7.8c0-9.5-.1-10-2-11.8-1.8-1.7-5.6-2.6-9-2m23 0c-4.4.5-7.5 3.3-7.5 6.8v.5h4l.1-.9c.6-2 2.3-3 5.7-3 4.2-.2 6.2.8 6.2 3 0 1.7-.8 2-5.7 2.6-5.4.6-6.5.9-8.3 1.8-3.8 1.9-4 7.5-.5 10 3.3 2.3 10.7 1.8 14.2-.9l.6-.5.3.8c.6 1.4 2.9 2 6 1.5l.7-.1v-3.1h-1.1c-1 .1-1.2 0-1.5-.2l-.5-.3v-6.8c-.1-7.7-.1-7.5-1.5-8.9-1.8-2-6.1-3-11.1-2.3m54 0c-7.4.9-11.5 7.8-9 15.2 2.7 8.7 16.9 9.7 21.6 1.6 1-1.8 1-1.9-1.6-1.9h-2.2l-.3.6c-2.8 5.1-12.6 3.4-13.5-2.4l-.2-.7H301v-1.6c-.6-7.8-5.8-11.9-14-10.8m24.5 0c-4.7.6-7.2 3-7.2 6.7 0 3.8 1.9 5.2 8.9 6 6.5 1 7.8 1.7 6.8 4-1.6 3.7-12.2 2.5-12.2-1.5v-.4H303.4v.4c0 4.5 3.9 7 10.7 7 7.3 0 10.5-2.2 10.5-7 0-4-1.7-5-10.4-6.3-4.9-.6-5.7-1-5.7-2.6 0-4.1 10-4 11 0l.3.8H324v-.4c0-4.6-6-7.7-12.7-6.8m24.8 0c-5.6 1-9 5-9 11.2 0 7.2 4 11 11.5 11 5.7 0 8.6-1.9 10.4-6.7.7-1.9.7-1.8-1.9-1.8H345l-.2.7c-1.9 6.4-11.5 5.6-12.9-1-.4-2-.2-4.6.6-6.3 2.4-4.8 10.8-4.7 12.2 0l.2.8h2.3c2.5 0 2.5 0 1.9-1.8-1.6-4.4-7-7-12.9-6m25-.1c-5 .5-7.6 2.6-8.2 6.7l-.1.7h4.1l.1-.7c.6-4.2 11.3-4.7 11.9-.6.3 2-.6 2.5-5.7 3-6.1.7-8 1.2-9.7 2.6-2 1.9-2 6.2 0 8.4 2.9 3.1 11.2 3 15-.2.6-.4.8-.5.8-.3 0 1.8 3 2.8 6.3 2.2l.5-.1v-3.1H375c-.8.1-1.1 0-1.5-.2l-.4-.3v-6.8c-.1-7.7-.1-7.4-1.4-8.9-1.7-1.8-6.4-2.9-10.6-2.4m-100.8.5c-1.4.2-3.3 1.2-4.2 2l-.7.6v-2.4H251v29H255.4V42.1l.7.6c4.9 4.4 14.7 2.3 17.5-3.8 4-9-3.5-18-13.3-15.8m-90.4 3.3c2.7.5 4.7 2.4 5.2 4.8l.2.4H161v-.4c.8-3.4 5-5.6 8.8-4.8m121 0c2.6.5 4.7 2.5 5.2 4.8l.2.4h-7.1c-8.2 0-7.5.2-6.6-1.6 1.4-2.8 4.9-4.4 8.3-3.6m-25.9.4c6.9 2.1 6.7 12.5-.2 14.2a7.5 7.5 0 0 1-9.2-9.9c1.2-3.6 5.4-5.6 9.4-4.3m-24 10.8c-2.1 5-13 5.3-12.2.3.3-1.7 1.6-2.3 7-3a46 46 0 0 0 4.6-.7l.9-.3v1.4c0 1.2 0 1.6-.3 2.3m128-2.2c0 1.4-.1 1.8-.5 2.5-2.5 4.6-12.1 5-12.1.5 0-2.2 1.2-2.7 7.3-3.5a34.5 34.5 0 0 0 5.2-1c.1 0 .2.6.1 1.5m-295.2-.2c18 2.3 31.8 12 33.3 23.6l.1.8-1.7.9c-24.3 11.4-59.2 1.8-63.8-17.6-.6-2.4-.6-2.4 1.7-3.4a55.9 55.9 0 0 1 30.4-4.3m17.7 14.6c-5.3 2-4.2 9.7 1.4 10.1 5.7.4 7.8-7.2 2.7-9.9-.7-.3-3.4-.5-4.1-.2m168.1 25a30 30 0 0 0-14.8 7.7c-1.5 1.5-1.6 1.9-.3 1.2 9.3-5 17.3-5.8 24.7-2.2 3.4 1.6 5 3 10 8.3a44.6 44.6 0 0 0 4.4 4c6.1 5.6 17.7 9 26.5 8 3-.4 3-.6 0-1-7.5-.7-13-2.6-18.1-6.2a51.4 51.4 0 0 1-7.8-8 41 41 0 0 0-8.6-8.9L272 76c-2.4-1-9-1.6-12.4-1"/>
    <path fill="#7a7b7d" d="M136.7 52.4c-3.7 1-3.4 5.5.5 6.9 1.8.7 2 .8 2.3 1.3.3.7.3 1.3-.2 1.8-1 1.3-3 .6-3-1.2v-.6H134l.1 1c.2 2.3 1.3 3.2 3.9 3.2 2.8 0 3.9-1 3.9-3.7 0-2-.6-2.6-3-3.5-2.2-.9-3-2-2.1-3 .8-1.2 2.6-.5 2.6 1 0 .4 0 .4 1.2.4h1.1v-1c-.4-2.3-2.4-3.4-5-2.6m25 1v1h2.1v-2.1h-2v1m10.3 0v1.2h2.1v-2.2h-2.1v1m37.5 0v1.2h2.1v-2.2h-2.1v1m123 0v1.2h2.1v-2.1h-1.1l-1-.1v1m-146.4 5.2v6.1h2.1l.1-4v-4l1.6 4 1.5 4h2.7V52.5h-2.1v4l-.1 3.9-1.6-4-1.5-3.9h-2.7v6m48.9 0v6.1h2.1V52.5h-2.1v6m11.3-4.3c0 1.7 0 1.8-.3 1.5-1.1-1-3.3-.7-4 .8-.7 1-.7 5.7 0 6.8.6 1.4 2.7 2 3.9 1.2.2-.1.4-.2.4 0l1 .1h1V52.5h-2v1.7m14 4.3v6.1h2.3v-4.8h.8c3 0 4.2-1.2 4.2-3.8 0-2.9-.9-3.5-4.8-3.5h-2.5v6m51.6-6a248.3 248.3 0 0 0-3.4 12l1.1.1h1.3l.3-1.4.4-1.3h1.6l1.6-.1.1.6.4 1.4.2.8h1.1l1.2-.1a141.6 141.6 0 0 0-2.7-10.3l-.4-1.7H312m38.4 6v6.1h2.2V52.5h-2.2v6M354 54v1.3h-1.4V57h1.4v3.4c0 4.3.1 4.6 2.6 4.3h.9V63h-.6c-.9 0-1-.4-1-3.5V57h1.6V55.3H356v-2.5h-2V54m-89.3.6c1.5 1 .6 3.4-1.3 3.4h-.8v-4l.9.2c.4 0 1 .2 1.2.4m49.6 5c0 .3-.2.4-1.1.4-1.3 0-1.2.2-.5-2.8l.5-2.3.5 2.3.6 2.5m-170.1-4.2c-1.8.8-2.6 5.3-1.4 7.7 1.3 2.8 5.9 2 6.1-1v-.9h-2v.5c0 .8-.8 1.6-1.4 1.4-.6-.2-1-1-1-2v-.7H149.3l-.1-1.6c-.2-3.3-2.2-4.7-5-3.4m8.5 0c-.6.4-.6.4-.6.1 0-.3-.2-.3-1.1-.3h-1.1v9.3h2.2v-3c0-3.8.2-4.3 1.8-4.3.4 0 .7 0 .7-.2l1 3.6 1 3.8 1.3.1h1.2l1.2-4.4 1.2-4.7c0-.1-.2-.2-1-.2h-1.3l-.1.9-.7 3.2-.4 2.3-.7-3.1-.8-3.2c-.4-.4-3.3-.2-3.8.1m13.7 0c-1.3.7-1.6 1.5-1.6 4.5 0 3.8.6 4.7 3.2 4.8 2.2 0 3-.7 3.3-2.8l.1-.9h-2l-.1.7c-.2 1.2-.9 1.6-1.7 1.2-1-.5-1.1-4.8-.2-5.8.7-.8 1.6-.3 1.8.8v.6h2.2v-.8c-.3-2.3-2.8-3.4-5-2.3m10.6-.2c-1.7.5-2.5 3.4-2 6.6.8 4 5.9 4.1 6.7.1 1-4.7-1.2-7.8-4.7-6.7m19.8 0c-1 .3-1.5 1-1.5 2.2l-.1 1h1c1 0 1 0 1-.5 0-1 1.4-1.7 2-1 .6 1 .1 1.6-1.6 2-2.4.7-3.4 2.4-2.5 4.5.5 1.3 2.6 1.8 4 1 .4-.3.5-.4.8-.1 1 .8 2.3.5 2.3-.6 0-.7 0-.9-.2-.8-.5.2-.6-.6-.6-3.6 0-2.9 0-3-.4-3.4-.7-.8-2.7-1.1-4.2-.7m7.3 0c-1.4.7-1.8 1.9-1.8 4.8 0 3.6.7 4.6 3.3 4.7 2 0 3-.7 3.2-2.7l.1-1h-2v.7c-.3 1.4-1.3 1.8-2 .8-.6-.7-.6-4.5-.1-5.2.6-1 1.6-.6 1.9.6.1.5.1.5 1.1.6h1V58c0-2.1-2.6-3.6-4.7-2.6m10.1.1c-2.2 1.1-2.4 7.3-.3 8.9.8.5 3.3.5 4.1 0 1.4-1 2-5.7.9-7.7-.8-1.5-3-2-4.7-1.2m9-.2l-.7.4c-.4.3-.4.3-.4 0 0-.4-.1-.4-1-.4h-1v9.3h2.1v-3.2c0-4 .2-4.4 1.4-4.4.9 0 1 .4 1 4.2v3.4h2.1v-4c0-4.7-.1-5-1.2-5.3-.5-.2-1.9-.2-2.3 0m5.7.2c-.8.3-1.3 1.3-1.3 2.3v.7h1.9l.2-.8c.3-1.2 1.8-1.4 2.1-.2.2.7-.2 1.1-1.2 1.4-2.7.7-3.2 1.2-3.2 3.2s.6 2.7 2.5 2.7c1 0 1.2 0 1.6-.4.5-.4.5-.4.8-.1.3.4 1.3.6 1.9.4.6-.2.8-1.7.2-1.8-.4 0-.4 0-.5-3.2 0-2.2-.2-3.3-.3-3.5-.6-1-3.2-1.4-4.7-.7m22.2-.1c-1.8.8-2.6 5.6-1.4 7.9 1.5 2.8 6.2 1.7 6.2-1.4v-.6h-2v.6c-.4 2-2.3 1.7-2.5-.4v-1H256l-.1-1.6c-.1-1.7-.6-2.8-1.3-3.3-.6-.5-2.8-.6-3.6-.2m18.8 0c-2.5 1-2.7 8-.3 9.1 2.2 1 4.8-.1 5-2.4l.2-.8h-2l-.2.7c-.5 2-2.2 1.5-2.5-.7l-.1-.8H274.7v-1.7c-.1-3-2.2-4.6-4.8-3.4m6.9 0c-1 .2-1.5 1-1.5 2-.2 2 .4 2.7 2.6 3.4 1.6.5 2 1.3 1.2 2-.8 1-2 .3-2-.9 0-.4 0-.4-1-.4H275l.1.9c.2 2.2 3 3.3 5.2 2 2.2-1.2 1.6-4.5-1-5.3-1.7-.5-2.4-1.2-1.9-1.9.7-.8 1.7-.5 2 .5v.6h2v-1c-.2-1.8-2.3-2.7-4.6-2m6.7.2c-1.2.7-1.5 1.5-1.5 4.5 0 3.8.6 4.7 3.2 4.8 2.1 0 3-.7 3.3-2.8V61h-2v.7c-.3 1.2-.9 1.6-1.8 1.2-.9-.5-1-4.4-.2-5.6.6-1 1.9-.5 1.9.8v.4h2.2l-.1-.8c-.3-2.3-2.8-3.4-5-2.3m6.9 0c-.9.4-1.3 1.2-1.3 2.3v.7h1.9l.1-.7c.3-1.3 1.7-1.5 2.1-.4.2.5-.1 1.2-.5 1.3l-1.4.4c-2.2.6-2.9 1.8-2.4 4 .3 1.7 2.4 2.4 4 1.3.5-.3.6-.4.7-.2.1.3 1.2.6 1.9.5.7-.1.9-1.6.2-1.8-.3 0-.3-.2-.3-3 0-3.5-.1-4-1.3-4.5-1-.4-2.8-.4-3.7.1m29-.1c-1.3.6-2 2.2-1.8 5 .1 3.3.8 4.3 3.3 4.4 2 0 3-.7 3.3-2.8V61h-2v.7c-.3 1.8-2.1 1.8-2.4 0-.2-1.5 0-4 .4-4.4.6-1 1.9-.5 1.9.8 0 .4 0 .4 1 .4h1.1V58c0-2.1-2.6-3.6-4.7-2.6m17.8 0c-1.4.6-1.8 1.8-1.8 4.7 0 3.6.6 4.6 3.2 4.7 2.1 0 3.1-.8 3.3-2.9v-.8h-1.9l-.1.7c-.2 1.7-1.8 1.8-2.3.2-.3-1-.1-4 .2-4.6.7-1 1.7-.7 2 .6l.2.6h2V58c0-2.1-2.6-3.6-4.8-2.6m31.3-.2l-.7.5c-.3.3-.3.3-.4 0 0-.4-.2-.4-1.1-.4h-1v9.3h2l.2-3.2c0-4 .1-4.1 1.7-4.1.7 0 .8 0 .8.6v.6h1c.7-.1.9-.2 1-.5 0-.8.1-1 .5-1.2.9-.4 1.6.1 1.6 1 0 .6-.4.9-2 1.3-1.9.6-2.5 1.4-2.5 3.2 0 2.2 2.2 3.3 4 2.1.6-.4.7-.4 1 0 .4.3 1.3.5 1.9.2.5-.2.6-1.6.1-1.6-.2 0-.2-.4-.3-3-.1-4.4-.4-4.8-3.3-4.8-1.7 0-2.2.2-2.7 1.1l-.3.6V56c-.1-.8-.7-1-1.5-.8M161.7 60v4.6h2.1v-9.3h-2V60m10.3 0v4.6h2.1v-9.3h-2.1V60m37.5 0v4.6h2.1v-9.3h-2.1V60m89.6-4.6a255 255 0 0 0 2.5 9.4c0 .6-.8 1.2-1.4 1h-.6v1.8h1.3c2.3 0 2.2.4 4.6-8.8l.7-2.9.1-.6h-2.1l-.3 1.2-.7 3-.4 1.9-.3-1.3-.7-3-.4-1.8h-1.1a4 4 0 0 0-1.2 0m25.7 4c0 4.1 0 4.7.8 5.2.6.4 2.4.4 3.1 0 .5-.3.6-.4.6-.1 0 .2.2.2 1 .2h1v-9.3h-2v3.3c0 3.5 0 4-.9 4.4-.4.2-.5.2-1 0l-.4-.3V59l-.1-3.6h-1l-1.1-.1v4m7.7.7v4.6h2.1v-9.2h-1.1l-1-.1V60m10.1-1c0 4.3 0 4.6.7 5.3.6.6 2.2.7 3.2.2.5-.3.6-.3.6-.1 0 .2.3.2 1.1.2h1v-9.2h-1l-1-.1v3.3c0 3.5-.2 4-1 4.4-.4.2-.5.2-.9 0l-.4-.3-.1-3.7-.1-3.6h-1l-1-.1V59m15-.2c0 4 0 5 .8 5.6.7.6 2.3.6 3.2 0 .6-.4.6-.4.6-.1 0 .3.1.3 1 .3h1V60l-.1-4.6h-1l-1-.1v3.4c0 3.8 0 3.8-.8 4.2-1.4.7-1.6.3-1.6-4v-3.6h-2.1v3.5M146.5 57c.2.2.4.6.4 1l.1.7h-1.3c-1.2 0-1.2 0-1.2-.4 0-1.4 1.2-2.1 2-1.3m107 .4c.6 1.1.5 1.3-1 1.3h-1.2v-.5c0-1.5 1.5-2.1 2.2-.8m18.2-.7c.4.2.8.8.8 1.5v.5h-1.3l-1.2-.1c0-.5.4-1.4.7-1.7.5-.4.5-.4 1-.2m-92.8.3c1 .7 1 5.5-.1 6-1.3.4-1.8-.6-1.8-3 0-2.7.7-3.9 2-3m37.7.3c.7 1 .7 4.6 0 5.4-.7.8-1.8.3-2-1-.8-3.2.7-6.4 2-4.4m29.2.1c.8 1.1.3 5.2-.6 5.5-1 .4-1.5-.5-1.6-2.6-.2-3 1-4.5 2.2-2.9m-46.7 4.6c-.2 1-1.5 1.4-2 .7-.6-1-.2-1.8 1.2-2.3l.8-.3V62m32.5-.4c-.3 1.8-2.2 2-2.2.3 0-.8.3-1.2 1.4-1.5l.8-.3v1.5m61.6-1c0 1.5-.6 2.4-1.5 2.4-1.5 0-1.2-2 .3-2.6 1.2-.4 1.2-.5 1.2.2m80.8.4c0 1.4-.4 2-1.4 2-1.4 0-1.2-2 .3-2.6 1.2-.5 1.1-.5 1.1.6m-74.1 12.7c-6.1.8-12.1 3.8-16.8 8.3-1.2 1.2-1.2 2.2.2 1.5 13.2-8 25.9-6.3 33.3 4.2 6.6 9.4 13 13.8 19.8 13.7 3.6 0 6.1-1 3.7-1.4-6.3-1-10-4-15.5-12.4-6-9.1-9.6-12.1-16.5-13.6-1.9-.4-6.4-.5-8.2-.3m5.8.7c7.8 1 11.7 3.8 17.8 13 4.7 7.1 7 9.5 10.9 11.5 1.2.6 3.6 1.5 4 1.5.8 0 0 .3-1 .4-6.5.6-13.6-4.2-20.5-14-6.8-9.6-19.1-11.7-31.4-5.5-1.2.6-.8.2 1.2-1.4 4.3-3.2 8.7-5 14-5.6h5m-62 8.7c-.5.6-.6 1-.1 1V84c-.3-.2-.2-.3.3-.9l.6-.6-.7.6"/>
  </g>
</svg>
