<svg xmlns="http://www.w3.org/2000/svg" width="312.4" height="375.4" display="block">
  <g fill-rule="evenodd">
    <path d="M.5 159.2l.1 159 1.2 3.3a63.3 63.3 0 0 0 44 38c4.3 1 5 1 51.6 1.3l47.2.3 2.6 1.5c3.4 1.8 4.9 4 6.3 9.2 1.3 5 1.3 5 2.8-.5 1.5-5 2.7-6.7 6.3-8.7l2.7-1.5 48.7-.3c34.2-.2 49.5-.5 51.3-.9 22.8-5.3 41.8-22.8 46-42.3.6-3 .7-24.4.7-160.4V.2H.4l.1 159m307.3 1v156l-1.3 3.5A55.3 55.3 0 0 1 278 351c-10.9 5.4-6 5-62.4 5.3l-49.2.3-3 1c-3 1.2-6 3.2-7.4 5-.9 1-.9 1-3.1-1-5.8-5.4-4-5.3-56.7-5.3-36.4 0-45.6-.1-48.2-.7-18.4-4-35.3-18-41.8-34.7l-1.4-3.7-.2-156.5V4.3H308l-.2 156M112.3 14.6a42 42 0 0 1-.8 3c-.6 1.7-.1 2.4.7 1 1.1-1.9 2.4-2.8 3.8-2.8h1.6v9.7c0 9.2 0 9.6-1 9.9-2.1.5-1 .9 2.6.8 4.3-.1 4.6-.2 2.9-.6l-1.3-.4-.1-9.7-.1-9.7h1.6c2.2 0 2.7.4 3.6 2.5l.7 1.8.3-3c.4-3.1.2-3.9-.8-2.9s-12.3.8-13-.3c-.3-.7-.5-.6-.7.7m111 1.8c-.5 2.5-.4 4.1.2 2.5.6-1.6 2.6-3 4.1-3h1.6l-.1 9.6-.2 9.7-1.2.4c-1.7.4-1.3.5 3 .5 4.2 0 4.7 0 3-.5l-1.2-.4-.2-9.7-.1-9.7h1.7c1.8 0 3.4 1.3 3.4 2.7 0 .5.2.8.5.8.2 0 .5-1.2.5-2.8 0-2.3-.2-2.8-.6-2.3-.8.8-12.4.8-12.8.1-.7-1-1.1-.4-1.6 2.1m-92 4.5c-4.3 13.7-4.4 13.8-5.5 14.4-1.9.8-1.4 1 1.9 1 1.6 0 3-.1 3-.4 0-.2-.5-.4-1-.4-1 0-1.1-.2-.9-2.2.6-4.4 1-5 4-4.8l2.6.2.7 2.3c1 3.3.9 4.5-.4 4.5-.5 0-1 .2-1 .4s1.7.4 3.8.4c2.1 0 3.8-.2 3.8-.4s-.3-.4-.6-.4c-1 0-1.6-1.3-4.7-11.1-1.6-5.1-3.1-9.5-3.3-9.8-.2-.2-1.3 2.6-2.5 6.3m15.3-6c-4.7 1.8-3.9 8.8 1.4 11.5 4 2.1 5.5 5.7 3.5 8.2-2.3 3-6.3 1.3-7.5-3-.5-1.9-.5-1.9-.5 1 0 3.3.4 4 3.6 4.3 7.5.8 10.5-9 3.9-13-4-2.4-5-3.5-5-5.4 0-4.4 4.4-5 6.4-.8l.8 1.9.2-2c.3-3-3-4.3-6.8-2.8m24 .6c-7.7 4.2-7.6 16.8.2 20.5 5.4 2.7 10.5.5 9.9-4.2l-.2-1.5-1.1 2.1c-4 7.6-11 3.4-11-6.6 0-9.5 6.4-14.2 10.7-8l1.2 1.9v-2.1c0-2.6-.3-2.8-4.2-3-2.6-.3-3.5 0-5.4 1m18.7 0l-2.3 7.1c-3.7 12.2-3.8 12.5-4.8 12.8-1.9.5-1 .9 2 1 3 0 4.3-.6 2-1-1.4-.2-1.4-1-.4-4.8l.6-2.2H191.7l.8 3c1 3.7 1 4.1-.2 4.1-.5 0-1 .2-1 .4s3.4.4 7.6.4c7.7 0 8.4-.2 6.4-1-1-.5-1.1-1-1.3-4.3-.2-4.8 0-5.2 1.8-4.5 3.3 1.3 6.2-1.3 6.2-5.5 0-4.8-2-6.2-9-6.2-3.8 0-5.7.7-3 1.1 1.1.2 1.1.2 1.1 9.5v9.3l-1.2.6c-2.4 1.2-3 .2-6.6-11-3.2-9.8-3.4-10.2-4-8.7m-150.7-.2c.1.2.5.4.9.4 1.1 0 1.3 1.3 1.3 9.7 0 8-.4 10-1.8 10-.4 0-.7.2-.7.4s2.8.4 6.3.4c5.7.1 6.3 0 6.3-.8l.3-2.6.3-1.7-2 2.2C48 35 47.1 35.6 46 35.6c-2.6 0-2.7-.4-2.7-10.2v-9l1.3-.5c1.8-.7 1.6-.8-2.5-.8-2 0-3.6.2-3.5.4m13.8 0c0 .2.5.4 1.1.5 2.2.3 2 19.6 0 19.6-.6 0-1 .2-1 .4s1.6.4 3.7.4c4 0 4.5-.2 2.6-1-1-.5-1-.8-1.2-9.8l-.2-9.2 1.3-.5c1.9-.7 1.7-.8-2.5-.8-2 0-3.8.2-3.8.4m10.2 0c-.6.2-1.1.5-1.1.6 0 .2.5.3 1.1.2l1.2-.1.1 9.5c.1 9.2.1 9.5-.9 9.8-2.2.5-.7.9 4.6 1 4.2.1 5.9 0 7-.6 3.8-2 4.1-8.1.5-10.3-1.5-1-1.5-1-.6-1.7 2.3-1.6 2.7-5.4.8-7-2-1.8-9.7-2.7-12.7-1.5m17.6 0c0 .2.4.5 1 .7 1 .2 1 .6 1 9 0 9.7-.1 10.5-1.6 10.5-.5 0-1 .2-1 .4s3.2.4 6.9.5h6.8v-1.1c0-.7.1-2 .3-2.9.2-1.5.2-1.6-.4-.7-4.2 6.4-8.6 5.3-8.4-2.1l.2-4h2.3c2 0 2.3.2 3.1 1.8l.9 1.8v-2.5c0-1.4.1-3 .3-3.7.2-.7 0-1.1-.2-1.1-.4 0-.6.3-.6.7 0 1-1.6 1.8-4 1.8h-2V21c0-4.6.2-5 2.2-5 2.5 0 4.2.7 4.9 2.2.9 2 1.5 1.5 1.3-.9l-.1-2.1-6.5-.2c-3.6 0-6.4 0-6.4.3m15.6 0c0 .3.6.6 1.2.7 1.1.2 1.1.2 1.1 9.5 0 9.2 0 9.4-1.1 9.9-1.9.8-1.4 1 2.6 1s4.5-.2 2.7-1c-1.9-.9-2-9.4-.2-9.4 1.3 0 1.9 1 4.3 7.6l1 2.9h2.3c2.2 0 3.2-.6 1.5-1-.5 0-1.6-2-2.7-4.6-1-2.4-2-4.6-2.2-4.7-.6-.6-.4-1 .7-1.3 3.2-.9 3-7.9-.3-9.4-1.5-.7-10.9-.8-10.9-.1m118 .1c.2.2.7.4 1.3.4.9 0 1 .4 1 9.6v9.6l-1.3.3c-2.1.5-1 .9 2.7 1 3.5 0 4.6-.4 2.6-1-1-.2-1-.6-1-9.8 0-9.4 0-9.7 1-9.7.5 0 1-.2 1-.4s-1.7-.4-3.8-.4c-2 0-3.6.2-3.5.4m26 0c0 .2.4.4 1 .4 1 0 1 .4 1 8 0 11 1.2 13.2 6.7 13.2 5.8 0 6.6-1.5 6.9-12.3l.1-8.4 1.4-.6 1.3-.6-1.6-.2a18 18 0 0 0-3.3 0l-1.6.2 1.4.6 1.4.6-.2 8.6-.1 8.7-1.4 1.2a4.7 4.7 0 0 1-6.3 0l-1.4-1.2v-8.8c0-8.7 0-8.7 1.1-8.9 2.5-.4 1-.9-2.6-.9-2.1 0-3.8.2-3.8.4m19.4-.1c.2.3.8.5 1.3.5 1 0 1 .4.9 9.7l-.2 9.7-1.2.4c-1.7.4-1.4.5 2.9.6 3.5 0 4.7-.3 2.6-.8-1.6-.5-1.5-9.6.1-9.4.9.1 1.6 1.2 3.2 5.2l2 5 2.5.1 2.5.1-1.3-1c-.7-.7-2-2.9-2.9-5a55 55 0 0 0-2-4.5c-.3-.5-.2-.8.6-1.2 2.6-1.3 3.2-5.9 1.2-8.2-1.3-1.5-13.1-2.7-12.2-1.2M72.1 16.9c3 3 1 7.6-3.6 7.6h-1.4v-4c0-2.1.1-4 .3-4.3.7-.7 3.7-.3 4.7.7m33.3.3c2.3 3 .6 8-2.7 7.7l-1.6-.1-.1-3.8c-.2-5.4 1.8-7.1 4.4-3.8m102.6.1c2.6 3.4-.4 10.8-3.3 8-.8-.9-1.2-8.3-.4-9 .7-.8 2.7-.3 3.7 1m60.6-.4c2.5 2.5.7 8.1-2.6 8.1h-1.5v-4.2c0-2.3.2-4.4.4-4.6.6-.6 2.7-.3 3.7.7m-134.8 7c1 3.3 1 3.6-1.4 3.6-2 0-2-.4-1.2-3.8 1.1-4.2 1.3-4.2 2.6.1m56.2-.4c1 4 1 4.1-1 4.1-2.2 0-2.3-.2-1.3-3.9 1-3.9 1.2-3.9 2.3-.2M73 26.7c3.1 2.8 1.2 9-2.9 9-2.7 0-3-.7-3-5.7v-4.5h2.2c1.6 0 2.6.3 3.7 1.2M47 167c.1 115.6.2 122 1 125 3 10 9.3 17.6 18.4 22.1 7.2 3.6 1.5 3.4 91.3 3.2l80.8-.1 3.8-1.4a34.1 34.1 0 0 0 19.4-17c4.2-8.7 3.8 2.2 3.8-133.1V45.2H46.8L47 167m107-55.8c0 34.8-.2 63.3-.5 63.3-1 0-15.5-3.2-16-3.6a342 342 0 0 1-5.2-47.3c.4-.5.4-.8-.3-1.6-1.2-1.3-4-22.1-3.7-28l.1-4-2.8-.7c-4.4-1-5.5-.9-5.5.6 0 1.6-.5 1.9-3 1.5-2-.3-2-.5-2-2 0-2-.6-2.2-5.9-2.4l-3.5-.1-.2 1.5c-.2 2-.4 2-3.2 2.5l-2.4.3-.3-1.9c-.4-2.3-.9-2.7-3.6-2.7h-2.2v-2.1l-.7-14c-.3-7.3-.4-12.2-.1-12.5.3-.5.2-.7-.3-.7-1.2 0-1.6-.9-.9-1.8.4-.4.4-.7.1-.7-1.3 0-1.7 1.5-1 3.2.6 1.3.7 4.4.6 15.2V87L90 87c-1.4.3-1.5.5-2 3.4-.4 3-.4 3.2-1.8 3.2-1.5 0-1.6-.3-2-3.3-.3-1.5-2.5-2-6-1.3-3.6.8-3-1.3-4.9 17.7-1.1 11.3-1.5 13.6-2.3 14.5-.9 1-1 1.3-.4 2.2.8 1.5.8 1.8-2.5 32.5l-1.6 14.7-2.9.8-8.3 1.8c-3 .8-5.5 1.3-5.6 1.2V111L50 48h104v63.2m109 0c0 34.8-.1 63.3-.3 63.3l-8.2-1.7c-9.4-2.1-16.6-3.2-23.8-3.7-7-.4-7.3-.5-9.2-4.4a27.1 27.1 0 0 1-2.6-16.3c.3-1.2 2-1.6 2.3-.6.1.4 1.4.7 3.6.7 1.8 0 3.5.2 3.7.4.7.7 1.7.3 2.2-1 .3-.6.8-1.2 1.1-1.2l3-.1c2-.1 2.3-.3 3-2 .6-1 1.3-2 1.7-2 .5 0 1-.3 1.1-.7.2-.5.9-1 1.5-1.3 1-.3 1.2-.8 1.2-2.3 0-1.2.5-2.4 1.5-3.7 1.7-2.1 2-3.1.8-4-.6-.5-.7-1.3-.5-2.8.2-1.8 0-2.3-1.5-4.3a9.3 9.3 0 0 1-1.8-2.8c0-1.1-2.9-2.9-4-2.5-1.4.4-2.5-.5-2.2-1.8.2-.7-.2-1.5-1-2.3-1.5-1.4-1.1-3.6.9-5.6 1.2-1.2 1-3.6-.5-4.3-1.3-.6-1.8-2.6-.8-3.2.8-.5 0-1.7-1.2-1.9-.8 0-1-.5-1-1.8-.1-1.2-.5-1.9-1.4-2.5l-3.3-3-2.1-2v-5.6c.1-5.8 0-6.7-1.5-6.7-1.2 0-3.3-3-3.3-4.7 0-2.1-2.8-3.8-4.6-2.8-1 .5-1.6.5-3.3-.2-1.1-.5-2.7-.9-3.5-.9-.8 0-1.7-.3-2-.7-1-1.2-2.6-1-2.6.4 0 2.2-.7 2.7-2.8 2-2.4-1-4.5.6-3.4 2.4 1.1 1.7.8 2.9-1.6 5.5-2.6 3-2.6 2.8-1.2 6 1 2.2 1 2.4.2 3-.6.4-.8 1-.5 2 .3 1.4 0 1.8-1.2 2.7-.9.7-1.6 1.6-1.6 2 0 .6-.6 1.3-1.4 1.7-.9.4-1.7 1.4-1.8 2-.3 1-.7 1.3-1.9 1.3-1.7 0-2.3 1-1.5 2.5.4.8.4 1.2-.3 1.9-1.5 1.5-2.2 3.4-2.4 6.3-.1 1.7-.8 4.2-1.5 5.9-.7 1.6-1.2 3.3-1.2 3.9.1.8-.2 1-1.6 1.3-1.7.2-1.8.3-1.8 2 0 1.3-.3 1.9-1.1 2.2-1 .5-1.2 1-1.2 2.8 0 1.3-.2 2.6-.4 3-1.3 2 1.3 10.7 3.2 10.7.3 0 1.2.7 2 1.5.8 1 1.8 1.5 2.6 1.5 1.5 0 4.6 1.7 5.8 3.3 1.1 1.3 5.8 1.3 7.8 0 3.8-2.4 3 9.4-1.2 17.2-2.2 4-.1 3.3-16 5.5-7.7 1-13.2 2-20.6 3.6l-1.4.3V47.7H263v63.4M216.8 74c-.3 1.6 2 4.6 3.5 4.8 1.2.2 1.8 4.3 1.4 8.5-.2 2.2.6 5.5 1.4 5.5 1 0 5 4.5 5 5.7 0 1 .5 1.5 1.6 2.1 1.5.8 1.9 1.5 1 2-1 .6-.5 2.2.7 3 1.5 1 1.8 3.5.6 4.2-2 1.2-2.5 5.3-.8 6.2.7.4 1 1 1 2.1 0 1.4.1 1.5 1.3 1.3 1.7-.3 4.8 1.4 4.8 2.7 0 .6.4 1.4 1 1.9 2 1.7 3.1 4.6 1.7 4.6-1 0-1 1.6.2 3.9.8 1.6.8 1.8 0 2.2-.5.3-1 1.3-1.4 2.2-.9 2.7-5.3 6.6-7 6.2-1.1-.2-1.9 0-3 1-1.5 1.3-2 1.5-2.4.7-.2-.3-.9-.5-1.5-.5-.7 0-1.3-.3-1.3-.6 0-.4-.8-.5-2.6-.2-1.4.1-3 0-3.5-.2-.6-.4-1.4-.2-3 .7-1.6 1-2.4 1.1-3 .8-.7-.4-1.5-.3-2.6.3-1.2.6-1.8.7-2.6.3a14 14 0 0 0-4.1-.7l-3-.2v-2c0-1-.3-2-.7-2.1l-2.4-1.7c-1-.8-2.5-1.5-3.3-1.5-2 0-2.8-1.2-1.8-2.7 1.1-1.7 1-2.6-.5-4.6l-1.3-1.7 1.6-.8c1.6-.9 2-2.9 1.2-6.8-.3-1.6-.3-1.6-2.8-1.3l-2.4.3v-1.7c0-1.3.3-2 1.5-2.8 1.2-1 1.5-1.5 1.5-3.1 0-1.9 0-2 2.8-3.2 2.9-1.4 3.2-1.9 2-2.9-1-.9-1-3.7.2-5.1l1-1.2 1.3 1.4c1.5 1.7 4.8 2 4.8.4 0-.5-.3-1.2-.7-1.5-1.2-1-1-2 .7-3.6 1.9-1.7 1.9-2 .3-3.5-1.6-1.5-1.6-2.1-.2-3 1-.7.5-2-1-2-1 0-.8-4.5.4-6.6a20 20 0 0 0 1.3-2.7c.2-.5.6-.9 1-.9.3 0 1-.9 1.5-2 .8-1.7 1-1.9 1.8-1.5a2 2 0 0 0 2 0c.6-.4 1.4-.3 2.3 0 1.2.5 1.6.4 2.6-.8 1.4-1.5 2.3-1.2 2 .7m-118 16.5c.1 1.1 0 2.1-.3 2.3-.3.1-.5-1-.6-2.5-.2-3.3.7-3 1 .2m-3.6-.5c.7.8 1.5 2 1.7 2.6.3 1.1.5 1.2 4.5 1.2 4.8 0 4.6.1 5-3.8.1-1.5.1-1.5 3.3-1.5 3.8.1 3.7 0 4 3.5.2 2.2.4 2.8 1 2.8l3.5.3c2.6.3 2.7.3 2.7-1 0-3.7.4-4.2 2.8-3.7 2.4.6 2.4.5 3 8.6l.4 4.4-1.3-.3-1.4-.3v8l1.8.8c1.3.6 1.8 1.2 1.8 2l.3 4.3.3 3-5.2-.8a358 358 0 0 0-40.4-.4l-5.3.4-.8-2.2c-.8-2.2-.8-12.5 0-12.5.6 0 1 1.4 1 3.2 0 1.6 3.4 3.4 4.3 2.5.5-.5.3-8.2-.1-8.2l-2.9.7-2.4.7.3-4.9c.2-2.6.6-5.6.9-6.5.9-2.5 3.5-3.6 3.5-1.5 0 3 .5 3.4 3.1 3.4 3.7 0 4.5-.6 4.5-3.5 0-3.6 3-4.3 6-1.3m-11.6 3c0 .7-.2 1.3-.4 1.3-.6 0-1.2-3.5-.7-4.2.4-.7 1 1 1 2.8m14.8 9.4c0 .3.3.7.7 1 .5.5.8 1.6.8 3.4v2.7h2.8c2 0 2.8.3 3 .8.8 1.9 1.3.4 1.3-3.8v-4.5h-4.3c-2.4 0-4.3.2-4.3.4M122 122c2.6.3 5.2.6 5.8.8 1.3.3 6.6 46 5.5 47.8-.3.5-5.2.2-9.3-.5l-1.9-.3-.2-3.7c-1-15.3-18-16-19-.7-.2 4.2.4 3.9-8.5 4.3l-7.7.3-1.3-1.5c-1-1-2-1.6-3.2-1.7-1.6-.1-1.9-.3-2-1.4-.3-1.6-1-2.5-2.2-2.5-1.5 0-1-1.4.6-1.8 2-.4 1.9-1.1-.1-2-2.8-1.1-3.3-3.5-2.9-13.9 0-.7-.1-1.8-.3-2.4-.3-.8-.2-1.1.3-1.1 1.7 0 2.3-1 1-2-1.4-1.1-1.8-10.6-.5-14 1.1-2.7 2.1-3 10.8-3.7 13.3-1 25.3-1 35 0m89.7 29.6c.5.6 3.5.6 3.9 0 .1-.2.5 1.6.8 4a37 37 0 0 0 2.3 8.4l1.8 4.2-8.6.1c-9.7.2-9.2.3-8.4-1.7.3-.8 1-4.4 1.4-8l.8-6.6 1.9.2c1.1 0 1.9 0 1.9-.4 0-.6 1.6-.7 2.2-.2M263 234l-.1 55.4-1.4 3.7c-3 8.2-8.3 14.5-15.3 18.1-8 4.1-5.6 4-50 4h-39.4l-.1-67.7v-68.3c.3-.5 11.4-.7 53.4-.7h53L263 234m-153.4-42.8c5.4 0 5.6.4 2 3.2-3.4 2.7-3.4 2.7-2.2 7 1 4 .9 4.2-2.7 1.9-3.9-2.5-3.3-2.5-7.2 0-3.7 2.3-4 2.1-2.8-1.6 1.2-4.2 1-4.6-2.3-7.3-3.5-2.9-3.3-3.1 2.1-3.2h3.3l1-2.4 1.6-4.2.8-1.8 1.5 4.2 1.6 4.2h3.3m-40.6-3.8l1.4 3.8h3.3c5.3 0 5.5.4 2 3.2-3.3 2.7-3.4 3-2.2 7.5 1 3.8 1 3.8-2.7 1.4-3.8-2.5-3.5-2.4-7-.3-4.3 2.9-4.3 3-3.1-1.7l1-4-1.8-1.6c-1-1-2.4-2-3.1-2.6-1.8-1.4-1.3-1.6 3.2-2l3.9-.2 1.4-3.6c1.8-4.6 1.9-4.6 3.7 0m70.2.3l1.3 3.6h3.4c4.4 0 5.3.5 3.3 2a54 54 0 0 0-3.1 2.8l-1.6 1.5 1 3.7c1 4.6 1.2 4.6-2.3 2.4-4-2.6-4-2.6-7.6-.3-4 2.6-3.9 2.7-2.7-2.2l1-3.9-1.9-1.6-3-2.5c-1.8-1.4-1.3-1.6 3.1-2l3.8-.2 1-2.5 1.5-3.7c.6-1.7 1.2-1 2.8 3m35-2.3c-1.4 3.5-1 6.7 1.4 8.8 2 1.6 2.1 2 1.9 3.6-.8 4.3-2 8.1-2.9 8.7-3.3 2.4 4.1 8 8.4 6.4 2.1-.8 2.2-.7 2.5 2.4.2 2.1.8 4 2 6 1.7 3.3 1.5 6.8-.6 7.5-1.5.4-3.7 7-2.8 8.3.2.4 6.3.5 18.2.5H220v1.5c0 1.9-1.3 1.7 11.6 1.8 8 .1 11 0 11.6-.5.4-.3 1.7-.7 2.7-1 11-1.6 12.5-19 2.7-29.4-4.3-4.6-5.6-5.2-10.9-5.2-3 0-5.5-.4-10.2-1.8-3.5-1-9-2.3-12.6-3-7.9-1.4-16.4-5.3-15.7-7 .5-1.6.3-7.9-.3-8.5-.4-.4-.7 0-1.1 1.5-1.3 4.7-4.2 6.1-8.7 4.2-1.8-.8-3.1-1-4.4-.8-7 1.1-9.1.6-9.2-2.4 0-2.5-.8-3.3-1.5-1.6m-138.4.2c0 1-.3 1-8.2 1-12.3 0-14 1-14 7.4 0 5.8 1.8 6.8 12.8 6.8 8.6 0 9.4.1 9.4 1.5 0 .6.2 1 .4 1s.4-1.4.4-3c0-3-.5-4.2-.9-2-.1 1.4-15.8 2.1-18.6 1-2.9-1.3-3.3-6.4-.8-8.3 2.7-2 19.5-1.9 19.5.2 0 .5.2 1 .4 1s.4-1.7.4-3.8c0-2-.2-3.8-.4-3.8s-.4.5-.4 1m255 1.6c0 .2.5.5 1 .7 1.9.5 3.6 3.2 3.6 5.3 0 2.6-.8 3-6.2 3h-4.4v-2.5c0-2.5.1-2.6 1.8-3.3 2.5-1 2.2-1.3-2.1-1.2-3.8 0-3.9 0-2.6.7 1 .5 1.5 1.3 1.7 2.5.6 3.4.4 3.6-4.3 3.6h-4.3l-.2-2c-.2-2.7.7-4.6 2.6-5.6l1.6-.7H273.6v6.9c0 5.4.2 6.7.6 5.8.6-1.2.6-1.2 10.7-1l10.1.1.4 1.3c.1.7.4-2 .5-5.8.2-4 .2-7.3 0-7.4-.5-.5-5.1-1-5.1-.4M187.4 191c.4.4-4 3.2-5 3.2-.6 0-.7-.3-.5-1.1l.3-1.5c0-.7 4.6-1.3 5.2-.6m5.4 7.9c3.1 1.5 2.1 6-1.7 7.8a13 13 0 0 0-3.4 2.4c-1.5 1.6-3.8 3-4.5 2.5-.6-.4-.6-2.1 0-2.5.8-.5.6-1.8-.2-1.8-1.2 0-1-.6 1.2-2.8 1.1-1 2-2 2-2.3 0-1.5 1.2-3.2 1.6-2.3 1 1.9 2.7.8 2.6-1.8 0-1.3 0-1.4.6-.7a6 6 0 0 0 1.8 1.5m11 4.6c4.5 2.3 5.3 5.9 2 8.8-5.3 4.8-5.9 7-3 10.9 4.7 6 4.5 7.7-.6 6.8-2.6-.5-3.9-.5-6 0-1.7.4-2.7.4-3 0-1-.9.5-1.6 3.8-1.8 7.2-.5 7.4-1.5.9-7.7-5.8-5.6-6-6.5-1.8-10.4 2.1-2 2.8-3 3-4.3.3-2.8 2.1-3.6 4.8-2.3m87.4 1.2l2 2c2.2 2.1 2.6 4 1.2 5.4-.7.7-2.1.8-10.2.7l-9.4-.2-.6-1.2c-.6-1.2-.7-.8-.6 2.7 0 3.3 0 3.9.5 3 .6-1.2.7-1.2 10.6-1.2h10l.5 1.4c.5 1.4.5.7.8-10.9 0-1.2-.2-1.4-2.4-1.6a8.6 8.6 0 0 0-2.4-.1M14 209.6c0 2 .2 3.3.6 3.3.3 0 .4-.3.3-.7-.7-1.8.4-2 9.2-2.3 4.7 0 8.6 0 8.6.3 0 .2-4.4 3.1-9.8 6.5A108 108 0 0 0 13 223c0 .2 4.8.4 10.6.4 11 0 12.1.1 12.1 1.3 0 .4.2.7.5.7.5 0 .4-5.3 0-5.9-.3-.2-.5.2-.5.8a2 2 0 0 1-1 1.6c-1 .5-14.1.7-14.1.1 0-.2 3.6-2.6 8-5.2l7.9-4.9.2-2.6c.1-2.5-.6-3.6-1.1-1.6-.3 1-.7 1-10.2 1h-9.9l-.5-1.2c-.7-2-1-1.5-1 2m229.1 0c1.8.9 5 5 7.2 9 1.3 2.6 1.2 2.7-1.2 1.1-1-.7-3-1.6-4.5-2l-2.7-1-3.5 2.1c-6 3.6-8 6.5-7.4 10.9.2 1.8.1 2.4-.4 2.6-.4 0-2.2.6-4 1.3-1.9.6-4 1-4.8.9l-1.5-.2 1.7-.9c1-.5 2.9-1.2 4.2-1.6 3.1-1 3.8-2.3 4-7.3.2-12 5.8-18.2 13-14.8m-174.6 4c1.7 4.2 1.7 4.2 5.3 4.2 5 0 5.2.3 1.7 3.2-3.3 2.8-3.4 3-2.2 7.5 1 3.9 1 3.8-2.8 1.4-4-2.4-3.3-2.4-7.2 0-3.6 2.4-4 2.1-2.7-2.2 1.1-3.9 1.1-3.9-2.2-6.6-3.6-2.9-3.6-3 1.4-3.3l3.8-.2 1.6-3.9c1.7-4.3 1.7-4.3 3.3-.2m70.2.3l1.6 4h3.4c5 0 5.1.5 1.6 3.5l-3 2.6 1 3.9c1 4.8 1.2 4.6-2.3 2.4-4-2.6-4-2.6-7.6-.3-3.8 2.4-3.9 2.3-2.5-3l.8-3-1.9-1.6-3-2.6c-1.8-1.3-1.3-1.6 3.1-1.9l3.8-.2 1.6-4c2-4.6 1.4-4.6 3.4.2m-34 .1l1.5 3.7 3.8.2c5 .4 5 .4 1.4 3.3-3.4 2.7-3.4 2.7-2.2 7 1 4 .9 4.1-2.7 1.8-3.8-2.4-3.5-2.4-7.3 0s-3.7 2.5-2.7-1.7c1-4.6 1.1-4.4-2.2-7.1-3.6-2.9-3.4-3.2 1.7-3.3h3.5l1.5-3.8c1.9-4.6 1.8-4.6 3.6 0m169 12c0 3.4.1 4 .5 2.8l.5-1.4h20l.6 1.4c.4 1.1.5.6.5-2.9 0-3.4-.1-4-.5-2.9l-.6 1.4h-20l-.5-1.4c-.4-1.1-.5-.5-.5 3m-22 5.7c-1.4 3.7-6.6 6-8.6 3.8-.5-.5-1.4-1-2-1-1 0-1-.1.2-.6 1-.4 1.6-.3 3 .4 2.2 1.2 3.9.5 6-2.7 2.2-3 2.6-3 1.4 0m-237.7 2c0 2.5.2 3.9.5 3.7.3-.2.5-.8.5-1.3 0-1 .5-1 10.4-1h10.3v1.4c0 3 .6.4.7-3.1 0-3.6-.4-5.3-.8-2.7-.1 1.1-.1 1.1-10.2 1.1s-10.1 0-10.3-1.1c-.4-2.7-1-.8-1 3m259.6 4c0 3.4.1 4 .5 2.8.5-1.3.6-1.4 4.8-1.4h4.2v9.6h-4c-3.9 0-4 0-4.8-1.3-.7-1.4-.7-1.2-.7 2.9 0 3.4.1 4 .5 2.9l.5-1.4h20l.6 1.4c.4 1 .5.5.5-3 0-3.7 0-4-.6-3-.6 1.2-.8 1.3-5.7 1.3h-5v-9.1l5.1-.1 5.1-.2.5 1.4c.5 1.2.6.6.6-2.9 0-3.4-.1-4-.5-2.9l-.6 1.4h-20l-.5-1.4c-.4-1-.5-.5-.5 3m-205.1 2.6c1.6 4.3 1.7 4.4 5.2 4.4 5.1 0 5.3.4 1.6 3.4l-3.2 2.6 1 3.9c1.2 4.7 1.3 4.6-2.6 2.2-4-2.4-3.4-2.4-7.2 0-3.6 2.3-3.8 2.2-2.7-2.2 1-4.2 1.2-3.9-2.2-6.6-3.6-2.9-3.6-3 1.4-3.3l3.8-.3 1.5-3.6c1.9-4.5 2-4.5 3.4-.5m36.2.5l1.5 3.6 3.8.3c5 .4 5 .4 1.4 3.3-3.4 2.7-3.4 2.6-2.2 6.9 1 4.1.9 4.2-2.7 2-4-2.5-3.5-2.5-7.3-.1s-3.7 2.5-2.7-1.7c1-4.6 1.1-4.4-2.3-7.1-3.4-3-3.3-3.2 2-3.3h3.3l1.6-3.8c1.8-4.6 1.8-4.6 3.6-.1m34.2.4l1.4 3.5h3c5.7 0 5.8.2 2.4 3-3.7 3.2-3.5 2.7-2.4 7 1.1 4.6 1.2 4.6-2.3 2.4-4-2.6-4-2.6-7.6-.3-4 2.6-4 2.6-2.8-1.8 1.3-4.5 1.4-4.1-2-7-3.6-2.9-3.6-3 1.3-3.3l3.8-.3 1-2.5 1.5-3.7c.6-1.6 1.2-1 2.7 3m-103.4-1c-.3 1.1-.4 1.1-11.2 4.8-4.5 1.6-8.8 3-9.6 3.4-1.4.5-.8.8 9.3 4.1 9.2 3 11 3.8 11.5 4.8.3.7.6 1.2.7 1 .2-2 .1-6-.2-6-.2 0-.4.3-.4.7 0 1.5-1.4 1.4-7.9-.5-8.1-2.3-8.1-2.3-3-4.1 9-3.3 10-3.5 10.7-2.4.7.8.7.5.7-3 0-4-.1-4.7-.6-2.9m131 9.9c-1.8 4.1-1 8 2 9.8 1.6.9 1.6.8 0 7.5-.5 2.7-1 3.7-1.7 4-.8.2-.9.6-.7 1.8.7 3.5 3.7 5.2 8.3 4.8l3.2-.3v2.4c0 1.9.4 3.4 1.7 6 2 3.9 1.8 6.7-.6 7.8a3 3 0 0 0-1.5 1.9l-1 3.7c-.8 3.1-2.3 2.9 18.3 3l17.7.1v1.2c0 .6.3 1.4.5 1.6.7.7 21.7.9 22.5.2a12 12 0 0 1 3.3-1.2c11.2-2.6 12.1-19.8 1.6-30.3-3.9-4-3.9-4-10.3-4.2-3.2-.1-6-.7-9.8-1.8-3-.9-8.3-2.2-12-2.9-5.6-1-7.4-1.6-12-3.8l-5.2-2.6.8-1.8c.6-1.7.6-2.6-.2-6.8-.4-1.8-1-1.4-1.4.9-.8 4.2-4.6 6-8.5 4-1.1-.6-2.3-.7-4.6-.5-7.6.8-8.5.4-9.3-3.7l-.5-2.3-.6 1.5m12.7 6.2c.5.4-3.7 3.1-4.8 3.1-1.1 0-.8-1.8.5-2.9.9-.6 3.8-.8 4.3-.2m96 2.6c-1.2.3-1.5.6-2 2.8-2.4 9.4 8.5 16.7 17.9 12 6.8-3.6 7.7-15.3 1-15.3-2.5 0-2.5.7.1 1.8 3.6 1.6 4.6 4.8 2.5 7.5-5.2 6.7-21.2 4.1-21.2-3.4 0-1.4 3-4.9 4.1-4.9.3 0 .5-.2.5-.5 0-.5-.5-.5-2.8 0M14 266.9v7l1.7.4c3.2.6 3.9 0 1.7-1.2-2-1.3-2.5-2.5-2.3-5.5l.2-2h5c5 0 5 0 5.3 1.2.3 2.3-.4 3.7-2.3 4.5-2.4 1-2.2 1.1 2 1.1 4 0 4.7-.3 2.7-1.2-.9-.4-1.1-1-1.3-3.1l-.1-2.7h4.3c3.9 0 4.3.1 4.6 1 .8 2.4-.3 4.9-3 6.9-1 .6-.9.7 1.4.6l2.5-.2V267c0-6.2-.2-8-.8-5.6-.3 1-.7 1-10.2 1h-9.9L15 261c-.8-2.2-1-1.4-1 5.8m172.8 0c0 2.3-1 3.7-3.2 4.6-.9.4-2.7 1.6-4 2.8-3.2 3-6.9 2.6-4.2-.4 1-1 1-1 0-1.7s-1-.8.8-2.6c1-1 2.2-2.7 2.7-3.6.6-1.2 1-1.6 1.3-1.1.7 1.2 2.2.3 2.4-1.4l.2-1.6 2 1.6c1.6 1.3 2 1.9 2 3.4M139 268l1.3 3.4h3.7c4.8 0 4.9.2 1.3 3.5l-3 2.8 1 3.7c1.1 4.6 1.2 4.6-2.3 2.4-4-2.6-4-2.6-7.7-.3-4 2.5-3.9 2.6-2.7-1.8 1.3-4.6 1.4-4.2-2-7-3.6-2.9-3.4-3.3 1.2-3.3 3.9 0 3.9 0 5.6-4.5 1.6-4 1.6-4 3.6 1m-70.3-.4l1.6 3.6 3.8.3c5 .3 5 .3 1.4 3.2-3.3 2.7-3.4 3-2.2 7.5 1 3.8 1 3.8-2.8 1.4-4-2.5-3.4-2.5-7.2 0-3.6 2.3-3.8 2.1-2.7-2.2 1-4.3 1.2-3.9-2.2-6.7-3.6-2.8-3.6-3 1.4-3.2l3.8-.3 1.5-3.6c1.8-4.5 1.8-4.5 3.6 0m36 0l1.5 3.6 3.8.3c5 .3 5 .4 1.4 3.2-3.4 2.7-3.4 2.7-2.2 7 1 4 .9 4.2-2.7 1.9-4-2.5-3.5-2.5-7.3 0-3.8 2.4-3.7 2.4-2.7-1.8 1-4.6 1.1-4.4-2.3-7.1-3.6-2.8-3.3-3.2 1.8-3.2h3.5l1.5-3.8c1.9-4.7 1.9-4.7 3.7-.1m93.2 1c1.3.9 2.9 3.5 2.9 4.8 0 .3-1.5 2-3.2 3.7-3.8 3.8-5 6.4-3.7 8.2 5.5 7.4 6.2 9.8 2.7 9.1-2.8-.5-7.2-.6-9.3 0-1.5.3-1.7.3-1.7-.6 0-1.1 1.7-1.6 5.3-1.6 6 0 5.8-2.3-.6-7.6-5.2-4.3-5.8-7.2-2-10.2 2.8-2.2 3.4-3 3.4-4.5 0-3 2.9-3.7 6.2-1.4m37.4 5.2c2 .8 4.6 3.8 6.8 8 2 3.6 2 3.7-.8 2-5.4-3.4-7.4-3.2-13.4 1.2-3.5 2.5-4.4 4.3-4.4 8.4 0 3.1 0 3.4-1 3.4-.6 0-2.3.5-3.9 1a18 18 0 0 1-4 1c-2.1 0-.5-1.3 2.8-2.3 4.4-1.4 5.1-2.2 5.1-6.5 0-12.2 5.6-19.2 12.8-16.2M14 282.6c0 4.2.2 4.8 1 2.8.5-1.3.7-1.3 5-1.3 7.5 0 7.1 1.6-1 4.8l-5 2v2.5c0 2 .2 2.4.6 1.5.3-.6 2.2-1.8 5.1-3 2.6-1 4.9-2 5.1-2.3.3-.2 1.2.4 2.1 1.3 1.4 1.5 2 1.8 3.7 1.8 5 0 6.3-2.1 6-9.4-.4-5.3-.4-5.4-.8-3.8l-.4 1.3-10 .1-9.9.2-.5-1.3c-.8-2-1-1.5-1 2.8m21.6 3.1c.5 4.3-8 5.7-9.3 1.6-1-3-.6-3.3 4.6-3.1 4.6.1 4.6.1 4.7 1.5m69.2 8.6l1.5 3.7 3.8.2c5 .4 5 .4 1.4 3.3-3.4 2.7-3.4 2.7-2.2 7 1 4 .9 4.1-2.7 1.8-3.8-2.4-3.5-2.4-7.3 0-3.7 2.3-3.8 2.3-2.7-1.9 1-4.2 1-4.3-2.2-7-3.6-2.8-3.6-2.8 1.3-3.2l3.9-.2 1.5-3.7c2-4.5 1.9-4.5 3.7 0m168.3 1.8c0 1.9-.1 5-.3 7-.2 3.3-.2 3.4.6 2.4s1-1.1 10-.8c9.6.2 11 .5 11 2.2 0 .5.1.9.3.8.3-.3.5-2.3.8-12.5 0-1.7 0-1.7-2.2-2.1-3.2-.6-3.6-.3-1.4 1.1 2.1 1.4 3 3.7 2.5 6-.5 1.7-9.9 2.4-10.5.8-.7-1.8.5-4.5 2.2-5 2.7-.8 1.9-1.3-2.3-1.3-3.7 0-3.8 0-2.5.8 1.3.7 1.4 1 1.4 3.6v2.8l-4.2-.4c-2.2-.2-4.3-.4-4.5-.6-1.3-.8.5-6 2.4-6.8 2-.9 1.5-1.4-1-1.4H273v3.4m-28.8-.3c-1.2 4.2-7.4 7.5-9 4.6-.2-.4-1-.8-1.8-.8-1 0-1.2-.1-.7-.4 1-.6 3.3-.6 3.7 0 1 1.8 5-.1 6.6-3.2 1.2-2.2 1.8-2.3 1.2-.2m-214.5 3c-2.4.5-3.9 2.1-5.2 5.6-1.7 4.9-4.4 6.8-7.6 5.4-3.8-1.5-2.8-6.9 1.6-8.3 2-.6 1-1.1-1.4-.7-6.7 1.3-3.8 11.6 3.3 11.6 3.9 0 6.8-2.7 8.2-7.5.9-2.9 2.1-4.1 4.3-4.1 4 0 5 3.4 1.6 6.3l-2.1 1.8 2-.3c4.4-.8 4-8.3-.4-9.6-2.1-.6-2.7-.7-4.3-.3M271.5 311c-2.3 1.2-4.6 4-6.6 8-1.3 2.7-1.6 5.3-.3 3 .8-1.4 1.2-1.2 9.3 4.3 7.4 5 7.5 5.2 7.4 7-.1 1.9-.5 2.2 3.7-3.5 3.8-5.2 4.6-8.3 3-12.2-2.6-6-11-9.5-16.5-6.6m-234.6.7c.2 2.2-15.9 12.4-17.4 11-1.6-1.4-1.5-.4.2 2.3 3.2 4.8 3 4.6 2.6 2.8-.2-1.6-.2-1.6 7.9-6.7 8.5-5.3 9-5.6 10.1-4.3 1.3 1.6 1 .2-.6-2.2l-2.3-3.4c-.6-.9-.6-.9-.5.5m241.5 1.7c7 3.3 10.3 9.6 7.3 13.8-1.5 2.1-2.1 2-10.1-3.4-9.4-6.3-9.4-6.2-7.2-8.8 2.3-2.7 6.2-3.3 10-1.6m-235.7 8.3c1.6.7 1.6.7-3 10-4 7.8-4.3 8.3-5.6 8.2-.8 0-1.4 0-1.4.3 0 .5 9.6 5 11.4 5.3 9.3 1.9 16.4-12.7 9.5-19.6a24 24 0 0 0-10.4-4.8c-1.5 0-1.6 0-.5.6m7.7 3c7.9 5.3-1 22.9-9.5 18.8-2.7-1.4-2.6-2.1 1.7-10.8 5-10.3 4.8-10 7.8-8m129.3 2.2c-1 4.4-.8 4.6 1.7 1 .4-.4 1.5-1 2.5-1.1l1.8-.3V346.7l-1.2.5c-2.1.8-1.5 1 2.9 1 4 0 4 0 2.8-.8l-1.4-.7v-20.1h1.7c2 0 3.8 1.4 3.8 3 0 2.3 1 .7 1.1-2 .3-3.4.2-3.5-.8-2.4-1.2 1.1-11.6 1.2-13.2 0-1-.6-1.1-.6-1.7 1.6m-112.6 3.4c-5 15.9-5.3 16.7-6.6 17.4-1.1.6-.9.6 2.3.6 3.4 0 3.5 0 2.1-.8-1.5-.8-1.5-.7-.1-5.5.5-1.8.7-2 2.2-2.2 3.2-.3 3.8.2 4.7 3.4 1.1 3.9 1.1 4-.2 4.6-.9.3 0 .5 2.9.5h4l-1.3-1.1c-1.1-1-2-3-4.5-11.2-3.8-12.4-3.5-12-5.5-5.7m99.6-4.5c-5 2.3-4.3 8.8 1.4 12.2 3.6 2.2 4.5 3.4 4.5 6 0 5.6-7.5 5.5-8.4-.2-.4-2.7-1.2-2-1.2 1 0 3.1 1.4 4.2 5 4.2 8 0 9.9-10 2.7-14-3.8-2.3-4.7-3.3-4.7-5.4 0-4.1 4.6-5 6.3-1 1.3 2.6 1.8 2.6 1.8.1 0-3.1-3.7-4.6-7.4-2.9m58.8-.4l-3.1 9.8c-3.6 11.6-3.7 11.9-5 12.5-.9.5-.4.6 2.4.6 3 0 3.3-.1 2.2-.6-1.6-.5-1.7-1-.8-4.3.8-3.3 1.2-3.7 3.9-3.5 3.3.2 5.7 6.8 3 8-.9.2 0 .4 3 .4 4 0 4.3 0 3-.7-1-.6-1.6-1.8-3.1-6.7-4.4-13.8-5.2-16-5.5-15.5m-144.3.8l-1.3.6 1.4.2 1.4.2v19.6l-1.4.7c-1.2.5-.6.6 4.6.7 11 .3 16-5.6 13-15.6-1.7-5.7-11.4-9.2-17.7-6.4m47.6 2.8l-3.4 10.8c-1.8 5.9-2.5 7.5-3.4 8-1 .4-.6.5 2.1.5 2.8 0 3.1-.1 2.1-.6s-1.1-.8-.8-2.9c.6-4.1 1.2-4.8 4-4.8h2.6l.8 2.5c1.2 3.6 1.1 4.8-.2 5.3-.8.3 0 .5 3.1.5 4 0 4.3 0 3-.7a4.6 4.6 0 0 1-1.9-2.4c-4-13-6.2-19.6-6.5-19.6-.2 0-.9 1.5-1.5 3.4m73.4-3l-2.5.5c1.6.2 1.7.9 1.7 10.5 0 9-.2 10.3-1.3 10.3-.4 0-.8.3-1 .5-.2.3 1.1.5 3.5.5 2.2 0 3.8-.2 3.8-.5 0-.2-.4-.5-1-.5-1 0-1-.3-1-5 0-7.4 1.4-7 4.6 1.2l1.8 4.6 2.7.1c2.5.1 2.7 0 1.6-.5-.8-.4-1.8-2-3-4.7-.8-2.2-1.8-4.4-2.1-5-.5-.7-.3-1 1-2.2 5.7-5.4 1-10.7-8.8-9.7m-109.8 1.6c6.5 4.6 4.2 18.6-3.2 19.9-3.3.6-3.5 0-3.5-11 0-11.2 1.2-12.8 6.7-8.9m48.9-1c1.3.7 1.3.7 1.5 9.8.3 11.5.9 12.4 6.9 12.5 5.8.1 6.7-1.5 6.8-11.9 0-8.9.3-10 2-10.5.8-.3 0-.4-2-.4-1.9 0-3 .1-2.6.3 1.8.6 2 1.7 2 9.3 0 10.4-.8 12-5.7 12-4 0-4.1-.5-4.1-11.5v-9.4l1.3-.3c.7-.2-.5-.4-3-.4-3.8 0-4.2 0-3.1.6m96.8-.2c1.2.5 1.2.6 1.2 10.5v10l-1.4.6c-1.1.4 0 .5 5.5.6h7v-1.4c0-.7.1-2 .3-2.6.2-1 0-1-1.5.8-5.1 5.9-6.9 3.7-6.9-8.4v-9.5l1.4-.5c1.1-.4.6-.5-2.7-.5-2.9 0-3.7.1-2.9.4m-30 1c3.5 2.8 1 10.4-3 9-.7-.4-1-8.9-.3-9.6.6-.7 2-.4 3.3.7m-139 7.4c1.3 3.8 1.3 3.6-1.3 3.6-1.5 0-2.2-.1-2-.6l1-3.6c1-3.4 1.1-3.3 2.4.6m61.2-.4c1 4 1 4-1.2 4-1.1 0-2 0-2-.2 0-1 1.7-6.8 2-6.8.2 0 .7 1.3 1.2 3m95.6.5l1 3.5h-2.2c-1.2 0-2.2 0-2.2-.2 0-1 1.7-6.8 2-6.8.2 0 .8 1.6 1.4 3.5"/>
    <path fill="#999" d="M312.3 156v78a56376.7 56376.7 0 0 0 0-78m-4.6 2.6c0 85 0 119.7.1 77a56066.8 56066.8 0 0 0 0-77M174.2 14.2c.4.2 1.2.2 1.7 0 .5 0 .1-.2-.9-.2s-1.3.1-.8.2M43.5 16.6v17.7l.3-9.2c.3-9 .2-9.8-.3-8.5m38.2 8.8L82 35v-9.1c.2-5 0-9.2-.2-9.4-.2-.3-.2 3.8-.1 9m156.7-8c0 1 0 1.4.2 1v-1.9c-.1-.4-.2 0-.2 1m6.7-1c-.2.4-.2 4.1-.2 8.3l.2 7.5.2-8.2c.3-8 .3-8.8-.2-7.5M153.5 18c0 .8-.4 1.5-.7 1.6-.5.2-.5.3 0 .3.8 0 1.3-1.1 1-2.3-.2-.6-.3-.5-.3.4m58.6 3c0 1 .1 1.3.3.8v-1.7c-.2-.5-.3-.1-.3.9m36.4 15h1.8c.4-.2 0-.3-1-.3-.9 0-1.3.1-.8.3m-207.3.5h2.2c.7-.1.2-.2-1-.2-1.3 0-1.9 0-1.2.2m13.9 0h1.7c.5-.2.1-.3-.9-.3s-1.3.1-.8.3m43.9 0h1.8c.5-.2 0-.3-1-.3-.9 0-1.3.1-.8.3m19.4 0h2c.6-.2 0-.3-1-.3-1.2 0-1.6.2-1 .3m83.6 0h1.8c.5-.2 0-.3-.9-.3-1 0-1.4.1-.9.3m27.6 0h2.2c.7-.1.1-.2-1.1-.2-1.3 0-1.8 0-1.1.2m32.3 0h2c.5-.2 0-.3-1.1-.3s-1.5.2-1 .3M69.6 37h2.2c.7-.1.1-.2-1.1-.2-1.3 0-1.8 0-1.1.2m87.3 11c-1 1-.4 126.5.5 126.5.6 0 .7-.2.3-.3-.5-.2-.6-13.3-.6-63.1V48.2h105.5l.1 63.3.2 63.3v-63.6l.2-63.5h-53c-29 0-53 .2-53.2.4m65.5 28.3c.5.6 1.3 1.1 1.8 1 .7 0 .7 0 0-.2a8 8 0 0 1-1.7-1.1c-1-.8-1-.8 0 .3M196 78.7l-1.5 1.6 1.6-1.5c1.6-1.4 1.9-1.8 1.5-1.8l-1.6 1.7m29.3 4.1c.5 1.9.7 2.3.7 1 0-.5-.2-1.3-.5-1.7-.4-.6-.4-.4-.2.7M98 89.8c0 1.2.2 2.5.5 2.6.6.4.6-2.6 0-4-.4-.8-.5-.4-.5 1.3m-8.3 0l-.4 3.2c-.2 1.5-.2 1.5-3.4 1.7-3.5.2-4-.2-4-2.5-.1-2-1-2.3-2.4-.9-1.3 1.3-2.2 5.8-2.2 10.5v2.2l1.6-.4 2.8-.6c1-.2 1.1-.1 1.1 4.1 0 2.4-.1 4.4-.3 4.4-2.4 0-4.2-1.3-4.2-3 0-2.7-.9-3.7-1.2-1.5-.6 3.4-.8 9-.4 9 .2 0 .6.9.8 2 .5 1.8.6 1.8 2.8 1.7 19.5-1 36.3-.7 46.4.7l2.2.3-.4-3c-.5-5.2-.7-5.6-2.3-6.2-1.3-.6-1.5-.9-1.5-3 0-1.4-.1-3.2-.3-4.1-.3-1.7-.3-1.7 1.3-1.4 1.8.4 1.7.9 1-6.3-.6-5.8-.5-5.7-3-6.2l-2-.3-.3 2.8c-.2 2-.5 2.8-1 2.6L117 95l-2.8-.3-.3-3c-.4-2.8-.4-2.8-2.2-3.1-4.5-.8-5.1-.4-5.1 3.3 0 1.7 0 1.8-5 2l-4.2.1-.6-1.7c-1.3-3.7-6.6-5.5-7.1-2.4m-7 2.1c.2 1.9 1.1 3 1.1 1.4 0-1.3-.6-3.1-1-3.1-.1 0-.2.8 0 1.7m24.7 14.1c.1 4.2-.5 6-1.5 4.2-.4-.6-1.2-.9-3.3-.9H100v-2.7c0-2.3-.2-2.9-1-3.3-2-1-.5-1.6 4-1.4l4.3.1.2 4m-20.9 16c-8.6.7-8.9.8-10 3.8-1.5 3.6-1.3 12.6.3 13.9 1 .8.8 2-.4 2-.6 0-.7.6-.7 2.4 0 1.3 0 4-.2 6.2-.3 3-.2 4 .4 4.8.4.5.7 1.5.7 2.1 0 .7.4 1.3 1 1.4 2.7.9 3.2 2 1.1 2.5-2 .4-2 1-.2 1.9 1 .4 1.5 1.2 1.7 2.2.2 1.3.4 1.5 2.4 1.6 1.7.2 2.3.4 2.7 1.4l.6 1.2h16.4l.2-2.9c1.5-16.5 19.5-16.5 19.6 0 0 1.6.2 3 .4 3.2 1.1.6 10.3 1.4 10.7.8.6-1-3.7-45.7-4.5-47-1-1.6-29.2-2.5-42.2-1.5m89.8 1c0 1.1.3 1.8.5 1.5.3-.2.2-1 0-1.9-.5-1.4-.5-1.4-.5.5m68.8 4.5c-.4 2.1 0 2.5.5.4.2-.8.2-1.7.1-1.8-.1-.1-.4.5-.6 1.4m-3.6 13.9l-1.5 1.3 1.7-1.2c.9-.6 1.6-1.2 1.6-1.3 0-.4-.5 0-1.8 1.2m-18.5 7.4c1 .3 2 .3 2.7 0 .7-.3.3-.4-1.7-.4-2.5 0-2.5 0-1 .4m-25.5 3.9c0 2 .1 3 .2 1.9v-3.8c0-1-.2-.2-.2 1.9m21.2-2c0 1 0 1.3.2.8V150c-.1-.5-.2-.1-.2.9m0 3.7c0 1.2.1 1.6.2 1v-2c-.1-.6-.2 0-.2 1m2.4 9c0 .6 1.5 3.4 1.8 3.4.1 0-.1-.7-.6-1.6-1-1.9-1.2-2.2-1.2-1.7m7 5.2h2c.4-.1 0-.2-1.2-.2-1 0-1.5 0-.9.2M66 185.7c-.5 1.1-.7 2.3-.6 2.5.2.2 0 .4-.2.4-.8 0-1.2 2-.5 2.9.3.4.4.8.3 1-.5.4-1.4-.3-1.1-.9.3-.5-4.6-.5-6 0-.7.3.3.8 3.6 2 2.6.8 4.5 1.3 4.3 1-.1-.2 0-.4.3-.4s.5.3.5.6.2.4.3.3c.2-.2 0-.8-.3-1.4-.4-.9-.4-1 0-.8.5.3.6-.6.5-4-.1-2.3 0-4.3.2-4.3s.4-.2.4-.5c0-1.2-1-.3-1.7 1.6m36.4-1.2v1.5c0 .3-.2.6-.4.6-.5 0-2.1 4-1.8 4.5.1.2-1 .2-2.6.1-1.6 0-3 .1-3.3.4-.7.7-.3 1 1.4 1.2.8 0 1.7.3 1.8.6.2.2 1 .5 1.9.5.8 0 1.4.2 1.3.4-.2.2.2.4.7.4.6 0 1.2.3 1.3.6.2.4.2-1.2.1-3.5 0-2.3 0-5.1.2-6.2.2-1.1.2-2 0-2-.3 0-.5.4-.6.9M36.4 188c0 1.6 0 2.2.2 1.4v-2.8c-.1-.7-.2 0-.2 1.4m98.3 1l-.6 2c0 .2-1.2.2-2.8.1-1.9 0-2.6 0-2.4.4.2.4 0 .5-.5.3-.4-.2-.7-.1-.7.1 0 .4 3.8 1.8 5.3 2l1.2.4c.5.3.6.3.3-.1-.2-.3-.1-.6.1-.6.3 0 .7.3.8.7.7 1.8 1.2.6 1.3-3 .1-4.3-1-5.6-2-2.4m138.6-1.2a10 10 0 0 0 0 3c0 2 .1 2 .3-.8.3-3 .2-3.4-.3-2.2M140 191c.2.7 0 1.5-.6 2-1.1 1.4-1.3 2.4-.4 2 .4-.2.8-.7.8-1.3 0-.5.2-1 .5-1 .2 0 .3.4.2.8-.4.9.6 1 1 .3.2-.3.6-.4.8-.3.2.2 1 0 1.9-.3 2.8-1.2 3.5-1.1 2.4.2-1 1-.9 1 .4 0 1.6-1.5 1.6-1.4.7-1.5-5.6-.7-6.5-.7-6.2 0l-.7-.6c-1-1.1-1.1-1.2-.8-.3m43.3.3c-1 .4-1.7 3-.7 3 .8 0 4.6-2.9 4.3-3.2-.4-.5-2.2-.4-3.6.2m-114 1c-.4.6-.7 1.2-.5 1.4.1.1-.1.6-.6 1-.6.4.1.2 1.8-.4 1.5-.5 3-1.4 3.5-1.9.4-.5.6-.6.4-.3-.2.4-.1.7.2.7.3 0 .5-.2.5-.5 0-.2.5-.3 1.2-.2.9.2 1 .2.3-.3-1-.7-4.7-.7-4.2 0 .2.4 0 .4-.7 0s-1.1-.3-1.8.6m36.3-.3c-1.1 1.1-2 2.7-1.3 2.7.3 0 .6-.2.8-.5.2-.3.8-.4 1.4-.2.7.2.9.1.6-.3-.3-.4 0-.5.6-.3s1.4 0 1.8-.4c.3-.3 1-.6 1.3-.5.3.2 1 0 1.5-.3.8-.6.8-.6 0-.3-.5.1-.9 0-.9-.2 0-.9-4.9-.6-5.8.3m190.3 4.7c0 2.1.1 3 .2 2v-3.9c-.1-1-.2-.2-.2 2M105.8 199c1.3 1.7 2.5 3 2.8 2.8.3-.2.4 0 .2.3-.2.4-.1 1 .3 1.5.5.7.5.7-.4.4-1-.3-1-.3 0 .4 1.4 1.2 1.5.7.5-3.2-.4-2-.7-4-.5-4.4.2-.7.2-.7-.4-.2-.6.4-1.2.4-2.7-.1l-2-.7 2.2 3.2m32.2-2.9c1.2 2.1 4.4 6 4.9 6 .2 0 .3.3.2.5-.2.3 0 .7.3.9.4.2.5 0 .2-1l-.6-2.9c-.2-.8-.5-1.3-.7-1.2-.3.2-.4 0-.2-.5s0-.8-.6-.9H140a4 4 0 0 1-1.5-.9c-.8-.7-.9-.7-.5 0m-76.7 1c.2.4 0 2.2-.5 4-.9 3.3-1 5-.2 3.1l.5-1.5c0-.2.6-1 1.3-1.8 4-4.7 4.2-5.3 1.3-4.3-.9.4-1.5.4-2 0s-.6-.3-.4.4m7.3-.3c0 .7 3 5 3.7 5.3.3.1.6.7.7 1.2 0 .6-.2.9-.5.7-.3-.2-.4-.1-.2.2.2.4.6.5.9.3.2-.1.4 0 .4.4 0 .3.1.5.3.3 1.4-1.4-2.7-9.2-4.4-8.2-.4.2-.4.2-.2-.2.2-.3.1-.6-.2-.6-.3 0-.5.3-.5.6m31.5 0c-.1.2-.5.3-.8.1-.8-.5-1.7 1-2.6 4.5-1 4.1-1 4.6-.1 2.7.4-.8.6-1.6.5-1.9-.2-.2 0-.4.3-.3.4 0 .7-.3.6-.8 0-.4.1-.7.3-.6.2 0 1-.8 2-2 1.1-1.6 1.4-2.3.9-2.3-.4 0-.9.2-1 .5m34.3.8c-.4.7-1.2 1.2-1.7 1.2-.7 0-.6-.1.3-.6 1.3-.6 1.6-1.7.3-1.2l-1.2.3c-.7 0-1 2.6-.5 3.3.4.5.4.8 0 1-.4.3-.5.2-.3-.2.2-.3.1-.5-.1-.5-.8 0-1.2 3.1-.5 3.7.4.4.5.4.2 0-.2-.4.2-1.3.8-2 2.4-3 4.5-6.3 4-6.3-.2 0-.8.6-1.3 1.3m56.3.8c0 1.6-1.4 2.8-2.5 2.1-.9-.5-1-.4-1.7 1.3a10 10 0 0 1-2.4 3.3c-1.5 1.3-1.6 1.4-.8 2.3.8.8.8 1 0 1.6a2 2 0 0 0-.6 1.7c.2 1.5 1.8 1 4.6-1.6 1.3-1.2 2.7-2.2 3.2-2.2 1.5 0 3.7-2.8 3.7-4.7 0-1.6-1.2-3.4-2.4-3.4-.3 0-.6-.2-.8-.6-.1-.4-.2-.4-.3.2m82.4 1c0 2 .6 3 1.2 1.9.2-.4.2-.5-.2-.3-.3.3-.6-.3-.7-1.5l-.2-2-.1 2M31.8 201h1.8c.5-.1 0-.2-.9-.2-1 0-1.4 0-.9.2M200 204c-.3.4-.6 1.5-.8 2.5-.3 1.3-.9 2.2-2.2 3.2-5.3 3.9-4.8 6.5 2.2 12 5.2 4 5 6.2-.8 6.6-4.1.2-5.5.8-4.9 1.8.2.3.8.3 1.9 0 1.5-.6 7.3-.4 9.4.3 2.3.7 1-3.3-2.3-7.5-2.6-3.3-2-5.5 2.4-10a14 14 0 0 0 3-3.8c0-3.4-6.1-7.3-7.9-5m37.9 5.2c-4.2.8-7 6.5-7.6 15.2-.4 6-1.2 7.2-5 7.9-2 .3-5.1 2.3-3.7 2.3.5 0 2.2-.5 3.8-1 1.6-.6 3.5-1 4.1-1 1.3 0 1.4-.2 1.2-3.6-.2-4.3 2-7.2 8.1-10.7 3.4-2 6.7-1.5 11.2 1.7l1.5 1-1-1.6c-4.6-8.5-7.8-11-12.6-10.2m35.4 1.4c-.2.4-.2 1 0 1.1.2.2.3 0 .3-.6 0-.8.1-.9.5-.2.3.4.5.5.5.1 0-1-1-1.3-1.3-.4m22.7 2.8c0 2 .1 3 .2 1.9v-3.8c-.1-1-.2-.2-.2 1.9m-229.5-2.5l-.2 1.1c0 .3-.3 1-.7 1.3-.3.4-.5 1.1-.3 1.7.2.7.2 1-.2.7-.5-.3-1.3 1.4-.9 2.1.1.2-1 .3-2.5.2-4.7-.3-4.9.6-.4 2.1 2.1.7 4.1 1.2 4.3 1 .3 0 .4 0 .4.3s.2.6.5.6c.2 0 .4-2.1.4-4.7s.2-5.2.4-5.8c.2-.7.1-1.1-.2-1.1-.3 0-.6.2-.6.5M102 212c-.4 1-.5 2-.3 2.4.2.4.2.5 0 .3-.5-.5-1.9 2.3-1.6 3.3v.2c-.4-.5-5.4-.5-6.2 0-1 .7 0 1.2 2 1.3.8 0 1.3.2 1.1.5-.2.3 0 .4.5.2s1 0 1.1.2c.2.3.6.3.8.2.3-.2.5 0 .5.3s.3.4.7.3c.5-.2.8-.1.8.1s.3.4.8.4c.4 0 .7-.3.7-.7 0-.4-.2-.6-.5-.4-.3.2-.5 0-.5-.2 0-.3.2-.5.5-.5.2 0 .4-2 .4-4.3s.1-4.5.3-4.8c.2-.3.2-.5 0-.5-.3 0-.8.8-1.1 1.7m33.2 2.4c-.7 1.8-1.2 3.3-1.1 3.4 0 .2-1 .2-2.3.1-3.8-.2-6.5.5-5.4 1.5.6.4.8.4.6 0-.5-.7 2.2-.3 4.3.8.8.4 1.6.6 1.8.6h.6l1.7.4 1.4.2-.1-5c-.2-6 0-5.9-1.5-2M273.3 217.1c.1 1.3 1.3 1.7 1.3.5 0-.7 0-.8-.4-.2-.4.5-.5.5-.8-.3-.2-.9-.2-.9-.1 0m-133.2.7c0 .3-.3 1.2-.9 1.9-1.3 1.6-1 2.3.6 1.6l2.2-.7c.5 0 1.2-.4 1.5-.6 1.3-1 4.1-1.3 3.4-.2-.7.8-.6.8.4-.1l1.2-1-1.5-.3a27 27 0 0 0-4-.4c-1.5 0-2.7-.2-2.8-.4-.2-.3-.2-.2-.1.2m-70 .6c0 .2.2.6.4.7.2 0 0 .1-.2 0-.3 0-1.1.6-1.8 1.5-.7 1-.8 1.3-.3 1 .5-.4.9-.6.9-.4 0 .1 1.1-.2 2.5-.7 1.3-.5 2.6-.8 2.8-.6.2.2.2-.1 0-.7-.2-.7-.2-.8.4-.3.6.5 1 .5 1.7 0 .8-.5.8-.5 0-.3-.5.2-.9 0-.9-.2s-.9-.5-2-.5c-1.5 0-2 .2-1.7.7.3.5.2.5-.3 0-.8-.8-1.5-.9-1.5-.2m36 .4c.3.5.2.7 0 .5-.3-.3-2.2 1.7-2.2 2.4 0 .2 3-.7 5-1.6.5-.2 1.1-.4 1.5-.4 3.3-.7 2.2-1.7-1.9-1.8-2.3 0-2.6.1-2.3.9m-37.8 5c.5.8 1 1.6 1.2 1.7 1 .9 4 5.3 4 6 0 .4.1.6.3.5.5-.6-.9-5-1.6-5-.4 0-.7-.2-.7-.5s.2-.4.5-.2c.4.2.5-.1.4-1 0-.6.2-1.6.6-2.1.7-1 .7-1-.3 0-.8.6-1.5.8-2.3.5l-1.4-.4-1-.5c-.4-.3-.3.1.3 1m28.4-.7c.8 1.1 1.2 4 .4 3.6-.3-.2-.4.2-.2 1 .1.7 0 1.2-.2 1-.4-.2-1.1 2.9-.7 3.3.1.1.2 0 .2-.4 0-.3.3-.5.5-.3.3.2.7 0 .9-.3.2-.4.1-.5-.3-.2-.3.2-.5 0-.5-.4s.3-.9.8-1c.4-.2.6-.7.5-1.1-.2-.5-.2-.7 0-.6.3.1 1.3-1 2.3-2.3 2-2.5 1.7-3-.8-1.8-1.1.5-1.5.4-2.5-.4s-1-.8-.4 0m-35.3 1.3c.2.8.3 1.5 0 1.5-.4 0-1.7 5.5-1.3 6 .2.1.3-.2.3-.9 0-.6.2-1 .5-1 .4 0 .5-.4.3-1-.2-.4-.2-.6 0-.4.2.2 1-.5 1.8-1.6a176.9 176.9 0 0 1 3-3.9c0-.5-2.9.5-3.5 1.3-.4.4-.5.5-.4.2.2-.3 0-.9-.4-1.2-.7-.5-.7-.4-.3 1m42.8-1.2c.4.2.5.5.4.7-.2.3-.1.5.2.5.3 0 .8.6 1.2 1.4.4.8 1 1.3 1.3 1.3.3-.1.6.1.6.5 0 .3.4 1.5 1 2.6.7 1.3 1 1.6.8.8l-.3-2c0-.3-.2-.5-.4-.4-.2.2-.4-1-.4-2.7 0-2.7 0-2.9-.8-2.2-.5.4-1 .6-1 .3-.1-.2-.9-.6-1.7-.8-.8-.1-1.2-.2-.9 0m31 .2c0 .3-.3.4-.5.3-1.6-1-3 .3-3.8 3.5-1 3.8-1 4.3-.3 4.3.3 0 .4-.2.3-.5-.4-.6.2-2.1.8-1.8.2.2.4 0 .4-.4s.5-1.2 1-1.7c.6-.6.9-1.6.8-2.2-.1-.6 0-.9.3-.7.2.1.3.5.2.7-.7 1.1.2.4 1-.8.4-.6.5-1.2.3-1.2-.3 0-.6.2-.6.5m4 1.2c.6.8 1.3 1.5 1.6 1.4.3 0 .4.1.2.4-.1.3.3 1.4 1 2.3.8 1 1.2 2 1 2.3-.2.4-.1.5.2.3.3-.2.6-.2.7 0 .2.3.2.1 0-.3v-1.4c0-.4-.3-.6-.7-.4-.4.3-.5.1-.2-.5.7-1.8-.6-5-2-4.7-.6.1-1 0-1-.1.2-.2-.2-.5-.8-.7l-1-.2 1 1.6m156.8 1.6c0 1.6.1 2.3.2 1.3v-3c-.1-.7-.2 0-.2 1.7M251.4 230.4c-.1 2.6-6.2 6-7.3 4.2-.2-.3-1-.5-2-.4-1 0-1.2.1-.5.2.6.2 1.4.6 1.7 1 2 2.4 9.6-2 8.4-5-.2-.5-.2-.5-.3 0m-215 3.2c0 1.5 0 2.1.2 1.4v-2.8c-.1-.8-.2-.1-.2 1.4m259.6 4.3c0 1.4 0 1.9.2 1.1a9 9 0 0 0 0-2.5c-.1-.6-.2 0-.2 1.4m-193.6.2c-.3.6-.4 1.3-.2 1.6.1.2 0 .5-.3.5s-.4.2-.2.5c.1.2 0 .5-.2.5-.6 0-1.7 3-1.4 3.4.1.2-1.3.3-3 .2-2.8-.2-3.3 0-3.3.7s.2.7.8.2c.4-.4 1-.5 1-.3.3.2.1.3-.2.3-.3 0-.5.3-.3.6s.8.4 1.3.3c.5-.2.8 0 .7.2-.2.2.1.4.7.4.5 0 1.8.3 3 .7l2 .7v-5.2a31.3 31.3 0 0 1 .4-6.3l-.8 1m34.2-.2c-.2.5-.2 1 0 1.3 0 .2 0 .5-.2.5-.8 0-1.7 2.4-1.3 3.3.2.6.1.7-.3.5-.4-.3-.5 0-.4 1 .2.6 0 1.2-.3 1.2s-.4-.3-.2-.8.1-.6-.3-.4c-.3.2-1.5.3-2.5.3-3.9-.3-4.5.5-1.5 1.5 1.5.5 2.9.8 3 .7.1-.1 1.2.3 2.3 1l2.2 1v-5.3c-.1-3 0-5.5.3-5.6.3-.2.2-.5 0-.7-.3-.1-.7 0-.8.5m-70.3 1.2c.2.3 0 .6-.3.6s-.4.3-.3.7c.2.4.1.8-.1.8-.3 0-.8.8-1.1 1.7-.7 1.9-.9 2-4.3 1.8-1.8 0-4.4.9-2.9 1 1.4.2 1.6.3 2 .6.6.7 1.3.5 1-.2-.2-.4 0-.3.3.1.3.5 1.8 1.1 3.2 1.5 1.4.4 2.6 1 2.8 1.2.2.2.3-.4.4-1.4 0-1.1-.2-1.8-.6-1.8-.4 0-.4-.1 0-.4.6-.4.7-6.7 0-6.7-.2 0-.3.3-.1.5m210.7.4h4.3c1.2 0 .2-.2-2.1-.2-2.4 0-3.4.1-2.2.2m7.6 0c-.2.2 2 .4 5 .4 2.8 0 5-.2 4.9-.4-.1-.2-2.4-.4-5-.4s-4.8.2-5 .4m-248.1 4c0 1.6.1 2.2.2 1.3v-3c-.1-.8-.2 0-.2 1.6m103.6 1c.2.7-.2 1.6-1 2.5-1.4 1.6-1.6 2.1-.6 1.5 1-.6 4-1.7 4.9-1.7.3 0 1-.4 1.4-.9.4-.4.6-.6.4-.3-.1.4.2.5 1.1.3 1.3-.2 1.4-.2.7.7-.8 1-.8 1 .3 0l1.2-1c0-.2-.7-.2-4.6-.6-1.8-.2-3.4-.6-3.7-.9-.2-.3-.3-.1-.1.5m-71.1 2.3c-1.2 1.8-1.2 2.5 0 1.5.2-.2 1.4-.7 2.6-1 1.3-.5 2-1 1.8-1.3-.2-.3 0-.2.4.1.6.5 1 .5 1.2.1.2-.3.5-.4.7-.2.3.1.6 0 .8-.4.3-.3.2-.4-.2-.2-.3.2-.6.1-.6-.2 0-1.7-5.4-.4-6.7 1.6m37.5-1.7v.7c0 .2-.2.4-.5.3-.3 0-.9.4-1.3 1-.8 1.2-.8 1.2.6.8.8-.2 1.6-.5 1.7-.7 0-.2.4-.3.8-.2.4.2 1.3 0 2.1-.4s1.7-.6 2-.5c1 .3.8-.7 0-1-1.2-.5-5.3-.5-5.4 0M296 250c0 1.7.1 2.3.2 1.4v-3c-.1-.8-.2 0-.2 1.6m-227.6.4c.5.8 1.1 1.3 1.3 1.4.3 0 .3.2.1.5-.5.8.6.6 1.5-.3.4-.4.8-.6.8-.3s-.3.7-.8 1c-.8.4-.5 2.1.4 2.1.3 0 .4-.4.2-.9-.3-.7-.2-.7.3-.3.4.5.4.8 0 1.4-.5.5-.4.8.2 1.3.4.4.6 1 .5 1.4-.2.4 0 .6.2.4.2-.1.6 0 .7.4.2.3.1 0 0-1-.2-.8-.5-1.5-.7-1.6-.3 0-.3-.5-.2-.8.2-.4 0-1.5-.2-2.5-.4-1.4-.3-2 .3-2.7.8-.8.8-.8-.1 0-1.2.9-2.5.8-4.3-.1l-1.2-.7 1 1.3m28.5-.5c.8.9.8 1.2-.1 4.8-.6 2-.9 3.9-.7 4 .1.2.2 0 .2-.4s.6-1.5 1.3-2.5c1.3-1.7 1.7-2.8.9-2.3-.3.1-.5 0-.5-.5s.2-.6.7-.1c.4.3.8.4.8.3l1.5-2 1.4-1.9-1.4.7c-1.8 1-2.6 1-3.9-.1-1-.8-1-.8-.2 0m37.9.1a4 4 0 0 1-2 .5c-1.2-.2-3 6.6-2 7.5.3.4.4.3.1-.3-.2-.5 0-.9.2-.9.3 0 .4-.3.3-.7-.2-.5 0-.8.4-.8 1.5 0 2.5-2.4 1.4-3.2-.5-.4-.8-.8-.7-1 .2-.2.8 0 1.4.5 1 .9 1 .9.7 0-.2-.5-.2-.8 0-.6.5.2 2-1.1 1.6-1.4-.1-.1-.8.1-1.4.4m3-.5l.8 1.1c2.5 3 2.9 3.5 2.8 3.7 0 .1.2.2.5.1.3 0 .4 0 .2.3s.2 1 .7 1.6c.8 1 1 1 1 .3 0-.4-.2-.8-.5-.8s-.4-.2-.2-.5c.5-1-.8-4.5-1.7-4.5-.5 0-1.5-.4-2.3-.8-.7-.4-1.3-.6-1.3-.5M61.4 251c.6 2 2 2.2 3.5.5l1-1.6c-.4-.4-2.9.9-2.9 1.4 0 .3-.4 0-1-.6l-1-1.2.4 1.5m43.3 0c.5.7 1.2 1.3 1.7 1.3s.6.1.2.3c-.4.2-.5.5-.4.8.2.3.7.2 1.2-.2.7-.5.7-.5.2 0-.9 1-.8 1.8.1 1.4.5-.2.8 0 .7.3 0 .4.2 1.2.5 1.9.6 1 .6 1.2-.2.9-.9-.3-.9-.3 0 .4 1.4 1 1.4.5.3-3.7-.7-2.6-.8-3.7-.3-4.2.4-.5.4-.5-.3 0-.5.4-1.3.4-2.5 0l-1.9-.4.7 1.2m-43.6 3c.1.7 0 1.2-.1 1-.2 0-.5.5-.7 1.4-.4 2.2-.4 2.6.2 2.2.3-.2.4-.5.3-.6-.3-.4 1.3-3.2 1.8-3.2.2 0 .4-.4.6-.8.2-.4.1-.6-.2-.5-.2.2-.6 0-.7-.2-.7-1-1.4-.5-1.2.7m114.2 2.3c-1 .4-1.8 3-.9 3 .8 0 4.7-2.6 4.5-3-.4-.6-2.1-.6-3.6 0m-140 5c0 .5-2.5.6-10.1.5-5.5-.1-10 0-9.8.2.3.6 19.7.5 20.1-.2.2-.3.2-.6 0-.8-.1-.2-.3 0-.3.3m147.7 1.5c.7 1.2-1.1 3.2-2.3 2.6-1.2-.7-1-.7-2 1.4-.3.9-1.3 2.3-2.3 3.1-1.9 1.7-2 2-1 2s1.1 1.9.3 2.3c-.7.5-.6 2.3.3 2.3.4 0 2-1.1 3.5-2.5 1.6-1.4 3.2-2.5 3.8-2.5 2.1 0 4.4-4.6 3.2-6.3-.6-.8-3.9-3-3.5-2.4m-80.9 2.9c-.3 1-.3 1.7 0 1.7.2 0 .3.3.1.5-.1.3-.5.4-.8.2-.4-.2-.5 0-.3.5s.2.8 0 .8c-.3 0-.7.5-.9 1-.2 1-.7 1-3.3 1-2.9 0-4.3.7-2.6 1.2l4.4 1.6c3.8 1.4 4.5 1.6 4 .8-.1-.3-.5-.4-.8-.2-.3.2-.4.1-.2-.2.2-.4.6-.5.8-.4.2.2.4-1.9.4-4.5 0-2.7.2-5 .4-5.3.1-.3 0-.5-.2-.5s-.7.8-1 1.8m33.8.8c-.3.8-.4 1.8-.2 2 .2.4 0 .4-.3.2s-.6 0-.6.4-.4 1.3-1 2c-.6.8-.9 1.6-.7 2 .2.3.2.4-.2.2-.3-.2-.6-.7-.6-1.1 0-.8-3.5-1-4.2-.4-.4.4 2.1 1.8 2.7 1.4.2-.1.5 0 .6.3 0 .2.6.5 1.2.6l1.6.6c.4.2.6 0 .7-.6 0-.7 0-.6.5.3.9 2.3 1.4.5 1.4-4.5 0-5.5-.1-5.7-.9-3.4M65 268.2c-.6 1.5-1 3-.8 3.2.2.3 0 .7-.2.9-.4.2-.5.1-.3-.2.3-.5-.4-.6-2.4-.6-4.6 0-4.8.5-1 1.8 4 1.3 4.4 1.4 4 .7-.2-.3-.1-.5.2-.5.3 0 .5.3.5.7 0 .4.3 1 .6 1.1.4.2.5.1.2-.2-.2-.3-.1-.6.2-.6.2 0 .6.3.7.6l.3-4.5c0-5.9-.4-6.4-2-2.4m127.3.2c-.3.5-.5 1.5-.5 2.2 0 .9-.8 2-2.8 3.6-4.3 3.7-4 4.8 1.8 10.5 6 5.8 6.2 7 .7 7.5-6.9.7-8.3 2.1-1.6 1.6 2.8-.1 4.9 0 6.2.4 3.6 1.2 3.3-1.5-.8-7-2.8-3.7-2.4-5.5 2.8-10.8 2.6-2.7 2.7-3 2.2-4.4-1.2-3.6-6.7-6-8-3.6m-178.7 1.8c0 1.1.2 1.5.3.9v-2c-.2-.5-.3 0-.3 1.1m126.3.8c0 1-.7 3-1.1 3-.2 0-.5.3-.7.7-.2.5 0 .6.7.4.5-.1 1-.4 1-.7 0-.2.3-.4.6-.3 1.2.2 6-1.5 6-2.2 0-.2-1.4-.4-3-.4-2 0-3.1-.3-3.3-.7-.2-.4-.3-.3-.2.2m-33.8.7c0 .2-.4 1-1 1.7-.7.7-1.2 1.5-1.2 1.8 0 .3.3.2.7-.2.8-1 2.4-1.6 2.4-1 0 .5.1.5.6.1.3-.3.7-.5.9-.5.7.1 2.5-.8 2.5-1.2 0-.3.3-.3.8.1.8.6.8.6.6 0-.1-.5-1.2-.9-3.3-1-1.8-.2-3 0-3 .2m-36.4.5l-1 1.7c-.7 1-.7 1.1.1 1.1.6 0 .8-.3.6-.8-.2-.5-.1-.6.3-.4 1 .6 2.5.2 3.3-.7.4-.5.6-.6.4-.2-.2.3-.1.6.2.6.3 0 .7-.4.8-.8.2-.4.6-.7.8-.7.3 0 .4.2.2.5s0 .3.5.2c.4-.2.6-.5.4-.8-.3-.6-6.2-.3-6.6.3m-38.3 1.3c-.4.7 1 1.1 3.2.9 1.8-.2 1.7-.2-.5-.3-1.5 0-2.3-.3-2.1-.6.1-.3.2-.5 0-.5-.1 0-.4.2-.6.5m199.5-.1c-4.4.6-7.2 5.4-7.9 13.9-.6 7.4-.8 7.8-5 9.2-3.5 1-5.5 2.2-4 2.2.5 0 2.2-.4 3.9-1 1.6-.5 3.5-1 4.2-1 1.2-.2 1.3-.4 1.3-3.8.1-9.2 11.3-14.6 18.8-9 2 1.6 2 1.4-.5-2.8-3.7-6.2-6.6-8.3-10.8-7.7m53 2h1.7c.5-.2.1-.3-.9-.3s-1.3.1-.9.3m-211.3 1.5c-1 1-1.4 1.1-1.4.6 0-.5-.2-.4-.5.3-.4.8-.5.9-.5.1 0-.5-.2-.9-.5-.9-1.2 0-.8 1 1.5 4 1.4 1.8 2.5 3.6 2.5 4 0 .4.1.7.3.5.6-.6-.4-3.4-1.2-3.4-.7 0-.7-.1-.2-.5.5-.3.6-.8.2-2.2-.4-1.5-.3-2 .6-2.8.6-.6 1-1 .8-1-.1 0-.9.5-1.6 1.3m24.3-.2c.8 1 1 3.4.4 3.4-.3 0-.4.4-.2 1 .1.5 0 1-.1 1-.3.2-.6 1-.7 2-.3 1.6-.3 1.7.2.5.3-.7.6-1.5.5-1.7 0-.2.1-.3.4 0 .3 0 .9-.5 1.3-1.3s1.5-2.3 2.4-3.3c1.6-1.9 1.1-2.3-1.2-1-1.2.6-1.4.5-2.5-.5-.8-.7-1-.7-.5-.1m-35.4 1.1c.1.7.4 1.1.7 1 .6-.5.5-1.6-.3-2-.5-.1-.6.2-.4 1m2.6-1c-1 .3-2 2.6-1.6 3.7.2.6 0 .6-.6-.2-.9-1-.9-1-.6.1 0 .7 0 1.2-.3 1.2-.6 0-.5 1.4.2 1.8.4.2.5.2.3 0s.2-1 .9-1.8c.7-.7 1.1-1.6 1-2-.2-.3 0-.5.3-.3s.6-.1.8-.7c.1-.6.4-1 .7-.8.2.2.4 0 .4-.5 0-.8-.1-.8-1.5-.5m42 2.7c2.8 4.1 3.7 4.9 3.2 2.6-.2-1-.7-2-1-2.2-.4-.2-.7-.7-.7-1 0-.4.1-.4.4 0 .3.6.5.3.7-.8.1-1.2 0-1.4-.5-1-.3.3-.8.4-1 .2l-1.8-.5-1.3-.2 2 3m28-2.7c-.8.1-1.2.4-1 .8.2.3 0 .2-.5-.2-.9-.7-1-.6-.7.4.2.6 0 1.1-.2 1.1-.3 0-.4.6-.3 1.3.1.7 0 1.1-.1 1-.7-.4-1 3-.4 3.5.4.4.5.4.2 0-.1-.3 1-2.3 2.5-4.4 1.5-2.1 2.6-3.8 2.4-3.8l-1.8.3m6.3 3c4 5.2 3.9 5.2 2.4-.4-.5-1.7-2.5-3-4.7-3a15 15 0 0 0 2.3 3.4M102 292.5c-.3 1-.4 2-.3 2.4.2.2.1.3-.2.1-.3-.2-.7.4-1 1.3-.8 2-.8 2.2.2 1.4.6-.5.7-.5.4.1-.2.6-.9.8-3.2.6-1.6-.1-3.6 0-4.6.3-1.4.4-1.5.5-.6.6 1.9.1 2 .2 2.4.6.6.5 1.4.4 1-.1-.2-.3 0-.6.2-.6.3 0 .6.4.6.9s0 .7.2.5c.2-.1 1.2 0 2.2.5 1.7.7 1.8.7 2.5-.2.7-.8.7-.8.4.4-.3.9-.2 1 .1.5.3-.4.5-2.8.5-5.4 0-2.6.2-5 .4-5.2.1-.3 0-.5-.2-.5s-.7.8-1 1.8m170.8 3c0 1.6 0 2.2.2 1.3v-3c-.1-.8-.2 0-.2 1.7m-259.2-1c0 1.3.7 2 1.2 1.1.2-.3.2-.4-.2-.2-.3.2-.6-.2-.7-.8-.2-1.2-.2-1.2-.3 0m229 2.4c-1.7 2.8-3.9 3.7-5.8 2.6-2.4-1.4-3.4-1-1.6.4 2.6 2.2 8 0 8.8-3.6.5-2 .2-1.8-1.3.6M106 298.9c.1.5 0 .7-.1.6-.3-.1-.8.3-1.3 1-1.2 2 2.8 1 5.5-1.2 1-.8 1-.8.3.1-.6.9-.6.9.7.3 1.8-.9 1.1-1.3-2.4-1.5-2.6-.2-2.9-.1-2.7.7m-9.2 4.6c.8.8.8 1.2-.1 4.5-1.2 4.5-1.2 5.1 0 2.9.4-1 1-2 1.2-2.1.3-.2.3-.6.1-1-.2-.4-.2-.5.2-.3.3.2.7 0 1-.5.4-.7.3-1-.6-1.6-1-.6-1-.6.3-.3 1 .2 1.6 0 2.4-.8 1.4-1.4 1.3-1.7-.5-.8-1.9 1-2.5 1-3.8 0-1-.9-1-.9-.2 0m7.8 1c2.2 3.6 4.7 6.2 4.8 5.2 0-.5-.3-.9-.6-.9s-.4-.2-.2-.5c.2-.2.1-1.2-.2-2.2-.3-1.2-.3-2 .1-2.4.4-.3.2-.3-.4.2-.9.7-1.1.7-2 .1-1.7-1.2-2.5-1-1.5.6m181.7.6h2.7c.8-.2.2-.2-1.3-.2-1.6 0-2.2 0-1.4.2m-31.2 2.8l-2 2.1 2.1-2c2-1.8 2.4-2.3 2-2.3l-2.1 2.2M0 312.4c0 1 .1 1.3.2.9.2-.5.2-1.3 0-1.8-.1-.5-.2 0-.2.9m284.2.1l1.7 1.7 1.6 1.5-1.5-1.7c-1.4-1.5-1.8-1.9-1.8-1.5M85 325.4a9 9 0 0 0 2.5 0c.6-.2 0-.3-1.4-.3s-1.9.2-1.1.3m55 .7c.1.4.6.7 1 .7.7.1.7 0 .1-.1-.4-.1-.6-.5-.4-.7.1-.3 0-.5-.3-.5s-.5.3-.4.6m13.2 0c0 .3.6.8 1.3 1 .7.3 1 .2.8 0-.2-.4-.6-.6-1-.6s-.8-.2-1-.5c-.1-.3-.2-.2-.1 0m48-.1h1.7c.5-.2 0-.3-.9-.3-1 0-1.4.1-.9.3m35.9.2c0 .3.7.8 1.3 1 .7.3 1 .2.8 0-.2-.4-.6-.6-1-.6-.5 0-.7-.2-.5-.5.2-.3 0-.5-.3-.5s-.4.3-.3.6m7.7-.1c.1.2-.1.6-.5.7-.6.2-.6.2 0 .1 1 0 1.7-1.3.7-1.3-.3 0-.4.2-.2.5m-164.6.4c-.7.6-.3 1.1 1 1.1h1.2l-.1 9.9c0 5.4 0 9.6.2 9.4 1.2-1.1.2-19.5-1-19.7-.6 0-1-.4-.8-.6.3-.6 0-.6-.5-.1m109 .8c-.1.3-.2 4.8-.1 10l.1 9.3.2-9.7c0-9.6 0-9.7 1.2-10l1.1-.1-1.1-.1c-.6 0-1.3.2-1.4.6m6.4 2c0 .7-.3 1.4-.7 1.5-.5.2-.5.3 0 .3.8 0 1.3-1 1-2.3-.2-.6-.3-.5-.3.4m-15.6.8c-.6.7-.9 1.2-.5 1 .5-.1 2.2-2.4 1.8-2.4 0 0-.7.6-1.3 1.4m-16.7 1.7c0 1 .1 1.3.3.9v-1.8c-.2-.5-.3-.1-.3.9M56.6 333c0 1.2 0 1.7.2 1.1V332c-.1-.6-.2 0-.2 1.2M12 339.3l1.6 1.6 1.7 1.5-1.5-1.6c-1.4-1.5-1.8-1.9-1.8-1.5m26.8 1.7c0 .6.4 1.4.9 1.7.7.6.8.6.3 0-.4-.4-.7-1.2-.9-1.8-.2-1-.2-1-.3 0m136.5.8c0 1 0 1.3.2.9v-1.8c-.1-.5-.2-.1-.2.9M70 348c0 .5.4.7 1.4.7 1.2 0 1.2-.1.2-.3-.6-.1-1-.4-.8-.7.1-.3 0-.5-.3-.5s-.5.4-.5.8m7.8-.3c.2.3-.2.6-1 .6-1.4 0-1.4.1-.3.3 1.4.3 2.5-.6 1.5-1.1-.4-.3-.5-.2-.2.2m1.9.2c.1.3.6.6 1.2.6.8 0 .8 0 0-.1-.4-.1-.7-.4-.5-.7.1-.3 0-.5-.3-.5s-.5.3-.4.7m41.1-.3c-.8.8 0 1.1 2.8 1h3.2l-3-.2c-2.1-.2-2.8-.4-2.3-.7.4-.2.5-.5.2-.5s-.7.2-.9.4m10.5.1c-.3.6 1 1.2 2 .9.3-.2 0-.3-.7-.3-1 0-1.1-.2-.5-.6.5-.3.5-.5.2-.5-.4 0-.8.3-1 .5m51.6 0c-.4.6 1 1.2 1.8.9.4-.2.2-.3-.5-.3-.6 0-1-.3-.8-.6.1-.2.2-.5 0-.5l-.5.5m8 0c.2.3-.2.6-.7.7-1 .2-1 .2 0 .2 1.2-.1 2-1.4 1-1.4-.3 0-.4.2-.3.5m35.9 0c-.4.6 1 1.2 1.9.9.3-.2 0-.3-.6-.3-1 0-1.1-.2-.5-.6.4-.3.5-.5.1-.5-.3 0-.7.3-.9.5m-16 .7c.3.2 1.7.3 3.2.2l2.7-.1-3.1-.3c-1.8-.1-3 0-2.8.2m-149.3.2a9 9 0 0 0 2.6 0c.6-.1 0-.2-1.4-.2s-2 0-1.2.2m75.8 0h1.7c.5-.1.1-.2-.8-.2-1 0-1.4 0-1 .2m81.1 0h2.3c.6-.1.1-.2-1.1-.2-1.3 0-1.8 0-1.2.2m27 0h1.8c.5-.1.1-.2-.9-.2s-1.3 0-.8.2"/>
    <path fill="#f9b700" d="M156.7 179.2c-.1.3-.2 31-.1 68.2l.1 67.5h39.6a432 432 0 0 0 42.3-.7 27.8 27.8 0 0 0 9.5-4.3c2.4 0 9.6-8.2 12.1-13.8 2.9-6.5 2.8-6 2.7-64l-.1-53.3-53-.1c-42.3-.2-53 0-53.1.5m20.6 10.5c1 .5 2.6.4 7.6-.4 1.5-.2 2.6 0 4.4.9 4.3 2 7.3.5 8.6-4.2.4-1.5.7-1.9 1-1.5.7.6 1 7 .4 8.4-.7 1.8 7.8 5.7 15.7 7.2 3.5.6 9.1 2 12.6 3 4.7 1.3 7.1 1.7 10.2 1.7 15.2 0 24.1 25.5 11.7 33.4-1.3.8-3 1.4-3.7 1.4-.8 0-1.7.4-2.2.8-.6.6-2.6.8-11.3.8-12 0-12.2 0-12.2-2.1v-1.5h-18c-21.1 0-19.2.9-17-7.2.1-.5.7-1.2 1.4-1.4 2.4-1.1 2.7-4.2.8-7.6-1-2-1.7-4-2-5.8l-.2-2.8-2.2.3c-5.2.8-12.1-4.7-8.4-6.7 1-.6 2-3.5 2.7-8 .3-2.4.3-2.5-1.7-4.3-2.3-2-2.8-5.4-1.4-8.7l.7-1.6.8 2.7c.4 1.5 1.2 3 1.7 3.2M169 254c1 1.1 3.1 1.2 7.3.5 2.4-.4 3.2-.3 5 .5 4.2 1.9 7.4.6 8.6-3.3.8-3 1.3-3.3 1.7-1 .6 2.8.5 6.5-.2 7.4-1.2 1.4 9.1 5.7 17.8 7.4 4.2.8 9.4 2 11.7 2.7 2.7.9 5.6 1.3 9.1 1.5 6 .2 6.6.5 10.9 5 9.8 10.3 8.5 27.2-2.3 29.7a12 12 0 0 0-3.3 1.2 89 89 0 0 1-22.6-.5c-.4-.5-.5-1.1-.4-1.5.2-.4 0-.7-.4-.7h-17.5c-19.3 0-19 0-18-3.4l1-3.7a3 3 0 0 1 1.4-1.9c2.2-1 2.6-8.2.4-8.2-.6 0-1.5-3.3-1.5-5.7v-2.3l-3.2.3c-4.6.4-7.6-1.3-8.2-4.8-.3-1.2-.2-1.6.6-1.8.7-.3 1.2-1.3 1.8-4 1.5-6.7 1.5-6.6-.1-7.5-3-1.7-3.8-5.7-2-9.8l.6-1.5.5 2.3a8 8 0 0 0 1.3 3.1"/>
    <path fill="#14552b" d="M.09999999999999432 155.6c0 85.5 0 120.6.2 77.9a56802 56802 0 0 0-.2-78m41-140.2h2.1c.5-.2 0-.3-1.1-.3-1.2 0-1.6.1-1 .3m14.2 0h2c.5-.2 0-.3-1.1-.3s-1.5.1-.9.3m-.7 9.7c0 4.9.1 6.9.2 4.4a141.6 141.6 0 0 0-.2-4.4m3-.8c0 4.5.1 6.2.2 4a115.2 115.2 0 0 0-.1-4M201 25.5c0 5.1 0 7.2.2 4.7a160 160 0 0 0-.2-4.7m-103-5.3c0 1.7 0 2.3.1 1.4v-3c0-.8-.2 0-.2 1.6m-57.5 6c0 4.5 0 6.3.2 4a115.8 115.8 0 0 0-.2-4m44.4-4.7c0 1.8 0 2.5.2 1.6v-3.3c-.1-.9-.2-.1-.2 1.7m119.2 0c0 1.8 0 2.5.2 1.6v-3.3c-.1-.9-.2-.1-.2 1.7m-103 .2c0 1.7 0 2.3.2 1.4v-3c-.2-.8-.3 0-.3 1.6M98 28c0 2.7.1 3.8.2 2.4a37 37 0 0 0 0-4.8c0-1.3-.2-.2-.2 2.4M85 29.3c0 2 0 2.7.2 1.6v-3.5c-.1-1-.2 0-.2 1.9m16.2 0c0 2 0 2.7.2 1.6v-3.5c-.2-1-.2 0-.2 1.9m103-2.6c-.1.4-.2 2.4 0 4.4V35l.3-4.5c.3-4.4.2-5-.3-3.7m-16 .7h2c.5-.2 0-.3-1-.2-1.2 0-1.6 0-1 .2M143 32.8c0 1.1.1 1.5.3 1v-2.1c-.2-.5-.3 0-.3 1.1m-60.8 3.7h3.5c1-.1.3-.2-1.6-.2-2 0-2.8 0-2 .2m112.5 0h1.7c.5-.2.1-.3-.9-.3s-1.3.1-.8.3m20.4 36.7c-1 1.2-1.4 1.3-2.6.8-1-.3-1.7-.4-2.3 0a2 2 0 0 1-2 0c-.8-.4-1-.2-1.8 1.5-.5 1.1-1.2 2-1.5 2-.4 0-.8.4-1 1a20 20 0 0 1-1.3 2.6c-1.2 2-1.4 6.5-.3 6.5 1.4 0 2 1.4.9 2.1-1.4.9-1.4 1.5.2 3 1.6 1.5 1.6 1.8-.3 3.5-1.7 1.6-1.9 2.6-.7 3.6.4.3.7 1 .7 1.5 0 1.6-3.3 1.3-4.8-.4l-1.3-1.4-1 1.2c-1.1 1.4-1.3 4.2-.2 5.1 1.2 1 .9 1.5-2 2.9-2.7 1.2-2.8 1.3-2.8 3.2 0 1.6-.3 2.2-1.5 3-1.2 1-1.5 1.6-1.5 3v1.6l2.4-.3c2.5-.3 2.5-.3 2.8 1.3.8 4 .4 6-1.2 6.8l-1.6.8 1.3 1.7c1.5 2 1.6 2.9.5 4.6-1 1.5-.2 2.7 1.8 2.7.8 0 2.2.7 3.3 1.5l2.4 1.7c.4.1.6 1 .6 2.2v2h3c1.7.2 3.6.5 4.2.8.8.4 1.4.3 2.6-.3 1.1-.6 1.9-.7 2.5-.3.7.3 1.5.1 3-.8 1.7-.9 2.5-1 3.1-.7.5.2 2.1.3 3.5.2 1.8-.3 2.6-.2 2.6.2 0 .3.6.6 1.3.6.6 0 1.3.2 1.5.5.5.8.9.6 2.5-.7 1-1 1.8-1.2 2.8-1 1.8.4 6.2-3.5 7.1-6.2.3-1 1-1.9 1.4-2.2.8-.4.8-.6 0-2.2-1.1-2.3-1.2-3.9-.2-3.9 1.4 0 .3-3-1.7-4.6-.6-.5-1-1.3-1-1.9 0-1.3-3-3-4.8-2.7-1.2.2-1.3.1-1.3-1.3 0-1-.3-1.7-1-2-1.7-1-1.1-5.1.8-6.3 1.2-.7.9-3.3-.6-4.2-1.2-.8-1.6-2.4-.7-3 .9-.5.5-1.2-1-2-1.1-.6-1.5-1.1-1.5-2.1 0-1.2-4-5.7-5.1-5.7-.8 0-1.6-3.3-1.4-5.5.4-4.2-.2-8.3-1.4-8.5-1.6-.2-3.8-3.2-3.5-4.8.4-1.9-.5-2.2-1.9-.7m-118 20c.2.5 1 .8 2 .8 1.6 0 1.6 0 .2-.2-.8 0-1.7-.5-2-.8-.2-.4-.3-.3-.1.2m10.1 13.1c0 2.4.1 3.3.2 2.2a29 29 0 0 0 0-4.3c0-1.2-.2-.2-.2 2.1m-5 15h2.7c.8 0 .1-.2-1.4-.2s-2.1.1-1.4.2m107.5 30.5c0 .3-.8.5-1.9.4l-1.9-.2-.8 6.6c-.5 3.6-1.1 7.2-1.4 8-.8 2-1.3 1.9 8.4 1.7l8.6-.1-1.8-4.2a37 37 0 0 1-2.3-8.5c-.3-2.3-.7-4-.8-3.8-.4.5-3.4.5-3.9 0-.6-.6-2.2-.5-2.2.1m-107 15.1c0 1.3.1 1.8.3 1.2v-2.3c-.2-.6-.3-.1-.3 1.1m-14.1 3h3.8c1-.2.2-.3-2-.3-2 0-2.8.1-1.8.2m186.4 17.7h1.7c.5-.2.1-.3-.9-.3s-1.3.1-.8.3m8.5 6.2c0 1 .1 1.4.3.9v-1.8c-.2-.5-.3 0-.3.9m-7 2.4a9 9 0 0 0 2.5 0c.6-.2 0-.2-1.4-.2s-1.9 0-1.1.2m10.6 0h3.8c1-.1.2-.2-2-.2-2 0-2.9 0-1.8.2m-102.5 8.3l-1.4 1.7 1.6-1.5c1.5-1.4 1.9-1.8 1.5-1.8l-1.7 1.6m50.2 6.6a317.2 317.2 0 0 1 2-1.6c-.2 0-1.1.7-2 1.6M20 210.2h6.3c1.7 0 .3-.2-3.2-.2s-4.9.1-3.1.2m184.4 3l-1.7 2 1.9-1.8 1.8-1.9c0-.4-.4 0-2 1.8m28.5 9.3l-1.5 1.6 1.7-1.4 1.6-1.7c0-.4-.4 0-1.8 1.5M27 222.3h5.1c1.3 0 .1-.1-2.7-.1-2.8 0-3.8 0-2.4.1m175.4 4c0 .7-.3 1.3-.6 1.4-.5.2-.5.3 0 .3.8 0 1.3-1.2 1-2.1-.2-.4-.3-.2-.4.4M243 235.5c.5.6 1.5 1 2 1 1 0 1 0 0-.2l-2-1.1c-1-.8-1-.8 0 .3m41.4 7.2c0 1.5 0 2.1.2 1.4v-2.8c-.1-.8-.2-.1-.2 1.4m-54.6-1.7h3.8c1 0 .2-.2-1.9-.2-2 0-3 .1-1.9.2m54.6 6.2c0 1 .4 1.3 1.5 1.4 1.2 0 1.2 0 .1-.2-.7-.1-1.3-.6-1.4-1.3-.2-1-.2-1-.2.1m-7.9 1.4h3c.8-.1 0-.2-1.6-.2-1.7 0-2.3 0-1.4.2m12.6 0h3.6c1-.1.3-.2-1.7-.2-1.9 0-2.8 0-1.9.2M183 263c0 .6 0 .9.2.5.2-.5.4-.5 1 0 .6.4.6.3 0-.5-1.2-1.4-1.2-1.4-1.2 0m-146.5 5.4c0 1 0 1.4.2 1v-1.8c-.1-.5-.2-.1-.2.8m140 1.2l-1.5 1.6 1.6-1.5c1.6-1.4 1.9-1.8 1.5-1.8l-1.6 1.7m51.6.2h3.6c1 0 .3-.2-1.7-.2s-2.8.1-1.9.2m-48.6 4.3l-2 2.2 2.2-2c2-1.9 2.3-2.3 2-2.3l-2.2 2.1m56.8 0l1.7 1.7 1.6 1.5-1.5-1.7c-1.3-1.5-1.8-1.8-1.8-1.4m-48 8.6l2 1.8c.2 0-.5-.8-1.4-1.8a11 11 0 0 0-2-1.7c-.1 0 .5.8 1.5 1.7m90.8 18.8h2c.5-.1 0-.2-1.2-.2-1 0-1.5.1-.8.2M276 304.6c.7.2 1.6.2 2 0 .5 0 0-.2-1.1-.2s-1.5.1-.9.3m-121.2 21.1c1 .2 2.3.2 3 0l-1.6-.1c-1.7 0-2.3 0-1.4.2m29.6 0h4.5c1.2-.1.1-.2-2.4-.2s-3.5 0-2.1.2m-41.9 8.7c0 4 0 5.7.2 3.7a94.1 94.1 0 0 0-.2-3.7m14.1 1.3c0 3.9.1 5.4.2 3.3a86 86 0 0 0-.2-3.3m86 1.7v4.4a141.5 141.5 0 0 0 0-4.4m-87-1.5c0 3.8.1 5.3.2 3.4a79.1 79.1 0 0 0-.2-3.4m45.5 2c0 4.6 0 6.5.2 4.2a123.2 123.2 0 0 0-.2-4.2M96 337c0 1 0 1.5.2.9v-2c-.1-.6-.2 0-.2 1m197.5 3l-2.5 2.6 2.7-2.5c2.5-2.3 2.9-2.8 2.5-2.8l-2.7 2.7m-206.1 8.8H89c.5-.1.1-.2-.8-.2-1 0-1.4 0-1 .2"/>
    <path fill="#afcfe8" d="M4.7 5c-.2.3-.2 69.6-.1 154v153.6l.2-153.9L5 4.8l151.4-.1 151.4-.2H156.3C35.6 4.2 5 4.4 4.7 4.8m61.2 9.9h3c.8-.2 0-.2-1.6-.2-1.7 0-2.3 0-1.4.2m36.1 0a9 9 0 0 0 2.6 0c.6-.2 0-.3-1.4-.3s-2 .1-1.2.3m14.4 0h5.3c1.5-.1.3-.2-2.6-.2-3 0-4.1 0-2.7.2m111.7 0h5c1.3-.1.1-.2-2.7-.2-2.7 0-3.8 0-2.3.2m37.3 0h2.3c.6-.2.1-.3-1.2-.3-1.2 0-1.7.1-1 .3m-36.6 10.7c0 4.9 0 6.9.1 4.4a140 140 0 0 0-.1-4.4M67.3 21c0 3 0 3.3 1.2 3.3.9 0 .9 0 .1-.1-.8-.2-1-.8-1.2-3.4l-.2-3.1V21m148.5 4.8c0 4.7.1 6.7.2 4.4a131.4 131.4 0 0 0-.2-4.4m45.5-.3c0 4.6 0 6.5.2 4.2a123.2 123.2 0 0 0-.2-4.2m-140.4.3c0 4.4 0 6.2.2 3.9a115.8 115.8 0 0 0-.2-4M254 24.6c0 3.7.1 5.3.2 3.4a80 80 0 0 0-.2-3.4M67.4 25.9c-.2.2.5.3 1.5.2 1-.1 1.7-.3 1.7-.4 0-.4-3-.2-3.2.2m-.2 4.2c0 1.8.1 2.5.2 1.6v-3.3c0-.9-.2-.2-.2 1.7m26.1 6c0 .3-.5.5-1.1.6-1 0-1 0-.2.3 1 .2 2.2-.6 1.7-1.2-.2-.2-.4 0-.4.2m53.7 1.5h1.7c.5-.2.1-.3-.8-.3-1 0-1.4.1-1 .3m26.8 0h1.8c.5-.2.1-.3-.9-.3s-1.3.1-.9.3m74.3 0h1.8c.4-.2 0-.3-1-.3-.9 0-1.3.1-.8.3M156 45l109.5.1.2 120.2.1 120.2V45H46.6h109.5m.9 66.1c0 34.6 0 62.9.2 62.9l6.6-1.3c6.6-1.3 17.4-3 22.7-3.5 5.5-.5 5.7-.6 7.3-3.5 2.5-4.3 3.6-8.4 3.6-13 0-4.8-.2-5.3-1.7-4.2-2.3 1.6-8.2.8-9-1.1-.3-.7-3.5-2.2-4.7-2.2-.6 0-2-.8-3-1.8s-2-1.7-2.3-1.7c-1.4 0-2.7-3.6-2.7-8 0-8.3 0-8.2 1.4-8.7 1.1-.4 1.3-.7 1-2-.3-1.5.7-2.9 2-2.4.8.3 2-.9 1.6-1.6-.2-.3.3-1.7 1-3 .8-1.7 1.4-3.9 1.5-5.8.3-3.5 1-5.3 2.4-6.5.9-.7 1-1 .5-2-.7-1.6.1-3.1 1.6-2.9.7.1 1.2-.3 1.7-1.2.3-.8 1.3-1.7 2.1-2.2.9-.4 1.5-1.1 1.5-1.7 0-.5.6-1.3 1.3-1.8 1.1-.7 1.3-1 1-2.5-.2-1.3-.1-1.8.6-2.2.8-.5.8-.7-.3-2.8-1.3-2.5-1-4 1.4-6.1 2-1.8 2.6-3.5 1.8-4.7-1.4-2 1.2-4.8 3.3-3.6 1.5.8 2.3.3 2.7-1.5.4-1.9 1.6-2 3.3-.5.6.5 1.3.9 1.6.7.3-.2 1.8 0 3.3.5 2.2.7 2.9.8 3.5.3 1.4-1.2 5.4 1.1 5 3-.3 1.7 1.6 4.2 3.6 4.7 1.2.3 1.3.6 1.1 2.3-.1 1 0 2.3.2 2.8.3.5.3 1.7 0 3.2-.6 2.8.3 5.6 2 6 .5.2 1 .7 1.2 1.1.2.5 1 1.3 1.8 1.8 1.2.7 1.5 1.2 1.5 2.5 0 1.4.2 1.8 1.3 2 1.3.4 1.8 2.5.7 3.1-.6.4 0 1.8.8 1.8 1.7 0 2.3 3.5.9 5-2.2 2-2.5 5-.5 5.7.3.1.6.9.6 1.7 0 1.2.2 1.5 1.3 1.5 2.3 0 4.4 1.2 5 3 .3 1 .9 2 1.2 2.2 1.3.7 2.4 3.6 2 5.3-.2 1.2 0 1.9.6 2.3 1 1 1 1.5-1 4.3-1.2 1.6-1.7 2.8-1.5 3.5.3 1.3-.3 2.1-3.2 4.3-1.2 1-2.1 2-2.1 2.4 0 1.3-2.4 2.4-4.6 2-1.8-.2-2.1 0-2.6 1-.7 1.6-1.8 2-3 1-.8-.5-1.4-.6-2-.2-1.3.6-4.2.2-5.2-.8-3.5-3.5-2.4 9.7 1.4 17.3 1.6 3.2.8 2.9 9.8 3.6 9.2.8 25 3.5 29.3 5.1l1.1.5V48.2H157v63m-49.2-28.8c1.2.2 3.1.2 4.3 0 1.2 0 .2-.1-2.1-.1-2.4 0-3.3 0-2.2.1M136.7 185v1.6c0 .4-.1.6-.4.4-.3-.2-.6-.1-.6.2 0 .3.3.5.6.5 1.3 0 .4 7.7-1 8.3-.8.3-1.3.8-1.2 1.1 0 .3-.4.8-1 1.1-.9.4-1 .6-.3.6.5 0 1.3-.5 1.7-1.2.5-.7 1-1.3 1.4-1.3.2 0 0 .8-.8 1.7-1.4 2-2 2.9-1.7 2.9l1.8-2.3c1.5-2.2 2.4-2.6 4-1.6.2.2.7.1.8-.2.3-.4-.7-.7-1.8-.6-.2 0-.3-.2-.1-.6.1-.5.5-.6.8-.5.3.2.4.1.2-.3-.3-.3-.8-.4-1.2-.3-.6.2-.7-.5-.6-4.8 0-2.8 0-5.2-.2-5.4-.2-.1-.4.2-.4.7m147.1 4c.5.2 1.3.2 1.8 0 .5 0 .1-.1-.9-.1s-1.3 0-.9.2m-214 2.2c0 .4.6.7 1.2.7s1-.1.8-.4c-.2-.2-.6-.3-1-.1-.3.1-.8 0-.9-.3-.1-.2-.2-.2-.1.1m-6 .4c-.2.3 0 .7.2.8.8.5 1.3-.1.7-.8-.4-.3-.7-.4-.9 0m75.3.8c-.5.7-.6 1.3-.4 1.3.3 0 .6-.3.7-.6.2-.4.3-.2.3.5 0 1.4.9 1.5.9 0 0-.5-.2-1-.4-1s-.3-.3-.1-.7c.5-1.1-.1-.9-1 .5m-65.8 0c-.2.4-.7.9-1.3 1-.5.2-.9.5-.8.6.1.1 1.2-.1 2.4-.6 1.2-.4 2.5-.7 2.8-.6.4 0 .8 0 .8-.3.1-.3-.4-.5-1.2-.5-.7 0-1.4 0-1.4.3 0 .2-.2.4-.5.4s-.4-.2-.2-.5c.1-.3.2-.5 0-.5s-.4.3-.6.7m38.6-.2c.3.5.4 1 .2 1.3-.2.2.2 0 .8-.5.6-.6 1-1.1.8-1.3-.2-.1-.4 0-.6.4-.1.5-.3.5-1 0-.7-.6-.8-.6-.2.1m-8.2 1.9c-.7 1-1.3 1.6-1.3 1.2 0-.3-.4-.6-.9-.6-.7 0-.7 0-.1.5.7.4.7.5 0 .5-.5 0-.6.2-.2.4.4.2 0 1-1 2.5-1 1.2-1.8 2-2 1.9-.1-.2-.2.1-.2.6s-.2.9-.6.8c-.3 0-.5 0-.3.4.5.7.5.7 3-2.8 2.9-4 2.6-4 5.5 0 2 2.7 3.4 3.7 3.4 2.5 0-.2-.2-.2-.5 0-.2.1-.8-.3-1.2-1-.7-1-.7-1.2 0-1.4.3-.2.7-.6.7-.9 0-.3-.4-.2-.9.3-.4.4-.8.7-.9.6l-1.2-1.8-1.2-1.6 1.5.3c1.3.2 1.3.2.2-.3-.6-.3-1.4-.4-1.7-.2-.4.2-.2 0 .3-.5.6-.4 1.3-.8 1.7-.8.4 0 .6-.2.6-.5s-.2-.5-.4-.5c-.3 0-.6.2-.8.5-.2.3-.6.5-.9.5-.3 0-.1-.6.3-1.3.5-.7.8-1.2.6-1.2-.1 0-.8.8-1.5 1.9m-37.4-1c.2.4 0 1-.6 1.4-.5.4-.6.6-.3.5.4-.2.6-.1.6.2 0 .3-.2.5-.4.5-.3 0-.4.3-.3.7.4 1 2.3 0 2.3-1 0-.4.3-.6.8-.4.8.3.8.2.2-.2-.6-.4-.6-.6-.1-.6.3 0 .5-.2.3-.5s-.7 0-1.3.6c-1 1.2-1 1.2-.7 0 .2-.6 0-1.2-.3-1.4-.4-.2-.5-.2-.2.2m67 1.3c0 .2.3.3.7.1.4-.1.7 0 .7.2 0 .3.3.5.5.5.3 0 .4-.3.2-.7-.3-.8-2.2-.9-2.2-.1m140 1.3c0 1.3.2 1.8.3 1.1v-2.2c-.1-.7-.2-.1-.2 1.1m-205.2 1c0 .5.4 1.2.8 1.6.8.6.9.6.2-.2-.3-.5-.5-1.2-.4-1.6.2-.4.1-.8-.1-.8-.3 0-.5.4-.5 1m1.2 0c-.2.5-.2.6.2.3.3-.2 1 0 1.6.2.7.4 1 .4 1 0 0-.2-.2-.5-.5-.5l-1.2-.3c-.4-.1-.9 0-1.1.4m71.2 3.6a12 12 0 0 1 2 3.5c-.1.2.1.4.5.6.9.3 1.1-.5.3-1-.3-.1-.4-.5-.2-.8.1-.2 0-.4-.3-.4s-.4-.3-.4-.6c.1-.4-.1-.7-.5-.7-.3 0-1.2-.8-1.9-1.9l-1.5-1.9a15 15 0 0 0 2 3.2M64 199c-.4.7-1 1.2-1.5 1.1-.5 0-.6 0-.2.1.5.2.5.4 0 1-.2.3-.7.6-.9.4-.2 0-.3.1-.3.5 0 1.3.5.9 2.5-1.7 1-1.4 1.7-2.6 1.4-2.6-.2 0-.7.6-1 1.2m7.2 2c.2 1.2 1.6 3.2 1.6 2.3 0-.5-.3-1-.7-1.2-.3-.1-.5-.4-.4-.7.2-.3.1-.6-.1-.8-.3-.1-.5 0-.4.4m-49.6.2h6.6c1.7 0 .2-.1-3.4-.1s-5 0-3.2.1m115 10.5c0 .4-.3 1.6-.7 2.4-.6 1.3-.6 1.4 0 .8.5-.8.6-.5.7 3 0 3.6 0 3.8-1 3.5-.5-.1-1 0-1 .2 0 .3.4.5.7.5.4 0 .7.3.6.7 0 1-.8 1.7-.8.9 0-.4-.2-.6-.6-.6-.4 0-.4.1 0 .6.9.8.8 1.7 0 1s-.8-.6-.4 1.4c0 .2.7-.5 1.5-1.5s1.6-1.7 1.7-1.5a284.3 284.3 0 0 1 4.3 5.5c.1 0 0-.3-.4-.7-.3-.4-.4-1-.2-1.3.2-.4.1-.5-.2-.3-.3.2-.9-.2-1.3-1-1-1.5-1-1.7 0-1.7.4 0 .6.2.5.4-.2.3.3.3 1 .2l1.5-.3-1.6-.4c-.8-.2-1.8-.3-2.1-.2-.6.3-.8-.3-.7-1.7 0-.3-.1-.5-.4-.3-.4.3-.6-1-.5-4.8 0-2.8 0-5.2-.2-5.4-.2-.2-.3 0-.3.6M66 214.9c.3.5.4 1.4.2 2-.2.7-.1 1.1 0 1 .8-.7.7-3.8 0-3.8-.4 0-.5.2-.2.8M68.6 219.7c-.6 1-1.4 1.6-1.7 1.4-.3-.1-.4 0-.2.2.2.3-.5 1-1.5 1.4l-2 .8 2.2-.3c1.2-.1 2.3 0 2.4.3.2.3.5.4.8.2a.6.6 0 0 0-.6-1c-.2.2-.4 0-.4-.4 0-.5.2-.7.8-.5.6.2.7.1.6-.4-.4-1.1.5-2.5 1.5-2.1.5.1.6 0 .3-.2l-.7-.8c-.2-.2-.8.5-1.5 1.4m-11.9-.2c1 1 1.5 1.3 1 .5-.2-.3 0-.6.3-.6 1 0 .2-.5-1-.7-1.1-.2-1.2-.2-.3.8m35.7-.6c0 .4.3.6.6.6.6 0 .4-.8-.2-1-.3-.1-.5 0-.4.4m11.8 1.3c-.7 1-1.5 1.7-1.8 1.5-.2-.1-.5.1-.7.5-.2.5 0 .8.6.8.5 0 1.2.2 1.4.5.4.4 1 .4 1.8 0l1.2-.5-1.3.2c-1 .2-1.3 0-1.3-.8-.1-1.3 1.5-3.6 2.1-3 .2.1.2 0 0-.3-.5-.9-.5-.9-2 1.1m8.3-1.6c-.8.9-.2 1.8.6 1l1-.9s-1.6-.1-1.6 0m30.4.6c-.1 1 .5 1 2.7.4 2.3-.7 1.8-1-.6-.3-1.2.3-1.7.3-1.9-.1-.1-.5-.2-.5-.2 0m-34.7.7c1.3.5 1.8.5 1.8 0 0-.2-.6-.4-1.4-.4-1.2 0-1.3 0-.4.4m21 0c.4.2 1 .4 1.5.4.7 0 .7 0 0-.4-.4-.3-1.1-.5-1.5-.5-.7 0-.7 0 0 .5M70 223.3c.5.2.5.4 0 1-.4.6-.5.8 0 .5.2-.2.6 0 .7.3.2.4.2.3.1-.2 0-.6.2-1 .7-1 1 0-.7-.8-1.7-.8-.2 0-.2 0 .2.2m28.6.2c-.6.2-.7.4-.3.5.4 0 1.1.3 1.6.8.8.7 1 .6 1.6-.2.6-.7.6-.8-.1-.3-.6.5-1 .4-1.4 0-.5-.6-.5-.8 0-1 .4-.1.4-.2.1-.2l-1.5.4m-35.1 3c-1 1.4-2 2.3-2.2 2.2-.3-.2-.3 0-.1.3l.5.5c.4 0 4-5 3.8-5.2-.1-.1-1 1-2 2.2m42-.4l2.7 3.7c.8 1.1 1.2 1.6 1 1a6 6 0 0 1-.3-2c0-.8 0-.9-.4-.3-.4.6-.5.6-.5-.3 0-.7-.3-1.1-.6-1-.4 0-1-.5-1.3-1.3-.4-.8-1-1.4-1.3-1.4-.2 0 0 .7.8 1.6m-36-.4c0 .2.7 1.3 1.5 2.4.9 1 1.4 2.2 1.2 2.5-.2.4-.1.5.2.3.3-.2.6 0 .8.3.1.3.3.4.3 0 0-.2-.9-1.7-2-3.2-1.1-1.5-2-2.5-2-2.3m29.6 1.3c-.4.6-.9.9-1 .7-.3-.3-.3-.1-.1.2.5.9.5.8 1.5-.6 1-1.5.7-1.7-.4-.3m33.6.6c-1 1.5-.5 1.6.6.1.5-.6.7-1.2.5-1.2-.3 0-.7.5-1.1 1m10 1.6c0 .3-.3.3-.6.1-.5-.3-.5-.2 0 .4.3.5.5 1 .3 1-.1.2.1.5.6.6.6.3.6.2.3-.5-.2-.5-.3-1.2-.2-1.5v-.7c-.3 0-.4.3-.4.6M136.5 239.6c.2.3 0 1-.3 1.3-.6.8-.2 2 .5 1.5.6-.3.5-2.7 0-3-.4-.3-.5-.2-.2.2m2.6 6.3c-.5.8-.7 1.3-.5 1.3.5 0 1.8-2 1.5-2.3 0-.1-.6.3-1 1m-82.4.3c1 1.2 1.1 1.2 1.1.3 0-.4-.2-.6-.4-.5-.3.2-.4 0-.4-.3s-.3-.5-.6-.5c-.4 0-.2.4.3 1m18.4-.2c-.4.5-.4.7 0 .7.3 0 .5-.2.5-.4 0-.3.6-.4 1.2-.2.6.1 1 0 .7-.2-.6-.7-1.8-.6-2.4.1m69.4-.2c-.4.8.2 1 1.1.5.8-.4.8-.5 0-.7-.4-.2-.9-.1-1 .2m-71.3.2c.2.2-.3.7-1 1-.8.4-1.1.7-.7.7 1.4 0 2.8-1.2 2-1.7-.4-.3-.6-.3-.3 0m33.6 1.2c-.1.2-.8.5-1.6.7-1.1.3-1.4.2-1.1-.3.2-.3 0-.3-.5.2-.8.8-1.1.8-3.1 0-1.3-.3-2.4-.6-2.5-.4-.2 0 .8.5 2 .8 1.3.4 2.3.9 2.3 1.1 0 .3-.2.4-.4.2-.3-.1-1.4.1-2.4.5l-2 .8 2-.3c1.7-.3 1.8-.2 1.3.6-1.2 2.3-1.4 2.4-2.2 1.8-.5-.5-.7-.4-.7.1 0 .4.2.6.5.5.8-.5.4.6-.9 2.3-.7 1-1.3 2-1.3 2.2 0 .3 1.4-1.5 3.2-3.9 3.5-5 3.5-4.9 5-2.8.5.8 1.4 1.5 1.9 1.4.6 0 .6 0-.3-.4-1-.4-1.6-1.4-2-3 0-.3 1-.8 2.3-1.2 1.6-.5 2-.8 1.5-1-.5-.2-1-.1-1 0m25.6.1c-.2.2.6.7 1.7 1 1.1.3 2 .9 2 1.3 0 .8-1.2 1.9-1.7 1.4-.2-.2-.2 0 0 .6.4 1 .3 1-.4.3-1-.7-.7-1.5.4-1.5.4 0 .8-.2 1-.5 0-.2-.4-.3-1-.2-.7.2-1.3.5-1.3.7 0 .3-.2.4-.5.2-1-.6-.3 1 .7 1.7 1 .8 3.3-1.2 3.3-2.8 0-.7-3.9-2.8-4.2-2.2m8.8 0c-1 .7.3.7 1.8 0l1-.4h-1c-.6 0-1.4.2-1.8.4m-4.5.3c0 1 .8 2.4 1.5 2.5l2.5.5c1.4.3 1.6.2.9-.2-.5-.3-1.6-.6-2.4-.7-.9 0-1.5-.4-1.5-.8 0-.3.1-.5.3-.4.2.1.9 0 1.4-.2.8-.3.7-.4-.6-.3-.9.2-1.7 0-1.8-.3-.2-.4-.3-.4-.3-.1m-72.1 2.1c-1.9.5-2.5 1-2.3 1.5.2.6.3.6.8 0 .8-1 3.1-1.7 2.6-.8-.4.5-.2.5.5 0 .8-.7 1-.6 1.9.6.5.8 1.2 1.4 1.4 1.4.3 0 0-.5-.4-1-.5-.6-.9-1.3-.9-1.6 0-1-.8-1-3.6-.1m74.7 2.7c.6.8 1.3 1.5 1.5 1.5.2 0 0-.5-.6-1.1-.6-.6-1-1.3-1-1.5 0-.3-.3-.4-.5-.4-.3 0 0 .6.6 1.5m-75-.2c-.3.5-.8.7-1.7.6-1.2-.3-1.2-.2-.4.7 1 1.1 1 1.2 2.2-.6.6-.9.9-1.5.6-1.5-.2 0-.6.3-.8.8m7.3-.5c0 .3-.4.7-1 1-1 .4-1 .5 0 1.7.8 1 1 1.1 1.6.6.5-.5.5-.7 0-1.2s-.6-.5-.3.2c.2.5 0 .9-.2.9-1 0-1.1-1.6-.2-2.3.5-.4.7-.8.5-1-.2-.2-.4-.2-.4.1m36 3.1c-.4.3-.3.8.7 1.9 1 1.3 1.2 1.3.6.2a4 4 0 0 1-.5-1.9c.1-.7 0-.7-.8-.2m-46.3 1.6l-.7 1.5c.1 0 .7-.6 1.3-1.5.6-.8 1-1.5.7-1.5-.2 0-.8.7-1.3 1.5m81.2.8c0 .4.2.6.4.4.2-.1.4 0 .4.4 0 .3.1.5.3.3.3-.3-.3-1.9-.8-1.9-.2 0-.3.3-.3.8m-128.8 7.8c0 2 0 3 .2 1.9V263c-.1-1-.2-.2-.2 1.9m123.1 1.5v5.5c0 3.1-.7 4-1.7 2-.3-.5-.3-.4-.2.3 0 .6.4 1 .7 1 1.2-.3.6.7-.7 1.3l-1.4.5 1.4-.2 1.4-.3-.9 1.2c-.6.8-1 1-1.3.7-.2-.4-.3-.2-.3.4 0 .6-.7 2.2-1.8 3.7l-1.7 2.6c.2 0 1.7-2 3.4-4.3 2.2-3 3.4-4.3 4.2-4.3.6 0 .8-.2.5-.3-1-.4-.8-1.2.2-.9.8.3.8.2.2-.2-.4-.3-1-.4-1.1-.3-.2.1-.5-2.2-.6-5.2 0-3-.2-4.4-.3-3.2m-118-.6h4.5c1.1-.1 0-.2-2.5-.2s-3.4 0-2 .2m10 0h3.8c1-.1.2-.2-2-.2-2 0-2.8 0-1.8.2m40.6 6c-.2.5-1 1.6-1.6 2.4-.8 1-1.2 1.2-1 .7.2-.8 0-.8-.8-.4s-1 .4-1-.2c0-.5-.2-.8-.5-.8s-.4.2-.2.5c.1.2 0 .5-.4.7-.6.2.8.5 1.8.4.2 0 .3.1.3.4 0 .3-.2.5-.4.5-.3 0-.4.3-.3.7.3.7.6.6 2-.3 1-.6 1.5-1.3 1.3-1.4-.3-.2-.3-.6 0-1 .3-.5.4-.5.8.2s.7.7 1.7.3c1-.4 1-.5.2-.4-1.6.2-2.3-.5-1.7-1.7.3-.6.5-1.1.3-1.3-.1-.1-.4.2-.5.7m70.1.2c-.3.4-.2.5.3.2s.6-.2.4.4c-.2.4 0 .7.4.7.9 0 .9-.5 0-1.3-.6-.4-.8-.4-1.1 0m-65 .8c-.2.4-.1.7.1.7.3 0 .5-.2.5-.4 0-.3.6-.4 1.3-.3.7 0 1.4 0 1.5-.3.1-.2-.5-.4-1.5-.4s-1.9.4-2 .7m18.2-.3c-.2.2.5.5 1.4.6 2.1.3 2.3.1.4-.5-.9-.3-1.7-.4-1.8-.1m18.4-.1c0 .2-.5.7-1.1 1-1.2.6-1.2.6 0 .3 1.7-.4 2.3-1 1.6-1.4-.3-.2-.5-.2-.5 0m1.3.8c-.2 1-.2 1 .7.1 1.2-1 1.2-1 .3-1-.4 0-.8.4-1 1m14.9-.7c0 .3.2.5.4.5l1.4.3c.5.2.7.2.5-.2-.4-.7-2.3-1.2-2.3-.6m18.1.3l-1.2.7 1.2-.3c1.9-.5 3-1.2 2-1.2-.4 0-1.3.4-2 .8m-88 .1c-.2.3-.1.7.2.9.4.2.5.1.2-.3-.3-.5 0-.6 1-.3 1.1.2 1.3.2.8-.2-1-.6-1.9-.7-2.3 0m5.5.4c.3.5 0 .6-1 .3-1.4-.2-1.4-.2-.2.3 1.3.6 2.6-.1 1.5-.8-.4-.2-.5-.2-.3.2m41.1 1c-.4.4-.7.5-1.1.1-.5-.4-.9-.3-1.4.4-.6.8-.6.8.2.2.5-.4 1-.5 1.1-.1.4.5-1 1.2-3.5 1.8-.7.2-1.1.5-1 .7.2.3 1 .1 1.7-.3 2.4-1.2 3.4-.9 5.1 1.6.9 1.2 1.7 2.3 1.9 2.3.3 0-.3-1-1.2-2.1-.4-.5-.8-1.2-.9-1.6l-.5-1.5c-.3-.6-.2-1.2.2-1.6.5-.4.6-.4.4.3-.2.5-.1 1 .1 1 .3 0 .5-.3.5-.6 0-.2.4-.3.8-.2.4.2.8 0 .8-.4 0-.8-2.5-.9-3.2 0m-36 2c-.2.4 0 .8.5 1 .4.1.7.4.5.7-.1.2 0 .5.2.7.3.1.4-.2.3-.8-.2-1.2.6-1.3 1 0 .1.6.2.5.2-.3 0-.7-.1-1.2-.4-1.2l-1.2-.3c-.4-.1-.9 0-1 .3m-5.6 1.6c-.6 1.1-.6 1.8-.3 2.5.4.7.3 1.2-.6 2-.5.5-.9 1.2-.8 1.6.2.4.3.4.4-.2 0-.5.2-1 .4-1 .7 0 4.2-4.9 3.7-5.2-.3-.1-.6.2-.7.8-.2.6-.5.9-.8.7-.4-.2-.5 0-.3.4s0 .9-.2 1c-.8.6-1-1-.4-2.4.3-.7 1-1.3 1.3-1.5.6-.1.6-.2 0-.2-.5 0-1.3.6-1.7 1.5m38 1c-1.4 2-2.4 3.5-1.6 2.7 1-1 3.3-4.3 3-4.3a7 7 0 0 0-1.5 1.7m40.3 1.4c1.3 1.8 2.1 3.5 2 3.8-.3.2-.2.2.2 0 .3-.2.6-.1.6.3 0 .3.2.4.3.3.2-.2-.1-1-.7-1.8-.6-.9-1-1.6-.7-1.8h-.3c-.3 0-.6 0-.6-.2s-.7-1.2-1.6-2.2c-1-1-.6-.4.8 1.6m-33.2.8c-.1.2.3 1.2 1 2.2.7 1 1.2 1.4 1.2 1 0-.5-.4-1.2-.8-1.5-.4-.4-.6-.8-.5-1 .2-.3 0-.6-.2-.8-.3-.1-.6 0-.7.1m-35.4 1.4c.4.6.5 1.3.3 1.5-.2.3 0 .3.3.1.3-.2.6-.1.6.3 0 .3.2.4.3.3.2-.2 0-1-.5-1.6-.6-1-.6-1.3-.2-1.5.4-.1.2-.2-.4-.2-1 0-1 .2-.4 1.1m-53.5 1.7H22c1-.1.3-.2-1.7-.2s-2.8 0-1.9.2m10.1 0h3.6c1-.1.3-.2-1.7-.2s-2.8 0-1.9.2m76 15.6c-1 1.6-1.3 1.8-1.8 1-.5-.7-.7-.7-1.2.2-.3.5-.4 1-.1 1 .2 0 .5-.3.7-.7.1-.3.2-.3.3.3 0 .4.7 1.6 1.6 2.5 1.3 1.4 1.4 1.4.7.3-.6-1-.7-1.4-.2-1.6.5-.2.5-.3 0-.3-.7 0-.7 0 0-.5.5-.4.5-.5 0-.5-.4 0-.4-.4.2-1.3.5-.7 1-1.1 1.3-1 .2.2.3 0 .1-.5-.3-1-.2-1-1.6 1.1m5-.3c-.9.7-1 1-.3 1 .4 0 .8-.3.8-.6s.2-.4.4-.2c.2 0 .4-.1.4-.5v-.7l-1.3 1m176.9 1.8h1.7c.5-.1.1-.2-.8-.2-1 0-1.4 0-1 .2m-187.7 2.2l-1 .4h1c.6 0 1.4-.1 1.8-.4 1-.7-.3-.7-1.8 0m7.5 0l1.3 1.4c.3.5.5.6.5.3 0-.8-1.3-2.2-2.1-2.2-.3 0-.2.2.3.5m-5 .7c-.3.7-.7.8-2 .6-1.4-.3-1.4-.2-.4.3.9.5 1 .9.6 1.6-.3.5-.7.7-1 .6-.2-.2-.3 0-.1.5.1.4 0 .7-.2.7-.3 0-.7.4-.8 1l-.7 1.6c-.1.4 1-1 2.6-3.3 1.6-2.1 2.7-4 2.6-4.2-.2-.1-.4.1-.6.6m181.7.7h1.8c.5-.2 0-.3-.9-.3-1 0-1.3.1-.9.3m-227.4 1.3l1.7 1.6 1.6 1.5-1.5-1.6c-1.3-1.6-1.8-2-1.8-1.5m51.9 2.4c1 1.4 1.9 2.4 2 2.3.3-.3-3-4.8-3.5-4.9-.2 0 .5 1.2 1.5 2.6m181.6 12c0 1 0 1.4.2 1V320c-.1-.5-.2-.1-.2.9m-203 15.4c0 5 .1 7 .2 4.4a150.5 150.5 0 0 0-.1-4.4m99.4.5c0 5.3.1 7.3.2 4.6a168.6 168.6 0 0 0-.2-4.6M18 338.8l2.4 2.4c.4 0 0-.5-2.2-2.6l-2.4-2.2 2.2 2.4m55.2 9.8H75c.5-.1.1-.2-.9-.2s-1.3 0-.9.2m61.2 0h1.7c.5-.1.1-.2-.9-.2s-1.3 0-.8.2m67.1 0a9 9 0 0 0 2.6 0c.6-.1 0-.2-1.4-.2s-2 0-1.2.2m28.6 0h2c.5-.1 0-.2-1.2-.2-1 0-1.5 0-.8.2m10 0h3.3c1-.1.2-.2-1.6-.2s-2.5 0-1.6.2"/>
    <path fill="#a80033" d="M49.8 111.1v63.4s2.5-.4 5.5-1.2a264.7 264.7 0 0 1 11.2-2.6l1.6-14.7c3.3-30.7 3.3-31 2.5-32.5-.5-1-.5-1.3.4-2.2.8-1 1.2-3.2 2.3-14.5 2-19 1.3-17 5-17.7 3.4-.7 5.6-.2 5.8 1.3.5 3 .6 3.3 2 3.3 1.5 0 1.5-.1 2-3.2.4-3 .5-3.1 1.9-3.4l1.5-.2V73.2c0-10.7 0-14-.6-15.2-.7-1.7-.3-3.2 1-3.2.3 0 .3.3 0 .7-.8.9-.4 1.8.8 1.8.5 0 .6.2.3.7-.3.3-.2 5.2.1 12.5l.7 14v2.1H96c2.7 0 3.2.4 3.6 2.7l.3 2 2.4-.4c2.8-.4 3-.6 3.2-2.5l.2-1.5h3.5c5.4.3 5.8.4 5.8 2.4 0 1.6.2 1.8 2 2 2.6.5 3 .2 3-1.4 0-1.5 1.5-1.6 5.9-.6l2.5.6-.1 4A133 133 0 0 0 132 122c.7.8.8 1.1.3 1.6-1 1 4 46.2 5.3 47.3.4.4 15 3.6 16 3.6.2 0 .3-28.5.3-63.3V48H50l-.1 63.1M126 57.3c0 .3-.2.5-.5.5s-.9.3-1.2.7l-1.9 1.5-5.4 4.1c-4.3 3.4-4.9 3.7-5.2 2.8-.2-.5-9.7-7.3-10.7-7.7-1-.4.1-1 1.8-1.1a873.8 873.8 0 0 1 15-1c.4-.4 8.1-.2 8.1.2m4 4.7c-.2.6-.5 3.7-.7 7a83 83 0 0 1-.6 7.4l-.4 1.7-1.4-1c-.7-.7-1.4-1-1.4-.8a28.3 28.3 0 0 0-7-4.9c-1.7 0 .2-2.2 5.2-6 6.1-4.8 6.6-5.1 6.2-3.4m-31.5 1.4a14 14 0 0 0 2.6 1.9l2.1 1.3 2 1.6c2.6 1.8 3.5 2.7 3.3 2.9A337 337 0 0 1 97 79.4c-.1 0-.4-4-.6-8.6-.3-9-.2-9.4 2-7.4m15.3 11.1c.2.3.5.4.8.2.2-.1.4 0 .4.2 0 .3 1.6 1.5 3.4 2.7 2 1.2 4 2.7 4.8 3.3l1.4 1-10.9.4-11 .2c-.2-.1 1.4-1.5 3.5-3.1 2-1.6 3.8-3.2 3.8-3.4 0-.3.2-.4.4-.3.3.2.9-.2 1.4-.7 1-1.1 1.5-1.3 2-.5"/>
  </g>
</svg>
