<svg xmlns="http://www.w3.org/2000/svg" width="275.2" height="361.2" display="block">
  <path fill-rule="evenodd" d="M13.5.3c-.3.2-.4 5-.3 83.8 0 88.3 0 86.4 1 91.5l.2 2.6.4 2.7c.2.7.4 1.8.4 2.5l.4 2.3.5 2.7a21.6 21.6 0 0 0 1 4.3 69.3 69.3 0 0 0 2.1 8.4 37.8 37.8 0 0 0 1.7 5.5 44 44 0 0 0 2.5 7.1 67.2 67.2 0 0 1 2 4.7l.8 1.8a153 153 0 0 0 23.1 37.3c0 .2.6 1 1.2 1.7l2.1 2.4c5 5.8 11.2 12 15.4 15.7l2.4 2.2a158.5 158.5 0 0 0 12.5 10c.2 0 2-.9 3.5-1.8 1.3-.7 2.7-1 5.4-1.3 1.2 0 1.7-.2 2-.5l.7-.5 2-1.4c2-1.6 1.9-1.6 3 0 .8 1.2 2.1 2.6 3 3.2.6.4.3.6-1 .6-1.4 0-1.5.5-.4 1.2 1.6 1 3.2.7 6.1-1 3.5-2.2 7.6-2 12.6.4 4.4 2.2 6.9 2.2 10.4 0 3.6-2.1 9.3-2.6 12.5-.9a46 46 0 0 0 3.8 1.8c2.6 1.4 8.4.4 11.3-1.9 1.8-1.4 7.1-1 10.4.6 4.3 2.2 7.3 2.2 10.9.2a15 15 0 0 1 12.6-.7c3.2 1.6 3.3 1.6 11-4.9 9-7.7 24.2-23.6 23.7-25l-27.1-.2c-23.4 0-27.1 0-27.5-.3-.5-.3-.8-1.1-1-3 0-.8-.2-1.6-.4-1.9l-.3-1.3-.3-2.2a64.1 64.1 0 0 1-1-5.6 13 13 0 0 1-.5-2.2c0-1-.3-2.1-.4-2.6-.2-.4-.4-1.4-.4-2.2l-.5-2.2-.5-2.6c0-1-.3-2.2-.5-2.5 0-.4-.3-1.4-.3-2.2l-.4-2.2c-.2-.4-.4-1.3-.4-2-.1-.8-.3-1.7-.5-2-.4-1.2-.1-1.7 2.2-4.3l1-1v-6c0-7.1.3-6.5-3.2-6.5-3.2 0-3.1 0-3 2.8 0 2.7-.2 3.1-1.2 3.3-1.9.4-2.3-.2-2.3-3.4 0-2.9.4-2.7-4.8-2.6-5 0-4.8-.2-4.8 3 0 2.7 0 2.8-2 2.7-2.1-.1-2.2-.1-2.2-3 0-3.3.7-3-6.6-3-7.3.1-6.6-.2-6.6 3.4 0 3 .1 3-2 3s-2.2-.1-2.2-2.9c0-2.9.4-2.7-4.9-2.7-5.2 0-4.9-.2-4.9 2.7 0 1.6 0 2.3-.2 2.5-.5.3-1.5.5-2.3.2-.7-.2-.7-.2-.7-2.9l-.1-2.3-.2-.6H111c-3 0-2.8-.5-2.8 6.4v5.6l1.7 2.1c1.9 2.3 2.2 3.4 1.5 4.9-.2.3-.4 1.2-.5 2.1 0 1-.2 2-.4 2.4l-.5 2.7-.4 2.3a16 16 0 0 0-.5 2.6l-.4 2.5-.4 1.7c0 .8-.2 1.9-.4 2.4l-.5 2.8c-.1 1-.3 2.2-.5 2.6l-.4 2.3c0 .9-.2 1.8-.4 2.2l-.4 2.5c-.2 1-.4 2.4-.7 3l-.4 1.3-27-.1c-14.9 0-27.4-.1-27.7-.2-.8-.1-.8-.5-.3-2.4a143 143 0 0 0 3-10.2 243.8 243.8 0 0 0 3.4-11.6 174.4 174.4 0 0 0 3.2-10.8 62.9 62.9 0 0 0 1.6-5.6 591.2 591.2 0 0 1 4.4-14.9 953.2 953.2 0 0 1 5.8-19.6 35.4 35.4 0 0 1 1.5-5.3 110.5 110.5 0 0 1 2.7-9.2 1475.8 1475.8 0 0 0 4.4-14.8l1.2-3.9c.2-.5.5-1.3.5-1.9l.4-1.5c.2-.2.3-.8.4-1.3l.5-2c.3-.6.6-1.8.8-2.6a572 572 0 0 1 5.4-18.5 63.2 63.2 0 0 1 2-6.5 39.1 39.1 0 0 1 3.1-8.9c.2-.3.4-1 .5-1.6l.5-1.9c.2-.4.3-1 .3-1.4l.3-1.4c.2-.3.4-1 .5-1.6 0-.5.4-1.7.9-2.6.6-1.3.8-2 .9-3.1 0-.8.3-2.1.5-3 .7-2.8 2-7.4 2.5-8.5a64 64 0 0 0 1.8-6.6l.5-1.5a275.2 275.2 0 0 1 3.5-12l1.7-5.5a240.9 240.9 0 0 0 3.5-12A276.4 276.4 0 0 1 116 28a289.6 289.6 0 0 1 3.3-11.2 102.4 102.4 0 0 0 2.2-7.5 139.6 139.6 0 0 0 2.3-9C123.6-.1 14-.1 13.5.3m136.2 0c-.3.2-.4.3-.2.7l.5 1.5a78.2 78.2 0 0 0 1.5 4.7 535 535 0 0 0 5.1 17.4A488.9 488.9 0 0 0 162 42a190.1 190.1 0 0 0 3.3 11 42.3 42.3 0 0 1 1.1 3.8l.7 2.4a273 273 0 0 0 3.5 11.7 109.4 109.4 0 0 1 3 10l.4 1.4c.3.5.4 1 .4 1.1l.6 2a1791.9 1791.9 0 0 1 11.2 37.2 44.4 44.4 0 0 1 1 3.6 166.5 166.5 0 0 1 3.3 11 294.2 294.2 0 0 1 3.5 11.5 215.2 215.2 0 0 1 2.8 9.5 77.1 77.1 0 0 1 2.1 7.1 172.2 172.2 0 0 1 3.6 11.5 1477.5 1477.5 0 0 0 10.7 36.1 260.5 260.5 0 0 0 3.4 11.3 803.5 803.5 0 0 0 6.1 20.4 823.8 823.8 0 0 1 3.6 11.5c.2.8.5 1.4.7 1.4.2 0 1.6-1.7 2.7-3.3a99.3 99.3 0 0 1 3.1-4.2 146.3 146.3 0 0 0 17.8-32l.4-1 .5-1.2 1.3-3.5 1-2.5a112.4 112.4 0 0 0 5-17.9l.5-2.6a76.8 76.8 0 0 0 1.8-10.8l.4-3.6.5-4.7c.8-5.6 1-169.4.2-169.9-.5-.3-112-.2-112.4.1m89.2 6.4l.3.7.5 1.1.5 1c.6.9 1.3 7.7.9 9l-.5 2.4c0 1.4-.8 4-1.5 5.8l-.4 1.3c0 .8-.7.8-1.2-.1-.5-1-.6-2.2-.2-3.9.5-2.3.6-9.8.1-14.6-.4-4.5-.3-4.7.6-3.8l.9 1.1M38.8 5.5v2.7c-.6 6.6-.5 13 .2 16.5.1 1-.2 3.5-.5 3.9-.3.3-1.3-.7-1.5-1.6 0-.5-.3-1-.4-1.3L36 24c0-.7-.3-1.5-.4-1.8-.8-1.5-.8-10.4 0-11.7l.3-1c.2-.7.9-2.2 1.7-3.5.5-.8 1-1 1.1-.5m-18 5a151.1 151.1 0 0 0 7.6 12.8c1.4 1.6 1.5 2 1.6 3.7.2 2.5 0 2.7-1.5.8a65.3 65.3 0 0 0-2-2.7l-.8-1a198.5 198.5 0 0 1-3.2-5.3l-.4-.8a6 6 0 0 0-.3-.8c-1.2-1.8-2.5-6.6-2.1-7.5.3-.7.3-.7 1.1.9m-2.2-.5l.2 1.8c0 .7.3 1.7.5 2.1a51.6 51.6 0 0 0 9.2 15.5l1.4 1.7c.7.8 1 1.4 1 1.8 0 .5.4 1.8 1.3 4.5.3 1.1.2 1.5-.2 1l-.5-.3a45.9 45.9 0 0 1-14-25.5c-.3-2.1.8-4.5 1.1-2.6m237.9.3l-.3 1.5a8 8 0 0 1-.5 1.9l-.4 1a44.4 44.4 0 0 1-9.2 14.4c-.3 0-.3-1.1 0-2l.3-1.8c.1-.5.6-1.3 1.4-2.3a18.8 18.8 0 0 0 3.1-4.7l1-1.5a79.2 79.2 0 0 1 3-5.7l.5-1c.4-1 1.3-.8 1 .2m2.2.3a26 26 0 0 1-3.4 13.2l-1.4 2.9-3.4 5.1-.8 1c-1.1 1.5-5 5.5-5.4 5.5-.4 0-.3-1.2.1-2.2.2-.5.5-1.4.5-2a5 5 0 0 1 1.4-3l4-4.9a53.6 53.6 0 0 0 6.3-11.5c.2-.4.5-1.4.6-2.3.5-2.8 1.3-3.8 1.5-1.8M242.5 12c.3.3.5.8.6 1.6l.5 2c.4 1.1.6 4 .4 5.2a29.3 29.3 0 0 1-2.2 7.1l-.3.5c0 .6-1.4 3-1.9 3.3-1 .5-1-.9-.2-2.5l.3-1 .4-1c.3-.4.4-1 .4-1.1l.4-1.4c.3-.5.4-1.2.4-1.5l.5-2.2a40 40 0 0 0 0-10.2c.1.6.3 1 .7 1.2M34.3 12a6 6 0 0 1-.3 1.7 28.1 28.1 0 0 0 2.1 13.9l.5 1.4c.6 1.2.7 2 .3 2.6-.2.3-.4.4-.4.3a22.2 22.2 0 0 1-3.4-6.9l-.5-1.8a8 8 0 0 0-.4-1.6c-.3-.9-.3-3 0-4.8a65.5 65.5 0 0 0 1-4l.5-1.3c.3-1 .6-.7.6.6m64.3 10.2a6 6 0 0 1-1 2.3c-.5.3-1.1-.3-1-.8.2-1 1.7-2 2-1.5m80.3.5c1 1 .8 2-.1 1.8-.6-.1-1.6-2-1.3-2.4.3-.2.9 0 1.4.6m-147 2c0 .3.3 1 .5 1.3l.3 1c0 .5 2 4.3 3 5.9.4.4.4 1 .4 3.8V40l-.5.4c-.3.3-.6.4-.7.4-.4-.1-1.3-2-1.4-2.6l-.3-1.2a6 6 0 0 1-.5-1.5l-.4-1.4c-.2-.3-.4-1.1-.4-1.8l-.5-2.2c-.4-1.3-.6-5.3-.3-5.8.3-.6.6-.5.8.4m213.2.6a37 37 0 0 1-2 11.1c0 .3 0 .8-.3 1.1l-.6 1.7c-.4 1.4-1.2 1.8-1.9 1.1-.4-.4-.4-.7-.4-3.5l-.1-3.2.7-1a32.2 32.2 0 0 0 3.7-8.1l.2-.6.4.5.3.9m-203-.1a38.3 38.3 0 0 0 .7 6.5c.4 2.3.4 4.5 0 5.6l-.3 1.4c0 .8-.5 1.3-.9.8l-.3-.6c0-.3-.5-1.1-1.2-2l-.6-1.3a3 3 0 0 0-.4-1c-.6-.5.1-6 1-7.5.3-.3.4-.8.4-1 0-1 .3-1.4.7-1.6.7-.4.7-.3.8.7m193.1-.6l.2.8c0 .4.6 1.7 1.4 3.4.5 1 .5 5.7 0 6.4l-.5 1.3-.4.7-.5.6-.3.6-.5.7c-.5 1-1 .8-1-.5a7 7 0 0 0-.4-1.7 5.8 5.8 0 0 1 0-3.9l.4-2.9c.6-5.5 1-6.7 1.6-5.5m-140.6.7c0 .7-.4 1-1 .7-.5-.2-.5-.3 0-1s1-.5 1 .3m88.1-.1c.5.6.3 1-.4.9-.6-.1-1-1-.6-1.4.2-.3.6-.2 1 .5m-77.3.3c.5.6-1 1-1.8.5-.2-.2-.2-.2.1-.5.5-.4 1.4-.4 1.7 0m67.1 0c.4.3.2.6-.6.8-.5.1-1.2-.5-1-.9.2-.3 1.2-.2 1.6 0m-74 1c.6.8.7 3 .1 4.6-.4 1.3-.4 1.6-.2 2.2.2.4.3 1.4.2 2.8 0 1.8 0 2.1.3 2.3.7.4.8 0 .7-3.3-.1-3.7 0-4 2.2-6.4 1.2-1.3 1.8-1.5 2.5-.9l.5.5-.4 1-1.1 2.7c-.8 1.5-1.3 3.5-2 7.5a16 16 0 0 0 .8 6.6l.3 1.5.3 1c2.3 5 2.4 6.2.4 6.2-1.2 0-1.4-.5-1.6-3.6-.2-2.4-.5-3.6-1.2-4.3-.5-.5-1.8 1.5-2.9 4.6l-.8 2.1-.4 1.2c-.3 1.4-1.2 2.8-1.4 2.1-.9-3-.8-4.7 0-7a20.4 20.4 0 0 0 1.6-8.8c.1-2.8.2-3.2.5-3.5.8-.9.4-5.4-.6-7.4s-.9-2.9.6-4.1c.7-.6 1.1-.5 1.7.3m80.8-.3c1.3.8 1.7 2.8.7 4l-.5 1c0 .1-.1.5-.3.7-.5.8-.5 5.1 0 5.7.3.3.4.8.4 3.8 0 2.7.2 3.6.5 4.6a115.1 115.1 0 0 1 1.7 5.7c.4 1.6.4 2.1 0 3.6a20 20 0 0 0-.6 1.8c-.1.9-.3.6-1-1.3-.3-1-.7-2.2-1-2.7l-.5-1.3c0-.4-.2-1.1-1.2-3.1-.4-.7-.7-1.7-.7-2.1-.2-1.4-1.2-1.4-1.4 0l-.3 1.8-.5 3.5c-.3 2.8-.4 3.1-1.4 3.1-1 0-1.5-.6-1.5-1.6 0-.5.2-1.2.4-1.7l.9-1.8c.4-1 .7-2 1.5-5.4.7-3.2.7-4 .3-5.8l-.5-2.2c0-.9-1-3.8-2.3-6-.4-1-.5-2.1 0-2.7l.3-.4.9.4c1.8.9 4 4.3 3.6 5.6-.7 2.2-.2 5.7.7 5.1.4-.2.4-6.3 0-7.3-.6-1.3-.5-3.8.2-4.7.5-.8.7-.8 1.6-.3m-85 1.6l.2 1.2c0 .6.3 1.3.8 2.3 1.3 2.3 1.2 5.7 0 4-2.3-3-2.6-3.6-2.4-5.4.1-2 1-3 1.4-2m88.5 0c.2 0 .3 1 .3 2v2l-1 1.6c-2.2 3.1-2.4 3.2-2.4 1.2 0-1 1-3.9 1.3-3.9.2 0 .5-1.3.5-2.3 0-1 .6-1.4 1.3-.6m-115 .8c.5.4 1.1 1.3 1.1 1.6 0 .5-1 .5-1.7.1-1.6-1-6.9 0-6.9 1.2 0 .5.2.6.7.8 1 .3 1 .4-.2 1.3-1 1-2 2.2-1.8 2.6.1.4 1.3.4 1.7.1.6-.6 5.6-1.6 6-1.1.3.3 0 2.2-.7 3.1l-.5.9c0 .3-.4.1-.8-.3l-.3-.5-.6.4c-1 .8-1.5 2-1.5 4.3 0 3 .8 3 1 0 0-1.4.6-3 1-3.3.5-.3.7.9.7 4.2 0 4.4.7 5.5 5.3 9 6.5 4.8 11 9.8 11 12.1l.4 1 .5 1.2c.2.7.8 1.5 2 2.7.6.8.7 1 .5 1.2-.5.7-2.3-.1-5-2.4a17.9 17.9 0 0 0-2.8-2c-.7-.9-2.8.6-3.3 2.3-.3.7-.7 1.2-1.2 1.2-.3 0-1.3-1.6-2.4-3.9-1-2-2.5-1.6-3.5 1 0 .3-.4.7-.7.9-.6.3-.5.4-2.7-2.1-.9-1-1.4-1.1-1.7-.2-.9 2.5-2.4 2.6-5.9.3l-1.4-.8c-1.1-.6-1.4-1.3-1-2.3.5-1.7.3-3.9-.7-7.7a54.1 54.1 0 0 1-1.2-5.8C49.4 44 50 39 52.8 34.8c.8-1.1.9-1.6.4-2.4-.6-1.2.5-3.8 1.4-3.2.5.3 2 .3 3.6 0a39.1 39.1 0 0 1 5.5-1c1.2-.3 3.4-.2 4 .3m147 .1l4 .7c1 .2 1.6.2 2 0 1.6-.3 1.7-.3 2 1.2.4 1.2.4 1.4.1 2-.4.8-.3 1 .4 2.2 2.1 3.3 2.5 4.7 2.5 8.7a18.1 18.1 0 0 1-.8 6.4c-.5 2.5-1 5-1.4 6.1-.7 2.5-.9 4.4-.6 6.4.3 2.1.1 2.6-1 3.2-.3 0-.9.4-1.4.7-3.4 2.2-4.2 2.2-5.5.2-.9-1.3-1-1.4-1.8-.5-1 1.2-2.5 2.5-2.6 2.5-.3 0-1.5-1.6-1.5-1.9 0-.4-1.3-1.7-1.7-1.7-.5 0-1 .8-2.1 3-1.5 2.9-1.7 3-2.7 1.2-1.8-3.1-2.5-3.2-5.7-.7-3.2 2.7-5.4 3.7-5.7 2.8 0-.2 0-.4.2-.5a13.7 13.7 0 0 0 3-4.8l.5-1.2.5-1.2c1.5-3.2 3.8-5.6 10-10.3 5.3-3.9 5.6-4.4 5.6-9.3 0-3.9.2-5.1.6-4.2 0 .3.3.5.5.6.5.1.6.6.6 2.6 0 1.8.2 2.4.7 2.2.7-.3.2-4.6-.5-5.7-.7-1-.8-1-1.6-.6-.7.4-1.2.3-1.2-.1 0-.2-.1-.6-.4-1a5 5 0 0 1-.4-1.8V35h1.2c1.3.1 3.6.7 4.7 1.2 2.2 1 2.4-.2.4-2.2-1.4-1.4-1.4-1.6-.5-1.8 2.3-.5-.8-2.3-4.1-2.3a4 4 0 0 0-2.2.4c-1.5.8-2-.3-.7-1.5.9-.8 2-.8 6.6-.1m-191 3.7c.9.6 2 1.4 2.3 2 1.6 1.8 5.5 5.6 6 5.9 1 .5.5 1.6-.9 1.6-1.8 0-12.6-11.4-12-12.7 0-.2.5 0 1.6 1l3 2.2M257 29.6c0 .4-.1.7-.4.8a72.9 72.9 0 0 1-9.7 10.3c-1.5 1.4-3 1.6-3 .4a65.5 65.5 0 0 1 12.8-12c.2 0 .3.1.3.5M18 30A104 104 0 0 0 28 41.2c1.4 1.1 1.6 1.8.6 2.2-.9.4-1.9 1.3-1.9 1.8 0 .7 1.3 3 2.2 4 1 1.1.3 1.8-1 1l-2.4-1.6-1-.6a76 76 0 0 0-1.5-1c-1.9-1.2-4.3-3.8-4-4.1.4-.5 5.5.5 5.9 1.2 0 .1 1.4.2 1.4 0 0-.3-.6-1-2.8-3.3-3-3.1-4.7-5.5-5.8-8.4-.8-2.3-.7-4 .3-2.4m240.9.7a23.1 23.1 0 0 1-6.4 10.2 18.2 18.2 0 0 0-2.6 3c0 .4.6.6 1 .3.4-.4 3.7-1.3 5-1.5 2.5-.3.8 1.7-4.9 5.7l-.8.5-1.8 1c-1.8 1-2.3.7-1.1-.8 2.5-3 2.5-4.4.3-5.6-1.1-.6-1-1 1.2-3a107.7 107.7 0 0 0 8.6-9.5l.5-1 .3-.3c.4-.5.8.1.7 1m-182.5-.1c1.4.2 3 2.7 3 4.6 0 .5-.7.6-1.5.1-1.2-.7-2.5-.2-4 1.6-.3.6-1 1.3-1.2 1.6-1.8 1.8-7.2 2-5.8.2.3-.3 1-2.3 1.3-4l.7-2.2c.3-.4.4-.9.4-1 0-1 4.2-1.5 7-1m129.6.1c.8.4 1.6 2.4 2.4 5.8.1.7.4 1.5.5 1.7 1 1.6.5 2-1.7 1.8-2.3-.2-3.2-.8-5-2.9-1.6-2-2.5-2.4-4-1.6-1 .5-1.4.2-1.2-1 .2-1.7 1.4-3.4 2.6-3.8.8-.2 6-.2 6.4 0m-139.5.5c1.4.6 1.4 1.3 0 2.3-1.3 1.1-4.7.9-3.5-.3.3-.2.4-.5.3-1-.1-.7.1-1 1.1-1.2 1-.3 1.2-.3 2.1.2m145.2-.3c1 .3 1.3.7 1.2 1.5 0 .6 0 .7.3 1 1 .4.5.7-1.1.7-1.5 0-1.7 0-2.4-.6-1.3-1-1.4-1.6-.1-2.3 1-.5 1.1-.5 2-.3M38 34.6l.4 1 .6 1.2.8 1.4.8 1.2c.7 1.7 3 4.3 5.3 6.2 4.5 3.7 5.3 5.2 3.6 7.4-1.1 1.4-1.7 1.8-2.6 2-2 .6-2.3 4.8-.3 7.3l.5 1c-.2.2-1 .1-1.2-.2l-.8-.4c-2-.4-3.2-2.4-2.3-3.6.9-1.1.9-3 0-4l-.7-1.8c-.5-1.8-.3-2 1-2 1.4 0 2.2-1 2-2.1-.3-2.3-2.5-5.4-3.7-5.4h-.6l.4.6 1.2 1.3c.5.5.8 1 .8 1.2l.4 1c1.1 2 .4 2.8-1.4 1.6-1.5-.9-1.6-.8-1.4 1.8 0 2 .2 2.5 1.2 4.4.5 1.1.6 2.1 0 2.6-1.2 1.2.1 5.1 1.7 5.1l1.2.5 1.3.5c.6 0 2.2 2 2.2 3 0 .5 1 .7 2.4.5 2.7-.5 4.8.8 5.5 3.3.3 1 1.3 1.5 1.3.7s-1.4-3.5-1.8-3.5c-.1 0-.1 0 0-.2.1-.3 1-.2 1.5.2.9.8 3.6.5 4.2-.4.6-.9 1.4-1 1.7-.3.5.9 2 2 2.6 2 .6 0 1.8-1.4 1.8-2 0-.3 1-1.3 1.3-1.3l.3.6.4.8.5 1 1.4 2c.9 1.1 1.2 1.6 1.3 2.5.1.7.4 1.3.5 1.5.4.4.3 4.3-.1 5.6-.2.6-.4 1.6-.4 2.2-.1.5-.3 1.3-.5 1.6-.8 1.7-.4 5 .8 7l.4.8.5.9.5.8c.3.6 1 .6 2.2 0 4.5-2 6-1.5 3.5 1.2-.9.9-1.1 1.2-1 1.5 1.6 3 1.6 3.4 0 3.8-1.4.2-1.7.6-1.8 2 0 1.1-.4 3.7-.6 4-.3.3-1.2-.3-1.4-1-.6-2-3-4.7-5.2-6.2l-1.7-1.1-.4-2.1c-.3-1.1-.5-2.8-.6-3.8-.1-1.6-.8-3.8-1.3-3.8-.4 0-.4 1.2 0 2.4.5 1.4.5 1.4.3 1.8-.4.6-3.9-2.6-4.2-3.7 0-.3-.4-.6-.7-.8l-.6-.3-1.4 1.4a25.3 25.3 0 0 1-6.5 4.6l.1-1.2c1-1.2 1.2-1.6 1.2-1.7l.5-.8.6-.9c.7-1.5 2.5-3.5 3.5-3.7a12 12 0 0 0 4.4-3c.9-.8 1.7-1.5 1.9-1.5.5 0 .8-.3.6-.7-.2-.3-.5-.4-1.5-.4-1.3 0-1.4 0-2.3-1l-1-1-1 .6c-1 .6-3 1.4-4.8 1.8l-1.3.5c-1.2 1.2-4.2-1.7-4.7-4.5-.2-1.4-.9-1.8-3.6-2-3.4-.1-3.5-.2-3.6-4.6v-2.4h-2c-2.6 0-3-.1-2.8-1.4.1-1.1.5-2 1.2-2.2 1-.5.4-1.9-.7-1.9-.4 0-1.5-.6-2.5-1.4-1.8-1.3-1-6 .9-4.9 1.1.8 1.3-.2.4-2.2-.4-1-.8-1.2-1.2-1-.7.6-1.3.5-2-.3-1-1-1-1.5 0-2.7 1.3-1.4 1.4-1.5 2-1.2 1.4.4 2.1-1.6.8-2.2-1.6-.8-2.2-3.9-.8-3.9a3 3 0 0 0 1-.5l.8-.5v-3c0-3.3.1-4.5.6-3.9l.2.7m200.8-.6l.1 3.6c0 1.8.1 3.3.2 3.3.4.4 1.6 1 1.8 1 1.2 0 .8 3-.4 3.5-.4.2-.7.5-.7.7-.4 1.3 0 2.2.8 1.7.7-.3 3 1.7 3 2.7 0 1-1.4 2.4-2 2-1-.6-1.5-.5-1.8.2 0 .3-.3 1-.5 1.3-.6 1.4-.1 2 .9 1.3.8-.6 1.4 0 1.5 1.3 0 .3 0 .9.2 1.3.3.7.3.8-.1 1.4-.7 1-2.2 2-3.3 2.4-1.5.4-1.8 1.3-.6 1.8.8.4 1 .8.9 2.3 0 1.4-.4 1.5-3 1.3-2-.1-2 0-1.6 1.4.2 1 .2 1.3-.3 3.7-.4 1.7-.4 1.8-2.7 2-3.3.2-3.3.2-3.8 1l-.7 1.7c-.4 2.4-3.2 4.6-4.5 3.6l-1.2-.4c-.5 0-1-.2-1.3-.4a6 6 0 0 0-1.3-.4l-1.8-.8c-1-.6-1.7-.6-2 0-.6.8-2 1.4-3.1 1.2-1 0-1 0-1.2.3-.1.5 0 .8.6.8.2 0 1 .6 1.8 1.4 1.4 1.3 2.8 2.4 3.2 2.4.2 0 .4.2.5.3.2.2.5.4.9.4.8.2 1.8 1.1 2.7 2.5l3 4.5c.4.3.3 1.1-.1 1.1-.8 0-3.7-2-5.8-4-2-2.1-2.2-2.1-3.4-.3-1 1.5-3 3.5-3.4 3.2-.4-.2-.4-1.3 0-2.6.1-.7-.4-1.8-.7-1.2-.3.5-1 3.7-1.2 5.8-.2 2.4-.7 3.8-1.4 4.1-2 .8-4.8 4-6.3 7l-.5 1-.5-.4c-.6-.6-.8-1.6-.9-3.5 0-1.7-.3-2.3-1.3-2.3-1.7 0-2-.5-1-2.5.7-1.7.7-1.7-.7-3.2-1.2-1.3-1.4-2-.6-2 .5-.1 3.7.8 4.3 1.2 1 .7 1.7.5 2.6-.6 2.3-3 2.8-6 1.5-10.2-1.2-4.2-.9-10.2.7-11.6.5-.4 1.4-1.8 2.1-3.1.8-1.6 1.7-2.1 2-1.1.8 2.7 2.1 3.1 4 1.2 1.6-1.5 1.7-1.5 2.1-.7.7 1.3 3.4 1.7 4.5.8.5-.5 1.2-.6 1.4-.2l-.1.4c-1 .6-1.9 3-1.3 3.7.3.4.8-.1.8-1 0-.4 1-1.8 2-2.7 1-.8 2-1 3.8-.7l1.5.2.6-.7c.3-.3.6-1 .7-1.3 0-.6 1.2-1.7 1.7-1.7.3 0 2.8-1.2 3.4-1.6 1.2-.9 1.6-3.3.8-4.4-.7-.9-.7-1.2.2-3 1.3-2.6 1.4-7.8.2-6.3-1.2 1.4-3.3 1-2.4-.4l.5-1.3a7 7 0 0 1 1.4-1.9c1-1.1 1.2-1.6.7-1.8-.4-.2-2.8 2.4-3 3 0 .4-.3 1-.5 1.3-1 1.8-.2 3 1.8 3.2l1.1.1.1.9c0 .6-.1 1.2-.7 2.5-1 1.9-1.1 3-.5 4 1 1.6.4 3-2 4.2-1.9.8-2.4.6-1.5-.5 2-2.6 1.7-7.4-.4-7.4-.9 0-3-2.3-3.3-3.6-.3-1 .5-2.4 2.1-3.8l3.6-3.1c1.4-1.1 2.4-2.3 3.3-3.9l1.2-2c1-1.6 1.6-2.7 1.8-3.9.3-1.1.5-1.3.8-.7m-192.8.3c.2.3.5.8.5 1.2.3 1 1.2 2.7 2 3.8.6.8.7 1.2.7 2l.1 2.8c.1 3-.4 3-2.7.7l-1.3-1.1c-1.7-1.5-2.1-5.5-.8-8.2l.5-1.1c.3-.7.5-.7 1 0m185.3.2c.3.4.6 1.2.7 1.9.1.6.3 1.3.5 1.6 1 1.8 0 4.3-2.2 6.1l-1.8 1.5c-.4.5-1.4 1.1-1.5 1l-.2-3v-3l.7-1a15.3 15.3 0 0 0 2.3-4.4l.5-1.1c.2-.6.5-.4 1 .4M73.5 40.3c.1.5 3 2.8 3.9 3.1 1.5.6.7 1.4-1.2 1.1-2.4-.3-5.6-3.5-4.3-4.3.5-.2 1.4-.2 1.6 0m130.8 0c1.4 1.5-3.5 5-5.8 4.2-1-.3-1-.5.5-1.2a12 12 0 0 0 2.6-1.9c1.4-1.3 2.1-1.6 2.7-1M70.2 41.5c1.8 1.6 1.9 2.3.1 2-.6-.2-1.6-.3-2.3-.2-1.4.2-1.7 0-1.7-1.2 0-1.3 2.5-1.7 3.9-.6m139.6-.3l.1 1c0 1-.4 1.3-2.1 1.1h-1.9c-1.7.6-1.9.1-.6-1.1 1.2-1.2 3.4-1.7 4.5-1M33.5 43.8c0 1-.3 1.5-.8 1a4 4 0 0 0-1.4-.3c-1.3-.2-1.4-.6-.3-1.3.6-.4 1-.6 1.6-.5h.8l.1 1m211.5-.5c1.2.8 1.1 1-.2 1.3a8 8 0 0 0-1.5.3c-.7.3-1 .1-1-.8 0-1.4 1.2-1.7 2.7-.8M20.7 46.6c0 .1.2.3.5.4l1.2.8c1.3 1 3.3 2.3 4.8 3.1 1.3.7 1.4.8 1.2 1.4-.1.9-1 2.7-1.4 2.9-.7.2-3-1.8-5.1-4.6-3-3.8-4-6.3-2-4.7.5.3.8.7.8.7m11.3-.9l1.2.5c1.2.5-.3 2.5-2.3 3.1-.5.2-2.3-2-2.6-3-.3-1.1 1.7-1.4 3.7-.6m215.6-.3l.5.3-.5 1-.7 1.1-.4.5-.6.7c-.9.5-1.5.3-2.8-1.2-1.1-1.2-1.1-1.3-.4-1.5 2.9-1 4-1.3 4.9-.9m9.4.7c0 .3-.2.8-.4 1.1l-1 1.4c-.6 1-.6 1-2.1 2.8-3 3.6-4.6 4.6-5 3l-.6-1c-.7-1.4-.5-1.8 1.8-3 1.7-.9 2-1 2.1-1.3a18.5 18.5 0 0 0 4.2-3.2c.6-.6 1-.5 1 .2m-11 5.6c.2.5.6 1.1.6 1.4l.5.9c.5.8.1.9-1.6.7l-2.3-.1c-1 0-1-.7 0-1.7l1.4-1.4c.7-.8.6-.8 1.3.2m-214.3-.1l1.1 1.2c1.1 1.1 1 1.8-.1 1.8l-2 .1c-1.8.2-2.1-.6-.8-2.2l.3-.8c0-.7 1.1-.8 1.5-.1m57.6 1.7l.7 1.1.3 1.4c.3 1.7.3 1.8.8 1.8.3 0 .7-.2 1.2-.9.3-.5.8-.8 1-.8.3 0 .8 2 .8 3.2 0 1 .4 1.2 1.6 1 1-.1 2 .5 2.4 1.7.4 1 .3 1-1.2 1-3.1-.1-5.6 2.7-6 6.7-.3 4-.6 4.6-2.5 5.3l-1.4.8c-1.4 1-1.8.7-2-.8-.2-2.1 0-2.5 1.2-2.5 1.6-.1 1.5-.4-.4-2.3-2-2.1-2.6-3-2.6-4s1.2-3.1 2.7-5c.9-1.1 1.3-2 1.6-3.9.8-4.2 1.2-5 1.8-3.8m98.6 0s.3.9.4 2c.6 3.2 1 4.5 2 5.6.9 1 2 2.8 2.5 4 .6 1.6.1 2.5-2.5 5.2-1.7 1.8-1.7 2-.4 2.1 1.2.2 1.3.3 1.3 1.6 0 1.9-.4 3-.9 2.4-.2-.2-1-.7-3-1.6-1.4-.7-1.7-1.1-1.7-3 0-5.5-3.6-10-7-8.7-.5.2-.8-.5-.5-1.2.6-1.2 1.3-1.6 2.5-1.5 1.5 0 1.6 0 1.7-2.3.2-2.2 1-2.8 1.8-1.2.7 1.5 1.7 1.1 1.7-.6 0-1.6 1.6-3.8 2.1-2.9M33.5 56c0 .1 0 1-.3 1.8l-.3 1.4.4.7c.5.6 1.8 1.7 2.5 2 .7.2 0 1.7-.7 1.7l-1.1.8c-1.5 1.2-1.8 1.3-2 .8-.4-.6-.2-3.7.2-4.1.6-.6.4-1-1.3-2.5-2.4-2.3-2.2-3 1-3 1.2 0 1.5 0 1.6.4m212.6-.2c1 .3.8 1-.5 2.3l-1.5 1.4c-.3.3-.4.5-.3 1 .5 2.5.4 5-.3 5l-1.9-1.4-.8-.5c-1-.6-1.2-1.4-.3-1.8.3 0 1-.6 1.6-1.2l1-1v-1.2c-.1-.7-.3-1.5-.5-1.7l-.3-.6c0-.4 2.7-.6 3.8-.3m-219.7.7c.8.2 1.2.4 2 1.1 1.7 1.6 2 2.6.6 2.1-.4-.1-1.3-.3-2-.3-3-.3-5.6-1.5-5.4-2.4 0-.3 2.3-.8 3.2-.7l1.6.2m227.4.2c1.3.3.8 1.1-1 1.7-2 .8-2.9 1-6.1 1.4h-.8l.3-.4c1.8-2.8 4.1-3.6 7.6-2.7M23.3 59.5c.2.2 1 .5 1.9.6a90.8 90.8 0 0 1 4.3.7c1.4 0 1.4.1 1.4 3.1 0 3.3 0 3.3-1.5 2.6-4.3-2-9.4-7.3-7-7.3l.9.3m231 0c.2.8-3.4 4.6-5.5 5.8l-1.6.9c-2 1.1-2 1.2-2-2 0-3.3 0-3.4 1.7-3.4l2.5-.4 2-.4 1.3-.4c.9-.4 1.4-.5 1.6 0M51.7 65c.8.3 1 .5 1 .9 0 .2.2.4.4.5h-.6c-.6 0-1.2 0-1.8.2-1.1.5-1.3.4-1.6-.5l-.4-.8c-.2 0-.4-.6-.2-.9.3-.3 1.7 0 3.2.6m175.8-.3c.2 1.3-1 2.4-2.2 2-.6-.3-1.2-.4-1.8-.3h-.7c.2 0 .3-.3.3-.5 0-1 4.3-2.1 4.4-1.2m-191.4-.1c1 .9-.2 2.4-1.8 2.3-1.5 0-1.6-.3-.5-1l1.3-1.1c.6-.5.7-.5 1-.2m205.1.4c2.4 1.6 2.5 2.1.5 2-1.2 0-2-.7-2-1.8 0-1 .2-1 1.5-.2M27.8 67c2 1 1.2 2.7-1.2 2.5-4.4-.5-7.5 1.4-7.8 4.8-.1 1.3.8 3.2 1.8 3.4.3 0 .6.2.8.4l.4.2c.5 0 2.1 1.2 2.6 2 1.4 2 .2 5-4.5 10.4l-.5 1c0 .5-.2.6-.3.4-.2-.4-.2-1.3 0-1.5.1 0 .3-.4.4-.9.2-.4.4-.8.6-.9l.2-.4.5-.8.5-.8.4-.7c.3-.2.5-.7.6-1l.3-.8c.4-.4.6-1.3.4-2.2-.1-1-2.6-3.7-3.1-3.4-.5.1-.2.8.5 1.5.4.3 1 1 1.2 1.4l.5 1-.4 1.2c-.2.7-.6 1.4-.8 1.6l-.4.7c0 .1-.2.5-.6.8l-.6.8c0 .2 0 .2-.2.1-.3-.2-.2-1 .1-1.2.2-.2.4-.7.4-1.1.1-.5.3-1 .5-1.2.4-.5.4-2 0-2.6l-.4-.5c0-1.2-1.8-2.2-2.7-1.6-1.1.8-2-4.5-1-7.2 1.4-4.7 7.4-7.4 11.8-5.4m226.6-.1c4.1 1.3 6 3.9 6 8.2 0 2.7 0 2.9-1.3 5.3l-.4 1s-.1.4-.4.7l-.4.8c0 .2 0 .7-.2 1.1l-.2.8-.4-.8c-.5-1.3-.1-2.4 1.4-3.8.5-.4.5-.5.2-.8-.6-.6-1.4 0-2.3 1.9-1 1.9-1 1.7-.5 2.7.3.5.4 1 .4 1.2 0 .3.2.6.3.7.3.3.4 1 .2 1.5 0 .3-1.5-1.2-1.5-1.6 0-.1-.1-.5-.4-.7-1-1.5-.8-3.4.7-4.9 1.3-1.2 1.4-1.5.6-1.5-1.5 0-4 4-3 4.7l.3.8c0 .6 1.1 2.7 1.4 3 .3.1 1.4 2 1.4 2.2l.4.5c.3.4.4 1.5.1 1.9-.1.1-.3 0-.4-.5l-.8-1.2a343.6 343.6 0 0 1-3-4l-.8-1.6-.5-.9c-.2-.1-.4-2-.2-2.5.4-1 1.8-2.2 3.5-3 3-1.4 3.6-4.1 1.4-6.8-1.2-1.4-2.5-1.8-5.6-1.8-2.6 0-2.6 0-2.8-.5-.5-1-.3-1.6.4-1.9l1.3-.5c1-.4 3.6-.2 5.1.3M201 68.4c1.5 2 1.8 3.8 1 6a11 11 0 0 0-.1 5 66.6 66.6 0 0 1 1 4.7c.6.9.6 4.3-.2 5.7a5 5 0 0 0-.5 1.1c0 .7-1.1 1.6-1.5 1.3-.9-.6-4.4-5.7-7.3-10.4-1-1.5-1.5-5-1.2-6.7.5-2.6.5-2.6 2.3-3.6 1.5-.8 3.7-2.5 4.3-3.2.6-.8 1.6-.7 2.2 0m46 1.6c.4 1 .6 1.7.3 2-.1.1-1.7-.6-1.7-.8l-1-1c-1.7-1.3-1.7-2-.1-2.2 1-.2 1.6.2 2.5 2M32.7 68.1c.7.4-2 3.3-3.4 3.6-.9.2-.6-1.3.6-3l.5-1 1 .2c.7 0 1.2.2 1.3.2m6.5.2c2.6 0 2 1.9-1.6 4.7-1.2 1-1.3.9-1.8-.7-.7-2.6 0-4.6 1.5-4.2l2 .2m39.4 1.1c1 1 2.5 2 3.2 2.3 1.8.9 2.1 1.6 2.1 4.7 0 4-.7 5.4-7.2 14.3-1.6 2.2-1.9 2.2-3-.3C72.7 88 72.5 87 73 85c.2-.8.5-1.8.5-2.3l.5-1.7c.4-1.5.4-6.2 0-7-.6-.8-.6-3-.1-3.6.1-.2.4-.6.4-.9.7-2.2 1.8-2.3 4.3-.2m161.7-.3c.4 3.4-.2 5-1.6 4.2-3.2-2-4.8-5.3-2.4-5h1.4c.4-.2 1-.2 1.6-.3h.9l.1 1m4.4 2.8c.5.4 1 .8 1 1 0 .2-2.6 1-3.6 1.1h-.8v-2c0-3 0-3.1 1.4-1.9l2 1.8m-210.3-.9l.2 2c.3 1-1.2 1.5-2.3.7l-.9-.2c-1.5-.3-1.5-.6-.2-1.6l2-1.7c1-1 1.2-.9 1.2.8m6.8 1.7c.2 2 .4 2.2 2.3 2.4 3.2.5 4 .8 3.5 1.5l-.5 1a14 14 0 0 1-1.8 2.8c-.5.6-1.7 0-1.7-.9 0-.6-.7-2.9-1-3.3 0-.1-.7-.3-1.4-.3-1.9-.2-3.8-1.3-2.8-1.7.2 0 .8-.5 1.3-1 1-1 2-1.1 2-.5m195.8.6c.6.6 1.2 1 1.4 1 1.3 0-1.6 1.4-3.2 1.6-1.4.1-1.7.4-1.7 1.6 0 .2 0 .7-.3 1a7 7 0 0 0-.5 1.4c-.3 1.5-1.6.7-3-1.8-1-1.8-.8-2.4.7-2.6 3.9-.6 4.3-.8 4.3-2.3 0-.4.5-.8.9-.9l1.4 1M33.9 75c.5.2.6 1.4.2 2.7-.8 2.8-.6 5.5.5 5.9.9.4 1 1.2.4 3l-.6 2c0 .3-.3 1-.5 1.3l-.4 1a44 44 0 0 1-5.9 9.7c-6 7.9-7.1 13.2-3.7 17.5 1.8 2.2 4.8 2.2 5.7 0a107.5 107.5 0 0 1 2-4.3c1-2.4 2.7-5 3.7-5.7.6-.4 3-2.6 4.8-4.3 2.7-2.6 4-4.4 4.8-6.6l1-2.7c.5-1.2.6-2 .6-2.9 0-1.8.4-2.2 2.5-2.8.4 0 .8-.2 1-.4.9-.8 1.3.6.6 2.4-.2.5-.3 1.6-.3 2.8 0 2.3 0 2.5 1.7 1.8l1.4-.6c.3 0 .6-.2.8-.4l.4-.3c.2 0 2.9-1.7 3.2-2a52 52 0 0 1 3-2.6c.2-.1.7.4 1.4 1.2.5.7 1.7 2 2.6 2.6 1.5 1.3 2 2 2 3l.4 2c1 2.5.6 3.7-1.4 4.9-2.3 1.2-4 2.8-5 4.6a8 8 0 0 1-1.4 1.9 2 2 0 0 0-.7 1.4l-.4 1.3-.3 1.4-.2 1-1.6.9-2 1-1 .9-1.3 1.1-.6.5-.6-.6c-.3-.3-.6-.7-.6-.9 0-.2-.1-.5-.4-.8-.7-1-.8-4.2-.2-6.2.2-.4.1-.6 0-.7-.8-.2-1 0-1 .9l-.5 2.5c-.3 1.6 0 3.5.9 4.2l.2.4.5 1.2.5 1.5.3 1c.6 1.3.6 2.3-.2 7.3a14 14 0 0 1-2.9 7c-1 1.2-1.1 1.6-1.5 3.6-.5 3-4 9.2-6 10.9-1.6 1.2-2.6 3.5-2.8 6.4a8 8 0 0 1-1.8 5c-.9 1.2-1 2-1 4.4 0 2.5-.4 3.8-1.6 6.1-2 4-1 11.3 1.6 12.6.7.4 2.5.4 3.4 0 1.6-.8 4 .7 4.6 2.7.3.8.8 1 1 .4.2-.9-.2-1.9-1.4-3-1.3-1.3-1.2-1.5 1.1-1.4.8 0 2.3 1.4 2.8 2.6.3.9 1 .8 1-.1 0-.8.4-.8 1-.2.8.7.8.8 0 1.5l-1.3 1c-2.7 2.2-12 4.2-15 3.1-3.6-1.2-4.3-2.2-4.7-7 0-1.4-.4-3.2-.6-4-.4-1.4-.4-4.1 0-5.7.2-.4.4-1.6.5-2.8l.5-2.2c.2-.1.9-3.3 1-4.7 0-1-.6-4.5-1.1-6-.3-.6.1-2 1.3-4.3a21.1 21.1 0 0 0 1.4-3.3l.4-.9c.2-.6.5-.8 1.6-1.3 2.8-1.4 3.8-4.8 2.2-7.9l-.4-1.1-.3-1c-.3-.2-.5-.6-.6-1 0-.2-.2-.6-.4-.7-.1-.1-.3-.3-.3-.5a5 5 0 0 0-.5-1.2l-.5-1.2c0-.2-.1-.6-.4-1l-.4-1a5 5 0 0 0-.5-1.4l-.5-1.3c0-.2-.1-.7-.4-1.2-.7-1.7-.4-3.1 1.4-6.6.8-1.7.8-2 0-1.9l-.5.2-1.6 3.6a10 10 0 0 0 0 5.8l1.2 3.3 1.3 3.2.6 1.6.3.4c.2.1.4.5.4.8l.4.8c.2.2.4.7.5 1.2l.5 1.4c.9 1.5.1 4.6-1.3 5.3-1.4.8-3.4-.9-2.3-1.9.2-.1.3-.3.3-.5l.6-.9c.8-.9.6-1.7-.5-1.7-1.7-.1-2-.5-1.5-2 .3-.5 0-.8-1-1-.6-.1-.8-.6-.6-1.7 0-.5 0-.8-.4-1.2-.6-.5-.7-1-.4-1.3.6-.3.3-1.5-.3-1.5-.8 0-1-.4-.8-1.4.2-1 0-1.3-.8-1.6-.7-.3 0-2.9 1.2-4.3.2-.2 0-.5-1.5-2-5.8-5.6-7.4-11.3-4.6-16.4a151.7 151.7 0 0 1 5.4-9 72.6 72.6 0 0 0 4.9-9c.7-1.3 2-5.5 2.2-7.8.2-1.9.1-6-.2-7 0-.2 0-.5.2-.7.3-.3.6-.3 2 0m210.5.8c-.7 6.8.8 13.1 5 20a374 374 0 0 1 2.7 4.7 158.3 158.3 0 0 1 4.7 8.1c2 3.9 1.9 7-.2 11-1 1.6-3.1 4.4-4.6 5.7-1.3 1-1.4 1.3-.7 2.3.4.7 1 2.4 1.2 3.1 0 .3-.1.4-.7.6-.7.2-.7.2-.7 1.4s0 1.2-.6 1.5c-.7.3-.8.3-.4 1.7.1.3 0 .6-.3 1-.5.5-.6.7-.6 1.7 0 1.2-.1 1.4-1 1.4-.6 0-.7.4-.5 1.3.3 1.1 0 1.5-1 1.5-1.7 0-1.8.5-.8 2.1 1.3 1.9 1.1 2.9-.4 3-1.1.2-2-.2-2.2-1l-.6-.9c-.7-.7.3-4.6 1.8-7l.3-.8a58.2 58.2 0 0 1 1.8-4l.4-1a27 27 0 0 0 1.9-5.7 16 16 0 0 0-2.3-6.8c0-.4-.3-.5-.7-.4-.5.2-.3.8.4 2.2 1.6 3 1.8 5.2.9 7l-.5 1.3c0 .4-.3 1-.5 1.4l-.4 1-.3 1c-.2.4-.5 1-.5 1.3l-.6 1c-.2.4-.4.7-.4 1 0 .1 0 .4-.2.5l-.6 1c-.1.4-.3 1-.5 1.1l-.4 1.1c0 .4-.3 1-.4 1.2-.5.7-.5 3.8 0 4.4l.5.9c.2.5 1.5 1.5 2.5 1.8.6.3 1.3 1.2 1.6 2.4l1 2c2 4.3 2 4.6 1.3 6.6-.7 2.1-.7 7.5 0 8.4l.4 1.7.5 2.5c.8 2.7.8 5.9.2 8.3l-.6 3.7c-.4 4-.6 4.5-2.8 5.7a6.4 6.4 0 0 1-4.7.9 99 99 0 0 0-3.5-.4 16 16 0 0 1-9.2-3.5c-1.3-1-1.4-1.1-.8-1.8.6-.8 1.1-.6 1.1.2 0 1.1.9.6 1.7-1 .5-1.1 2.4-2 3.7-1.6.8.2.7.5-.2 1.2-1 .8-1.8 2.1-1.7 3 0 1 .5 1 1.1-.4.8-1.4 1.2-1.9 2.5-2.5l1-.4 1 .3c3 1.3 5.2-.2 5.6-3.8l.5-2.2c.5-2.2.2-3.9-1.4-7.2l-.9-1.7v-3c-.2-3.1-.5-4.5-1.2-5-1-.9-2-3.5-2.1-6-.2-2.4-.8-3.6-2.8-5.8a26 26 0 0 1-6-11.5c-.2-1-.3-1.4-1.3-2.5a13.6 13.6 0 0 1-2.7-5.7c-1.2-3.4-.6-10.6 1-12.6 1-1.3 1.4-4.3.7-5.9a4 4 0 0 1-.3-1.3c0-.6-.3-1-.7-.7-.3.2-.3 1.1 0 2.8.5 1.7.5 2.3 0 3l-.3.9s0 .3-.3.4l-.5 1c-.2 1-1 1.3-1.6.6a13.6 13.6 0 0 0-4-3c-1.2-.4-2-1-2-1.8-.5-2.5-.8-3.6-1.3-4a6.5 6.5 0 0 1-1.5-2c0-.9-4.7-5.2-5.7-5.2-1.1 0-1.6-2.6-.9-4.2l.6-2.1c0-1.2.2-1.4 1.1-2.2 2.1-2 3.7-3.7 4-4.3.4-.7 1-.5 2.1.6 2.2 2.1 3.8 3.2 7.7 5 1 .4 1.7.2 1.7-.4a26 26 0 0 0-.7-5.4c-.6-1.3-.2-1.8 1-1.2l1 .4c1.4 0 2.3 1.2 2.3 2.8 0 1 .5 3 1.1 4.2l.8 2c1 2.4 2.9 4.6 7.1 8.3a25 25 0 0 1 4 3.8c.7 1 2.4 4.6 3.8 7.8.8 2 1.7 2.3 4 1.6 3.9-1.1 5-9.3 1.8-13.4a36.9 36.9 0 0 1-11.2-20c-.5-1.6-.4-1.9.5-2.4l.8-.4v-2.7c0-1.8-.2-3-.4-3.6-.5-1.7-.3-2 1.4-2l1.2.1v1m-207 0c.4.2 1.1.5 1.7.6 1.5.3 1.5.6 0 2.2-2.5 2.5-3.4 3.2-4 3-.6-.3-.6-.2-.3-1.6l.5-2.6c.1-2 .6-2.3 2.1-1.5m203.1 0c.7 1.9 1 5.7.4 5.8-.5 0-5.4-4.2-5.4-4.8 0-.2.4-.3 1.5-.5.5 0 1-.2 1.2-.4 1-.6 2.1-.6 2.3 0M229 78.7l.9 1.3c.3 0 .7 1.3.5 1.5-.2.3-4 .3-4.4.1-.4-.2-.3-1.1.2-1.5.4-.3 1.1-1.5 1.4-2.2.4-.8.5-.8 1.4.8m-180.2-.3l1.1 1.5c.7.9 1 1.7.4 1.7l-1.5.1c-2.1.2-3 0-3-.7 0-.3.2-.6.3-.7.4-.1 1.5-2 1.5-2.3 0-.3.2-.6.5-.6l.7 1m-7 .1c.2.2.4.6.5 1.2l.5 1.4c.5.8.2 1.2-1.4 1.6-2.8.7-5.9 0-4-1 .7-.3 3-2.4 3.2-3 .3-.5.6-.6 1.2-.2m195 1.4c1 1 2 1.9 2.3 2 1.1.6.3 1-2 1-3.9-.1-4.2-.6-2.8-3.8.4-1.2.5-1.1 2.5.8m-175.3-.1c1 1 1.3 1.3 1.3 1.5a10 10 0 0 1-3.4 2.7c-1 .7-4 1.3-3.7.7.3-.6.5-1.3.7-2.2.3-1.2 1.3-2.2 2.2-2.4.5 0 1-.2 1.2-.4.5-.4 1.2-.3 1.7 0m155.2.1l1.2.4c.8 0 1.7 1 1.9 2 0 .5.2 1.1.4 1.4.3.5.3 1.3 0 1.5a11.2 11.2 0 0 1-4-1.5l-2.6-2c-.2-.4.2-1 1-1.6.8-.7 1.1-.7 2.1-.2M19.2 82.3l.4 1-.6.5c-.7.7-.7.7-1-.9 0-.4-.3-1-.5-1.4-.4-.6-.5-1.3-.2-1.5.2-.3 1.3 1.2 1.9 2.3m36-.6c.2.6.1 1-.5 2-.7 1.1-.7 1.1-1.4.1-.8-1.2-.7-1.8.4-2 1.3-.4 1.4-.4 1.5 0m167.7.1c.2.2.4.5.3.7l-.1.9c-.3 1-1.8 1.3-1.8.4 0-.2-.1-.6-.4-1-.8-1.3.5-1.9 2-1m-177 .7c2.3.2 2.4.9.2 3.1-3.4 3.4-5 2.6-3.3-1.5l.3-1.5c0-.5 0-.5.7-.4l2 .3m187.1.1c0 .3.1.7.3 1 .4.9.8 3.8.4 4.1-.4.5-1.8-.3-3.3-1.8-2.6-2.7-2.7-3.2-.2-3.4a8 8 0 0 0 1.8-.2c.3-.4 1-.2 1 .3M52 83.7l.5 1.2-.4.6c-.5.6-2 1.7-2.5 1.7l-.4.3c-.2.1-.7.4-1.4.5l-1.2.4c0 .2-1.3.3-1.5.1 0 0 .5-.8 1.3-1.5.8-.8 1.6-1.8 1.8-2.2 1-2 1.3-2.2 2.3-2.2h1l.5 1.1m175-.4l.5 1c0 .4.6 1.1 2.2 2.6.8.8 1.4 1.5 1.3 1.6-.2.2-1.3.1-1.7-.2l-1-.3c-1 0-4.2-2-4.5-2.8 0-.4.3-2 .6-2.3.4-.6 1.9-.3 2.5.4M55.2 87l-.2.8c-.3.2-1.5 1.9-1.5 2.2l-.3.4a3 3 0 0 0-.6 1c-.3.9-.9.7-.9-.4 0-2 1-4.4 2-4.6 1.2-.3 1.5-.1 1.5.6m167.2-.6c.6 0 1.3 1.1 1.6 2.7l.5 2c.1.3.2.7.1.8-.1.4-.2.3-1-.6a21 21 0 0 1-1.2-1.5c-2-3.2-2.2-3.7-1-3.5l1 .1M137.2 88a216.4 216.4 0 0 0-2.7 17.6c-.1.7-.2 1.4-.4 1.6l-.5 3c-.1 1.4-.3 2.8-.5 3.2l-.4 2.7c0 1.1-.3 2.4-.5 2.8l-.2 1.8c0 2.2-.4 2.3-2 .8a14 14 0 0 0-1.9-1.5 257 257 0 0 0-4.2-2.2c-1.6-1-1.9 0-.6 2 1.7 3 3.2 4.9 4.5 5.6.7.3.8 1.2 0 1.4l-2.8.3a26 26 0 0 0-3.5.4c-.6.2-2 .3-3.2.4-1.1 0-2.6.3-3.4.4a57.2 57.2 0 0 0-7.8 1 57.6 57.6 0 0 1-6.8.8l-3.6.4c-3 .3-3.6.5-3.6 1.1 0 .4.6.6 1.8.6l2.3.3 3.4.5 3.5.5a50.1 50.1 0 0 0 6.2 1l2.2.2 2.9.4c.6.2 2.1.4 3.4.5l3.6.6 3.5.4 2.1.1v.6c.1.5 0 .8-.9 1.5-.8.7-1.6 1.6-2.7 3l-.6.8c-1.6 2-1.2 3.3.7 2.3l2.3-1c1.4-.5 2-.9 2.8-1.6.7-.7 1-.9 1.2-.7.2.2.7 3.2 1 6.5 0 1.5.3 3.2.5 4l.4 3.9.4 3.4c.2.4.4 2.4.5 4.3l.5 4.1.4 3.4.4 3.2.3 2.5a79.6 79.6 0 0 0 1 9 46.1 46.1 0 0 0 .8 6.8c.2 1.6.3 1.9 1 1.5.4-.2.5-.5.6-3l.5-3.9c.2-.9.5-2.5.5-3.6s.3-2.7.4-3.6c.2-.9.4-2.4.4-3.5l.5-3.3.5-4c0-1.5.3-3 .4-3.2l.3-3 .5-4.2a56.3 56.3 0 0 0 1-7.5l.4-3.2c.4-4.7.9-6.3 1.7-5.5a29 29 0 0 0 5.9 3.2c.2-.2-.3-1.6-1.3-3.6l-.4-1a14 14 0 0 0-2.6-2.8c-1.2-.9-.6-1.5 1.3-1.7l3.3-.5a98.6 98.6 0 0 1 7.5-1c.4-.2 1.6-.4 2.9-.5 1.2 0 2.5-.3 2.9-.5a5 5 0 0 1 1.6-.3 130.8 130.8 0 0 1 10.2-1.4l2.4-.4c2.7-.2 3.3-.4 3.6-.8.3-.7-.1-1-1.7-1l-2.6-.2-3-.5c-1 0-2.9-.3-4.2-.5a57 57 0 0 0-7.7-.9 34 34 0 0 0-3.5-.4c-1.1 0-2.5-.2-3-.4l-3.3-.4a28 28 0 0 1-3.4-.4l-2.5-.4c-1.7-.2-1.9-.4-.9-1.3 3.5-3.2 3.5-3.2 4.3-6.7.1-.6-.5-.6-2 0-2.2.8-2.4 1-3.3 1.9-1.3 1.2-1.9.7-2.1-1.7-.1-.8-.3-2.1-.6-3l-.4-2.6-.4-2-.5-2.4c0-.7-.2-1.7-.4-2l-.5-2.6c0-1-.3-1.9-.3-2l-.4-2-.6-2.8-.4-2.4c0-.7-.3-2-.5-2.6a15 15 0 0 1-.5-2.5c0-1.3-.2-1.6-.9-1.8-.2-.1-.4 0-.5.2m-41.5.6c1.6 1 1.6 4 0 6.5-.2.2-.4.8-.5 1.2 0 .5-.2 1-.3 1l-.4 1.8c0 1-.3 2-.5 2.2a8 8 0 0 0-.4 1.5 13.9 13.9 0 0 1-1.9 4.8s0 .3-.2.4c-.6.6-1.8 4.2-2.2 6.6-.3 2.3-2.8 4.2-3.6 2.7-.6-1 0-2.9 1.8-5 .5-.6.8-1.2.8-1.3l.5-.8c.8-1.2 1-1.8.7-2.5-1-1.8-5.7-4.5-8.6-5-1.7-.2-2-.3-2-.7-.2-.6 0-1 .5-1 1.1 0 1.8-.2 2-.8.4-.7 1-.7 2.2.3a9.3 9.3 0 0 0 5 2.1c1.4 0 1.8-.3 3.7-3l1-1.6v-3c0-5.6.8-7.4 2.4-6.4m86.1.3c.7.6 1 2.3 1 6 .1 3.7.4 4.3 3 7.2 1 1.2 3.2.7 6.5-1.5l1.7-1.2.4.6c.4.7 1 1 2 1 .6 0 1 .4.8 1-.1.4-.3.5-2 .7-4.5.7-9.6 4.6-8.5 6.5 1 1.8 1.8 3 2.5 3.9 1.4 1.6 1.8 3.7.9 4.5l-.5.4-.8-.4c-1.2-.6-1.8-1.6-2.3-3.7a15.7 15.7 0 0 0-2.4-6.7c-1-1.4-2-4.6-2.7-8.6-.3-1.5-.9-3.3-1.4-4a10 10 0 0 1-.8-3.4c-.2-2 1.4-3.4 2.6-2.3m-89.4 1.7c-.3 4.4-.3 4.6-.7 4.7-1 .3-1.5-4.2-.5-5.4.5-.7 1.2-.2 1.2.7m92.2-.8c1 .7 1.2 2.9.6 4.5l-.5 1.2c-.4 1-.8 0-.8-1.8l-.1-2.7c-.2-.8-.1-1 .1-1.2.4-.2.5-.2.7 0M138 93c.6.2.7.8.2 1.2-.7.7-1.2 0-1-1 .2-.5.2-.5.8-.2M17.5 96.6l.8.9c.6.5.6.7 0 .7-1.3 0-2.3-1.7-2-3l.3-.9.2 1 .7 1.3m72.4-1.2c0 .1 0 .2-.2.2 0 0-.2-.2-.2-.5 0-.6.4-.3.4.3m96.5-.3c.1.3 0 .7-.3.7 0 0-.2-.2-.2-.5 0-.5.3-.7.5-.2m73.2 1.4c-.2.8-1 1.7-1.7 1.7s-.7 0 .2-1l1-1.2c.2-.6.7-.2.5.5M138 96c.3.2.3.6.3 16.4v16.2l.5.2c.4.3.5.2 1-.5a77.6 77.6 0 0 1 6.8-7c.6-.6 1.3-1.2 1.7-1.3l1-.4c.3-.2.6 0 .6.3 0 .7-.8 2-1.9 2.9l-2 1.7-5.1 4.8c-1.7 1.4-2.4 1.3 16.2 1.3 9 0 16.5.1 16.5.2.7 1-1 1.1-21.2 1.3-7.8.1-12 .2-12.3.4-.5.2-.2.4 6.8 7.1 1.6 1.6 2.2 2.3 2.3 2.8.2.8 0 1.2-.6.9l-1-.6c-.7-.3-1.6-1-4.7-4.6a363.8 363.8 0 0 0-4-4h-.5v23.4c-.2 22.4-.2 23.3-.5 23.8-.8.9-.8.5-.8-23.5 0-18.7 0-23.2-.2-23.5-.3-.3.1-.7-7.6 6.8a8 8 0 0 1-2.1 1.5 8 8 0 0 0-1.3.6c-.4.2-.6.3-.8 0-.4-.4.9-2 3.7-4.5l5.4-4.9c.7-.7 1.1-1.2 1-1.3 0-.2-4-.3-15.3-.3-16.5 0-16.7 0-17-.7-.4-.9-.3-.9 16.1-.9 15.9 0 16.7 0 16-.6a163.6 163.6 0 0 1-6-5c-3.7-3.1-5.6-6.1-3-4.9 1.8 1 2.5 1.4 5.8 4.8 4.2 4.1 4.8 4.7 5 4.2l.1-16.3c0-14.8.1-17 .5-17l.6.2M62 102a326.3 326.3 0 0 1-3.5 2 58 58 0 0 0-3.1 1.3l-1 .4c0 .2-.4.4-.7.4-1.6.4-3.2 4-1.9 4 .3 0 .5-.3.7-1 .2-.8 1.2-2 1.7-2l1-.5c.3-.2.7-.4 1-.4l1-.3 1.4-.6.8-.5.5-.3c1.3-.4 3.7-2.3 3.7-3 0-.4-.4-.4-1.6.5m150-.6c0 .6 3 3 3.7 3l.7.4.8.4 1.3.5 1.3.5.9.4 1 .4c.4 0 1.3 1 1.5 1.9.3.8 1 1.4 1.2 1.2.3-.2.3-1.1 0-1.6l-.4-.7c0-.7-3-2.6-4-2.6l-.7-.2-1.2-.6a3 3 0 0 1-1-.5l-.5-.3c-.2 0-.7-.2-1.2-.6l-1.2-.8-.9-.6c-.4-.4-1.3-.5-1.3-.2m-71.6 3.2c0 .7.3 2 .5 2.8.2.8.4 2 .4 2.7l.5 2.1.4 2.7.4 2c.1.1.3 1 .4 2.1l.4 2.2c.5.9.3 1.4-1.5 3.2-1.3 1.3-2 1.8-2.1 1.8-.4-.2-.5-22-.1-22.8.3-.6.5-.2.7 1.2m-4.5 12.5c-.1 9.3-.1 9.5-.5 9.5-.5 0-2.7-2.1-2.9-2.8 0-.4.4-3.6.6-4l.4-2.3c0-1.2.3-2.3.4-2.5l.4-2.7c.1-2 .6-3.9 1.3-5.7.3-.8.4 1.7.3 10.5m-67.3-6.9c4.5 1.8 6 8 3 11.3l-.8.8.5.9.4.9-1.5 1.4a71 71 0 0 0-8.3 8.6c-.7 1.4-.5 2.6 1.1 5.1l1.2 2.1A18 18 0 0 0 70 148c1.6.8 2.3 2.3 1.5 3.3-.3.5-.4 2.2 0 2.4.2.2.7-.6 1-1.8.3-.6.7-1.2 1.2-1.7.7-.7 1.7-2.5 1.7-3 0-.9 1.5-1.3 3-1 1 .4 1.7 0 1-.6-.3-.4-3.5-.5-4 0-.5.2-.6.2-.7-.3-.3-1.2 2.4-3 3.5-2.4a6 6 0 0 0 1.9.8c.9.2.9 1.2-.1 4.7a21.2 21.2 0 0 1-3.6 6.4c-3.3 5-6 4.6-9-1.3-1.8-3.2-1.8-3.6-.2-2.3.8.7.9.7 1.2.3.4-.5.4-.5-1.1-1.8a12 12 0 0 1-1.9-2 26.6 26.6 0 0 0-2.4-3.4l-1.1-1.5c-1.4-1.5-1.7-2.2-1.1-2.8.6-.7.7-1.3.3-1.5-.2-.1-.5 0-1 .5-.3.4-1 1-1.6 1.4-1.5 1-1.4 1.2.3 1.5.6.2 2.6 1.8 2.6 2.2l.5.8.5.8c0 .2.2.4.4.6.3.2.4.5.4.6 0 .2.8 1.2 1.8 2.2 1 1 1 1.3.3 1.3-.8 0-2-.7-3-2a46.8 46.8 0 0 0-6.1-5.8c-2-1-2.9-2.6-2.2-4l1.4-2.9 1.1-2.4V131a22.4 22.4 0 0 1 1.5-8c.3-1 1.8-2.6 2.6-2.8 1-.2 1.6-1.3.8-1.6-1-.3-3.7 2-4.3 3.7-.1.6-.4 1-.5 1.1l-.3 1c0 .6-.2 1.3-.4 1.7l-.3 1.6c0 .5-.3 1.1-.5 1.4-.5.7-3.4 2.7-3.7 2.6-.3-.1-.3-2.2 0-2.8.3-.3.3-1.7.4-4.5v-4l1.3-1.1c1.1-1.1 3.1-2.6 3.4-2.6.8 0 2.3-1 2.4-1.7l.5-1.7.3-1.4c.2-.8.6-1.1 2.1-1.6 2.5-.7 5.2-.7 7 0m145.7 0l1.5.5.5 1.2.7 2.4.1 1.2 1.2.5c.6.4 1.3.6 1.4.6.2 0 .4.2.6.4l.6.4c.2 0 1 .7 2 1.6l1.6 1.6-.2 1.4c-.3 1.6-.2 2.6.4 7.1.4 2.3.1 2.9-.7 2.2l-1.2-.8c-1.7-1.1-2.3-2-2.5-3.5 0-.8-.2-1.7-.4-2l-.3-1a5 5 0 0 0-.5-1.3 6 6 0 0 1-.5-1.2c0-.6-2.8-3-3.5-3-1.2 0-1 1.2.2 1.5.7.1 2.5 1.8 2.5 2.4l.4 1a16 16 0 0 1 1.3 7l.1 3.1 1.3 2.5c2 4 1.7 5.9-1.3 6.7-1 .3-2.1 1.3-3.6 3.1-2.7 3.5-4 4.6-5.2 4.6-.5 0-.8-.4-.4-.6.4-.1 2.2-2.5 3.2-4 1.5-2.5 2.8-3.7 4-4 1.3-.1 1.3-.6 0-1.4a8 8 0 0 1-1.4-1.2c-1-1.2-2-.7-1 .6l.6.8-.4.7a53.4 53.4 0 0 0-4.2 5.6c-.5.7-1.5 1.9-2.3 2.6-1.3 1.3-1.5 1.5-1.4 2 .2.5.2.6.5.3l.6-.4.5-.4c.3-.4.6-.5.8-.2.1.1-.5 1.5-1.3 3-3.5 6.7-6 6.1-11.4-2.8a17.9 17.9 0 0 1-1.6-4.2c-.6-2.1-.5-3.4.4-3.2.4 0 .8 0 1.4-.4 1.2-.9 2.3-.5 3.6 1.1.5.7.3 1.5-.3 1.2-1-.5-4.3-.2-4.3.3s.7.7 1.5.4c1.6-.4 2.1 0 3 1.6.3.8 1 1.7 1.3 2.2 1 1 1.6 2 1.6 2.6 0 .8.4 1.3.8 1 .4-.3.3-1.4-.1-2.5-.5-1.3-.2-2 1.3-2.8 1.8-1 4-3.8 5.6-6.7l1.3-2.2c2.6-4 2.4-4.7-1.6-8.7l-4.7-4.6-2.2-2 .4-.9.4-.8-.6-.7c-3.6-4.2-1.4-10.4 4.3-12 .9-.2 4 .1 5.6.5m-127 9.2c.7.9.8 1.2.3 1.3-1 .4-2-.8-1.2-1.4.4-.3.5-.3.9 0m102-.1c1.2.2.5 1.7-.7 1.6-.7 0-.8-.5-.2-1.3.3-.5.3-.5 1-.3m-42 8.2l3.3.4 4.4.5c1.1.2 5.4.7 6.4.7v.3c-.3.3-18.4.5-18.8.2-.3-.2 1.4-2 2.1-2.3.4-.2 2.2 0 2.6.2m-16.9.5c1.1.5 1.7 1.3 1.2 1.7a73 73 0 0 1-14.9-.4l1.4-.3 3.7-.4 7.4-.8c.3 0 .8 0 1.2.2m46.2 3c.4 0 .4.1-.3.4-.7.3-1 .3-1-.3 0-.4.6-.5 1.3-.2m-76 .8l.1.2c0 .1-.2.2-.6.2-.5 0-.7-.2-.4-.4 0-.1.2-.1.4 0h.5m31.7 1.7c.6.7-2.4 3-3.6 2.7l-2.4-.3c-.9 0-2-.2-2.5-.4l-2.7-.4c-1 0-2.7-.3-3.8-.5l-3.3-.5c-2.3-.2-2.3-.5 0-.7 2-.3 18.1-.2 18.3.1m30.5 0c1.2.3.6.5-2.4.7l-3.6.5c-.5.2-1.8.4-2.9.4-1 .1-2.2.3-2.6.5l-1.5.2-2.7.3c-1.8.3-2 .3-2.6 0-.5-.3-2.1-2-2.2-2.4-.1-.4 19-.7 20.5-.2m-27 3.3c.2.3.2 33.4 0 34.3 0 .6-.5 1-.5.6a75.2 75.2 0 0 0-1-9.8c-.1-1.4-.3-3-.5-3.7l-.5-4c0-1.4-.3-3-.4-3.4l-.5-4.2c-.1-2-.3-3.8-.5-4-.5-1.5-.3-2 1.7-4.1 1.8-1.9 2-2 2.2-1.7m-99.8.2c-.2 0-.2.4-.1 1.1 0 .8 0 1.2-.2 1.4-.3.4 0 1 .4 1 .5 0 .8-.8.8-1.9 0-.8-.3-1.8-.5-1.8l-.4.2m105.1 1.1c2.6 3 2.8 3.4 2.2 4.8l-.4 3.4c0 1.6-.3 3.1-.4 3.3l-.4 3.2a36 36 0 0 1-.4 4 28 28 0 0 0-.5 3.5c0 1.2-.2 2.8-.4 3.5l-.5 4c-.2 3.3-.3 3.8-.7 2.8-.2-.7-.4-33.4-.1-33.6.3-.3.6-.1 1.6 1.1m98.1-1c-.4.1-.8 1.2-.6 1.8l.2.7c.1.5 1 1.1 1.2.9.2-.2.2-1 0-1.2-.3-.1-.3-.7 0-2 0-.4-.2-.5-.8-.3M80.7 142c0 .8-.4 1-1 .5-.7-.4-.7-1.1-.1-1.5.6-.4 1.1 0 1.1 1m116-1c.5.2.3 1.2-.4 1.6-.7.6-1 .4-1-.6 0-1.2.4-1.4 1.3-1m43 9.7c-.5.4.7 3.5 1.8 4.2.6.4 1-.2.6-.9a23.8 23.8 0 0 1-1.1-1.7l-.4-.9c0-.6-.4-1-.8-.7m-204.2.4a3 3 0 0 0-.2.8l-.3.8c-.7.8-1 1.9-.8 2.1.5.6.8.3 2-2.3.7-1.5.7-1.8 0-1.8-.3 0-.5 0-.7.4m-6.4 7.4c-.2.3-.1.5.3 1 .8 1.1 1.5 3.2 1.2 4-.2.4-.3 1-.3 1.4 0 .8-.3 1.6-1.2 3-.3.4-.7 1-.8 1.4-.1.3-.4.5-.5.5-.4 0-.2 3.9.3 5.6.3 1 .3 1.4 0 2.6-.6 4-.6 3.8-.2 4.7.3.7 1.3 1.7 1.7 1.7.4 0 .3-.6-.3-1.4l-.6-1 .2-1.5c.3-1.8.3-4.9 0-6.5-.4-2.6-.4-2.7 0-3.5.3-.8 1.1-2.1 1.6-2.8 1.1-1.3 1.5-5 .8-7-.7-1.9-1.6-2.8-2.2-2.2m216.3.8c-.6 1.1-1.1 3-1 3.6l.3 2.1c.2 1.7.2 1.8 1.4 3.6l1.3 2-.1 2c0 1-.2 2.5-.4 3.3a6 6 0 0 0 .1 3c.5 2.6.5 3.2-.4 4.2l-.7 1 .7.1c.4 0 .7 0 .7-.2l.5-.6c.5-.5.6-4.1.2-5.6a2 2 0 0 1 0-1.3c.4-1.1.5-6.5 0-7-2.8-3.4-3.3-8.5-1-10.5.4-.3.2-.6-.5-.6-.4 0-.6.2-1 1M138.1 183c.5 0 .6 1.2.1 2.4-.7 2.2-1.2 1.9-1.2-1 0-1.2.1-1.7.6-1.5l.5.1m4.7 20.7c.2.1.2 1 .2 2.5 0 3.3 0 3.2 3.2 3.2s3 .1 3-2.9 0-2.9 4.1-2.9c4 0 3.6-.3 3.7 3.2l.1 2.7h4.8l.2-2.6c.1-3.4 0-3.3 2.2-3.3h1.9l.2.7c.4 1 .3 8.4-.1 9l-.4.3H138a295 295 0 0 1-28.4-.4c0-.1-.2-2.2-.2-4.5 0-4.9 0-4.9 1.9-4.9 1.4 0 1.4 0 1.5 3.1l.1 2.6h2.3c3 .2 2.8.3 2.8-2.6 0-2.8-.1-2.7 4-2.7 4 0 3.8 0 3.8 2.7 0 2.9-.1 2.8 3.4 2.7h2.7l.1-3c.1-2.6.2-2.8.5-3 .7-.3 10.2-.2 10.5 0m22.6 11.3c.4.4.3.6-1.1 2l-1.4 1.5h-25c-15.4 0-25 0-25.2-.2-.6-.3-2.7-3-2.5-3.2.3-.3 1.4-.3 28-.3 20.7 0 27 0 27.2.2m-41.3 5.1c.5.8.4 2 0 2.5-.5.4-11.1.6-11.5.2-.3-.3 0-2.6.4-3 .2-.2 1.2-.3 5.6-.3h5.2l.3.6m13.4-.1c.4.5.4 2.4 0 2.7-.4.4-11.4.4-11.8 0-.3-.3-.4-2 0-2.7l.2-.5h5.7c5.6 0 5.6 0 6 .5m12.5 0c.5.8.5 2.5 0 2.7-.3.2-2.3.3-5.7.3-6 0-5.8 0-5.8-1.7 0-1.8 0-1.8 6-1.8h5.2l.3.5m12.7-.2l.6 1.4c.6 1.6.4 1.7-2.1 1.8l-9.5-.2c-.3-.3-.3-2.6 0-3 .4-.4 10.6-.4 11 0m-46.1 4.7c.5.4.5 4.8 0 5.2-.2.2-1 .2-2.9.2-3 0-3.1-.2-2.6-1.4l.4-2c.2-2.3.2-2.3 3.1-2.3 1.2 0 1.7 0 2 .3m13.8 0c.6.5.5 5-.2 5.2-.8.3-11.2.3-11.8 0-.5-.3-.7-2.4-.5-5 0-.6 11.7-.8 12.5-.2m13 0c.6.5.5 5-.2 5.2a73 73 0 0 1-11.4 0 13 13 0 0 1 0-5.1c.6-.5 11-.6 11.6-.1m14.1 0c.3.5.3 4.9 0 5.2-.3.3-12 .3-12.5 0-.4-.2-.4-4.8 0-5.3.3-.4 12.2-.3 12.5.1m6.1 0c.7.8 1.4 4.6 1 5.1-.3.4-5.4.4-5.8 0-.2-.1-.2-4.7 0-5 .5-.6 4.3-.7 4.8 0m-40.6 6.7c.9.7.8 3.3 0 3.7a80 80 0 0 1-12.2.2c-1-.2-1-2.1 0-3.8.5-.7 11.4-.7 12.2 0m14.4-.1c.4.3.5 3 .1 3.6a55 55 0 0 1-12.6.1c-.4-.4-.5-2.7-.1-3.6l.2-.5h6c4.8.1 6.2.2 6.4.4m13.2 0c.5.7.5 3.2 0 3.7a46 46 0 0 1-11.3 0c-.8-.3-.8-3 0-3.6.8-.7 10.9-.7 11.3 0m14.1-.2c.7.4.7.5 1 2.3.2 1.9.4 1.8-6.7 1.8-7.2 0-7 .1-6.9-2.2 0-2.3-.3-2.2 6.5-2.2 4.6 0 5.7 0 6.1.3m-49.7 5.6c.2.3.2 4 0 4.5-.4.7-5.8.6-6 0-.3-1 .4-4.2 1-4.7.5-.3 4.7-.2 5 .2m14.8 0c.2.3.2 3.8 0 4.4l-.2.5h-6.4c-7.5 0-7 .2-7-2.5-.2-2.2 0-2.5.7-2.7.8-.2 12.7 0 12.9.2m14.4 0c.5.4.5 4.3 0 4.7-.5.5-12.5.5-13 0s-.3-4.5.3-4.8a85 85 0 0 1 12.7.1m14.9 0c.4.4.4 4.3 0 4.7-.6.6-13 .5-13.4 0-.4-1-.1-4.7.4-4.9 1-.2 12.7 0 13 .2m7 0c.1.2.3.7.3 1.3l.5 1.8c.6 1.7.2 2-3.3 2-3.4 0-3.3 0-3.2-3v-2.2h2.2c2.4-.2 3-.1 3.5.2m-44.7 6.1c.5.2.5.2.5 2.6 0 3.5.7 3.2-7.3 3.2-7.2 0-7.3 0-7-1.1.2-.5.4-2 .7-3.8 0-.4.2-.7.5-.8.6-.3 12-.3 12.6 0m15.9 0c.7.6-.4 1.4-2.3 1.5-1 .1-1.9.3-2.4.6l-.9.4a13 13 0 0 0-3 2.2l-1 1h-2.2c-2 0-2.2 0-2.4-.4-.2-.5-.2-5 0-5.3.5-.4 13.6-.4 14.2 0m15 0c.3.3.3 4.8 0 5.3-.1.4-.4.4-2 .4-2 0-2.2 0-3.8-1.5-.7-.6-1.3-1-1.5-1l-.3-.3-1-.5-1.4-.6c-.2-.2-.8-.3-1.3-.3-1.9 0-3-.7-2.2-1.5.3-.4 13.1-.4 13.5 0m14.8-.1c.1 0 .3.4.3.7l.5 1.5.2 2.2v1.3h-6.7c-7.3.1-7.3.1-7.6-.6-.5-1-.3-4.8.2-5 .5-.3 12.7-.4 13-.1m-27.3 2.4l2.3.5 1.2.5.7.4c0 .1.2.3.4.3 1 .3 3.8 3.3 3.8 4 0 .2.2.4.3.5.2.2.5.7.6 1.3l.6 1.3c.4.4.4 2.7 0 3-1 1-2.2.4-2.5-1.2-.7-4.5-3.4-7.4-7.4-8-2.2-.3-5.7 0-6.5.6l-1.4 1c-.8.5-2 2-2 2.6l-.4.7-.4 2.1c-.1 1.8-.2 2-1.4 2.1-1.7.3-2-1.8-.8-4.2a23.6 23.6 0 0 0 1.2-2.5c.5-.7 2.6-2.9 3.2-3.2l1-.6c1-.6 2.3-1 3.7-1.2l1.7-.1 2 .1m1.9 4.2c1.3.7 2.9 2 3.1 2.8.1.2.3.6.5.7a42 42 0 0 1 1 16.8c-.5.3-15.6.4-16 0-.4-.5-.2-15.7.2-16.4l.4-.9c.5-1.4 3-3.4 4.7-3.6 2-.3 4.8 0 6 .6m-28.1.5c.4.4.3 3.9-.1 4.1-.5.2-5 .3-6 0-.8-.1-.6-2.8.2-4.1a17 17 0 0 1 5.9 0m13.3.4l-.4 1.2-.6 1.4c-.3 1.3-.6 1.3-5.6 1.3-5.5 0-5.3.1-5.3-2.3 0-2.5-.4-2.3 6.2-2.2h5.7v.6m34.2-.4c.3.3.3.8.3 2v1.7l-.7.3c-.5.3-1.6.3-5 .3h-4.2l-.4-.5a5 5 0 0 1-.6-1.1l-.7-1.5c-.7-1.5-.9-1.5 5.4-1.5 4.8 0 5.7 0 6 .3m7.7 0c.5.4.9 3.7.4 4-.5.5-6.2.4-6.7 0-.4-.4-.5-2.9-.2-3.8l.2-.5h3c2 0 3 .1 3.3.3m-148.5 4.9c-1.5 3.4-2 12.8-1 18.9.5 3.3.5 3.4-1.3 3-3.5-1-8.8-4.4-13.6-8.8C3 266.8 2.8 267 3 269a23.7 23.7 0 0 0 2.2 6 34.3 34.3 0 0 0 5.6 8c1.9 2 2 1.7-2 5.7-8.3 8.3-9.8 11.4-8.5 16.4.2.7.5 1.5.7 1.6l.2.6c0 .3 1.2 1.8 2.2 2.8a157.5 157.5 0 0 0 20 14.6 224.7 224.7 0 0 0 40.2 21 87.3 87.3 0 0 0 9 3.4 124.2 124.2 0 0 0 19.3 6 62.5 62.5 0 0 0 6.5 1.6 138.8 138.8 0 0 0 19.6 3.3l4.4.5a239.7 239.7 0 0 0 42.7-1l3.1-.6a104.4 104.4 0 0 0 12.4-2.3 152.1 152.1 0 0 0 19-5.3 79 79 0 0 0 12-4.4 65.9 65.9 0 0 1 6.7-2.8c.2 0 .4-.1.5-.3l.6-.3a207.5 207.5 0 0 0 36.3-21.4 191.8 191.8 0 0 0 14.6-12.2c5-4.5 6.3-11.2 2.9-14.3l-9.8-9.3c-1-1-1.6-1.7-1.6-2 0-.5.1-.6 1.8-3 3.5-5.2 6.4-15 3.6-12.4-1 1-2.1 1.5-6 3.5a27.8 27.8 0 0 1-4 1.8c-.4.2-2.3 1-2.6 1-.3 0-.5-1.2-.4-3.2l-.1-3.6a40.4 40.4 0 0 0-1.5-7.2c0-.7-1.9-4.9-2.3-5l-.3.5c-1.1 4.1-1.5 4.8-4.5 8.5-3 3.8-5.4 6.5-10.5 11.6-6.4 6.4-7.6 8-7.7 10.2 0 2.2 1 2.8 3.8 2.7 2.7-.2 5-1.3 12-6.2.7-.5 2-1.2 3-1.5l3.8-1.4c8-2.9 13 1 9.6 7.7a77.4 77.4 0 0 1-25.1 20.8l-.7.5-3.6 2.1a323.6 323.6 0 0 1-12.5 7 263.5 263.5 0 0 1-15.4 7A125.2 125.2 0 0 1 187 331a81.5 81.5 0 0 1-10 2.6 121 121 0 0 1-17.9 3.2l-3.2.4c-7.4 1-27.2.9-35.3-.2l-4.5-.6a142 142 0 0 1-17.4-3.3l-5.8-1.4a75.5 75.5 0 0 1-13.4-4.3 26.5 26.5 0 0 1-5-2l-3.6-1.4a99.9 99.9 0 0 0-5.3-2.2L62 320a169.6 169.6 0 0 1-19.3-10.4 432.6 432.6 0 0 1-19-12.9l-3.3-2.6a45 45 0 0 1-6-7c-.6-1.3-.4-4.3.5-5.4 1.6-1.9 9-1.7 13.2.3a91.1 91.1 0 0 0 6.3 2.7c4.4 2 7.1 2.5 8.7 1.6 2.7-1.4 1.7-3.3-5.5-9.7a708.5 708.5 0 0 1-4.1-3.7 35.5 35.5 0 0 1-12.1-18.4c-.2-1-.6-1-1 .2m100.2.8c1 .8.7 4.9-.3 5.1h-14.4l-.2-.5c-.2-1 .4-4 1-4.7.5-.5 13.3-.4 14 .1m4 0l.2 1c0 1.2.7 1.6 2.6 1.6 1.3 0 1.6.2 1.6 1.2 0 1.3-.4 1.4-3.7 1.4h-2.9l-.2-.5c-.2-.7-.2-4.2 0-4.7.4-.5 2.1-.5 2.4 0m29 0l.7.5v2c-.2 2.7-.2 2.7-3.6 2.7-3.1 0-3.3 0-3.3-1.3 0-1 0-1 1.8-1.2 1.7-.2 2.3-.6 2.2-1.7-.2-1.3 1-1.8 2.3-1m15.4-.2c.7.2.8.3 1.3 2.6.3 1.3.4 2 .2 2.3l-.1.5H163a36 36 0 0 1-7.7-.2c-.3-.6-.3-4.3 0-4.9l.4-.5h6.4l7 .2m-40.3 6.7c.2.2.2 1.4.2 3.8v3.6l-.6.3c-.7.3-24 .3-24.3 0-.3-.3-.3-1 .1-3 .2-1 .5-2.5.5-3.2.1-.8.3-1.4.5-1.5.5-.4 23.3-.4 23.6 0m42.2 0c.2.3.3.6 1 4 .5 2.7.5 3.3.2 3.6-.2.3-23 .5-24.2.2l-.5-.2V266v-4c.2-.3 23.2-.3 23.5 0m-10.9 9.2h12.6l1.6 1.2 1.5 1.1-.6.6-.7.7-8.8.1c-4.8 0-9.3.2-10 .4-2 .3-15.3.4-16.3 0a113 113 0 0 0-12-.7c-1.7 0-3.3.4-3.8.7-.4.3-1.1.4-3.3.5-2.7 0-3.1 0-5-.7a11 11 0 0 0-3-.3 12 12 0 0 1-2.8-.3 13 13 0 0 0-2.2-.4l-2-.4-1.1-.5c-.5-.1-1-.4-1.3-.6-.2-.2-.4-.4-.6-.4-.8 0-.4-.7.6-1h57.2m-57.8 2.4c1.6.8 2.5 1 3.3 1.2l2.4.5c.9.2 2.4.4 3.4.4 2.6.1 3.3.5 2.6 1.6l-.5 1.1c-.1.8-2.6 3.4-3.2 3.4-.8 0-3.2 1.7-5.5 4-1.1 1-3 0-4.8-2.8-.9-1.5-.8-1.7 1.2-3.6a8 8 0 0 0 1.8-2c0-.2.2-.5.5-.8.4-.3.4-1.4 0-1.4-.3 0-1 .8-1.3 1.4-.2.4-.5 1-.8 1.2l-2.3 2.2c-4.7 4.6-6.2 5.4-7.6 4.5-.8-.5-.2-1.7 1.6-3.6l1.5-1.7a106.2 106.2 0 0 1 4.6-5c1-1.1 1.8-1.3 3.1-.6m75.5 1.8l.8 1.2.7 1.3 4 5.9c.7 1.1.7 1.2-1 1.8-2.1.7-3.7.3-3.7-1 0-.2-.1-.7-.4-1.1l-.4-1.1c0-.5-1-1-2.2-1-1.2 0-2.7-1.2-3.3-2.7l-.8-1.8c-.7-1-.6-1 1.5-1.1 1.7 0 2-.1 2.7-.6 1-.7 1.4-.6 2.1.2m-49.6.5c.4.5.2 1.2-.8 2.4-.8 1.1-1 2.8-.5 3.3.7.6 1.1 1.6.8 1.8l-.3.5-.4.8-.8 1c-.4.5-2 .5-3 0-.4-.3-1-.5-1.5-.5-2 0-3.9-1.3-5-3.5-.3-.7-.9-1.6-1.3-2-1.2-1.6-.5-3.5 1-3 1.8.3 7.3 0 8-.5.3-.2 1.6-.5 3-.5.3 0 .7 0 .8.2m7.6 0c.4.2.1 1-.3 1.5-1 1-2.4 3.4-1.9 3.4s1.4-.6 1.7-1.3c1-2.2 2.6-3.3 4-3l6.8.1c6.7 0 6.2 0 8.1 1.7 1 1 1 1.2.1 5.7-.2.9-1.3.4-2.7-1-.6-.7-1.6-2.1-1.6-2.3 0-.5-1.3-2-1.8-2.2-1.8-.3-4.4.4-4.4 1.3l-1.6 2-1.7 1.7-2.3-.1c-2.6-.1-3.4-.4-4.6-1.8l-.8-.8-1.8.2c-2.3.1-3.4-.2-3.3-.8.2-.7.8-1.8 1-1.8l.7-1.1c.8-1.7.5-1.7 3.5-1.5l3 .1m34.2 1l1 1.9.4.8-.4.6c-.2.3-.6.6-1 .7a4 4 0 0 0-1.8 1.7c-.8 1.5-4-.3-5.3-2.8-.6-1.4-1.2-2-2-2-1.3-.2-1.7-.6-1.4-1.2.3-.7.7-.7 6-.7h4l.5 1m-12-.2c.3.3.5.7.5 1 0 .3.4.5 1.4 1 1.6.7 2 1 2 1.6 0 .2.4.7.9 1.2 1 1 .7 1.3-1 1.3-1 0-2-.4-2.8-1.5-.8-1-1.6-1.8-2.3-2l-.6-.5-.8-1c-1.1-1-1-1.3 1-1.4l.9-.1.7.4m-9.8 3.5c.5.4.8.8.8.9 0 .3 1.3 2.1 1.9 2.7 1 1 1.3 1.2 2 1.4 1.4.5 1.1.8-1.1 1.3-2 .5-6.7 0-8.3-.8l-1.2-.4c-1.8-.3-1.8-.4 0-2.2l2-2c1.6-1.9 2.6-2.1 4-1m-33.7.3l1 1.5c.3.8.8 1.5 1 1.7.7.9-.7 1.2-1.7.4-.5-.4-2.8-.3-3.9.1a16 16 0 0 0-2.7 1.3 5 5 0 0 1-1.3.6c-.6 0-.6-.4 0-.6.2-.1.4-.3.4-.5l.5-.4.5-.4c0-.1.8-.6 1.7-1 1.2-.5 2-1 2.6-1.8 1-1 1.4-1.2 1.9-1m43.8 1.8c1 1 1.9 1.7 2 1.7.7 0-.2.4-1.3.6l-2 .5c-1.6.7-2.1.3-1.6-1.3l.5-1.8c.3-1.8.2-1.8 2.4.3m14.2-.3c0 1-1.2 2.4-1.9 2.3-.7-.2-1-1.7-.3-2l1-.5c1-.5 1.2-.5 1.2.2m80 0c-.8 0-1.7.3-2 .5l-1 .3-1 .4-1.4.6c-1.1.4-3.5 1.7-5.7 3-5.6 3.7-8 5-9.3 5-2 0-2 .5 0 3.6l2 2.9c4.4 6.6 4.4 6.6 5.4 5.9l2.2-1.5c3.9-2.6 9.1-6.8 12.4-10 7-6.8 6.2-12.3-1.7-10.8m-119.8.7l.7.7.8.4.6.5c0 .2-2 1.2-2.4 1.2l-.8.3-2 1c-2.1.8-3 .2-1.8-1.2.5-.5 1.2-1.9 1.2-2.3 0-1.3 2.4-1.7 3.7-.6m-113-.2c-2 .4-3.6 1.4-3.8 2.6-.5 2.7 5.5 9 14.1 14.7 2.7 1.8 3 1.8 3.8.7a374.4 374.4 0 0 1 6-8.4c2.3-3 2.3-3.2.8-3.2-.7 0-1.8-.3-4.9-1.5a278.8 278.8 0 0 0-4.5-1.8l-2-.9a19 19 0 0 0-5-1.9 12 12 0 0 0-4.5-.3m157.1.8c1.6 3.4 1.6 3.6-1.4 3.6-3.2 0-10-1.6-8.6-2 1.5-.5 2.2-.4 2.7.2 1 1 2.1.7 3.5-1 1-1.2 3.4-1.7 3.8-.8m-11.8 1c0 .3-.5.4-1.2.3-1-.2-.8-.5.2-.5.6 0 1 .1 1 .2m-42.6 2.4l.2.2c0 .3-1 .3-1.5 0-.4 0 .2-.4.7-.3l.6.1m4.1 1c.2.3-.6.4-1.7.3-.6 0-.9-.2-.7-.3.3-.2 2.3-.2 2.4 0m-36.5 4.8c-1.9.1-2.2.3-2 1 .2.8 1 1 3 1a18 18 0 0 1 8.6 1.5l1.5.9c1.4 1 3.9.5 6.4-1.3 2.7-2 7.4-1.6 12.5.9l2.3 1.1h2.6l2.5.2 1.4-.7 2-1.2c3.4-2.3 8.1-2 13.3.6 4.1 2.1 6.2 2 11.5-.5 4.6-2.2 8.7-2.2 12.7 0 4.2 2.2 5.8 2.2 10.8 0 2.8-1.1 4-1.5 6.8-1.6 2-.2 2.3-.2 3-.8l.8-.6-.5-.3c-.5-.4-4.7-.4-6.4 0l-3.5 1.3c-4 2-7 2-10.8.2-3.1-1.6-3.4-1.7-6.4-1.6h-2.8l-2.7 1.4c-5.2 2.6-7.6 2.6-12.3.3a19.6 19.6 0 0 0-3.6-1.5c-1-.3-5.8-.4-7-.2l-2.2 1.1c-4 2.1-4 2.1-6 2.2-2 0-3.5-.3-5.8-1.5a11 11 0 0 0-7-1.8c-3.5 0-3.2 0-6.6 1.8-2.2 1.2-4 1.4-5.1.5-.8-.6-2.8-1.6-3.2-1.6l-1-.3a25.3 25.3 0 0 0-6.8-.5m19.4 8.4l-2.6 1.2c-.8.5-1.6 1-2 1-.3.1-.5.3-.5.7-.2 1.2.8 1.2 2.8.1 2.8-1.6 8-1.8 10.5-.5 5.6 3 8.7 3.4 12.2 1.2l1.6-.9s.3 0 .4-.2c1.4-1.3 8-1.2 10.8 0l3.6 1.7c2.7 1.4 6.6 1 11-1.5 3-1.6 7.5-1.6 10.6.2 2 1.1 2.8 1.4 3.8 1 1.7-.5 1.5-.9-.7-1.6-.7-.2-1.5-.5-1.7-.7a12.1 12.1 0 0 0-12.4-.6l-1.3.7c-2.2 1.2-2 1.1-5.2 1.1-2.4 0-3.1 0-3.7-.3-7.6-3.8-11.6-4-16.7-.9l-2 1.2h-5.6l-2.5-1.2c-4-2-7.6-2.6-10.4-1.7m-84.8 3l1.4 1c1 .2 1.2 1.3.3 1.5-1 0-1.2.9-2.7 7-.5 1.9-.1 1.9 3 0l1.5-.8c2.2-1 3-2.2 2.3-3.3-.5-1 0-1.3.9-.6a50.8 50.8 0 0 0 2.4 2l.6.2c.3 0 .6.2.7.3a92.3 92.3 0 0 1 6.4 4c1 .4 1.1 1.8.2 2.9-.7.7-1 .5-1-.6.1-2.1-2.8-3.7-3.9-2.2l-1 1.4c-.7.9-.5 1.5.8 2.2.7.3 1 .4 1.2.2.3-.3 1.5-.2 1.5 0s-.2.8-.6 1.3l-.8 1.6c-.3.8-.8.6-1-.4-.6-2.4-2.5-2.8-3.6-.9l-1 1.6c-1.1 1.5 2.3 3.6 4.5 2.7.9-.3 1.3-.1 1 .6-.6 1.2-2.9 1.5-4.4.5l-4.7-3c-.7-.4-.6-.8.2-1.1.8-.4 1.3-1 3.4-4.4l1.4-2.2c1.2-1.9 1.3-2.1.8-3-.5-1.2-1.8-1.3-3.3-.3a38 38 0 0 1-3.8 2.1 29.7 29.7 0 0 1-3.2 1.8c-3.5 2.1-4.3 2-3.4-.7l.5-2.4a95 95 0 0 1 1.5-6c.2-.8.4-1.8.3-2.4-.1-1.8 0-1.9 1.6-.7m229.4 1c1.4 1.5 1 2.2-.6 1.3-2.6-1.3-5.7 1.4-3.6 3.2.6.5 1.3.5 1.8.2 1.1-.5 4.4-1 5.3-.7 3 1.1 3.8 4.8 1.5 7-1 1-3.1 1.8-3.8 1.7-1-.3-2.7-2-2.6-2.5 0-.4.1-.5.4-.2l.6.3 1 .4c2.6 1.3 5.8-1.5 4-3.5-.8-.9-1.3-1-4-.3-3.5.8-4.8.5-5.8-1.6-.7-1.3-.7-1.8-.2-3 .4-.7 1.9-2.2 2.3-2.2a9 9 0 0 0 2-.9c.7-.4.8-.4 1.7.8M134 310.3a13.4 13.4 0 0 0-4.5 2 8 8 0 0 1-4.7 1c-2-.2-1.7.9.7 1.7l1.1.5 1.3-.5c.7-.2 1.6-.7 2.1-1 4.4-2.8 9.4-2.8 15.2 0 1 .6 2.1 1 2.9 1l2.2.3c1.1.2 1.2.2 6.3-2.3 2.2-1 4-2 4.3-2.4l.6-.6h-.7c-1.4.3-2.4.6-3.4 1.2a23 23 0 0 1-3 1.5c-.8.5-3.3.8-4.9.6-2.1-.2-2.6-.3-7-2.4-2.1-1-5.9-1.3-8.5-.6m111.8 1c4.5 1.5 6.1 8.1 2.7 11.3-3.8 3.7-8.6 3-10.9-1.6-2.7-5.5 2.5-11.7 8.2-9.7m-5 1.6c-1.3.8-1.7 1.3-2.1 2.3l-.4 1 .4 1.4c1 2.8 4.1 5.8 6.2 5.8 1.2 0 3.1-1.4 3.5-2.7 1.3-4-4.4-9.8-7.6-7.8m-195.2 4.5c.5.3 1.6 1 2.4 1.3 2.6 1.3 3.6 2.2 4 3.6.5 1.7-.6 3.8-2.2 4-1.3.3-1.4.4-1.3 3.5 0 2.6 0 2.8.5 3.3.8.8-.5 1.3-1.6.6-1.3-.9-1.4-1.3-1.6-4.6 0-3.1 0-3.1-.6-3.5l-.6-.4-.4.4-1 1.3-.7 1.3c-.3.7-.3 1 0 1.5 1 1.2 0 1.3-2 .2-2.5-1.3-2.6-1.5-1.6-2 1-.4 1.4-.7 2.5-2.9a72.5 72.5 0 0 1 2.8-5.1l.6-1-.4-.8c-.7-1.4-.3-1.6 1.2-.7m188 .5c-.2 1 0 1.7 1.8 4.6a34 34 0 0 1 1.4 2.7c2.3 3.5 2.2 4.3-.5 3.4a102.1 102.1 0 0 0-7.2-2.3l-1.6-.6c-.8-.3-1.6-.4-1.8 0a17.5 17.5 0 0 0 2.7 5.2c0 .5 1.1 1.3 1.7 1.3 1.7 0 1.9.4.6 1.1l-1.4.9c-1.3.8-2 .8-1.8 0 .5-1.5.5-1.7-2.4-6.7-1.5-2.6-1.8-3-2.8-3.2-1.3-.2-1.3-.2-1-.7.9-1.1 2.9-1.8 3.8-1.3l1.3.4 4.4 1.5c4.4 1.5 5.2 1.5 4.3.2a23 23 0 0 1-1.5-2.5c-1.1-2.3-1.6-2.7-2.7-2.7s-1.4-.4-.6-.8a64 64 0 0 0 1.6-1c1.6-.8 1.8-.8 1.6.5m-187.3 3.8c-1.2 2-1.2 2.3 0 3 2.8 1.6 5-1.7 2.7-4.1-1-1-1.7-.8-2.7 1m11.5 2.3l1.3.6c1.5.5 2 1.2 1 1.6-.5.2-.9.6-1.1 1a108.6 108.6 0 0 0-2.7 5.3c-1.2 2.3-1.4 3-1 4 .7 1.4.3 1.4-2.2 0l-2-1 1-1c.7-.6 1.2-1.4 1.7-2.5l2-4c1.3-2.7 1.3-2.8.7-3.4-.9-1 0-1.4 1.3-.6m5.7 2.7a77.4 77.4 0 0 0 7 3c3.1 1.2 3.4 1.6 2.6 3.3-.4 1-.7 1.1-.8.7l-.3-1c-.2-.8-.4-1-1.3-1.4-1.8-1-2-.8-3.3 2.2a4427.5 4427.5 0 0 1-1.9 4.4c-.6 1-.6 2.4 0 3.1 1 1.1.3 1.3-1.7.4l-2.3-1c-1.4-.6-1.7-1-.8-1.2 1.6-.3 1.8-.6 3-3.6l1.4-3.1c1.2-2.6 1.2-3.2.1-3.6-.3 0-.7-.3-1-.4-.5-.3-1-.2-1.8.4-1.3 1.1-1.8.8-1-.6.7-1.5 1.4-2 2-1.6m145.4 3.6c.5.5.9 1.5.6 1.8-.2.4-.6.3-.9-.2-.3-.6-1.7-.5-2.9.2-1.1.6-1 .9.9 5.5l.4 1.4.3.6.5 1.2c.3.8 1 1.3 2 1.3 1.2 0 .9 1.1-.4 1.5-1.2.3-3.4 1.1-3.6 1.3-1 .9-1.4 0-.6-1 .7-.7.8-1.5.3-2l-.3-.8-.3-.9-.7-1.6c-2-5.5-1.8-5.4-3.6-4.6-1.3.6-1.5.8-1.6 2.1-.2 1.1-.3 1.2-.8.6-.7-1-1-3.2-.3-3.2l1.8-.6a665.1 665.1 0 0 1 7-2.8c1.1-.5 1.6-.5 2.2.2m10 .4c.7.8.5 2.3-.3 2.5-1.6.4-2.5-.4-2.3-1.8.2-1 2-1.5 2.6-.7m-138.1 2.9s.2 1 .2 2.1l.5 6.4c.3 4 .4 4.6.8 5 .3.3.3.5.2.8l-.3.4-1-.4-2-.7c-1.4-.4-1.5-.5-.7-1.4 1.2-1.1 1-3.5-.4-3.8-.3 0-1-.3-1.4-.5-2-1-4.4.8-3.2 2.6.8 1.2.5 1.5-.8.9-.4-.2-1-.5-1.4-.5-1.5-.3-1.7-1-.5-1.6a8 8 0 0 0 2-1.7c1.7-2 7.5-7.9 7.7-7.9l.3.3M195 335l-.1.8c-.2.3-.1.7 1.4 5.3l.6 1.8c.4 1.7 1.2 3 2 3.2 1.3.5 1 .7-2.3 1.7-1.4.5-1.9.2-1.5-.8.3-.7-.1-2.6-1.2-5a56 56 0 0 1-.9-2.8c-.7-2.2-.8-2.3-2.2-2.7-1-.3-.7-.5 1.5-1.3l2.3-.8c.2-.3.4 0 .4.6m-102.6 2.2l1.3.8c.1.1.4.3.7.3.9.2 1 1.2.5 3-.1.6-1 .6-1.2 0-.3-1.6-.5-2-1-2.5-1.2-1-2-1.3-2.8-.9-1.3.8-1.4 2 0 3.1 2.1 1.9 3.2 3 3.5 3.6 1.5 3.5-2.4 7-5.8 5.4-2.6-1.3-2.8-1.7-2.6-3.8 0-1.3.1-1.4.6-1.4.4 0 .5.2.7 1.6.5 2.7 4.1 3.8 5.3 1.6.6-1.2.1-1.8-3-4.4-4-3.3-.8-8.7 3.8-6.4m-14.7 0c-1 .6-2.1 2.3-1.7 2.6.3.3 2.3 1 2.5 1a9 9 0 0 0 0-3.3c-.1-.5-.2-.5-.8-.2m110.5 1c1 1 1.2 1.9.8 3.1-.4 1-.4 1.2.7 1.6 3.5 1.4 2.1 6.7-2 7.5-.5 0-1.5.3-2.1.5-.6.3-1.4.4-1.6.4-.3 0-.7.1-1 .3-.5.3-1.2.2-1.1-.1.7-1.9.7-2.1-.3-5.3l-1.3-4.6c-.1-.7-.8-1.4-1.6-1.6-1.1-.4-.5-1 1.8-1.5l2.2-.7c2.3-.8 4.5-.6 5.5.4m-4.7.6c-1 .5-1 .7-.6 2.4l.6 2c.7.6 3-.2 3.5-1.3.8-1.5-1.8-3.8-3.5-3m-11 3.3l2 3c4 5.8 4 6 4.9 6.3 1.2.5.5 1-1.5 1.4-1 0-1.8.2-2 .3-.6.2-1-.3-.7-1 .6-1.4-.7-3.2-2-3-3 .4-3 .5-3.5 1-1 1-.6 2.7.6 3 .5.2.5.3.4.6-.2.6-.3.7-2.1.8-1.8.2-2 .1-1.5-.7a49.4 49.4 0 0 0 2.5-9.6l.4-2c.4-2 1-2.1 2.5 0m-60.9-.8l1.5.2c1.8 0 2 .3 1.1 1.3-.4.4-.6.9-.7 1.5l-.5 3.4c-.5 3.8-.7 5.4-.4 5.7.7.8 4 .6 5-.3.8-.7 1.4-.5 1.1.4-.4 1.6-3.3 2.4-5.8 1.5l-2.3-.4c-2.2-.2-2.4-.3-1.5-1.3.7-.7.8-.9 1-2.4 0-1 .2-2 .3-2.4.3-.8.7-4.5.7-5.2 0-.2-.3-.7-.6-.9-.7-.6-.6-1.7.1-1.4l1 .3m48.8 1.7c2 1.2 2.2 4.7.4 5.5-.4.2-.2.6 1.2 2.6.9 1.3 1.9 2.4 2.4 2.6.7.3.8.4.3 1-1.3 1.4-3 .5-5.4-3-1.9-2.7-3.4-2.6-3 .3.2 1.8.4 2.3 1.2 2.7 1 .6.3 1-2 1.4-2.5.3-3 .1-2-1l.6-.8-.2-1.6-.5-4.3c-.2-3-.5-4-1.5-4.3-1.6-.6-1-.8 4.7-1.6 1-.2 3.2 0 3.8.5m-37.3-.3l2.2.3c1 .2 1.3.6.6 1-1.4 1-1.8 10.8-.4 11.5 1.2.7-1 1-4 .5-.8-.1-.8-.5 0-1.5.4-.4.5-.9.6-2.5l.4-4.7.2-2.8-.7-.8c-1.2-1.1-1-1.3 1.1-1m26.6.8c.2.3.3 2 0 2.4-.2.3-.2.3-.5-.2-.9-1.3-3.2-1.8-4.4-1-1.1 1-.7 4.4.7 4.4.6 0 1.7-.6 2-1 .6-1.1 1.2-.4 1.4 1.5.2 2.2 0 2.5-1 1.5s-3-1.1-3.3-.3c-.2.8 0 4 .4 4.5.8.8 4.1-.2 5-1.5.6-1 1.3 0 .8 1.1-.5 1.4-.8 1.5-4.6 1.7l-4.2.2c-.8 0-.9-.6-.2-1.4.4-.4.4-.6.2-4.9-.2-4.8-.3-5.3-1-5.6-.5-.2-1-1.1-.8-1.3.3-.4 9.2-.4 9.5 0m-13.5.3c2 1 2.7 3.2 1.5 4.5-.6.6-.6 1.5 0 1.6 1.5.5 1.8 4 .3 5.5-1 1-2.8 1.5-4.6 1.3l-3.3-.2c-2.3-.1-2.6-.4-1.7-1.2l.7-.6v-4.8l.2-4.9-.8-.8c-1.1-1-1.1-1 3.1-1 3.5 0 3.6 0 4.6.6m19.8 0c-.6.8-.6.7-.3 2.7.4 2 .4 2 1.8 1.9 1.7-.1 2.2-.7 2.1-2.2-.2-2.2-2.5-3.7-3.6-2.4m-53 .3c1 .8 1 2 0 2.6-1.7 1-3.4-.9-2-2.3.7-.6 1.3-.7 2-.3m82.7 0c-1.6.1-2 .7-1.4 2.3l.4 1.3c.6 2.8 4.7 1.6 4.5-1.3-.1-2-1.1-2.6-3.5-2.4m-53.3.7c-.5.5-1 2.4-.6 3.5.2 1 2.7 1.3 3.7.3 1.6-1.7-1.3-5.3-3-3.8m38.3.2c-.9 1-1 3.1-.2 3.1.5 0 1.7-.3 2.1-.6.5-.3.3-.6-.8-2.1l-.6-.9-.5.5m-38.4 5.3c-1.1.3-1 4.5 0 5.1 2.4 1.3 4.8-1 3.8-3.5-.5-1.1-2.5-2-3.8-1.6"/>
</svg>
