<svg xmlns="http://www.w3.org/2000/svg" width="118.1" height="183.1" display="block">
  <g fill-rule="evenodd">
    <path fill="#e10001" d="M38.4 87.7c-.3.7 0 29.2.3 29.8l.3 1.1.2 1.2.6 1.6c0 .6.3 1 .3 1.2l.3.6a21.5 21.5 0 0 0 3.3 5.7 27.8 27.8 0 0 0 8.7 5.8l1 .2c.5 0 1.5.3 2.3.5a21.8 21.8 0 0 0 8.7-.4c2.1-.3 7-3 9.2-5.3 1.3-1.3 2.5-3 3.2-4.5 3.1-6.4 2.9-4.2 2.8-23V87.6H59l-20.6.1m22.2 10.7l.2 3.4v3.3l.6.2c.6.2 1 0 1.5-1a22.4 22.4 0 0 1 1.6-2.7c0-.3 1-1.8 1.3-1.8.5 0 2.2 1.2 2.2 1.6 0 .1-1.2 2.6-2.2 4.3-.8 1.4-.8 1.6-.2 2.1.5.5.9.5 1.3 0l.5-.3.5-.3.4-.4c.1 0 .9-.4 1.7-1 1.8-1.2 1.8-1.2 2.5.4.8 1.4.8 1.6.2 1.8l-1.4.9-3 1.6c-.6.4-.8.6-.8 1 0 .9.2 1 3.8 1h3.3v2.9h-3.4l-3.3.1-.2.4c-.3.7 0 1.6.5 1.6l1.1.7 1.2.6.1.2 1.3.8c1.4.7 1.4.8.8 1.9l-.6 1c-.2.6-.7.6-1.5 0l-.9-.5-1.3-.8c-2-1.4-2.2-1.5-2.8-1-.6.5-.6.7.2 2.2l1.5 2.8.7 1.5-.3.4c-.3.4-1.6 1.2-2 1.2a5 5 0 0 1-1.2-1.8l-.3-.5-1.3-2.1c-.5-1-.8-1.3-1.2-1.3-.9 0-.9 0-1 3.3 0 4 .2 3.8-1.6 3.8h-1.5v-3.4l-.1-3.5h-.6c-.7-.2-.9-.1-1.4.9a65.4 65.4 0 0 1-2.6 4.3c-.1.4-.4.4-1.3-.1-1.5-.8-1.7-1.1-1.1-2.1a54 54 0 0 0 1.5-2.5c.9-.9 1.3-2.5.7-3l-.4-.4-.9.5-2 1c-2.7 1.6-2.9 1.6-3.4.9-1-1.3-1-2-.2-2.4a17 17 0 0 0 2.5-1.4l1.3-.8c1-.5 1.2-.8 1-1.6l-.3-.8h-6.6v-2.9H47l3.3-.1.2-.7c.2-.6.1-1-.2-1l-.9-.4-.8-.6c-.9-.3-3.5-2-3.5-2.3 0-.4 1-2.3 1.4-2.5.2-.2.6 0 1.8.8.8.6 1.6 1 1.7 1l.1.2.6.4.8.5c.3.4.7.3 1.3-.2.6-.6.6-.9-.2-2l-.5-.8-.6-1-.7-1.1-.3-.6c-.7-.8.6-2.4 2-2.4.3 0 1.5 2 1.5 2.5 0 .3 1.8 2.9 2.1 3.1l.8-.1.6-.3V98.3l.6-.2c.6-.1 2.2 0 2.5.3"/>
    <path fill="#fab700" d="M51.5 51.2c-1.2 1.7-1.5 3.3-.7 4.5.7 1 .6 1.4-.3 1.4-.9 0-.9.2 0 1 1.4 1.2 3.8.6 4.5-1.2.4-1 .3-1.9-.3-1.6-1 .5-1.7 0-1.4-.8.3-.8.1-1.4-.6-2.1l-.6-1.1c-.2-.6-.3-.6-.6 0m-13.6 0c-1.2 1.4-1.5 4-.6 4.5.8.5.4 1.5-.5 1.3-.7-.1-.7.1-.1.8 1 1.2 3.5 1 4.5-.4.6-1 .3-2.8-.3-2.1-.6.5-1.1 0-1-1 0-.8 0-.9-.7-2a9 9 0 0 1-.7-1.3c0-.2-.5-.1-.6.1m27 .4c-.3.3-.4.6-.4.7l-.4.8c-.4 1-.3 1.7.6 2.9.6.8.2 1.4-.8 1-.8-.2-.8.1.1 1 1.3 1.2 3.7.8 4.4-.9.8-1.6.7-2.1-.3-1.7-1 .3-1.2 0-1.2-1.2.1-1 0-1.1-.6-1.9-.3-.4-.7-.8-.7-1-.2-.4-.3-.4-.7.3m13.8-.4c-1.2 1.7-1.4 3.8-.5 4.8.6.6.3 1-.5 1-.9 0-1 .3-.2 1 1.4 1.3 3.9.7 4.7-1 .5-1.2.3-2.4-.3-1.8-.7.7-1.8.2-1.4-.7.3-.7 0-1.4-.9-2.6-.8-1-.7-1-.9-.7m-41.8 10l.2 3.7a452 452 0 0 1 .9 9.4l.4 2.7c0 .3.1.5.2.5.2-.2.7-3.7.8-5.5l.3-3.2a39 39 0 0 0 .7-6.4c.2-1.3-.2-1.6-1.8-1.6-1.4 0-1.5 0-1.7.4m13.6 0c-.2.4-.2 1 0 2.6l.5 4.6a44.6 44.6 0 0 0 .7 7.1c.2 3 .9 2 1.1-1.6a47.6 47.6 0 0 1 .7-6.6c0-1.2 0-1.9.5-4v-2.5h-1.7c-1.7 0-1.7 0-1.8.5m13.8-.2a692.8 692.8 0 0 1 .5 9.8l.3 3.5c.2 2.7.3 3.1.6 3.1s.4-.5.5-2.3a35 35 0 0 0 .7-6c0-1.2.3-3 .4-4 .4-2.1.4-3.6.2-4-.3-.5-2.8-.5-3.2-.1M78 61c-.3.3-.1 6.2.2 8 .2.8.3 2.4.4 3.7.2 2.6.5 4.5.6 4.6.2.3.4-.1.4-.8l.4-2.5.3-3 .3-3c.4-2.8.6-6.7.4-7-.3-.4-2.7-.4-3 0M57.7 98.7l-.1 3.4v3.3l-.8.2-.7.3-.5-.6-.5-.6-.3-.5c-.7-.8-1.2-1.5-1.2-1.8 0-.4-.8-2.2-1-2.3-.3 0-2 .9-2 1.2 0 .1 0 .6.3 1a114 114 0 0 1 2.2 3.6l.7 1.2-.6.6c-1 1-1 1-2.4 0a11 11 0 0 0-1.3-.7l-1.3-.8c-.7-.5-1.3-.9-1.5-.8-.5 0-1.3 1.9-1 2.2a23.3 23.3 0 0 0 3.4 2.2l.9.5c1 .5 1.1.9.7 1.8l-.2.6h-3.2c-3.7 0-3.5-.1-3.5 1.4 0 1.2 0 1.2 3.6 1.2h3l.3.6c.2.3.3.8.3 1 0 .5 0 .5-2.1 1.7l-1.4 1-1.3.7c-.9.3-.9.8-.1 1.8.5.8.7.7 3.5-1l1.8-.9 1-.4.5.5c.6.6.7 1.1.4 1.5l-.5.9-1.5 2.6c-1 1.7-1 1.8.2 2.4 1 .5 1.1.5 1.6-.4a43.9 43.9 0 0 1 2.5-4.2c.3-.6.5-.6 1.3-.5l.7.2v3.4l.1 3.4h2.6v-3.2c0-3.7 0-3.6 1.2-3.8.8-.1.9-.1 1.5 1l.5.9.2.3.5 1 .9 1.4c.5 1 .9 1 1.9.4.9-.6 1-.4-1.4-4.8-1-1.7-1-1.9-.2-2.6.7-.7.7-.7 3 .7a15.8 15.8 0 0 0 2 1.2c0 .2 1 .7 1.2.7l.5-.5.5-1c.3-.6.5-.5-2.3-2.2-2.5-1.4-3.2-2-3-2.6.2-1.3-.1-1.2 3.3-1.2 4 0 3.7.1 3.7-1.4v-1.2H71c-2.6 0-3.4 0-3.5-.3-.2-.2-.3-1.5-.2-1.6l1.4-.8c4.6-2.6 4.3-2.3 3.5-3.8-.5-1-.6-1-2.2 0l-1.3.8-1.2.8c-1.3.8-1.4.9-2.1.2-.8-.6-.7-.8.4-2.8 2.2-4.2 2.1-4 1-4.6-1-.6-1-.5-1.7.4a32 32 0 0 0-2.4 4.1c-.3.7-.5.8-1.4.5-1-.3-1-.3-1-3.9v-3.2h-1.2c-.9 0-1.3 0-1.4.2m-12.6 51.8a36.5 36.5 0 0 1-1.4 4.5c-.3.9-.8 1-3.9 1-4 0-3.8 0-2.4 1 1 .6 3.4 2.5 4 3 .6.5.2 2.6-.6 4l-.4 1.2-.3 1.3c-.2.5.5.2 1.4-.6 2.5-2.2 3.9-3 4.5-2.5l2.3 1.7c2.4 2 2.8 2 2 .3l-.4-1.6-.4-1.2a4 4 0 0 1-.3-1.3c-.1-1.2-.1-1.2 1.4-2.4a22 22 0 0 0 3.4-2.7c0-.1-1-.2-2.1-.2-4.4 0-4.5 0-5-1.5 0-.5-.2-.9-.3-1l-.1-.4c0-.3-.8-2.8-1-3l-.4.4m27.9 0c-.5 1-.9 2.3-.9 2.6 0 .2 0 .5-.2.6-.1.2-.3.6-.3 1-.2 1.1-.5 1.2-3.4 1.2-3.4 0-3.8 0-3.7.3l2.2 1.8 2.5 2c.5.4.2 2.2-1 5.3-.6 1.8-.4 1.8 2.2-.2l2.2-1.7c.5-.3 1.2 0 2.4.9 2 1.5 3.1 2.4 3.3 2.3.1-.1-.1-1.5-.5-2.8-1.2-3.6-1.4-3.2 1.7-5.6l2.5-2c0-.2-.5-.2-4.3-.3-2.3 0-2.6-.2-3-1.9l-.4-1.3-.3-1c0-.4-.5-1.5-.7-1.6 0 0-.2 0-.3.4"/>
    <path fill="#0140ae" d="M16.6.2l-.4.1c-1 0-.9-1-1 20.2v19.6H8.6c-6.5.2-7.6.3-8 .6-.7 1-.6-.6-.6 42.9.1 38.5.1 42.9.6 45.9l.7 4.2.2 1.1.1 1.1.3.9.4 2.3c.3.7.5 1.5.5 1.8a18 18 0 0 1 .8 2.2 40.1 40.1 0 0 0 3.9 9l.3.6.1.3.6 1 .5.8 1 1.5a60.4 60.4 0 0 0 12.8 14.2l3 2.2 2.5 1.8A38.2 38.2 0 0 0 33 177a39.5 39.5 0 0 0 5 2.2l2 .8a5 5 0 0 1 1.3.5l.5.2.5.1.4.2c.4 0 1.5.4 1.7.6h.9l2.8.6 3 .7a177.3 177.3 0 0 0 16.5-.1c.8 0 2-.4 3.8-.9l1.6-.2 1.1-.2a204.9 204.9 0 0 1 1.3-.5c.4 0 2.5-.7 2.7-.9l.5-.1.5-.1c0-.1.8-.5 1.7-.8a35.6 35.6 0 0 0 7-3.4 31.2 31.2 0 0 0 3.8-2.4 56.7 56.7 0 0 0 11.3-9.8 41 41 0 0 0 7.4-10.3 158.5 158.5 0 0 0 3.8-7.9 46.5 46.5 0 0 0 2-6.7l.4-1.3c.2-.5.3-1.2.3-1.6 0-.3 0-.7.2-.8l.2-1 .3-2.1c.7-3.3.7-4.7.6-47.9 0-40.4 0-42.2-.3-42.8-.4-.8-.5-.8-8.3-1H103V20.6L103 1l-.6-.5-.7-.5h-16a101.6 101.6 0 0 0-18.5.7c-.3 0-.7.1-.9.3-.2.2-.5.3-.7.3l-.6.4-.6.3c-.2 0-1.5 1-2 1.5a239.5 239.5 0 0 1-2.6 3c-.7 1-.7 1-1.1.2A13.9 13.9 0 0 0 52.3 1L51 .7l-.5-.2-1-.2-.9-.1c0-.1-5.6-.2-16-.2-10.5 0-16 0-16.1.2m32.6 3l.6.1.6.2.5.2c.5 0 1.8.6 2.2 1 .1.2.4.3.5.3.7 0 3.7 4.1 3.7 5 0 .4.4.5 2 .5 1.8 0 2 0 2-.6 0-1.7 4.4-6.2 6-6.2l.6-.2C69 3 69.7 3 84.7 3H100v18.5l-.1 18.6H84.2c-17 .2-16.8.2-18.6 1.1l-1.7.8c-1 .5-2.6 2-3.8 3.8a9 9 0 0 1-1 1.4l-1.8-2.7a13.3 13.3 0 0 0-7.2-4.2L34 40.2c-14.4 0-16 0-16-.3-.2-.4-.2-36.6 0-36.8C18 3 49 3 49.1 3.1m-13 11.4a97.6 97.6 0 0 1-5.4 10.8l-1.3 2.3L29 29c0 .2-.1.3-.2.3 0 0-.2.1-.2.3l-.1.3a18 18 0 0 1-1.9 3.6c-.6 1.3-.6 1.3.9 1.3h1.3l.8-1.6 2.2-4.3 1.4-2.8h12.5l.8 1.7a2209.4 2209.4 0 0 1 2.7 5.4l.8 1.6h1.3c.8 0 1.3 0 1.3-.2a214.3 214.3 0 0 1-1.4-2.7l-5.9-11.5c-4-8.2-5.8-11.5-6-11.5-.2 0-1 1.7-3 5.7M77.7 10l-1.1.2-1.2.1-.4.2-.9.3-1.8 1c-1.6.8-3.3 2.5-4 4l-.7 1.1-.1.5-.2.5s-.2 1-.2 2.4.1 2.4.2 2.5c.1 0 .2.2.2.5a76.7 76.7 0 0 1 1.3 2.4c1.2 1.8 3.9 3.8 5.2 3.8.7 0 1 .5 1 1.6l-.1 1h-7.1v.9c0 1.4-.3 1.3 4 1.3h3.7v-1.2l.1-1.3c.3-.2.3-4.2 0-4.4a1 1 0 0 0-.6-.2l-.4-.2-.5-.2-.3-.1-1-.8-1.3-.9-.7-.8L70 23l-.4-.9a10 10 0 0 1 0-3.5l.2-.4c0-.4 1.8-2.9 2-2.9l1.1-.7a7 7 0 0 1 2.7-1.3 338.8 338.8 0 0 1 1.8-.5l.7-.1c0-.2 1.1-.2 1.8 0l1.5.3a8 8 0 0 1 1.7.5l.9.3c.4 0 2.3 1.3 2.3 1.6l.6.8c.8.8 1 1.3 1 1.8l.2.6c.1 0 .2 1 .2 2.2 0 1.1 0 2-.2 2.1l-.1.4c0 .3-1.7 2.2-2.3 2.5a246.2 246.2 0 0 1-3 1.4c-.4 0-.4 0-.4 3.6v3.5H90v-2.1h-3.3l-3.3-.1v-1c-.1-1.2.1-1.6.8-1.6 1.2 0 5-3 5.7-4.4l.7-1.3c1-1.8.4-6.8-1-8.7-2.2-2.6-6.2-5-8.4-5l-1-.1-1.2-.2c-.7 0-1.2.1-1.3.2M42 18.5l2.2 4.7c0 .3-9.2.5-9.4.2-.1-.3 4.5-9.4 4.8-9.4.1 0 1.2 2 2.4 4.5M5.3 45.7a76.4 76.4 0 0 1 4.5 5.7l.2.3c0 .1.3.6 1 1.2l.3.5L15 58a758.8 758.8 0 0 1 15.2 19.3c0 .2-1 .7-1.3.7-.2 0-.3 0-.4.2l-2.5.1c-2.5 0-2.8 0-4.3-.8l-.5-.2a9 9 0 0 1-1.7-.7 16.3 16.3 0 0 0-3.2-1.3 25.1 25.1 0 0 0-12.6-1l-.5.1V43.5c.1-.3.3-.2 2.2 2.2M115.4 59v15.6H114a6 6 0 0 1-1.6-.3c-.3-.2-3.5-.3-4.8-.1a45.6 45.6 0 0 1-3.7.5l-.5.1-.7.2c-.5.2-1.1.5-2 .7a41.2 41.2 0 0 0-5.3 2.3c-.7.4-5.3.5-5.5.2a31.2 31.2 0 0 1 4.2-6.2 20 20 0 0 1 1.7-2.5l1-1.2a75.8 75.8 0 0 1 4.5-6.3c.2-.4.5-.7.6-.7v-.2l.2-.3 1-1.2 1.3-1.8a55.8 55.8 0 0 0 3.4-4.7l2.3-3a38.7 38.7 0 0 1 2.8-3.8c1.7-2.3 2.2-3 2.4-3 .1 0 .2 7 .1 15.7M39 50.4c0 .4.4 1 .8 1.6.5.9.6 1.1.6 2 0 1 .4 1.2.6.3.2-1.1 1.2.2 1.2 1.6 0 3.8-5.8 4.6-6.8 1-.2-.8.4-1.4.8-.7l.5.1h.3c-.8-.6-1-2.7-.3-3.9 1.3-2.6 2-3.2 2.3-2m13.4-.3c.1.8.2 1 .8 1.7.9 1.1 1.3 2.5.9 2.8-.2.1-.2.4 0 .4l.4-.6c.3-.7.5-.7 1 0 1 1.3-.2 4.6-1.7 4.6-.2 0-.5 0-.8.2-1.6.6-3.6-.8-4-2.7-.1-.6.4-.7 1-.2.5.3.7.2.4-.3-.9-1.7-.6-3.4 1-5.6.6-.8.9-.8 1-.3m27.3.2c0 .4.2 1 .5 1.2 1 1.4 1.2 2 1.2 2.7v.6c.2 0 .5-.2.5-.5.3-1.2 1 0 1 1.5 0 3-3.3 4.6-5.5 2.8-1.5-1.2-1.6-3.3 0-2.3.4.3.5 0 0-.8-.6-1.2-.4-2.3.9-4.5.2-.5 1-1.3 1.1-1.3l.3.6M65.9 50c-.2.3.2 1.1 1 2l.8 1.6c.1.7.2.7.4.5.6-.5 1.2.4 1.2 1.6 0 3.8-5.1 5-6.6 1.5-.5-1.1-.2-1.5.8-1 .7.4.7.3.3-.4-.7-1.4-.1-4 1.3-5.5.4-.4 1-.7.8-.3M40.7 60.4c.4.2.3 4 0 5.9-.2.4-.3 1.6-.4 2.5a112.6 112.6 0 0 1-.6 6.1c-.3 2.7-.5 3.2-1.2 3-.4 0-.4 0-1-2.4a13 13 0 0 1-.2-2.3 63.9 63.9 0 0 1-1-10.6c0-2.4 0-2.4 2.3-2.4 1.3 0 2 0 2.1.2m13.6 0c.2.3.1 4-.2 6.3a88.6 88.6 0 0 0-.5 5.4l-.4 2.9c-.3 2.8-.4 3-1.1 3-.5 0-.6-.1-.6-.7l-.3-1.7-1-8.3c-.2-3-.3-6.6 0-6.9.2-.3 3.8-.3 4.1 0m13.5 0c.5.2.4 1.6 0 6.3a203.2 203.2 0 0 0-1 8.6l-.3 1.9c-.1.7-.1.7-.8.8-.8 0-.8 0-1-2.2a76.6 76.6 0 0 0-.6-5.9l-.3-3.4c-.4-4.3-.4-5.7 0-6 .2-.4 3.4-.5 4-.2m13.7 0c.3.2.4 1.8.1 3.4A53.4 53.4 0 0 0 81 70l-.3 3.2c-.4 3.9-.6 4.7-1.4 4.7-.8 0-1-.6-1-2.8l-.1-1.8c-.2-.2-.8-6.5-1-10.7-.1-2.6-.2-2.5 2.2-2.5l2 .1m-1.5 27c.2.2.2 1.8.2 15 0 17.2 0 17.6-1.1 19.7l-.8 1.7a18.9 18.9 0 0 1-7.6 9 16 16 0 0 1-8.1 3.2 21.2 21.2 0 0 1-16.8-4.5c-2-1.5-4-3.8-5.2-6.4-.7-1.6-1-2.4-1-2.7l-.3-1.1-.8-2.4-.5-1.7v-14.8c-.1-14 0-14.9.2-15 .5-.4 41.4-.4 41.8 0m-69 0c1.1.2 1.8.3 2.5.7l1.1.5 1.7.8c2.5 1.2 4.8 2 6 2l.7.2a35.3 35.3 0 0 0 7.3-.2c1-.2 1.5-.3 3-1 .8-.2 1.7-.5 2-.4h.4v10.9l-.5.6a15.8 15.8 0 0 1-5.1 3.3l-.3.1-.5.2-.4.2-.6.1c-.5.5-5.4 0-6.4-.6a21.8 21.8 0 0 0-6.5-2.6l-.6-.3-.9-.1-1-.2c-.1-.2-8.1-.1-8.9 0-1 .4-1 .4-1-6.4 0-7 0-6.4 1.7-7.2 1.6-.7 3.6-.9 6.4-.6m101.8.3c3 1 2.7.4 2.6 7.8v6.2h-1.7a46.5 46.5 0 0 0-11 .5c-1.2.2-1.7.4-2.6.7a26 26 0 0 0-3.5 1.7c-.2.2-.6.3-.7.3l-.5.2c-.4.3-2 .5-3.8.5-2.6-.2-3-.3-5-1.4-1.1-.6-1.9-1.2-3.2-2.6l-1-.8v-5.3c0-5.8.1-5.9 1-5.6a50.5 50.5 0 0 1 4.6 1.5l.6.2a33.6 33.6 0 0 0 7.2-.2L97 91l1.2-.4.7-.2c.2 0 .3 0 .4-.2l.3-.1a6 6 0 0 0 1.3-.5A26 26 0 0 1 105 88a14 14 0 0 1 8-.4m-101 27c.4 0 .8.2.8.3l.5.1 2.5 1a54.5 54.5 0 0 0 5.9 2.3c0 .1 1.4.2 3.5.2 2 0 3.5 0 3.7-.2a204.9 204.9 0 0 0 1.3-.5c.3 0 2.2-.8 3.1-1.3 2.1-1.2 2.4-1.2 2.4 0l.2 1.6.3 1.5c.3 1.3.7 2.6 1 3.2.4.6.5.4-.6 2.3-.6 1-2 2.6-2.7 3.2-.9.7-2.8 2-3 2l-.9.4c-1 .5-1.5.5-3.5.5s-3.2-.1-3.5-.4l-.4-.1-1-.4-.8-.3-2-1a10.7 10.7 0 0 0-2.6-1l-.5-.2c-.2 0-.7 0-1-.2-1.7-.6-5-.8-8.2-.5-2 .1-3 .2-3.2 0l-.1-5.7v-5.6l1.2-.7c2-1 5.3-1.2 7.5-.6m100.8 0c.9.4 2.2 1 2.6 1.5.3.2.4 5 .1 9.5v2l-.6-.1-2.8-.3a20.9 20.9 0 0 0-10.8 1.4l-1 .3-3.3 1.5a3 3 0 0 1-1 .4l-.5.1-.8.2c-.5 0-.9 0-1 .2l-1.9.1a6 6 0 0 1-1.9-.1l-.6-.2-.5-.1-.7-.3c-.2 0-1-.5-1.6-1l-1.3-.8c-.5 0-3.5-3.6-3.5-4.3 0-.2-.1-.3-.2-.3l-.2-.6.2-.7.2-.5.1-.7c.4-.6.7-2.2.8-3.5.2-1.7.2-1.8 1.6-1 .5.2 1.4.6 1.8.6l1.7.4a54.4 54.4 0 0 0 10.3-.2l1.7-.7a20.4 20.4 0 0 0 3-1.3l.6-.1a7 7 0 0 1 2-.9l.4-.1c.7-.7 5.5-.9 7.1-.3M10.8 140.2l2.5.9 1.8.7.4.2c0 .1 0 .2.2.2l1 .3a34.6 34.6 0 0 0 4.4 1.4c.5 0 1 .2 1.2.3.4.4 7.7 0 9.3-.5a31.7 31.7 0 0 0 5-1.7c.9-1 2.1-1 1.4 0a86.4 86.4 0 0 0-3.7 5l-.8 1-.2.2a95.8 95.8 0 0 1-5.8 7.8l-.7 1a9 9 0 0 0-.7.9l-.5.6-.1.2-.1.3-.8 1a82.9 82.9 0 0 1-2.7 3.5c-1 1.5-1.3 1.5-2.6.1a50.1 50.1 0 0 1-8.5-11.5 68.3 68.3 0 0 1-3.5-7.3c-.9-2-1.5-4.1-1.3-4.5.2-.4 3.2-.4 4.8 0m101 0c1 .3 1 .5.4 1.9l-.6 1.8a196.6 196.6 0 0 0-4 8.7l-.3.1-.2.2a17.4 17.4 0 0 1-2.5 3.7c0 .5-3.4 4.7-5.8 7.2-1 1-1 1-1.4.8a93 93 0 0 1-6-8l-.5-.6-.3-.4-.7-.9a144.2 144.2 0 0 1-7.3-9.7l-.6-.7-.2-.3-.5-.7c-1.7-1.9-1.5-2.3.5-1.3a10.7 10.7 0 0 0 3 1c.7.3 2.6.8 3.7 1 1.1.3 6.6.2 8 0 1.3-.3 2.3-.6 2.6-.8l.9-.3a17.1 17.1 0 0 0 2.7-1l.5-.2.6-.1c2.9-1.6 6-2.1 8-1.4m-66 8.6l.2.6.3 1.1.8 2.5c.9 2.6.5 2.4 4.5 2.4s4.2.2 2.5 1.4c-3.4 2.6-4.4 3.5-4.4 3.9 0 .3.4 2 .9 3.4l.4 1.3.4 1.3c.6 1.6 0 1.5-2.8-.7l-2.6-2-.6-.4-.6.3-2.2 1.7c-2.9 2.3-3.6 2.6-3.4 1.7A36.3 36.3 0 0 1 41 162l.3-1.1c.1-.3-1-1.5-1.2-1.5l-.5-.3-1-.7-.5-.5-.2-.2c-.2 0-2.5-1.8-2.5-2 0-.2.6-.3 4-.3h3.5l.3-.6.4-1 .1-.6.4-1.2.3-1c0-.5.9-2.6 1-2.6l.4.4m28 0a36.7 36.7 0 0 1 1.6 5l.3 1c0 .5.5.6 4 .6 4.1.1 4.2.1 2.3 1.5l-1.1.9-1 .7a18 18 0 0 0-1.7 1.4c-.4 0-.6.8-.5 1.5l1.2 4c.8 2.3.4 2.8-1.1 1.6a101.8 101.8 0 0 0-4-3.1l-.5-.3-1 .8c-5 3.9-5.5 4-4.8 1.8l.7-2.3.7-2.3c.4-1 .4-1.1-.6-1.9a80.5 80.5 0 0 1-4.2-3.2c-1.4-1-1.3-1 3.2-1.1 3.8 0 3.4.2 4.3-2.4a67 67 0 0 1 1.1-3.6c0-.8.7-1.2 1-.5"/>
  </g>
</svg>
