<svg xmlns="http://www.w3.org/2000/svg" width="400" height="873.3" display="block">
  <g fill-rule="evenodd">
    <path fill="#231f20" d="M195.6 49.7c0 29.5-.3 50-.8 50.3-.4.2-1 1.6-1.3 3-.4 1.5-.9 2.7-1.2 2.7-.7 0-3.6 6.4-3.6 7.8 0 .5-.4 1-1 1-.4 0-.8-.7-.8-1.4s-.3-1.3-.8-1.3c-.4 0-1-2-1.4-4.4-.3-2.4-1-4.3-1.4-4.3-.4 0-.8-1-.8-2.2 0-1.2-.3-2.2-.6-2.2-.4 0-1.2-2.3-1.8-5l-1.6-7.5c-.3-1.3-.8-2.4-1.2-2.4-.4 0-1-2-1.3-4.3-.3-2.4-1-4.2-1.4-3.9-.4.3-.8-.7-.8-2.2 0-1.5-.3-2.7-.8-2.7-.4 0-1-1.5-1.3-3.5-.9-5.7-6.6-5.3-6.6.5 0 2.2.3 3.8.8 3.5.4-.2 1 1.7 1.3 4.4.4 2.6 1 4.7 1.4 4.7.5 0 .8 1 .8 2.2 0 1.2.4 2.2.8 2.2.5 0 1.1 2 1.4 4.4.4 2.4 1 4.4 1.4 4.4.5 0 .8 1 .8 2.1 0 1.2.4 2.2.8 2.2s1 2 1.4 4.4c.3 2.4 1 4.4 1.4 4.4.4 0 .8 1.1.8 2.5s.3 2.8.8 3c.4.3 1 2.3 1.3 4.5.3 2.1 1 4.1 1.5 4.4 1 .7.7 5.7-.5 7-1 1-3.1-.4-3.1-2.2 0-.5-.4-1-.8-1-.5 0-1-.6-1.3-1.4-.3-.9-1.5-2.7-2.7-4.1a12.8 12.8 0 0 1-2.2-3c0-.3-1-1.7-2.2-3.1-1.2-1.4-2.2-3-2.2-3.7 0-.6-.8-1.3-1.7-1.6-1-.3-1.8-1.3-1.8-2.2 0-.8-1-2.3-2.2-3.2-1.2-.9-2.1-2-2.1-2.6 0-.5-1-2-2.2-3.5a16.4 16.4 0 0 1-2.7-4c-.3-.9-.9-1.6-1.3-1.6-.5 0-.8-.4-.8-1 0-.5-1-1.9-2.2-3-1.2-1-2.2-2.4-2.2-3 0-.4-.7-1.5-1.5-2.4a28.9 28.9 0 0 1-5.5-7.4c0-.4-1-1.7-2.2-2.9-1.2-1.2-2.1-2.6-2.1-3.1 0-.6-1-1.7-2-2.7-1-1-2-2-2-2.5l-.3-1.6c0-.5-.9-1-1.9-1.4-1-.3-1.7-1.3-1.7-2.2 0-1-.6-2-1.3-2.3-.7-.2-1.3-.8-1.3-1.3s-.5-1.4-1.1-2c-2.4-2.7-3.3-4-3.3-4.4 0-.3-.5-1.1-1-1.8-2.7-2.9-3.4-3.9-3.4-4.7 0-.5-.3-1-.7-1-.4 0-1.5-1.3-2.4-3-.9-1.7-2-3-2.3-3-.3 0-1-1.1-1.7-2.4-1.4-2.9-5-3.7-7.1-1.6-.7.7-1.8 1.3-2.3 1.3-.5 0-1 1.2-1 2.7 0 1.4.4 2.6.7 2.6.4 0 1.5 1.4 2.4 3 .9 1.7 1.9 3.1 2.2 3.1.2 0 1.2 1.4 2.1 3 1 1.7 2 3.1 2.4 3.1.4 0 .8.6.8 1.3 0 .6 1 2 2.1 3 1.2.9 2.2 2.3 2.2 3 0 .9.6 1.7 1.2 2 .7.2 2 1.8 2.8 3.4 1 1.7 2 3 2.3 3 .4 0 .7.6.7 1.4 0 .7.4 1.1.8.9.4-.3 1 .5 1.3 1.7.3 1.2 1 2.1 1.4 2.1.5 0 .9.6.9 1.4 0 .7.3 1.3.7 1.3.3 0 1.4 1.2 2.3 2.7.9 1.5 2.1 3.4 2.8 4.2 4.7 5.5 5.5 6.5 5.5 7.4 0 .6.8 1.6 1.8 2.3 1 .6 1.7 1.7 1.7 2.3 0 .6 1 2 2.2 3.3 1.2 1.2 2.2 2.6 2.2 3 0 .6 1 1.8 2.2 2.9 1.2 1 2.2 2.4 2.2 3 0 .7.5 1.5 1.3 1.7.7.3 1.3 1 1.3 1.5 0 .6 1 2.1 2.2 3.4 1.2 1.3 2.1 2.8 2.1 3.3s.4.9.9.9c.4 0 1 .7 1.3 1.6a11 11 0 0 0 2 3.3c.8.9 2.3 2.8 3.2 4.3.9 1.4 2.2 2.9 2.8 3.3.7.4 1.2 1.2 1.2 1.9s.7 1.7 1.6 2.3a7 7 0 0 1 2.1 2.7c1 2.6-6.2 2.1-9.1-.6a11.5 11.5 0 0 0-2.9-2.2c-.5 0-1.7-1-4.3-3.3-.7-.6-1.5-1-1.8-1-.3 0-1.6-1-2.9-2.3a9.7 9.7 0 0 0-3-2.2c-.4 0-1.7-1-2.8-2.1-1-1.2-2.4-2.2-3-2.2-.5 0-1-.4-1-.9s-1-1-2.2-1.4c-1.2-.3-2-.9-1.7-1.3.3-.4.1-.8-.4-.8-.6 0-2-1-3.3-2.2a10 10 0 0 0-3-2.2c-.4 0-1.5-.6-2.3-1.5-8-7.5-15-9.3-15-3.8 0 1.4 4.5 6.3 5.2 5.8.4-.2 1.4.6 2.3 1.7.9 1.2 2.1 2.2 2.7 2.2.6 0 2 1 3.2 2.2 1.2 1.2 2.6 2.2 3 2.2.6 0 2 1 3.1 2.2 1.2 1.2 2.7 2.1 3.2 2.1s1.1.6 1.4 1.4c.3.7 1 1.3 1.5 1.3.6 0 2 1 3.4 2.1 1.3 1.2 2.6 2.2 2.9 2.2.4 0 1.7 1 4.3 3.3.7.6 1.6 1.1 2.1 1.1.6 0 1 .4 1 .9 0 .4 1 1 2.3 1.4 3.4.9.5 2-5.5 2-2.5 0-4.8.5-5.1 1-.7 1-6.6 1.1-6.6 0 0-.4-2-1-4.3-1.4-2.4-.3-4.4-1-4.4-1.4 0-.4-1-.8-2.2-.8-1.2 0-2.2-.3-2.2-.7 0-.5-2-1.1-4.3-1.4-2.4-.4-4.4-1-4.4-1.4 0-.5-1-.8-2.2-.8-1.2 0-2.2-.4-2.2-.8s-2-1-4.3-1.4c-2.4-.3-4.4-1-4.4-1.4 0-.4-1-.8-2.2-.8-1.2 0-2.2-.4-2.2-.8s-2.1-1-4.8-1.4c-2.6-.3-4.5-1-4.3-1.4.3-.4-.5-.8-1.7-.8s-2.4-.3-2.7-.8c-.3-.4-2.2-1-4.4-1.4-2.1-.3-4-1-4-1.3 0-.5-.9-.8-2-.8-1.2 0-2.4-.4-2.7-.8-.3-.5-2.3-1.1-4.4-1.5-2.2-.3-4.1-.9-4.4-1.3-.3-.4-1.4-.8-2.6-.8-1.2 0-2.1-.3-2.1-.8 0-.4-2-1-4.4-1.4-2.4-.3-4.4-1-4.4-1.4 0-2.8-5.9-.6-7 2.7-1.3 4.2-.7 6.2 2.2 6.2 1.2 0 2.2.3 2.2.8s1 .9 2.2.9c1.2 0 2.2.4 2.2.8s2 1 4.3 1.4c2.4.3 4.4 1 4.4 1.4 0 .4 1 .8 2.2.8 1.2 0 2.2.3 2.2.8 0 .4 2 1 4.3 1.3 2.4.4 4.4 1 4.4 1.4 0 .5 1 .8 2.1.8 1.2 0 2.4.4 2.7.9.3.4 2.2 1 4.4 1.4 2.1.3 3.9.9 3.9 1.3s1 .8 2.1.8c1.2 0 2.4.3 2.6.8.3.4 2.3 1 4.4 1.3 2.2.4 4.2 1 4.5 1.4.2.5 1.4.9 2.6.9 1.2 0 2.1.3 2.1.8 0 .4 2 1 4.4 1.3 2.4.4 4.4 1 4.4 1.4 0 .5 1 .8 2.2.8 1.2 0 2.1.4 2.1.8 0 .5 2 1 4.4 1.4 2.4.3 4.4 1 4.4 1.4 0 .4 1 .8 2.2.8 1.2 0 2.1.3 2.1.8 0 .4 1.4 1 3 1.2a43 43 0 0 1 14.5 12.3c0 .3-12 .5-26.7.5-17.6 0-26.5.3-26.1 1 .3.4 0 .8-.4.8-.5 0-1 1.2-1 2.6v2.6h31c28.1 0 31.2.2 32.8 1.5 2 1.8 2.3 2.9.5 2.9-.8 0-1.4.4-1.4.9s-1 .8-2.1.8c-1.2 0-2.2.4-2.2.8 0 .5-2 1.1-4.4 1.4-2.4.4-4.4 1-4.4 1.4 0 .5-1 .8-2.1.8-1.2 0-2.2.4-2.2.8s-2 1-4.4 1.4c-2.4.3-4.4 1-4.4 1.4 0 .4-1 .8-2.1.8-1.2 0-2.2.3-2.2.8 0 .4-2 1-4.4 1.4-2.4.3-4.4 1-4.4 1.4 0 .4-1 .7-2.1.7-1.2 0-2.2.4-2.2.8 0 .5-2 1.1-4.4 1.4-2.4.4-4.4 1-4.4 1.4 0 .5-1 .8-2 .8-1.3 0-2.5.4-2.7.8-.3.5-2.3 1.1-4.5 1.4-2.1.4-4.1 1-4.4 1.4-.2.4-1.4.8-2.6.8-1.1 0-2.1.3-2.1.8 0 .4-2 1-4.4 1.4-2.4.3-4.3 1-4.3 1.4 0 .4-1 .7-2.3.7-1.2 0-2 .4-1.7.8.2.4-1.7 1-4.3 1.4-2.7.3-4.8 1-4.8 1.4 0 .4-1 .8-2.2.8-1.2 0-2.2.4-2.2.8s-2 1-4.4 1.4c-2.4.3-4.3 1-4.3 1.4 0 .4-1 .8-2.2.8-1.2 0-2.2.4-2.2.9 0 .4-1 .8-2 .8-3.5 0-4.4 2-2.7 6 1.3 3.5 7.3 5.7 7.3 2.8 0-.4 2-1 4.4-1.3 2.4-.4 4.4-1 4.4-1.4 0-.5 1-.8 2.1-.8 1.2 0 2.2-.4 2.2-.8 0-.5 2-1 4.4-1.4 2.4-.3 4.4-1 4.4-1.4 0-.4 1-.8 2-.8 1.3 0 2.4-.3 2.7-.8.3-.4 2.2-1 4.4-1.3 2.1-.4 4.1-1 4.4-1.4.3-.5 1.5-.9 2.7-.9 1.1 0 2-.3 2-.8 0-.4 2-1 4.5-1.3 2.4-.4 4.3-1 4.3-1.4 0-.5 1-.8 2.2-.8 1.2 0 2.2-.4 2.2-.8 0-.5 2-1 4.4-1.4 2.4-.3 4.3-1 4.3-1.4 0-.4 1-.8 2.2-.8 1.2 0 2.2-.4 2.2-.8s2-1 4.4-1.4c2.4-.3 4.3-1 4.3-1.4 0-.4 1-.8 2.2-.8 1.2 0 2.2-.3 2.2-.8 0-.4 2-1 4.4-1.3 2.4-.4 4.3-1 4.3-1.4 0-.5 1-.8 2.2-.8 1.2 0 2.2-.4 2.2-.8 0-.5 2-1 4.4-1.4 2.4-.3 4.3-1 4.3-1.4 0-.4 1-.8 2.1-.8 1.2 0 2.3-.4 2.4-.8.2-.4 2.2-1 4.6-1.4l4.2-.6-.6 3c-.4 1.5-1 3-1.4 3.2a8 8 0 0 0-2 1.5c-.7.7-1.8 1.2-2.4 1.2-.6 0-.8.3-.5.6.6.5-1.2 1.8-4.6 3.5-.7.3-1.6 1.1-2 1.7-.4.7-1.2 1.2-1.8 1.2-.6 0-2 1-3 2.2-1 1.2-2.5 2.2-3 2.2-.7 0-1.8.8-2.5 1.7-.6 1-1.7 1.8-2.3 1.8-.6 0-2 1-3.2 2.1-1.2 1.2-2.6 2.2-3 2.2-1.4 0-4.5 3.2-3.9 4 .4.4.2.4-.4 0-.6-.3-1.9.3-2.8 1.2-1 1-2 1.8-2.3 1.8-.5 0-6.2 4.2-8 5.8-1.3 1.3-1.5 3-.3 3 .5 0 1 .5 1 1.3 0 1.6 3.9 1.7 5.6.2 2.7-2.4 3.9-3.3 4.4-3.3.2 0 1.5-1 2.8-2.2 1.3-1.2 2.8-2.2 3.4-2.2.5 0 1.2-.6 1.5-1.3.3-.7 1-1.3 1.7-1.3.6 0 2-1 3-2.2 1.1-1.2 2.5-2.2 3-2.2.7 0 1.8-.7 2.5-1.7s1.7-1.7 2.3-1.7c.6 0 2-1 3.2-2.1 1.1-1.2 2.9-2.4 3.9-2.7a4 4 0 0 0 2.4-2.3c.3-1 1.3-1.7 2.2-1.7 1 0 2-.6 2.2-1.3.3-.7.9-1.3 1.3-1.3 1 0 1 4.1 0 4.7-.4.3-.9 2.7-1.1 5.4-.3 3.9-1 5.3-2.8 7-1.2 1.2-2.3 2.6-2.3 3 0 .5-1 2-2.2 3.1-1.2 1.2-2.1 2.7-2.1 3.3 0 .6-.8 1.6-1.8 2.3-1 .7-1.7 1.8-1.7 2.4 0 .6-1 2-2.2 3-1.2 1-2.2 2.4-2.2 3 0 .6-.5 1.5-1.1 1.8-.6.4-1.9 2-2.8 3.3-.9 1.5-2.4 3.4-3.2 4.3-.9 1-1.8 2.5-2.1 3.3-.3 1-.9 1.6-1.3 1.6-.5 0-.9.4-.9 1 0 .4-1 2-2.1 3.2a10 10 0 0 0-2.2 3c0 .4-.7 1.4-1.6 2.3a28.8 28.8 0 0 0-5.4 7.4c0 .3-1 1.7-2.2 2.9-1.2 1.2-2.2 2.5-2.2 3s-1 1.9-2.2 3c-1.2 1.3-2.1 2.8-2.1 3.4 0 .7-.6 1.4-1.4 1.7-.7.3-1.7 1.5-2.1 2.7-.5 1.2-1.2 2.2-1.7 2.2s-1 .7-1.3 1.6a20 20 0 0 1-3.2 4.6 20 20 0 0 0-3 4.5c-.3.9-1 1.6-1.4 1.6-.4 0-.8.4-.8.9s-1 2-2.2 3.2a10.7 10.7 0 0 0-2.2 3c0 .3-1 1.8-2.3 3.3l-2.4 2.7H0l.2 262.9c.2 192.2.5 263 1.2 263.5.6.4 1.3 1.5 1.6 2.6a4 4 0 0 0 2.3 2.4c.9.3 1.9 1.3 2.1 2.2.3 1 1.2 1.7 2 1.7.9 0 2.7.6 4 1.3 2.2 1.2 13.6 1.4 85.4 1.4 77.5 0 83 0 85.3 1.5 3.4 2.2 7.2 6.2 7.2 7.6 0 .6.6 1.4 1.3 1.7.7.2 1.3 1.3 1.3 2.2 0 1 .3 1.8.7 1.8.6 0 1.8 2.6 3.1 6.3.7 2.2 4.1 2 4.7-.2.2-1 .8-1.7 1.2-1.7.4 0 .8-.8.8-1.8s.3-1.7.8-1.7c.4 0 1-1.2 1.4-2.6.3-1.5.9-2.7 1.3-2.7s1-.7 1.2-1.5a19 19 0 0 1 6.8-7.4c2.2-1.4 8.4-1.5 86.3-1.5 52.6 0 83.8-.4 83.8-.9 0-.4 1.4-1 3-1.4 1.9-.3 3.3-1.2 3.6-2.2.3-.8 1.3-1.8 2.2-2.1 1-.3 1.7-.9 1.7-1.3s.7-1.4 1.5-2.3c1.5-1.4 1.6-15.4 1.8-264.7l.2-263.1h-44.5c-39 0-44.6-.2-44.6-1.3 0-.8-.8-1.8-1.7-2.4-1-.6-1.8-1.6-1.8-2.1 0-.6-1.1-2.3-2.6-3.8-1.4-1.6-2.6-3.4-2.6-4 0-.7-.3-1.3-.7-1.3-.4 0-1.5-1.4-2.4-3-1-1.7-2-3.1-2.3-3.1-.4 0-.7-.4-.7-1 0-.4-1-1.9-2.2-3.2a10 10 0 0 1-2.2-3c0-.4-.6-1.3-1.3-2.2-4.6-5.3-5.7-6.7-5.7-7.6 0-.5-.8-1.5-1.7-2.2-1-.7-1.8-1.8-1.8-2.3 0-.6-1-2.1-2.2-3.3-1.2-1.2-2.1-2.5-2.1-3 0-.7-3-4.7-5.5-7.3-.8-.9-1.5-2-1.5-2.5 0-.4-.7-1.6-1.5-2.4a41.1 41.1 0 0 1-6-7.9c-.9-1.5-2-2.8-2.3-2.8-.3 0-.9-.8-1.2-2-.3-1-1.3-2.5-2.1-3.2a8.5 8.5 0 0 1-2.1-3.2c-.4-1-1.4-2.2-2.3-2.5-1-.3-1.7-1.3-1.7-2.2 0-1-.6-2-1.3-2.3-.8-.2-1.4-1-1.4-1.5s-1-2-2.1-3.3c-1.2-1.3-2.2-2.8-2.2-3.2 0-.5-.5-1-1-1.2-.6-.2-1.2-2.6-1.4-5.3-.3-2.7-.7-5-1-5-.4 0-.8-1.8-.9-4 0-2.2.2-3.8.7-3.8.5 0 1 .3 1 .8s.5.9 1.3.9c.7 0 1.3.4 1.3.8 0 .5.9 1.1 2 1.4 1 .4 2.1 1 2.3 1.2.7.8 6.7 3.6 7.8 3.6.5 0 1 .4 1 .9 0 .4.6.8 1.3.8.7 0 1.3.3 1.3.7 0 .3 1.8 1.4 4 2.4 2 1 3.9 2 3.9 2.3 0 .3 1.1.9 2.6 1.2 1.4.3 2.6 1 2.6 1.4 0 .4.6.8 1.4.8.7 0 2 .6 2.7 1.3a5 5 0 0 0 3 1.3c1 0 1.5.4 1.2.9-.3.4 0 .8.8.8s1.4.4 1.4 1c0 2.5 5.9.7 6.4-2 .7-3.5-5.1-8.6-9.8-8.6-.6 0-1-.4-1-.8 0-.5-.6-1-1.3-1-.7 0-1.3-.3-1.3-.8s-.8-.9-1.7-.9a5 5 0 0 1-3-1.3c-.7-.7-1.7-1.3-2.2-1.3-.5 0-1-.3-1-.8 0-.4-1.1-1-2.6-1.4-1.4-.3-2.6-1-2.6-1.3 0-.5-.8-.9-1.8-.9s-1.7-.3-1.7-.7c0-.5-1-1-2.3-1.4a11 11 0 0 1-4-2.2c-1-1-3-2-4.3-2.2-1.4-.3-2.5-1-2.5-1.4 0-.4-.6-.8-1.3-.8-.7 0-1.3-.4-1.3-.8 0-.5-1.4-1.1-3-1.4-2.8-.5-4-2.5-4-6.5 0-.3 2-.2 4.4.3 2.4.5 4.3 1.2 4.3 1.6 0 .4 1 .7 2.2.7 1.1 0 2.3.4 2.6.8.3.5 2.5 1.2 4.9 1.5 2.3.3 4 .9 3.8 1.3-.3.4.5.8 1.8.8 1.2 0 2.2.3 2.2.8 0 .4 2.1 1 4.8 1.4 2.6.3 4.6 1 4.3 1.4-.3.4.5.7 1.8.7 1.2 0 2.2.4 2.2.8 0 .5 2 1 4.4 1.4 2.4.3 4.3 1 4.3 1.4 0 .4 1 .8 2.2.8 1.2 0 2.2.4 2.2.8s2 1 4.4 1.4c2.4.3 4.3 1 4.3 1.4 0 .4 1 .8 2.2.8 1.2 0 2.2.3 2.2.8 0 .4 2 1 4.4 1.4 2.4.3 4.3 1 4.3 1.3 0 .5 1 .8 2.2.8 1.2 0 2.2.4 2.2.8 0 .5 2 1 4.4 1.4 2.4.3 4.3 1 4.3 1.4 0 .4 1 .8 2.2.8 1.2 0 2.2.4 2.2.8s2 1 4.4 1.4c2.4.3 4.3 1 4.3 1.4 0 .4 1 .8 2.2.8 1.2 0 2.2.3 2.2.8 0 .4 2 1 4.4 1.4 2.4.3 4.3 1 4.3 1.3 0 1.3 6.1 1 6.6-.3.2-.6.5-1.8.6-2.8.1-1 .6-2 1-2.3 1.4-1-1.2-3.4-3.5-3.4-1.1 0-2-.4-2-.8 0-.5-1-1-2.2-1-1.2 0-2.2-.3-2.2-.7 0-.4-2-1-4.4-1.4-2.4-.3-4.4-1-4.4-1.4 0-.4-1-.8-2.1-.8-1.2 0-2.2-.3-2.2-.8 0-.4-2-1-4.4-1.4-2.4-.3-4.4-1-4.4-1.4 0-.4-1-.8-2.1-.8-1.2 0-2.2-.3-2.2-.7 0-.5-2-1.1-4.4-1.4-2.4-.4-4.4-1-4.4-1.4 0-.5-1-.8-2.1-.8-1.2 0-2.2-.4-2.2-.8s-2-1-4.4-1.4c-2.4-.3-4.4-1-4.4-1.4 0-.4-1-.8-2.1-.8-1.2 0-2.2-.3-2.2-.7 0-.5-1.6-1-3.6-1.4-1.9-.3-4.2-.9-5-1.3-3.2-1.6-6-2.6-8.9-3.2-3-.6-4-1-7.6-2.8-1-.6-3.5-1.3-5.4-1.6-2-.3-3.6-1-3.6-1.3 0-.4-1-.8-2.1-.8-1.2 0-2.4-.4-2.7-.8-.2-.5-2.2-1.1-4.4-1.4-2.1-.3-3.9-1-3.9-1.4 0-.4-.8-.8-1.7-.8-1 0-2.5-.3-3.3-.8l-3.2-1.3c-1.5-.5-1.4-.6.6-2.2 2.1-1.7 3.6-1.8 33.7-1.8h31.6v-2c0-5.2 1.3-5-28-5-19.4 0-27.1-.2-27.6-1-.3-.5-.2-.8.2-.5.4.3 2.5-1.2 4.7-3.3 2.1-2.2 4.2-3.9 4.6-3.9.3 0 .6-.5.6-1.2 0-1.3 4.3-3.2 7.2-3.2.9 0 1.6-.3 1.6-.8s1-.9 2.2-.9c1.2 0 2.1-.4 2.1-.8s2-1 4.4-1.4c2.4-.3 4.4-1 4.4-1.4 0-.4 1-.8 2.2-.8 1.2 0 2.1-.3 2.1-.8 0-.4 2-1 4.4-1.4 2.4-.3 4.4-1 4.4-1.3 0-.5 1-.8 2.2-.8 1.2 0 2.1-.4 2.1-.8 0-.5 2-1 4.4-1.4 2.4-.3 4.4-1 4.4-1.4 0-.4 1-.8 2.2-.8 1.2 0 2.1-.4 2.1-.8s2-1 4.4-1.4c2.4-.3 4.4-1 4.4-1.4 0-.4 1-.8 2.1-.8 1.2 0 2.4-.3 2.7-.8.2-.4 2.2-1 4.4-1.4 2.1-.3 4.1-1 4.4-1.4.2-.4 1.4-.7 2.6-.7 1.2 0 2.1-.4 2.1-.8s1.8-1 4-1.4c2-.3 4-1 4.4-1.4.2-.4 1.4-.8 2.6-.8 1.3 0 2-.4 1.7-.9-.3-.5.5-.8 2-.8 3.6 0 4-1.1 2.7-5.8-1.1-3.8-5.6-5.7-7.3-3-.2.3-2.2 1-4.4 1.3-2.1.3-4.1 1-4.4 1.4-.3.4-1.5.8-2.6.8-1.2 0-2.2.4-2.2.8s-2 1-4.3 1.4c-2.4.3-4.4 1-4.4 1.4 0 .4-1 .8-2.2.8-1.2 0-2.2.3-2.2.8 0 .4-2 1-4.3 1.4-2.4.3-4.4 1-4.4 1.4 0 .4-1 .7-2.2.7-1.2 0-2.2.4-2.2.8 0 .5-2 1.1-4.3 1.4-2.4.4-4.4 1-4.4 1.4 0 .5-1 .8-2.2.8-1.2 0-2.2.4-2.2.8s-2 1-4.3 1.4c-2.4.3-4.4 1-4.4 1.4 0 .4-1 .8-2.2.8-1.2 0-2.2.3-2.2.8 0 .4-2 1-4.3 1.4-2.4.3-4.4 1-4.4 1.4 0 .4-1 .7-2.2.7-1.2 0-2.2.4-2.2.8 0 .5-2 1.1-4.3 1.4-2.4.4-4.4 1-4.4 1.4 0 1.1-12 1-12.7 0-.3-.5-1.9-1-3.5-1-1.7 0-3-.1-3-.4 0-.5 9-9.2 14-13.5 8.3-7 23.5-22.8 23.5-24.3 0-1.7-.6-2.7-2.8-4.4-1.3-1-3 .4-16.2 13.5a569.6 569.6 0 0 1-28.3 26.9c-.9.9-1.6 1.2-1.6.7 0-.6-.8-1-1.7-1-2.3 0-2.2-.8.4-3.9 1.2-1.4 2.2-2.9 2.2-3.3 0-.4 1-1.8 2.2-3 1.2-1.2 2.2-2.6 2.2-3.2 0-.6.8-1.7 1.7-2.4 1-.7 1.8-1.7 1.8-2.3 0-.6.8-1.9 1.9-2.9 1-1 1.6-1.8 1.2-1.8-.4 0 .3-1 1.5-2.1 1.3-1.2 2.3-2.6 2.3-3.1s1-1.9 2.2-3c1.2-1.1 2.2-2.5 2.2-3s.4-1 .8-1c.5 0 1.1-.8 1.4-1.9.4-1 1.6-2.8 2.7-4 1.2-1 2.1-2.5 2.1-3.1 0-.6.8-1.7 1.7-2.3 1-.7 1.8-1.7 1.8-2.3 0-.9 1-2.3 5.6-7.6.8-.8 1.4-1.8 1.4-2.2 0-.3 1-1.7 2.2-3 1.2-1.3 2.1-2.7 2.1-3.2s.4-1 .9-1c.4 0 1-.6 1.3-1.5.2-.8 1.4-2.7 2.6-4 1.2-1.4 2.2-3 2.2-3.6 0-.5.8-1.5 1.8-2.2 1-.7 1.7-1.7 1.7-2.3 0-.8 1-2.3 5.7-7.5.7-.9 1.3-1.9 1.3-2.2 0-.4 1-1.8 2.2-3 1.2-1.3 2.2-2.8 2.2-3.3s.3-1 .6-1c1 0 3.7-5 3.7-6.6 0-4.7-9.5-6.3-11-1.8-.3 1-1.3 2.6-2.2 3.3-.9.8-1.6 1.9-1.6 2.4s-1 2-2.2 3.1c-1.2 1.2-2.2 2.5-2.2 3 0 .7-3 4.7-5.4 7.3-.9.9-1.6 2-1.6 2.5s-.6 1.6-1.5 2.4a28.8 28.8 0 0 0-5.4 7.4c0 .4-1 1.7-2.2 3-1.2 1.1-2.2 2.6-2.2 3.2 0 .6-.8 1.6-1.8 2.3-1 .7-1.7 1.7-1.7 2.2 0 1-2.7 4.7-5.5 7.6-.8.9-1.5 1.9-1.5 2.2 0 .6-1.5 2.8-5.4 7.4-.9 1-1.6 2.2-1.6 2.6 0 .5-1 1.8-2.2 3-1.2 1.2-2.1 2.7-2.1 3.2 0 .6-.8 1.7-1.8 2.4s-1.7 1.7-1.7 2.3c0 .6-.9 2-2 2.9-1 1-1.5 1.8-1.1 1.8.4 0-.3 1-1.6 2.1-1.3 1.2-2.3 2.6-2.3 3.1s-1 1.9-2.2 3c-1.2 1.1-2.2 2.5-2.2 3 0 .6-.4 1-.8 1-.5 0-1 .8-1.4 1.9-.3 1-1.5 2.7-2.5 3.8l-2 2-1.1-2.7c-.9-2-1-3-.3-4.1.6-.8 1.3-3.3 1.6-5.6.3-2.2 1-4 1.4-4 .4 0 .7-1 .7-2.2 0-1.2.4-2.2.8-2.2.5 0 1.1-2 1.4-4.4.4-2.4 1-4.3 1.4-4.3.5 0 .8-1 .8-2.2 0-1.2.4-2.2.8-2.2s1-1.9 1.4-4.2c.3-2.2 1-4.3 1.4-4.6.4-.2.8-1.7 1-3.2 0-1.6.4-2.9.8-2.9.3 0 .8-1.6 1.2-3.7.3-2 .9-4 1.3-4.5 1.9-2.6 1.8-7.3-.2-7.8-4.3-1.1-4.9-.7-5.5 3.8-.3 2.4-1 4.4-1.4 4.4-.4 0-.8 1-.8 2.2 0 1.2-.3 2.2-.8 2.2-.4 0-1 2-1.4 4.3-.3 2.4-1 4.4-1.4 4.4-.4 0-.8 1-.8 2.2 0 1.2-.3 2.2-.7 2.2-.5 0-1.1 2-1.4 4.3-.4 2.4-1 4.4-1.4 4.4-.5 0-.8 1.2-.8 2.6 0 1.5-.4 2.6-.8 2.6s-1 1.9-1.4 4.1c-.6 4.4-4 9-4 5.5 0-1.4-3-7.8-3.6-7.8-.3 0-.8-1.2-1.1-2.6-.4-1.5-1-2.9-1.4-3.1-.5-.3-.8-20.8-.8-50.3V0h-8.8v49.7m3.1 87c0 15-.3 21.8-1 22-.9.3-13.4-16.3-13.4-17.8a181 181 0 0 1 13.5-26.2c.6.2.9 8.3.9 22m10.7-9.4c7.7 15.5 7.7 13.3 0 23.9-8.8 12.2-8.5 12.7-8.5-14 0-27.5 0-27.4 8.5-9.9M183 143.9a93 93 0 0 1 11.9 18c-.6.5-16.6-4-22.4-6.4-1-.4-5-1.8-9.2-3-9.7-3.1-12.2-4.1-12.2-5 0-.6.7-.8 15.7-3 5.5-.7 10.2-1.5 10.4-1.7 1-1 4.6-.3 5.8 1m47.1 1l12 1.8c2.4.3 4.2.9 4.2 1.2v1.5c0 .5-.8 1-1.8 1s-2.4.3-3.2.7c-.9.5-6.9 2.5-13.3 4.5l-13.6 4.3c-11 4.6-11.2 3.9-2.5-8.2 5.7-7.9 7-9.2 8.5-8.7 1 .3 5.4 1.1 9.7 1.8m-74.1 7.8l6 2c1 .5 7 2.4 13.6 4.4 6.4 2 12.4 4 13.3 4.5.8.4 2.3.8 3.2.8 5.2 0 1.3 2.6-8.2 5.6-4.4 1.3-8.6 2.8-9.5 3.3-1.1.5-2 .5-3-.3-4-3-20.3-19.6-20.3-20.6 0-1.4-.3-1.4 4.9.3m92 .1c0 1-19.5 20.3-20.5 20.3a95 95 0 0 1-14.6-4.4 8 8 0 0 0-3.2-.8c-1.3 0-3.4-2.5-2.5-3l8-2.6a230.7 230.7 0 0 0 16.3-5.4l6.5-2.2c4.6-1.9 10-3 10-1.9m-65.5 35.5a165.8 165.8 0 0 1-13.2 17.1c-1 0-.3-10.1 1-15 .5-1.6.9-4 .9-5.4 0-6.4 1.6-8.8 6.9-10.5l6.2-2c13-5 13-4.8-1.8 15.8m29.3-17.6c2 .5 3.9 1.3 4.3 1.7.5.4 1.4.7 2.2.7 7.6 0 8.6 1.8 11.8 20.5 2.7 15.8 2.6 15.7-12.2-5-12.3-17.2-14.4-20.7-11.3-19.4l5.2 1.5m-12.9 13.1l-.2 11.6-4.8 2.5c-23.5 12.2-24.5 12.4-18 3.5l12.7-17.7c10.6-14.5 10.7-14.5 10.3.1m17.2 6.4c7 9.6 12.4 17.7 12.2 18-.3.4-6.4-2.3-13.7-6l-13.3-6.8-.2-11.6c-.3-15.2-.5-15.3 15 6.4m-6.7 18.4a9 9 0 0 1 1.7 3.8c.2 1.5.8 2.9 1.3 3.2.4.2.7 1.4.7 2.6 0 1.1.4 2 .8 2s1 2 1.4 4.5c.3 2.4 1 4.3 1.4 4.3.4 0 .8 1 .8 2.2 0 1.2.3 2.2.8 2.2.4 0 1 2 1.4 4.4.3 2.4 1 4.3 1.4 4.3.4 0 .7 1 .7 2.2 0 1.2.4 2.2.8 2.2.5 0 1.1 2 1.4 4.4.4 2.4 1 4.5 1.4 4.8.5.3.8 1.4.8 2.5 0 1 .4 2.3.9 2.8.7.7 1.4 3.2 1.7 5.8 0 .4 1.4.6 3 .6 3 0 3.1 0 3.1-3.4 0-2-.3-3.5-.7-3.5-.5 0-1.1-2-1.4-4.4-.4-2.4-1-4.4-1.4-4.4-.5 0-.8-1-.8-2.2 0-1.2-.4-2.1-.8-2.1s-1-2-1.4-4.4c-.3-2.4-1-4.6-1.4-4.9-.4-.2-.8-1.4-.8-2.5 0-1.2-.3-2.3-.8-2.6-.4-.2-1-2.2-1.3-4.4-.3-2.1-1-4.1-1.4-4.4-.5-.3-.9-1.4-.9-2.6 0-1.1-.3-2.2-.7-2.3-.4-.2-1-1.7-1.3-3.4-.3-1.7-.3-2.6 0-2 .5.5 1.8 1.3 3.1 1.6 1.4.3 2.4.9 2.4 1.2 0 .7 5.5 3.2 6.4 2.9.4-.1 1 .8 1.5 2s1.4 2.5 2.2 2.7c.7.3 1.3 1.2 1.3 2 0 1 1 2.3 2.1 3.2a8 8 0 0 1 2.7 3.6c.2 1.1.9 2 1.3 2 .5 0 .9.4.9 1 0 .8.7 1.8 3.3 4.7.6.6 1 1.6 1 2.1s.4 1 .7 1c.4 0 1.5 1.2 2.4 2.8.9 1.6 2.1 3.2 2.8 3.5.6.4 1.1 1.2 1.1 1.9 0 .6 1 2 2.2 3 1.2 1 2.2 2.4 2.2 3 0 .6.8 1.7 1.7 2.4 1 .7 1.8 1.7 1.8 2.3 0 .6 1 2 2 3.2 1.2 1.1 2.4 2.9 2.8 4 .3 1 1 1.8 1.4 1.8.4 0 .8.5.8 1 0 .6 1 2 2.2 3 1.2 1.1 2.1 2.5 2.1 3s.7 1.6 1.6 2.5c2.5 2.6 5.4 6.6 5.4 7.3 0 .4 1 1.7 2.2 3 1.2 1.1 2.2 2.6 2.2 3.2 0 .6.8 1.7 1.7 2.3 1 .7 1.8 1.8 1.8 2.4 0 .6 1 2 2.2 3 1.2 1 2.2 2.5 2.2 3.1 0 .7.6 1.4 1.3 1.7.7.3 1.3 1 1.3 1.4 0 .6.6 1.7 1.4 2.6 1.4 1.5 0 1.6-45.8 1.6h-47.3V206l1.9.6a9 9 0 0 1 3 1.8M194 259.8v52.9h-47.2c-43 0-47.1-.2-45.9-1.4.8-.8 1.4-2 1.4-2.6 0-.6.8-1.4 1.7-1.7 1-.3 1.8-1.3 1.8-2.1 0-.9 1-2.3 2.2-3.2 1.2-1 2.2-2.1 2.2-2.6 0-.6 1-2.2 2.1-3.5 1.2-1.4 2.5-3.3 2.7-4.1.3-.9.9-1.5 1.3-1.5.5 0 .8-.5.8-1 0-.6 1-2 2.2-3 1.2-1.2 2.2-2.5 2.2-3s.7-1.6 1.5-2.5c2.5-2.6 4.2-5 6-7.9.9-1.5 1.9-2.7 2.2-2.7.4 0 1-.9 1.3-2 .3-1 1.5-2.7 2.6-3.9 1.2-1.1 2.1-2.6 2.1-3.3 0-.6.8-1.4 1.8-1.7 1-.4 1.7-1.1 1.7-1.8s1-2.2 2.1-3.3c1.1-1.1 2.4-3 2.7-4 .3-1 .9-1.9 1.2-1.9.4 0 1.4-1.2 2.3-2.7 1.7-3 3.4-5.2 6-7.9.8-.9 1.4-2 1.4-2.5s1-1.8 2.2-3c1.2-1 2.2-2.4 2.2-3 0-.5.4-1 .8-1 .5 0 1-.6 1.3-1.5.6-1.7 5.8-8 5.8-7 0 .7 5.1-1.8 6-2.9.3-.3 1.8-1 3.4-1.5l2.9-1-.6 3.3c-.4 1.8-1 3.4-1.4 3.5-.4.2-.7 1.3-.7 2.4 0 1.2-.4 2.1-.8 2.1s-1 2-1.4 4.4c-.3 2.4-1 4.4-1.4 4.4-.4 0-.8 1-.8 2 0 1.3-.4 2.5-.8 2.7-.5.3-1.1 2.3-1.4 4.5-.3 2.1-1 4.1-1.4 4.4-.4.2-.8 1.4-.8 2.6 0 1.1-.3 2.1-.7 2.1-.5 0-1.1 2-1.4 4.4-.4 2.4-1 4.3-1.4 4.3-.5 0-.8 1.4-.8 3 0 3 .1 3.1 3 3.1 3 0 4-1 4-4.4 0-1 .4-1.7.8-1.7.5 0 1-1 1-2.1 0-1.2.3-2.2.7-2.2.4 0 1-2 1.4-4.4.3-2.4 1-4.4 1.4-4.4.4 0 .8-1 .8-2.1 0-1.2.3-2.2.8-2.2.4 0 1-2 1.4-4.4.3-2.4 1-4.4 1.4-4.4.4 0 .7-1 .7-2.1 0-1.2.4-2.4.9-2.6.4-.3 1-2.3 1.4-4.5.3-2.1 1-4.1 1.3-4.4.5-.2.8-1.6.8-3s.4-2.6.8-2.6 1-1.3 1.2-3c.3-1.7 1-3.6 1.7-4.3 3.3-3.8 3.3-3.2 3.3 51.4m1.6 62c.8.8 1 28.2.8 102.3l-.2 101.2-5.3.6c-29.2 3.5-49.3 22.6-52.7 50l-.5 4.4H8.3l-.2-128.8c-.1-70.8 0-129.3.2-129.9.6-1.7 185.8-1.6 187.2.1m197 129v129.6h-130l-1.4-7a60 60 0 0 0-24-38.5 69 69 0 0 0-16.7-9c-.3 0-1.8-1-3.3-2.1-3.4-2.6-8.2-4-10.5-3.2-1 .4-2 .5-2.4.3-.4-.2-.7-45.4-.7-100.3v-100l94.5.2 94.6.3v129.7m-147.2-100c-4.6 1-11.6 6.7-14.3 12-4 8-1.8 12 7.1 12.8l5 .5 5.5 8.7c8.7 13.8 9 14.3 8 19.2-3.4 18.1 10.2 39.8 25 39.8 6.6 0 11.1 7.4 6.9 11.4-10.2 9.5-2 25.2 13.3 25.3 6.5 0 7.6.6 10.6 5.6l2.8 4.6-1.3 5c-3.4 13-.5 20.2 9.5 23.3 5 1.5 6.6 3.6 6.6 8.7 0 5 2 8.3 6.6 11.4 4.4 3 4.6 3.3 7 8.9 2.1 4.6 6 4.4 8.8-.5l1.8-3.3 6.6 5.2 6.6 5.2 2.3-2.5 2.4-2.5-20.7-33c-20-31.9-20.6-33.2-19.7-35.8a16 16 0 0 0-12.2-20.8c-6.4-1.1-9.8-7.5-6.6-12.3 2-2.7 2.3-4.3 2.3-9.2 0-8.7-3.4-11.5-15.7-12.8-6.2-.7-5.8-.3-13-12.4-7.3-12.2-8.1-15.5-2.8-11.8 6.4 4.5 14-.5 14-9 0-16.3-15.6-26.4-28-18.2-2.4 1.7-5 3-5.5 3-2 0-7.7-11-6.7-13 4.5-8.4-1.8-15.3-12.2-13.4m9.5 4.5c1.2 1.6.7 6.2-1 9-.8 1.3-.8 2 0 3.2 8 11.8 8.7 13.7 6.6 19.8-2.3 6.4-2.7 6.2-9.7-5l-6.5-10.3-3.8.6C230 374 229.7 364 240 357c6.3-4.4 12.3-5.1 14.9-1.8m-153 1.7c-.2.3-.7 3.1-1 6.1l-.6 5.5H54.2v3.2c0 2.3-3.9 12-12.8 32.6-12 27.4-12.7 29.5-12.3 33.4 3.1 26.2 38 32 50 8.2 3.9-8 3-12.4-6-32.4a424 424 0 0 1-8.7-19.7c-3-6.5-6.7-16-6.7-16.7 0-.4 9.6-.8 21.5-.8h21.5l-.6 9.4-1.9 38.2c-2.7 61.5-3 67.8-3.5 68.6-.2.5-4.6.8-9.6.8H76V504H94.3v10.3c0 11.6-.3 12.4-5.4 12.4-3.2 0-3.3.1-3.3 3.3.1 14.3 18.4 22.8 28.6 13.3 6.5-6.1 8.8-16.6 3.7-16.6-5.8 0-6.1-.7-6.1-12.2v-10.5H130.1v-10.4l-9.3-.2-9.4-.3-.6-6.5c-.4-3.6-1-17.2-1.6-30.2a31991.4 31991.4 0 0 0-2.8-72l-.3-7.4 21.6-.3c15.1-.1 21.7 0 21.7.7 0 .6-1 3.1-2.2 5.7l-4.5 10.3-4.3 10c-1.2 2.5-3.2 7-4.4 10-2.3 5.5-2.7 6.6-6.9 15.9-3.8 8.4-.1 20.2 8.1 26.3 22 16.1 51-5.3 39.7-29.3-1.5-3.1-4.3-9.6-6.3-14.4L163 399a121.8 121.8 0 0 1-10.3-27.2v-3.3h-46.3l-.8-2.3c-.5-1.2-.9-4-.9-6.1 0-3.6-1.6-5.4-2.9-3.2m-1.6 15.3l.3 2.4h-22c-23 0-23.8-.2-22.4-4 .5-1.1 3.5-1.3 22.2-1l21.6.2.3 2.4m50-1.6c3 3.7 1.2 4-22.3 4-19.2 0-22.4-.2-22.9-1.3-1.3-3.6.7-4 22.9-4 17.6 0 21.3.2 22.2 1.3m137.5 5.6c10.7 9.8 7.6 30.8-3.3 21.8-3.7-3-3.9-3-7 3-8 15.1.6 26 21.7 27.5 11.9.7 15.8 4.7 13.3 13.3-1.5 5.3-3.1 6-6.8 3.3-4-2.9-5.5-3.3-18.3-4.1-14.7-1-19-3.5-24-14.2-12.3-26.5 7-66.5 24.4-50.6M58.2 388.4L62 397A593 593 0 0 1 77 432c0 1-4.2 1.2-21.9 1.2-12.6 0-21.8-.3-21.8-.8 0-.8 1.8-5.1 5.2-12.7l4.8-11c12.1-28.2 11.7-27.7 15-20.3M154 387l3.2 7.2a485.3 485.3 0 0 1 16 38.4c-.4.8-42.5 1-43.3.2-.5-.5.6-3.3 4.4-11.7l6.4-14.4c11-25.3 11-25.5 13.3-19.7m132.5 0c0 .5.6.9 1.3.9.7 0 1.3-.4 1.3-.9s-.6-.9-1.3-.9c-.7 0-1.3.4-1.3.9m-181.6 38l2.9 64.2v4l-4.6.2-4.8.3.6-20.8c.4-11.5 1-25.6 1.5-31.3.4-5.8.8-15.2.8-21 0-5.7.3-12 .6-14l.6-3.4.8 2.6c.4 1.4 1.1 10 1.6 19.2m179.1-10c4.6 7.2 5 8.7 2.5 8.7-4.3 0-8.7-6.8-8.8-13.4 0-3.8 1.7-2.5 6.3 4.7M77.8 437.8c.4 4-2.5 9.8-6.8 13.9-13.2 12.3-35 5.6-38.2-11.7l-.6-3.3H55c17.6 0 22.8.2 22.8 1m96.9 1c0 5.6-5.6 13-12.7 16.8-13.2 7-32.7-2.6-32.7-16.1v-2.7h45.4v2m127.2 7.7c2.8.9 9 9.3 9 12.1 0 3.4-12.9-.7-15.2-4.8l-2.9-4.7c-3-4.7-.2-5.5 9.1-2.6m-6 12.1c3.2 2.5 4.1 2.8 14.2 3.6 12.1 1 15.4 2.2 17.6 6.1 3.4 5.9 2.7 13-1 10.6-1.2-.7-6-1-15.1-1-18.4 0-24.8-3.4-24.6-12.7.2-7.8 4-10.6 9-6.6m29.6 23.4c2.1 1.8 15.3 22.9 14.7 23.5-.5.5-14-7-17-9.3-1.9-1.6-9.8-13.7-9.8-15 0-1.5 10.3-.8 12.1.8m-1.4 17.6c3.3 2.3 7.5 5 9.4 6 6 3.2 8.8 6.2 8.8 9.7 0 4.5 1.4 9.1 3.6 11.5 6 6.9 6.9 20.9 1.3 20.9-.8 0-1.4-.6-1.4-1.3 0-2.4-3.9-7.3-7.3-9.2a11 11 0 0 1-5.8-10.2c0-3.4-2.7-8.8-4.6-9.4-11.9-3.4-15.5-9.3-11.9-19.4 1.4-3.6 1-3.7 8 1.4m-197.7-.8v2.6h-23c-24.1 0-25.8-.3-24.5-3.8.5-1.3 3.2-1.4 24-1.4h23.5v2.6m-18.5 6.6c.3 2-1.6 3.5-6.6 5.6-3.5 1.4-4 .9-3.8-3.2.3-4.5.6-4.8 5.7-4.5 3.8.3 4.5.6 4.7 2.1m1 9c0 2-1.9 3.6-6.3 5.6-5 2.2-6 2-5.7-1.3.5-5.4 12-9.4 12-4.2m247.2 15.5c13.6 21.5 13.5 21 3 13.6-5-3.5-5.4-4-6.4-8.6-.7-3-2.3-6.5-4-8.9-2.9-3.6-4.4-10.7-2.4-10.7.4 0 4.8 6.5 9.8 14.6m-247.1-6.3v3h-5.7c-6.6 0-6.9-1-1-4 5.5-2.8 6.7-2.7 6.7 1m105.7 2.1c2.2 1.5 4.2 2.7 4.6 2.7 7.3.1 24.9 14.6 31.5 25.9 3.4 5.7 4.7 9 7.5 19 2.3 8.1.3 26.6-4 36-4.3 9.6-18 25.6-22 25.6-.6 0-1 .4-1 .8 0 2-14.2 7-25.2 9-10.8 1.8-32.2-3.5-38.4-9.5-.7-.6-1.5-1.1-2-1.1-1 0-11.5-10.3-14.1-14a63.6 63.6 0 0 1-10.3-24c-5.7-20 7.8-50.8 26.3-60 8.3-4.3 21.7-7.4 26.2-6.2l2 .5-2.2.8c-1.1.5-4.2 1.4-6.9 2a53.3 53.3 0 0 0-17.4 8.3c-3.7 0-19.3 21-19.3 26 0 1-.5 2-1 2.7-1.7 1.6-1.5 24.7.1 29.8 15.2 46.8 81.2 50.9 99.1 6.1.9-2.1 2-4.9 2.6-6 1.3-2.8 1.3-28 0-30.8-7-15-12-22-20.4-27.9a57.5 57.5 0 0 0-25.2-9.5c-5 0-6.7-4.1-3-7 3.3-2.6 7.9-2.3 12.5.8m-97.6 6.2c-1.5 14.7-22 16.7-27.8 2.8-2.3-5.4-2-5.5 13.8-5.2l14.2.2-.2 2.2m80.8 3.6c.1.6-1.2 3.6-3 6.4a453 453 0 0 0-10.8 18.8c-.2.2-1.8 3-3.4 6.1-1.7 3.1-3.7 6.7-4.5 7.9-1.2 1.8-3.4 5.7-8.2 14.4-.5 1-1.1 2-1.4 2.2a85.1 85.1 0 0 1-4.1 7.4 534 534 0 0 0-3.7 6.3c-2.6 4.6-3 4.6-5.1 0-13.1-28 6.1-64.8 36.4-69.7 2.6-.4 5-1 5.2-1.2.8-.8 2.3 0 2.6 1.4m18.5 1.4c27.6 9.9 42.1 43.4 29.6 68.1-2.3 4.6-2.6 4.6-4.8.5a775.2 775.2 0 0 0-15.8-28.2 62.4 62.4 0 0 0-2.8-4.8 937.5 937.5 0 0 0-13.3-23.4c-6-10.4-7.6-13.6-7.1-14 .7-.8 10.3.4 14.2 1.8m-12 8.3a682.7 682.7 0 0 0 12 21.2c1 1.3 7 12.4 7 13 0 1-1.7.4-6.7-2.4a33.4 33.4 0 0 0-34.2-.3c-5.7 3-6.1 2.7-3.4-2.2a2166.2 2166.2 0 0 0 8.5-15.1c1.3-1.6 9.6-16.4 9.6-17 0-1 2-2.7 3.1-2.7.6 0 2.5 2.5 4.1 5.5m1.4 30.9c8 4.7 8 16.7.1 21.2-13.6 7.6-25.9-11.4-13.4-20.7 3-2.3 9.9-2.6 13.3-.5m-18.8 1.7c.3.3 0 2-.8 3.6-1.6 4-1.6 7.5.1 10.8 2.3 4.5-2.2 4.2-7.1-.4l-2.9-2.5c-2.5-2.1-2.3-3 1.7-6.5 4.8-4.3 7.9-6 9-5M216 579c4.6 1.7 11 10.5 7.8 10.5-.4 0-1.5.7-2.4 1.6-2.7 2.4-6.4 4.5-7.8 4.5-1.7 0-1.7 0 0-4.3 1.4-3.5 1.4-4.8-.3-10.3-1-3-.6-3.3 2.7-2m-17.7 7.9c0 1.3.4 1.8 1.5 1.6.8-.2 1.5-.9 1.5-1.6 0-.7-.7-1.4-1.5-1.6-1-.2-1.5.3-1.5 1.6m-60.8 2l1.3 6.7c5 27 24.8 46.8 51.2 51l6 1 .3 100.7c.1 55.3 0 100.6-.2 100.6-.3 0-2.5-1.5-5-3.3l-4.6-3.2-84.9-.5c-95-.5-86.6.1-91.5-6.4-1.7-2.3-3.5-242.3-1.8-246.6.3-.9 14-1.1 64.6-1.1 50.7 0 64.3.2 64.6 1m36.5 1.4c.6 1 2.3 2.4 3.7 3.3 1.5 1 2.9 1.9 3.1 2.2 3.4 3.8 23.4 7 28.6 4.4l6.5-3c2.7-1.4 6.5-3.8 8.4-5.5 4.4-3.7 4.6-3.7 6.8.3l5 8.8c5 8.8 8.4 8-35.6 8-41.4 0-40.8.1-38.2-4.5l4.5-8.1c4.5-8.2 5.1-8.7 7.2-5.9m218 120.5l-.3 122-2 2.9c-4.1 5.8 1.2 5.4-89 5.5-87.5 0-86.4-.1-92 4.4a18.3 18.3 0 0 1-3.8 2.5c-.3 0-.5-44.9-.5-99.8v-99.9l6.3-1.2a63.3 63.3 0 0 0 51.8-55.2l.5-3.3h129.2l-.3 122.1m-150-98.3c0 1.7-6 8.4-11.2 12.4A49.7 49.7 0 0 1 163 619c-8-8.1-10.8-7.5 37-7.5 30.9 0 41.8.2 41.8 1m-193.4 9.1c-2.4 5.2-3.8 6.4-7.4 6.4-4.6 0-4.9.8-1.2 4.6 3.2 3.2 3.2 3.3 2.3 7.4-1.2 5.2-1 5.4 3.3 3 4.5-2.6 3.7-3.8 12.5 18.7l8.4 21 6.5 16.5a2217.4 2217.4 0 0 0 8.4 21.2c.8 2.3 4.3 4.3 4.3 2.5a754.4 754.4 0 0 0-13.1-33.3 303 303 0 0 0-3.5-8.7c-1.9-4.3-3.7-10.1-3.3-10.6.6-.5 2.8 3.5 11.2 20 4 7.8 6 11.1 7.2 11.1 2.1 0 2-.4-2.9-9.6a193 193 0 0 1-12.1-24.8c.2-.3 3 3.3 6 7.9l6.6 9.6c.8 1.1 1 1.2 2 .1.7-1-.4-3.2-5.6-11.1-8.7-13.3-8.3-14.4 1.1-3 2.1 2.5 3 3.1 3.8 2.4 1.2-1.2.6-2.5-3-6.6-1.5-1.6-3.4-4-4.3-5.4-2.7-4.2-.9-2.7 14.4 12 2.8 2.6 3.9 2.9 4.5 1.2.2-.6-3.4-4.7-8-9.1-11.2-10.7-9.1-10.2 6.5 1.5 12.8 9.6 13.9 10.2 14.7 8.9.7-1.2-.4-2.2-10.8-10-21.4-16-18.8-15 15.2 5 15.5 9.2 18.8 10.7 18.8 8.3 0-.6-12.5-8.7-13.5-8.7-.2 0-3.5-2-7.4-4.4a84.5 84.5 0 0 0-7.5-4.4c-.2 0-3.6-2-7.4-4.3a79.2 79.2 0 0 0-7.4-4.4c-.3 0-2.6-1.3-5.1-3l-9.8-5.7c-14.4-8-15.5-9.2-12.2-12.1 2.7-2.3 2.2-3.7-1.3-3.7-4 0-5.3-.8-7.4-5.4l-2-4.3-1.5 3.3m3.5 4.3c1 2.5 1.8 3 3.8 3 3.2 0 4 2 1.7 4-1.4 1.4-1.6 2.3-1.2 5.5.6 3.6-2.5 5-3.7 1.8-.4-1-4.3-1-5 0-1.5 2.5-4.1 1-3.6-2 .5-2.3.2-3.2-1.6-4.9-2.5-2.3-1.7-4.4 1.7-4.4 1.4 0 2.6-1 3.8-3 1-1.7 2-3 2.3-3 .3 0 1.1 1.3 1.8 3m242.2 15.6a12.5 12.5 0 0 0-3.6 3.5c-.3.7-1.6 1.4-3 1.5-1.9.3-2.6 1-3.3 3.5-.5 1.7-1.5 3.7-2.3 4.5-1.8 1.8-1.6 9.3.4 12.3 1.6 2.4 1.1 3.2-2 3.2-1.2 0-6.2 1-11 2.2-4.8 1.2-11 2.4-13.8 2.7l-5 .6-2 4.4a26.2 26.2 0 0 1-4.8 7l-2.7 2.6V733l-4.8 5.5c-2.7 3-4.8 6.2-4.8 7.2 0 .9-1.7 3.2-3.7 5.1-8 7.7-10 13.4-7.6 22.6l1 3.8 20.6 6.8a11643.5 11643.5 0 0 1 44.7 14.3l16.6 5.3c4.8 1.6 25.9 8.1 29.3 9.1 1.5.4 4-1.8 14.4-13.2 11.9-13.2 17.8-19.6 27.4-29.9l4.2-4.6-2.7-2.5c-3.1-2.8-3.4-5.3-1.5-10.8 1.6-4.3 2.4-3.6-9.8-8.4l-10.2-4-.3-29.4-.2-29.4-2.6-1.3a12 12 0 0 1-4-4c-1.2-2-1.9-2.3-3-1.7-2.6 1.4-4.9 1-13-2.2-5-2-9.4-3-11.9-3-3.6 0-5-1-3.1-2.2 1.5-1 .9-11-.8-12-.8-.7-1.8-2.6-2.1-4.4-.5-2.8-1-3.3-2.7-3.3-1.3 0-3.3-1.2-5-3-3.8-4.2-7.2-4.7-11.3-1.9m8.3 3.7a12 12 0 0 1 2.9 4.4c.4 1.7.9 2 2.7 1.5 2.2-.6 2.2-.5 1.6 3.4-.5 3.2-.3 4.1.8 4.8 1.3.7 1 1.1-1.4 3.1l-3 2.3h2.4c3.2 0 3.6 1.2 1.3 3.2-6.4 5.7-16 5.7-22.2 0-2.4-2.1-1.9-3.2 1.8-3.2 3 0 3.2.3-2.5-4-2.3-1.7-2.1-3 .6-3 1.4 0 1.6-.3 1-2-1-3.5-.8-4.5 1.2-4.4 1.3 0 2.2-.6 2.6-1.8 1.7-5.5 6.9-7.6 10.2-4.3m25.9 28.5c3.8 1.8 11 4.1 12.5 4.1 1.4 0 2.9 60.1 1.5 61.5-.5.4-4.7.1-10.7-.8-5.7-1-14.8-1.6-21.4-1.6h-11.6l.1-22c0-12 .4-25.7.7-30.4l.5-8.6 3.9-1.3c10.5-3.5 18.1-3.8 24.5-1m-35.8 1c5.4 2 5.2 1.1 5.2 18.8 0 9-.2 22.5-.5 30l-.6 13.8h-2.3a22 22 0 0 1-5-.8 96 96 0 0 0-26.2 2.3c-11.9 2-10.8 5-10.8-29.2 0-31.9 0-31.7 4.6-31.7 2.8 0 14-2.3 16.8-3.5 2.7-1.1 15.4-1 18.8.3m57.2 37.8v29.6l-2.1.3-2.1.3.6-29.4c.5-29.4.7-31.4 2.6-30.8.7.3 1 8.3 1 30M117 687.7a37.7 37.7 0 0 0-7.5 68.4l5.2 3.3-14.7.2c-17.5.3-16.3.6-17.8-4.7-.7-2.3-1.6-4.8-2-5.6l-2.4-6.5c-6.8-20.6-8.8-24-14.1-24-7 0-7.7 1.2-17.9 31-3 9-3.6 10-5.6 10-1.5 0-3 19-1.5 20.3l53.9.7 53.7.4.2 16.8.3 16.8h20v-55H155c-7.2 0-11.8-.3-11.8-.8s.5-1 1-1c3.4 0 14-9.8 17.1-16 16-31.2-12-65.5-44.3-54.3m133.5 28l-.3 28-2.8.2-2.8.3v-53.5l2.2-2.2c3.7-3.7 3.9-2.3 3.7 27.3m-120.4-25c1 1 2.3 3.1 3 4.8 1.6 3.8 5 4.2 10.8 1.1 5-2.6 6.2-1.5 4.2 4.4a33 33 0 0 0-1.2 11.7l.3 7.3h5.6l5.7.2v9.6c-.3 16.5-10.1 26.4-27.8 27.9l-6.7.5v-2.5c0-6 1.2-9 5-13.2 9.2-10 5.8-17.6-10.3-22.8-3.2-1-6.9-6.8-6.9-10.7 0-2 .2-2 3.5-.3 2.6 1.3 2.7 1.2 6.4-2.2 2.1-2 4.5-3.5 5.3-3.5 1.7 0 2-4.9.4-8.3-1-2-1.5-2.2-6.3-2.2-8.4 0-4.1-2.5 5.8-3.4.8 0 2.3.7 3.2 1.6m10.1-.5c3.6 1.5 3.8 2.5.9 4.4-2.9 1.9-3.5 1.8-5.2-.9-2.8-4.1-.9-5.6 4.3-3.5m-21 4.8c6.3.6 7.1 2.2 3.4 6.3-3.8 4-5 4.5-8.5 2.8-5.4-2.5-7.4 1-4.8 8.4 1.3 3.6.7 4-3.3 2.2-8-3.6-9.2-7.4-4.4-13.6 3.7-5 8.3-8 10.6-7.3 1 .4 4.1.9 7 1.2m37.8 8.7c7 10.2 6.4 13.5-2 13l-5.2-.2-.3-4a25 25 0 0 1 .8-7.4l1.3-4.5c.6-2.2 2.6-1 5.4 3.1m-51.5 14.5l4.6 2.3-.5 5c-.6 4.7-.4 5.2 2.4 9.3 2.6 3.8 5.6 20.6 3.8 20.6-11.5 0-25.2-26.7-20.5-40l1-2.8 2.3 1.6c1.2.9 4.4 2.7 7 4m-38.7 5.2c5.1 5.2-1.8 13.3-7.4 8.5-2.5-2.2-2.5-6.5 0-8.8 2.6-2.4 4.8-2.3 7.4.3m56.3 1.4c9.7 5 10.2 9.2 2 17-2.6 2.6-3 3.4-4.2 8.6-1 4.3-2.2 1.5-2.2-5 0-5.8-.2-6.7-3-10.6-6.6-9.3-2.3-15 7.4-10m-65.5 9.6c2.4 1.3 2.2 2-2 7.7-5.9 8-6.8 8-4 0 3-9 3.2-9.2 6-7.7m16 5.5c3.6 9.9 2.6 10.4-3.4 1.9-4-5.5-4-5.8-2.5-7 2.7-2 3.3-1.5 5.8 5.1m-4.5 5.6c3 4.2 5.7 7.9 6 8.1 1 .8 3.5 4.7 3.5 5.4 0 .4-7 .7-15.7.7H47l1-2c.6-1 1.3-2.1 1.6-2.3.3-.3 2.1-2.6 4-5.3 3.8-5.4 9.2-12.2 9.6-12.2l5.8 7.6m172.8-2.4c0 3.8.3 4.3 2 4.6 2.1.3 3.5 9.5 1.7 11.3-1.5 1.5-10.1-2-10.8-4.5-1.5-5.7-.8-9.5 2.4-13.1 3.8-4.2 4.7-3.9 4.7 1.7m48.5-3.5c.9 1.4-.9 1.7-15.3 2.3-10.7.5-14 .4-13.6-.4.3-.5 2.3-1 4.3-1s4.4-.4 5.4-.9c2.4-1 18.5-1 19.2 0m32.6-.3c5.8 1.6-8.5 3-15.6 1.5-2.5-.5-2.7-.7-1.2-1.2 2-.9 14-1 16.8-.3m-28 5.6c1.8.4 5 .4 7.2 0 2.2-.5 13.8-.6 27.2-.2 20.2.5 23.4.4 24.2-.7.6-1 1-1 2-.2.8.8.7 1.1-.6 1.6a223.8 223.8 0 0 1-20.2 11.7c-5.4 0-9.7 10.6-8.9 22.1.3 4.1-1 5-5.2 3.4-1.3-.5-4.6-1.6-7.4-2.4-6.6-2-8.3-11.9-3.1-17.5 1.8-2 1.6-2.4-2-3.3-3.5-.8-6 3.7-6.3 11-.2 6-1.7 7.6-3.3 3.6-1.4-3.6-.3-10.6 2-13 2.2-2.4 1.5-3.9-1.9-3.9-4 0-6.1 3.8-6.1 10.9v5.7l-2.4-.5-12.9-3.7-12.4-3.4c-2.7-.6-3.5-1.9-3.8-5.5-.4-5.8 0-8.4 1.8-10.3 1-1 1.7-2.6 1.6-3.5-.3-1.3 1-1.5 11.4-2.1a212 212 0 0 0 13.1-1c.8-.1 1.7 0 2.2.1.4.3 2.1.8 3.9 1.1m-38.7 4.9c-.8 1.4-1.4 4.7-1.4 7.6 0 4.4-.2 5-1.5 4.8-2.8-.6-2.6-11.5.2-14.4 3-2.9 4.6-1.7 2.7 2m103.8-2a229.6 229.6 0 0 1-16.5 19.3 754.7 754.7 0 0 1-10.4 11.8c-4.6 5.5-6 1.8-4-10.4 1-5.6 1.3-6 4.2-7.6 3.8-2 10.5-5.8 15.4-8.6 9.5-5.5 12.5-6.7 11.3-4.6m-110 6c-.2 6.8-.7 8-2.1 5.2a20 20 0 0 1 .5-10.7c1.2-2.1 1.9 0 1.6 5.5m10-3.6c-.4 1-.8 4-.8 6.9 0 6-1.3 7.8-2 3-1-5.4-.7-8.5.7-10.6 1.7-2.3 3.5-1.7 2.2.7m108-1.3c.5 1.4-.2 2.3-17.6 21l-15 16-4.2 4.7-.3 8.6c-.4 9.7-.5 9.8-7 7.5a253 253 0 0 0-8-2.7 73.2 73.2 0 0 1-10.5-4c-2.7-1.3-2.3-13.4.6-16.5l2.4-2.7 4.8 1.4 7.7 2.1c10 3 7.4 4.6 23.8-14.4a697 697 0 0 1 14.3-16.4c5-5.8 8-7.3 9-4.6m-136.4 6.9c.5 1.6 1.6 2.4 5.5 3.5 2.7.8 6.2 2 7.8 2.7l2.7 1.2-1.4 3c-.8 1.6-1.5 5.2-1.6 8.3-.1 6.9 0 6.8-6.2 4.7l-10-3.2c-7.5-2.3-8.5-11-2-17.7 1.6-1.8 3-3.6 3-4 0-1.5 1.8-.4 2.2 1.5m135.7 5.3c.6 1.7 1.6 3 2.2 3 3.6 0 2.8 2.4-2.4 8a1139 1139 0 0 0-24.6 26.9l-5.8 6.4c-2.4 2.8-3.4 1-3.4-6.1 0-8-1-6.3 11.8-20l15.2-16.2c5.6-6 5.6-5.9 7-2m-70.6 6.6c0 7-1.1 9.2-2.1 4.3-.7-3.5.3-12.3 1.3-11.7.4.3.8 3.6.8 7.4m-132.9-4c.7.8 1 8 .8 24.2l-.3 23-7.6.3-7.6.2v-33.2l-53.5-.2-53.5-.3-.3-7.6-.2-7.7h60.6c50.3 0 60.8.2 61.6 1.2m142.1.8c-.3 1-.5 4.4-.5 7.4s-.4 5.5-.9 5.5c-1 0-1.2-13.3-.3-14.3 1.3-1.2 2.2-.5 1.7 1.4m-54 1.9c-1 1.3-1.6 4.6-1.7 9-.2 5.3-.5 6.8-1.6 6.8-2 0-2.3-14-.3-16.3 2.4-2.6 5.3-2.2 3.5.5m6.8-.7c1.2.4 1.2.8 0 3-.6 1.2-1.4 5.3-1.8 9-.6 6.7-1 7.4-4.2 6.1-2.5-1-1.9-12.6.9-16 2.4-2.8 2.8-3 5-2.1m5.8 3.2c0 .6-.6 2-1.3 3.3a21 21 0 0 0-1.2 8c0 5.3-.3 6-1.6 5.8-2.5-.5-2.7-12.2-.2-15.6 1.9-2.7 4.4-3.5 4.3-1.5m8 1l10.2 3c6.5 2 7.3 2.8 5 5.4-.9.9-1.6 4.2-2 8.4-.4 3.8-1 6.8-1.5 6.8-5.5 0-19.7-6.3-20.2-9-.9-4.5.4-11.7 2.5-13.9 2.2-2.3 1.5-2.2 6-.7m20 10.6a19.7 19.7 0 0 0-1.8 9.4c0 5.2-.2 6-1.5 5.7-3.5-.7-2.5-14.2 1.3-17.7 3.2-3 4.1-1.7 2 2.6m7.3-2.4c.3.4-.3 2.3-1.2 4.2a19.6 19.6 0 0 0-1.7 9.3c0 6.1-.4 6.7-3 4.7-2.5-1.8-1.6-13.7 1.2-16.7 2.1-2.3 4-2.8 4.7-1.5m5.8 2.5c0 .3-.6 1.3-1.4 2.1-1 1.1-1.6 4-1.9 9-.5 7.9-1.8 9.8-3.8 5.5-1.3-2.8.4-13.3 2.4-15.5 1.4-1.6 4.7-2.3 4.7-1.1"/>
    <path fill="#ef3431" d="M391 321.2c1 .6 1.1 27 1 130.1-.2 71.2 0 129.1.4 128.7 1.4-1.4.3-258.9-1.1-259.3-1-.2-1-.1-.2.5m-144.4 32.4c-14 3.5-19.8 21-6.2 19l3.8-.6 6.5 10.3c7 11.2 7.4 11.4 9.7 5 2-6.1 1.4-8-6.6-19.8-.8-1.2-.8-2 0-3.2 4.3-7 .5-12.6-7.2-10.7m12 4c0 2 .2 2.6.4 1.6.3-1.1.2-2.7 0-3.5-.2-.9-.4 0-.4 2m19.3 13.2c.8.2 2.2.2 3 0 .9-.2.2-.4-1.5-.4s-2.4.2-1.5.4m-10.5 4.3l-2.4 2.2 2.8-2a16 16 0 0 0 2.9-2.2c0-.7-1-.1-3.3 2m10.2 35c0 6.6 4.5 13.4 8.8 13.4 2.5 0 2-1.5-2.5-8.7-4.6-7.2-6.3-8.5-6.3-4.7m37.8 28.2c0 2.2.2 3 .4 2s.2-2.9 0-4c-.2-1-.4-.1-.4 2m-24 6.8c-.4.4.3 2.1 1.3 3.8l3 4.7c2.2 4 15.1 8.2 15.1 4.8 0-2.8-6.2-11.2-9-12-4.6-1.5-10-2.1-10.5-1.3m40 36.5c-.4 1.3-.3 2.6.2 3 .4.5.8-.5.8-2.2 0-3.6-.3-3.8-1-.8M302 481c1 .2 2.8.2 4 0 1-.2.1-.4-2-.4-2.2 0-3.1.2-2 .4m11.5 0c0 1.4 8 13.5 9.9 15a90.4 90.4 0 0 0 17 9.4c.5-.6-12.7-21.7-14.8-23.5-1.8-1.6-12-2.3-12-.9m32.3 37.7c0 2.6.7 4.4 3 7.3 1.7 2.4 3.3 5.9 4 8.9 1 4.6 1.5 5.1 6.4 8.6 10.5 7.4 10.6 7.9-3-13.6-9.8-15.7-10.4-16.4-10.4-11.2m-137 1.3l2.9.9c2 .4 2.3.3 1.3-.3-1.2-.8-5.2-1.4-4.3-.6M350.6 550c-.4.5-1.8 1-3 1.2l-2.2.4 2.3.1c1.3.1 2.8-.4 3.4-1.1 1.2-1.5.9-1.8-.5-.6M8.3 589c-1.7 4.3.1 244.3 1.8 246.6 4.9 6.5-3.4 6 91.5 6.4l85 .5 4.5 3.2c2.5 1.8 4.7 3.3 5 3.3.2 0 .3-45.3.2-100.6l-.2-100.6-6.1-1a61.6 61.6 0 0 1-51.2-51c-.5-3.2-1.2-6.2-1.3-6.8-.3-.9-14-1.1-64.6-1.1-50.6 0-64.3.2-64.6 1m47.2 38.6c.8.3 2.5.5 4 .5 3.4 0 3.9 1.4 1.2 3.7-3.3 3-2.2 4 12.2 12l9.8 5.9c2.5 1.6 4.8 2.9 5 2.9.3 0 3.7 2 7.5 4.4 3.8 2.4 7.2 4.3 7.4 4.3.3 0 3.7 2 7.5 4.4 4 2.4 7.2 4.4 7.4 4.4 1 0 13.5 8 13.5 8.7 0 2.4-3.3.9-18.8-8.3-34-20-36.6-21-15.2-5 10.4 7.8 11.5 8.8 10.8 10-.8 1.3-1.9.7-14.7-9-15.6-11.6-17.7-12-6.5-1.4 4.6 4.4 8.2 8.5 8 9.1-.6 1.7-1.7 1.4-4.5-1.3-15.3-14.6-17.1-16.1-14.4-11.9.9 1.4 2.8 3.8 4.2 5.4 3.7 4.1 4.3 5.4 3.1 6.6-.7.7-1.7.1-3.8-2.4-9.4-11.4-9.8-10.3-1 3 5.1 7.9 6.2 10.2 5.4 11.1-.8 1-1.1 1-1.9 0l-6.6-9.7a46.3 46.3 0 0 0-6-8 193 193 0 0 0 12.1 24.9c4.9 9.2 5 9.6 2.9 9.6-1.1 0-3.2-3.3-7.2-11.1-8.4-16.5-10.6-20.5-11.2-20-.4.5 1.4 6.3 3.3 10.6l3.5 8.7 3.5 8.8c1.1 2.5 9.6 24 9.6 24.5 0 1.8-3.5-.2-4.3-2.5l-1.8-4.6a2217.4 2217.4 0 0 1-13.1-33.2l-8.4-21c-8.8-22.4-8-21.2-12.5-18.6-4.4 2.4-4.5 2.2-3.3-3 .9-4.1.9-4.2-2.3-7.4-3.7-3.8-3.4-4.6 1.2-4.6 3.6 0 5-1.2 7.4-6.4l1.6-3.3 2 4.3c1 2.4 2.6 4.6 3.4 4.9m230.6 38c-.2.4.6 1.7 2 2.8l2.3 2.1-2-2.3-2.1-2.4 2.5-.3 2.5-.4-2.4-.1c-1.3-.1-2.5.2-2.8.6m22.9-.2c1.1.3 1.7.8 1.4 1.4-.4.5-.2.7.4.3 1.5-1 .3-2.3-1.9-2.2-1.9.2-1.9.2 0 .5m-171.3 21.3a38.3 38.3 0 0 1 6.6 71.6c-.5 0-1 .4-1 .9s4.6.8 11.8.8h11.8v55h-20l-.3-16.8-.2-16.8-53.7-.4-54-.7c-1.3-1.3 0-20.3 1.6-20.3 2 0 2.5-1 5.6-10 10.2-29.8 10.9-31 17.9-31 5.3 0 7.3 3.4 14.1 24 1 2.9 2 5.8 2.5 6.5l1.9 5.6c1.5 5.3.3 5 17.8 4.7l14.7-.2-5.2-3.3c-36.5-22.4-13.1-80.3 28-69.6m-77.4 55.2a232 232 0 0 0-6.4 8.5c-1.9 2.7-3.7 5-4 5.3-.3.2-1 1.3-1.6 2.4l-1 2H63c8.6 0 15.7-.4 15.7-.8 0-.7-2.5-4.6-3.5-5.4-.3-.2-3-3.9-6-8-6.5-9-5.4-8.6-9-4m177.4-.4l-3 3.2 3.3-3 3.3-3 .1 4.3.2 4.4.3-3.9c.5-5.3-.7-5.9-4.2-2M74.8 745c.5 2 .5 2-1 .9-1.7-1.2-1.7-1.2-.2.4 1.9 2 3 1 1.7-1.5-1-2-1-2-.5.2m235-.3c1.6.2 4 .2 5.3 0 1.3-.2 0-.3-2.9-.3-2.8 0-4 .1-2.3.3m43 0c0 .4-3.3.7-7.3.6h-7.2l6.5.3c5.6.3 6.3.5 5.8 1.8-.4 1.1 0 1 1.4-.4 1-1.1 1.7-2.2 1.4-2.6-.4-.3-.6-.2-.6.2M234.3 749c0 2.4.2 3.3.4 2 .2-1.4.2-3.3 0-4.4-.2-1-.4 0-.4 2.4m30-3.2c-.2.4 0 1.2.4 2 .7 1 .8 1 .8-.3 0-1 1-1.6 2.9-1.8l2.8-.3-3.2-.2c-1.8 0-3.5.2-3.7.6m-15.7 2.6c-1 1.8-1.4 9-.6 10.6 1 1.9 2.7 1.7 2.7-.2 0-.8-.2-.8-.8 0-.3.6-.7-1.5-.7-4.8 0-3.9.2-5.1.6-3.7l.7 2.2V750c.2-2.2-1-3.3-1.9-1.7m113.4 2.1l-2.6 2.9 2.8-2.5c1.9-1.7 3.4-2.4 4.6-2 1 .2 1.6 0 1.3-.4-1-1.6-3.6-.7-6.1 2M245.6 754c-.1 3-.6 5-1.3 5.3-.8.4-.8.5 0 .6 1.7 0 2.2-1.8 1.8-6.6l-.4-4.3-.1 5m13.4-2.6c-.7 2-1 12-.3 11.3.5-.6 1.4-12.4.9-12.4-.1 0-.4.5-.6 1.1m-2 3.7c0 2.4.2 3.3.4 2 .2-1.4.2-3.3 0-4.4-.2-1-.4 0-.4 2.4m102 5.5l-3 3.3 3.2-3c3-2.9 3.7-3.6 3-3.6-.2 0-1.6 1.5-3.3 3.3m-54.4 2.5c-1 1-.6 1.8.6 1.8.6 0 1.2-.6 1.2-1.2 0-1.2-.8-1.5-1.8-.6m-81.5 4.2c0 2.5.1 3.3.3 2 .2-1.3.2-3.3 0-4.4-.2-1-.3 0-.3 2.4m73.3 1c0 2.3.2 3.2.4 1.9.2-1.4.2-3.3 0-4.4-.2-1-.4 0-.4 2.4m-1.8.5c0 1.6.2 2.3.4 1.5.3-.9.3-2.2 0-3-.2-1-.4-.2-.4 1.5m3.6.8c0 2.2.1 3 .3 2 .3-1 .3-2.9 0-4-.2-1-.3-.1-.3 2m27.9 0c0 1.7.2 2.4.4 1.6.2-.9.2-2.3 0-3.1-.2-.8-.4-.1-.4 1.5m-18.3 3c0 2.5.2 3.4.4 2 .2-1.3.2-3.3 0-4.3-.3-1.1-.4 0-.4 2.4m-57.7 2.8c-.1 4-.6 6.4-1.3 6.7-.9.3-.8.4 0 .5 1.7 0 2-1.7 1.7-8l-.3-5.5-.1 6.3m8.9-2.9c-.3.7-.4 2.4-.2 3.7.3 2 .4 1.8.8-1.2.4-3.8.2-4.7-.6-2.5m42.5.7c0 2.5-1.3 3.3-2.1 1.4-.3-.8-.5-.8-.5-.1-.1 1.5 1.6 2.4 2.7 1.3.5-.4.7-1.8.5-2.9-.4-1.9-.5-1.9-.6.3m43.1 2.7l-4.3 4.5 4.6-4.3c2.5-2.4 4.6-4.4 4.6-4.6 0-.6-.9.1-4.9 4.4m-80.5 5c0 2.6.2 3.7.4 2.4.2-1.3.2-3.5 0-4.8-.2-1.3-.4-.3-.4 2.4m31.1-1.1l-2 2.4 2.3-2c1.4-1.3 3-2 3.7-1.6.9.3 1.2.2.9-.3-1-1.5-2.7-1-4.9 1.5m11.4 3.5l-2.1 2.4 2.6-2.2 3-2.4c.2-.1 0-.2-.5-.2s-1.8 1-3 2.4m-18.8 5.2c0 5.4.4 6.8 1.4 6.9.7 0 .8-.1.2-.3-.6-.2-1.1-2.8-1.3-6.9l-.3-6.4v6.7m47.2-2.2l-3.4 3.8 3.7-3.5c3.4-3.2 4-4 3.4-4a39 39 0 0 0-3.7 3.7m-42 1.1c0 2 .1 2.6.3 1.6.2-1.1.2-2.7 0-3.5-.2-.9-.4 0-.4 2m-7.9 2.1c0 1.7.2 2.4.4 1.5.2-.8.2-2.2 0-3-.2-.8-.4-.2-.4 1.5m16.4 4.5c0 3.7-.2 4.3-1.3 4-.8-.4-1.2-.2-.9.3 1.6 2.5 3 .6 3-4 0-2.6-.1-4.8-.3-4.8-.3 0-.5 2-.5 4.5m-3.3-.1c0 1.7.2 2.4.4 1.5.2-.8.2-2.2 0-3-.2-.9-.4-.2-.4 1.5m32.4 6.1c0 3.6.2 5 .4 3.3.2-1.8.2-4.8 0-6.6-.2-1.8-.4-.3-.4 3.3"/>
    <path fill="#fae259" d="M204.4 420.5v99.2h4.1c2.7 0 5.1.6 6.8 1.7 1.4 1 6.6 3.7 11.5 6.2a65.2 65.2 0 0 1 35.8 47.5l.7 4.4 64 .2 64 .2V321.4H204.4v99.1m52.7-69.4c2.9 2.3 3.6 6.5 2 11.2-1.3 3.7.4 8.2 5.2 14 .1.2 1.6-.7 3.2-2 13.6-10.3 31.2 0 31.2 18.2 0 9.6-9.4 15.2-16 9.5-3-2.7-1.4.7 5.3 11.6 6.7 10.8 6.7 10.9 10 10.9 16.2 0 23 10.2 15.9 23.4-1.7 3.1-1.9 4.1-1 5.2l2 3c.5 1.2 2.3 2.3 4.9 2.9 10.7 2.7 16.9 13.7 12.8 22.6-.8 1.9-.6 2.6 1.3 5.2 1.3 1.7 2.4 3.3 2.4 3.6 0 .3.8 1.8 2 3.3l3 4.6c.5 1 7.9 12.6 16.3 26 17.5 27.6 16.2 24.7 12.4 28.4l-2.8 2.8-6-4.8c-7.2-5.7-6.7-5.6-8.4-2-2.4 5.3-7.5 4.2-10.9-2.3a15.2 15.2 0 0 0-5.2-6.4c-5.2-2.7-6.3-4.4-7.5-11.6-1.2-7.4-1.4-7.7-8-9.1-7.7-1.7-11-11.2-8.2-23.4 1.6-6.7-1.6-13.2-6.5-13.6-20.7-1.6-30.1-15.5-18.8-27.7l2.3-2.4-2-3.2c-2.4-4-3-4.4-7-4.4-14.4-.1-25-16-25-37.4v-9l-6.8-10.8-6.8-10.8-5.2-.4c-8.4-.6-11-5-7.6-13 4.5-10.5 20.5-17.5 27.5-12M296.8 645a8.2 8.2 0 0 0-3.3 4.3c-.8 2.4-1.5 3.1-3 3.1-2 0-2 .2-1.1 2.7.9 2.3.8 2.8-.6 3.9-1.6 1.1-1.5 1.3 1.5 3 4.1 2.5 4 3.5-.4 3.5-3.9 0-3.7.7 1.1 3.7 4.6 3 14.7 1.6 18.9-2.5 1-1 .7-1.2-1.8-1.2-4.3 0-4.6-.9-1-3.3 2.2-1.5 2.8-2.3 2-2.8-.7-.5-.9-1.8-.5-4.2.5-3.2.4-3.5-1.1-3-1.3.3-2-.4-3.3-2.9-2.2-4.6-4.4-5.9-7.4-4.3M60.5 723.6c-4 2.8-2.1 8.3 2.7 8.3 4.8 0 6.4-4.8 2.6-7.8-2.7-2.2-2.9-2.2-5.3-.5m-5.2 12c-.9 1.4-2.9 7-2.9 8 0 1.6 5.2-5 5.2-6.6 0-2-1.4-2.8-2.3-1.4m14-.5c-1.7.6-1.4 1.8 1.5 6 3.4 5 3.9 4.6 1.7-1.3-2-5.3-1.8-5.2-3.3-4.7m169 7c-3.9 4.1-3.6 13.4.5 15 5.7 2 6.5 1.5 6.6-3.8.1-4.6 0-4.8-2-4.8s-2.2-.4-2.4-4.5l-.3-4.4-2.4 2.5m37.3 3.6c-10.6.8-13.4 3.4-13.5 12.5v5.8l5 1.5a361 361 0 0 1 14.7 4.4 104.1 104.1 0 0 1 9.6 3c.2 0 .4-2.4.4-5.4 0-8.3 3.2-12.4 8.5-11 3.3.9 3.5 1.8 1.1 4.8-2 2.6-2.6 14.2-.8 14.2.7 0 .8-1 .5-2.8-1.2-7.2 3-15.5 7.4-14.3 4.4 1.2 4.7 2 2.2 5-2.1 2.5-2.3 3.3-2.1 8.5l.2 5.8 5.5 1.9c3 1 6.8 2.1 8.5 2.4l3 .6V773c0-9.4 2-15 5.3-15 .7 0 14.9-8 17.8-10 2.5-1.7-17.6-2.6-50.1-2l-9.6-.4c-3.1-.2-9.2-.2-13.6.1m-21.2 3c-1.5 1.9-2.3 9.7-1.1 11.7.7 1.3 1 .5 1-4.1 0-3.2.4-6.2 1-6.8.6-.5.8-1.2.6-1.5-.3-.2-1 .1-1.5.8m109.8.4c-.2.4-2.9 3.6-6 7.2a4715 4715 0 0 0-26 29.5l-1.8 2.2-5.1-1.6a1429.3 1429.3 0 0 0-13.3-4.1c-5-1.9-10.4 13-6 16.5 1.1 1 17.3 6.6 21.8 7.6l2.4.5v-16.6l5.5-5.8c13.2-14.3 19-20.4 25.4-27.1 6.4-6.6 7.6-9 4.5-9-.6 0-1.3.3-1.4.7M227.4 759c-2.7 3-3.2 5-3 11.5v3l9.7 3.3 10 3.2-.1-3.7c-.2-2 .1-5.8.8-8.2l1.2-4.6-2.2-.9-6.2-1.9a14 14 0 0 1-5.7-3l-1.8-1.8-2.7 3m22.1 7.6c-1.7 1.7-2.6 7.4-1.9 11.8 1 5.6 1.9 4 1.9-3.5 0-4.4.4-7.4 1.1-8.3 1.5-1.7.6-1.8-1.1 0m5.3 1c-1.8 2.1-3 11.7-1.6 14.1 1.7 3.3 2.4 2.1 3-4.7.2-3.6 1-7.1 1.5-7.8 2-2.6-.7-4-2.9-1.5m6.4 3c-1.6 2.6-2.4 14.7-1 14.7.6 0 1-2 1-5.2 0-2.8.4-6.3 1-7.9 1.1-3.4.6-4.2-1-1.5m4.8 2.2c-1.4 2.7-1.8 11.1-.7 13 .4.5 4.2 2.1 8.5 3.6 4.3 1.4 8.6 2.8 9.4 3.2 1.4.5 1.5 0 1.5-4.8 0-3 .6-6.7 1.3-8.5 1.8-4.1 1.7-4.4-1-4.9-1.4-.2-4.6-1.1-7.3-2-8.8-2.7-10.1-2.6-11.7.4m24 7c-1.4 2-1.8 3.9-1.8 8.8 0 8.4 1.4 7.8 2-.9.3-3.8 1-7.6 1.6-8.3.6-.7.8-1.5.6-1.7-.3-.3-1.3.7-2.3 2m5.8.9c-1.6 1.7-3 10.4-2 13.2 1 3.5 2.2 1.8 2.2-3.2 0-3.3.6-6.2 1.6-8.3 1.8-3.5.7-4.6-1.8-1.7m5.5 2.4c-1.5 2-1.8 3.6-1.8 8.4 0 8.3 1.4 7.5 2-1 .2-4.8.7-7.4 1.5-7.9.7-.4 1-1 .7-1.3-.3-.3-1.4.6-2.4 1.8"/>
    <path fill="#24a06b" d="M8.7 450.7v129.2h64.1c70.3 0 65.2.4 65.2-5 0-22.2 23.3-45.1 49.3-48.6l8-1V321.8l-93.3-.2-93.3-.2v129.3m96.5-93c.2.8.5 3.3.5 5.7v4.3l23.3.2 23.4.2.5 4c.5 3.6 2 7.9 7.3 19.4a715 715 0 0 1 5.7 13.3 706 706 0 0 0 5.8 13.3c6 13.4 6.7 15.4 6.2 20-2.8 27.4-43.2 31.6-51.5 5.4-2.5-7.9-2.3-9 3.9-22.4 1.4-3.2 3.4-7.6 4.2-9.7 1.4-3.5 4.5-10.7 7-16.2 4-8.5 7.6-17.9 7.2-18.3-.3-.3-10-.5-21.5-.5h-20.9l.6 15.5c.7 18.5 2 47.8 3.2 70.1.4 9 .8 19.1.8 22.8 0 8.5.2 8.6 11.2 8.6h9l-.3 5-.2 5-9.2.5-9.2.5-.2 3.9c-.1 2.2 0 6.9.4 10.5l.7 6.5 4 .5 3.9.4-.2 4.2c-1.2 22.7-33.9 22.8-35.4.1l-.2-4.3 3.9-.4c4.5-.5 5-2 5.2-15V504l-9.4-.3-9.3-.2v-9.6l9.3-.3 9.3-.2.5-4.1c.3-2.3 1-13.2 1.4-24.2 1.6-40.3 2.7-65 3.4-76 .5-8 .4-11.6-.3-12-1.3-.9-40.5-.9-41 0a66 66 0 0 0 6.2 16c1 2 5.4 12.2 9.8 22.5l8 18.6-.9 5.3c-4.5 25.6-39.9 30-50.4 6.2-3.8-8.7-3.5-9.9 10.6-42.4 8.7-20 12.7-30.2 12.7-32.4v-3.2h46.2v-5.1c0-2.8.3-5.4.6-5.7 1.1-1 3.6-.6 4.2.8m-54 33.9a942.8 942.8 0 0 1-10.5 23.9l-4.4 10.2a33.8 33.8 0 0 0-2.2 5.6c0 1.5 41.3 2.7 42.3 1.1.4-.7-5-13.6-12.5-30.2-1.4-2.9-3.6-8.1-5-11.6-3.4-8.3-3.7-8.3-7.7 1m99-5.8c-.5 1.3-2 4.8-3.5 7.9l-2.6 5.9a405.4 405.4 0 0 1-11.8 27c-1.2 2.7-2 5.3-1.6 5.9.6 1 41 .4 42-.6.4-.4-5.2-13.8-12.4-29.7-1.5-3.4-4-9-5.3-12.5-2.8-6.9-3.5-7.5-4.8-4"/>
    <path fill="#2a427e" d="M197.2 115.5c.9 1 1 6.2.9 22.4a148 148 0 0 0 .4 20.3c1.4-1.4.3-43.2-1.1-43.6-1.1-.4-1.1-.2-.2.9m3.7 21.6c0 22.6.5 26 3 21.9.3-.5 0-.7-.8-.4-1.2.5-1.3-2-1.3-21.3 0-16.7.2-22 1-22.3.7-.3.5-.5-.4-.5-1.4 0-1.5 1.5-1.5 22.6m44 10.2c1.2.4 1.3.7.5 1.7-.7.7-.7 1.2-.2 1.2 1 0 2-2.2 1.3-3-.3-.2-1.1-.4-1.9-.4-1 .1-1 .2.2.5m-93.7 5a26 26 0 0 0 5.5 6.2l5.4 5.3-5.1-5.4c-2.8-3-4.9-5.8-4.5-6.3.3-.6.1-1-.4-1s-.9.5-.9 1.1m54.7 7.3c-1.1 1.2-.5 3 1 3 1.2 0 1.3-.2.3-.8-.7-.5-1-1.2-.6-1.8.7-1 .3-1.3-.7-.4m27.4 8l-5.7 5.9 6-5.7c5.4-5.2 6.2-6.1 5.6-6.1-.2 0-2.8 2.6-6 5.9m-37 5.4c-.3.5 0 .7.8.4 1.8-.7 2 20.3.3 22.3-1 1-.9 1 .4.1 2.1-1.6 2.4-23.6.3-23.6-.7 0-1.5.3-1.8.8m4.8 10.4c0 9.7.2 11.4 1.5 12.4 1.4 1.1 1.4 1 .4-.2-.8-1-1-4.4-.9-12.5.2-6 0-11-.4-11-.3 0-.6 5.1-.6 11.3M8.3 321.6c-.3.6-.3 59-.2 130l.2 128.7H73c51.6 0 64.6-.2 64.7-1 .2-.7 0-.8-.2-.3-.3.6-21.6 1-64.5 1H8.7V321.3l93.3.2 93.2.2v102c0 56 .3 101.6.7 101.4 1.2-.7.8-202.4-.4-203.6-1.6-1.6-186.6-1.5-187.2 0m92.5 36c-.3.6-.3 2.3-.2 3.7.3 2 .4 1.8.8-1.3.4-3.8.2-4.6-.6-2.4m4.3 4c0 2.1.1 3 .3 2 .2-1.1.2-3 0-4s-.3-.2-.3 2m-39.3 6.7c6.6.2 17.2.2 23.6 0 6.3-.1.9-.2-12.1-.2s-18.1 0-11.5.2m51.9 0c6.4.2 16.8.2 23.1 0 6.4-.1 1.2-.2-11.5-.2-12.8 0-18 0-11.6.2M56.5 370c-.3.3-.6 1-.6 1.5 0 .6.3.6.7 0 .5-.9 6.3-1.2 22-1.4l21.4-.3-21.5-.2c-11.8 0-21.7 0-22 .4m49.4.5c-1.2 1.2-1.4 3-.4 3.6.4.3.7-.4.7-1.4v-2h43.6v2c-.1 1.4.1 1.8.8 1.1.6-.6.6-1.4 0-2.4-1.3-2-42.9-2.8-44.7-1m0 10.4c0 2.1.2 3 .4 2 .2-1.1.2-2.9 0-4-.2-1-.4-.2-.4 2m-6 3c0 2.4.1 3.3.3 2 .2-1.3.2-3.3 0-4.4-.2-1-.4 0-.4 2.4m-.8 14c0 2.9.1 4 .3 2.4.2-1.6.2-4 0-5.2-.2-1.4-.3 0-.3 2.8m7.8.5c0 2.1.2 3 .4 2 .2-1.2.2-3 0-4s-.4-.2-.4 2m-4.5 6c0 .8.6 4.3 1.2 8 1.3 6.4 1.3 6.4.8 1.2-.4-4.8-2-12-2-9.1m156.4 3.9c0 2 .2 2.6.4 1.5.3-1 .2-2.6 0-3.5-.2-.8-.4 0-.4 2m-157 5.2c0 3.4 0 4.7.3 2.9v-6.2c-.2-1.5-.4 0-.4 3.3m6.1 7.9c0 2.9.2 4 .4 2.4s.2-4 0-5.3c-.2-1.3-.4 0-.4 2.9m-9.7-.9c0 2 .2 2.6.4 1.5.3-1 .2-2.6 0-3.5-.2-.8-.4.1-.4 2m204.2 8.7c0 .1 1.3.5 3 .7 1.6.1 2.8 0 2.6-.4-.5-.7-5.6-1-5.6-.3m-269 2.5c0 1.3.9 1.5 7.6 1.3l7.7-.2-7-.3c-4.1-.1-7.2-.7-7.6-1.3-.5-.7-.7-.6-.7.5m132.8.6l-7.5.6 7.2.1c4 .1 7.4-.2 7.7-.7.3-.5.4-.8.2-.7l-7.6.7m-57.4 4c0 2.3.1 3.2.3 1.9.2-1.3.2-3.3 0-4.4-.2-1-.3 0-.3 2.4m-11.4 4.4c0 3.4.2 4.6.4 2.8.2-1.8.2-4.5 0-6-.2-1.6-.4-.2-.4 3.2m3.4-3c0 1.6.2 2.3.4 1.5.3-.9.3-2.2 0-3-.2-1-.4-.2-.4 1.5m4.5 3.4c0 2.2.1 3 .3 2 .2-1 .2-2.8 0-4-.2-1-.3-.1-.3 2m190.2.4l3.4.8c2.2.4 2.7.3 1.7-.3-1.1-.7-6-1.3-5.1-.5M106 452c0 2.8.1 4 .3 2.4.2-1.6.2-4 0-5.3-.2-1.3-.3 0-.3 2.9m-70.2-3.7c0 .2 1.3 1.4 2.9 2.8l2.8 2.6-2.6-2.8c-2.4-2.7-3-3.3-3-2.6m64 7.2c0 4.3.1 6.2.3 4.1.2-2 .2-5.5 0-7.8s-.3-.7-.3 3.7m-3.6.8c0 2.4.2 3.3.4 2 .2-1.3.2-3.3 0-4.4-.2-1-.4 0-.4 2.4m193.6 1c-1.1 1.4-1 1.4.7.3 1.7-1 2.1-1 3.9.5l2 1.7-1.6-2c-2-2.3-3.4-2.4-5-.5m-180.5 3c0 2.1.2 3 .4 2 .2-1.2.2-3 0-4s-.4-.2-.4 2m197.8 2.3c1.6.2 4 .2 5.3 0 1.3-.2 0-.3-2.9-.3s-4 .1-2.4.3M99 472.1c0 2.4.1 3.2.3 1.9.2-1.3.2-3.3 0-4.4-.2-1-.4 0-.3 2.5m11.3 5.6c0 3.6.2 5.1.4 3.3.2-1.8.2-4.7 0-6.5-.2-1.8-.4-.4-.4 3.2M95.5 480c0 2.4.1 3.3.3 2 .2-1.4.2-3.3 0-4.4-.2-1-.3 0-.3 2.4m11.3-.9c0 2 .2 2.6.4 1.6.2-1.1.2-2.7 0-3.5-.3-.9-.4 0-.4 2m211-1.6c1 .2 2.6.2 3.4 0 .8-.3 0-.4-2-.4-1.9 0-2.6.2-1.5.4m-210 11.6c0 2.1.1 3 .4 2 .2-1.1.2-2.9 0-4-.3-1-.4-.2-.4 2m22.7 9.2c0 2.8.2 4 .4 2.3.2-1.5.2-3.9 0-5.2-.2-1.3-.4 0-.4 2.9m-55 .4c0 2.6.1 3.7.3 2.4.2-1.3.2-3.5 0-4.8-.2-1.3-.3-.3-.3 2.4m15.7-2c6.6.2 17.4.2 24 0 6.6-.1 1.2-.2-12-.2s-18.6 0-12 .2m-12.5 1.7c0 2.7 2.5 3 25.4 2.7l23-.3-23.2-.2c-21.2-.1-23.4-.3-24.2-1.7-.5-.8-1-1-1-.5m19.5 6c-.2.7-.2 1.6 0 1.9.4.3.6-.1.6-1 0-1.6 8.2-2.1 9-.5.3.5.4.4.3-.2-.4-1.8-9.2-2-9.9-.2m.8 10.5c-1.4 1-2 2.2-1.8 4.1l.1 2.8.4-2.6a7.3 7.3 0 0 1 2.3-4.1c2.3-1.9 1.6-2-1-.2m13 5.4c0 2.4.2 4.7.6 4.9.3.2.5-1.2.4-3.2-.5-5.9-.9-6.6-1-1.7m-18.5 1.5c-.4 3.5-.5 3.5-4.3 4-3.3.3-4 .7-4 2.4-.1 1.6-.1 1.7.2.2.3-1.4 1.1-1.8 3.7-1.8 4 0 5.6-1.5 5.1-5.4-.3-2.8-.3-2.8-.7.6m112.2 2.1c1.6.6 5.8.3 5.8-.4 0-.2-1.7-.3-3.7-.3-2.7 0-3.3.3-2 .7m-88.5 2.5c2.6.3 3.3.7 3.6 2.5.3 1.9.4 1.8.3-.3-.1-2.2-.4-2.4-3.6-2.5l-3.5-.1 3.2.4m-28.6 4.1c-.3.7 0 2 .5 2.9.8 1.3.9 1.3.4-.5-.4-1.4-.2-2.4.6-2.9.9-.5 1-.7 0-.7-.6 0-1.3.5-1.5 1.2m-.4 9.5c0 .2 1.3 1.4 2.9 2.8l2.8 2.6-2.6-2.8c-2.4-2.7-3-3.3-3-2.6m65 2.6l-2.6 2.8 2.8-2.6c2.6-2.3 3.2-3 2.6-3-.2 0-1.5 1.2-2.9 2.8m2.7 2.6l-2.6 2.8 2.8-2.5c2.7-2.4 3.3-3.1 2.6-3.1-.2 0-1.4 1.2-2.8 2.8m79.9 4.4c3.6 3.8 4.4 4.5 4.4 3.9 0-.2-1.9-2-4.2-4.2l-4.1-3.9 3.9 4.2m17 35.1c0 4.3 0 6.2.3 4.2V581c-.2-2.3-.4-.6-.4 3.7m-105.7 0c0 3.9.2 5.3.4 3.3s.2-5.2 0-7c-.2-1.8-.4-.1-.4 3.7m2.6.5c0 3.6.2 5 .4 3.2.2-1.8.2-4.7 0-6.5-.2-1.8-.4-.4-.4 3.3m100.4 4.3c0 1.7.2 2.4.4 1.5.2-.8.2-2.2 0-3-.2-.8-.4-.2-.4 1.5m-79.4.2c-1.8 2.3-2.1 3.7-.4 1.6 1.5-2 1.9-2 3.3-.9 1.5 1.2 1.5 1.2.4-.2-1.4-1.8-2.2-2-3.3-.5m91.9 2.2a63.3 63.3 0 0 1-51.8 55.2l-6.3 1.2v99.9c0 54.9.2 99.8.5 99.8s2-1.1 3.7-2.5c5.7-4.5 4.6-4.4 92.1-4.4 90.2 0 84.9.3 89-5.5l2-2.8.2-122.1.3-122H263l-.5 3.2m-121.9.7c0 1 .4 2.3 1 3 .6 1 .7.6.2-1.3-.7-3.2-1.2-3.9-1.2-1.7m57 8.9c1.3.2 3.5.2 4.8 0 1.3-.2.3-.4-2.4-.4-2.6 0-3.7.2-2.4.4m37.7 18.8L232 624l3.7-3.4c3.5-3.2 4.1-4 3.5-4-.2 0-1.9 1.7-3.8 3.7m-77.2 7.2a19 19 0 0 0 3.4 3c.2 0-1-1.3-2.5-3-1.7-1.7-3.2-3-3.4-3-.3 0 .9 1.3 2.5 3M41 630c-.7.9-.3 1.6 1.5 3.3l2.4 2-2-2.2c-2-2.3-2-2.4-.5-3.3.9-.5 1.2-1 .6-1-.5 0-1.4.5-2 1.2m153.9 8.2c.8.2 2.2.2 3 0 .9-.3.2-.4-1.5-.4s-2.4.1-1.5.4m7 0c.8.2 2.2.2 3 0 .9-.3.2-.4-1.5-.4s-2.4.1-1.5.4m103.5 5c1.7 2 3.7 3 5 3 1.7 0 2.2.6 2.7 3.4.3 1.8 1.3 3.7 2.1 4.3 1.7 1.2 2.3 11.1.8 12-2 1.3-.5 2.2 3.1 2.2 2.5 0 7 1.2 11.8 3 8.2 3.3 10.5 3.7 13 2.3 1.2-.6 1.9-.3 3 1.8a12 12 0 0 0 4.1 3.9l2.6 1.3.2 29.4.3 29.5 10.2 4c12.2 4.7 11.4 4 9.8 8.3-2 5.5-1.6 8 1.5 10.8l2.7 2.5-4.2 4.6c-9.6 10.3-15.5 16.7-27.4 29.9-10.4 11.4-12.9 13.6-14.4 13.2a1842.9 1842.9 0 0 1-46-14.4 1367.6 1367.6 0 0 1-44.6-14.3l-20.7-6.8-1-3.8c-2.2-9.2-.3-14.9 7.7-22.6 2-1.9 3.7-4.2 3.7-5.1 0-1 2.1-4.2 4.8-7.2l4.8-5.5v-43.5l2.7-2.6c1.5-1.4 3.6-4.5 4.7-7l2-4.4 5.1-.6c2.8-.3 9-1.5 13.8-2.7 4.8-1.2 9.8-2.2 11-2.2 3.1 0 3.6-.8 2-3.2-2-3-2.2-10.5-.4-12.3.8-.8 1.8-2.8 2.3-4.5.7-2.5 1.4-3.2 3.3-3.5 1.4-.1 2.7-.8 3-1.5 2.1-5.7 10.3-6.6 14.9-1.7m-107.9 2c1.3.2 3.5.2 4.8 0 1.3-.2.3-.4-2.4-.4-2.6 0-3.7.2-2.4.4m55.9 33.6c-.8.8-1 8.6-.9 30.8l.2 29.7.5-30 .4-30.2 2.2-.6c1.8-.5 1.9-.6.4-.7-1 0-2.3.4-2.8 1m43.8 19.9c0 11.3.2 15.9.3 10.3.2-5.7.2-15 0-20.6-.1-5.6-.3-1-.3 10.3m52 13.4l.5 29.8.2-29.2c.1-16 0-29.5-.4-29.8a313 313 0 0 0-.2 29.2m-2.4-22.6c0 3.9.2 5.3.4 3.3s.2-5.2 0-7c-.2-1.8-.4-.1-.4 3.7m-97.6 25.8c0 15.7.3 28.5.6 28.2.4-.2.7-12.9.7-28.2 0-15.3-.3-28-.7-28.3-.3-.2-.6 12.5-.6 28.3m-127-25.6c-6.3.8-7.3 2.9-1.3 2.9 4.8 0 5.4.2 6.3 2.2 1.5 3.4 1.3 8.3-.4 8.3-.8 0-3.2 1.5-5.3 3.5-3.7 3.4-3.8 3.5-6.4 2.2-3.3-1.8-3.5-1.7-3.5.3 0 4 3.7 9.6 7 10.7 16 5.2 19.4 12.7 10.1 22.8-3.7 4.2-4.8 7.2-4.9 13.2v2.5l6.7-.5c17.7-1.5 27.5-11.4 27.7-28l.1-9.5-5.7-.1-5.6-.1-.3-7.3a33 33 0 0 1 1.2-11.7c2-5.9.8-7-4.2-4.4-5.7 3-9.2 2.7-10.8-1-1.6-4-4.2-6.7-6.2-6.5l-4.6.5m12.5.8c-.3.7-.1 1.7.4 2.3.7.6.8.4.5-.9-.3-1.2 0-2 1.1-2.2 1.5-.4 1.5-.4 0-.5-.8 0-1.7.5-2 1.3m110.1 17c0 9.3.1 13.1.3 8.4.2-4.6.2-12.3 0-17-.2-4.7-.3-.8-.3 8.5m54.2 5.3c0 12.2.1 17.2.3 11.1v-22.3c-.2-6.1-.3-1-.3 11.2m-182.3-16.9c1.1.2 2.9.2 4 0 1-.2.2-.4-2-.4s-3 .2-2 .4M346.2 711c0 4.6.1 6.4.3 4.2.2-2.3.2-6 0-8.3-.2-2.3-.3-.4-.3 4.1m-251 4.5c-4.6 13.4 9 40 20.6 40 1.8 0-1.2-16.7-3.8-20.5-2.8-4-3-4.6-2.4-9.3l.5-5-4.6-2.3c-2.5-1.3-5.7-3.1-7-4l-2.2-1.6-1 2.7m62.8.8l-4 .6 3.7.1c2 0 4-.3 4.2-.7.3-.5.4-.9.3-.8l-4.2.8M342.4 729c-.3 5.9-.2 10.3.2 10 .4-.4.6-5.2.5-10.7l-.3-10-.4 10.7m-229.5-1c0 1.9.2 2.6.4 1.5s.2-2.7 0-3.5c-.2-.9-.4 0-.4 2m167.7 8c.8.2 2.2.2 3 0 .9-.2.2-.4-1.5-.4s-2.4.2-1.5.4m28 0c1.2.2 3.4.2 4.7 0 1.4-.2.3-.4-2.4-.4-2.6 0-3.7.2-2.4.4m-35 .8c1 .3 2.3.3 3.1 0 .9-.2.2-.4-1.5-.4s-2.3.2-1.5.4m43.7 0c.8.3 2.2.3 3 0 .9-.2.2-.4-1.5-.4s-2.4.2-1.5.4m-29 2.8c2 .7 2 .8.4 1.2l-1.8.4h1.8c2.5-.2 2.1-1.9-.5-2l-2.2-.3 2.2.7m23 0l7.8-.1c2-.2.2-.3-4.1-.3-4.4 0-6 .1-3.7.3m4.5 1.1l-7.8.6 7.4.1c4 0 8-.2 8.7-.7.7-.5 1-.8.5-.7l-8.8.7m-54.1.9c-.7 1.1 1.3 1.1 3 0 1.1-.7 1-.9-.6-.9-1 0-2.1.4-2.4.9m97.8 23l-3.5 3.6 3.7-3.4c3.5-3.2 4.1-4 3.5-4-.2 0-1.8 1.7-3.7 3.7m-256.8-1l61.2.4v23.7c0 13 .3 23.5.6 23.3 1.2-.7.8-46.1-.4-47.3-.8-.8-15.4-1-61.8-.8l-60.7.2 61.1.4m268.4 2c.8.8.4 1.7-1.8 4l-2.8 3.2 3.2-3c3-2.7 3.4-5.3.9-5.3-.3 0 0 .5.5 1m-42.3 11.2c.1 4.1.4 4.8 1.9 5 1.3.1 1.3 0 .2-.3-1-.3-1.5-1.6-1.8-5l-.3-4.5v4.8M69.2 778c14.8.2 39 .2 53.7 0 14.8 0 2.7-.2-26.8-.2-29.6 0-41.6.1-26.9.2M334 796.1c0 2.4.2 3.2.4 2 .2-1.4.2-3.4 0-4.4-.3-1.1-.4 0-.4 2.4m0 7.8c.1 1.4.7 2.7 1.5 2.9.9.2 1 0 .3-.4-.6-.4-1.2-1.7-1.5-3-.3-1.8-.4-1.7-.3.5"/>
  </g>
</svg>
