<svg xmlns="http://www.w3.org/2000/svg" width="123.7" height="134" display="block">
  <path fill="#1a161c" fill-rule="evenodd" d="M60.1.2C53.5 2 49.6 8.5 49 18.6l-.1 1.7-.6.2-2.6.8a51.6 51.6 0 0 0-34.2 35.4 62.4 62.4 0 0 0-1.7 21 58.2 58.2 0 0 0 4 14.4 53.6 53.6 0 0 0 36.7 30l5.1.8a67 67 0 0 0 13-.3A52.7 52.7 0 0 0 112 84.2a49.9 49.9 0 0 0-2.4-32.8 54.2 54.2 0 0 0-22.3-25.8 51.9 51.9 0 0 0-9.6-4.2c-2.2-.7-2-.3-2.2-3.2A25.1 25.1 0 0 0 73 7.8c0-1-3.3-4.9-5.3-6.1-2-1.3-5.6-2-7.6-1.5m3.3 2c2 .6 2.8 2.2 1.7 3.5-.7.8-1 .9-2.5.2-1.1-.5-1.3-.5-1.7-.3l-.4.2.6.1c.4 0 .9.2 1 .3.5.3 1.8 2.7 1.5 2.8-.1 0-.2.3-.1.6 0 .3 0 .5-.5.9-.3.3-.5.5-.4.7.1.2.2.1.7-.4.8-.8 1-.9 1.7-.3.4.3.4.4.2.7l-.2 1.1c0 1.3-.3 1.5-1 .7-.2-.3-.3-.3-.8 0-.6.2-.6.4-.2 2 0 .7-.2.8-1.6.7h-.8V15l.3-1.3c.3-.7.2-1-.2-1-.3 0-.6-.4-1.2-1.3-.4-.7-.3-.8.8-1.2.8-.3 1.2-.7.7-.7-1 0-1.7-3.1-.7-3.4L60 6c-.4 0-.6-.1-1-.6-1.2-2 1.6-4 4.4-3.2M67 6c.7.9 1 1 1.4.2.3-.6.6-.8.8-.5l-.4 1c-.9 1.8-.2 2.1 1 .5 1.3-1.5 1.4-1.1.4 1.1-.9 1.9-.8 2.4.3 1.6 1-.8 1.2-.4.3.6-1.2 1.5-.7 2.3.7 1 .8-.8 1.5-1.2 1.5-.8L71.8 12c-1.5 1.6-1.5 2.8 0 1.8 1.3-.9 1.3-.3 0 .7s-1 1.4.6.8c.6-.2 1.3-.4 1.4-.3.4.1.1.3-2 1.4-1 .6-.8 1 .5.9h1.1c.2.3-.7.8-1.2.8-.6 0-1 .3-1 .7 0 .3.3.4 1.8.4 2.7 0 2.4.5-.5.8-1.6.2-1.8.8-.3 1.2 1.7.3 1.8 1 0 .7h-1c-.3.5 0 .8 1.6 1.4 2.2.9 2 1.3-.5.8-1.8-.4-2 .1-.5 1 1.4.7 1.2 1.3-.2.6-1.8-.8-1.7.4.1 2 .7.5 1.3 1.1 1.3 1.2 0 .4-.5.3-1.6-.3-1.7-1.1-2.3-.4-1 1.2l.8 1.2c0 .5-.4.4-1-.4l-.8-.8-.2.5c-.3.7-.2 1 .6 2.4.8 1.5.9 1.9.5 1.9-.2 0-.5-.4-1.7-2h-.3c-.4.2-.3 1 0 2 .7 1.3.3 1.8-.5.7-.4-.6-.5-.6-1 .6l-.6.7a5 5 0 0 1-1.7-1.5l.7-.3c1.6-.2 3.2-2 2.7-3-1.4-2.2-1.4-3 0-4.8.4-.4.5-.6.5-1.8 0-1.2 0-1.4.7-2.8s.8-2 .3-2.7c-.5-.8-.4-1.5.3-1.8.5-.3.7-.4.6-.6-.2-.5-.7-2-1-3.4-.9-2.6-2.9-5.7-4.4-6.7l-.4-.3.6-.6.6-.9c0-.4.6-.1 1.2.6m-10.2-.2c.2.6.6.6 1 0 .5-.5.8-.5 1.3.1l.4.6-1.1 1c-1.5 1.4-2 2.5-3 6.2a61.5 61.5 0 0 1-.6 2.5l-.2.8.7 1 .7.9-.4 1c-.6 1.4-.6 1.4 0 2.4.6.8.6.8.5 2.8v2l1 1.2 1.9 2.4c1 1.2 1.4 2.5.8 2.5-.2 0-.3 1.2-.2 1.4.3.3.2.6 0 .6l-.8.4c-.5.4-.6.4-1.2-.5-.6-1-.6-1-1-.1-.2.4-.4.7-.5.6-.2-.1-.2-.4.2-1.2.4-1 .4-1.1 0-1.8l-.4-.6-.4.5-.8 1c-.4.5-.9.7-.9.4l.8-1.8c1.2-2.2 1-3.2-.3-1.8-.8.8-.8.1 0-.8 1.2-1.5.6-2.4-1.2-1.4-1.8 1-1.9.6-.2-.9 1.6-1.6 1.8-2.6.3-1.8-.9.4-1.2.4-.8 0l.5-.3.6-.4c.6-.5.4-1.2-.3-1-1 .2-2.7.6-2.8.5-.3-.2.2-.6 1.5-1.1 2.2-.9 2.4-1.5.6-1.5-.6 0-1-.1-1.1-.2-.1-.1.7-.3 1.4-.3.5 0 .7-.3.6-.7-.1-.3-1-.5-2.6-.8-1.4-.2-.9-.7.9-.7 2-.1 2.2-.4.5-1.2-.6-.2-1-.5-1-.6 0-.2.8-.3 1 0 .4.3 1 .2 1-.2 0-.3-.2-.6-1.1-1.2-1.8-1.2-1.7-1.5.1-.7 1.3.6 2.2 0 1-.8l-1-1c.1-.2 1.1.2 1.1.4l.3.1c.6 0 .4-.7-.6-1.8-.6-.8-.9-1.3-.8-1.4.1-.3 0-.4 1.5.8.6.5.7.5.9.2.3-.5.3-.7-.3-1.5-.6-1-.6-1.1.2-.4 1 .9 1.1-1 .1-2.4l-.2-.7c-.2-.7.3-.5.9.4.7 1 .8 1.1 1.2.7.3-.3.4-.9.2-1.1l-.3-.6c-.1-.6.2-.7.4-.1m6 3l.2.3c.4 0 .5-.3.1-.5-.2-.2-.3-.2-.3.1m-1.6 1.6c-.5.6-.5.5-.2 1.2.2.8.4.7.5-.1 0-.6.1-.8.4-.8l.4-.1-.3-.3c-.3-.3-.4-.3-.8.1m-3.9 2.2c0 2 .1 2.9.5 4.1.2.8 0 .9-.7.4-.4-.3-.9-.5-1.2-.5-.7-.2-.8-.4-.5-1.3l.2-1 .2-.8.5-1.4c.7-2.4 1-2.3 1 .5m2-1l.3.9c0 .4-1.3 2-1.5 1.9-.2-.1-.2-1.8 0-2.3l.3-.6c.1-.5.5-.4.9.2m7.5-.2c.2.4-.1 4-.4 4.7-.7 1.4-1.8.8-3-1.5-.8-1.4.4-1.9 1.2-.5.4.7 1 1.1 1 .7l-.1-.2c-.3 0-.2-2.7 0-3.2.4-.4 1-.4 1.3 0m1.7 1.5c1.3 3.4 1.5 4.5.8 4.8-2.5 1-2.4 1-2.2-.6l.3-3.4v-2.5c0-.4.7.7 1.1 1.7m-7.9.4c.5.5-1 3.1-1.7 3.1-.9 0-1-.7-.4-1.7 1.3-1.7 1.7-2 2.1-1.4m-19.2 0l-3.8 1.4c-.3.2-.4.5 0 .5s.5.3 1.5 2.8l.6 2.2c0 .5.4.8.9.4l1-.4c2.4-.8 3.4-2 3.4-3.7 0-2.3-1.6-3.7-3.6-3.2m1 1c1.7 1 1.9 3.9.4 4.9-1.4.9-1.6.8-2.6-1.8-1-2.7-1-2.7-.3-3 1.1-.5 2-.5 2.6-.1m40.2-.2a3.4 3.4 0 0 0-.3 6.3c1 .5 2.2.7 2.6.5.4-.2.3-.2-.6-.4-3-.6-3.6-4.2-1-5.7 1.2-.7 3.2.3 3.2 1.6v.6l.4-.5c.9-1.4-2.2-3.2-4.3-2.4m-21 2.3c.2.1.2.5.1.8l.1.5.3-.8c0-.7 0-.8.5-.8.8-.1 1 .3.9 4 0 2.5 0 3.3.2 3.5a24 24 0 0 0 .1 6.3c.2 3.9.2 4 .9 4 .6 0 .8.3.5.5a5 5 0 0 1-1.6.1h-1.3l-.3-1-.3-1.3c0-.3 0-.4-.2-.4-.2.1 0 1.4.2 1.7.4.5.1 1-.5 1-1.4.2-1.6-.2-1-2l.5-1.4c0-.2 0-.2.3.1.3.4.3.3.3-3 0-2.1 0-3-.1-2.4l-.1 2.2c0 2.1-.7 2.5-1 .5l-.2-1.2v1.1c0 .7 0 1.2.2 1.5.3.5.3 1.3 0 1.3-.8 0-1.3-4.1-1.3-12 0-1 .3-2.1.8-2.7.4-.5 1.8-.6 2-.1m3.1.5c.7.5.8 1.2.5 3.6-.4 3.7.3 9.2 1.2 9.2l.1.4c0 .1 0 .3.2.3l.4.6.2.5-.7.7c-2.5 2.1-2.6 2-2.7-6.7v-1.3l-.1-4.1c-.1-3.8-.1-3.9 1-3.2m-32.8.7l.2 2c.4 3.7.4 4.4.2 4.7-.3.4.3.3 1 0 .5-.4.7-.9.2-.7-.3.1-.8-.9-.6-1.3.1-.4 2-1.3 2.4-1 .5.2.8.8.6 1-.3.4.2.5.8 0l1-.5c.5-.3.5-.6 0-.6-.2 0-1.3-.7-2.8-1.9-2.2-1.8-2.9-2.1-3-1.7m59.3.5l-2.5 2c-1.1.9-2 1.5-2.2 1.5-.6 0-.5.3.4.7 1 .5 1 .5.7 0-.6-1 .9-1.4 2-.7 1.2.6 1.4 1.9.4 2-.4 0-.4.1.7.8 1.2.6 1.8.8 1.3.3-.3-.2-.3-1.2 0-2.8.4-4.1.3-4.7-.8-3.8m-29.8 2.8v3.2a27.5 27.5 0 0 0 .2-6.1s-.2 1.3-.2 3m7.1-2.3c.2 0 .3.2.3.4s0 .5.2.6c.3.3-.2.4-.7 0-1-.6-.8-1.4.2-1m-34.9 1.2c.8.7.8.9 0 1.3-.7.4-.7.5-1-.9-.3-1.2-.1-1.3 1-.4m23.4-.2l.5.4-.5.4c-1.2 1-1.7 1-1.3-.1.5-1.3.6-1.4 1.3-.7m33.9.2l-.1.8c0 .7-.3.7-1 .4-.9-.5-.9-.5 0-1.3.8-.8 1.2-.8 1 0m-23.5 0c.5.9.8 2.3.5 2.3-.2 0-1.4-1.4-1.4-1.6 0-.8.6-1.3.9-.8m28.2.9c-.3.6-.2.7.2.4.4-.2 1.6.4 1.6.9 0 .3-2.8 4-3.1 4.2h-.5c-.2-.2-.3-.2-.3 0 0 .3 1.9 1.6 2.2 1.6.2 0 .2 0 0-.2-.3-.3-.2-.8 1.3-2.8 1.7-2.2 1.6-2.1 2.3-1.5.5.3.6.5.5.9-.1.6.1.6.6 0l.3-.5-2.2-1.7-2.4-1.7s-.3.1-.5.4m-37.3.5v1.3l.3 2.6c.2 2.4.2 2.4-1 2.2-1.4-.3-1.4-.6-1-4.5.1-1.8 1.4-3 1.7-1.6m-33 .7a20.4 20.4 0 0 0-3.3 2.5l-.4.3h.6a13 13 0 0 1 3.7 4.3c0 .4.2.6.4.3l1.3-1c1.7-1.3 2.2-2 2.2-3.5 0-2.8-2.2-4.2-4.5-3m1.7.8c2.1 1 2.5 3.7.8 5-.8.6-.8.6-2.5-1.6-1.6-2.2-1.7-2.4-.9-3 1.2-.7 1.8-.9 2.6-.4m22.2 1.4c.8 5.5 2.5 9 5.5 12 1.8 1.8 1.8 1.7-.5 2.2a30.9 30.9 0 0 0-5.7 1.6A32.7 32.7 0 0 0 29 61.5c-1 3.3-1.6 9.4-1.2 13A34.3 34.3 0 0 0 49 102.3a34.4 34.4 0 0 0 40-12 35.7 35.7 0 0 0 5-11.4c1.4-6.2 1.3-11-.6-17.4a33 33 0 0 0-23.8-23.2c-1.7-.4-1.7-.4-.2-1.8 3.2-3.1 5.2-7.1 6-12.2.2-2 .2-2 4.4-.3 15 6 26.6 19 30.6 34.4a52.9 52.9 0 0 1-.8 28 49.2 49.2 0 0 1-36 33.5 50 50 0 0 1-58.8-67.2 57.2 57.2 0 0 1 10.2-16.1 54.6 54.6 0 0 1 18-12.5c.2-.2 4.7-1.6 5.4-1.7.5-.1.7 0 .9 1.5m18.5-1.2c.3.2.3.3.3 2v1.8l-.5.3c-1.3.6-1.8.1-1.3-1.3l.4-1.8c.3-1.4.4-1.5 1-1m-48 3.8l-1 .9h.5c.8.1 4 3.7 3.8 4.4v.5l.5-.5 1.1-1 .6-.6h-.5c-.5.2-.6 0-1.8-1.1-2-2.2-2.3-2.5-2.2-3 .2-.7 0-.6-1 .4m82.4-.3c-2.1.5-3.4 2.7-2.7 4.4 1.3 3.2 5.4 3.4 6.8.4 1-2.2-1.7-5.3-4.1-4.8m2.3 1c1.6.9 1.2 3.3-.9 4.7-2 1.3-4-.4-3-2.6.8-1.8 2.6-2.7 3.9-2M84.9 29l-.5.7c-.2.3-.5.5-.7.5-.7 0-1.2.7-1.2 1.7 0 .8 0 .9-.5 1-.9.3-1.2.6-1.1 1.6 0 1 0 1-.5 1.1-.8.3-1.2 1-1 1.7.3.4.2.6-.5 1.9l-.7 1.4.4.4c.5.5.8.5 1.3 0l1-.6c.8-.2 1.2-1 1-1.6-.3-.6-.2-.7.4-1 .8-.4 1-.9 1-1.7 0-.7 0-.8.5-.9.9-.2 1.1-.6 1-1.6-.1-1.2.5-2.3.8-1.4 0 .2.3.5.6.8l.5.6.1-.8c.1-.7-.2-1.6-.6-1.6-.3 0-.3-.5 0-1 .4-.8-.5-1.7-1.3-1.2m-69 1.2c-2.4 2.4-.5 5 2.2 3.2 1-.7 1.4-.8 1.9-.4 1.2.8-.5 3.2-1.8 2.5-.6-.3-.6-.2-.2.5 1 1.2 3.5-1.3 3-3.1-.4-1.7-1.7-2-3.4-.7-1.2.8-1.6.8-2 0-.4-.9 1-2.5 1.7-2 .4.4.6.1.2-.3-.5-.7-.8-.6-1.7.3m69.9-.5l-.4 1-.5 1c-.5.8-1.4.7-1-.2 1-1.7 1.9-2.6 1.9-1.8M36 30l-.1.5c-.3.2-.2.4.2.4.6-.1.7.4.2 1-1 .8-1.4 1.6-1.4 2.5 0 1 0 1 1.2.3l1-.6 1.7-1L41 32c1.4-.7-.7-1.6-2.6-1-1.2.2-1.8 0-1.2-.7.3-.3.3-.3-.2-.3-.3 0-.5 0-.5-.2l-.2-.1-.2.4m72.8 1.9c0 .5 0 .6-1.5 1.7-2.3 1.9-2.7 2.1-3 2.1a49.7 49.7 0 0 1 1.5 2.2c1 1.4 1 1.4 1.8 1l.5-.4h-.6c-.7-.1-1.8-1.1-1.8-1.7 0-.5 3.7-3.3 4.3-3.2.7 0 .7 0-.2-1a6 6 0 0 1-.8-1l-.1-.2c-.2 0-.2.2-.1.5m-68.5 1.3l-3.7 2.1c-1.6 1-1 1.7 1.2 1.6h1v.6c0 1 .5 1.5 1.5 1.6 1.1 0 1 1.2-.4 2.5-1.2 1-.8 1 1.3-.2a322.2 322.2 0 0 1 4.2-2.6c-.1 0-.5 0-.9.2-.9.3-1.5.3-2.1 0-.6-.4-.6-.4-.3-1 .5-1 0-2.1-.8-2.1-.4 0-.3-.4.1-1 .5-.6.9-1.9.7-2.3-.1-.3-.4-.2-1.8.6m43 .9c-.6 1.1-1.4 1-.8 0 .4-1 .5-1 .9-.9.3.2.3.2 0 .9m-21.7.9c0 .2.2.2.7.1 1.5-.2 2 .7.8 1.3-1.1.5-2.6.3-1.7-.2.4-.3.2-.7-.3-.8-.5-.2-.6-.3-.4-.6.2-.2.9 0 .9.2m-50.2.7c-1.2 1.3-2.7 4.2-1.7 3.2.5-.5 5 3 4.6 3.4-.2.2-.2.3 0 .3l1-1c.7-1.2.7-1.2.2-1.1-.4 0-.8-.1-2.5-1.2-2.3-1.6-2.4-1.8-2-2.4.9-1 2.8 0 2.3 1.2-.2.6-.2.6 2 .7h1.8l.4-.5c.6-.7.5-.8-1.6-.7h-2V37c0-1.5-1.6-2.3-2.5-1.3m49 0c.3.6.2.9-.3.8-.5-.2-.7-.6-.4-1 .2-.4.4-.3.7.2m21.5.5c0 .3-.6 1.4-.9 1.4-.4 0-.4-.5 0-1.2.4-.6 1-.8 1-.2m-17.4.9c0 .5 0 1-.2 1.3l-.3.7h.6a34.5 34.5 0 0 1 19 9.3C90 54.4 93 62 93 70.9c0 2.3-.3 5.3-.6 6.4l-.1.5H68.8l-.1-.8c-.2-1.3-.8-11.4-.7-11.8 0-.3.5-.3 4.4-.3h4.4l1.9-2.8c1.6-2.4 1.9-3 1.8-3.3a94.8 94.8 0 0 1-1-6.8l-6.1-.1c-7.1 0-6.4.3-6.5-2.9a36 36 0 0 0-.7-7.5c-.4-.2-9.6-.1-9.8.1l-.4 3.2-.6 7h-5.9c-4.4.1-5.8.2-5.9.3l-1.4 7c0 .2.8 1.6 1.8 3l1.8 2.7 4.4.1h4.4v1.2a168 168 0 0 1-.8 11.6c-.1.1-4 .2-11.9.2H30.3l-.2-.7A31.7 31.7 0 0 1 58.7 39c.6 0 .7 0 .6-.3-.4-1-.5-1.3-.4-1.8.2-.7.3-.7 1-.2 1.1 1 2.6.9 3.8-.2.6-.6.8-.6 1 .5m48.1.3c.1.6-4 3.5-4.6 3.2-.6-.4-.6-.2 0 .9.8 1 1.2 1.4 1.1.7 0-.8 4.7-3.6 5-3 0 .2 0 .2 0 0 0-.3-1-2-1.3-2.2-.2 0-.2 0-.2.4m-32.3 1.3c0 .5-1 2-1.3 2-.4 0-.4-.4 0-1l.5-1c.2-.4.8-.4.8 0M7.4 42.4l-1 2c-.5.7-.5 1.2 0 .7.4-.3 4.6 1.6 5 2.3.3.5.6.4.8-.1 0-.3.5-1.1 1-1.9.7-1.5.7-1.6 0-2-.5-.3-.7 0-.3.3.4.3-.2 2-.7 2.3-.2.1-1.9-.6-2.1-1-.4-.4.3-1.5 1-1.6.3 0 .2-.2-.3-.5-.7-.3-1-.3-.7.1.2.3-.5 1.6-.9 1.6-.5 0-1.7-.9-1.7-1.2 0-.6.8-1.7 1.3-1.7h.4l-.4-.3c-.6-.5-.7-.4-1.4 1m105.6 0c-2.4 1-2.8 4-.8 6 .6.8 1.2.7.5 0-1.6-2-1-4.3 1.5-5 2-.7 4.2 1.8 2.8 3.2-.4.4-.1.4.6.1.6-.2.6-.9 0-2-1-2.3-2.8-3.2-4.6-2.3m-89.7.2l-.4.8c0 .6-1.2 2.2-1.7 2.3-.2 0-.6 0-.9-.3-1-.6-1.6.3-.5 1 1 .6.7 2-.7 3.1-.8.7-.9 1.6 0 1.6.5 0 .7.2 1.1.7a46.8 46.8 0 0 0 3.3 3.6C25 57 27 56 27 53.7c0-1.2 0-1.2-3.4-2.2-4.3-1.3-4.1-1.1-3.1-2.8.9-1.4.8-1.4 5.5 1.5 3.2 2 4 2.5 4.2 2.4.8-.5.7-.6-4-3.5-4.2-2.6-4.2-2.7-3.6-3.8 1-1.7 1-1.7 2.4-.3 4.2 4.5 4.2 4.5 5.5 3.6 1.4-1 1.5-3.5.2-3.5l-1.4-.4-2.7-.9c-1.9-.5-2.3-.7-2.3-1.2 0-.4-.5-.4-1 0m74.1.2l-.7.7c-.2.3-.5.3-1.2-.1-1.6-1-2.8-.3-2.8 1.6 0 .9 0 1.1-.3 1.2-2.2.7-2.5 1.4-1.2 2.9.7.8.7.9.5 1.2-1.2 2-.9 3 1 3 1.3 0 1.4 0 1.6 1 .3 1.8 1.8 2.1 3 .6.6-.8.6-.8 1.7-.3 1.5.8 2.2.4 2.2-1.3v-1l1-.4c2-.6 2.2-2 .7-3.1-.6-.5-.6-.6-.2-1.5.8-1.5 0-2.7-1.8-2.5h-.7l-.4-.8c-.5-1.6-1.3-1.9-2.4-1.2m-32 1a163.5 163.5 0 0 1 .6 8v1h12.3c.2.2.3.8.7 4l.3 1.6c0 .6-1.9 3.9-3 5.2-.3.3-.7.3-4.9.3-3.4 0-4.5 0-4.6.2v2.3a2348.7 2348.7 0 0 1 1 15.5l.3 3.1 3 2c1.5 1.2 3.9 2.8 5.2 3.7 3.3 2.3 3 1.9 3 4.2 0 2 0 2-.4 2.3-.6.5-.7.3-.7-1.2l-.1-1.5-4.7 3.6c-5 4-5 4-5.5 3.5a110.9 110.9 0 0 0-6-3.6c-.5-.4-.5-.4-4 1.7-3.1 1.9-4 2.3-4.3 1.9-.1-.3-8.9-7-9-7l-.3 1.4c0 1.5-.1 1.7-.7 1.3-.3-.2-.3-.4-.4-2 0-2.4 0-2.5 2-3.8a709 709 0 0 0 9.3-6.5l.2-2.5a1777.4 1777.4 0 0 1 1.1-17l.1-1.6h-9.4l-.6-1-1.6-2.3c-.8-1.2-1-1.5-.9-2l1.1-5.3.1-.5h6l6-.1.1-1.6a1787.7 1787.7 0 0 0 .7-8.3c.1-.2 1-.2 4-.2h3.9l.1 1.2m33.7-.3c.4.7.5 1.4 0 1.6-1.3 1-3-.5-1.8-1.6.8-.7 1.4-.7 1.8 0m-3.9.3c.8.5.8.7.3 1.6-.4.8-1.8 1-2 .4-.8-1.7.3-3 1.7-2m-36.7 0c-.2.3-.3 2.7-.2 2.8.2.1 4.1-2.4 4.2-2.7 0-.2-3.9-.2-4 0m-31.3.5l1.8.6c1.7.5 2 .8 1.2 1.5-.3.3-.4.3-1.4-.4l-1.3-.7-.1-.2-.2-.1c-.3 0-1-.6-1-.8h1M62 45.9c-2.6 1.6-2.6 1.6.1 1.6 2.6 0 2.5 0 2.3-1.7-.1-1.6 0-1.6-2.4 0m-34 .4c1.7 1 1.8 1.3 1.2 2l-.4.4-.6-.7-1.4-1.6c-1.5-1.5-1.2-1.5 1.1-.1m69.1-.7c.3.4 0 .8-.6.8-.5 0-.6-.2-.3-.7.2-.5.6-.6 1 0m5.3.2c.6 1.3-.4 2.4-1.7 1.8-.6-.3-1-1.5-.6-2 .3-.3 2-.1 2.3.2m-2.9.6c0 .6-.4.8-.8.4-.2-.3-.3-.4-.1-.7.2-.5.8-.3 1 .3M31 47c0 .3-.3.8-.6 1-.8.9-1 .4-.3-.6l.3-.6c0-.2.5-.4.7-.3l-.1.5m61.9-.2c.6.8.6 1.4 0 2l-.6.7-.5-.4c-.8-.6-1.1-1.1-.9-1.6.3-.7 1.7-1.2 2-.7m1.9 0c0 .8-.9 1.3-1 .6-.3-.7-.2-.8.4-.8.4 0 .6 0 .6.2M5 47.2c-.5 1-.6 1.7-.2 1.3.5-.5.5-.4 2.8 1.7 1.1 1 1 1.1-1.4 1.2H4l-.2-.4c-.1-.5-.2-.5-.6.7-.6 1.5-.6 1.9 0 1.3.1-.2 1-.2 3.3-.3 3.9-.2 4.2-.3 2.9-1.4a28.7 28.7 0 0 1-4-4.1l-.2-.5-.3.5m93.2 0c2.2 1.6.3 5-2.2 3.8-2-1-1.2-4.1 1.1-4l1.1.1m-2 .6c-.9.4-1.1 2-.3 2.6.7.5 1.2.5 1.8 0 1.5-1 .3-3.3-1.4-2.6m4.8.5c.3.3-.7 1.1-1 .9-.2-.2-.3-.9-.1-1.1.1-.1.9 0 1.1.2m-41.3.5c-.1.1.1.3 2.6 2 2.7 1.7 2.6 1.7 2.3-.4l-.2-1.6h-2.3a14 14 0 0 0-2.4 0m42.8.6c1.1 1 .7 2.1-1 2.2-.6 0-.6 0-.9-.8l-.2-.8.6-.6c.8-.7.8-.7 1.5 0M94 49c.2.2.3 1 0 1-.5.4-1.1-.4-.7-.9.3-.4.4-.4.7-.1m-36 .7c-.2.8-.2 2.5 0 2.7 0 .2.9.2 2.6.2 2.6 0 2.6 0 2.4-.3l-.3-.3-2.1-1.3C58 49 58 49 58 49.8m35.7.9c.4.2.5 1.6.1 2-.3.3-1.7.3-2.1-.1-.4-.4-.4-.6 0-1.2.5-1.2 1-1.4 2-.7m6.5-.1c.4.4.2 1-.4 1-.7 0-.8-.5-.3-1 .3-.3.4-.3.7 0m13 0c0 .7.7 1.7.8 1 .2-.4 1-.5 1.4-.2.7.6 1 2.3.5 2.7-.5.4-.7.5-1 .3-.4-.4-.4 0 0 1 .4 1.3.6 1.5.8 1 .1-.4 1.2-1.5 3.7-3.8 1.6-1.5 1.3-1.6-2.9-1.7a11.6 11.6 0 0 1-3.3-.3m-17.6 1c.3.2.3.2 0 .5-.5.5-1 .4-1-.3 0-.8.3-.9 1-.3m22.1-.1c.9 0 .9.3 0 1-.9.8-1 .8-1.3-.1-.3-.8-.1-1.2.4-1l1 .1m-94 .6l1.4.4c.7.1 1 .5.8 1-.3.6-.7.6-2.2-.4a11 11 0 0 0-1.6-1s-.2 0-.3-.2c-.2-.4.2-.3 2 .2m74.2.4c0 .6-.5.8-.9.3s-.2-.8.5-.8c.3 0 .4.2.4.5m-74.6 1c1.7 1 1.8 1.2 1.3 1.8l-.4.4-.6-.6a16.4 16.4 0 0 1-2.4-2.8c0-.2.1-.1 2 1.1m77.3-1c.3.3.2 1.6-.2 2-.5.4-2 0-2.2-.7-.4-1 1.6-2 2.4-1.3m-3.8.8c.6.8.6 1-.2 1.7-1 .9-1.5.8-2-.6s1.3-2.3 2.2-1m-70.2.8c0 .5-.8 1.6-1.2 1.6-.4 0-.4-.1 0-.8.7-1.2 1.2-1.5 1.2-.8m18.8 0l-.3 1.3L45 57v.5c.2 0 4.2-3.1 4.3-3.3 0-.2-3.6-.3-3.7 0m7.3 0s.7.9 1.7 1.8c1.1 1.2 1.7 1.7 1.8 1.5.2-.8.2-3.3 0-3.4a13 13 0 0 0-3.5 0m5 0c-.3.3-.4 3.8-.1 3.7.8-.3 5.5-3.5 5.3-3.7-.3-.2-4.8-.1-5.2 0m9.6 0a38 38 0 0 0 4 3.4c.2 0 .1-1.2 0-2.3L71 54h-3.7m5 .5c0 .6.2 2.3.4 2.9 0 .1.7-.4 1.8-1.5 2-2 2-2-.3-2h-2v.6M62 56.3c-1.5 1-2.7 1.8-2.8 2l3 .1h3v-1.7c-.3-2.6 0-2.5-3.2-.4m-10.8.2c-.4 2-.5 1.9 1.8 1.9 2.5 0 2.5 0 .5-2s-2-2-2.3 0m15-1.6c-.2.2.2 3.3.4 3.5h3.8c.2-.3-4-3.7-4.2-3.5m9.5 1.6c-2 2-2 2 .3 2 2.2 0 2.1.1 1.8-2-.2-2 0-2-2 0m-27.7 0l-2 1.5c-.6.3 0 .5 1.7.5 2 0 2 0 2.2-1.8l.3-1.4c.2-.6-.4-.3-2.2 1.1m-46-.4c-.5 1.7-.5 1.8-.1 1.5.5-.5.3-.5 4 .5l1.3.3.3.5c.2.6.3.3.7-1 .3-1.3.3-1.4-.2-1l-.6.3-.8-.3c-2.2-.4-3.6-.9-4-1.2-.4-.6-.4-.6-.7.4m94.8 3.7v1a84.8 84.8 0 0 1 .6 8.3l.4 5.7c0 1.8.2 3.3.3 3.4a513.8 513.8 0 0 1 7.9-2c1.5-.4 1.8-.6 1.5-1-.2-.3-.3-.3-.7-.2-.2.2-.8.4-1.4.5a31 31 0 0 0-2.6.7l-2 .6c-1.7.6-2 .6-2 0 0-.4.2-.6.5-.4.2.2.5.1 2.3-.4a346.6 346.6 0 0 1 6.3-1.7c1.2-.3 1.5-.6 1.4-1L109 71c0-1-.2-2.2-.3-2.6-.2-.5-.2-.8-.1-1.1.1-.5 0-4-.3-5 0-.5.2-.4-5.9-1.2l-2.5-.4c-2-.2-2-.2-1.9 1.2l.2 1.5c.1.5.2 4 0 4l-.2-1.2c-.5-7-.5-6.7-.8-6.8-.2 0-.4 0-.5.2m-95.6 0c-.2.3-.4 1.6-.2 1.6 0 0 .2 0 .3-.2.3-.4 4 0 3.9.4 0 .2-2.6 2-4.1 2.7-.7.4-.7.4-.9 1.5-.1.9 0 1 .4.5.3-.4.6-.4 1.7-.2l2.2.4c1 .1 1.4.3 1.6.6.5.4.6.2.6-.9 0-.6 0-.6-.3-.4-.5.5-4.1 0-4.2-.4l2.3-1.6c2.4-1.4 3-2 3-2.3a118.5 118.5 0 0 0-5-1c-.4 0-.7-.2-.8-.4-.3-.3-.4-.4-.5-.2m45.3.2l.6.3 1.6 1c1.7 1 1.9 1 1.5-.4-.4-1.2-.3-1.1-2.3-1.2h-1.8l.4.3m5.8-.2l1 .8 1.7 1.2c1 .7 1 .6 1.1-1l.1-1.1h-2l-2 .1m7 .2a46.2 46.2 0 0 1 6.2 3.8c.2 0 .1-2.4-.1-3.7l-.1-.4H62c-3.2 0-3.2 0-2.9.3m7.4 1c0 1.5 0 1.5 2.1 0 2.1-1.4 2.1-1.3-.1-1.3h-2v1.2m6.2-.8c-.9 2.2-.8 2.3.8 1.4 3.4-2 3.3-1.8 1.1-1.8H73l-.2.4m49.5 0c-.2.2-.5.3-4 1h-1.6c-.4-.3-.4-.3-.3.2l.2 1.6c.4 2.9 1.5 4.1 3.7 4.1 2.5 0 3.4-1.5 2.8-4.6l-.2-1.8c-.2-1-.2-1-.6-.6m-65 2.2c-.2 2.5-.5 2.3 3.5 2.3H64l-.4-.4a48.7 48.7 0 0 0-5.5-3.5c-.9-.5-1-.4-1 1.6m-5.8-1.4c0 .3.5 1.8.7 2 .2.2 2.3.3 2.3 0l-1-.9c-1.6-1-2-1.3-2-1.1m-5.5.1l.6 1.1.7 1h1c1.1 0 1.3-.1.5-.5l-1-.6-1.8-1m24 .6l-1.3 1c-.6.4-.4.5.8.5h1.2l.3-1c.5-1.4.4-1.5-1-.5m5.4.2c-1.9 1-2 1.3-.9 1.3 1 0 1 0 2.2-1.6.3-.4-.2-.3-1.3.3m28.5.6c4 .5 3.7.3 3.9 1.8.5 3.3.5 3.3-3 3.6-1.3 0-3 .2-3.6.3-1.8.2-1.6.4-1.8-3-.2-3.1-.2-3.4.5-3.2l4 .5m18.6-.3c.5.7.4 2-.2 2.7-1.6 1.8-4.4 1.3-5-1-.4-1.2-.3-1.2 1.9-1.6l2.9-.4.4.3m-101 3.2c-.3.3-.4.4-.7.2-.5-.3-.7-.3-1.2.2-.3.3-.8.5-1.8.7a155.3 155.3 0 0 0-4 .6c-1.9.2-2.3 2.8-.5 2.8l.6.1 2.4.9c1.7.5 2.4.8 2.9 1.3.5.4.7.5.8.4.3-.3.8-.3 1 .1 0 .4.5.6 1 .3.3-.1.5-.1 1.1.1 1.2.4 1.4.4 1.1-.1-.4-.7-.3-1.4.4-1.3.5 0 1-.6.7-.9-.3-.3-.2-.8.2-.9.2 0 .5-.5.5-.9l-.4-.3c-.5-.2-.6-.5-.2-.7.4-.3.2-1-.5-1.1-.8-.2-.7-1.1.2-1.4.5-.2-.3-.3-1.1-.2h-1.3c-.5-.4-1-.3-1.3.1m35.7.6c-.2.5-.4 4.4-.1 4.4l3.3-2a49.1 49.1 0 0 1 3.7-2.4c.1-.3.1-.3-3.3-.3-3.2 0-3.4 0-3.6.3m-36.2.5s-.5.4-1.1.6a35 35 0 0 0-2.9 1.1c-.4.2-1 .2-1.6 0-1-.6-.5-.8 2-1.2l2.2-.5c.3-.2 1.3-.2 1.4 0m43.7.5a64.6 64.6 0 0 0-5.8 3.7l-.4.3H62c4.4 0 4 .3 3.8-2.4-.3-2.4-.2-2.3-1.4-1.6m-50.3.9c.4.4.4.8 0 1.3-.6.7-1.7.4-1.7-.6s1-1.4 1.7-.7m8.5.1c.8.8.6 2-.5 2.5-1.5.7-2.7-1.6-1.4-2.6.7-.5 1.3-.5 1.9.1M13 68c0 .1.2.2.5.1.3 0 .4 0 .3.2 0 0-.2.2-.4.1-.4 0-.5.3-.1.4.4.2 1-.4.7-.8-.2-.3-1-.4-1 0m4.6.3c.1.4 0 .6-.4.6s-.4-.3-.1-.6c.2-.3.4-.3.5 0m-1.8.2l1.3.8c2.6 1.4 3 1.7 3 1.8l.4.1c.2 0 .2 0 .1.2a248.6 248.6 0 0 0-6-1.8l.1-.9c.3-.3.8-.4 1.1-.2m92 .1c.3.4.6 4.2.3 4.4-.1.2-.7.4-5.5 1.7-2.7.7-2.5.7-2.7-1.3-.5-4.8-.6-4.7 1.4-4.7l2.5-.1c2-.2 3.9-.2 4 0M0 69.4c0 .8.3 1.2.4.7.2-.6 4-.6 4.9-.1.8.5 1 2 .2 2.8-.6.6-4.6.7-5 0-.4-.4-.4-.3-.5 1 0 1.2.2 1.9.4 1 .1-.2.3-.2 2.4-.2 3.2 0 3.9-.5 3.9-2.7 0-2-.6-2.5-3.6-2.7-1.7 0-2.3-.1-2.5-.4-.5-.4-.6-.3-.6.6m123.2 0a13.8 13.8 0 0 1-5.9 0c-.2.2-.1 4 .1 4.3.2.2 1.1.3 1.1 0l-.2-.1c-.4 0-.6-.6-.6-1.7v-1h2.6v.8c0 .6 0 .8-.3 1-.4.4-.4.4.5.4.8 0 1 0 .7-.3-.4-.3-.4-1.6 0-1.8.4-.2 1.6-.1 1.8.1.4.4.3 2-.1 2-.5.2-.4.4 0 .6.7.1.8-.1.8-2.4V69l-.5.3m-64.5 3l6.8 4 1 .5-.2-1.6-.2-2.4-.1-.8H62c-3.7 0-3.8 0-3.4.3m-2.4 2.5v2.4l4.3.1c2.5 0 4.1 0 4-.1a203.1 203.1 0 0 0-7.2-4.4c-1-.6-1-.5-1 2m42.5-.5c0 .5 0 .5-.2.2v-.7c.1-.3.2-.2.2.5M56.2 79l-.2 2-.2 2.4c-.2.8 0 .8 1.2 0l1-.5 1-.6a224.5 224.5 0 0 1 5.6-3.4c0-.1-1.8-.2-4-.2-3.9 0-4.2 0-4.4.3m-22 .6c.5 0 1.7.4 2.6.7 1.8.6 4.2.8 5.1.5a42.8 42.8 0 0 1 4-1.3c.8-.3 2.2-.1 4.3.6l2.8.8c.7.1 1 .8.5 1.4-.3.3-.3.3-2.5-.4-3.4-1.1-4.2-1.1-7.9.2a8 8 0 0 1-5.7 0c-2.7-1-3.2-1-4.7-1-1.4.1-1.5 0-1.7-.2-.6-1.1 1-1.8 3.2-1.3m29.6 1.2a177 177 0 0 1-2.7 1.7c-1.5.8-3.5 2.2-3.4 2.3h9.1v-1c.1-2-.1-4.3-.4-4.3l-2.6 1.3m13-1.2l2.5.7a9 9 0 0 0 6.2 0c3-1 4.5-1.1 5.7-.7.6.2.6.3.3 1.1l-.2.5h-1.5c-1.5-.2-1.6-.1-3.8.6-3 1-4.3 1-6.6.3-3.8-1.4-4.4-1.4-8.3 0-1.8.6-2.1.5-2.2-.4 0-.6 0-.6.4-.7l4.7-1.4c.4-.2 2-.2 2.8 0m-41.6 3.2l2.4.8c2.2.7 3.3.7 6.2-.3 3.3-1 4-1 7.6.3l1.7.5c.5 0 .3.4-.6 1l-.6.3-1.5-.5a10 10 0 0 0-6.1-.2c-3.2 1.2-5 1.3-7.5.4-1.5-.5-2.8-.9-3.7-.9-.8 0-1.5-.9-1-1.4.2-.3 2-.3 3.1 0m42.6.2l1.2.4c2 .9 3.9.9 6.6 0 2.4-.8 4.8-1.1 5-.6.1.4-.3 1.3-.8 1.3a1069 1069 0 0 0-4.5 1.1c-2 .7-4 .7-5.8 0a9.4 9.4 0 0 0-7.5-.3l-1.6.6-.6-.4c-.6-.4-.8-1-.3-1l1.7-.5 2.2-.8c1-.3 3.3-.2 4.4.2M7.4 86c.2.4 0 .5-3.3 1.5-.5.2-1.3.3-1.7.3-.8 0-.8 0-.2 2.2.6 2.1.6 2.1 1.4 2 .8-.2 1-.4.3-.4-1.2 0-1.6-2.3-.4-2.6 3.7-1.2 4.1-1.3 4.5-.9.3.3.4.1.2-.6a119 119 0 0 1-.7-1.7c-.1 0-.1 0 0 .1m29 .6c2.8 1 4 1 6.7 0 2.4-.7 4-1 5.5-.6 2.7.5 1.6 1.5-1.6 1.6a8 8 0 0 0-3.6.6 8 8 0 0 1-6.4.2l-2.4-.7c-.6-.2-1.3-1-1.3-1.6 0-.4.8-.2 3.1.5m42.9 0c2.6 1 3.9 1 6.6 0 3-1 3.8-1 2.8.3-1.5 1.9-6.4 2.5-9.7 1.4-1.7-.7-2-.7-3.7-.7-3 0-4.2-1-2-1.5 1.6-.5 3.6-.2 6 .6m36.7-.1c-.3 1-.3 1.1.1.7.3-.3.4-.3 1.2 0 1 .3 2.7.8 2.7 1 .2 0-.5.5-1.2.8l-1.1.4-1.6.6c-1.5.5-1.5.5-1.8 1.4-.3.9-.3 1.1.1.8.4-.4.7-.4 2.7.3 2.4.8 2.8 1 2.8 1.4 0 .5.3.4.5-.2.3-.8.3-1.5 0-1-.3.3-.5.2-2.6-.5-2-.6-2-.7 1.1-2 3-1.1 3.6-1.4 3.2-1.9l-.4-.2a28.8 28.8 0 0 1-4.3-1.5c-.5-.1-.8-.4-.8-.5-.2-.6-.4-.4-.6.4M57.6 86s.1.2.4.3a155.6 155.6 0 0 1 8.2 4.9c1 .7 1.2.6 1.1-.5a104.8 104.8 0 0 1-.5-4.8c-.3-.2-9-.1-9.2 0m-2 .6c0 .4-.4 5.5-.3 5.7h10a66.7 66.7 0 0 0-9.7-5.7m-5.5 2.8l-4 2.9H54v-1c.3-2.7.4-4.6.3-4.6L50 89.4m18-2.6l.1 1.5.3 2.7.1 1.3h3.8c4.3.1 4.5 0 3.3-.7a276 276 0 0 1-7.5-4.8m-39.8 1a6.3 6.3 0 0 0-1 6.6c.7 1.5.9 1.6 1.7.7 1.8-2 2-5.3.6-7.4-.4-.6-.6-.6-1.3.1m65.2.1c-1.3 2.3-1 5.4.9 7.3.7.7.8.7 1.4-.6 1.1-2.2.8-4.9-.9-6.7-.6-.8-.9-.8-1.4 0m-47.2 1.3c-2.5 2.9-8.3 3.8-10 1.5-1-1.4-1-1.5.8-.8 2 .6 3.9.6 6.2-.2 1.9-.7 2.2-.7 2.8-.8.3 0 .4 0 .2.3m32.9.5c2.2.8 4.3.9 6.1.1 1.5-.5 1.8-.4.9.7-1.8 2.1-5 2.1-8.4 0-2.7-1.8-2.2-2 1.4-.8M32 92.1c-1.8 2.5-1.6 6.2.4 8.3.6.7.7.6 1.4-.4a6.8 6.8 0 0 0-.2-7.7c-.7-1-1-1-1.6-.2m58.1-.1c-1.9 2-2 5.7-.4 8.1.7 1 1 1 2-.7 1.4-2.2 1.1-6-.6-7.7l-.4-.3-.6.6m-47.9 2.7c0 1.5 0 1.6-1 .9-2.3-1.8-2.4-2-.3-2.2h1.3v1.3m41-1c.2.2-2.2 2.3-2.6 2.1-.2 0-.3-2-.1-2.3.1-.1 2.5 0 2.7.1m-37.3.2l1.8 1.7a186 186 0 0 1 5.7 4.6c.2 0 .7-5.9.5-6.3-.1-.3-8-.3-8 0m11.2 0a22 22 0 0 0 4.2 2.4c.2 0 1.2-.5 3-1.6l.7-.4.4-.3c.1-.3.1-.3-4.1-.3-3.3 0-4.2 0-4.2.2m11.7 0c-.1.5.3 6.1.6 6.1.2 0 7.5-6 7.5-6.2 0-.2-8-.2-8 0m-47 .2c-.8.1-2.3.9-2.3 1.2-.2.7 2 2 3.6 2.3 1.6.3 4.5-.6 4.5-1.3 0-1.2-3.6-2.6-5.8-2.2m77.4 0c-1.5.2-3.9 1.9-3.4 2.4 1.4 1.8 6 1.4 7.7-.6.9-1-2-2.2-4.3-1.9m-95.6.3c0 .8 1 2 1 1.3 0-.4.2-.4.8-.5h.7l.4 1c.6 1.3.3 2.4-.7 2-.5 0-.5.1 0 1.2.6 1.1.7 1.1 1 .5a90.5 90.5 0 0 0 3.8-4.5c.7-.9.4-1-2.6-.9-3.6.2-3.8.2-4.1 0-.2-.3-.3-.3-.3 0m51.4.2c0 .2-.4 5.4-.3 5.5 0 0 .5-.1 1.1-.5l2.5-1.4c1.8-1 1.8-.9-.8-2.5-2.2-1.3-2.3-1.4-2.5-1.1m11.4.3l-1.4.8c-2.5 1.4-2.7 1.5-2 1.9l3 1.7c2 1.2 2 1.2 1.7-.6l-.1-2.8c0-1.6-.1-1.6-1.2-1m47 0c-2.5 1.3-2.6 5.2-.1 6.4 2.5 1.3 5-.4 5-3.4 0-2.3-2.7-4-4.8-3M9 94.9l-.6 1-.7.7-.3-.4c-.6-.5-.6-1.2 0-1.4.7-.1 1.5 0 1.6.1m107 1.4c1.7.9 2.3 2.3 1.5 3.4-1.5 2-6-.1-5.3-2.4.4-1.6 2-2 3.9-1m-79.5 0c-1.7 2.5-.9 6.9 1.6 8.9.9.6 1 .5 1.7-1.1 1-2.8-.2-6.6-2.5-8l-.5-.3-.3.5m49.2 0c-2.3 1.5-3.3 5.7-2 8.3.6 1.3.7 1.3 1.9.1a7 7 0 0 0 1.4-8c-.5-1-.5-1-1.3-.5m-60 3.5c-.8.3-2.3 1.3-2.3 1.5 0 .4 1.1 1.2 2.1 1.7 2.6 1.2 8-.4 6.4-2a7.1 7.1 0 0 0-6.2-1.2m67.7 0c-2.4 1-2.9 1.9-1.5 2.7 2.4 1.4 5.8 1.1 7.6-.7l.5-.5-.4-.4a7.5 7.5 0 0 0-6.2-1m-51.6.2l-.2.6c-1.1 2.9 1.3 8 4.2 8.7 1.2.3 1.3-3.7.2-6.1-1-2-3.9-4.2-4.2-3.2m38.5 0c-2.9 1.5-4.7 6-3.5 8.7.4.8.5.8 1.7 0a7.2 7.2 0 0 0 3.3-7.2c-.3-2-.4-2-1.5-1.5m29.4.8c-.6.4-1.7 2.5-1.1 2.2.7-.5 5.1 2.2 5 3-.2.7.3.3.9-.7.7-1.2.8-1.4.2-1.1-.8.3-5-2.5-4.8-3.2 0-.4 0-.4-.2-.2m-97.3.8c-.8.5-1 2-.5 2.7.4.4.4 1.3 0 1.7-1 1.3-2.9-.6-2-2 .3-.7.2-.8-.5-.4-1.4.8.4 3.6 2.3 3.6 1.7 0 2.3-1.2 1.6-3-.6-1.2-.3-2 .7-2s1.7 1.6 1 2.3c-.3.3 0 .4.6 0 .7-.3.6-.8-.2-1.9-.8-1.3-2-1.6-3-1m35.5 1.3c-.3.4-.2 2.5.1 3.6.7 2.4 3 4.6 5.2 5 .7.2.8-.1.7-2a6.7 6.7 0 0 0-1.4-4c-1.1-1.6-4-3.2-4.6-2.6m26.5 0c-3 1-5.1 3.8-5.1 7 0 1.8.4 2 2 1.2a7.4 7.4 0 0 0 4.2-6c.1-1-.1-2.5-.4-2.4l-.7.2m32.8 1.7c-2.8 2.2-2.6 5.7.5 6.7 1.9.6 4.7-1.5 4.7-3.4 0-.5-.3-.2-.7.5-1.1 2.5-4.9 2.3-5.6-.4-.4-1.4 1.2-3.5 2.2-3 .6.3.7 0 .2-.4-.5-.5-.7-.5-1.3 0M34 105a6 6 0 0 0-4 2c-.9 1-.9 1 .1 1.6 2.8 1.3 6.8.3 8.2-2l.3-.6-.9-.4-1.4-.6-.9-.1h-1.4m52.6.2c-.6.1-1.7.8-1.8 1-.1.8 2.6 2.7 4.4 3 1.8.4 5.1-.5 4.7-1.3-1-2-4.5-3.3-7.3-2.7M16 108.6c-1.6.5-3 .9-3.1.8-.5 0-.4.3.2 1l.6.6v-.5c0-.5.5-1 1-1 .3 0 1.2 1 1.6 1.6.4.5-.2 1.5-.8 1.4-.6 0-.6 0 .3 1 1 1.2 1 1.3 1 .6 0-.3.7-1.7 1.4-3.2 1.9-3.8 2-3.8-2.2-2.3m1.6.2c.1.3-.4 1.5-.7 1.7-.3.1-1.2-.8-1.2-1 0-.2.4-.4.8-.6 1-.4 1-.4 1.1-.1m23.8.7c-2.4.6-5.4 3.6-4.5 4.3.7.5 4.6.6 5 .1l.4-.2c1.2 0 4.2-3.4 3.4-3.9-.8-.5-3-.7-4.3-.3m37.7-.1c-1.8.4-1.9.5-1 1.7a7.1 7.1 0 0 0 7 3.1c1.8-.3 2-.5 1-1.8-1.5-2.3-4.5-3.6-7-3m22.1 2c-1.5 1.4-1.7 1.7-1 1.6.8-.2 4 3.3 3.9 4-.1.6 0 .5 1.2-.6.9-.8 1.1-1.3.4-.9-.4.3-4.2-3.2-4.2-3.7 0-.3.9-.9 1.2-.9.8 0 1.8 1.7 1.2 2-.4.3-.2.5.2.3.8-.4 1-2.1.2-3-.7-.7-1.4-.5-3.1 1.1m-78.8.4c.2.5 0 .8-2.4 3.3-.8.9-1 1-1.4 1-.5-.2-.5 0 .2.6.6.6 1.5 1 1 .4-.4-.3-.3-.6.4-1.4.4-.4 1-1 1.3-1.5.9-1 .9-1 .9 2.5 0 3.4.1 4.1.7 3.5l1.7-2c2-2.1 2-2.2 2.5-2.1.6.1.5-.1-.3-.8-.7-.6-.7-.6-.6 0 0 .4-2 2.9-2.5 3-.3 0-.4-.2-.2-3l.2-2.7-.7-.6c-.7-.8-.9-.8-.8-.2m32 .5c0 .4.6.6 2.4.9 2.1.3 2.1.4.8 1.1-2.2 1.3-4.2 4.3-3.2 4.9.5.3.7 0 1.3-1 2.8-5.3 9.3-5.3 12 0 .7 1.2 1 1.4 1.6.8.6-.7-1.4-3.5-3.5-4.7l-1-.6c0-.2.2-.2 2.3-.6 1.7-.3 2.1-.5 2-.9-.1-.3-.3-.2-2.6.1a23.6 23.6 0 0 1-10.6-.1c-1-.3-1.5-.2-1.5.1m-3.9 0a7.1 7.1 0 0 0-5.1 4.9c-.4 1.3 2.8 1.2 5-.1 2.1-1.3 4-4.4 2.9-4.8a7 7 0 0 0-2.8 0m19.6 0c-.3.2-.4.3-.3.5l.2.7c.8 2.7 4.3 5 7.2 4.6 1.1-.2 1.2-.3.6-1.7-1.2-2.9-5.4-5-7.7-4m28 1.9l-.7.5-1.2 1c-1.2 1-1.4 1.3-.8 1.1.5 0 .6 0 1.4 1l.8 1c.3.3 1.6 2.2 1.5 2.4-.1.5.4.1 2-1 1.7-1.4 1.7-1.5 1.3-2-.3-.6-.5-.6-.4 0 0 .4 0 .6-.8 1.2l-1 .7-.3-.5-.7-.8c-.7-.9.5-2.3 1.3-1.5.4.4.2-.3-.3-.9-.5-.5-.7-.7-.6-.2.1.2-.9 1.4-1.2 1.4-.3 0-1.4-1.6-1.3-1.8 0-.5 1.4-1.3 1.8-1.1.5.3.5 0 0-.6l-.3-.4-.6.5M28.1 117c-.3.5-.3.9 0 .5.5-.3.6-.3 1.3 0 .7.5.7.7-.1 2-1.7 2.6-2 3-2.5 3-.8-.1-.4.3 1.3 1.2l.6.5h.2l-.2-.4c-.4-.3 2-4.9 2.7-4.9.5 0 1.3.8 1.2 1.4v.5l.3-.5c.6-.7.6-.8-.8-1.7a64 64 0 0 1-2.3-1.4c-1-.7-1.3-.8-1.7-.2m64.9 1c-2.9 1.3-3.6 3.9-1.7 5.8 1.6 1.5 4.8 1 6-1 .3-.7-.1-.7-.7 0-2 2-5.2.7-5.2-2.1 0-1.7 2.2-3.2 3-2.1.5.4.7.2.3-.4-.5-1-.4-1-1.7-.3m-58.8 2.3l.2.4c.2.3.2.4-1.2 2.9-1 1.8-1.1 2-1.6 2.1-.4 0-.3.1.7.7 1.3.7 1.4.7 1.2.1-.2-.4.6-2.2 1.7-3.8l.4-.7c0-.3.4-.4.9-.3.5 0 .1-.4-.9-1-1-.5-1.4-.6-1.4-.4m53 1.2l-.3.2c-.5 0-.6.3-.1.5.3 0 .6.4.9 1.2l1 2.4c0 .2-.8-.1-3-1.2-2.4-1.3-2.4-1.3-3-1-.8.2-1.2.6-.7.6.4 0 .5 0 1.6 2.8.9 2 1 2 .7 2.4-.3.5-.1.5.8.2.7-.4 1-.7.4-.7-.4 0-.7-.5-1.6-2.5-.7-1.6-.6-1.6 2.7 0 3.3 1.6 3.7 1.6 3 0l-.7-1.4c0-.3-.3-.7-.4-1-.7-1.6-.8-2-.7-2.2.2-.1.2-.3.2-.3 0-.2-.6-.2-.7 0m-49.4 1.3c-1.6 1-1.3 2.2.7 3.8 1.5 1 .1 2.7-1.5 1.7-.7-.4-1-.9-.8-1.4.2-.7-.3-.4-.7.5-.6 1.2 2.8 2.3 4.2 1.3 1.3-1 1-2-.6-3.3-1-.8-1.3-1.4-.7-2 .8-.7 2.4 0 2.4 1.1v.6l.3-.4c1-1.2-1.7-2.8-3.3-1.9m5.6 1.8c.4.8-1.1 5.3-1.8 5.4-.4 0-.5 0-.3.3.4.3 2.2.9 2.3.6l-.1-.2c-.3 0-.3-.3.2-1.8.8-2.6 1.2-3.5 1.6-3.6.4-.1.4-.5 0-.5l-1.2-.3-1-.3.3.4m33.7.6c-2.7.6-3.6 3.2-2 5.6 1.3 2 5.6 1.1 6.2-1.5.6-2.8-1.4-4.8-4.2-4.1m1.5.7c1.7 1.1 2 4.4.5 5.2-1.7.9-3.5-.9-3.5-3.4 0-1.7 1.7-2.7 3-1.8m-31.6 0c.4.3.3.7-.4 4.4-.2.7-.3 1-.6 1.1-.5.2-.5.4.1.6.8.3 1.5.2 1.1 0-.4-.4-.4-.7 0-2.5.5-2.6.6-2.6 1.4.6.3 1.4.7 2.5.8 2.5 0 0 .8-.8 1.5-1.8 1.8-2.3 1.9-2.4 2-2.1v.5l-.4 1.9c-.2 1-.4 1.5-.6 1.6-.5.2 0 .6.7.6l.9.2c.5.3.7.1.3-.4l-.3-.4.3-1.5.4-2.2c.2-.8.5-1.5.8-1.5.5 0 .2-.3-.4-.4l-1-.2c-.2 0-.5.2-1.6 1.7-1.9 2.7-1.8 2.7-2.6-.3-.6-2.4-.6-2.4-1.8-2.6-.8 0-.9 0-.6.2m23 .8c-2.6.5-3.8 2.7-2.6 5 .8 1.7 4 2.3 5.6 1 .5-.4.3-.6-.4-.3-2.7 1.2-5.4-1.5-4-4 .7-1.5 3.7-1.8 3.7-.5l.1.3c.2 0 .3-1.3 0-1.4-.2-.2-1.7-.3-2.4-.1m-11.4 2.3a78 78 0 0 0-2 4.2l-.4.4.7.1c1 .1 1.4 0 .9-.2-1-.4-.1-1.7 1.1-1.7 1.5 0 2.5 1 1.6 1.6-.4.4-.2.5 1 .6 1.4.2 1.6 0 1.1-.4-.2-.2-.8-1.5-1.3-3-1.6-4-1.5-4-2.7-1.6m1.2 1.4c.4 1 0 1.3-1.2 1-.4-.1-.4-.2.1-1.3s.7-1 1.1.3"/>
</svg>
