<svg xmlns="http://www.w3.org/2000/svg" width="399.3" height="401" display="block">
  <g fill-rule="evenodd">
    <path fill="#fab700" d="M237 3.7c-.7 1.6-.7 98.2 0 99.8.4 1.2 5.6 1.3 50 1.3h49.5V140l-49.8.2-49.8.2-.2 127.2c-.1 70 0 128 .2 129 .4 1.8 4.4 2.7 4.4 1 0-.4 1.3-.8 3-.8 1.6 0 4.4-.5 6.2-1.2 1.8-.6 4.4-1.1 5.8-1.2 1.4 0 2.6-.4 2.6-.8s1-.8 2.4-.8c1.3 0 2.4-.4 2.4-.8s.9-.8 2-.8c1 0 2-.4 2-.8s1-.8 2.4-.8c1.3 0 2.4-.4 2.4-.8s.7-.8 1.6-.8c.9 0 1.6-.3 1.6-.7 0-.4 1.2-1 2.6-1.3a30 30 0 0 0 10-4.6c.2-.3 1-.6 1.9-.6.8 0 1.5-.4 1.5-.8s.7-.8 1.6-.8c.9 0 1.6-.4 1.6-.8s.7-.8 1.6-.8c.9 0 1.6-.3 1.6-.6 0-.8 4.6-3.4 5.9-3.4.5 0 1.5-.7 2.1-1.6.6-.9 1.6-1.6 2.2-1.6.5 0 1.4-.7 2-1.6.5-.9 1.6-1.6 2.4-1.6.8 0 1.4-.3 1.4-.7 0-.4 1-1.2 2.4-1.7 1.4-.6 3.1-1.9 4-3 .8-1 1.8-1.8 2.3-1.8.5 0 2.6-1.6 4.6-3.6 2-2 4-3.6 4.5-3.6a178.2 178.2 0 0 0 27.8-30.1c1.3-1.1 2.4-2.5 2.4-3.1 0-.6.9-2 2-3.1s2-2.2 2-2.5c0-.3.7-1.2 1.6-2.2.9-1 1.6-2.2 1.6-2.8 0-.5.4-1 .8-1s.8-.7.8-1.6c0-.9.3-1.6.8-1.6.4 0 1-.9 1.3-2 .2-1.1.8-2 1.2-2 .4 0 .7-.7.7-1.6 0-.9.4-1.6.8-1.6s.8-.7.8-1.6c0-.9.4-1.6.8-1.6s.8-.5.8-1.2.4-1.2.8-1.2.8-.7.8-1.6c0-.9.4-1.6.8-1.6s.8-.7.8-1.6c0-.9.3-1.6.7-1.6.4 0 1-1.3 1.2-2.8.3-1.5 1-2.8 1.3-2.8.5 0 .8-1 .8-2.4 0-1.3.4-2.4.8-2.4s.8-.7.8-1.6c0-.9.4-1.6.8-1.6s.8-.9.8-2 .4-2 .8-2 .8-1 .8-2.4c0-1.3.4-2.4.8-2.4s.8-1.3.8-2.8c0-1.5.3-2.8.7-2.8.4 0 1-2.3 1.3-5.2.3-2.9.9-5.2 1.3-5.2s.7-1.6.7-3.6.4-3.6.8-3.6.8-2 .8-4.2c0-2.4.4-4.7 1-5.3.8-.7 1-7.9 1-30.1 0-22.2-.2-29.4-1-30.1-.6-.6-1-3-1-5.3s-.4-4.2-.8-4.2-.8-1.6-.8-3.6-.3-3.6-.7-3.6c-.4 0-1-2.3-1.3-5.2-.3-2.9-.9-5.2-1.3-5.2s-.7-1.3-.7-2.8c0-1.5-.4-2.8-.8-2.8s-.8-1-.8-2.4c0-1.3-.4-2.4-.8-2.4s-.8-.9-.8-2-.4-2-.8-2-.8-.7-.8-1.6c0-.9-.4-1.6-.8-1.6s-.8-1-.8-2.4c0-1.3-.3-2.4-.8-2.4-.4 0-1-1.3-1.3-2.8-.2-1.5-.8-2.8-1.2-2.8-.4 0-.7-.7-.7-1.6 0-.9-.4-1.6-.8-1.6s-.8-.7-.8-1.6c0-.9-.4-1.6-.8-1.6s-.8-.5-.8-1.2-.4-1.2-.8-1.2-.8-.7-.8-1.6c0-.9-.4-1.6-.8-1.6s-.8-.7-.8-1.6c0-.9-.3-1.6-.7-1.6-.4 0-1-.9-1.2-2-.3-1.1-.9-2-1.3-2-.5 0-.8-.7-.8-1.6 0-.9-.4-1.6-.8-1.6s-.8-.5-.8-1c0-.6-.7-1.9-1.6-2.8-.9-1-1.6-2-1.6-2.2 0-.3-.9-1.4-2-2.5-1.1-1-2-2.5-2-3 0-.7-1-2-2.4-3.2-1.3-1-2.4-2.4-2.4-2.8a18 18 0 0 0-3.6-4.6c-2-2.1-3.6-4-3.6-4.5a178.2 178.2 0 0 0-27.3-25.4c-.5 0-1.5-.9-2.4-1.9-.8-1-2.5-2.3-3.9-2.9-1.3-.5-2.4-1.3-2.4-1.7 0-.4-.6-.7-1.4-.7-.8 0-1.9-.7-2.4-1.6-.6-.9-1.5-1.6-2-1.6-.6 0-1.6-.7-2.2-1.6-.6-.9-1.6-1.6-2.1-1.6-1.3 0-5.9-2.6-5.9-3.4 0-.3-.7-.6-1.6-.6-.9 0-1.6-.4-1.6-.8s-.7-.8-1.6-.8c-.9 0-1.6-.4-1.6-.8s-.7-.8-1.6-.8c-.9 0-1.6-.3-1.6-.6 0-.7-4.6-2.8-9.4-4.2-1.9-.6-3.4-1.4-3.4-1.7 0-.4-.7-.7-1.6-.7-.9 0-1.6-.4-1.6-.8s-1-.8-2.4-.8c-1.3 0-2.4-.4-2.4-.8s-1-.8-2-.8c-1.1 0-2-.4-2-.8s-1-.8-2.4-.8c-1.3 0-2.4-.4-2.4-.8s-1-.8-2.3-.8c-1.3 0-3.8-.5-5.7-1.2C249 4.5 246 4 244.4 4c-1.7 0-3.1-.4-3.1-.8 0-1.3-3.8-1-4.3.5"/>
    <path fill="#004c80" d="M170.7.6l-5.4.3v3.5c0 2 .4 3.6.8 3.6s.8 1 .8 2.4c0 1.3.4 2.4.8 2.4s.8.8.8 1.8.7 2.4 1.6 3c.9.6 1.6 1.7 1.6 2.3 0 1.4 7.5 8.9 9 8.9.6 0 1.6.7 2.2 1.6.6.9 2 1.6 3 1.6s1.8.4 1.8.8 1 .8 2.4.8c1.3 0 2.4.4 2.4.8 0 .6 1.6.8 4.2.6l4.2-.2.2-17.4.2-17.4-12.6.2c-7 0-15 .2-18 .4M126.9 12c0 .4-1 .8-2.3.8-1.3 0-2.5.3-2.6.6-.4.8-6 3.4-7.5 3.4-.7 0-1.2.3-1.2.7 0 .3-1.3 1.1-2.8 1.7-1.5.6-2.8 1.4-2.8 1.7 0 .4-.7.7-1.6.7-.9 0-1.6.4-1.6.8s-.6.8-1.3.8c-2.2 0-3.7 2.3-3.2 5 1 6 1.5 7.8 2.2 7.8.4 0 .7.7.7 1.6 0 .9.4 1.6.8 1.6s.8 1 .8 2.4c0 1.3.4 2.4.8 2.4s.8.5.8 1.2.4 1.2.8 1.2.8.7.8 1.6c0 .9.4 1.6.8 1.6s.8.7.8 1.5.5 2 1.2 2.5 1.2 1.4 1.2 2c0 .4.7 1.4 1.6 2 .9.6 1.6 1.7 1.6 2.4s.7 1.8 1.6 2.4c.9.6 1.6 1.5 1.6 2 0 .4.7 1.5 1.6 2.4L131 78c.6.5 1.6 1.7 2.3 2.6.6 1 1.7 1.7 2.3 1.7.6 0 1.7.6 2.4 1.4 1.7 2 5.4 4.2 6.7 4.2.6 0 1.6.7 2.2 1.6.6.9 1.8 1.6 2.6 1.6s1.4.4 1.4.8.5.8 1.2.8 1.2.4 1.2.8.7.8 1.5.8c.9 0 1.7.3 1.8.6.4.9 8 3.4 10 3.4 1 0 1.9.4 1.9.8s1 .8 2.4.8c1.3 0 2.4.4 2.4.8s1.6.8 3.6.8 3.6.4 3.6.8c0 .5 2.5.8 6 .8s6 .3 6 .8c0 .4 2 .8 4.4.8h4.4V70.4h-6c-3.5 0-6-.3-6-.8 0-.4-1.4-.8-3.2-.8-1.7 0-3.3-.3-3.5-.7-.3-.4-2.3-1-4.5-1.2-2.2-.3-4-.9-4-1.3 0-.5-.8-.8-1.8-.8s-2.4-.7-3-1.6c-.6-.9-1.8-1.6-2.6-1.6s-1.4-.4-1.4-.8-.3-.8-.8-.8c-2.7 0-21.6-17.1-21.6-19.6 0-.7-.4-1.2-.8-1.2s-1-.9-1.3-2c-.3-1.1-.8-2-1.2-2-.4 0-.7-.7-.7-1.6 0-.9-.4-1.6-.8-1.6s-.8-.7-.8-1.6c0-.9-.4-1.6-.8-1.6s-.8-.5-.8-1.2-.4-1.2-.8-1.2-.8-1-.8-2.4c0-1.3-.4-2.4-.8-2.4s-.8-1-.8-2.4c0-1.3-.4-2.4-.8-2.4s-.8-1.3-.8-2.8c0-2.5-.3-2.8-2-2.8-1.1 0-2 .4-2 .8m-71 46.8a82 82 0 0 0-10.6 12c0 .6-.4 1.2-.8 1.2s-.8 1-.8 2.4c0 1.3.4 2.4.8 2.4s.8.5.8 1.2.4 1.2.8 1.2.8.6.8 1.3c0 1.9 2.5 6.9 4.2 8.4.7.7 1.4 1.9 1.4 2.6 0 .7.4 1.3.8 1.3s.8.6.8 1.4c0 .8.7 2 1.6 2.6.9.6 1.6 1.6 1.6 2.1 0 .6.9 2 2 3 1 1.1 2 2.4 2 2.8 0 .4 1 1.7 2.4 2.8 1.3 1 2.4 2.4 2.4 2.8 0 1 2.8 4.4 5.5 6.8l4.5 4.4a127 127 0 0 0 16 14.7c3.3 3.1 4.3 3.8 5.4 3.8.5 0 1.5.7 2 1.6.6.9 1.5 1.6 2 1.6.6 0 1.6.7 2.2 1.6.6.9 1.8 1.6 2.6 1.6s1.4.4 1.4.8.9 1 2 1.3c1 .2 2 .8 2 1.2 0 .4.6.7 1.4.7.8 0 2 .7 2.6 1.6.6.9 1.8 1.6 2.5 1.6.8 0 1.5.3 1.6.6.5 1 9.1 5 11 5 1 0 1.7.4 1.7.8s.7.8 1.6.8c.9 0 1.6.4 1.6.8s1 .8 2.4.8c1.3 0 2.4.4 2.4.8s.9.8 2 .8 2 .4 2 .8 1 .8 2.4.8c1.3 0 2.4.4 2.4.8s.9.8 2 .8c1 0 2.1.3 2.4.7.2.5 3.3 1 6.8 1.4 3.5.3 6.4.8 6.4 1.2 0 .4 2 .7 4.4.7 2.4 0 4.4.4 4.4.8 0 .5 3.6.8 9.2.8s9.2.3 9.2.8c0 .4 1.6.8 3.6.8h3.6V140h-5.8c-3.2 0-9-.5-13-1.2-4-.6-8.4-1.2-9.8-1.2-1.4 0-2.6-.4-2.6-.8s-1.4-.8-3.2-.8c-1.8 0-3.2-.4-3.2-.8s-.9-.8-2-.8-2-.4-2-.8-1-.8-2.4-.8c-1.3 0-2.4-.4-2.4-.8s-.9-.8-2-.8c-1 0-2.1-.3-2.3-.7-.3-.4-2.1-1-4.1-1.3-2-.3-3.6-.8-3.6-1.2 0-.5-.5-.8-1.2-.8s-1.2-.4-1.2-.8-.7-.8-1.6-.8c-.9 0-1.6-.4-1.6-.8s-.7-.8-1.6-.8c-.9 0-1.6-.4-1.6-.8s-.6-.8-1.4-.8c-.8 0-1.8-.7-2.4-1.5-.5-.9-2.1-1.8-3.5-2.1a11 11 0 0 1-4.8-2.9 10 10 0 0 0-2.7-2.3c-.2 0-1.4-1-2.6-2a14.1 14.1 0 0 0-4.3-3c-1.3-.4-2.3-1-2.3-1.5 0-.4-2-2.7-4.6-5.1a270.8 270.8 0 0 1-10.4-10.4 34.5 34.5 0 0 1-5.2-6.4c-1.8-2-2.6-3.2-3.7-5.4-.7-1.2-1.5-2.2-1.8-2.2-.4 0-.7-.5-.7-1 0-.6-.7-1.6-1.6-2.2-.9-.6-1.6-1.8-1.6-2.6s-.3-1.4-.7-1.4c-.4 0-1-1-1.3-2.4-.3-1.3-.9-2.6-1.3-2.8-.4-.3-.7-1.2-.7-2 0-.9-.3-1.6-.7-1.6-.3 0-1.1-1.3-1.7-2.8-.6-1.5-1.4-2.8-1.8-2.8-.3 0-.6-.7-.6-1.6 0-.9-.4-1.6-.8-1.6s-.8-1-.8-2.4c0-4.7-3-3-14.2 8.4M18 112c0 .9-.3 1.6-.7 1.6-.4 0-1 1.3-1.3 2.8-.2 1.5-.8 2.8-1.2 2.8-.5 0-.8 1-.8 2.4 0 1.3-.4 2.4-.8 2.4s-.8.7-.8 1.6c0 .9-.4 1.6-.8 1.6s-.8.9-.8 2-.4 2-.8 2-.8 1-.8 2.4c0 1.3-.4 2.4-.8 2.4s-.8.9-.8 2c0 1-.3 2.1-.8 2.4-.4.2-1 2.6-1.3 5.2-.3 2.7-.8 4.8-1.2 4.8-.4 0-.7 1.8-.7 4s-.4 4-.8 4-.8 1.6-.8 3.5c0 2.1-.4 3.7-1 3.9-1.5.5-1.5 68.7 0 69.2.6.2 1 1.8 1 3.9 0 2 .4 3.5.8 3.5s.8 1.8.8 4 .3 4 .7 4c.4 0 1 2.1 1.2 4.8.3 2.6 1 5 1.3 5.2.5.3.8 1.4.8 2.4 0 1.1.4 2 .8 2s.8 1 .8 2.4c0 1.3.4 2.4.8 2.4s.8.9.8 2 .4 2 .8 2 .8.7.8 1.6c0 .9.4 1.6.8 1.6s.8 1 .8 2.4c0 1.3.3 2.4.8 2.4.4 0 1 1.3 1.2 2.8.3 1.5.9 2.8 1.3 2.8s.7.7.7 1.6c0 .9.4 1.6.8 1.6s.8.5.8 1.2.4 1.2.8 1.2.8.7.8 1.6c0 .9.4 1.6.8 1.6s.8.7.8 1.6c0 .9.4 1.6.8 1.6s.8.5.8 1.1c0 .6.5 1.6 1.2 2.1s1.2 1.7 1.2 2.5.4 1.5.8 1.5.8.5.8 1c0 .6.7 1.9 1.6 2.8.9 1 1.6 2 1.6 2.4 0 .4.7 1.2 1.6 1.8.9.6 1.6 1.6 1.6 2.2a4 4 0 0 0 1 2.2c2.2 2.5 3 3.6 3 4 0 .3 1.4 2 3.2 3.6 1.8 1.7 3.2 3.5 3.2 4 0 1.1 25.3 26.4 26.5 26.4.5 0 1.9 1 3.1 2.4 1.2 1.3 2.6 2.4 3 2.4.4 0 1.6.9 2.6 2s2.5 2 3.2 2c.7 0 1.8.7 2.4 1.6.6.9 1.4 1.6 1.8 1.6.4 0 1.4.7 2.4 1.6 1 .9 2.2 1.6 2.7 1.6.6 0 1 .4 1 .8s.8.8 1.7.8c.9 0 1.6.4 1.6.8s.9 1 2 1.3c1 .2 2 .8 2 1.2 0 .4.7.7 1.6.7.9 0 1.6.4 1.6.8s.7.8 1.6.8c.9 0 1.6.3 1.6.6s1.2 1.1 2.6 1.7l3 1.6c.6.7 5.7 2.6 8.2 3 1.2.3 2.2.8 2.2 1.2 0 .4.7.7 1.6.7.9 0 1.6.4 1.6.8s1 .8 2.4.8c1.3 0 2.4.4 2.4.8s.9.8 2 .8c1 0 2 .4 2 .8s1 .8 2.4.8c1.3 0 2.4.3 2.4.7 0 .6 7.1 2.3 13 3 1.6.3 3 .8 3 1.2 0 .4 2 .7 4.3.7 2.4 0 4.5.4 4.6.8.2.6 6.7 1 18.1 1.4l17.8.4V210.4h-6.8c-4 0-6.8-.3-6.8-.8s-3-.8-7.2-.8c-3.9 0-7.3-.4-7.6-.8-.3-.4-2.5-.8-4.9-.8-2.3 0-4.3-.4-4.3-.8s-1.6-.8-3.6-.8-3.6-.4-3.6-.8-1.2-.8-2.8-.8c-1.5 0-3-.4-3.2-.8-.3-.4-1.7-.8-3.2-.8-1.5 0-3-.3-3.2-.7-.2-.4-2.6-1-5.2-1.3-2.6-.3-4.8-.9-4.8-1.3s-.7-.7-1.6-.7c-.9 0-1.6-.4-1.6-.8s-1-.8-2-.8c-1.1 0-2-.4-2-.8s-1-.8-2.3-.8c-1.3 0-2.5-.3-2.6-.6a30 30 0 0 0-10.1-4.6c-1.4-.3-2.6-.9-2.6-1.3s-.7-.7-1.6-.7c-.9 0-1.6-.4-1.6-.8s-.6-.8-1.3-.8c-.7 0-1.9-.7-2.6-1.5-.7-.8-3.6-2.5-6.3-3.8-2.8-1.2-5-2.6-5-2.9 0-.3-.5-.6-1-.6-.6 0-1.6-.7-2.2-1.6-.6-.9-1.7-1.6-2.4-1.6s-1.8-.7-2.4-1.6c-.6-.9-1.6-1.6-2.2-1.6-.6 0-2-.9-3-2s-2.2-2-2.8-2c-.5 0-2-1-3.2-2.4a302.5 302.5 0 0 1-32.8-32.1c0-.5-1.3-2.1-2.8-3.6-1.5-1.4-2.8-3-2.8-3.7 0-.6-.7-1.6-1.6-2.2-.9-.6-1.6-1.6-1.6-2.2 0-.5-.7-1.4-1.6-2-.9-.5-1.6-1.6-1.6-2.3 0-.8-.4-1.6-.9-2a6 6 0 0 1-1.5-2.4c-1-2.6-6.4-2.9-6.4-.3"/>
  </g>
</svg>
