<svg xmlns="http://www.w3.org/2000/svg" width="399.8" height="391.8" display="block">
  <g fill-rule="evenodd">
    <path fill="#b39200" d="M180 .2l-6 .3-6.8.5a84.2 84.2 0 0 0-10.7 1c-2.1 0-3.8.2-3.8.3l-3.4.4c-1.8.1-3.4.3-3.5.4l-4 .5-4 .5-2.5.4a12 12 0 0 0-2.4.4l-3.4.4-3.5.5c0 .1-1 .3-2.1.4l-2.2.4-2 .4a9 9 0 0 0-2.1.4l-2.7.5-2.8.5-1.9.4c-1 .1-1.8.3-1.8.4l-1.9.4-1.8.3-2.5.6a13 13 0 0 0-2.4.5l-1.5.3-1.5.4-1.6.4c-.9.1-1.7.3-1.7.4l-2.2.5a10 10 0 0 0-2.1.5s-.8.3-1.7.4c-.8.1-1.5.3-1.5.4l-1.8.5-1.9.5-1.4.3-1.3.4c0 .1-.7.3-1.6.4l-1.6.4-1.7.5-1.8.5s-.6.3-1.3.4c-.7.1-1.3.3-1.3.4l-1.2.4c-.7.1-1.3.3-1.3.4l-1.8.5c-1 .1-1.7.4-1.7.5l-1.3.4c-.6 0-1.2.3-1.3.3l-1.5.5a6 6 0 0 0-1.5.5l-1.4.4-1.3.4-1 .4c-.6.1-1.1.3-1.1.4l-1.6.5-1.6.5-1.1.4c-.7 0-1.2.3-1.2.3 0 .1-.5.3-1.1.4l-1 .4c0 .1-.7.4-1.5.5l-1.5.5c0 .1-.5.3-1.1.4l-1 .4-1.2.4-1 .4-1.4.5-1.4.5-.8.3c-.4 0-.9.2-1 .3-.1.2-.7.4-1.2.5l-1.8.6c-.5.3-1.1.5-1.5.5l-.5.3-1 .4-1 .4-1.1.4c-.6.1-1.2.4-1.3.5a4 4 0 0 1-1.3.5l-1 .4s-.4.3-.9.4l-.9.3-1.2.5a4 4 0 0 0-1.3.5l-1 .4-1 .4-.8.4-1 .4-1.2.5-1.1.5-.9.3-.9.4-1.2.5a6 6 0 0 0-1.5.7c-.1.1-.5.3-.9.3l-.7.3c0 .1-.4.3-.9.4l-.8.4-1.2.5-1.2.5-.8.4c-1.4.4-1.4.4-1.2 4l.4 3 .5 4.4a37.7 37.7 0 0 0 .9 7c.1 1.5.3 2.8.4 2.8 0 0 .3 1.1.4 2.6.1 1.5.3 2.7.4 2.7l.5 3.3L4 77l.4 2.2c.1 1.2.3 2.3.4 2.3l.5 3 .4 3c.1 0 .3.8.4 1.8l.4 1.8.4 2c.1 1.2.3 2.2.4 2.2l.5 2.5.5 2.6.4 1.7c.1 1 .3 1.8.4 1.8l.4 1.6c0 1 .3 1.7.3 1.7l.5 2.5.5 2.4.4 1.4.4 1.6.5 2 .5 2 .4 1.5.4 1.6.4 1.6.3 1.5.5 1.8.5 2 .4 1.5.4 1.3c.1 0 .3.6.4 1.4l.4 1.4.5 1.7.5 1.8.4 1.3c.1.7.3 1.2.4 1.2l.4 1.3c.1.7.3 1.3.4 1.3 0 0 .3.7.4 1.7l.5 1.6c.1 0 .3.6.4 1.3l.4 1.3s.3.5.4 1.1l.6 2 .5 1.4c0 .4.2.8.3.8l.4 1.1c.1.7.3 1.2.4 1.2l.5 1.7.5 1.7s.2.3.2.7l.4 1c.2.2.4.8.5 1.4l.5 1.3c.1.1.4.8.5 1.4.1.7.3 1.2.4 1.2l.4 1 .4 1 .4 1c0 .6.3 1.3.4 1.5l.5 1.4.4 1c.1 0 .3.4.4 1l.4 1 .5 1c0 .6.3 1.2.4 1.4.2 0 .4.7.5 1.2l.4 1c.1 0 .3.4.4 1l.4.8.2.2c0 .5.7 2.6.8 2.6l.4.8.4 1 .4.8.3.9.5 1.2.5 1.1.4 1 .4.8.5 1.3.5 1.2.4 1 .4.8.4.8.4.8s.2.2.2.5l1.5 3.2.4 1 .4.8.5 1.1.5 1.2.4.8.4.8.4.7c.3 1 1.1 2.9 1.3 3 .1 0 .3.4.4.9.1.4.3.7.4.7.1 0 .2 0 .2.2a21.3 21.3 0 0 0 2 4.1l.4.8.4 1 .5 1c.1 0 .3.3.4.7.1.5.3.8.4.8l.4.8.5.9.5.8c.1.5.3.8.4.8l.4.8c.1.5.3.8.4.8l.5 1c.1.5.4 1 .5 1l.4.7.4.7.3.7.5.9c.2 0 .4.4.5.8.1.4.4.9.6 1.1l.4.7.1.3.5.6c0 .4.3.7.4.7l.5 1 .5 1 .4.6c0 .3.2.6.3.6l.3.5c0 .3.4.9.7 1.4l.6 1c0 .1 0 .2.2.2.1 0 .2.1.2.3l.3.6.8 1.3c.7 1.4 1.1 2 1.4 2.2.1 0 .3.3.3.6l.5 1c.2.1.4.5.5.8 0 .3.3.6.5.9l.4.6c0 .2.1.3.3.4.2 0 .3.3.3.4l.2.5c.2 0 .5.5.7 1l.5.8.4.6c.1.4.3.7.5.8l.2.4.5.8c.3.3.5.8.6 1 0 .3.2.5.3.5.1 0 .3.2.4.5.1.3.3.5.4.5l.5.9.5.8.3.4c0 .2.3.6.6 1 .2.3.5.6.5.8l.1.2c.1 0 .4.3.6.7l.6 1 .2.4.3.4c.2 0 .3.2.3.3l.7 1.2a96.7 96.7 0 0 1 3.7 5.4c.2.1.3.3.3.5l.3.4c.2 0 .3.2.3.4l.3.5.7.9.6.8.4.5c0 .2 0 .3.3.4.1 0 .3.2.3.4l.5.9c.4.4.6.8.6 1l.2.2 1 1.1c.3.7.7 1.2.8 1.2l.4.6.4.6.5.6.7 1c.2 0 .3.3.3.4 0 .2.2.4.4.5l.4.5c0 .2.1.3.2.3l.5.6.7 1 .7.8.3.5c0 .2.2.4.4.5.2 0 .4.3.4.5 0 .1.1.4.4.5.2.1.3.3.3.4 0 .2.7 1 1.4 1.8l.4.6.4.6c.8.8 1.6 1.7 1.6 2l.4.5 1.7 2 1.6 2 .4.6c0 .1.2.4.5.5l.5.6c0 .1.3.5.7.8l.6.8.6.8c.3.3.6.6.6.8l.8.8c.4.4.8.8.8 1l.6.7.6.7.7 1a72.7 72.7 0 0 1 4.3 5c.2 0 .7.6 1.1 1a101.3 101.3 0 0 0 6.5 7.3l1.9 2 2 2.1 2 2.2a685.2 685.2 0 0 0 34.2 32.6 5 5 0 0 0 1.3 1s.4.2.6.5l.8.8c.3.2.9.6 1.3 1.1l1 .8.8.7c.3.4.7.7.8.7.2 0 .4.2.5.4l.7.6c.2 0 .7.5 1 .8 1.6 1.4 2 1.7 2.2 1.7l.3.3c0 .2.4.5.7.6.5.3.8.6 2.5 2.2l.7.5.6.4c.6.6 1.5 1.3 1.7 1.3l.6.5c.2.3.5.5.6.5l.7.6c.5.5 1 .9 1.5 1.1.2 0 .6.4 1 .7 1.3 1.3 1.6 1.5 1.8 1.5l.5.4a7 7 0 0 0 2 1.5l.3.3c0 .1.2.3.5.4.2 0 .5.3.6.5 0 .1.2.3.4.3.1 0 .4.1.5.4l.4.4 1 .5c.3.4.7.6.7.6l.4.3 2.1 1.5.4.4.5.4c.2 0 .4.2.5.4l.5.4c.2 0 .4 0 .4.2.1.2.5.4.8.6l.7.5c0 .7 2.2 1 2.8.3l.9-.7a7 7 0 0 0 1-.7l1.6-1.2c.2 0 .4-.2.5-.4l.5-.4c.2 0 .4-.2.5-.4l.5-.4c.2 0 .4-.2.5-.4l.4-.4.8-.5a58.8 58.8 0 0 1 5-3.7c.6-.6 1-1 1.6-1.2l.9-.7c.3-.4.9-.8 1.2-1l1-.9.7-.4.4-.4.9-.7c.3-.1.6-.4.6-.5l.3-.2c.2 0 .4-.2.6-.5l.6-.4c.2 0 .3-.2.4-.3l.7-.6 2.4-2 .6-.5c.1 0 .5-.2.8-.6l.7-.6 1-.7 2.5-2.2 1.5-1.2.9-.8 1-.8 1-1 1-.7.8-.8.9-.7 1.2-1.1 1.2-1c.3-.4.7-.7.8-.7l.9-.8.9-.8 1.4-1.2a71.9 71.9 0 0 1 6-5.5l1.4-1.3a759.4 759.4 0 0 0 32.3-33.3l1.1-1.2 1-1 1-1.2.8-1a88.1 88.1 0 0 0 6-7.2l.8-.8c.5-.4.8-.8.8-.9l1.6-2 .4-.5.4-.6 1.8-2c0-.3 1-1.5 1.4-2l.6-.7c0-.2.2-.3.3-.3l.5-.7.7-.9c.2-.1.4-.3.4-.5 0 0 .1-.3.4-.4l.3-.5.3-.5c.9-1 1.3-1.5 1.4-1.9 0-.2.2-.3.3-.3.1 0 .3-.2.4-.5.1-.3.3-.6.5-.6l.3-.4c0-.2.2-.4.4-.5l.4-.5s.2-.5.6-.9l.5-.8.3-.4c.6-.6 1.5-1.9 1.5-2 0-.2.1-.3.3-.4.2 0 .3-.2.3-.4 0-.1.1-.4.3-.5l.7-.8c.1-.4.4-.7.6-.9l.4-.5c0-.2 0-.4.2-.4.2-.1.3-.3.3-.4 0-.2.2-.4.4-.5l.6-.9.7-.8.3-.5.2-.5c.2 0 .4-.4.6-.7l.6-.9.4-.5c0-.2 0-.3.2-.3l.5-.7.6-1 .2-.4.3-.4c.2 0 .3-.2.3-.3 0-.2 1.3-2 1.7-2.5l.3-.5.2-.4c.2 0 .5-.5.6-.9l.5-.7.5-.7c.1-.4.3-.7.4-.7l.3-.5c.1-.3.3-.5.4-.5l.5-.8.5-.8c.1 0 .3-.2.4-.5 0-.4.3-.6.3-.6l.5-.7c.1-.4.3-.7.4-.7l.5-.7c.1-.4.3-.7.4-.7.1 0 .3-.3.4-.7l.4-.7.5-.7.5-.8.4-.6.4-.6.4-.7c.1-.4.3-.7.4-.7l.5-.8.6-1 .3-.4c0-.2.1-.5.3-.7.2-.1.5-.5.5-.8l.4-.6c.1 0 .4-.5.5-1l.5-.7.3-.6.4-.6s.3-.3.4-.7c.1-.3.3-.7.5-.8a9 9 0 0 0 1.2-2l.4-.8.5-1 .6-.8.2-.6.4-.7c.2 0 .4-.5.5-.9l.4-.7.5-.9.6-1 .3-.6c0-.2 0-.3.2-.4.2 0 .4-.5.6-.9l.3-.8.5-.8.5-1c.1 0 .3-.3.4-.7l.4-.8.5-1 .5-1 .4-.7c.1-.5.3-.8.4-.8l.2-.2.4-1c.3-.3.6-1 .8-1.4.1-.4.3-.7.4-.7l.4-.8c0-.4.3-.8.3-.8.2-.2 1.6-3 1.6-3.3 0-.2 0-.2.2-.2.1 0 .3-.4.4-1l.4-.8.4-.7c.1-.5.3-1 .5-1l.5-1.1c.1-.4.3-.7.4-.7l.3-.8.5-.8.4-1 .5-1.2.4-.8c.1-.4.3-.7.4-.7l.3-.7c0-.4.2-.8.4-1l.6-1.3.5-1.2.4-.8.4-1 .3-.7.4-.8.5-1.2.6-1.5c.2-.1.3-.5.4-1 0-.3.2-.6.3-.6l.5-1.2.5-1.2.4-.8.3-1c.1 0 .3-.4.4-.9l.5-1s.3-.5.4-1.2l.5-1.1.4-1 .4-1 .3-.6c0-.3.3-1 .5-1.4l.6-1.7c0-.4.3-.8.3-.8l.5-1c.1-.7.3-1.2.4-1.2l.3-.8.5-1.3.5-1.5.4-1c.1 0 .3-.5.4-1.1l.4-1.1c.1 0 .2-.1.2-.3 0-.4.6-2.3.8-2.5l.4-1.1a4 4 0 0 1 .5-1.4l.4-1 .2-.8.5-1.5c.2-1 .5-1.6.5-1.6.1 0 .3-.5.4-1.1.1-.6.3-1 .4-1 0 0 .3-.6.4-1.3.1-.6.3-1.1.4-1.1l.5-1.7.5-1.7.4-1.1c.1-.7.3-1.2.4-1.2l.5-1.8.5-1.7.4-1.3c0-.7.3-1.3.3-1.3.1 0 .3-.6.4-1.3l.4-1.2c.1 0 .5-1.4.7-2.6 0-.4.2-.8.3-.8l.4-1.3c.1-.8.3-1.4.4-1.4l.4-1.4c0-.7.3-1.4.4-1.4 0 0 .3-.8.4-2l.5-1.9c.1 0 .3-.6.4-1.4l.4-1.3.4-1.6a9 9 0 0 1 .4-1.9l.5-2 .5-1.8.4-1.7a5 5 0 0 1 .4-1.6l.5-2.2.4-2.1c.1 0 .3-.8.4-1.7l.4-2 .4-1.8.4-1.8c.2-.1.8-3.8.8-4.6 0-.2 0-.5.2-.5 0 0 .3-.8.4-1.8l.4-2 .4-2c.1-1.1.3-2 .4-2l.5-2.8.5-2.7.3-2.4.4-2.3.3-1.3.7-5c.1 0 .3-1.2.4-2.6l.4-2.7s.3-1.3.4-2.8a72 72 0 0 0 1.3-11.3c.2 0 .9-6.8.9-8.2 0-.8-.3-1.1-1.4-1.4l-.8-.4-1.2-.5-1.2-.5-.8-.4-1-.4-.8-.3-.9-.5-1.2-.5c-.6-.1-1.1-.4-1.1-.4 0-.1-.4-.3-1-.4l-.8-.4-1.3-.5c-.7-.2-1.3-.5-1.3-.6l-.8-.3-1-.4-.9-.4-1-.4-1.3-.5a4 4 0 0 1-1.2-.5l-1-.3-.8-.4-.6-.3c-.4 0-1-.3-1.4-.5-.3-.2-1-.5-1.6-.6-.5-.1-.9-.3-.9-.4l-1-.4c-.7-.1-1.2-.3-1.2-.4l-1-.4-1-.4s-.5-.3-1.3-.4l-1.4-.6-1-.4a4 4 0 0 1-1.2-.4c-.2-.2-.8-.4-1.4-.5-.6-.1-1-.3-1-.4l-1.1-.4c-.6-.1-1.1-.3-1.1-.4l-1.2-.4c-.7-.1-1.2-.3-1.2-.4l-1.4-.5-1.3-.5-1.2-.4-1.2-.4s-.3-.2-.7-.2a6 6 0 0 1-1.4-.5c-.4-.3-.9-.4-1-.4-.6 0-2.2-.5-2.2-.6 0-.1-.5-.3-1.1-.4-.7-.1-1.2-.3-1.2-.4 0 0-.6-.3-1.3-.4-.7-.1-1.3-.3-1.3-.4l-1.1-.4a12 12 0 0 1-2-.6l-1.5-.5c-.4 0-1-.2-1.2-.4l-1-.2c-.4 0-1.9-.5-2-.6 0-.2-.5-.2-2.3-.6l-.7-.2-1.2-.4c-.7-.1-1.2-.3-1.3-.4l-1.8-.5-1.7-.5-1.4-.4c-.8-.1-1.4-.3-1.4-.4l-1.5-.4-1.6-.3-1.9-.5-1.8-.5c0-.1-.7-.3-1.5-.4a7 7 0 0 1-1.7-.4c0-.2-3.2-.8-3.8-.8-.3 0-.5 0-.5-.2l-1.4-.4c-.9-.1-1.5-.3-1.5-.4l-1.6-.3a7 7 0 0 1-1.7-.4l-2.5-.6a15 15 0 0 1-2.5-.5l-1.8-.3-1.7-.4c0-.1-.8-.3-1.8-.4l-2-.4-2.7-.5-2.7-.5-2.1-.4c-1.2-.1-2.2-.3-2.2-.4l-2.2-.4c-1.1-.1-2-.3-2.1-.4l-3.3-.5c-1.7-.1-3.1-.4-3.2-.4 0-.1-1.2-.3-2.6-.4l-2.5-.4-4.1-.5a33 33 0 0 1-4.1-.5s-1.5-.3-3.2-.4c-1.8-.1-3.3-.3-3.4-.4l-4-.4A193.4 193.4 0 0 0 225.6.6c-.2-.6-32.1-.8-45.6-.4m38 6.4l7.3.4c.3.1 2.7.3 5.5.4 2.8.1 5.3.3 5.5.4l5.3.5a58.8 58.8 0 0 1 8.6.9c1.7 0 3.2.3 3.4.4l4 .5a34 34 0 0 1 6.4.8l2.5.4 2.6.4 2.5.4 3 .5 2.8.5 2.1.4c1.2.1 2.2.3 2.3.4l2 .4c1 0 2 .3 2.1.4l2.5.5 2.2.5 2 .3 2 .4c0 .1 1 .4 2.2.5l2.3.5 1.6.4 1.7.4 1.6.4c.8.1 1.4.3 1.4.4 0 .1.2.2.5.2.6 0 3.5.6 3.8.8l1.5.4c.8 0 1.5.3 1.6.3l1.4.4 1.3.4 2 .5 1.9.5s.6.3 1.4.4a8 8 0 0 1 1.6.4l1.3.4 1.2.4 1.8.5 1.8.5 1.3.3 1.2.4 1.8.5 1.8.5 1.1.4 1.2.4 1.2.4 1.2.4 1.7.5 1.5.5.7.3c.4 0 1 .2 1.4.4l1.7.5 1.1.3c0 .1.6.4 1.3.5l1.4.5 1.1.4 1.2.4 1 .4 1.2.4 1.4.5 1.5.5 1 .4 1.2.4 1.2.4a19.4 19.4 0 0 1 2.5 1s.4 0 .7.2a23 23 0 0 0 2.6 1l1.5.5 1.3.5.6.3c.2 0 .7.1 1 .3.4.2 1 .5 1.3.5l.7.3c0 .1.4.3.9.4l1.5.6 1.3.5c.3 0 .6.2.6.3l1 .4 1.4.5 1.1.5a31.4 31.4 0 0 1 4.3 1.7 24 24 0 0 1 3.2 1.4c2.6 1.2 3.1 1.4 3.4 1.4.2 0 .3 0 .3.2l.5.3c.4 0 .4 3.6-.1 4.7l-.5 4.1-.5 4-.4 2.8-.4 2.8-.3 2.6-.5 2.7-.4 3.2-.5 3-.4 2.5-.4 2.3c0 .1-.3 1-.4 2.2l-.4 2.1-.5 2.6-.5 2.5-.4 2-.4 2.1-.4 1.9c0 .9-.3 1.7-.4 1.8l-.4 2.3-.5 2.3-.4 1.8-.4 1.9-.5 2.2-.5 2s-.3.8-.4 1.7c-.1.9-.3 1.6-.4 1.6l-.4 1.5-.4 1.6-.5 2-.4 2c-.1.2-.3.7-.3 1.2l-.4 1.4-.5 1.8-.4 1.3-.5 1.8-.5 2-.3 1c0 .6-.2 1.2-.4 1.6l-.6 2-.5 1.7-.4 1.3-.3 1.2-.4 1.2-.4 1.4c-.1.2-.4 1-.5 1.7l-.5 1.6-.4 1.2-.4 1.2-.4 1.1a4 4 0 0 1-.4 1.1l-.4 1.3a12 12 0 0 1-.5 1.8l-.4 1.3-.5 1.4c-.2.3-.4.9-.4 1.3l-.3.9-.5 1.2-.6 1.7-.3 1-.3.6-.6 1.7-.6 1.8-.3.6c0 .2 0 .6-.2 1l-.6 1.3a5 5 0 0 1-.3 1l-.5 1.2a4 4 0 0 1-.5 1.2l-.3.8c0 .4-.3 1-.5 1.4l-.5 1.3c0 .4-.2.7-.3.7l-.4 1-.5 1.3-.5 1.2a55.3 55.3 0 0 1-2.5 6l-.6 1.7c-.7 1.4-1 2-1.2 2.8-.1.4-.3.7-.4.7 0 0-.2.1-.2.3 0 .4-.7 2-2.7 6.2l-.8 1.8-.5 1.3a563 563 0 0 1-24.1 45.2c-.2 0-.3.2-.3.3l-.6 1-.6 1-.7 1-.6 1.1c0 .1-.4.8-1 1.5l-.8 1.4-.6.9-.6 1-.1.3c-.2.1-1.5 1.9-1.5 2.1 0 .1 0 .3-.2.3s-.3.2-.3.4l-.8 1.2-.8 1.2-.7 1-.7 1.2c0 .1-.1.3-.3.3-.1 0-.3.2-.3.4l-.5.8-.4.9-.3.3c-.2 0-.3.2-.3.3 0 .2-.4.8-1 1.4l-.8 1.3-.9 1.2a6 6 0 0 0-.9 1.4s-.1.3-.4.4l-.4.5-.5.9c-.4.3-.6.7-.6.9l-.3.3c-.2 0-.3.2-.3.3l-1 1.5-1 1.4-1.2 1.5-1.1 1.7-.3.4a50.4 50.4 0 0 1-5.6 7.2l-1.4 1.7a15.5 15.5 0 0 0-1.8 2.4 79 79 0 0 0-6 7.1 28.2 28.2 0 0 0-2.5 3.2 83.7 83.7 0 0 0-5.6 6.3l-3.2 3.6a646 646 0 0 1-40.3 39.7 86.4 86.4 0 0 1-6.7 6l-2.4 2a25 25 0 0 1-3 2.5 109 109 0 0 1-8.8 7.1l-1.7 1.4a11 11 0 0 1-1.9 1.4l-.5.5-.5.4c-.1 0-.7.4-1.3 1-.5.4-1 .8-1.2.8l-.4.4-.4.4c-.2 0-.9.5-1.7 1.2l-1.6 1.1-1.4 1.1-1.6 1.1c-.1 0-.2 0-.2.2l-.8.7-.8.5-1.2-.9-1.2-.9-.5-.3a17 17 0 0 0-2.7-2l-.4-.4c-.2-.2-.3-.4-.5-.4l-1.6-1.2a13 13 0 0 0-1.6-1.2l-1.8-1.4c-1-.9-1.9-1.5-2-1.5l-.4-.4-.4-.4a6 6 0 0 1-1.3-1 7 7 0 0 0-1.3-1c-.1 0-.3-.1-.5-.4a15.6 15.6 0 0 1-2.7-2.2 89.2 89.2 0 0 1-9.7-8l-1.6-1.3-1-1A529.5 529.5 0 0 1 104 292a79.7 79.7 0 0 0-5-6.2l-1-1.5-1.2-1.6-1.2-1.6-.4-.6L94 279a21.8 21.8 0 0 0-1.5-2l-.9-1.3-.9-1.2-1-1.4-1-1.5s0-.2-.2-.3c-.2 0-.3-.2-.3-.3 0-.2-.3-.6-.6-1l-.6-.8-.4-.5-.4-.4c0-.1-.3-.7-.8-1.3l-.7-1.2-.8-1.2a58.1 58.1 0 0 1-5-7.4l-.5-1-.3-.3c-.2 0-.3-.2-.3-.4a4 4 0 0 0-.6-1l-.6-1-.7-1-.7-1.1c0-.2-.2-.6-.6-1l-.5-1c0-.2-.2-.3-.3-.4-.2 0-.3-.2-.3-.3a4 4 0 0 0-.6-1l-.6-1-.6-1-1-1.6a32.5 32.5 0 0 0-2.1-3.7l-.6-1a31.6 31.6 0 0 1-2.1-3.7l-.8-1.4-1.1-2-1.8-3.1-.9-1.7-.4-.8A689.7 689.7 0 0 1 46.7 198a42.4 42.4 0 0 1-3.1-7l-1.3-3a20 20 0 0 1-.6-1.5l-.4-.8c-.1 0-.2 0-.2-.2s-.2-1-.6-1.6l-.6-1.5c0-.2 0-.5-.2-.7l-.5-1.2-.4-1.1-.5-1.3-.5-1.3-.4-1-.5-1.1a4 4 0 0 1-.4-1.1c0-.4-.3-.9-.4-1l-.3-.7-.3-1.1c-.3-.5-.5-1.2-.6-1.7l-.4-.9-.4-1.1-.5-1.5c-.2-.2-.4-.8-.5-1.3a6 6 0 0 0-.4-1.2 3 3 0 0 1-.3-.7c0-.3-.3-.7-.4-1l-.6-1.7a8 8 0 0 0-.5-1.3l-.4-1.3-.4-1.3-.3-1.1-.4-1.2a9 9 0 0 1-.5-1.6l-.5-1.4-.4-1.1a5 5 0 0 0-.4-1.2l-.4-1.4-.4-1.3-.5-1.5c-.1-.8-.4-1.6-.5-1.7l-.4-1.3-.4-1.2a7 7 0 0 1-.4-1.3 7 7 0 0 0-.4-1.3l-.4-1.7a10 10 0 0 0-.5-1.6 4 4 0 0 1-.3-1.1c0-.5-.3-1.1-.4-1.5-.2-.3-.4-1.3-.6-2.2l-.5-1.8-.4-1.4-.4-1.4a8 8 0 0 1-.4-1.6l-.4-1.6-.5-2-.4-1.9a8 8 0 0 1-.4-1.6l-.4-1.5-.4-1.6a8 8 0 0 0-.4-1.6l-.5-2.2-.5-2.3-.4-1.7-.4-1.8-.5-2.3-.4-2.2-.4-2-.4-2.1-.4-1.9-.4-2a30.9 30.9 0 0 1-1-5.2l-.4-2.3-.4-2.4-.4-2.1-.4-2.2s-.3-1.5-.4-3.2l-.5-3.3-.4-2.8a17 17 0 0 0-.4-2.6l-.4-2.8L8 59l-.5-4.1-.5-4.2c-1-1 0-2.3 2.3-3.1l.8-.4.8-.4a28.3 28.3 0 0 0 3-1.3 139 139 0 0 0 6-2.4l1.1-.5 1.6-.6 1.3-.6 1.6-.6 1.2-.4 1-.4a5 5 0 0 0 1-.4l1-.4 1.3-.5c.2-.2.8-.4 1.4-.5.5-.1.9-.3.9-.4l.7-.3c.4 0 1-.2 1.1-.4.3 0 .8-.3 1.3-.5l1.1-.4 1.4-.5c.6-.2 1.4-.4 1.6-.6l.8-.2.7-.3 1.8-.6 1.4-.5.8-.3c.4 0 1-.3 1.5-.5l1.4-.5c.3 0 .6-.2.8-.3a8 8 0 0 1 1.4-.5l1.5-.4 1.2-.5c.5 0 1-.3 1.2-.4l1.1-.4c.6 0 1-.3 1.2-.3l1.6-.5a8 8 0 0 0 1.5-.5l1.3-.4 1-.4 1-.3a7 7 0 0 0 1.4-.4l2-.6 1.6-.4 1.3-.5c.7 0 1.3-.3 1.4-.3l1.7-.5 1.7-.5a7 7 0 0 1 1.3-.4l1.4-.4 1.5-.4 1.4-.4 1.8-.5c.9-.1 1.7-.4 2-.5l1.5-.4c.7 0 1.5-.3 1.8-.4.3-.2 1-.4 1.5-.4l1-.3 2.2-.5 2.2-.5 1.6-.4 1.7-.4 1.6-.4a8 8 0 0 0 1.5-.4l2.3-.5c1.1-.1 2.2-.4 2.4-.5l1.8-.4c.8 0 1.6-.3 1.8-.4l2.5-.5a14 14 0 0 0 2.4-.4c0-.1 1-.3 2.1-.4l2.2-.4c0-.1 1-.3 2.1-.4l2.2-.4 2.8-.5 3-.5 2.5-.4c1.2-.1 2.2-.3 2.3-.4l2.6-.4a14 14 0 0 0 2.6-.3l3.9-.5 4.2-.5a39.9 39.9 0 0 1 6.6-.8l5.2-.5 5.2-.5 5.4-.4a632.3 632.3 0 0 1 49-.8m-17.8 3.8c0 .1 0 .5-.2.8-.2.2-.4.8-.4 1.2l-.4 1.4c-.2.3-.5 1.1-.6 1.7l-.6 1.8a7 7 0 0 0-.4 1.3c0 .4-.2.8-.3.8l-.3.7c0 .4-.2 1-.4 1.3l-.6 2a8 8 0 0 1-.5 1.6c-.2.2-2 .3-8 .3h-8l.8.5c.3.4.7.6.8.6l1.5 1c.7.7 1.5 1.2 1.8 1.4a28.9 28.9 0 0 1 3.2 2.3l1.5 1.1c.7.6 1.4 1 1.5 1l.4.4.3.3c.5 0 1.2 1 1 1.2-.2.1-.4.8-.6 1.5l-.5 1.5-.3.9c0 .4-.2 1-.4 1.3l-.4 1.5-.4 1.2-.5 1.6-.5 1.4-.4 1.1-.4 1.2c-1 1.3-.2 1.5 1.2.4a8 8 0 0 1 1.2-.9l1.1-.8 1.4-1 .8-.5a44.3 44.3 0 0 1 4.9-3.6c1.8-1.5 2-1.5 3-.7l1 .7c.2 0 .3.2.4.3 0 .2.2.3.3.3.1 0 .7.4 1.3 1l1.4 1A87.2 87.2 0 0 0 212 49c1 .7 1.4.4.8-.7l-.6-1.9-.6-2-.4-1.2a3 3 0 0 0-.3-.9l-.5-1.5-.4-1.4-.4-1.2-.4-1.2c-.2-.3-.6-2-.6-2.4 0-.3.1-.5.5-.6l.6-.5c0-.2.2-.3.3-.3.2 0 .6-.3 1-.6l.8-.6.5-.4c0-.2.3-.4.4-.4a6 6 0 0 0 1.3-.9 8 8 0 0 1 1.3-.8l1.6-1.2 2.8-2 1.3-1-7.9-.1a37 37 0 0 1-7.9-.3c0-.1 0-.5-.2-.7a9 9 0 0 1-.5-1.5l-.4-1.4-.5-1.5-.6-1.8c-.2-.3-.3-1-.4-1.3 0-.4-.2-.8-.3-.8 0 0-.3-.5-.4-1.2a4 4 0 0 0-.4-1.3L201 12c-.3-1.3-.9-2.3-.9-1.6M61.8 35c-.1.2-.1.8 0 .8.2 0 .4 1.2.5 2.6.1 1.5.3 2.7.4 2.8L63 44l.4 3 .3 2 .2 1.6-.6.4-.9.3-.2.2-.2.2a22.2 22.2 0 0 0-4.1 2l-8 3.9c-.3.1.5.4 1.8.5.8 0 1.5.2 1.6.3l2.8.5 2.8.5 2.1.4c1.2.1 2.2.3 2.3.4l1 .2c1.1.1 1 0 1.4 3l.4 3 .4 2.9.4 2.7.3 1.7c.3 2.9.4 3 1.5.7a172 172 0 0 1 5.8-10.9l.5-1.2 1.3.1c.7 0 1.4.2 1.5.3 0 0 1 .3 2.1.4l2.2.4 2.8.5 2.9.5 1.5.3c1.7.1 1.8.4-1.5-2.9a22.5 22.5 0 0 1-2.3-2.4l-2.8-3.1-3-2.9.4-.8.7-1.3.4-.8c0-.1 0-.2.2-.2l.5-1a72.3 72.3 0 0 0 5-9.3c.5-.9.2-.8-3 .8a54525 54525 0 0 0-11 5.3A213.8 213.8 0 0 1 61.7 35m272.7 2.6a95.2 95.2 0 0 1-3.4 3.8l-2.3 2.7-2.3 2.4-1.1-.5-1.2-.6a51.6 51.6 0 0 1-5.4-2.4l-1.6-.6c-.3 0-.6-.2-.6-.3l-.8-.4-.8-.4s0-.2-.3-.2c-.1 0-.8-.2-1.3-.5l-1.2-.4c-.1.1.4 1.3.5 1.3.1 0 .4.4.6.9a26.1 26.1 0 0 0 1.8 3.2c0 .3.3.7.4.8l.8 1.3a277.7 277.7 0 0 0 3.2 5.5l.4.7-1.2 1.3-1.3 1.5c0 .1-.5.7-1.2 1.3a38.6 38.6 0 0 0-6.7 7.5c0 .2 2.2 0 2.5-.2a9 9 0 0 1 1.8-.4l1.7-.4 2.5-.5 2.4-.5a9 9 0 0 1 1.8-.4c.8-.1 1.7-.3 1.9-.5.5-.3.9 0 1.6 1.3a182.5 182.5 0 0 0 5.5 9.7c1.2 2.5 1.9 2.8 1.9.9 0-.6 0-1.2.2-1.3l.5-4.8a39.9 39.9 0 0 1 .7-6c0-1.7.1-2 .7-2l.7-.2 1.8-.4 1.8-.4 2.4-.5 2.5-.5 1.7-.4 1.8-.4 1.2-.3 1-.1-.5-.4-1.2-.6a32.3 32.3 0 0 1-4.7-2A164.8 164.8 0 0 1 337 51l-1.3-.6.2-2 .2-2.2c.1 0 .3-1.7.4-3.6l.4-3.5c.2-.1.5-4.3.3-4.3l-2.6 2.7M192.8 54c0 .1-2.2.3-4.8.3a150.8 150.8 0 0 0-23.9 2c-1.5 0-2.9.2-3 .3l-3.6.5-3.4.5-2.4.4-2.2.4-2.2.4-2.2.4-2.5.5a14 14 0 0 0-2.5.5l-1.6.3-1.7.4-2.2.5-2.4.5-1.5.4a7 7 0 0 0-1.4.4l-1.5.4-1.7.4-2 .5-1.7.5-1.5.4-1.4.4-1.3.3a7 7 0 0 0-1.3.4l-1.7.5-2 .6c-.3.2-1 .3-1.4.4-.4 0-.9.2-1 .3l-1.4.5-1.5.5-1.2.4-1.2.4-1.1.4-1.2.4a8 8 0 0 1-1.5.4l-1.5.5a6 6 0 0 1-1 .4l-1.4.6-.8.2-.8.3-1.6.6-1.2.5-.8.3c-.3 0-1 .3-1.4.5l-1 .4-.8.3c-.4.2-1 .5-1.4.5l-1.2.4a24.6 24.6 0 0 1-4.4 1.9l-2.8 1.2a100.8 100.8 0 0 0-9.2 4l-1.2.5-.8.4.1 1.4a25 25 0 0 1 .7 5c.1 1.8.3 3.4.4 3.5l.3 2.8.4 3c.1.3.4 1.9.5 3.6l.5 3.2c.1 0 .3 1.1.4 2.4l.4 2.4.4 2.2.4 2.1.5 2.8.5 2.6.4 1.8c0 1 .3 1.8.4 1.9 0 0 .3 1.1.4 2.3l.5 2.4.4 1.5.4 1.6.4 1.6.4 1.4.2.6c0 .6.5 2.9.8 3.5l.4 1.6c.1.7.3 1.2.4 1.2l.3 1.3.4 1.5.5 1.8.6 1.8.3 1.3.4 1.2.5 1.7.5 1.6.3.7c0 .4.2 1 .4 1.3l.5 1.6c.1.7.3 1.2.4 1.3l.4 1.4.5 1.3c.1 0 .3.3.3.7l.4 1.4.5 1.3.4 1 .4 1.2.6 1.7.4 1 .2.6.6 1.3.4 1 .5 1.4.5 1.1.2.6c0 .4.3 1 .6 1.6.3.6.6 1.3.6 1.6l.3.5.2.4c0 .2.2.8.5 1.3l.5 1.2.8 1.8.8 1.7 1.4 3.4A430.6 430.6 0 0 0 112 220l.5.6c.2 0 .3.3.3.4 0 .2.3.6.6 1l.6 1 .8 1.3c1.6 2.4 1.7 2.6 1.7 2.9l.3.3c.2 0 .3.2.3.3 0 .2.4.7.8 1.3l.8 1.1.8 1.3 1.1 1.6 1.1 1.6.9 1.2.9 1.3.9 1.3.1.3 1.2 1.5a24.7 24.7 0 0 0 1.8 2.3l1.2 1.6 1.2 1.6 1.3 1.7a15.5 15.5 0 0 1 1.8 2.3 48.9 48.9 0 0 1 4 4.7l2 2.6a83.8 83.8 0 0 0 6 6.7l3.8 4.2a552.8 552.8 0 0 0 22.9 22.1 131.8 131.8 0 0 1 6.9 6 41.1 41.1 0 0 1 4 3.3c.2 0 1 .6 2 1.4l1.8 1.5 1.7 1.3a17.4 17.4 0 0 0 2.1 1.6 51.1 51.1 0 0 0 6.9 5.1 17.8 17.8 0 0 0 3 2.3c.2.2.4.1 1.3-.5l1.1-.8a57.8 57.8 0 0 0 5-3.7l.9-.6.4-.4.5-.4 1.8-1.3a10.8 10.8 0 0 1 2-1.6l1-.8a36.7 36.7 0 0 0 3.7-3l2.1-1.7a25 25 0 0 1 2.2-1.8c.2 0 1.4-1 2.7-2.3l2.6-2.2 4-3.5a97.7 97.7 0 0 1 5-4.6 365.8 365.8 0 0 0 30.3-32.3 15 15 0 0 0 1.4-1.9l.7-.8.7-.7a30.7 30.7 0 0 1 2.5-3.3l1-1.5a47.8 47.8 0 0 1 4.6-6.3c.4-.4.7-.8.7-1l.3-.3.3-.3.9-1.3.8-1.3s.4-.7 1-1.3a8 8 0 0 0 .8-1.2c0-.1.4-.8 1-1.5l1-1.5.6-1c.4-.6.7-1 .7-1.2l.6-.9.6-1c0-.2.1-.3.2-.3l.4-.4c0-.3.4-.8.7-1.1l.5-.9.7-1.1.7-1.1c0-.2.8-1.5 1.3-2.2l.5-.8a60 60 0 0 1 2.6-4.7l.8-1.5.9-1.5 1.7-3.2a322.2 322.2 0 0 0 18.8-44l.4-1.1.5-1.5.5-1.5.4-1.1.4-1.2.4-1.7.7-2 .3-1.5.3-.9.4-1.2a6 6 0 0 1 .4-1.3l.4-1.6.5-2c.2-.3.4-1 .5-1.7.1-.7.3-1.5.5-1.8l.4-1.7c0-.6.2-1.1.3-1.2.2-.3.8-3.1.8-3.8l.1-.5.5-1.6.3-1.7.5-2.3.5-2.5.4-2a9 9 0 0 1 .4-1.8l.4-2 .4-2 .5-3 .5-3.1.4-2.6c0-1.3.3-2.4.3-2.5.1-.1.3-1.4.4-2.9l.4-2.8.5-4.3a59.8 59.8 0 0 1 .8-7l.2-2.3-.7-.3a54.7 54.7 0 0 0-5.5-2.5l-.6-.3c-.4 0-1-.3-1.3-.5l-3.2-1.3a34.3 34.3 0 0 1-4.3-1.8l-2.7-1.1a18.8 18.8 0 0 0-2.9-1l-1-.4-1-.4-1-.4a8 8 0 0 1-1.3-.5c-.2-.2-.8-.4-1.4-.5l-1.1-.4-1.2-.4c-.5-.1-.9-.3-.9-.4l-.7-.3c-.4 0-1-.2-1.4-.4l-1.6-.6-1.3-.4-1.4-.4-1.2-.4c0-.1-.4-.3-.8-.3s-1-.3-1.2-.4l-1.9-.6-1.4-.5-1.4-.4a7 7 0 0 1-1.5-.4 9 9 0 0 0-1.7-.5 9 9 0 0 1-1.6-.5l-1.4-.4-1.4-.3-1.4-.4-1.4-.4-1.8-.5-2-.5-1.6-.4a6 6 0 0 1-1.4-.4l-1.6-.4a8 8 0 0 1-1.7-.4l-2.2-.5-2.1-.5-2-.3a6 6 0 0 1-1.6-.4l-2.5-.5-2.7-.5-2-.4-2.2-.4c0-.1-1.1-.3-2.3-.4l-2.4-.4-3.4-.5-3.5-.5-3-.4c-1.6-.1-2.9-.3-3-.4a30 30 0 0 0-3.7-.3l-4-.4c-.4-.2-7-.6-13.5-.8a145 145 0 0 0-18.4-.3m17 6.6a89.2 89.2 0 0 1 9 .5 138.7 138.7 0 0 1 20 2l2.8.4 3.2.5 3 .5 2.2.4 2.2.4 2 .3 2 .4c.2.1 1.2.4 2.4.5l2.2.5 1.9.4c1 .1 1.7.3 1.9.4l2 .5 2 .5 1.7.4 1.5.4 1.5.4 1.4.3 1.8.5 2 .5 1.4.4 1.3.4 1.3.4 1.3.4 1.7.5 1.8.5 1.2.4 1.2.4 1 .3 1.5.5 1.8.6c.6 0 1.2.3 1.2.3l1 .4 1.1.4 1.5.5a8 8 0 0 1 1.4.5l1 .4 1.4.5.9.3.7.3 1.6.6 1.3.4 1 .4 1.4.6.6.2 1 .4 1.3.5 1.5.5c1.3.6 2 1 2.7 1.2a45.8 45.8 0 0 1 5.7 2.4l1.3.5 1.3.6c.5.2.6.3.5.7l-.3 2.5-.2 2.4c-.1.2-.4 2-.5 3.8l-.5 3.8-.4 2.7-.4 2.4c0 .1-.3 1.2-.4 2.5a15 15 0 0 1-.4 2.4l-.5 2.8-.5 2.7-.4 2c-.1 1.1-.3 2-.4 2.1l-.3 1.7a13 13 0 0 1-.4 1.9c-.1.2-.4 1.2-.5 2.3l-.5 2.2-.4 1.6a8 8 0 0 1-.4 1.7l-.5 2-.5 2.1-.4 1.6c-.1.8-.3 1.5-.4 1.5l-.4 1.3-.4 1.5-.4 1.8a12 12 0 0 1-.5 1.7l-.4 1.3a7 7 0 0 1-.4 1.3l-.4 1.3a10 10 0 0 1-.4 1.3l-.5 1.7-.6 1.8-.4 1.3c0 .4-.2.7-.3.7l-.3.8c0 .4-.2 1-.4 1.3l-.6 1.8a15.6 15.6 0 0 1-.8 2.5l-.3.7-.5 1.5-.5 1.3-.4 1c0 .3-.3 1-.5 1.4l-.4 1-.3.9-.6 1.3c0 .4-.2.9-.3 1.1-.2.2-.4.8-.5 1.3l-.4 1-.4.7a41.3 41.3 0 0 1-1.8 4.4 34.6 34.6 0 0 1-2 4.6 229.2 229.2 0 0 1-8.2 16.4 132.3 132.3 0 0 1-6.8 12l-1.6 2.9a2 2 0 0 0-.4.7l-.2.2-.2.2-.6 1a40.4 40.4 0 0 0-3.3 5.4l-.3.3c-.2.1-.3.3-.3.4l-.9 1.4-.9 1.2-.8 1.2-.8 1.2a25.8 25.8 0 0 1-2.5 3.5l-.9 1.3-.9 1.2c0 .1-.4.8-1 1.5a10.8 10.8 0 0 0-1.4 1.9l-1.6 2a162.6 162.6 0 0 1-6.3 7.9 36.8 36.8 0 0 0-2.6 3l-.6.8a72.2 72.2 0 0 1-5.5 6.3 396.6 396.6 0 0 1-36.2 34.4l-2.1 1.7a130.5 130.5 0 0 1-9.9 7.6c-3.2 2.6-2.9 2.6-5.2.7a8.7 8.7 0 0 0-1.7-1.2l-.4-.4-.4-.4c-.1 0-.9-.5-1.7-1.2l-1.7-1.3-1.7-1.3-1.7-1.3c-.1 0-.4-.2-.6-.5l-.5-.4-1.6-1.3a35.4 35.4 0 0 1-4.8-4l-2.4-2a89.2 89.2 0 0 1-7-6.2 442.3 442.3 0 0 1-28.3-29.2l-2-2.3a30.1 30.1 0 0 1-2.7-3.2c-.2 0-.3-.2-.3-.3l-1-1.4-1-1.2-.4-.6a45.4 45.4 0 0 1-4.2-5.4 9.6 9.6 0 0 1-1.3-1.8l-.3-.3-.3-.3c0-.2-.2-.6-.6-1l-.5-.8-.4-.5-.4-.4a6 6 0 0 0-.9-1.4l-.9-1.3-.3-.4-.3-.3-.5-.8-.4-.9-.3-.3c-.2 0-.3-.2-.3-.4 0 0-.4-.7-1-1.3l-.8-1.3-.6-1-.6-1c0-.1-.1-.3-.3-.3l-.3-.3c0-.1-.2-.6-.6-1a6 6 0 0 1-.5-1l-.7-1-.7-1.2-.5-.9c-.6-.9-1.2-1.8-1.5-2.6-.1-.3-.3-.5-.4-.5l-.5-.7-.7-1.4a26 26 0 0 1-1.4-2.2l-.8-1.4a63.6 63.6 0 0 0-3-5.6 25.3 25.3 0 0 1-2.1-4.2 17.8 17.8 0 0 1-1.8-3.5l-.4-.8-.4-.8a22.6 22.6 0 0 1-1.8-3.5l-.3-.6a214.6 214.6 0 0 1-9.9-24.2l-.4-.9-.4-1.1a8 8 0 0 1-.5-1.5l-.5-1.4-.4-1.1-.4-1.1-.5-1.6-.4-1.5-.4-1.2-.4-1.2-.4-1.3a7 7 0 0 0-.4-1.2l-.5-1.7-.5-1.7-.4-1.3-.4-1.4-.4-1.5-.3-1.5-.5-1.7-.5-2-.4-1.5-.4-1.6-.4-1.6a6 6 0 0 0-.4-1.4L82 129l-.5-2.2-.4-1.8-.3-1.8-.5-2.5-.5-2.5-.4-2-.4-2.1c-.1-.1-.3-1.1-.4-2.3a17 17 0 0 0-.4-2.4l-.5-3.2-.5-2.8-.4-2.7-.4-2.9a37.4 37.4 0 0 1-.7-6.2c-.1 0-.3-.8-.3-1.6l-.1-1.5.9-.6 1.2-.6a134 134 0 0 1 17.3-7l.6-.3 1.4-.5a6 6 0 0 0 1.4-.5 4 4 0 0 1 1-.4c.4 0 .8-.2 1-.3l1.3-.5 1.4-.5 1.2-.4a4 4 0 0 0 1-.4l1.5-.5c.8-.1 1.5-.4 1.6-.5l1-.3 1.5-.5a7 7 0 0 1 1.4-.4l.7-.3 1.7-.5 1.7-.5 1.4-.4c.7-.1 1.3-.3 1.3-.4l1.2-.4c.7-.1 1.3-.3 1.3-.4l1.8-.4 2.2-.6c.4-.2 1-.4 1.5-.4l1-.3 1.7-.4 1.5-.4 2-.5 2.3-.5 1.7-.4 1.7-.4 2.3-.5c1.1-.1 2.1-.4 2.3-.5l2-.4c1 0 1.9-.3 2-.3.1-.1 1-.3 2.1-.4l2-.4 3.1-.5 3.4-.5 2.8-.4a13 13 0 0 0 2.6-.4l3-.4 3.6-.4a126.2 126.2 0 0 1 12-1c.4-.4 17.2-.6 27.9-.3M158.5 69a69.3 69.3 0 0 1-4.5 3.6l-2 1.5c-.2 0-.4.2-.6.5l-.5.5-1.8 1.3-2.1 1.9a92.4 92.4 0 0 0-7.4 6.4 503.2 503.2 0 0 0-17.6 18 91.7 91.7 0 0 0-6.2 7l-3.5 4.4-1.4 1.8c0 .1-.5.9-1.2 1.7-.7.8-1.3 1.6-1.3 1.8l-.2.2c-.1 0-.3.2-.4.5a417 417 0 0 0 19.5 20c.2 0 1.1-.7 1.8-1.3l.5-.4 1.8-1.3 1.8-1.5c.2 0 1.1-.8 2.1-1.7a22.5 22.5 0 0 1 2.8-2.3l.8-.7a53.9 53.9 0 0 0 6-5 604.2 604.2 0 0 0 22.8-23.3 39.3 39.3 0 0 0 4-4.7 51 51 0 0 1 3.5-4.3l1.3-1.7 1.3-1.7.3-.5.7-.7.7-1c.3-.4.2-.5-9.5-10.2L160 68a7 7 0 0 0-1.5 1m77.7 4c-2.7 2.6-4.9 4.9-4.9 5 0 0-2.1 2.3-4.8 4.9l-4.8 5 1 1.3 1.2 1.5c0 .2.7 1 1.4 1.8.7.9 1.3 1.6 1.3 1.8l.4.4.4.4 1.5 1.9 1.8 2.2a163.2 163.2 0 0 0 6.1 7 576.9 576.9 0 0 0 25 24.5 178.7 178.7 0 0 0 16.8 13.8c.7 0 4.7-3.3 4.7-3.8l.5-1c.4-.6.5-.7.5-3.4a170.5 170.5 0 0 0-1.4-19.4l-.5-2.8a17 17 0 0 0-.5-2.7l-.4-1.5-.4-1.6a6 6 0 0 1-.4-1.4l-.4-1.4-.4-1.3c-.4-1.3-1-2.5-1.3-2.5-.1 0-.2 0-.2-.2a451.5 451.5 0 0 0-18.8-18.7 55.1 55.1 0 0 0-6-5.2l-2-1.5a40.2 40.2 0 0 0-4-3.2 21 21 0 0 0-1.6-1.4l-2-1.5c-1-1-2.5-2-2.7-2-.1 0-2.4 2.2-5 5M267 84.6l-1.7 1.7 1.6 1.8 4.4 4.5 2.7 2.8 1.8-1.7c1-1 1.7-1.9 1.7-2l-4.4-4.5-4.3-4.4-1.8 1.8m-139 3.3a74.2 74.2 0 0 0-4.4 4.6c0 .1.7 1 1.5 1.8l1.6 1.5 4.5-4.5 4.5-4.5-1.6-1.6-1.7-1.6L128 88m-68.5 6c.1 1.4-.6 2.6-1.7 2.7l-.8.3c0 .1-1.2.3-2.6.4l-2.8.4s-1.3.3-2.7.4a12.2 12.2 0 0 0-3.2.6 19.1 19.1 0 0 0-5.4 1.2c-.5 0-3 2.4-3.5 3.4l-.6 1.3c-.3.5-.3 5.5 0 5.6l.3 1.2c.4 3.3 3.8 6.7 6.8 6.7l1.4.2c.3.2.4.2.7 0l1.2-.2a67.3 67.3 0 0 0 10-1.2c1.4-.1 2.6-.3 2.7-.4.1-.2 1.4-.2 1.9 0l.7.4c.4.2 1.2 1.8 1.2 2.3 0 .4 0 .5.3.3.3-.3.4-1.3.1-1.5 0 0-.3-1.3-.4-2.7l-.4-2.8-.2-.9c0-.6 0-.8-.4-.8s-.5.3-.2.5c.8.5-.3 3-1.4 3.2-.4 0-.7.2-.7.2 0 .1-1.5.4-3.3.5l-3.5.5c-.1.1-1.4.3-2.9.4l-2.8.5c-.3.2-4.2.2-4.3 0 0-.2-.3-.3-.6-.3-.5 0-3-1.8-3-2.2l-.5-.9c-.3-.4-.6-1.3-.7-2l-.4-1.6c-.3-.4-.3-1.6 0-1.8l.3-1c0-.5.3-1.1.6-1.4l.5-.8.3-.4 1-.5c.3-.3 1-.5 1.4-.6a3 3 0 0 0 1-.3l2-.4 2-.4 3.4-.5 3.6-.5 2.8-.3 2.8-.1.5.6c.4.3.6.8.7 1.5 0 .6.2.9.4.9.4 0 .2-2.7-.2-3.6l-.4-2.9-.4-2.6-.2-.9c0-.4 0-.6-.2-.6s-.3.2-.2 1m305.3 4.5c-.2.7-1.6 2.1-2 2.1l-1 .3c-.2.2-1.3.5-2.2.6a9 9 0 0 0-1.8.5l-1.4.4-1.6.4-2.3.5-2 .5-1.6.4-1.6.4a7 7 0 0 1-1.6.4c-.7 0-1.5.3-1.7.4l-2 .5-2 .4-1 .3c-.9.2-1.2.8-.5 1a45 45 0 0 1 5 3.2l.9.5 1 .7c.2 0 .9.5 1.5.9l1.9 1.2.9.5c.1 0 .3.1.3.3l.3.3 1.1.5 1 .6 1.2.8a43 43 0 0 0 5.6 3.5c.5 0 1.9 1.8 2 2.5.3 2 .8 1.6 1-.8 0-1 .2-1.7.3-1.7l.3-1.8.2-2c.2-1-.6-.5-.8.5-.6 2-2 2.2-4.5.5l-1-.7-1-.6-1-.6c-.2 0 0-1.7.1-2 .1-.1.3-1.4.4-3a14 14 0 0 1 .6-3.6c0-1 .3-1.3 1.9-1.6l1.6-.4a7 7 0 0 1 2-.3c2-.1 2.4.1 2.4 1.8 0 .7 0 .9.3.9.4 0 .4-.3.7-2.6 0-1.5.3-2.7.3-2.7l.3-1.5.3-2.3c.1-1-.6-1-.8 0m-10.5 10.2l-.4 2.5c-.1.1-.3 1-.3 2l-.2 1.8-.6-.4a3 3 0 0 0-.8-.5l-1.2-.8-1.3-.8-.8-.5-.9-.5c-.1 0-.2 0-.2-.2l-.2-.2-.9-.5-1.1-.6c-.3-.1-.5-.3-.5-.4 0-.1-.2-.3-.5-.3-.4-.2-.4-.2 0-.3l.5-.2 2-.5 2-.5 1.5-.4 1.6-.4 2.4-.5-.1 2.2m-133.7 22.3l-19.5 19.5 4.5 4.4 4.4 4.5 19.6-19.6 19.6-19.6-4.4-4.3a74.7 74.7 0 0 0-4.6-4.4s-9 8.8-19.6 19.5m-64.3-15a75.8 75.8 0 0 0-4.4 4.6c0 .3 104 104.3 104.2 104.3 0 0 2.2-2 4.6-4.5l4.4-4.4-52.1-52.1-52.3-52.2-4.4 4.4M63.4 120c-.2.1-.3.3-.2.9.1.9-.2 3-.5 3-.1 0-.2 0-.2.2 0 .7-1 1.3-2.4 1.6l-1.6.3-2 .4-2.1.4-2.6.5a15 15 0 0 0-2.4.5s-1 .3-2.1.4l-2 .4-2 .3-1.8.1-.6-.6c-.5-.5-.8-1-.9-1.6 0-.8-.1-1-.4-.7-.3.2-.3 1.2 0 1.4l.3 2 .4 2.1.4 1.8c.2 1.2.3 1.4.5 1.2.4-.2.4-1.1 0-1.5-.1-.1-.1-.3 0-.4l.3-.6c0-.6 1.1-1.3 2.1-1.5l1.2-.2 1.8-.4 2-.4c.3-.1 1.5-.4 2.8-.5l2.6-.5 1.8-.4c1-.1 1.8-.3 1.9-.4l1.1-.2c1.2-.2 1.2 0-1 2.5a25.2 25.2 0 0 0-2.4 2.8l-.5.7-1.1 1.4-1.1 1.3-.7.8c-.4.3-.7.7-.7.8l-1.7 2.1a20.4 20.4 0 0 0-2.3 2.9 39.3 39.3 0 0 0-4.2 5.1s.2.1.2.3c0 .3.4.4.7.1l2.6-.5 2.7-.5 2-.4 1.9-.4 2-.4 2.1-.4 2.6-.5 2.4-.4c.2-.3 3.7-.7 4.4-.5.9.1 1.4.8 1.6 1.8.3 1.4 1 1.4.8.1l-.3-1.1-.5-2.6a18.7 18.7 0 0 0-.7-3.5c0-.3-.1-.5-.3-.5-.3 0-.6.3-.3.5l.2 1c0 1.5-.8 2.3-2.8 2.6l-1.6.4-2.6.5a17 17 0 0 0-2.5.5l-2 .4c-1 0-2 .3-2.1.4-.4.1-4 .8-4.2.7l1.7-2c1-1 1.8-2 1.8-2.1l1.9-2.3 1.8-2.3.7-.8.7-.7a89.2 89.2 0 0 0 6.2-7.4l.9-1.2-.3-1.8a7 7 0 0 0-.4-1.9s-.2-.6-.2-1.3c-.2-1.8-.3-2-.8-1.8m273 3l-.2 1-.1.7c-.1 0-.4 1-.6 2.4l-.3 2.5.6.6 1 .5.4.4c.2.3.4.4.5.4l.9.6c.3.3.7.6.9.6l.4.4c.1.2.3.4.5.4l1.6 1.2 1.6 1.1 1.3 1a12.3 12.3 0 0 0 1.9 1.3 43.6 43.6 0 0 0 3.4 2.6c.2 0 2.3 1.7 2.3 1.8l-1 .3a4 4 0 0 0-1 .3l-2.1.5-2 .5a9 9 0 0 1-1.7.4c-.9.1-1.6.3-1.7.4l-2 .4-2 .5c0 .1-.7.3-1.5.4l-1.6.4-1.6.4a7 7 0 0 0-1.7.4l-.6.2-.5.1c0 .5-.6 4-.8 4.3-.4 1-.5 2.9-.1 2.9.2 0 .3-.3.4-.8.4-2 3.4-2.8 6-1.6l2.6.5 2.4.5 2 .4 2.1.4 2.6.5a19.1 19.1 0 0 1 3.8.8c1.4.2 2 1 2 2.5 0 2.2.5 2.1.9-.2l.2-1.2.4-2 .4-2c.4-.5.3-1.5 0-1.7-.3-.2-.4-.2-.4.4 0 .3-.1.8-.3 1.1l-.4.8c-.2.6-4 .8-4.6.2l-2.6-.5-2.7-.5-2-.4c-1-.1-1.9-.3-1.9-.4l-1.9-.4-2.1-.4-1.3-.3-1-.1.7-.2c.5 0 1-.2 1.2-.3l1.8-.4 1.5-.4 1.6-.4a8 8 0 0 0 1.6-.4l2-.5 2-.5 1.5-.4 1.5-.4a9 9 0 0 1 1.7-.4l1.7-.4 2-.4c2.4-.5 2.4-.7.1-2.3a48.2 48.2 0 0 1-3.9-3l-1.4-1a10.5 10.5 0 0 0-1.8-1.2 41.3 41.3 0 0 0-5-3.7 8.7 8.7 0 0 0-1.7-1.3l-2.8-2.1a264.3 264.3 0 0 0 3.1.4l2.5.4 2.7.5 2 .4 2 .4 1.8.4 2 .4 1 .3c1.6.2 2 .7 2.2 2.4.1 2 .4 2 .7-.1l.4-2 .4-1.8.4-2c.4-1 .6-3 .2-3-.2 0-.4.1-.4.7-.2 1.1-.6 1.6-1.4 2-.6.4-1.3.4-1.3.2 0 0-1-.3-2.1-.4-1.2-.1-2.2-.3-2.3-.4l-2.7-.5-2.6-.5-1.9-.4-1.8-.4-2.6-.5a13.5 13.5 0 0 1-3.2-.7c-.6 0-1.6-.9-1.6-1.4 0-.3 0-.6-.2-.7-.2-.1-.2-.2 0-.3.3-.2.3-1.4 0-1.6-.1 0-.3.1-.4.4M69.5 149.2c-.2.2-.2.5-.1 1 0 .7 0 1.6-.3 2.3 0 .2-.5.5-1 .6l-1.2.4-1.6.4-1.5.4-2 .5-2 .4-1.5.4-1.6.4a8 8 0 0 1-1.6.4l-1.5.4-2 .5-2 .5c-.8.9-3.2-.3-3.5-1.7-.3-1.2-1-1.3-.7-.1l.2 1c.1 0 .3.7.4 1.5l.4 1.6.4 1.4.4 1.5.3 1.1c.2 1.2.6 1.8.8 1.3v-.8c-.4-.4-.4-1.3-.1-1.3l.2-.6c.2-.6.8-1 2-1.3.4 0 .7-.2.7-.3l1.4-.3 1.7-.4 2-.5 2-.5 1.6-.4 1.4-.4 1.7-.4 1.7-.4 2-.5 2.2-.5c.5-.2 1.1-.2 1.1 0l.3.2c.5 0 1.3 1 1.4 2 .2.8.4 1 .6.5.2-.3.1-1 0-1.2-.2-.1-.4-.8-.5-1.6a8 8 0 0 0-.4-1.5l-.4-2-.6-2.2-.3-1.2c-.1-.7-.2-.8-.5-.6m93.6 39.6l-27.5 27.5 4.4 4.4 4.5 4.5 27.5-27.5 27.5-27.5-4.5-4.5-4.4-4.4-27.5 27.5m-90.8-25.9v1.4l-1.6 1.6-1.8 1.5-2.8 2.4a41.6 41.6 0 0 1-3.6 3 120.2 120.2 0 0 1-6.4 5.6l-2.1 1.8c-3 2.5-3 2.5 3 2.9l3.8.4 4.1.4c2.1.1 3.9.3 4 .4l3.8.4a29.1 29.1 0 0 1 4.9.7c.7 0 1 .3 1.7 1s1.2 1 1.2.7a19.2 19.2 0 0 0-1.2-4.2c0-.6-.3-1.2-.3-1.3l-.3-.8c-.4-1.4-1-1.4-1 .1 0 1.6-.4 2.2-1.8 2.2a73.2 73.2 0 0 1-11.7-1 29 29 0 0 1-6-.7 5 5 0 0 0 1-.9l.9-.7a64.6 64.6 0 0 0 5.5-4.8l2.6-2.2a20.4 20.4 0 0 1 2.8-2.2c.6-1.4 2.7-1.6 3.6-.2.4.5.8 1 1 1 .3 0 .3-.4 0-.5l-.4-1.3a11 11 0 0 0-.4-1.7c-.2-.3-.4-1-.5-1.7a4 4 0 0 0-.4-1.1l-.5-1.6c-.5-2.4-1.1-2.7-1.1-.6m280.6 1a3 3 0 0 0-.4 1l-.2.2-.7.3c-.3.3-1 .5-1.4.6a31.6 31.6 0 0 1-14.7 1.7c-2 0-3.7.2-3.9.3l-3 .3c-3.7.3-4 .5-2.4 1.9l1.3 1 2.4 2a32.2 32.2 0 0 0 3.1 2.5 111.9 111.9 0 0 0 5.7 4.8l2.3 2 2.4 2a8 8 0 0 1 2 2c.3.5.4 1 .4 1.7 0 1.4.7 1.4.9 0 0-.4.2-.8.3-.8l.4-1.3.5-2c.3-.7.7-2.4.6-2.5-.2-.3-.7.1-.8.7-.4 2-2 2-4.4 0a24 24 0 0 0-2-1.7c-.9-.5-1-.7-.6-2l.4-1.5.4-1.4.5-1.7.5-2c.3-1.6.2-1.6 3.5-1.8 3.2-.3 4-.2 4.4.5.4.5.4 2 0 2 0 .1 0 .2.3.2.3.1.4 0 .4-.2l.2-.5.5-1.6.5-1.7.4-1.4a7 7 0 0 1 .4-1.4c.3-.3.6-2.5.4-2.6 0-.1-.3.1-.6.5m-11.5 7.4c0 .3-.2.7-.3.8l-.5 1.7-.5 2c-.2.4-.4 1-.4 1.4-.3 1.7-1 1.5-4-1.5l-.7-.5c-.3 0-4-3.5-3.8-3.5l.5-.2c.3-.1 7.3-.8 9-.8h.8l-.1.6m-21.5 14.2c-.1.2 0 .6.4 1 .9 1 .8 1.2-.9 3-1.4 1.3-2.8 3.5-2.8 4.1l-.3.9c-.4.7-.5 5.8-.1 6.6l.4 1.4c.2.5.4 1 .6 1l.2.4c0 .6 3.2 4.2 4.3 4.7a164.8 164.8 0 0 1 3.3 1.7c.4 0 1 .3 1.3.4 1.3.6 7.1.6 7.6 0 0 0 .4-.3.9-.4l1.5-.8 1.1-.7c1.7-1 4.3-5.5 4.3-7.4l.2-.7c.3-.1.3-3 0-3l-.3-1c0-.5-.2-1-.4-1.3l-.3-.6a4 4 0 0 0-.6-1.1l-.6-1c0-.4-.8-1.1-1-1-.2.3 0 .8 1.6 3.7.5 1 .5 5-.1 6l-.4 1-.5.9-.5.8c0 .2-.8 1-1.4 1.3l-1.2.8c-1 .6-1.7 1-2.7 1l-.6.1c0 .2-2.1.3-2.2 0l-1.4-.3c-.6 0-1.4-.2-1.8-.4l-1.3-.5a16.9 16.9 0 0 1-4.2-2.1c-.2 0-.3-.2-.4-.3 0-.2-.2-.3-.3-.3-.4 0-2.3-2-2.3-2.3 0-.2-.1-.3-.2-.3l-.7-1c-2.1-4.2.7-10.1 5-11 .7 0 1.4-.2 1.6-.3.5-.3 2.5-.3 2.6 0 .2.3.7.2.7-.2s-.5-.7-2.2-1l-1.8-.7a7 7 0 0 0-1.4-.4c-.4 0-.7-.2-.7-.3 0 0-.3-.2-.7-.2a8 8 0 0 1-1-.3l-.3.1M81 188.8c.7 2 .3 3.2-1.1 4a27 27 0 0 1-4.5 1.9 28.1 28.1 0 0 1-2.9 1.3l-1.6.6a59 59 0 0 0-5.6 2.5c-.3 0-1 .3-1.6.6-1.8.8-4.1.8-4.1 0 0-.2-.1-.3-.2-.3-.2 0-.3-.3-.5-.6 0-.4-.3-.6-.6-.6s-.3 0 0 .5l.6 1.5a108.8 108.8 0 0 0 2.9 7l2.2 5c1 2.4 1.5 3.5 1.8 3.6.3.1 6-.3 6.3-.4.5-.4-.3-.7-1.7-.8a6 6 0 0 1-1.7-.3l-.7-.3c-.3 0-.8-.3-1.2-.6l-.7-.5c-.1 0-.3-.2-.4-.5l-.6-1c-.4-.9-1.2-2.7-1.2-3 0-.2-.1-.5-.3-.7l-.5-1.2-.4-1c-.6-.5.2-1.6 1.4-2l.8-.4.5-.3c.3 0 .9-.3 1.3-.5a15 15 0 0 0 2.3-1l1.5-.6.9-.3c.8-.6 1-.5 1.2 0l.5 1.2a29.6 29.6 0 0 1 1.9 5l.1 1.2-1.2 1.2c-1.6 1.5-1.6 1.7.2.9l3.1-1.3 1-.4 1.4-.7c.8-.4 1.1-.8.8-1 0-.1-.2 0-.2 0 0 .2-.5.3-1.4.3-1.6 0-2.1-.4-3-2.4l-1-2-.6-1.6-.4-1c-.2-.3-.1-.6.2-.6l.8-.3 1.2-.5.8-.4c0-.1.1-.2.3-.2a25.4 25.4 0 0 1 4-1.6c.2-.2 1.2-.6 1.6-.6l.6.8a1529.1 1529.1 0 0 0 1.6 4c2 3.6 1.9 5-.7 7-.5.3-.5.5-.3.7.2.3 4.9-1.9 4.9-2.3l-1.4-3.2-.4-1-.3-.8-.7-1.5c-1-2.1-1.1-2.6-1.4-3.5a97.7 97.7 0 0 0-3.5-7.4c-.1 0-.2.2 0 .4m9.4 21c-.2.2.2 1.5.5 1.8.4.5-.2 2-1 2.4-.2 0-.7.4-1 .7l-1.6 1c-1 .4-3 1.5-3.3 1.8l-1.2.6-1 .5a41 41 0 0 1-3.8 2.1c-.9.4-2 1-2 1.2l-.9.5-1.7.9c-1.8 1-3.3.7-4-.9l-.5-.7c-.3 0-.5.6-.3.8.2.1 1.3 2 2.1 3.6l1.3 2.3 1.1 2c.2.5.5.7.7.7.4 0 .4 0 0-.6-.7-1.2-.6-3.3.2-3.3a3 3 0 0 0 1-.6l1.3-.8a25 25 0 0 0 3-1.7l1.1-.6 1-.5c.7-.6.7-.6 1.6 1l.4.8-.4 1a465.8 465.8 0 0 1-4.8 10.3l-1 1.9.4.6 1 1.7a65.5 65.5 0 0 1 2 3.6c.4 0 .5-.6.1-1.3-.3-.7-.4-3.3-.1-3.7l.3-.8c0-.3.4-1.1.7-1.8a8319.2 8319.2 0 0 1 3.5-7.4c0-1 .6-1 1.7 0 3.5 2.9 7.5 2.6 9.7-.6 1-1.5 1.3-5 .5-6.3l-.3-.7a41.2 41.2 0 0 0-3.2-6.3 109.4 109.4 0 0 0-3.1-5.3m2.6 7.8l.4.5 1 1.8c1.3 2.6 0 5.6-3 7-.7.4-3 .5-3.2.2l-.5-.2c-1.2 0-5.1-4.7-4.2-5l.7-.4a40.2 40.2 0 0 1 3.7-2c.1-.2 1-.7 2.2-1.3l1.5-.8c.7-.4 1.1-.3 1.4.2m211.5 1.1c-.1.4.2 1.2.4 1.2s.2 0 .2.2l.7 1 .7 1.1.2.2c.1 0 .3.2.3.4l1 1.2 1 1.4.4.7a38.1 38.1 0 0 1 2.6 3.5l1 1.4 1 1.3 1 1.4c.5.7 1 1.3 1 1.5l.1.2.4.3c0 .2.4.8.9 1.3 2.4 3.2 3.1 5 2.3 6-.3.4-.1.6.3.6.1 0 .2-.1.2-.3 0-.2.1-.3.2-.3l.2-.2.4-.8.9-1.4a26.3 26.3 0 0 1 2-3.6c0-.5-.5-.3-1 .3-.5.7-2 1.4-2 1l-.4-.2a70.5 70.5 0 0 0-2.6-3.1 3 3 0 0 1-.6-1l-.4-.4c-.4-.2-.5-.9-.2-1.1.2 0 .4-.4.5-.7l.9-1.6 1-1.9.5-.8c.1 0 .3-.3.4-.8l.5-.8.4-.5c.2-.8.5-.8 4-.3 3 .4 3.7.8 3.5 2.3 0 .5-.2 1-.3 1-.3.3-.1.7.2.7.2 0 .4-.3.5-.6l1-1.8c.2 0 .6-.8 1.2-2a16.2 16.2 0 0 1 1.2-2l.5-1c1-1.3 1-1.2.5-1.2l-.8.4c-1.1 1-6.5 1.3-8.7.3l-3.7-.5a27 27 0 0 1-3.4-.4c0-.1-1.3-.3-2.7-.4l-2.5-.4c0-.1-1.2-.3-2.6-.4l-2.8-.4c-.2-.3-1.4-.2-1.5 0m6.4 4.3l2.6.4c1.3.1 2.4.3 2.5.4l1.8.3c2 .2 2.2.4 1 2a44.8 44.8 0 0 0-2.9 5l-.3.7-.5-.6-.5-.8-.2-.4-2.2-2.9-1.3-1.8c-.6-.7-1-1.4-1-1.5l-.3-.4c-.2-.1-.3-.3-.3-.4 0-.2 1.4-.2 1.6 0m-13 8.1l-.8 1-1 1.4a7 7 0 0 0-1 1.4l-.3.5c-.3 0-.4.3-.4.4l-.6 1c-.4.3-.6.7-.6.8l-.3.4a46.7 46.7 0 0 0-4.7 6.4c0 .2-.2.4-.3.4-.1 0-.2 0-.2.2l-.7 1-.7 1a23.7 23.7 0 0 0 3.9 3.3c1 .9 1.3.3.3-.8a3 3 0 0 1-.7-1s0-.2-.2-.3c-.6-.1-.3-2.5.5-3.5a36 36 0 0 0 1.7-2.5l.7-1 .5.4.8.4.4.4c.1.2.3.4.5.4l.8.6c.4.3.8.6 1 .6l.4.4.4.4c.1 0 .8.4 1.5 1l1.3 1c.1 0 .8.4 1.5 1l1.6 1 .4.5.5.4.9.5c.3.4.7.6.8.6l.5.4c.1.3.3.4.4.4.3 0 2.7 2 3 2.4.5.7.4 2.2-.1 3-.5.6-.5.9-.1.9a17 17 0 0 0 2.1-2.7l.9-1.2.9-1.3.3-.4c.8-.9 2-2.7 2-3 0-.4-.2-.3-1 .7-1.2 1.2-2.4 1.2-4.2-.2l-1.4-1-1.4-1-1.8-1.3a29 29 0 0 1-3.2-2.3l-1.4-1-1.4-1-.5-.4-.4-.4a3 3 0 0 1-1-.6l-.8-.5c-.2 0-.3-.1-.3-.2s-.2-.4-.5-.5c-1.4-.8-1.7-1.2-1.4-1.9l.5-.6c.1 0 .2 0 .2-.2 0-.3 1.7-2.4 2.4-3 1-.7 4.7-.6 4.7.2 0 .3.4-.4.4-.7 0-.1-.2-.3-.4-.3l-1.2-.8-1.1-.7c-.2 0-.3 0-.3-.2l-.4-.4-.9-.5c-.4-.2-.4-.2-1 .6m-130 1.7c-2.6 1.3-3 1.5-2.8 1.9.1.5.1.5.7.2 1.4-.8 2.6-.2 2.8 1.3v10c0 10.1 0 9.8-1.3 10l-1.2.2c-.4.1-.6.3-.6.5 0 .6 9.5.5 9.6 0 0-.3-.1-.4-.9-.5-2.4-.3-2.3.5-2.3-13.3l-.1-11.9h-.4c-.3 0-1.8.8-3.5 1.6m19.8-1.2c-5.4 1.7-6 7-1.4 11.3l1.4 1.3-1.8 1.8c-3 3-3.6 5-2.3 7.7.8 1.8 3.8 4.2 4.5 3.7l.3.1 2 .2c1.2 0 2 0 2-.2-.1 0 0-.1.2 0l1.5-.5c5.1-2.7 4.7-9-.9-13-1-.6-1-.8.3-1.7 3.3-2.2 4.5-4.7 3.4-7.1-1.5-3.2-5.5-4.7-9.2-3.6m20.3 1l-2.3 4.8c-2.5 5.1-2.5 4.6.8 5a10.7 10.7 0 0 1 5.8 2.6c1.7.7 2.8 5.3 1.9 7.3-1.6 3.4-4.6 4.2-7.9 2-2.4-1.6-4.5.4-2.5 2.4 1.6 1.5 6.8 1.2 8.7-.5l.6-.4c.2 0 2.4-2.2 2.4-2.5l.4-.7c2-2.7 1.4-7.5-1.1-10.3a14.7 14.7 0 0 0-7.5-3.6c-.5 0-.5-.2.3-2l.8-1.5h3.8c3.7 0 3.7 0 4-.5a27.4 27.4 0 0 1 1.1-2.7c0-.1-2-.2-4.5-.2h-4.5l-.3.8m16.7-.3l-.6 1.7c-1.4 3.7-1.5 3.9-1 3.9l.3.2c0 .1.3-.1.6-.6 1-1.4 2-2 3.2-2.1 1.8-.3 8.1-.3 8.1 0a71.8 71.8 0 0 0-2.3 7.1l-1.3 3.6-1.3 3.9c-.5 1.1-2.5 7.4-2.4 7.5l1.2.2h1.2l1-3a220.3 220.3 0 0 0 3.9-11.4l.4-1.4.4-1.2.4-1.1c.6-1.2 2.4-6.9 2.3-7.3 0-.4 0-.4-7-.4h-7l-.1.4m-33 .7c3.2 0 3.6 5 .6 7.9-1.4 1.4-1.3 1.4-3.2-.2-3.2-2.7-3.7-5.5-1.1-7 .8-.6 3-1.2 3.2-.9l.5.2m-90 2.7l-1 .4a5.8 5.8 0 0 0-3.5 4.6l-.3 1c-.3.2-.2 2.3 0 2.3a44.2 44.2 0 0 0 .8 7c.2.3.2 1.2 0 1.3l-.2 1c-.5 4.4-6.5 4.4-8.5 0l-.6-1.4c-.4-.6-.4-3.7-.1-3.9l.3-.7c0-.3.6-1.2 1.2-1.9.8-.9 1-1.3.9-1.5-.2-.3-.2-.3-.4 0l-.5.3c-.1 0-.8.4-1.5 1l-1.8 1.3-1.4 1-1 .8c-.4 0-.6.5-.3.7h.6c1-.3 1.4 0 1.7 1l.4 1 .4 1c.3 1 1.2 3 1.4 3 .1 0 .2 0 .2.2a9 9 0 0 0 2.6 2.7c.2 0 .3 0 .3.2 0 0 .4.3.9.4l1 .4c.4.3 3.4.3 3.7 0l.5-.2c.7 0 2.6-1.7 3.3-3l.5-.8c.3-.2.3-7.5 0-7.8-.5-.5-.6-6-.2-6.8l.3-1c0-.4 1.1-1.2 2-1.4 5.2-1.1 8 6.2 4 10.5-1 1.1-1.1 2-.3 1.4l.4-.4.2-.1 1.5-1 1.4-1 .5-.4.4-.4 1-.6.8-.5c.2 0 .3-.2.3-.4 0-.4-.1-.4-.9-.3-1 .1-1.6-.4-1.8-1.8 0-.5-.2-1-.3-1.3l-.5-1.2c-.5-1.4-3-3.9-4.2-4.2a9 9 0 0 1-1.2-.5c-.4-.2-3-.2-3 0m89.7 11.5c4.3 3.6 4.7 7.5.9 8.7-3.7 1-6.3-1-6.1-4.8a99.6 99.6 0 0 0 .2-2l.1-.3c0-.3 1.4-2.5 2-3.2.5-.5.5-.5 3 1.6m-75.3 3l.4.5c1 .6.4 4-.8 4l-1.8 1.6a87.5 87.5 0 0 1-5.2 4.4 36.9 36.9 0 0 1-2.6 2.1l-2.1 1.8a21.1 21.1 0 0 1-2.6 2c-.5.8-2.1.6-3-.2-2.3-2-1.3 0 1 2.3l.5.6c0 .4 4 4.7 4.2 4.5.1-.1 0-.5-.4-1-1-1.4-.9-2.2.6-3.6a38.8 38.8 0 0 1 5.3-4.6l.8-.8a52.4 52.4 0 0 0 4.5-3.7l2.2-1.8c2-1.7 2-1.7 3.2-1.8.7 0 1 .2 1.6.7 1.5 1.4 1.6.6 0-1a43.8 43.8 0 0 1-4-4.9c-.4-.3-.7-.6-.7-.8 0-.2-.6-.8-1-.8-.1 0-.2.1 0 .4m161.4 5.6c-.2.1-.1.3.2 1a160 160 0 0 1 4.4 9.4l.5 1 .4.9c.1.4.3.7.4.7.1 0 .2.1.2.3l.9 2.2a4573.1 4573.1 0 0 1 3.6 7.8l.4 1.4c.1.2 0 .6-.2 1.1-.4.8-.5 1.3-.3 1.5.1.2 1.8-1.6 1.8-1.9l.8-1c1.9-1.9 2.6-2.8 2.5-3.1-.1-.3-.3-.2-.9.4-1.6 1.4-2.4 1-4-2l-1.3-2.8-.4-.7.9-.9c.5-.4.9-.9.9-1l.9-1 .8-1c0-.1.7-1 1.6-1.8l1.5-1.7.7.3 1.5.6c.5 0 1 .3 1.1.3l1 .4c1.2.4 2 1 2 1.4l.2.4c.1 0 0 .6-.3 1.2-.6 1.2-.4 1.7.4.8.2-.4.8-1 1.3-1.4l.8-1 1.9-2.3c1.6-1.7 2.1-2.6 1.7-2.6a3 3 0 0 0-1 .7c-.3.3-4 .2-4.4 0-.1-.2-.8-.4-1.5-.6l-1.7-.6-1.1-.4c-.4 0-.8-.2-.8-.3l-.7-.3c-.4 0-1-.2-1.4-.4-.4-.2-1.1-.5-1.7-.6l-1.2-.4a5 5 0 0 0-1.1-.4 6 6 0 0 1-1.4-.5 4 4 0 0 0-1-.4 3 3 0 0 1-1-.3l-1.4-.5c-.7-.2-1.5-.4-1.7-.6l-1.1-.4c-.4 0-.8-.2-.8-.3l-.9-.3a77.8 77.8 0 0 1-2-.3m-153.2 4l.1.5.3.6.3.3c.4.1.6 1.4.3 2a93.9 93.9 0 0 1-11 11.1c-1.6 1.7-3.1 3.1-3.3 3.2-1.4.8-1.6 1-2.2.8-.5-.1-1-.4-1.5-1-.7-.6-.8-.7-1-.4 0 .3.7 1 2.6 3a739.3 739.3 0 0 1 6.7 7l1.2.8c1 .8 1.9 1.3 4 2.2 1.4.6 6.2.6 7.5-.1l1-.5c.9-.4 1.8-1 2-1.2 0-.2.2-.3.4-.3s3-2.7 3-3l.8-1.2c.4-.7.9-1.6 1-2.2.1-.5.3-1 .5-1.2.3-.4.3-4.6 0-5a1 1 0 0 1-.3-.6 11 11 0 0 0-1.6-3.3s-.2 0-.2-.2c0-.3-2.4-3.1-4.5-5.2-1-1-1.7-1.8-1.7-2 0-.3-4.3-4.4-4.4-4.1m158.6 1.3l1.4.5c.3.2.9.4 1.3.4l.7.3c0 .1.1.2.3.2.4 0 2.3.6 2.5.8l1 .4c1.7.4 1.7.4-.3 2.6a138.6 138.6 0 0 1-3.3 4c-.2.4-.7.3-.9-.3a714.9 714.9 0 0 1-3.8-8.4c-.4-.7-.3-1.2 0-.9l1 .4M164 264c.1.2 2 2 2.2 2 .1 0 1.2.8 2.4 1.9l2.2 2h29.7c26.2 0 29.7 0 30-.3 0-.2.3-.3.4-.3l.7-.6.7-.6a27.2 27.2 0 0 0 3.5-2.7c.3 0 1.5-1.1 1.5-1.4 0-.2-7.5-.2-36.7-.2l-36.6.1m-34.9 2.8l.4.2c.8 0 4 4 4 5l.4.8c.4.7.5 4.6.1 5l-.4 1.2a8 8 0 0 1-1 1.8l-.6 1a22 22 0 0 1-4 3.8l-1.2.6c-.2 0-.3.1-.3.2l-1 .4-1.3.5c0 .2-3.7.2-4.1 0a10 10 0 0 0-1.1-.5l-1-.3-.7-.5a12 12 0 0 1-3.5-3.4c-1.2-1.6-1.2-1.5-.4-2.1.7-.5 4.2-4 11.3-10.8 3.6-3.5 4-3.8 4.4-3M250.7 284c-1 1-2 1.7-2 1.7l-3.8 3.5a76 76 0 0 1-3.9 3.4c-.3 0-2.2 2.2-2.2 2.5 0 .3 0 .2.5-.2l.8-.5.4-.3c.3-.3 1.6-.4 1.6-.1a18.6 18.6 0 0 1 3.5 3.4l1.2 1.3 1.2 1.3 2.2 2.5c1.3 1.3 2.3 2.5 2.3 2.6l1.2 1.2 1.2 1.3s.3.6.8 1.1c1.4 1.5 1.4 2.4.1 3.8-1.7 2 0 1 2-1l1-.9c.1 0 1.9-1.5 3.9-3.4a77 77 0 0 1 5.2-4.7l1.4-1.3c.6 0 .5-.5-.2-2.2-1-2.1-1.3-2.8-1.4-3.3-.3-1-.6-1.2-1-.7l-.1.4c.3 0 .7 3.2.5 4.4-.1 1.5-.6 2.1-3.4 4.6a1187 1187 0 0 0-2.6 2.4c-1.1 1-1.8.6-5.2-3.3l-2.2-2.4-1.3-1.4 1-1c.5-.6 1-1 1.1-1l1.2-1 1.2-1.2.9-.4c.9-.6 1.8-.7 2.1-.2l.5.3c.1 0 .5.1.7.3.3.3.6.4.7.4.5 0-.4-1.1-4-5a7 7 0 0 1-1-1.3c-.2-.4-.2-.4-.5 0-.3.2-.3.3-.1.4.4.2.8 1.4.8 2.5v1l-1.9 1.8-2.8 2.6-.8.7-1.6-1.8c-1-1-1.7-1.8-1.7-2a35.8 35.8 0 0 1-2.4-2.7l-1-1 .5-.6.6-.4a7 7 0 0 0 1.3-1.2c.6-.7 1.2-1.2 1.3-1.2.1 0 .6-.4 1-.9 1.9-1.9 3.6-2.4 4.8-1.6 2.7 1.8 3 1.3.5-1.1-2.2-2.3-1.8-2.3-4.1-.1m-97 3.8l-1.3.6-1 .5-.4.2c-.3 0-.9.2-3.5 1.4a15.6 15.6 0 0 1-3.8 1.7l-.8.4a32.6 32.6 0 0 0-4.6 2l-1.7.8-.8.4s-.2.2-.6.2l-1.8.8c-2.1 1.2-4.9 1.6-5.3.9-.2-.2-.9-.2-.9 0 0 .3 5.5 5.3 5.8 5.3.4 0 .4-.3 0-.6-.2-.1-.3-.3-.3-.5l-.4-.7c-.9-1 .3-2.6 2.6-3.3l1.3-.5c1.3-.8 2-.9 2.7-.3l.7.6c.2 0 5.7 5.1 5.7 5.3 0 .6-.3 1.8-.4 1.8-.1 0-.3.4-.4.9l-.6 1.3-.2.7c0 .5-1.3 2-1.7 2l-1.2-.5-1-.4c-.3.1 2 2.6 2.4 2.6l1.4 1.3 1.4 1.3s.6.4 1 .9c1.1 1 1.6.8.8-.4-.5-.7-.7-3.5-.2-4l.4-1.3c.1-.6.4-1.2.5-1.4l.5-1.4a6 6 0 0 1 .5-1.3c.2-.2.3-.6.3-.7l.3-1 .6-1.4c0-.4.3-1 .5-1.5l.4-1.3.5-1 .2-.7.4-1 .5-1.3c0-.4.3-1 .5-1.5l.5-1.4c0-.3.3-.7.4-1l.3-.6c0-.2 0-.6.2-.9l.8-1.9c0-.3-.8-.4-1.2-.1m-4.2 4.2c0 .4-.3 1-.4 1.2l-.3.8-.3.8-.5 1.3-.4 1.1-.5 1.3a18.4 18.4 0 0 1-1 2.6c-.1.5-.2.5-3.3-2.3-3.2-3-3.2-3-2-3.5 1.3-.5 2.8-1.2 2.8-1.4l.4-.1c.3 0 1.4-.5 3.5-1.5l1.5-.6c.3 0 .6-.2.6-.3v-.1.7m15.6 6l.8 1c1.4 1.3 1.3 2.4-.7 4.7l-1.2 1.6-1.6 2a16.9 16.9 0 0 0-2 2.6 39.4 39.4 0 0 0-3.9 4.6l-1.7 2c-2 2.1-2.6 2.3-4 1.2-1-.6-1.1-.7-1.1-.3 0 .2 1.4 1.5 2.1 2 .2 0 1.2.9 2.1 1.7a13 13 0 0 0 2 1.5c.1 0 .4.2.5.5l.5.5c.2 0 .7.4 1.3.9l1.2.9c.1 0 .3 0 .3.2.2.5 3.7 2.2 4.9 2.4.4 0 .8.2.9.3 0 .2 3.9.2 4.3 0l1.7-.5 1.3-.5c0-.1 0-.2.2-.2.3 0 2.1-1.2 2.1-1.4l.5-.3c.3-.1.6-.5.8-.7l.9-1 .4-.7.3-.4.7-1.1.5-1 .5-1 .4-1.2c.3-.2.3-5.1 0-5.5l-.5-1.2c-.1-.5-.4-1.1-.7-1.5l-.4-.7-.4-.5a14.7 14.7 0 0 0-3.5-3.6l-.8-.6-.7-.7-1.4-1.1-1.3-1-.7-.7a3 3 0 0 0-.7-.6l-1.8-1.3c-1.4-1.3-2-1.6-2-1.2m67.9 3.3l-1 .2-1.3.5a17.6 17.6 0 0 0-5.3 3.3l-1.8 1.3a17 17 0 0 1-1.8 1.4s-1 .7-2 1.7l-2.1 1.6c-.3 0-1.3 1.2-1.2 1.4.1.2.3.1.5 0l.6-.5.8-.4c1-.6 1.3-.4 3 1.4 1 1 1.7 1.9 1.7 2l.5.5c.2.2.5.4.5.6l1.6 2.1c1 1 1.7 2 1.7 2l1.7 2.2c4.7 5.7 4.9 6 4.3 7.4-.2.4-.6 1-.9 1.2-.4.3-.5.5-.4.7.2.2.5 0 1.4-.8l1.3-1 .8-.6.7-.7 1.3-1 1.3-1 .5-.4 2.1-1.8c1.7-1.4 3-2.9 3.2-3.5 0-.2.2-.4.3-.4l.7-1 .9-1.9c.5-1 .4-6.1 0-7l-.4-.8c0-.3-.7-1.8-1.3-2.5a26 26 0 0 0-3.5-3.8l-1-.7-2-1a12 12 0 0 1-1.4-.5c-.4-.2-3.2-.4-4-.2m-62 3.2a15.2 15.2 0 0 1 4.7 4.5l.3 1c.1.4.3 1 .5 1.1.3.4.2 4.3-.2 5l-.3.9c0 .4-1.1 2.4-1.9 3.3a4 4 0 0 0-.6 1 9.7 9.7 0 0 1-3.4 2.9c-1 .7-2.5 1.2-3.6 1.2-.5 0-.9.1-.9.2 0 .2-.3.2-.7.2-.5 0-.9 0-1-.2l-.6-.2c-.7 0-2.8-.6-2.8-.8l-.6-.4a21 21 0 0 1-3.9-3.6l1.5-1.9 1.5-1.8 1.6-2.1a304.4 304.4 0 0 0 5.8-7 34 34 0 0 1 3.3-4l1.3.7m64.5.5l1 .4.8.5.7.5a19 19 0 0 1 5.4 7.4 10.3 10.3 0 0 1-.6 7.2c-.9 2.4-6.6 6.5-6.6 4.8l-1.5-2c-1-1-1.6-2-1.6-2l-1.6-2a18.3 18.3 0 0 1-2-2.5 53.6 53.6 0 0 1-5-6.2c-1.2-1.3-1.3-1.4-1-1.8.3-.5 2.4-2.9 2.6-2.9l.8-.4c2.2-1.6 6.6-2 8.6-1"/>
    <path fill="#00423c" d="M180.2 6.7c-3 0-5.7.2-5.7.3-.1 0-2.6.3-5.6.4l-5.4.4-5.2.5a42.9 42.9 0 0 0-6 .7c-1.4 0-5.4.4-5.8.6l-4.2.5-4 .5-2.5.3-2.6.4c-.1.1-1.1.3-2.3.4l-2.4.4-3 .5-2.9.5c-.1 0-1 .3-2.2.4l-2.1.4-2.2.4-2.1.4-2.4.4-2.5.5-1.8.4-1.8.4c-.2.1-1.3.4-2.4.5l-2.3.5a8 8 0 0 1-1.5.4l-1.6.4-1.7.4-1.6.4-2.2.5-2.2.5-1 .3c-.5 0-1.2.2-1.5.4l-1.8.4-1.5.4c-.3.1-1.1.4-2 .5l-1.8.5-1.4.4-1.5.4-1.4.4a7 7 0 0 0-1.3.4l-1.7.5-1.7.5-1.4.3-1.3.5-1.6.4-2 .6a7 7 0 0 1-1.4.4c-.4 0-.9.2-1 .3l-1 .4-1.3.4a8 8 0 0 1-1.5.5l-1.6.5-1.2.3-1.1.4-1.2.4-1.2.5-1.5.4a8 8 0 0 0-1.4.5l-.8.3c-.3 0-1 .3-1.4.5l-1.5.5a2 2 0 0 0-.8.3l-1.4.5-1.8.6-.7.3c-.1 0-.5 0-.8.2-.2.2-1 .4-1.6.6l-1.4.5-1 .4-1.4.5a4 4 0 0 1-1 .4c-.5 0-.8.2-.8.3 0 0-.4.3-1 .4l-1.3.5-1.2.5-1.1.4a5 5 0 0 1-1 .4l-1 .4-1.2.4-1.6.6-1.3.6-1.6.6-1.1.5-1 .4-1 .4-.7.3a139 139 0 0 1-8 3.4c-2.2.8-3.2 2-2.2 3l.5 4.3.5 4 .4 2.7.4 2.8.4 2.6.4 2.8.5 3.3c.1 1.7.4 3.1.4 3.2l.4 2.2.4 2.1.4 2.4a8 8 0 0 0 .4 2.3c.1 0 .2.2.2.5 0 .7.6 4.2.8 4.6l.4 2.1c.1 1 .3 1.8.4 1.9l.4 2c0 1 .3 2 .4 2l.4 2.3.5 2.3.4 1.8.4 1.7.5 2.3.5 2.2.4 1.6.4 1.6.4 1.5.4 1.6.4 2 .5 2c.1 0 .3.7.4 1.5l.4 1.6.4 1.4.4 1.4.5 1.8c.2.9.4 2 .6 2.2l.4 1.5c0 .5.2 1 .3 1l.5 1.7.4 1.7.4 1.3.4 1.3.4 1.2.4 1.3c.1.1.4.9.5 1.7l.5 1.5.4 1.3.4 1.4.4 1.2.4 1 .5 1.5.5 1.6.4 1.2.3 1.1.4 1.3.4 1.3.5 1.3a21.6 21.6 0 0 0 1 2.7c0 .3.2.6.3.7l.4 1.2c.1.5.3 1.1.5 1.3l.5 1.5c0 .5.3 1 .4 1.1l.4 1c0 .4.3 1.1.6 1.6l.3 1 .3.7.4 1c0 .5.3 1 .4 1.2l.5 1.1.4 1 .5 1.3.5 1.3.4 1 .5 1.3.2.7.6 1.5c.4.7.6 1.4.6 1.6l.2.2.4.8.6 1.5a20 20 0 0 1 1.3 3c0 .4.2.6.3.6l.2.3a42.4 42.4 0 0 0 3.3 7.6l2 4.4A689.7 689.7 0 0 0 68 239.3l.6 1 .6 1.1 1.6 2.6a21.4 21.4 0 0 0 1.5 2.5l.6 1 .6 1c0 .2.1.3.3.4.1 0 .3.2.3.4l.5 1c.4.4.6.8.6 1l.7 1 .7 1c0 .2.3.6.6 1l.6 1.1c0 .2.1.3.3.4l.3.3c0 .2.2.6.6 1l.6 1 .7 1.1.9 1.3a58.1 58.1 0 0 0 3.5 5.2l.7 1.2c.5.6.8 1.2.8 1.3l.4.4.4.5.6.9c.3.3.6.7.6.9l.3.3.3.3c0 .1.4.8 1 1.5l1 1.4.8 1.2.9 1.3.3.5 1.2 1.5a15.5 15.5 0 0 0 1.6 2.1l1.2 1.6a12 12 0 0 1 1.2 1.6l1 1.5a13.1 13.1 0 0 1 1.4 1.9 79.7 79.7 0 0 1 6.9 8.6l1 1.2 1.4 1.7c.4.3.6.6.6.7l.7.9.7.7 2 2.4 2 2.3 2.9 3.4a57.6 57.6 0 0 1 3.9 4.4 421.6 421.6 0 0 1 7.4 8 529.5 529.5 0 0 0 56.1 51.2l.4.4.4.4c.1 0 1 .6 2 1.5l1.8 1.4 1.6 1.2 1.6 1.2c.2 0 .3.2.5.4 0 .2.3.4.4.4.2 0 2 1.3 2.7 2l.5.3 1.2.9 1.2.9.8-.5.8-.7.2-.2 1.6-1 1.4-1.2 1.6-1.1c.8-.7 1.5-1.2 1.7-1.2l.4-.4c0-.2.3-.4.4-.4l1.2-.9 1.3-.9.5-.4.5-.5 1.9-1.4a16 16 0 0 1 1.7-1.4l2-1.5a675.5 675.5 0 0 1 13.2-11l1-.8a86.4 86.4 0 0 0 5.8-5.1l4-3.5a646 646 0 0 0 39.3-39.9 104 104 0 0 0 7.3-8.6l2-2.4a79 79 0 0 1 4.3-5.3l1.4-1.8 1.4-1.7 1.5-2a50.4 50.4 0 0 0 4.4-5.6l1.1-1.7a14 14 0 0 0 1.2-1.5l1-1.4 1-1.5.3-.3.3-.3c0-.2.2-.6.6-1l.5-.8.4-.5c.3-.1.4-.3.4-.4l1-1.4.8-1.2.9-1.3c.5-.6.9-1.2.9-1.4 0-.1 0-.3.3-.3l.3-.3.4-.9.5-.8c0-.2.2-.3.3-.4.2 0 .3-.2.3-.3l.7-1.1.7-1c0-.2.3-.7.8-1.3a5 5 0 0 0 .8-1.2c0-.2 0-.3.3-.4l.2-.3c0-.2 1.3-2 1.5-2l.1-.4.6-1 .6-1 .9-1.3.9-1.5.6-1 .7-1 .6-1 .6-1.1c0-.1.1-.3.3-.3.1 0 .4-.5.5-.9l.4-.8.5-.6c.4-1 .9-1.7 1.6-2.8l1-1.5c.3-.8.8-1.6 1.5-2.7a37.9 37.9 0 0 0 3.1-5.6 81.4 81.4 0 0 0 1.7-3 563 563 0 0 0 17.8-36.6c0-.2.1-.3.2-.3 0 0 .3-.3.4-.7l1.2-2.8a23.7 23.7 0 0 0 1.2-3.1 55.3 55.3 0 0 0 3.3-8.1l.3-.7c0-.3.3-1 .5-1.3l.5-1.4c0-.4.2-.8.3-.8l.5-1.2.5-1.2.3-1 .6-1.4.2-.9.3-.6.6-1.8.6-1.7c.2-.2.3-.5.3-.7l.3-.9.6-1.7.5-1.2.3-1 .4-1.2.5-1.4c0-.4.3-1 .4-1.3l.5-1.8a5 5 0 0 1 .4-1.3l.4-1 .4-1.2.4-1.2.4-1.2.5-1.6c.1-.7.4-1.5.5-1.7l.4-1.4.4-1.2.3-1.2.4-1.3.5-1.7.6-2 .4-1.5c0-.5.2-1 .3-1.1l.5-2 .5-1.8.4-1.3.5-1.8.4-1.4c0-.5.2-1 .3-1.1l.4-2 .5-2.1.4-1.6.4-1.5c.1 0 .3-.7.4-1.6.1-1 .3-1.7.4-1.7l.5-2 .5-2.2.4-1.9.4-1.8.5-2.3.4-2.3.4-1.8.4-1.9.4-2 .4-2 .5-2.6.5-2.6c0-.1.3-1 .4-2.1l.4-2.2.4-2.3c0-1 .3-2.2.4-2.4l.5-3.1.4-3.2.5-2.7c0-1.3.3-2.5.3-2.6l.4-2.8.4-2.9.5-3.9.5-4.1c.5-1.1.5-4.6 0-4.7l-.4-.3c0-.1-.1-.2-.3-.2a3002.7 3002.7 0 0 1-10.9-4.5l-1.1-.5-1.5-.5-.9-.4-.6-.3a6 6 0 0 1-1.3-.5l-1.5-.6-1-.4-.6-.3c-.3 0-.9-.3-1.3-.5a3 3 0 0 0-1-.3l-.6-.3-1.3-.5a15 15 0 0 1-1.5-.5 24.8 24.8 0 0 0-2.6-1l-.7-.3-.8-.3-1.7-.6a9 9 0 0 1-1.2-.4l-1.1-.4a6 6 0 0 1-1.1-.4L356 34l-1.4-.5a6 6 0 0 0-1.1-.4l-1.1-.4-1.2-.4a4 4 0 0 1-1-.4l-1.5-.5c-.7-.1-1.3-.4-1.3-.5l-1.1-.3a11 11 0 0 1-1.7-.5 7 7 0 0 0-1.4-.4l-.7-.3-1.5-.5-1.7-.5-1.2-.4-1.2-.4-1.2-.4-1.1-.4-1.8-.5-1.8-.5-1.2-.4a6 6 0 0 1-1.3-.3l-1.8-.5-1.8-.5-1.2-.4-1.3-.4a8 8 0 0 0-1.6-.4c-.8-.1-1.4-.3-1.4-.4l-1.9-.5-2-.5-1.3-.4-1.4-.4-1.6-.3-1.5-.4c-.3-.2-3.2-.8-3.8-.8-.3 0-.5-.1-.5-.2 0 0-.6-.3-1.4-.4l-1.6-.4-1.7-.4a8 8 0 0 1-1.6-.4 13 13 0 0 0-2.3-.5c-1.1-.1-2.1-.4-2.2-.5l-2-.4-2-.3-2.2-.5a20 20 0 0 1-2.5-.5l-2.1-.4-2-.4c-.1 0-1.1-.3-2.3-.4a9.4 9.4 0 0 1-2.1-.4l-2.8-.5-3-.5-2.5-.4a17 17 0 0 1-2.6-.4L264 11l-2.6-.4a34 34 0 0 0-3.8-.4l-4-.5-3.4-.4a58.8 58.8 0 0 0-8.6-.9l-5.3-.5c-.2 0-2.7-.3-5.5-.4a635.3 635.3 0 0 0-50.6-.7M201 12l.5 1.5s.3.6.4 1.3c.1.7.3 1.2.4 1.2l.3.8c0 .4.2 1 .4 1.3l.6 1.8.5 1.5.4 1.4.5 1.5.2.7c0 .2 1.8.3 8 .3h7.8l-1.3 1a176.6 176.6 0 0 0-5.7 4.1 6 6 0 0 1-1.3 1l-.4.3-.5.4a3 3 0 0 0-.9.6c-.3.3-.7.6-.9.6-.1 0-.3.1-.3.3 0 .2-.4.4-.6.5-.4.1-.5.3-.5.6 0 .5.4 2 .6 2.4l.4 1.2.4 1.2.4 1.4.5 1.5.3.9.4 1.3c.2.3.4 1.2.6 2l.6 1.8c.6 1 .1 1.4-.7.6l-1.8-1.3a87.2 87.2 0 0 1-5.9-4.3l-1.3-.9c-.1 0-.3-.1-.3-.3l-.3-.3-1.1-.7c-1-.8-1.2-.8-3 .7a10.3 10.3 0 0 1-2 1.3 76 76 0 0 1-6.2 4.6l-1.2.9c-1.4 1.1-2.2.9-1.2-.4l.4-1.2.4-1 .5-1.5a9 9 0 0 1 .5-1.6l.4-1.2c0-.5.3-1.2.4-1.5l.4-1.3.3-.9.5-1.5c.2-.7.4-1.4.6-1.5.2-.3-.5-1.2-1-1.2l-.3-.3c-.1-.2-.3-.3-.4-.3l-1.5-1a11 11 0 0 0-1.9-1.4l-2.8-2.1-1.8-1.3a9 9 0 0 0-1.5-1s-.5-.3-.8-.7l-.7-.5h7.8c6 0 8-.1 8-.3.2-.1.4-.9.6-1.7l.6-2c.2-.2.3-.8.4-1.2 0-.4.2-.7.3-.7l.3-.8c0-.4.2-1 .4-1.3l.6-1.8c.1-.6.4-1.4.6-1.7l.4-1.4c0-.4.2-1 .4-1.2l.2-.8c0-.7.6.3 1 1.6M64 37c0 .3 8.5 9.1 8.8 9.2l4-1.8C88.4 38.8 87.7 39 87 40l-1.1 2.2a72.3 72.3 0 0 1-4.5 8.3l-.4.8-.7 1.3-.3.8 2.9 2.9 2.8 3c0 .2 1 1.3 2.3 2.5 3.3 3.3 3.2 3 1.5 2.9l-1.5-.3L85 64l-2.8-.5c-.1-.1-1-.3-2.2-.4l-2.1-.4-1.5-.3-1.3-.1-.5 1.2-.8 1.4-1.2 2.1a323.9 323.9 0 0 1-3.8 7.4c-1.1 2.2-1.2 2.2-1.5-.7 0-.8-.2-1.6-.3-1.7l-.4-2.7-.4-3-.4-3c-.4-3-.3-2.8-1.4-2.9l-1-.2c-.1-.1-1.1-.3-2.3-.4l-2.1-.4-2.8-.5-2.8-.5-1.6-.3c-1.3-.1-2-.4-1.8-.5a232.2 232.2 0 0 1 12.3-6c0-.2.1-.3.2-.3l.9-.3.6-.4-.2-1.6c0-1-.2-1.9-.3-2l-.4-3a18 18 0 0 0-.4-2.8s-.3-1.3-.4-2.8c-.1-1.4-.3-2.6-.4-2.6-.2 0-.2-.6 0-.8 0-.2 2.2 1.8 2.2 2m273 0c0 1.1-.2 2.1-.3 2.2l-.4 3.5a28 28 0 0 1-.4 3.6l-.2 2.2-.2 2 1.3.6a39.5 39.5 0 0 0 3 1.5l.4.1 1.4.5a164.8 164.8 0 0 0 7.9 3.6l.4.4-1 .1-1.1.3-1.8.4-1.7.4-2.5.5-2.4.5-1.8.4-1.8.4-.7.2c-.6 0-.7.3-.7 2l-.2 1.2-.5 4.8a40.4 40.4 0 0 1-.7 6c0 2-.7 1.7-1.9-.8l-.9-1.6a128 128 0 0 1-3.5-6.2l-1.1-2c-.7-1.2-1-1.5-1.6-1.2-.2.2-1 .4-2 .5a9 9 0 0 0-1.7.4l-2.4.5-2.5.5-1.7.4a9 9 0 0 0-1.8.4c-.3.2-2.4.4-2.4.2l2.7-3.1a51.4 51.4 0 0 0 4-4.4 8 8 0 0 0 1.1-1.3l1.3-1.5 1.2-1.3-.4-.7a3 3 0 0 1-.5-1c0-.2-.1-.3-.2-.3s-.4-.3-.5-.6a26 26 0 0 0-2-3.6l-.8-1.3-.4-.8-.8-1.4-1-1.8c-.2-.5-.5-.9-.6-.9-.1 0-.6-1.2-.5-1.3l1.2.4c.5.3 1.2.5 1.3.5.2 0 .3.1.3.2l.8.4.8.4.6.3c.3 0 1 .4 1.6.6a1148 1148 0 0 1 6.6 3l1 .5 2.4-2.4a24.7 24.7 0 0 0 2.8-3.3 95.2 95.2 0 0 0 5.5-6V37M206.5 54c0 .1 2.2.3 4.7.3a158.2 158.2 0 0 1 24.1 2c1.5 0 3 .3 3 .3l3.6.5 3.4.5 2.4.4c1.2.1 2.2.3 2.3.4l2.1.4 2 .4 2.8.5 2.5.5 1.7.4c1 0 1.8.3 1.9.3l2.1.5 2.2.5 1.7.4 1.6.4 1.4.4 1.6.4 2 .5a9 9 0 0 1 1.8.5l1.4.4 1.4.4 1.4.3 1.4.4 1.6.5a9 9 0 0 1 1.7.5l1.5.4 1.4.4 1.4.5 1.9.6 1.2.4c.4 0 .8.2.8.3l1.2.4 1.4.4 1.3.4 1.6.6c.4.2 1 .4 1.4.4l.7.3s.4.3 1 .4l1 .4 1.2.4c.6.1 1.2.3 1.4.5l1.3.5 1 .4 1 .4 1 .3 1.1.4 1.8.7a38.5 38.5 0 0 0 4.3 1.7c1.7.8 2 1 2.7 1.2.8.2 2 .8 3.2 1.3l1.3.5.6.3.8.4a21 21 0 0 1 3.2 1.4l1.5.7.7.3-.2 2.3a59.8 59.8 0 0 0-.8 7 39.4 39.4 0 0 1-.9 7.1c0 1.5-.3 2.8-.4 2.9l-.3 2.5-.4 2.6-.5 3-.5 3-.4 2.1-.4 2-.4 1.8-.4 2-.5 2.5a16 16 0 0 1-.5 2.3l-.3 1.7a5 5 0 0 1-.5 1.6l-.1.5c0 .7-.6 3.5-.8 3.8-.1 0-.3.6-.3 1.2l-.4 1.7c-.2.3-.4 1.1-.5 1.8-.1.6-.3 1.4-.5 1.7l-.5 2-.4 1.6-.4 1.3c0 .6-.3 1.1-.4 1.2l-.3 1-.3 1.4-.7 2a12 12 0 0 1-.4 1.7l-.4 1.2-.4 1.1-.5 1.5-.5 1.5-.4 1.2-.4 1.1-.4 1.2-.4 1.2-.4 1.3a12 12 0 0 1-.5 1.4l-.4 1.1a11 11 0 0 1-.5 1.5 26.2 26.2 0 0 0-1.8 4.5 4 4 0 0 0-.4 1.1c0 .4-.2.8-.3.8l-.4.8a3 3 0 0 1-.4 1l-.5 1.2a6 6 0 0 1-.4 1.3l-.4.8a64.3 64.3 0 0 1-3.4 7.7 322.2 322.2 0 0 1-18.6 34.4c-.1 0-.2.1-.2.3l-.6 1a4 4 0 0 0-.6 1l-.7 1-.6 1.1-1 1.5c-.6.7-1 1.4-1 1.5l-.9 1.2-.9 1.3-.8 1.3-1 1.3c0 .1 0 .3-.2.3s-.3.3-.3.4l-.6 1-.6.8-.3.4a47.8 47.8 0 0 0-3.7 5 13.5 13.5 0 0 0-1.4 2 30.7 30.7 0 0 0-3 3.5l-.6.8-1.5 2a33.2 33.2 0 0 1-3.6 4.4 37.9 37.9 0 0 0-2.9 3.3 302.9 302.9 0 0 0-6.8 7.5 365.8 365.8 0 0 1-46.6 41.7l-.5.4a57.8 57.8 0 0 1-4.8 3.6c-.9.6-1 .7-1.2.5a17.8 17.8 0 0 1-3.1-2.3l-.6-.4c-.2 0-.8-.5-1.4-1l-1.2-.9a51.1 51.1 0 0 1-5.8-4.4l-1.7-1.3s-.9-.6-1.8-1.5a17.6 17.6 0 0 0-2.5-1.8 41.1 41.1 0 0 0-4.2-3.5l-6.2-5.4-4.1-3.7-4.3-3.9a552.8 552.8 0 0 1-22-22.8l-2.3-2.6a31 31 0 0 1-2.6-3.2 52.1 52.1 0 0 1-3.8-4.6l-1.4-1.8-1.3-1.7-1.2-1.6a12 12 0 0 1-1.2-1.6l-.4-.6-1.4-1.7-1.2-1.5-.1-.3s-.4-.7-1-1.3l-.8-1.3-.9-1.2a16 16 0 0 1-1-1.6l-1.2-1.6a10 10 0 0 1-.8-1.3l-.8-1.1a5 5 0 0 1-.8-1.3c0-.1-.1-.3-.3-.3l-.3-.3c0-.3-.1-.5-1.7-2.9a10 10 0 0 1-.8-1.4l-.6-.9c-.3-.4-.6-.8-.6-1l-.3-.4a2 2 0 0 1-.5-.6c-.4-1-1-1.8-1.1-2l-.7-1.2a80.8 80.8 0 0 0-2.5-4.2 28.6 28.6 0 0 0-1.7-3.2 430.6 430.6 0 0 1-13.3-27.2 5 5 0 0 1-.5-1.3c0-.2 0-.4-.2-.4l-.3-.5c0-.3-.3-1-.6-1.6-.3-.5-.5-1.2-.6-1.6l-.2-.6-.5-1a9 9 0 0 0-.5-1.4l-.4-1.1-.6-1.3-.2-.7-.4-1a9 9 0 0 1-.6-1.6l-.4-1.2-.4-1-.5-1.3-.4-1.4c0-.4-.2-.7-.3-.7l-.5-1.3-.4-1.4c-.1 0-.3-.6-.4-1.3l-.5-1.6c-.2-.3-.3-.9-.4-1.3 0-.4-.2-.7-.3-.7l-.5-1.6-.5-1.7a6 6 0 0 1-.4-1.2c0-.6-.3-1.2-.3-1.3l-.6-1.8-.5-1.8a7 7 0 0 1-.4-1.5c0-.7-.3-1.3-.3-1.3-.1 0-.3-.5-.4-1.2l-.4-1.6c-.3-.6-.8-3-.8-3.5 0-.3 0-.6-.2-.6l-.4-1.4a8 8 0 0 0-.4-1.6l-.4-1.6-.4-1.5-.5-2.4c-.1-1.2-.4-2.2-.4-2.3l-.4-1.9-.4-1.8-.5-2.6-.5-2.8s-.3-1-.4-2.1l-.4-2.2-.4-2.4a12 12 0 0 0-.4-2.4l-.5-3.2c-.1-1.7-.4-3.3-.5-3.5l-.4-3-.3-3c-.1 0-.3-1.6-.4-3.5a25 25 0 0 0-.7-4.9l-.1-1.4.8-.4 1.2-.4c.2 0 .3 0 .3-.2l.8-.4 1.7-.7a100.8 100.8 0 0 1 10.4-4.5c1-.3 2.3-.9 3.2-1.4L88 76c.4 0 1-.3 1.4-.5l.8-.3 1-.4c.4-.2 1-.5 1.4-.5l.8-.3 1.2-.5 1.6-.6.8-.3.8-.2 1.4-.6a6 6 0 0 0 1-.4l1.5-.5a8 8 0 0 0 1.5-.4l1.2-.4 1.1-.4 1.2-.4 1.2-.4 1.5-.5 1.4-.5 1-.3c.4 0 1-.2 1.4-.4a17 17 0 0 1 2-.6l1.7-.5a7 7 0 0 1 1.3-.4c.6 0 1.2-.3 1.3-.3l1.4-.4 1.5-.4 1.8-.5 2-.5 1.6-.4 1.5-.4a7 7 0 0 1 1.4-.4l1.5-.4 2.4-.5a13 13 0 0 0 2.2-.5l1.7-.4c.8 0 1.6-.3 1.6-.3l2.5-.5 2.5-.5 2.2-.4 2.2-.4c0-.1 1-.3 2.2-.4l2.4-.4 3.4-.5 3.5-.5 3.1-.4c1.5-.1 2.7-.3 2.7-.4l3.7-.3 4-.4c.5-.2 7.1-.6 13.5-.8a145 145 0 0 1 18.5-.3m-18.4 6.6a54 54 0 0 0-7.7.5 126.2 126.2 0 0 0-19.7 2l-2.8.4-3.4.5-3.2.5-1.9.4c-1 0-2 .3-2.1.4l-2 .3-2 .4c-.2.1-1.2.4-2.3.5l-2.3.5-1.7.4-1.7.4-2.2.5-2 .5-1.6.4-1.6.4-1 .3c-.6 0-1.2.2-1.6.4l-2.2.6a9 9 0 0 0-1.8.4c0 .1-.6.3-1.3.4l-1.2.4s-.6.3-1.3.4l-1.4.4-1.7.5-1.7.5-.7.3a7 7 0 0 0-1.4.4l-1.4.5c-.5 0-1 .3-1.1.3-.1.1-.8.4-1.6.5l-1.5.5-1 .4-1.2.4-1.4.5-1.4.5-.8.3a4 4 0 0 0-1.1.4 6 6 0 0 1-1.4.5l-1.4.5-.6.3-1 .3-1.6.6-2.5 1-1.7.7-1.2.5a24.2 24.2 0 0 1-4.3 1.7 41 41 0 0 1-5 2.2l-1.2.6-1 .6.2 1.5c0 .8.2 1.6.3 1.6l.1.8c0 1.2.4 5 .6 5.4l.4 3 .4 2.6.5 2.8.5 3.2.4 2.4c.1 1.2.3 2.2.4 2.3l.4 2 .4 2.1.5 2.5.5 2.5.3 1.8.4 1.8.5 2.2.5 2.1.4 1.4.4 1.6.4 1.6.4 1.6.5 1.9.5 1.7.3 1.5.4 1.5.4 1.4.4 1.3.5 1.7.5 1.7.4 1.2.4 1.3.4 1.2.4 1.2.4 1.5.5 1.6.4 1 .4 1.2.5 1.4.5 1.5.4 1.1.4 1 .3.7c0 .4.3 1 .5 1.5l.5 1.3a25.8 25.8 0 0 1 .9 2.4l1 2.7.7 1.7.4.8.2.4.5 1.3.7 1.8c.1.5.3.8.4.8l.2.6.6 1.5a131 131 0 0 1 3.5 7.4 22.6 22.6 0 0 0 2 4.1l.4.8.1.2a17.8 17.8 0 0 0 1.8 3.6c0 .2 1.3 2.9 2 4l1 1.6c.1.5.6 1.3.8 1.7a63.6 63.6 0 0 1 2.5 4.4 26 26 0 0 0 1.6 2.8l.5.7s.3.2.4.5c.3.8.9 1.7 1.5 2.6l.5 1 .7 1 .7 1 .5 1 .6 1c0 .2.2.3.3.4.2 0 .3.2.3.3l.6 1 .6 1 .9 1.3.9 1.3c0 .2 0 .3.3.4l.3.3.4.9.5.8.3.3c.2 0 .3.3.3.4l.9 1.3.9 1.4.4.4.4.5.5.9c.4.3.6.7.6.9l.3.3c.2 0 .3.2.3.3 0 .2.6 1 1.3 1.8l1.3 1.7a45.4 45.4 0 0 0 4.3 5.5l1 1.4c0 .1.1.3.3.3l.5.6c.1.3 1.1 1.4 2.2 2.6l1.9 2.3a62.9 62.9 0 0 0 6.2 7 442.3 442.3 0 0 0 23.8 23.6 89.2 89.2 0 0 0 7.7 6.8l2.3 2c.2 0 .4.1 2.6 2l1.6 1.3.5.4c.2.3.5.5.6.5l1.7 1.3a15 15 0 0 0 1.7 1.3l1.7 1.3c.8.7 1.6 1.2 1.7 1.2l.4.4.4.4c.2 0 .9.5 1.7 1.2 2.3 1.9 2 2 5.2-.7l.5-.3 1.5-1c.7-.7 1.4-1.1 1.5-1.1l.4-.4 2.1-1.7a130.5 130.5 0 0 0 7.6-6 142.2 142.2 0 0 1 8.4-7.2l1.4-1.3a396.6 396.6 0 0 0 33.6-34.8 33.7 33.7 0 0 0 3.4-4.3 162.6 162.6 0 0 0 12-16.2 9 9 0 0 0 .7-1.2l.9-1.2.9-1.4.3-.4.3-.3.5-.8.6-1a40.4 40.4 0 0 1 2.8-4.6s0-.2.2-.2c.1 0 .2 0 .2-.2l.4-.7a21 21 0 0 0 1.6-2.9c.1-.3.3-.5.4-.5l.4-.6.8-1.5.8-1.4 1-1.5.7-1.3c0-.3.5-1 .8-1.6a132.3 132.3 0 0 0 4.8-9.2 24 24 0 0 0 1.8-3.5s.3-.3.4-.7l.4-.9 1-2 .6-1.5a229.2 229.2 0 0 0 11.4-28.7c.2-.3.4-1 .4-1.3l.3-.8.3-.7c0-.4.3-1 .4-1.3l.6-1.8.5-1.7.4-1.3.4-1.3.4-1.3.4-1.3.5-1.7.4-1.8.4-1.5.4-1.3s.3-.7.4-1.5l.4-1.6.5-2 .5-2 .4-1.8.4-1.6.5-2.2c.1-1 .4-2.1.5-2.3l.4-1.9.3-1.7.4-2 .4-2 .5-2.8.5-2.8.4-2.4c.1-1.3.3-2.4.4-2.5l.4-2.4.4-2.7.5-3.8c.1-1.9.4-3.6.5-3.8l.2-2.4.3-2.5c0-.4 0-.5-.5-.7l-1.3-.6-1.3-.5c-.3 0-.6-.2-.6-.3l-.7-.3-1.3-.5a45.8 45.8 0 0 0-5.8-2.5l-1.5-.5c-.3 0-.9-.3-1.3-.5l-1-.4-.6-.2-1.3-.6-1-.4-1.4-.4-1.6-.6-.7-.3-.9-.3-1.4-.5-1-.4a8 8 0 0 0-1.4-.5l-1.5-.5a6 6 0 0 0-1-.4c-.6-.1-1-.3-1-.4l-1.3-.3-1.8-.6-1.5-.5a5 5 0 0 1-1-.3l-1.2-.4-1.2-.4-1.8-.5-1.7-.5-1.3-.4a6 6 0 0 1-1.3-.4l-1.3-.4-1.4-.4-2-.5a10 10 0 0 1-1.8-.5l-1.4-.3-1.5-.4-1.5-.4-1.6-.4-2.2-.5-2-.5-1.8-.4c-1-.1-1.8-.3-1.9-.4l-2.2-.5c-1.2-.1-2.2-.4-2.4-.5l-2-.4c-1 0-1.9-.3-2-.3-.1-.1-1-.3-2.2-.4l-2.1-.4a24 24 0 0 0-3.1-.5l-3.2-.5-2.8-.4c-1.5-.1-2.8-.3-2.9-.4l-3-.4-3.2-.4a138.7 138.7 0 0 0-12.2-1c-.5-.4-18.2-.6-29.4-.3M170 77.8c9.7 9.7 9.8 9.8 9.5 10.2a66 66 0 0 0-1.7 2.2l-1.3 1.7a13.6 13.6 0 0 0-1.6 2.2 51 51 0 0 0-4.6 5.5l-2.6 3a53.9 53.9 0 0 1-30.4 29.8s-1 .6-2 1.5c-1 1-2 1.7-2 1.7-.2 0-1 .7-1.9 1.5a12.8 12.8 0 0 1-2.3 1.7c-.7.6-1.6 1.4-1.8 1.4a417 417 0 0 1-19.5-20.1c0-.3.3-.5.4-.5l.2-.2c0-.2.6-1 1.3-1.8a14 14 0 0 0 1.2-1.7l1.4-1.8 3.5-4.3 1.9-2.2a91.7 91.7 0 0 1 6.4-7.4 503.2 503.2 0 0 1 18-17.6 92.4 92.4 0 0 1 9.3-8l.5-.5 2-1.5a75.7 75.7 0 0 1 6-4.6c.2 0 4.7 4.4 10.1 9.8m72.4-9a43.7 43.7 0 0 1 3.6 2.7l1.7 1.4 1.9 1.5c.2 0 1.1.9 2 1.7l2 1.5 1 .8.8.8a55.1 55.1 0 0 1 5.1 4.3 451.5 451.5 0 0 1 18 18.2c.3 0 1 1.2 1.4 2.5l.4 1.3.4 1.4.4 1.4.4 1.6.4 1.5.5 2.7.5 2.8.4 3.2a170.5 170.5 0 0 1 1 16.3c0 2.6 0 2.7-.5 3.4-.3.3-.5.7-.5.9 0 .5-4 3.8-4.7 3.8-.1 0-1-.6-1.9-1.4l-1.8-1.4a55.7 55.7 0 0 1-5-4l-1.8-1.5-2-1.7a178.7 178.7 0 0 1-8-7 576.9 576.9 0 0 1-21.8-22 163.2 163.2 0 0 1-13.5-16.3 9 9 0 0 1-1-1.4s2-2.3 4.7-4.9A218 218 0 0 1 241.3 68l1.1.7m35.2 23.1l-1.7 2-1.8 1.7-2.7-2.8-4.4-4.5-1.6-1.8 1.7-1.7 1.8-1.8 4.3 4.4 4.4 4.5m-143.4-6.5l1.6 1.6-4.5 4.5-4.5 4.5-1.6-1.5-1.5-1.8c0-.2 8.6-9 8.8-9l1.7 1.7m-74.3 8.4l.2.9.4 2.6.4 2.9c.4.9.6 3.6.2 3.6-.2 0-.3-.3-.4-1-.1-.6-.3-1-.7-1.4l-.5-.6-2.8.1c-1.5 0-2.7.2-2.8.3l-3.6.5a29.5 29.5 0 0 0-5.4.9c-1 0-2 .3-2 .4a3 3 0 0 1-1 .3c-.5 0-1 .3-1.4.6l-1 .5c-.2.1-.3.3-.3.4l-.5.8c-.3.3-.6 1-.6 1.4l-.3 1c-.3.2-.3 1.4 0 1.8l.4 1.6c.1.7.4 1.6.7 2l.5.9c0 .4 2.5 2.2 3 2.2l.6.2c.1.3 4 .3 4.3 0l2.8-.4c1.5-.1 2.8-.3 2.9-.4l3.5-.5a19.2 19.2 0 0 0 4-.7c1.1-.2 2.2-2.7 1.4-3.2-.3-.2-.2-.5.2-.5.3 0 .4.2.4.8 0 .4 0 .8.2.9l.4 2.8c.1 1.4.3 2.7.4 2.7.3.2.2 1.2-.1 1.5-.3.2-.3.1-.3-.3 0-.5-.8-2.1-1.2-2.3l-.7-.3c-.5-.3-1.8-.3-2-.1 0 0-1.2.3-2.6.4a67.3 67.3 0 0 1-11.1 1.4c-.4.2-.5.2-.8 0l-1.4-.2c-3 0-6.4-3.4-6.8-6.7 0-.6-.2-1.1-.3-1.2-.3-.1-.3-5 0-5.6l.6-1.3c.5-1 3-3.4 3.5-3.4l.7-.3c.4-.3 3.7-1 4.7-1h.6c0-.2 1.2-.4 2.6-.5 1.4-.1 2.6-.3 2.7-.4l2.8-.4c1.4-.1 2.6-.3 2.6-.4l.8-.3c1.1-.1 1.8-1.3 1.7-2.7 0-.7 0-.9.2-.9s.2.2.2.6m305.7 5a47.7 47.7 0 0 0-.6 3.8l-.3 2.7c-.3 2.3-.3 2.6-.7 2.6-.3 0-.3-.2-.3-1 0-1.6-.4-1.8-2.4-1.7a7 7 0 0 0-2 .3l-1.6.4c-1.6.3-1.9.6-1.9 1.6l-.1.9-.5 2.8c0 1.5-.3 2.8-.4 2.9-.2.3-.3 2 0 2l1 .6.9.6 1 .7c2.5 1.7 3.9 1.5 4.5-.5.2-1 1-1.5.8-.5l-.2 2a6 6 0 0 1-.3 1.8l-.3 1.7c-.2 2.4-.7 2.7-1 .8-.1-.7-1.5-2.5-2-2.5l-.7-.4a43 43 0 0 1-6-3.8c-.2 0-.6-.3-1-.7a4 4 0 0 0-1.2-.5l-.3-.3c0-.2-.2-.3-.3-.3a3 3 0 0 1-1-.5L347 113l-1.5-1c-.2 0-.7-.3-1-.6l-.8-.5-1.3-.7a45 45 0 0 0-3.8-2.4c-.7-.3-.4-1 .5-1l1-.4 2-.4 2-.5 1.7-.4a7 7 0 0 0 1.6-.4l1.6-.4 1.5-.4 2.1-.5 2.3-.5 1.6-.4 1.4-.4 1.8-.5c1-.1 2-.4 2.3-.6l.8-.3c.5 0 2-1.4 2-2 .3-1 1-1 .9 0m-12.3 8.2a7 7 0 0 0-1.3.3l-1.6.4-1.5.4-2 .5-2 .5-.5.2c-.4.1-.4.1 0 .3.3 0 .5.2.5.3 0 0 .2.3.5.4l1.1.6.9.5.2.2.2.2.9.5.8.5 1.3.8 1.2.8.8.5.6.4.2-1.7c0-1 .2-2 .3-2.1.1-.4.6-4.6.5-4.7l-1.1.2m-108.5 9.2l4.4 4.3-19.6 19.6-19.6 19.6-4.4-4.5-4.5-4.4 19.5-19.5 19.6-19.5 4.6 4.4M213 164l52.1 52.1-4.4 4.4a87.3 87.3 0 0 1-4.6 4.5c-.2 0-104.2-104-104.2-104.3 0-.1 8.6-8.9 8.8-8.9l52.3 52.2M64.2 121.8c0 .7.2 1.3.2 1.3.1 0 .3.8.4 1.9l.3 1.8-1 1.1a158.7 158.7 0 0 0-6.8 8.2l-.7.8-1.8 2.3-2 2.3s-.7 1-1.7 2l-1.7 2c.1.2 3.8-.5 4.2-.6a14 14 0 0 1 2.1-.4l2-.4 2.5-.5 2.6-.5 1.6-.4c2-.3 2.8-1 2.8-2.5 0-.6 0-1-.2-1.1-.3-.2 0-.5.3-.5.2 0 .3.2.3.5s0 .6.2.8l.5 2.7a16.8 16.8 0 0 0 .8 3.7c.1 1.3-.5 1.3-.8 0-.2-1.1-.7-1.8-1.6-2-.7 0-4.2.3-4.4.6l-2.4.4-2.6.5-2 .4-2.1.4-2 .4-2 .4-2.6.5-2.6.5c-.3.3-.7.2-.7-.1 0-.2-.1-.3-.2-.3s0-.3.5-.7l.7-.8a39.3 39.3 0 0 1 3.5-4.3l1.8-2.2c1-1 1.7-2 1.7-2.1 0-.1.3-.5.7-.8l.7-.8 1-1.3 1.2-1.4.5-.7a25.2 25.2 0 0 1 2.3-2.8c2.3-2.5 2.3-2.7 1.1-2.5l-1.1.2-1.9.4-1.8.4-2.6.5c-1.3.1-2.5.4-2.7.5l-2 .4-2 .4-1 .2c-1 .2-2.2 1-2.2 1.5 0 .2 0 .4-.2.6-.2.1-.2.3 0 .4.3.4.3 1.3 0 1.5-.3.2-.4 0-.6-1.2 0-.7-.3-1.6-.4-1.8l-.4-2.2-.4-2c-.2 0-.2-1.1.1-1.3.3-.2.3-.1.4.7.1.6.4 1 .9 1.6l.6.6h1.8l2-.4 2-.4 2-.4 2.5-.5 2.6-.5 2-.4 2-.4 1.7-.3c1.4-.3 2.4-.9 2.4-1.6 0-.1 0-.2.2-.2.3 0 .6-2.1.5-3 0-.6 0-.8.2-1 .5-.2.6.1.8 1.9m272.8 1.6c0 .4 0 .7-.2.8-.2 0-.2.2 0 .3l.2.7c0 .5 1 1.4 1.6 1.4l.7.2 2.5.5 2.6.5 1.8.4c1 .1 1.8.3 1.9.4l2.6.5 2.7.5c.1 0 1.1.3 2.3.4 1.1.1 2 .3 2 .4 0 .2.8.2 1.4-.2.8-.4 1.2-.9 1.4-2 0-.6.2-.8.4-.8.4 0 .2 2.2-.2 3l-.4 2.1c-.1 1-.3 1.8-.4 1.9l-.4 1.9c-.3 2-.6 2.1-.7.1-.1-1.7-.6-2.2-2.1-2.4a4 4 0 0 1-1.2-.3l-2-.4a9 9 0 0 1-1.8-.4l-1.8-.4-2.1-.4a21 21 0 0 0-2.7-.5 17 17 0 0 1-3.7-.7 264.3 264.3 0 0 1-2-.1 26.1 26.1 0 0 1 3.1 2.3l1.6 1 1.4 1.2a41.3 41.3 0 0 1 4 2.9s.7.4 1.3 1l1.4 1 1.5 1 2.4 1.9c2.3 1.6 2.3 1.8-.1 2.3l-2 .4-1.7.4a9 9 0 0 0-1.7.4l-1.5.4-1.5.4-2 .5-2 .5a8 8 0 0 1-1.6.4l-1.6.4-1.5.4c-.8 0-1.6.3-1.8.4l-1.2.3-.8.2 1.1.1 1.3.3c.1.1 1 .3 2.1.4l2 .4s.7.3 1.7.4l2.1.4 2.7.5 2.6.5c.7.6 4.4.4 4.6-.2l.4-.8c.2-.3.3-.8.3-1.1 0-.6 0-.6.4-.4.3.2.4 1.2 0 1.6l-.4 2-.4 2.1-.2 1.2c-.4 2.3-.8 2.4-.8.2 0-1.6-.7-2.3-2.1-2.5l-1.3-.3c-.2-.1-1.3-.4-2.5-.5l-2.6-.5-2.1-.4-2-.4-2.4-.5a20 20 0 0 1-2.7-.5c-2.5-1.2-5.5-.3-5.9 1.6 0 .5-.2.8-.4.8-.4 0-.3-2 .1-2.9.2-.3.8-3.8.8-4.3h.5l.6-.3a7 7 0 0 1 1.7-.4l1.6-.4 1.6-.4 1.6-.4 2-.5 1.9-.4c.1-.1.8-.3 1.7-.4a9 9 0 0 0 1.6-.4l2-.5 2.1-.5a4 4 0 0 1 1.2-.3c.5 0 .9-.2.9-.3a12.1 12.1 0 0 0-2.6-2 83.4 83.4 0 0 0-6.3-4.7l-1.6-1.1a9 9 0 0 0-1.6-1.2c-.2 0-.4-.2-.5-.4l-.4-.4c-.2 0-.6-.3-1-.6a3 3 0 0 0-.8-.6c-.1 0-.3-.1-.5-.4 0-.2-.3-.4-.4-.4l-1-.5-.6-.6.3-2.5c.2-1.3.5-2.4.6-2.4l.1-.6c0-.8.4-1.6.6-1.5l.2.8M70.3 151l.6 2.2.4 2 .4 1.5.4 1.6c.2.3.3 1 .1 1.2-.2.5-.4.3-.6-.6-.1-.9-.9-1.9-1.4-1.9-.1 0-.3 0-.3-.2s-.6-.2-1 0l-2.3.5-2 .5-1.7.4-1.7.4-1.4.4-1.5.4-2 .5-2.1.5-1.7.4c-.7 0-1.4.3-1.4.3l-.7.3c-1.2.2-1.8.7-2 1.3l-.2.6c-.3 0-.3 1 0 1.3.1.2.2.6.1.8-.2.5-.6-.1-.8-1.3 0-.5-.2-1-.3-1.1l-.4-1.5-.4-1.4-.4-1.6-.4-1.6-.2-.9c-.3-1.2.4-1.1.7.1.3 1.4 2.7 2.6 3.6 1.7l2-.5 1.9-.5 1.5-.4a8 8 0 0 0 1.6-.4l1.6-.4c.7 0 1.4-.3 1.6-.4l1.8-.4 2-.5 1.6-.4a11.4 11.4 0 0 0 2.8-.8c.5-.1 1-.4 1-.6.3-.7.4-1.6.3-2.3-.2-1.1.4-1.5.6-.4 0 .5.2 1 .3 1.2M172 197.7l-27.5 27.5-4.5-4.5-4.4-4.4 27.5-27.5 27.5-27.5 4.4 4.4 4.5 4.5-27.5 27.5m-99.1-36l.5 1.8.5 1.6.4 1.1c0 .6.3 1.4.5 1.7l.4 1.7.4 1.3c.3.1.3.4 0 .4-.2 0-.6-.4-1-1-.9-1.3-3-1.1-3.6.3l-.3.1-2.5 2a39.7 39.7 0 0 1-3.7 3.2 64.6 64.6 0 0 1-6.3 5.5l.7.1a29 29 0 0 0 5.2.6l4 .4c0 .1 6.1.6 7.8.6 1.4 0 1.9-.6 1.9-2.2 0-1.5.5-1.5.9 0 0 .3.2.6.3.7l.3 1.3.5 1.3.7 3c0 .2-.5-.1-1.2-.8-.6-.7-1-1-1.7-1l-1-.3-4-.4-3.7-.4a33 33 0 0 0-4-.4 36 36 0 0 1-4-.4l-4-.4c-5.8-.4-5.8-.4-3-3a24.3 24.3 0 0 1 3-2.4 93 93 0 0 1 6.5-5.6l2.7-2.3 2.8-2.4c.1 0 1-.7 1.8-1.5l1.6-1.6v-1.4c0-1.4.1-1.6.6-1.1m280.6 3l-.4 1.3-.4 1.4-.4 1.4-.5 1.7-.5 1.6-.2.5c0 .3 0 .3-.4.2-.3 0-.3-.1-.2-.1.3-.2.3-1.6 0-2.1-.5-.7-1.3-.8-4.5-.5-3.3.2-3.2.2-3.5 1.9l-.5 1.9-.5 1.7-.4 1.4-.4 1.5c-.3 1.3-.3 1.5.5 2 .3.1 1.2.9 2.1 1.7 2.4 2 4 2 4.4 0 .1-.6.6-1 .8-.7.1.1-.3 1.8-.6 2.6l-.5 1.9-.4 1.3-.3.9c-.2 1.3-.9 1.3-.9-.1 0-.7-.1-1.2-.4-1.7a8 8 0 0 0-2-2l-2.4-2a27.9 27.9 0 0 0-3.2-2.6 85.8 85.8 0 0 0-5.4-4.6l-2.5-2.1a27.7 27.7 0 0 0-3.7-3c-1.5-1.4-1.3-1.6 2.3-1.9 1.5 0 2.9-.2 3.1-.3l3.8-.4c2-.1 3.6-.3 3.9-.4l5-.5a48 48 0 0 0 5.9-.7c.5-.1 1.1-.3 1.4-.6l.7-.3.2-.2c0-.4.9-1.6 1-1.4v1.3m-17.6 6.3a52.7 52.7 0 0 0-4.7.7 22 22 0 0 0 4.4 4c3.1 3 3.8 3.2 4 1.5l.5-1.4.5-2 .5-1.7.3-.8.1-.7h-.8l-4.8.4m-14.7 14.7c.4 0 .7.2.7.2 0 .1.3.3.7.3l1.4.4 1.8.6c1.7.4 2.2.7 2.2 1.1 0 .4-.5.5-.7.2-.1-.3-2.1-.3-2.6 0l-1.6.4c-4.3.8-7.1 6.7-5 10.8l.7 1.1s.2.1.2.3c0 .3 2 2.3 2.3 2.3.1 0 .3.1.3.3.1.1.2.3.4.3l.8.4c.6.5 2.1 1.3 3.4 1.7l1.3.5c.4.2 1.2.4 1.8.4l1.4.3c.1.3 2.2.2 2.2 0l.6-.2c1 0 1.8-.3 2.7-.9l1.2-.8c.6-.3 1.4-1 1.4-1.3l.5-.8.5-.9.4-1c.6-1 .6-5 .1-6-1.5-3-1.8-3.4-1.6-3.6.2-.2 1 .5 1 .8l.6 1c.4.5.6 1 .6 1.2l.3.6c.2.2.4.8.4 1.3l.3 1c.3 0 .3 2.9 0 3l-.2.7c0 1.9-2.6 6.4-4.3 7.4-.2 0-.7.4-1.1.7l-1.5.8-1 .4c-.4.6-6.2.6-7.5 0l-1.3-.4-1.7-.8-1.6-.9a16.5 16.5 0 0 1-4.5-5c-.2-.1-.4-.6-.6-1.1l-.4-1.4c-.4-.8-.3-6 0-6.6.3-.4.4-.7.4-.9 0-.6 1.4-2.8 2.8-4.2 1.7-1.7 1.8-2 1-3-.7-.6-.7-1.2-.2-1l1 .3m-239.6 3l.4 1 .4 1.1a97.7 97.7 0 0 1 3.6 8.4 26.6 26.6 0 0 0 1 2.2l.4 1 1.4 3.3c0 .4-4.7 2.6-5 2.3-.1-.2 0-.4.4-.7 2.6-2 2.7-3.4.7-7l-.2-.8-.5-1.4-.9-1.8-.6-.8c-.4 0-1.4.4-1.6.6 0 0-.4.3-.9.4l-1.8.7c-.5.3-1.1.5-1.3.5-.2 0-.3 0-.3.2l-.8.4-1.2.5-.8.3c-.3 0-.4.3-.2.7l.4 1 .6 1.5 1 2c.9 2 1.4 2.4 3 2.4.9 0 1.3 0 1.4-.2 0-.2.2-.2.2-.1.3.2 0 .6-.8 1a70.7 70.7 0 0 0-2.4 1l-3 1.4c-1.9.8-2 .6-.3-1l1.2-1-.1-1.3c0-.7-.2-1.3-.3-1.3l-.3-.6a29.6 29.6 0 0 0-1.8-4.3c-.2-.5-.4-.6-1.2 0a3 3 0 0 1-.9.3l-1.4.6a15 15 0 0 1-2.4 1l-1.3.5c-.3 0-.5.2-.5.3l-.8.4c-1.2.4-2 1.5-1.4 2l.4 1 .5 1.2c.2.2.3.5.3.7 0 .3.8 2.1 1.2 3l.6 1c.1.3.3.5.4.5l.7.5 1.2.6.7.3 1.7.3c1.4.1 2.2.4 1.7.8-.3.1-6 .5-6.3.4-.3-.1-.8-1.2-1.8-3.7a78.5 78.5 0 0 0-2.9-6.8 108.8 108.8 0 0 1-2.8-7.1c.3 0 .5.2.6.6.2.3.3.6.5.6 0 0 .2.1.2.3 0 .8 2.3.8 4 0l1.7-.6.5-.3.4-.2a27 27 0 0 0 13.7-5.8c1.4-.8 1.8-2 1.1-4l.1-.4.5.4m9.7 22a44.7 44.7 0 0 0 2.3 4.2l.8 1.4a41.2 41.2 0 0 1 2.7 5.6c.8 1.3.5 4.8-.5 6.3-2.2 3.2-6.2 3.5-9.7.6-1.1-1-1.7-1-1.7 0l-.1.3a47 47 0 0 1-3.4 7.2L81 238c0 .3-.2.7-.3.8-.3.4-.2 3 .1 3.7.4.7.3 1.3 0 1.3l-.8-1.2-1.3-2.4-1-1.7-.3-.6.9-2a33.8 33.8 0 0 0 2.4-5l.2-.4.9-2 1.3-2.8.4-1-.4-.8c-.9-1.6-.9-1.6-1.7-1l-.9.5-1.2.6a25 25 0 0 1-2.9 1.7c-.4.1-1 .5-1.4.8a3 3 0 0 1-1 .6c-.7 0-.8 2.1 0 3.3.3.6.3.6 0 .6s-.6-.2-.8-.7a12 12 0 0 0-1-2c-.2-.2-.8-1.1-1.4-2.3l-2-3.6c-.3-.2-.1-.8.2-.8l.5.7c.7 1.6 2.2 1.9 4 .9a78.6 78.6 0 0 1 4.6-2.6 41 41 0 0 0 4.8-2.6l1.2-.6c.4-.3 2.2-1.4 3.3-1.9.5-.2 1.2-.6 1.6-1l1-.6c.8-.5 1.4-2 1-2.4-.3-.3-.7-1.6-.5-1.9.1-.2.3 0 .8 1.1m.4 6.5a39.4 39.4 0 0 1-3.7 2 40.2 40.2 0 0 0-4.4 2.4c-1 .4 3 5.1 4.2 5.1l.5.2c.2.3 2.5.2 3.2-.1 3-1.5 4.3-4.5 3-7a10.4 10.4 0 0 0-1.4-2.4c-.3-.5-.7-.6-1.4-.2m214.4 1.3l2.8.4c1.4.1 2.6.3 2.6.4l2.5.4c1.4.1 2.6.3 2.7.4l3.4.4 3.7.5c2.2 1 7.6.8 8.7-.3l.8-.4c.4 0 .4 0-.5 1.3l-.5.9-.4.7-.8 1.4-1.2 2-1 1.7c-.1.3-.3.6-.5.6-.3 0-.5-.4-.2-.6.1 0 .3-.6.3-1.1.2-1.5-.5-2-3.5-2.3-3.5-.5-3.8-.5-4 .3l-.4.5-.5.8c-.1.5-.3.8-.4.8l-.5.8a27.6 27.6 0 0 1-1.9 3.5c-.1.3-.3.6-.5.7-.3.2-.2.9.2 1.1l.4.5.6.9.6.8.3.5a70.5 70.5 0 0 1 1.7 1.8l.4.2c0 .4 1.5-.3 2-1 .5-.6 1-.8 1-.3 0 0 0 .3-.2.5-.3.3-.8 1.2-1.8 3.1l-.9 1.4a2 2 0 0 0-.4.8c0 .1 0 .2-.2.2 0 0-.2.1-.2.3 0 .2 0 .3-.2.3-.4 0-.6-.2-.3-.5.8-1 .1-2.9-2.3-6l-1-1.4c0-.2-.2-.3-.3-.3l-.2-.2c0-.2-.4-.8-1-1.5l-1-1.4s-.4-.7-1-1.3a10.6 10.6 0 0 1-1.2-1.9 33 33 0 0 1-2.8-3.7l-1-1.4-.9-1.2c0-.2-.2-.4-.3-.4a.2.2 0 0 1-.2-.2l-.7-1-.7-1.1c0-.1 0-.2-.2-.2s-.5-.8-.4-1.2c.1-.2 1.3-.3 1.5 0m3.3 4.3s0 .3.3.4l.2.4 1 1.5c.7.7 1.3 1.5 1.4 1.8a29.2 29.2 0 0 0 2.4 3.3l.5.8.5.6.3-.6a55 55 0 0 0 1.3-2.2l1.7-2.9c1-1.6 1-1.8-1-2l-1.9-.3s-1.2-.3-2.5-.4a13 13 0 0 1-2.6-.4c-.2-.2-1.6-.2-1.6 0m-9.5 8l.4.4c0 .1.1.2.3.2l1 .7 1.3.8c.2 0 .4.2.4.3 0 .3-.4 1-.4.7 0-.8-3.6-.9-4.7-.1-.7.5-2.4 2.6-2.4 3l-.2.1-.5.6c-.3.7 0 1.1 1.4 1.9.3.1.5.4.5.5 0 0 .1.2.3.2l.9.5c.4.4.8.6.9.6l.4.4.5.4 1.4 1a9.9 9.9 0 0 0 1.7 1.2c1.3 1 2.5 2 3 2.1l1.7 1.3 1.4 1 1.4 1c1.8 1.4 3 1.4 4.1.2 1-1 1.1-1 1.1-.7 0 .3-1.2 2.1-2 3l-.3.4-.9 1.3-.9 1.2c0 .2-2 2.7-2.1 2.7-.4 0-.4-.3 0-1 .6-.7.7-2.2.3-2.9-.4-.5-2.8-2.4-3-2.4-.2 0-.4-.1-.5-.4l-.5-.4a3 3 0 0 1-.8-.6l-1-.5-.4-.4-.4-.4-1.6-1.1c-.7-.6-1.4-1-1.5-1l-1.3-1c-.7-.6-1.4-1-1.5-1l-.4-.4-.4-.4c-.2 0-.6-.3-1-.6a3 3 0 0 0-.8-.6c-.2 0-.4-.2-.5-.4l-.4-.4-.8-.4-.5-.4-.7 1a22.7 22.7 0 0 0-1.7 2.5c-.8 1-1 3.4-.5 3.5l.2.4.7 1c1 1 .7 1.6-.3.7l-.8-.6c-.2 0-3-2.4-3-2.6 0-.1.2-.6.6-1l.7-1.1c0-.1 0-.2.2-.2.1 0 .3-.2.3-.4l1.1-1.5 1-1.4a46.7 46.7 0 0 1 3.5-4.8l.6-.9c0-.1.1-.3.4-.4l.3-.5 1-1.4 1-1.4c0-.6 1.4-1.8 1.8-1.6l.9.5m-128 12.1c.1 13.8 0 13 2.4 13.3.8.1 1 .2.9.5-.1.5-9.6.6-9.6 0 0-.2.2-.4.6-.5l1.2-.2c1.3-.2 1.3.1 1.3-10v-10c-.2-1.5-1.4-2-2.8-1.3-.6.3-.6.3-.7-.2-.2-.5 5.2-3.4 6.3-3.4h.4V243m21-11.4c2.4.7 4.5 3.2 4.5 5.3 0 1.7-1.4 3.7-3.8 5.3-1.3.9-1.3 1-.3 1.8 5.6 3.9 6 10.2.9 12.9-.6.3-1.3.5-1.5.4l-.3.1c0 .1-.7.2-1.8.2a6 6 0 0 1-2.1-.2h-.3c-.7.4-3.7-2-4.5-3.8-1.3-2.7-.7-4.8 2.3-7.7l1.8-1.8-1.4-1.3a9.3 9.3 0 0 1-2.8-4c-1.7-4.8 3.7-9 9.4-7.2m24.4.3l-.5 1.2-.7 1.5c-.2.5-.2.5-4 .5h-3.7l-.8 1.5c-.8 1.8-.8 2-.3 2 1.8 0 6 2 7.5 3.6 2.5 2.8 3 7.6 1.1 10.3l-.4.7a13.4 13.4 0 0 1-3 3c-2 1.6-7.1 2-8.7.4-2-2 .1-4 2.5-2.4 3.3 2.2 6.3 1.4 7.9-2 1-2-.2-6.6-1.9-7.3l-.3-.3c-1.2-1.1-3.6-2.2-5.5-2.4-3.3-.3-3.3.2-.8-5l2.3-4.7.3-.8h4.5c2.5 0 4.5.1 4.5.2m21.5.3a60.6 60.6 0 0 1-3 9.6 128.6 128.6 0 0 1-3 9c-.3.4-.8 2.2-1.4 3.8l-1 3h-1.2c-.6 0-1.1 0-1.2-.2a78.5 78.5 0 0 1 3.7-11.4 52.7 52.7 0 0 1 1.7-4.9 71.8 71.8 0 0 1 2-5.8c0-.3-6.4-.3-8.2 0-1.3.2-2.1.7-3.2 2.1-.3.5-.6.7-.6.6l-.3-.2c-.5 0-.4-.2 1-4l.6-1.6.1-.5h7c7 .1 7 .1 7 .5m-48.9.6c-4.4.8-4.8 4.5-.8 7.8 2 1.6 1.8 1.6 3.2.2 3-3 2.6-7.9-.6-7.9-.2 0-.5 0-.5-.2l-1.3.1m-85.2 2.8l1.2.5c1.3.3 3.7 2.8 4.2 4.2l.5 1.2c.1.2.3.8.3 1.3.2 1.4.8 2 1.8 1.8.8-.1.9 0 .9.3 0 .2-.1.4-.3.4l-.9.5c-.4.4-.8.6-.9.6l-.4.4-.5.4-1.4 1-1.5 1-.2.1-.4.4c-.8.5-.7-.3.3-1.4 4-4.3 1.2-11.6-4-10.5-.9.2-2 1-2 1.5l-.3.9c-.4.7-.3 6.3.2 6.8.3.3.3 7.6 0 7.8l-.5.8c-.7 1.3-2.6 3-3.3 3-.2 0-.4 0-.5.2-.3.3-3.3.3-3.7 0l-1-.4c-.5-.1-.9-.3-.9-.4 0-.1-.1-.2-.3-.2a9 9 0 0 1-2.6-2.7l-.2-.2c-.2 0-1.1-2-1.4-3l-.4-1-.4-1c-.3-1-.7-1.3-1.7-1H84c-.3-.2 0-.7.2-.7.1 0 .6-.3 1.1-.8a11 11 0 0 1 1.4-1l1.8-1.3c.7-.6 1.4-1 1.5-1l.5-.3c.2-.3.2-.3.4 0 .1.2-.1.6-1 1.5l-1.1 1.9c0 .3-.2.6-.3.7-.3.2-.3 3.3 0 4l.7 1.2c2 4.5 8 4.5 8.5 0l.2-.9c.2-.1.2-1 0-1.4a44.2 44.2 0 0 1-.8-7c-.2 0-.3-2 0-2.2l.3-1c.2-2 1.8-4 3.6-4.6l.8-.4c0-.2 2.7-.2 3.1 0m83.9 10a13.7 13.7 0 0 0-2.2 3.3 99.6 99.6 0 0 1-.2 2.1c-.2 3.8 2.4 5.8 6 4.8 3.9-1.2 3.5-5.1-.8-8.7-2.4-2-2.4-2-2.8-1.6M117 250l.4.5c0 .2.3.5.7.8l.7.8c0 .1 1.5 2 3.4 4 1.5 1.7 1.4 2.5-.1 1.1-.6-.5-1-.7-1.6-.7-1.2 0-1.3.1-3.2 1.8a43.6 43.6 0 0 1-3 2.4 52.4 52.4 0 0 1-4.5 3.9l-.9.8c-.2 0-2.6 2-4.4 3.8-1.5 1.4-1.6 2.2-.6 3.6.4.5.5.9.4 1a24.8 24.8 0 0 1-4.7-5.1c-2.3-2.4-3.3-4.4-1-2.3.9.8 2.5 1 3 .3l.4-.4 2.2-1.7 2.1-1.8 2.6-2.1a150.9 150.9 0 0 1 7-6c1.2 0 1.9-3.4.8-4l-.4-.6c-.1-.5.2-.6.7-.1m162.8 6l1 .3.7.3c.4 0 .9.3 1.1.4.2.2 1 .4 1.7.6l1.4.5 1 .3c.3 0 .8.2 1 .4l1.4.5 1.1.4 1.2.4c.6.1 1.3.4 1.7.6.4.2 1 .4 1.4.4l.7.3.8.3c.4 0 .9.3 1.1.4l1.7.6c.7.2 1.4.4 1.5.6.4.2 4.1.3 4.3 0a3 3 0 0 1 1.1-.7c.4 0-.1.9-1.7 2.6a19 19 0 0 0-1.9 2.3l-.8 1-1.3 1.4c-.8 1-1 .4-.4-.8.3-.6.4-1.1.3-1.2l-.1-.4c0-.4-.9-1-2-1.4l-1-.4-1.2-.3-1.5-.6-.7-.3-1.5 1.7-1.6 1.8-.8 1-1 1c0 .1-.3.6-.8 1l-.9.9.4.7 1.4 2.8c1.5 3 2.3 3.4 3.9 2 .6-.6.8-.7.9-.4.1.3-.6 1.2-2.5 3.2-.4.4-.8.8-.8 1 0 .2-1.7 2-1.8 1.8-.2-.2-.1-.7.3-1.5.3-.5.3-.9.2-1.1l-.4-1.4-.4-.9-.4-.7a4573.1 4573.1 0 0 0-9.6-20.7c-.4-.9-.3-1.3.5-1l1.3.3M129 263.8l1.7 2a33.8 33.8 0 0 1 4.7 5.3 11 11 0 0 1 1.6 3.3c0 .2.1.5.3.6.3.4.3 4.6 0 5-.2.1-.4.7-.5 1.2-.1.6-.6 1.5-1 2.2l-.8 1.2a18.5 18.5 0 0 1-5.4 4.5l-1 .5c-1.3.7-6 .7-7.6 0-2-.8-3-1.3-4-2.1l-1.1-.9-2.1-2-4.6-4.8c-2-2-2.6-2.8-2.5-3 0-.4.2-.3.9.4.5.5 1 .8 1.5.9.6.1.8 0 2.2-.8.2-.1 1.7-1.5 3.3-3.2l3.1-3c.4 0 7.7-7.5 8-8 .2-.7 0-2-.4-2.1l-.3-.3c0-.1 0-.4-.3-.6-.1-.2-.2-.4-.1-.5.1-.3 4.4 3.8 4.4 4.2m152.8-3.3a209.1 209.1 0 0 1 4.1 9.3c.2.6.7.7.9.2a138.6 138.6 0 0 0 3.4-3.9c1.9-2.2 1.9-2.2.2-2.6a4 4 0 0 1-1-.4 10 10 0 0 0-2.5-.8c-.2 0-.3 0-.3-.2l-.7-.3a7 7 0 0 1-1.3-.4l-1.4-.5-1-.4h-.4m-44.6 3.4c0 .3-1.2 1.4-1.5 1.4 0 0-.3.1-.5.4a27.2 27.2 0 0 1-3.7 2.9l-.7.6-.5.3c-.2.2-3.7.3-30 .3h-29.6l-2.2-2-2.4-2-2.2-2 36.6-.1c29.2 0 36.7 0 36.7.2m-112.6 5.6c-7.1 6.9-10.6 10.3-11.3 10.8-.8.6-.8.5.4 2.1a12 12 0 0 0 5.2 4.2l1 .4c.5.3 4.1.3 4.2 0l1.2-.4c.6-.1 1.1-.3 1.1-.4 0 0 .1-.2.3-.2l1.2-.6 1-.7c.2 0 3-2.8 3-3l.7-1.1a8 8 0 0 0 .9-1.8l.4-1.2c.4-.4.3-4.3-.1-5l-.3-.8c0-1-3.3-5-4-5l-.5-.2c-.5-.9-.8-.6-4.4 2.9M254.8 284c2.5 2.4 2.2 2.9-.5 1.1-1.2-.8-2.9-.3-4.7 1.6l-1.1 1c-.1 0-.7.4-1.3 1a7 7 0 0 1-1.3 1.3l-.6.4-.5.5 1 1.2a35.8 35.8 0 0 0 2.4 2.7s.7 1 1.7 2l1.6 1.7.8-.7 2.8-2.6 2-1.8v-1c0-1-.5-2.3-1-2.5l.2-.4c.3-.4.3-.4.4 0l1.1 1.3c3.6 3.9 4.5 5 4 5-.1 0-.4-.1-.7-.4-.2-.2-.6-.3-.7-.3l-.5-.3c-.3-.5-1.2-.4-2.1.2l-1 .4-1 1.1a7 7 0 0 1-1.3 1.1s-.6.4-1.1 1l-1 1 1.3 1.4 2.2 2.4c3.4 4 4.1 4.4 5.2 3.3l2.6-2.4c2.8-2.5 3.3-3.1 3.4-4.6.2-1.2-.2-4.4-.5-4.4l.2-.4c.3-.5.6-.2.9.7.1.5.4 1.2 1.4 3.3.7 1.7.8 2.2.2 2.2l-1.4 1.3-1.4 1.3-3.8 3.4a61 61 0 0 1-5 4.3c-1.9 2-3.6 3-1.9 1 1.3-1.4 1.3-2.3 0-3.8-.6-.5-1-1-1-1.1l-1.1-1.3a8 8 0 0 1-1.2-1.2c0-.1-1-1.3-2.3-2.6a39.5 39.5 0 0 1-3.4-3.8 7.8 7.8 0 0 1-1.2-1.3 18.6 18.6 0 0 0-3.5-3.4c0-.3-1.3-.2-1.6 0l-.4.4-.8.5c-.4.4-.5.5-.5.2s2-2.5 2.2-2.5l3.9-3.4a77 77 0 0 1 5.8-5.2c2.3-2.2 2-2.2 4.1 0m-100 4s-.1.6-.7 1.8l-.2.9-.3.6-.4 1c0 .3-.3 1-.5 1.4a9 9 0 0 0-.5 1.5c0 .3-.3 1-.5 1.3a3 3 0 0 0-.4 1l-.2.7-.5 1-.4 1.3a9 9 0 0 0-.5 1.5l-.6 1.4a3 3 0 0 0-.3 1c0 .1-.1.5-.3.7a6 6 0 0 0-.5 1.3l-.5 1.4c-.1.2-.4.8-.5 1.4l-.4 1.2c-.5.6-.3 3.4.2 4.1.8 1.2.3 1.5-.7.4l-1.1-1-1.4-1.2a7.7 7.7 0 0 0-1.4-1.3c-.3 0-2.7-2.5-2.5-2.6.1 0 .6.1 1.1.4l1.2.5c.4 0 1.7-1.5 1.7-2 0-.1 0-.5.2-.7l.6-1.3c0-.5.3-1 .4-1 0 0 .4-1.1.4-1.7a80.3 80.3 0 0 0-6.4-5.9c-.7-.6-1.4-.5-2.7.3l-1.3.5c-2.3.7-3.5 2.2-2.6 3.3l.4.7c0 .2.1.4.3.5.4.3.4.6 0 .6-.3 0-5.8-5-5.8-5.3 0-.2.7-.2.9 0 .4.7 3.2.3 5.3-.9l1.8-.8c.4 0 .6-.2.6-.2l.8-.4 1.7-.7a853.2 853.2 0 0 0 9.2-4.2 16.4 16.4 0 0 1 3.8-1.6l1-.5 1.4-.6c.4-.3 1.2-.2 1.2.1m-5.3 3.5l-.6.3c-.3 0-1 .3-1.5.6a18.5 18.5 0 0 1-3.9 1.6c0 .2-1.5 1-2.7 1.4-1.3.4-1.3.5 2 3.5 3 2.8 3 2.8 3.2 2.3l.4-1 .6-1.6.5-1.3.4-1 .5-1.4.3-.8.3-.8c.3-.7.7-1.8.6-2l-.1.2m17.7 7.9l1.8 1.3.7.6c.3.4.6.6.7.6l1.3 1.1 1.4 1 .7.8.8.7a14.7 14.7 0 0 1 3.5 3.5l.4.5.4.7c.3.4.6 1 .7 1.5l.5 1.2c.3.4.3 5.3 0 5.5l-.4 1.1-.5 1.2-.5.9c-.2.4-.5 1-.7 1l-.3.5-.4.7-.9 1c-.2.2-.5.6-.8.7-.2 0-.5.2-.5.3 0 .2-1.8 1.4-2 1.4-.2 0-.3.1-.3.2l-1.3.5-1.7.5c-.4.2-4.2.2-4.3 0l-1-.3a13.8 13.8 0 0 1-5-2.6c-.2 0-.8-.4-1.3-1-.6-.4-1.1-.8-1.3-.8l-.5-.5c-.1-.3-.4-.5-.5-.5l-2-1.5-2-1.7a7.7 7.7 0 0 1-2.2-2c0-.4.2-.3 1 .3 1.5 1.1 2 1 4.1-1.2a14.5 14.5 0 0 0 2.1-2.6 74.2 74.2 0 0 0 4-4.7s.6-1 1.5-2l1.6-2 1.2-1.5c2-2.3 2.1-3.4.7-4.7l-.8-1c0-.3.7 0 2.1 1.3m69.9 2.3l1.4.5 2 1 1 .7a26 26 0 0 1 3.5 3.8c.6.7 1.3 2.2 1.3 2.5l.4.8c.4.9.5 6 0 7a317.3 317.3 0 0 0-1.6 3l-.3.3c-.2.6-1.5 2-3.2 3.5a90 90 0 0 0-2.6 2.2l-1.3 1-1.3 1-.7.7-.8.7c-.1 0-.7.4-1.3 1-1 .7-1.2.9-1.4.7-.1-.2 0-.4.4-.7l1-1.2c.5-1.4.3-1.7-4.4-7.4l-1.7-2.1-1.7-2.1c-.9-1-1.6-2-1.6-2.1 0-.2-.3-.4-.5-.6l-.5-.5-1.6-2c-1.8-1.8-2.1-2-3.1-1.4l-.8.4-.6.4c-.2.2-.4.3-.5.1-.1-.2.9-1.4 1.2-1.4l2-1.6 2.1-1.7 1.8-1.4a10.8 10.8 0 0 1 2-1.5 17.6 17.6 0 0 1 6.4-3.6c.9-.4 4.2-.4 5 0m-69 4.2a20.9 20.9 0 0 0-2 2.6 176.2 176.2 0 0 0-8.5 10.4l-1.5 1.9a21 21 0 0 0 4.5 4c0 .2 2.1.8 2.8.8l.7.2c0 .2.4.2.9.2.4 0 .7 0 .7-.2 0 0 .4-.2.9-.2 1 0 2.5-.5 3.6-1.2l1.3-.8c.5-.3 2-2 2-2.1l.7-1a12.6 12.6 0 0 0 2.2-4.2c.4-.7.5-4.6.2-5-.2-.1-.4-.7-.5-1.2l-.3-1a14.7 14.7 0 0 0-6-5.1l-1.7 2m61.6-1.1a9 9 0 0 0-2.7 1.3l-.8.4c-.2 0-2.3 2.4-2.6 2.9-.3.4-.2.5 1 1.8a9.4 9.4 0 0 1 1.5 2 60.6 60.6 0 0 1 4 4.8l1.5 2 1.6 2 1.6 1.9 1.5 2c0 1.7 5.7-2.4 6.6-4.8l.5-1.3c.6-1.4.6-4.6 0-6a74.3 74.3 0 0 1-1.2-2.6 19 19 0 0 0-4.8-5.2 3 3 0 0 0-.8-.5l-1-.4c-.8-.5-4.6-.7-6-.3"/>
  </g>
</svg>
