<svg xmlns="http://www.w3.org/2000/svg" width="332.1" height="410.5" display="block">
  <g fill-rule="evenodd">
    <path fill="#e10821" d="M157.7 94.4c0 3-.5 4.1-3.8 7.5a18.1 18.1 0 0 0-5 9.8c-.6 3-1.2 2.8-2.2-.8-.5-2-4-8-5.4-9.4-2.2-2-2.7-1.7-1.9 1.5 1.1 4.1.8 8-1.3 15.2-3 10.4-1.7 16.3 5 23l2.5 2.6h36.6l1.7-2c1-1.3 1.5-2.4 1.4-2.7-.2-.3.4-2.1 1.3-4.1 2-4.3 2-6.3-.5-11.8-1-2-1.7-4.5-1.8-5.6-.2-2.7 0-2.8-5 2.3a22.5 22.5 0 0 1-4.8 4c-.4-.4.9-7.2 1.7-8.9 1-1.7 1-9.2 0-14-.3-1.8-.5-4.5-.3-5.8.2-1.3.3-2.5.1-2.7-.8-.8-8.4 8.8-10.5 13.3l-2.3 4.8-.4-5.7c-.4-7.7-.5-8-2.2-10.6-2-3-2.9-3-2.9.1m24.3 1.2l.6 4.7c.2 1.1 0 3.6-.3 5.5-.7 4-.4 4.6 1.5 2.5 3.6-3.9 4.2-9.9 1.3-13.4-2.2-2.7-3.4-2.5-3 .7"/>
    <path fill="#ffa301" d="M1 .6C.4.9.3 243.5.8 253.8A137.3 137.3 0 0 0 2.3 269c.5 3.8 2 11.6 3 15.5.7 2.2 1.5 5.6 1.9 7.5a71.4 71.4 0 0 0 6 16.6c.9 1.9 1.8 4 2 4.8.2.7 1.2 2.6 2.2 4.1a183 183 0 0 0 25.2 36.7 89.4 89.4 0 0 0 15.6 16l6.4 5.3a65 65 0 0 0 8.6 6.2 103.5 103.5 0 0 0 8.6 5.5 150.2 150.2 0 0 0 20.8 10A162.1 162.1 0 0 0 192 408a190.3 190.3 0 0 0 34-8.6 67 67 0 0 0 14.4-6.6c1.2-.5 4-2 6.3-3.4 16.4-9.7 18.4-11 28.1-19.6 6.4-5.6 18.3-18.7 18.3-20.1 0-.3.8-1 1.8-1.7 2.6-1.8 15.3-20.5 15.3-22.7 0-.1 1.3-2.6 3-5.4a78 78 0 0 0 4.1-8.7 113.5 113.5 0 0 0 12.4-41.4c.5-2.6 1-8.2 1.4-12.5.6-10.2.7-256 0-256.5C330.4.4 1.6.2 1 .6m325.6 5c.6.6 1 244.5.4 246.4a67 67 0 0 0-.5 6.3 49.8 49.8 0 0 1-1.7 11.4 95.7 95.7 0 0 1-4.5 21.5 24 24 0 0 0-1 3.8c-.4 1.5-1.4 4.5-2.4 6.7l-4.4 9.8a40.5 40.5 0 0 1-3.5 6.8 35 35 0 0 1-2.6 5 37 37 0 0 0-2.7 5.1c0 .3-.4.6-.8.8-.4.2-.8.7-1 1.2l-1.7 3a48.7 48.7 0 0 0-3 5.1l-1 1.8c-.4.8-2.8 3.5-5.2 6.1l-6.4 7c-1.1 1.4-3.5 4-5.4 5.8a25 25 0 0 0-3.3 3.8c0 .2-1.4 1.5-3.1 2.9a2388 2388 0 0 0-10.5 8.4c-.2 0-2.5 1.6-5 3.5-2.7 1.9-6 4-7.5 4.8-1.5.7-2.9 1.6-3 1.9-.3.3-1.3.9-2.3 1.3-1 .5-2.3 1.3-2.6 1.8-.4.5-.8.7-.8.5 0-.3-1 .1-2.3.8a51.1 51.1 0 0 1-15.5 6.8c-1.2.5-3.1 1.1-4.3 1.3-1 .2-2.8.7-3.8 1.1a20.6 20.6 0 0 1-3.5 1.3l-3 .8a245.2 245.2 0 0 1-27.1 4.7c-7.1.7-29.2.6-33.3-.3a116 116 0 0 0-8.5-1.1 56.6 56.6 0 0 1-10-1.6c-1.2-.2-2.5-.5-2.8-.7a119.2 119.2 0 0 1-23-8.2c-2-.8-3.7-1.6-4-1.6-.2 0-1.4-.4-2.6-1-1.2-.6-2.6-1-3-1-.5 0-1-.4-1.2-.7-.2-.3-2-1.3-3.9-2.3-2-.9-5.3-2.8-7.4-4.2a28 28 0 0 0-5-3l-4-3a125.9 125.9 0 0 1-8-6 87.6 87.6 0 0 1-12.4-11 26.5 26.5 0 0 1-5.2-5.6 26 26 0 0 0-3.2-3.7 7 7 0 0 1-1.6-2.3c-1-1.8-1.5-2.5-5.2-6.3a9 9 0 0 1-1.5-2 34.8 34.8 0 0 0-5.2-7.6 17 17 0 0 1-1.8-2.8c-.4-.7-1.5-2.5-2.5-3.8-1-1.4-1.8-2.8-1.8-3 0-.3-.3-.9-.7-1.2-.4-.3-.9-1.2-1-2-.3-.6-1.1-2.3-2-3.6a10 10 0 0 1-1.6-3.2c0-.7-1.8-5.3-4.3-10.8l-1.7-4c-.5-1-1-3-1.2-4.5a23 23 0 0 0-1.1-4.4c-.4-1-.6-1.8-.5-1.8.1 0 0-.6-.4-1.4-.7-1.9-1-3-1.3-5.8a46 46 0 0 0-.8-4.3c-.3-1.1-.7-3.7-1-5.7l-.8-5.1c-1-5-1.2-29-1.3-137 0-80.6.1-120.8.5-121.5.7-1.3 320.2-1.6 321.3-.3M82.5 85.4c-.6 2.5.3 153 1 156.8.3 2 .5 5 .4 6.7a60.1 60.1 0 0 0 6.6 23.8c-.1 0 .3.8 1 1.8s2 3.1 2.8 5a31 31 0 0 0 3.6 5.8c.7 1.2 2 2.8 2.6 3.6.7.7 1.9 2.3 2.6 3.4.7 1.2 2.7 3.3 4.4 4.8l6.2 5.5a41 41 0 0 0 13.4 8.5c2.4 1.3 4.4 2.2 4.4 2 0-.3.4 0 1 .4a7 7 0 0 0 2.5 1.2c.9.2 1.8.6 2.1.8.7.4 4.2 1.6 5.6 1.9a104 104 0 0 0 44 .6c.6-.2 1.4-.6 1.7-.9a2 2 0 0 1 1.2-.5c.4 0 1.3-.3 2.2-.6l1.7-.8c1.5-.5 5.5-2.3 10-4.6 4.7-2.4 7.2-4.1 11.5-8.2.4-.4 1-.8 1.2-.8.5 0 5.7-3.8 5.7-4.2a22 22 0 0 1 2.8-3.3 98.8 98.8 0 0 0 14.7-21.7 90.5 90.5 0 0 0 6.4-20c.4-1.7.8-165.6.4-167.2L246 84H83l-.4 1.4m78.1 8.9c1.7 2.5 1.8 2.9 2.2 10.6l.4 5.8 2.3-4.9c2.1-4.5 9.7-14.1 10.5-13.3.2.2.1 1.4 0 2.7-.3 1.3-.1 4 .2 5.9a35 35 0 0 1 0 14c-.8 1.6-2.1 8.4-1.7 8.9.2.1 2.3-1.7 4.7-4.1 5.2-5.1 5-5 5.1-2.3 0 1.1.9 3.7 1.8 5.6 2.4 5.5 2.5 7.5.5 11.8-.9 2-1.5 3.8-1.3 4 .1.4-.5 1.5-1.4 2.7l-1.7 2.2h-36.6l-2.6-2.6c-6.6-6.8-7.9-12.7-4.9-23.1 2-7.1 2.4-11 1.3-15.2-.8-3.2-.3-3.6 1.9-1.5a35 35 0 0 1 5.4 9.4c1 3.6 1.6 3.9 2.1.8.6-3.6 2.3-7 5.1-9.8 3.3-3.4 3.8-4.4 3.8-7.5 0-3.1 1-3.2 2.9-.1m24.5.6c3 3.5 2.3 9.5-1.3 13.4-2 2-2.2 1.6-1.5-2.5.3-1.9.5-4.4.3-5.5-1.2-7.5-.5-9 2.5-5.4m-6.5 59.1c.7 1.2.6 4-.2 5-.8 1.1-27.9 1.4-30.6.4-2-.8-2-5.1 0-6 2.1-.8 30.2-.3 30.8.6m3.3 13.7c1.1.4 1.3 3.6.3 4.3-.4.3-9 .4-19 .3l-18.4-.2-.5-1.3c-1.2-3.3-1.3-3.3 18.6-3.4 10 0 18.5 0 19 .3m-3.1 11.2c1.2 1.2.8 5.5-1 9.9l-.7 3c-.5 4.2-.8 5-1.8 5.6-1.2.6-21.4.6-22.5-.1-.5-.4-2-6-3-11.6a7.5 7.5 0 0 0-1.1-3c-.8-.7-.8-2.2 0-3.6a106 106 0 0 1 30-.2m3 25.4c2.6 2.5.6 9.6-2 7.2a5.3 5.3 0 0 1-1.4-2.2l-.3-1.3h-12.2l-13.7-.1c-2.1 0-3.5.6-3.5 1.5 0 1.5-2.2 2.5-3.3 1.5-1.3-1.2-1.3-5.3-.1-6.7a143 143 0 0 1 36.6 0M168 219.5l1.7.3c1.2.1 5.9 5.2 6.3 6.8.6 2.5.4 11.8-.4 15.4a69 69 0 0 0-1.7 11.6l-1 8.5-2.5 19.8c-.3 2.5-.7 6.9-.7 9.7-.1 2.7-.5 6.1-.8 7.4a24 24 0 0 0 .2 11.3c1.4 4 .5 5-4.3 5.5-4.6.5-6.7-2.7-4.3-6.4 1.4-2 1.5-3.7.5-10.1-.5-3.4-.6-4.6-1-8.6l-.5-5c-.2-.8-.5-3.3-.6-5.7-.2-2.3-.5-5.7-.8-7.5a132.1 132.1 0 0 1-1.3-10.9l-.6-4.8-.8-5.4c-1-4.9-2.5-15.4-2.8-20.3-.3-4.2 4.4-11.2 7.4-11.2.7 0 1.4-.2 1.6-.5.3-.5 4.3-.4 6.4.1"/>
    <path fill="#013766" d="M5.4 132.5l.2 127.1 1.5 8L9 279c.3 1.7 1 5.2 1.8 7.7l1.8 7.2c2.8 11.7 16 35.8 27.2 49.5l5.8 7.2a95 95 0 0 0 18.4 17.8c0 .2 1.7 1.7 3.8 3.3l4.4 3.5c4.3 4.3 19.3 12.4 33.4 18.2 14.8 6 20.3 7.5 38.9 10.4a177.7 177.7 0 0 0 52.7-1.6c3.6-.6 9.3-1.9 12.5-2.9l11.7-3.5c8.8-2.5 35.3-16.6 38.3-20.3l6-4.7c6.4-5 12.3-10.6 18.8-18.2a43 43 0 0 1 4.6-5c1 0 10.2-12.4 10.2-13.7 0-.2 1.2-2.1 2.6-4.4a174.8 174.8 0 0 0 13.4-25.7c3.5-7.4 6.5-18.2 8.6-30.7.6-3.8 1.4-8.3 1.8-9.9.4-2.2.6-34.5.8-130.3l.1-127.5H5.3l.1 127.2m43-97.5c1 3.4 1.7 6.5 1.5 6.8-.2.4-.2.5.2.3.3-.2.7.2.9 1l.3 1.3 8.1.1 8.2.2-6.5 4.9-6.6 5 .8 2.2c.5 1.2.7 2.6.5 3-.2.5-.1.7 0 .5.3-.2 1.2 1.8 2 4.5 2 6.2 2.1 6.2-5.3.6l-6.3-4.8-6.6 4.8a56.3 56.3 0 0 1-6.8 4.5c-.1-.1 1-3.6 2.4-7.8l2.6-7.7-3.5-2.5a914 914 0 0 1-6.7-4.8l-3.3-2.4 8.4-.2 8.4-.1 2.4-7.8 2.7-7.7 2.2 6.1m59.8 1.2c1 3.3 1.8 6.3 1.6 6.7-.2.3-.2.4.2.2.3-.2.6.2.8.7.2 1 .8 1.1 8.5 1.2l8.2.2-6.5 5c-5.6 4.1-9.1 7.2-6.6 5.7.5-.3.6 0 .3 1.1-.2.9-.2 1.3 0 .9.4-.4 1.3 1.6 2.6 5.5A33 33 0 0 1 119 70c-.1.1-3.2-1.8-6.9-4.3l-6.6-4.5-6.3 4.5a38.8 38.8 0 0 1-6.6 4.3c-.1-.2.8-3.6 2.2-7.6l2.4-7.2-6.5-5-6.5-5 8.2-.2c8.3-.2 8.3-.2 8.6-1.6a63 63 0 0 1 4.8-13.5c.2.2 1.3 3.1 2.4 6.4m59.4-.1c1 3.4 1.8 6.4 1.5 6.8-.2.3-.1.4.2.2.3-.2.7.3 1 1l.2 1.3 8.5.2 8.4.1-6.8 4.7c-3.8 2.6-7 5-7.2 5.3-.2.4-.1.5.3.2.6-.3.7-.2.4.7-.1.6 0 1 .1 1 .4-.3 4.5 12.4 4.2 12.8-.2.2-3.1-1.9-6.6-4.5l-6.3-4.8L159 66a44.2 44.2 0 0 1-6.6 4.5c-.1-.1.9-3.6 2.2-7.8l2.4-7.5-6.8-4.7-6.8-4.7 8.4-.1 8.5-.2.3-1.3c.2-.7.5-1.2.8-1a60.7 60.7 0 0 1 4-13.1l2.1 6.1m59.9.3c1 3.2 1.8 6.1 1.5 6.5-.2.3-.1.4.2.2.3-.2.7.3 1 1l.2 1.3 8.2.2 8.1.1-6.5 5-6.5 4.9 2.1 6.5a36 36 0 0 1 1.8 7.3c-.1.4 0 .6.3.4.3-.2.5 0 .5.5 0 .4 0 .8-.3.8-.7 0-5-3.6-4.6-4 .2-.2.2-.3-.2-.1-.3.2-2.2-1-4.2-2.5l-3.7-2.8-2.5 1.8c-1.4 1-2.6 1.6-2.8 1.5-.2-.2-.3-.1-.1 0 .2.4-3.7 3.4-4.3 3.4-.2 0-1 .7-1.7 1.4-2.8 2.6-2.8 2.6 0-6.7l2.4-7.5-6.5-5-6.5-4.9 8.2-.1 8.1-.2.3-1.3c.2-.7.6-1.2 1-1 .3.2.3.1.1-.2-.3-.6.5-3 3.5-11.2.7-1.8.8-1.7 2.9 4.6m59-.2c1 2.8 1.6 5.3 1.4 5.7-.3.3-.2.5.1.3.3-.2.8.6 1.2 1.8l.6 2h8.3c5 0 8.2.3 8 .6-.2.3-3 2.4-6.4 4.8a32.8 32.8 0 0 0-6.2 5c0 .4 1.1 4 2.4 7.9 1.3 3.9 2.3 7.2 2.2 7.3-.1.1-3.2-2-6.8-4.5l-6.6-4.8-6.3 4.8a44.4 44.4 0 0 1-6.6 4.5c-.3-.3 3.8-13.8 4.4-15 .1-.1-2.7-2.5-6.3-5.3l-6.6-5h8.1l8.1-.2 2-6.2c3.3-10.6 2.9-10.3 5-3.7M247 167.8c-.2 92.5 0 86-3 93.9-.4.8-.6 2-.6 2.6 0 3-9 19.1-13.8 24.9a52.2 52.2 0 0 1-13.3 13.3 15.9 15.9 0 0 0-4.2 3.4c.6 1-10.7 6.8-20.4 10.7-20.2 8-49.5 4.5-71.5-8.6a123 123 0 0 1-18-16c.3 0-.6-1.5-2-3.1a57.4 57.4 0 0 1-9.1-14.4 49.1 49.1 0 0 1-5.3-13c-1.4-4.1-2.4-9.3-2-11 0-.9-.2-4.1-.6-7.2-.7-4.7-.9-18.5-1.2-82.7l-.3-77.2H247l-.1 84.4M48.3 104.9c1 3.3 1.7 6.2 1.5 6.5-.1.3 0 .4.3.2s.7.3.8 1.2l.4 1.6h8.3c5 0 8.2.2 8 .5-.2.3-3 2.5-6.4 4.8-4.3 3.2-6.1 4.7-6.3 5.7-.2.8 0 1.2.3 1 .3-.2.4 0 .2.8-.1.6-.1 1 .1.9.6-.3 1.7 3.5 1.3 4.2-.2.3-.1.4.1.2.5-.5 3.2 6.5 2.7 7-.1 0-3.2-1.9-6.8-4.4l-6.6-4.5-6.3 4.5a39 39 0 0 1-6.6 4.3c-.2-.2.7-3.3 1.9-6.9 2.8-8.5 3-7.6-3.7-12.7a42.2 42.2 0 0 1-5.9-4.9c0-.2 3.5-.5 7.9-.6l7.8-.1.4-1.4A196 196 0 0 1 46.2 99l2.1 6m238.8 1.6c1 2.9 1.5 5.5 1.3 6-.2.3-.2.4 0 .2.3-.3.8.3 1.1 1.3l.6 1.8 8.3.2 8.2.3-6.5 5-6.5 4.9 2.4 7.5c1.3 4.2 2.3 7.7 2.2 7.8-.5.5-4.7-2.8-4.3-3.3.3-.2.2-.3-.1-.1-.3.2-2.5-1-4.8-2.8l-4.3-3-6.3 4.7a44.2 44.2 0 0 1-6.6 4.5c-.2-.1.8-3.6 2.1-7.8l2.4-7.5-6.5-5-6.5-4.9 8.3-.3 8.2-.2.6-1.8c.3-1 .8-1.6 1-1.3.3.2.3 0 0-.6-.5-1 .4-4.6 2.8-11 .5-1.2 1 0 2.9 5.4m-140.1 50v2.9h31.6v-6H147v3m-2.7 13.4v1.9h38.5v-3.8h-38.5v1.9m4.5 10.3l1.9 7.7c.9 3.5 1.6 6.5 1.5 6.7-.7 2.6.1 2.8 12 2.8h11.1l.3-1.4 1.9-7.8a58 58 0 0 0 1.6-7.9v-1.6h-30.6l.3 1.5m-3.6 24c-.3.5-.5 3.7-.4 5.4.1 2 3.3 1.7 3.3-.4v-1.6h31v1.9c0 1.7.1 1.8 1.6 1.8h1.6l-.1-3.6-.2-3.6-18.3-.1c-10-.1-18.3 0-18.5.2M296 214.5c4 6.4 5 10.3 4.3 15.8l-.3 2.8-9.5 8c-11.8 10-13.3 11.6-18.7 20.7-1.2 2-2.2 3.5-2.2 3.2l-.9-8.7c-.9-9-.8-10 2.2-19.4 2-6.5 2.5-6.4 7 2.3 1.6 3.2 4.8 7.2 5.3 6.7.2-.2.6-5 1-10.7 1.2-14.2 1.6-15.7 6.6-24.4 1.7-2.8 1.1-3.2 5.2 3.7m-134.2 5.2c-2.3.9-5 2.5-5 3 0 .3-.7 1.1-1.4 1.9-2.6 2.8-2.6 4.4.5 26.2a359.4 359.4 0 0 1 2.7 21.4 939.2 939.2 0 0 1 3.2 27c1 8.8 1 10.3-.1 10.6-3 1-2.3 4.6 1 5.3 5.2 1.3 8.8-2 5.9-5.2-1.1-1.2-1-3 .4-12.7.3-2.3.5-4.7.3-5.3-.2-.6 0-3.9.5-7.3l1.6-13.7 2.7-20.4c3-20.9 3-23.1-.3-26.8-3.1-3.7-8.3-5.4-12-4m-114 6.5c3 4.2 4.5 7.6 3.8 8.6a80.4 80.4 0 0 1 2.8 15.8c-.1.1-2.1-.5-4.4-1.3-5.6-2-12.3-2.7-13.9-1.3-2.2 2-5 10.8-5 16 0 .2-1-1-2.4-2.8-6.8-9.4-7-10.2-6.2-18.2.7-5.8 1-8.4 1.2-8.6.5-.5 7.8 2 11 3.6l3.7 2.1.4-4.7c.3-4.1 2.2-11.4 3.6-14.2.7-1.3 1.7-.4 5.5 5M313 243.5c.4 4.7-1.2 10-4.8 16-1.6 2.7-1.6 3-.6-5.2.9-6.8.7-11-.6-13-.7-1-.6-1.3 1.5-4.1l2.2-3 1 2.4c.5 1.4 1.1 4.5 1.3 6.9m-8.6 4.9c-.2 2.5-.5 4.4-.7 4.3-.2-.1-.3.8-.2 2 .1 1.4 0 2-.4 1.8-.3-.3-.5-.1-.3.4.2.4 0 2-.6 3.6s-1 3.3-1 3.8c-.2 1.7-4.1 9-4.7 8.6-.3-.2-.4-.1-.2.2.1.3-.4 1.5-1.2 2.8l-1.6 2.3-.3-2.9-2.3-11.6c-1.4-7-1.6-8.9-1.1-9.2l4.2-2.4c3.6-2 7.3-6 8.9-9.7l.9-2 .5 1.7c.3 1 .3 3.6.1 6.3m-237.3 2c3 5.2 3.8 8.7 3.9 15.5v5.2h-6.7c-9.3 0-11.5 1.4-14.7 9.2l-1.7 4.1-1.5-1.7c-2.9-3.2-10-21-8.9-22.2.7-.6 7.2 1.5 11.8 4l5.5 2.8.3-4.1a52 52 0 0 1 5.2-17.7l1.1-2.3 1.6 1.5a35 35 0 0 1 4 5.7M285 270.7c9.1 19.2 4.5 30.8-12.3 30.9h-2.3l.3-6c.4-8.2 2.7-14.8 8.7-26 3-5.3 2.4-5.4 5.6 1.1m22.7 4.1c-.2 3.3-.6 5.8-.8 5.7-.2-.1-.2.6 0 1.7 0 1.3 0 1.8-.5 1.5-.3-.2-.4 0-.3.4.7 1.9-1.1 5.7-6.2 12.9l-5.3 7.5v-5.9c0-4.5-.3-6.9-1.3-10.6-1-3.7-1.2-4.9-.7-5.2a45 45 0 0 0 11.1-9.8c4.6-5.5 4.5-5.6 4 1.8M64 274.6c1.3 1.6 2.3 3.2 2.3 3.5 0 .4.8 2.1 1.8 4 1 1.7 2.2 4.5 2.7 6.1.5 1.7 1.2 3.3 1.5 3.6.3.4.3 1.1.1 1.6-.2.5-.1.8 0 .5a20 20 0 0 1 2.3 6.2c2 7.7 2.5 7-4.4 6.6l-5.6-.4-.3-2.2c-.6-3.6-2.8-11-4.8-16.3l-1.8-4.9 1.8-5.6c2.3-6.6 1.7-6.3 4.4-2.7M38 282a85 85 0 0 1 8.5 4.3l5.4 3.2-.4 9.3a112 112 0 0 1-.6 9.6c-1.7 1.8-16.7-18.5-20-26.9l-.5-1.5 2.3.4c1.2.2 3.6.9 5.3 1.6m227.2 4.8a26 26 0 0 1 1 9.2v6.1l-3.3-.3c-8.7-.9-8.3-.8-8.6-2.6-.7-3.7 1-8.6 4.5-13.5l3.3-4.6 1 1.2c.5.7 1.5 2.7 2 4.5M95.9 302.6c3.3 4 5.5 7.4 5.1 7.8-.3.3-12.2 1.5-12.4 1.3l-2.8-5c-1.4-2.7-3.8-6.9-5.3-9.4l-2.8-4.6 3.3-1.4 3.3-1.4 4.1 4.4c2.3 2.4 5.7 6.1 7.5 8.3m150.9 5.8c1.9 6 2.1 23 .3 21.8-.2-.1-.3.3-.1.9.2.7 0 1-.3.8-.4-.2-.5 0-.3.8.3.9.2 1-.4.7-.4-.2-.5-.2-.3.1.2.4-1.5 6.7-2 7.5l-5-2.2a64 64 0 0 0-13.4-4.8c-.8-.8 8.8-18 11.5-20.7 2.3-2.4 8.3-7.2 9-7.4l1 2.5m29.7.7c2.8.3 6.6 1 8.5 1.4l3.3.9-1.5 1.6a71 71 0 0 1-22.3 14.3c-1.2.3-4.5 1.6-7.4 2.7-6.4 2.6-6 3-4.4-4.3l1.4-6-1.1-4.3-1.4-5.4c-.4-1.2 15.7-1.8 25-1M71 315c7.4.6 13.7 1.2 14 1.5a71 71 0 0 1 2.2 7 61.6 61.6 0 0 0 4 10.4c0 .1-1.2.4-2.9.6-2.8.3-11-.3-9.2-.7.6-.1-1.6-1.1-4.8-2.2a46.5 46.5 0 0 1-19.7-11.4l-1.8-2.3 2-2c1-1 2-2 2.2-2l14 1m32.6 8.2c3.8 1.2 8.4 4.2 11 7.3 2.6 2.9 5.3 7 5 7.3a379 379 0 0 1-18.3 1.3c-.8 0-1-.5-1-4.2a17 17 0 0 0-1.8-8.6l-1.9-4.4 2.6.4 4.4.9m176 5.5c0 .5-.3.7-.7.5-.4-.3-.5-.2-.2.3.6.9-.8 5.4-1.5 5-.3-.2-.4 0-.1.3.8 1.3-6.2 11.3-11.7 16.6l-1.9 1.8-3.6-3.2a233 233 0 0 0-11.3-9.5 271 271 0 0 1 16.8-10.2c5.4-2.2 14.1-3.2 14.1-1.6m-59.4 5.5a67 67 0 0 1-5.2 21.5l-2.6 6.2 6.2.4c10.3.7 12.7 1.7 19.2 7.4l2.2 2-2.5 1.3c-9.8 5-17.5 4.6-32.8-1.5-8-3.2-9.1-3.4-13-2-3 1-3.2.8 1.3 5.2l3.7 3.7-3 3.5-3 3.5-5.1-5.2-5.1-5.2h-3.1c-4 0-4 0 1.3-5.2l4.3-4.4 6.2-1.4c7.5-1.8 6.7-.9 10.4-11.2 4-10.9 6.9-16.1 10.4-18.3 3.6-2.3 3.6-2.3 6.1-2.8 4.3-.9 4.2-1 4.1 2.5m-136.4 0c1 .1 2.4 0 3.2 0 .8-.1 0-.2-1.8-.2-1.7 0-2.4 0-1.4.2m46.9.6c10.1 3.5 16.4 9.4 23 21.5 2 3.6 3.7 6.8 4 7 .2.3 4.7 1 10 1.5l10 1.2a41 41 0 0 1-5.9 6.2L160 384l-5.4 5.8-2-3.2-1.9-3.1 3.6-4c2-2.2 3.3-4 3-4-.2 0 .7-1 2-2.1l2.3-2-3-.5a13 13 0 0 0-7.3 1c-18.2 6.2-35.4 4.7-43-3.8-2.5-2.7 11.2-6.2 24.5-6.2h9.7l-3-2.7a33.3 33.3 0 0 1-9.3-15.7c-2.4-7-3.1-9.7-2.8-9.7l3.3 1m-51.5 5.6l9.8 2.5c.2 0-.5 1-1.6 2.2-1 1.2-1.8 2.4-1.6 2.5.1.2-.8 1.4-2.2 2.8l-2.5 2.5-2-2.2a66.6 66.6 0 0 1-10.4-13l10.5 2.7m153.9 6.3c9.2 1.6 19.2 4.9 19.2 6.2 0 2.5-10.8 5.7-19.9 6l-8.4.1v-14l1.5.2 7.6 1.5m-111.3 3l5 2-1.8 1.4c-8.9 7.5-28.1 9-36.2 2.7l-1.2-1 5.7-2.4c14-5.9 19-6.3 28.5-2.7m-38.7.3L81 352l2.2-2c2.1-2 2.6-2.5 2.1-2.5l-2.2 2.3"/>
    <path fill="#b7b5b7" d="M0 1.5c0 1.1.1 1.2.3.4.2-.6.6-1.3 1-1.5.3-.2.2-.4-.4-.4C.2 0-.1.4 0 1.5M331 .7c.5.6.6 33 .5 131-.1 71.5 0 127.7.2 124.7.8-13.8.5-256.4-.4-256.4-.7 0-.8.2-.3.7M.2 127.3a33899.6 33899.6 0 0 0 0 0M327 128.9V252l.3-121c.2-66.7.1-122.2 0-123.3-.2-1.2-.4 53.3-.3 121M5 128.2c0 65.6 0 92.5.2 59.8A30781.5 30781.5 0 0 0 5 128m38.5-91.5l-2.4 7.8-8.4.1-8.4.2 3.3 2.4a914 914 0 0 0 6.7 4.8l3.5 2.5-2.6 7.7a63.3 63.3 0 0 0-2.4 7.8l6.8-4.5 6.6-4.8 6.3 4.8c7.4 5.6 7.3 5.6 5.3-.6-.8-2.7-1.7-4.7-2-4.5-.1.2-.2 0 0-.4.2-.5 0-1.9-.5-3.1l-.8-2.3 6.6-4.9 6.5-5h-8.2c-8-.2-8.1-.2-8.4-1.5-.3-1-.6-1.2-1.2-1-.7.2-.8.1-.2-.3.7-.4-2.6-13-3.4-13l-2.7 7.8m60-1l-2.5 7.7c-.3 1.4-.3 1.4-8.6 1.6l-8.2.3 6.5 5 6.5 4.9-1.8 5.4c-1 3-1.8 5.8-1.6 6.2.1.4 0 .6-.2.4-.5-.3-1.4 2.4-1 2.8.2.1 3.2-1.8 6.6-4.3l6.3-4.5 6.6 4.5c3.7 2.5 6.8 4.4 7 4.3a58.2 58.2 0 0 0-5-14.2c.2-.4 3.3-2.9 6.9-5.6l6.5-5h-8.2c-7.7-.2-8.3-.3-8.5-1.3-.2-.5-.5-.9-.8-.7a58.1 58.1 0 0 0-4.2-13.4c-.2-.2-1.3 2.5-2.4 6m59.9.2c-1.7 5.2-2 6.1-1.3 7.1.6 1 .6 1-.1.4-.7-.5-1-.4-1.2.7l-.3 1.3-8.5.2-8.4.1 6.8 4.7 6.8 4.7-2.4 7.5a51.8 51.8 0 0 0-2.2 7.8c.2.2 3.1-1.9 6.6-4.5l6.4-4.8 5 4c2.8 2 5.4 3.7 5.7 3.6.4 0 1 .2 1.4.7.6.8.6.9-.4.1-1-.7-1-.7-.1.3.5.5 1 .8 1.2.7.4-.4-3-11.3-3.6-11.6-.2 0-.2-.5 0-1s0-.7-.3-.5c-.4.2-.5 0-.3-.8.3-.9.2-1-.4-.7-.4.3-.5.2-.3-.2.2-.3 3.4-2.7 7.2-5.3l6.8-4.7-8.4-.1-8.5-.2-.3-1.3c-.2-.7-.6-1.2-.9-1a63 63 0 0 0-3.8-13.2c-.1 0-1.1 2.7-2.2 6m61.3-4.2c-3 8.2-3.8 10.6-3.5 11.2.2.3.2.4-.2.2-.3-.2-.7.3-.9 1l-.3 1.3-8.1.2-8.2.1 6.5 5 6.5 4.9-2.3 7.5c-3 9.3-3 9.3-.1 6.7.8-.7 1.5-1.4 1.7-1.4.6 0 4.5-3 4.3-3.4-.2-.1-.1-.2 0 0 .3.1 1.5-.6 2.9-1.5l2.5-1.8 3.7 2.8c2 1.5 4 2.7 4.2 2.5.4-.2.4-.1.2.1-.3.4 3.9 4 4.6 4 .2 0 .3-.4.3-.8 0-.5-.2-.7-.5-.5-.3.2-.4 0-.3-.4a36 36 0 0 0-1.8-7.3l-2-6.5 6.4-5 6.5-4.9-8.1-.1-8.2-.2-.3-1.3c-.2-.7-.6-1.2-.9-1a54.6 54.6 0 0 0-4-12.7s-.4.6-.6 1.3m59.3.6l-2.4 7.5-2 6.2-8 .1-8.2.2 6.6 5c3.6 2.7 6.4 5 6.3 5.3-.6 1-4.7 14.6-4.4 14.9.1.1 3-2 6.6-4.5l6.3-4.8 6.6 4.8c3.6 2.6 6.7 4.6 6.8 4.5.1 0-.9-3.4-2.2-7.3-1.3-4-2.4-7.5-2.4-7.9 0-.3 2.8-2.6 6.2-5 3.3-2.4 6.2-4.5 6.4-4.8.2-.3-3-.5-8-.5h-8.3l-.6-2.1c-.4-1.2-.9-2-1.2-1.8-.3.2-.4 0-.1-.3.3-.6-2.7-10.8-3.3-10.8l-.7 1.3M81.8 134c0 27.8.1 50.6.4 50.8.2.1.3-22 .2-49 0-27.2 0-49.9.2-50.5l.3-1.2h163l.3 1.2a9413.6 9413.6 0 0 1-.4 167.7c1 0 1.2-9.3 1.2-88.3V83.4H81.8V134M44 105.2l-2.3 7.6-.4 1.4-7.8.1c-4.4.1-7.9.4-7.9.6 0 .3 2.7 2.5 5.9 4.9 6.8 5 6.5 4.2 3.7 12.7a37 37 0 0 0-2 6.9c.5.4 8.4-5.4 8-6-.1-.2 0-.3.3 0 .3.1 1.5-.4 2.6-1.3l2-1.5 6.7 4.5c3.6 2.5 6.7 4.5 6.8 4.4.5-.5-2.2-7.5-2.7-7-.2.2-.3.1-.1-.2.4-.7-.7-4.5-1.3-4.2-.2.1-.2-.3 0-1 .1-.6 0-1-.3-.7-.3.2-.5-.2-.3-1 .2-1 1.7-2.4 5-4.7 2.5-1.8 4.5-3.5 4.4-3.8-.2-.3 0-.3.2-.1.3.2 1.3-.3 2.1-1l1.5-1.3H51.3l-.4-1.7c-.1-.9-.5-1.4-.8-1.2-.3.2-.4 0-.3-.2.3-.5-3.1-12.5-3.6-12.5l-2.2 6.3m240.2-4c-2.3 6.2-3.3 10-2.8 10.8.4.8.3.9-.2.6-.5-.4-.6-.2-.3.4.1.5 0 .9-.2.9s-.5.5-.7 1c-.3 1-.8 1.1-8.5 1.3l-8.2.1 6.5 5 6.5 4.9-2.4 7.5a52.1 52.1 0 0 0-2.1 7.8c.1.2 3.1-1.8 6.6-4.5l6.3-4.7 4.3 3c2.3 1.7 4.5 3 4.8 2.8.3-.2.4-.1.1.1-.4.5 3.8 3.8 4.3 3.3.1-.1-.9-3.6-2.2-7.8l-2.4-7.5 6.5-5 6.5-4.9-8.2-.3-8.3-.2-.6-1.8c-.3-1-.8-1.6-1-1.3a43.2 43.2 0 0 0-3.6-11.8c-.2-.3-.5-.2-.7.2m-137.8 54.2c-.2.6 0 1.7.1 2.5.3 1 .4.7.4-1.2.1-2.8-.2-3.4-.5-1.4m32.3 1.2c0 1.2.1 1.6.2 1 .2-.7.2-1.7 0-2.2-.1-.5-.2 0-.2 1.2m-16.2 3.5c7.8.1 14.5 0 15-.1.4-.2-6-.4-14.2-.3h-15l14.2.4m.5 12.3c10.2.1 18.7 0 19-.1.3-.3-8-.4-18.4-.3h-19l18.4.4M148.1 180.8c0 .7.4 1.8.8 2.4.9 1 .9 1 .5-.2l-.5-2c-.2-1.4-.8-1.5-.8-.2m31 0c0 .6-.5 3-1.1 5.2-.6 2.2-1 4-.9 4.2.7.6 2.8-8.1 2.4-9.7-.2-.9-.3-.9-.4.2m-29.4 5.4c0 .7.2 1.7.5 2.1.7 1 .7 0 0-2.1l-.4-1.3v1.3m-67.3 2.7c0 1.9 0 2.7.2 1.7V187c-.1-1-.2-.1-.2 1.8m68.6 2.6c.1 1.4.5 2.7.8 3 .4.3.4-.1.2-1.4-.7-3.1-1.4-4.2-1-1.6m25 1.8c-.1 1.2-.4 2.7-.6 3.3-.2.8-.1 1 .3.5.8-.7 1.7-6 1.1-6-.2 0-.6 1-.7 2.2m-94.3 3.3c0 1.2.1 1.6.2 1 .2-.7.2-1.7 0-2.2-.1-.5-.2 0-.2 1.2M82.5 220.3c0 10.5.1 14.7.2 9.5a690.4 690.4 0 0 0-.2-9.5m64.9-16.7h3.5c1-.1.2-.2-1.8-.2-1.9 0-2.7 0-1.7.2m35.1 4.4c0 1.6 0 2.3.2 1.5v-3c-.1-.8-.2-.1-.2 1.5m-34.4 1c0 .8.2 1.1.4.6.1-.4.7-1 1.1-1.4.8-.6.7-.7-.3-.7s-1.2.3-1.2 1.5m17.7-1.1l12.1.1.6 1.5.5 1.5v-3.5l-12.6.1-12.7.1 12.1.2m124.9 3c-5 8.6-5.4 10-6.5 24.3a121 121 0 0 1-1 10.7c-.6.5-3.8-3.5-5.4-6.7-4.5-8.7-5-8.8-7-2.3-3 9.5-3 10.4-2.2 19.4l.9 8.7c0 .3 1-1.2 2.2-3.2 4.8-8.1 8-11.8 15.7-18.2 2-1.7 3.7-3.3 3.6-3.6 0-.2 0-.4.3-.3.3 0 2.3-1.4 4.6-3.2 6.3-5.3 6.3-11.6 0-22-4-7-3.5-6.5-5.2-3.7m-110.6 1c.4.6.7.6 1.2 0 .5-.4.4-.6-.6-.6s-1.1.2-.6.7m-16.4 7.2h1.9c.5-.1 0-.3-1-.3s-1.4.2-.9.3m-5.6 1.3c-1.6 1-1 1.6.7.7l1.6-1c0-.5-1.3-.3-2.3.3m12.2.2c.6.4 1.3.8 1.6.8.3 0 0-.4-.5-.8-.6-.5-1.3-.8-1.6-.8-.3 0 0 .3.5.8m-128 .6c-1.4 2.8-3.3 10-3.6 14.2l-.4 4.7-3.8-2a32.4 32.4 0 0 0-10.9-3.7c-.1.2-.5 2.8-1.2 8.6-.9 8-.6 8.8 6.2 18.2 1.3 1.8 2.4 3 2.4 2.8 0-5.2 2.8-14 5-16 1.6-1.4 8.3-.8 13.9 1.3 2.3.8 4.3 1.4 4.4 1.3a100 100 0 0 0-2.8-16.2c.5-3.4-8-15.5-9.2-13.2m130.4 1.1c0 .2.7 1.1 1.6 2.1.9 1 1.6 1.6 1.6 1.2 0-.3-.7-1.2-1.6-2l-1.6-1.3m-17.6 1.2c-.6.6-1.1 1.4-1.1 1.8 0 .3.6 0 1.4-.8.8-.8 1.3-1.6 1.1-1.8-.2-.2-.8.2-1.4.8m-2.5 8.4l.6 3.6c1 9.6 1.7 14.5 2.2 14l-.6-5.7c-.5-3-1-7.2-1.1-9.2-.2-2-.6-3.6-1-3.6-.2 0-.3.4-.1.9m23.4 3.7a74 74 0 0 1-.4 4.8l-.2 2.1.5-2.1c.3-1.2.5-3.4.4-4.8l-.2-2.7-.1 2.7m132.6 1.6c-2.1 2.8-2.2 3.1-1.5 4.2 1.3 2 1.5 6.1.6 12.9-1 8.1-1 7.9.6 5.1 5-8.2 6.1-16 3.5-22.8l-1-2.4-2.2 3M83 241.7c0 1 0 1.5.2 1v-2c-.1-.4-.2 0-.2 1m220 .7a22.5 22.5 0 0 1-9 9.7l-4.1 2.4c-.5.3-.3 2.2 1.1 9.2l2.3 11.6.3 2.9 1.6-2.3c.8-1.3 1.3-2.5 1.2-2.8-.2-.3-.1-.4.2-.2.6.4 4.5-6.9 4.6-8.6 0-.5.5-2.2 1-3.8.6-1.5 1-3.2.7-3.6-.2-.5 0-.7.3-.4.4.2.5-.4.4-1.8-.1-1.2 0-2.1.2-2 .6.4 1.1-8.8.6-10.6l-.5-1.7-.9 2m-242.6 3a52 52 0 0 0-5.2 17.8l-.3 4.1-5.5-2.8c-4.6-2.5-11.1-4.6-11.8-4-1 1.1 6 19 8.9 22.2l1.5 1.7 1.7-4.1c3.2-7.8 5.4-9.2 14.7-9.2H71V266a30 30 0 0 0-8-21.2l-1.6-1.5-1.1 2.3m23 0c0 .9.2 1.6.5 1.6.6 0 .6-.5 0-2-.4-.9-.5-.8-.5.5m0 5.7c0 1.4 1.6 8.4 2.6 10.7.8 2.2.7 1-.7-4.6a397 397 0 0 1-1.6-6.3c-.2-.9-.2-.8-.3.2m-78 4.6c0 2.6.2 5.5.4 6.4.2.9.3-1 .2-4.3-.3-7.3-.6-8.5-.6-2.1m-4.7.5c0 2.7 0 3.8.2 2.6v-4.8c-.1-1.4-.2-.4-.2 2.2m325.6-.3c0 2.3.1 3.2.2 2 .2-1 .2-2.9 0-4 0-1-.2-.2-.2 2m-153-1.2c0 1.3 0 1.4.4.4.7-1.4.7-1.8 0-1.8-.3 0-.5.6-.5 1.4m71 4c-.6 1.8-.9 3.4-.8 3.5.1 0 .7-1.3 1.2-3 .5-1.8.9-3.4.7-3.5 0-.1-.6 1.2-1.1 3m-71.8 1.8c-.2 2-.3 3.6-.1 3.8.1.1.4-1.4.6-3.3.2-2 .2-3.7.1-3.8-.1-.2-.4 1.3-.6 3.3m-15.9-1.3c.1.8.3 1.6.5 1.6l.2-1.6c0-1-.2-1.6-.5-1.6-.2 0-.3.7-.2 1.6m.5 2.5c-.1.2 0 .9.2 1.5.4.9.4.9.5-.4 0-1.5-.3-1.9-.7-1.1m168.4 2a7.4 7.4 0 0 0-.1 2.8c.1.1.4-.9.6-2.2.2-1.4.3-2.6.1-2.8-.1-.1-.4.9-.6 2.2m-324 1c.1 1.8.4 3.4.5 3.5.3.4 0-3.4-.4-5-.3-1-.3-.5-.1 1.6m241.2-.6l-.7 2.7c-.2.6 0 .4.6-.4.4-.8.7-2 .6-2.7-.1-1-.2-1-.5.4m-236.4.2c-.1.2 0 .9.2 1.4.4 1 .4 1 .5-.4 0-1.4-.3-1.8-.7-1m81.7 3.7c1 2.3 2 4.2 2.4 4.3.3.1 0-1-.8-2.5-.8-1.4-1.6-3.3-1.8-4.1-.2-.8-.7-1.6-1-1.7-.3-.1.2 1.7 1.2 4m191.5 1.4a56.8 56.8 0 0 0-8.7 25.9l-.3 6h2.3c16.8 0 21.4-11.7 12.3-30.9-3.2-6.5-2.6-6.4-5.6-1m50.2-.4a7.9 7.9 0 0 0 0 2.7l.5-2.2c.2-1.4.3-2.6.2-2.8-.2 0-.4 1-.7 2.3m-158.5 3.2c-.4 2.9-.6 6-.4 6.6.1 1 .2.7.3-.9 0-1.2.3-3.4.6-4.9.4-1.4.5-3.4.4-4.4 0-1.1-.4.3-.9 3.6m-164-2.2c.4 3.4 1.8 10.1 1.8 8.3a46.9 46.9 0 0 0-1.7-8.3m296.5 2.8a45 45 0 0 1-11.1 9.7c-.5.3-.4 1.5.7 5.2 1 3.7 1.3 6 1.3 10.6v5.9l5.3-7.5c5-7.2 7-11 6.2-12.9-.1-.4 0-.6.3-.4.4.3.6-.2.4-1.5a56.2 56.2 0 0 0 1-13.6c-.1 0-2 1.9-4 4.5m-64.6-.5a88.3 88.3 0 0 1-11 17.4c-.8 1.7 2.4-2 5-5.7a97.5 97.5 0 0 0 7.7-14.2c-.2 0-1 1.1-1.7 2.5m-179.5 4.6l-2 5.7 2 5c2 5.2 4.1 12.6 4.7 16.2l.3 2.2 5.6.4c3.1.2 5.8.2 5.9.1a113 113 0 0 0-5.6-19.2c-.8-2.3-1.4-3.5-1.8-3.3-.3.2-.4.1-.2-.2.2-.3-.3-1.6-1-2.9-.7-1.3-1.3-2.6-1.3-3 0-1-2-3.4-2.5-3-.2.3-.2.2 0-.1.1-.3-.3-1.3-1-2.1l-1.2-1.5-2 5.7m32-1.7c.8 1.4 1.3 2.6 1.2 2.6-.2 0 .3 1 1 2.1a13 13 0 0 0 1.7 2.2c.5 0-3.3-7.4-4.5-8.6-.4-.4-.2.3.6 1.7m231.6 1.3l-.6 4.5c-.2 1-.2 1.7 0 1.6.4-.4 1.6-8 1.3-8.4-.2-.1-.5 1-.7 2.3m-320-1.1c0 .6.2 2 .5 3.2.3 1.8.4 1.9.4.5 0-1.9-.8-5.4-.9-3.7M159 278c0 1.6.1 2.3.2 1.4.2-.8.2-2 0-2.9 0-.8-.2-.1-.2 1.5m-128 3.5c2.1 5.5 10 18 11 17.5.2-.2.3-.1.1.2-.3.5 8.5 9.7 9 9.2l.5-9.6.4-9.3-5.4-3.2c-6.1-3.5-10.4-5.4-13.8-6l-2.3-.3.6 1.5M159 283c.4 2.3.7 2.7.7 1 0-.7-.2-1.6-.5-2-.4-.6-.4-.3-.2 1m99.7 2.9c-3.6 5-5.2 9.8-4.5 13.5.3 1.8 0 1.7 8.6 2.6l3.4.3v-6.5c0-4.7-.2-6.4-.7-6-.4.2-.4 0-.2-.3.5-.8-1-5.3-2.3-7l-1-1.2-3.3 4.6M4.3 282.6c0 1.1 1.4 5.2 1.5 4.3l-.7-3c-.5-1.3-.8-1.9-.8-1.3m92.5 2c.5 1 1.5 2.3 2.1 2.9.7.6.5 0-.7-1.8-2-3-3.1-3.9-1.4-1m72.6 2c-.3 5-.2 10.5.1 10 .4-.7.6-11.7.2-11.7-.1 0-.3.8-.3 1.8m-9.7.1c.1.7.4 1.3.5 1.3 0 0 .2-.6.2-1.3 0-.7-.2-1.3-.5-1.3-.2 0-.3.6-.2 1.3m161.1.9l-1 3c-.1.6 0 .7.3.4.6-.6 2-5.1 1.6-5.4-.1-.1-.5.7-.9 2m-309.9.7c.5 1 .8 2.5.9 3.3 0 1 .1 1.2.3.5.3-1.2-.9-5.7-1.5-5.7-.2 0 0 .9.3 1.9m-4.7.5c.4 2 .7 2.4.7 1 0-.5-.3-1.3-.6-1.8-.4-.6-.4-.3-.1.8m94.5.8l1.2 1.1c.1 0 0-.5-.4-1-.3-.6-.8-1.1-1.1-1.1-.4 0-.2.5.3 1m59.5 2c.4 3.8.6 4 .7.6 0-1.7-.2-3-.5-3-.2 0-.3 1-.2 2.4m-79.3-.5l-3.3 1.3 3.3 5.5c1.8 3 3.5 5.4 3.8 5.2.2-.1.3 0 0 .4-.2.4 2.5 6.2 3.8 8 .2.2 12.1-1 12.4-1.3.7-.7-5.6-8.8-12.6-16.1l-4.1-4.4-3.3 1.4m21.7 2c.7.7 1.4 1.2 1.5 1 .4-.3-1.5-2.3-2.2-2.3-.3 0 0 .6.7 1.3m123.3-.6c-4.2 5-8.5 8.9-9.9 8.9-.3 0-.7.3-1 .7-.2.4-1 1-1.6 1.4-.7.4-1.1.8-1 1 .2.1 2-1 4.2-2.5 4.3-3 11.9-10.2 10.6-10.2a2 2 0 0 0-1.3.7m98.4.7c-.2.7-.2 1.5-.1 1.6.1.1.4-.4.6-1.2.2-.8.2-1.5.1-1.6-.1-.2-.4.4-.6 1.2m-312 .8c0 1.1 1 3.9 1.3 3.6.1-.2 0-1.2-.5-2.4-.4-1.1-.8-1.7-.8-1.2m98 6a56 56 0 0 0 7 6c1.5.7 1.5.7.6 0l-4-3.5c-6.8-6.1-8.6-7.4-3.6-2.5m207.5-2.5a374 374 0 0 1-1.5 4.2l-.4 1 .7-1c1-1.4 2.8-6 2.5-6.7 0-.3-.7.8-1.3 2.5m-157.1-.6c.5 2.1.7 2.3.7.6 0-.8-.2-1.5-.5-1.7-.4-.2-.4.2-.2 1.1m162.5 0c-.2.8-.2 1.5 0 1.7l.5-1.2c.2-.8.3-1.6.1-1.7-.1-.1-.4.4-.6 1.2M8.5 298.2l1 3c.6 1.2 1.1 2 1 1.5 0-1-2-5.3-2-4.5m153 4.4c0 1.8.3 3.3.6 3.3.5 0 0-5.9-.5-6.4-.1-.1-.2 1.2-.1 3m6.3 2.8c-.2 3-.1 3.7.8 4.6.5.6.8.7.6.3-.3-.5-.6-2.5-.8-4.6l-.3-3.7-.3 3.4m146.5.7c-.8 1.6-1.5 3.4-1.7 4.2-.2.7.5-.5 1.5-2.7 1-2.1 1.8-4 1.7-4.1 0-.1-.8 1-1.5 2.6m-303-.6c.3.9.6 1.5.8 1.4.2-.3-.8-3-1.2-3 0 0 0 .7.4 1.6m198.5 1.5c-.6.6-3.2 2.2-5.8 3.5-5.2 2.7-6.3 3.4-3.8 2.4 4.7-1.8 13.2-6.9 11.5-7-.5 0-1.3.5-1.9 1.1m33 1.2c-6.9 5-9 7.5-13.5 17-2.3 4.8-4.2 8.8-4 8.9l4.3 1.3a64 64 0 0 1 9 3.5 54 54 0 0 0 5 2.2c.5-.8 2.2-7 2-7.5-.2-.3-.1-.3.3 0 .6.2.7 0 .4-.8-.2-.7 0-1 .3-.8.4.2.5 0 .3-.8-.2-.6-.1-1 0-.9 1 .6 1.8-8.2 1.2-13.7a36.5 36.5 0 0 0-2.3-10.6l-3 2.2m-81.9.7c-1.8 3-2 3.5-.6 2 .6-.5 1.4-1.2 1.7-1.3.3 0 .5-.8.4-1.5-.1-1.2-.2-1.2-1.5.8m157.3-.3c-.3 1-.4 1.7-.3 1.7.4 0 1.4-2.8 1.1-3-.1-.2-.5.4-.8 1.3m-195.8.6c0 .4 7 3.9 7.3 3.6l-3.6-2.1c-2-1.1-3.7-1.8-3.7-1.5m134-.1c-4.6.1-5.1.2-5 1l1.5 5.4 1 4.4-1.3 6c-1.7 7.1-2 6.8 4.4 4.2 2.9-1.1 6.2-2.4 7.4-2.7a71 71 0 0 0 22.3-14.3l1.5-1.6-3.3-.9c-6.5-1.7-13-2-28.4-1.5m-237.3 3c0 .5.7 2 1.6 3.3.9 1.3 1.7 3 2 3.7.1.7.6 1.6 1 1.9.4.3.7.9.7 1.2 0 .4.7 1.3 1.4 2.2 1 1.2.7.4-1-3-4.6-8.6-5.7-10.3-5.7-9.3m149.9 1.4c-.6 1.6-.6 1.7.2 1 .4-.5.7-1.3.6-1.8-.1-.7-.4-.4-.8.8m139.2 5.2a246 246 0 0 1-5 8.8c-.7 1.1-1 2-.7 2 .3 0 .7-.4 1-1 .1-.4 1.5-2.8 2.9-5.2a32.6 32.6 0 0 0 3-5.6c.4-.2 2.9-5.3 2.6-5.6l-3.8 6.6m-112.6-4.4c-1 .4-1.7 1-1.5 1 .2.3 1.2-.1 2.4-.7 2.3-1.3 1.8-1.5-.9-.3M55 315.9l-2 2 1.8 2.3a46.5 46.5 0 0 0 19.7 11.4c3.2 1 5.4 2.1 4.8 2.2-1.9.4 6.4 1 9.2.7 1.7-.2 3-.5 3-.6l-1-2c-.6-.9-2-4.7-3-8.4a71 71 0 0 0-2.4-7c-.2-.3-24.8-2.6-27.9-2.6l-2.2 2m79.8-.7a6 6 0 0 0 2.1.8c1.3 0 0-.9-1.8-1.2l-1.6-.4 1.3.8m-118.5 1.3c.5 1 1 1.8 1.4 2 .3.1 0-.6-.6-1.6-1.4-2.3-1.9-2.6-.8-.4m176.5-1c-.1.2-1 .6-2 .8-1.5.4-4.4 1.9-3.5 1.9 1 0 6.3-2.4 6.3-2.8 0-.6-.4-.6-.8 0m-50 2.2c0 .7 7 2.2 11.5 2.4l4.8.2-4.5-.5a66 66 0 0 1-8.2-1.5c-2-.5-3.6-.8-3.6-.6m41 .9c-.1.2-1.9.5-3.9.8l-3.7.4 4-.1c3.6-.2 4.9-.5 4.2-1.2h-.5m-19.4 2l-5.4.2 5.5.2c3.4 0 5.5-.2 5.5-.5s0-.5-.1-.4l-5.5.4m8.1-.1h2.2c.5-.2 0-.3-1.2-.3s-1.6.1-1 .3m-153.3 1.5a103 103 0 0 0 9.9 15.4c-.9-1.1-3.4-5.1-5.7-9a49.8 49.8 0 0 0-4.2-6.4m79.4 4.5a17 17 0 0 1 1.9 8.6c0 3.7.1 4.2 1 4.2 2 0 18-1.1 18.1-1.3.4-.3-2.3-4.4-4.9-7.3a24.9 24.9 0 0 0-15.4-8.2l-2.6-.4 1.9 4.4m212.3-2.7c-.5 1-.7 1.6-.6 1.6.2 0 .7-.7 1.1-1.6.5-.9.7-1.6.6-1.6-.1 0-.6.7-1 1.6m-282.7 4.6c0 .5 2.4 4 2.8 4 .2 0-.2-1-1-2.2-1.3-2-1.8-2.5-1.8-1.8m242 .6c-3.5.8-10 3.8-9.7 4.4a125.4 125.4 0 0 0-12 7.3l3.8 3.2 7.6 6.3c3.5 3 3.6 3.1 4.7 2.2.5-.5.8-1.2.7-1.5-.2-.3-.1-.3.2-.1 1.4.9 12.5-14.3 11.6-15.8-.3-.4-.2-.5.1-.3.5.3 2.3-4.7 2.3-6.2 0-.7-6-.3-9.3.5m30.2 3.2c-2.4 4.2-2.4 4.3-1.4 3.5.4-.4.8-1 .8-1.3 0-.3.6-1.2 1.2-2.1.6-.9 1-1.7.8-1.8-.1-.2-.8.6-1.4 1.7m-84.4-.3c-2.5.5-2.5.5-6.1 2.8-3.5 2.2-6.5 7.4-10.4 18.3-3.7 10.3-2.9 9.4-10.4 11.2-6 1.3-12.7 5.7-11.5 7.4.2.2.2.2 0 0-.5-.2-3.4 2.5-3.4 3.1 0 .3 1.4.5 3 .5h3.2l5 5.2 5.2 5.2 3-3.5 3-3.5-3.7-3.7-3.8-4c0-.9 5.6-2.3 7.7-2 1.2.3 2.7.5 3.2.5s1 .3 1 .5a83 83 0 0 0 14.4 5.6 31 31 0 0 0 22-2.3l2.4-1.3-2.2-2c-6.4-5.8-8.8-6.7-18.8-7.3l-6.5-.4 1.3-3.2c.7-1.7 1-3.4.9-3.7-.2-.4-.1-.5.2-.3 1.4 1 5.5-14.4 5.5-20.9 0-3 0-3-4.2-2.2M87 334c-.8 0-2.3.1-3.2 0-1-.1-.3-.2 1.4-.2 1.8 0 2.6 0 1.8.2m40.5 1c2.8 11 6.8 19 12 24l3 2.7h-9.7c-13.3 0-27 3.5-24.5 6.2 7.6 8.5 24.8 10 43 3.8a13 13 0 0 1 7.2-1l3.2.4-2.3 1.9c-2 1.6-2.2 2-1.6 2.7.4.5.5.7 0 .5-.7-.4-6.1 5.7-5.6 6.3.2.3.1.3-.2.1-1.5-.8-1.2.9.7 3.8l2 3.2 6-6.5c3.4-3.6 7.2-7.5 8.5-8.6 1.4-1 2.3-2.2 2-2.5-.1-.3 0-.5.2-.3.3.2 2-1 3.7-2.8 1.7-1.8 2.8-3.2 2.4-3.2-2.8 0-19.5-2.2-19.8-2.5-.3-.3-2-3.5-4-7.1a40 40 0 0 0-10.7-14.3c-3.7-3-8-5.7-8.5-5.2-.2.2-.3.1-.3-.2 0-.3-1.3-1-2.8-1.5l-3.5-1.2c-.6-.2-.6.1-.4 1.3M34 336.2c1.8 3.2 2.1 3.7 6.2 8 .8.8 1.8 2.4 2.4 3.4a7 7 0 0 0 1.6 2.3c.4.2 1.9 1.9 3.3 3.7a26.5 26.5 0 0 0 5.1 5.6c2 2.3 2.6 2.9 3 2.6 0-.1-1.8-2.4-4.3-5a117 117 0 0 1-11.7-14c-1.4-1.6-3.3-4.1-4.3-5.5-2-2.8-2.6-3.3-1.3-1m269.3.9c-.6 1-.9 1.8-.6 1.6.6-.4 2.3-3.5 2-3.5-.2 0-.8.9-1.4 1.9M70 339.9c1.2 1.4 2.5 2.6 2.7 2.5.3 0 .4 0 .4.4-.1.2 1.6 2.6 3.8 5.3l4 4.8 2.6-2.5c1.4-1.4 2.4-2.6 2.3-2.7-.3-.3 2.2-3.8 3-4.4a47.8 47.8 0 0 0-12.7-3.5c-.5-.4-2.2-.9-3.7-1.2a96 96 0 0 1-3.7-1c-.7-.2-.4.5 1.3 2.3m223.7 2.7a40.8 40.8 0 0 0-2.8 3.6c0 .4 3-2.7 4.5-4.6 2.5-3.4 1.2-2.7-1.7 1m5.2 1.1c-1 1.4-2.3 3-3 3.5-.5.5-.8 1-.4 1 .6 0 5.5-5.8 5.5-6.5 0-.8-.1-.6-2.1 2m-264 2c5.3 6.6 11.2 13.6 11.4 13.5.1-.2-.5-1-1.4-2-1-1-2-2.5-2.5-3.3-.4-.8-1-1.5-1.2-1.5-.3 0-1.8-1.8-3.5-4a46.3 46.3 0 0 0-4-4.6c-.4-.4.1.5 1.3 2m189 6v7.1l8.4-.2c8.5-.2 14.9-1.7 16.3-3.8.2-.4.4-.4.4-.2 0 .6 3.2-1.3 3.2-1.9 0-1.3-10-4.6-19.2-6.2l-7.6-1.5-1.5-.3v7m-116.7-4.2c-5.3 1-17.9 5.8-17.1 6.7.2.2 0 .2-.3 0s-1-.1-1.5.1c-.8.5-.5.8 1.4 2 9.7 5.5 26.5 4 35.2-3.4l1.8-1.5-5-1.9c-5.5-2-10.3-2.8-14.5-2m180.4 1.5a206 206 0 0 0-11 12.4c.4 0 5.8-5.5 8-8.3l4-4.4c1-1 1.7-1.7 1.4-1.7-.2 0-1.3.9-2.4 2m-202.2-1.3l-2.3 2.2-2.2 2.1 2-2.2c2-2.1 2.5-2.6 2.5-2.1m199 12.2c-3 3.5-6 6.5-9.3 9.4a16.8 16.8 0 0 0-2.5 2.6 75.2 75.2 0 0 0 14.7-14.8c-.2 0-1.5 1.3-2.9 2.8m-235.8 1.8c1.2 1.8 3.3 4 5 5.2 1.5 1 1.4 1-.3-.7a187.7 187.7 0 0 1-4.7-4.5m8 1c1.4 2 3.8 4.1 8.2 7.4l2.4 1.9a122.9 122.9 0 0 0 14 9.6c2.7 1.8 0-.4-4-3.1a70 70 0 0 1-9.4-7c-2-1.6-3.8-3-3.8-3.3a19.8 19.8 0 0 1-4.8-3.5c-1.9-1.6-3.1-2.6-2.7-2m216 2.3a161 161 0 0 1-8 6.6c-2.6 1.9-4.7 3.7-4.7 4 0 .2.4 0 1-.5a28.8 28.8 0 0 0 5.3-3.9l6.6-5.4c2.5-2 4.1-3.9 3.4-3.9l-3.6 3.1m-216.5 3.5l3 2.9c1.7 1.4 3 2.3 2.7 2a34 34 0 0 0-5.7-4.9m8 7l2 2c.5 0-1.5-2.4-2.6-3.1-.8-.6-.6-.2.6 1m203.5.4c-.5.6-2 1.7-3.3 2.5-1.3.7-2.3 1.5-2.2 1.6.4.3 4.7-2.6 6-4 .5-.6.9-1.1.7-1.1-.1 0-.7.4-1.2 1m-13.8 3.5c-2.9 1.8-5.4 3.5-5.6 3.8-.9.9 4.7-2.3 7.3-4.2 6-4.3 5.2-4.1-1.7.4M67 378c.4.7 4.6 3.6 6.3 4.3a223.9 223.9 0 0 1-3.7-3c-2.3-1.8-3.1-2.2-2.6-1.3m17.7 6c.2.2 1.5 1 2.8 1.6a96.4 96.4 0 0 1 4.4 1.9c0-.2-1.7-1.2-3.8-2.2-2-1-3.6-1.7-3.4-1.4m161 .5c-2 1.4-2.2 1.7-1 1.3a5 5 0 0 0 2-1.3c1.2-1.2 1-1.2-1 0m-167.7.9l1.9 1.3c1 .6 1.9.9 1.9.6 0-.2-.9-.8-2-1.3-1-.5-1.8-.8-1.8-.6m173 1.3c-.1.3-1.8 1.4-3.6 2.5-1.8 1-2.8 1.7-2 1.5.7-.2 2.5-1.2 4-2.2 3.3-2.4 3.3-2.3 2.5-2.3-.3 0-.7.2-.9.5m-158 2c.6.4 1.2.7 1.6.6.4-.1 0-.5-.9-.9-1.4-.6-1.5-.6-.6.2m140.6 2.4c-6 3-6.3 3-5.8 3.5.2.3 10.3-4.8 11.3-5.7 1-.8.2-.5-5.5 2.2m-144 .8c0 .1.8.6 1.7 1 .9.5 1.6.8 1.6.6 0-.1-.7-.6-1.6-1-.9-.5-1.6-.8-1.6-.6m150.8 1c-2 1-5.1 3.1-3.5 2.4 1.6-.7 6.2-3.2 6.2-3.4 0-.3 0-.4-2.7 1m-137 0c0 .4 3.1 1.7 5 2.2.7.2 0-.3-1.6-1-3-1.5-3.3-1.5-3.3-1.1m-5 3.2c1.4.7 2.8 1.3 3.1 1.3.8 0-3-2-4.5-2.3-.8-.2-.2.2 1.3 1m11.8-.3a30 30 0 0 0 7.4 2.7c.5 0-7-3.2-7.7-3.2-.1 0 0 .2.3.5m110.3.2c-1.1.3-2 .7-2 1 0 .4 3.8-.6 4.5-1.2.6-.6.2-.6-2.5.2m12.8.4a7 7 0 0 0-2 1.3c0 .3 4.2-1.7 4.8-2.2.6-.6-1 0-2.8.9m-19.3 1.4c-.5.1-.9.5-.9.8 0 .3.4.3 1 0l1.7-.8c1-.4-.3-.4-1.8 0m-95.5 1c.5.5 7.5 2.4 7.2 1.9a8 8 0 0 0-2.8-1 126.2 126.2 0 0 1-4.4-1m91.3.5c-1.1.3-2 .7-2 1 0 .4 3.8-.5 4.5-1.2.6-.6.2-.6-2.5.2m-100 1.5c1.3.6 2.5 1 2.6.8.2-.2-3.9-2-4.5-1.9-.2 0 .7.5 2 1m16.8.4c.8.8 3.5 1.4 3.5.7 0-.3-.4-.5-1-.5s-1.5-.2-2-.4c-.7-.2-.8-.1-.5.2m92.8.4c-1.7 1-1.1 1 1.2 0 1-.4 1.4-.7 1-.7-.5 0-1.4.3-2.2.7m-88 .8c1 .4 3.5.8 6.7 1.2 2 .2.6-.4-2-1-4.3-.8-6.4-.9-4.6-.2m8.8 1.3c.6.5 3.8.8 3.5.3-.2-.3-1.1-.5-2-.5-1 0-1.6 0-1.5.2m46.5.4c-.9.3-.5.3 1.3.1l3-.5c.4-.4-3 0-4.3.4m-39 .7c.6.5 4.8.8 4.8.3 0-.3-1.1-.5-2.5-.5s-2.4 0-2.3.2m32.7.2h3c.8-.2.1-.3-1.5-.3s-2.3.1-1.5.3m-23.2.5h3.4c1-.1.2-.2-1.7-.2-2 0-2.7 0-1.7.2m15 0h4.5c1.2-.1.2-.2-2.3-.2s-3.5 0-2.3.2m-45 .7c1 .4 3.9.7 3.4.3a11 11 0 0 0-2.3-.5c-1.5-.2-1.9-.2-1.1.2m19.6 3.6h2c.4-.2 0-.3-1-.3s-1.5.1-1 .3m35.6 0h2.4c.7-.2.1-.3-1.2-.3s-1.9.1-1.2.3m-27.8.5h4.3c1-.1 0-.2-2.3-.2-2.4 0-3.3.1-2 .2m11.6.2l-4.8.3h4c2.2 0 6.3-.1 9.1-.3l5-.4h-4.2c-2.3 0-6.4.2-9 .4"/>
  </g>
</svg>
