<svg xmlns="http://www.w3.org/2000/svg" width="400" height="398.3" display="block">
  <path fill="#02366f" fill-rule="evenodd" d="M195 .1a78.7 78.7 0 0 0-14.6 1.4 379.4 379.4 0 0 1-8 1.4l-1.8.4a35.5 35.5 0 0 1-6 1.4l-1.7.5-2.3.6a137.2 137.2 0 0 1-7 2.1c-.5.2-1.2.5-1.6.5l-1 .4-1.1.5c-.5 0-1 .2-1.4.4l-1.6.6a86.3 86.3 0 0 0-10.7 4.6l-1.7.8a51.5 51.5 0 0 0-8 4.1l-1.7 1L123 22a56.7 56.7 0 0 0-4 2.4 71.7 71.7 0 0 0-7.5 5 119.6 119.6 0 0 1-2.7 2 271.7 271.7 0 0 1-7.4 6c-.2 0-.7.4-1.1.8-.5.4-1 1-1.4 1.2a164.8 164.8 0 0 0-41.1 56.3l-.5 1.3a1669.5 1669.5 0 0 1-2.3 5.4l-.4 1.2c-.4.8-1 2.7-1.6 4.7l-.7 2c-.2.2-.3.7-.3 1l-.5 1.5c-.3.6-.5 1.3-.5 1.6l-.4 1.4a8 8 0 0 0-.5 1.8c0 .5-.3 1.2-.4 1.6a125.7 125.7 0 0 1-2.3 10.8c-.2.1-.3 1.2-.5 2.4a27 27 0 0 1-.5 2.8l-.4 3.1a195.5 195.5 0 0 0 .4 44.9l.4 2.3.6 3.5a304.5 304.5 0 0 1 2.3 10.4l.4 1.6c0 .5.3 1.3.5 1.7.2.5.4 1 .4 1.4 0 .3.2 1 .4 1.3l.5 1.6c0 .5.3 1.2.5 1.6l.4 1 1 3a46.3 46.3 0 0 0 2.7 7.2l.5 1.2.4 1a46.3 46.3 0 0 0 3.6 8l.4.5.5 1c0 .3.4.9.6 1.3l.5.8 1.3 2.4a636.8 636.8 0 0 1 3.7 6.4c.9 1.5 1 1.9 2.3 3.7l1.6 2.4A168.4 168.4 0 0 0 84 264.1a208.6 208.6 0 0 0 16 15.8 80.2 80.2 0 0 0 8.2 6.7 752.5 752.5 0 0 1 5.3 3.7 50.5 50.5 0 0 0 6.5 4.3c.1.2.6.5 1 .7l1.8 1a138.6 138.6 0 0 0 20 10l1.4.7c.2.2.6.3.8.3.3 0 1 .2 1.4.5l1.2.5 1 .4 3.3 1.1a47.5 47.5 0 0 1 4.9 1.6c.4 0 1.2.3 1.6.5.4.2 1 .4 1.4.4l1.6.4c.5.3 1.4.5 2 .6l1.8.5 2.3.6a333.3 333.3 0 0 1 11.3 2.1l2.5.4 3.3.4 4.3.6c2.4.5 27.7.5 30.2 0l4.3-.6c1.5 0 3.1-.3 3.7-.5l1.8-.3 2.3-.3a553.4 553.4 0 0 1 10-2c.6 0 1.4-.3 1.9-.5l1.6-.4c.4 0 1.3-.2 1.9-.5.6-.3 1.3-.5 1.6-.5.4 0 1-.2 1.4-.4l1.5-.5c.4 0 1-.3 1.4-.4a46.8 46.8 0 0 0 10.4-3.6l1.2-.6c.5-.3 1.1-.5 1.3-.5.2 0 .5-.1.7-.3l1.3-.6a47.4 47.4 0 0 0 7-3l.5-.5 1-.5c.3 0 .7-.2.9-.4l1.9-1a67 67 0 0 0 6.3-3.5l2-1.2a97.2 97.2 0 0 1 6.7-4.3l1.6-1.2a99.4 99.4 0 0 0 6.5-4.7 125.1 125.1 0 0 0 7.9-6.7 125.5 125.5 0 0 0 14-14 61.2 61.2 0 0 0 5-6 63.6 63.6 0 0 0 5.7-7.5l1.1-1.6.8-1a32.6 32.6 0 0 1 2.7-4.3l.5-.8 1.3-2.2a121.5 121.5 0 0 1 2.7-4.7 104.2 104.2 0 0 0 6.1-12c.2-.2.4-.7.4-1 0-.3.1-.7.3-1 .4-.4 1.4-2.9 1.8-4.1l.6-1.3.4-1.2c0-.4.3-1 .5-1.3.2-.4.4-.8.4-1.1l.4-1.2.7-1.8.5-1.3.2-.5a64.7 64.7 0 0 1 2.3-8.6l.4-1.4c.2-.3.4-1.2.5-2 .1-.8.3-1.7.5-2a9 9 0 0 0 .5-2.1c0-.9.3-1.9.5-2.3l.4-2a76 76 0 0 0 1-7.7l.7-5a259 259 0 0 0-.2-34 94.9 94.9 0 0 0-2-13.5l-.4-2c0-.5-.2-1.3-.4-1.7l-.5-2c0-.5-.3-1.5-.5-2.2l-1.2-4.4a148.5 148.5 0 0 0-23-48.2c-.3-.6-.7-1-.8-1l-1-1.4a21.4 21.4 0 0 0-2.1-2.9 172.2 172.2 0 0 0-26.1-26.8 76.2 76.2 0 0 0-10.2-7.5 47.7 47.7 0 0 0-6.8-4.5 49.8 49.8 0 0 1-6.7-4 2 2 0 0 1-.8-.4l-.5-.4a151.9 151.9 0 0 1-8.6-4.1 393.6 393.6 0 0 1-6.4-2.8 78.2 78.2 0 0 1-6-2.3l-1.1-.4-1.8-.7a49.4 49.4 0 0 1-4.9-1.5 148.4 148.4 0 0 1-5.4-1.5c-.5 0-1.2-.3-1.6-.4l-2-.5c-.7-.1-1.5-.3-1.8-.5l-2-.5c-.8 0-1.9-.3-2.3-.5l-1.5-.3a211.9 211.9 0 0 0-39-2.4m21.8 3a86.8 86.8 0 0 0 7.4.7c.6.2 2 .4 3.2.5l3 .5c.5.2 1.7.4 2.6.5 1 0 2 .3 2.2.4l2 .5a80.1 80.1 0 0 1 12.5 3.1l1.4.5 1.5.5 1.5.5c.2.2.6.3.8.3l1.8.6 2.1.7c.4 0 .9.3 1.1.4.2.2 1 .4 1.5.6.6.2 1.2.4 1.4.6l1 .4c.3 0 .9.3 1.1.5.3.2.7.4 1 .4.1 0 .8.2 1.3.5l2 1 1.3.5 1 .5c.4.3 1 .6 1.5.7l.8.4s.3.3.7.4l.9.5.8.4.9.5c.2.2.7.5 1.1.6.5.1.8.3.9.4l1.7 1 2.2 1.2c1.3.9 2.1 1.4 2.5 1.5.3 0 .5.2.5.3 0 .1.7.6 1.5 1l1.6 1 .9.6 1.6 1.1a9 9 0 0 0 1.4 1c.2 0 .9.5 1.4.9l1.5 1.1a56.6 56.6 0 0 1 5.8 4.4c.4.3 1 .7 1.2 1l4.7 4a154 154 0 0 1 40.8 56.5l.6 1.3c0 .5.5 1.5.8 2.3a84.4 84.4 0 0 0 3.2 9c0 .3.2 1 .5 1.5l.5 1.5.4 1.2.5 1.7c0 .6.2 1.2.3 1.4a80 80 0 0 0 1.9 8.2c0 .7.3 1.5.4 2 .2.3.4 1.4.5 2.3.1 1 .3 2.1.5 2.6s.4 1.6.4 2.5c0 .9.3 2.5.5 3.5l.5 4.5c0 1.4.3 3.6.4 5a201.2 201.2 0 0 1-.3 24.5 63.8 63.8 0 0 1-1 9.4c-.2 1-.3 2-.5 2.4a9 9 0 0 0-.4 2c0 .9-.3 2-.5 2.7a16 16 0 0 0-.5 2.4c0 .7-.3 1.7-.5 2.4l-.7 2.8c-.1.9-.4 2-.6 2.3l-.4 1.7c0 .6-.3 1.3-.5 1.8l-.4 1.3c0 .3-.2 1-.5 1.5s-.5 1.1-.5 1.4l-.3 1.2a46.4 46.4 0 0 1-3.6 9.6c0 .3-.3 1-.6 1.4l-.6 1.5c0 .3-.3.7-.4.8l-.3.5-1.2 2.9a36.5 36.5 0 0 1-3 6 112.7 112.7 0 0 0-3.2 5.8 8.7 8.7 0 0 1-1.3 2.4c-.2 0-.5.5-.7 1a24.7 24.7 0 0 1-2.5 4 127.7 127.7 0 0 1-13.9 18.2 209.5 209.5 0 0 1-4.2 4.7 163.1 163.1 0 0 1-11.1 10.4l-1.4 1.2a38.9 38.9 0 0 1-4.8 4 122 122 0 0 1-15.6 10.6 21.8 21.8 0 0 1-2.6 1.5 443.3 443.3 0 0 0-4 2.3 641 641 0 0 0-10.3 5c-.2 0-.5 0-.8.2-.6.5-4.2 2-4.6 2l-.9.3-.8.4-1.2.4-1.7.6-1.2.5c-.2.2-.7.3-1.1.4l-1.2.4-1.4.5-1.6.5c-.3.2-1.5.5-2.6.8a98 98 0 0 0-7.8 2c-.5 0-1.2.2-1.5.4-.3.2-1.2.4-2 .5-.7 0-1.7.2-2.3.4-.5.2-1.2.4-1.7.4l-2.1.3c-2.5.6-10.1 1.5-15.5 2a319 319 0 0 1-29.7-.8 105 105 0 0 1-18.6-3.3c-.7 0-1.5-.3-1.9-.5a3 3 0 0 0-1.1-.3l-2-.5a38.7 38.7 0 0 0-4.6-1.3l-1.6-.5-1.6-.5-1.2-.4c-.5-.1-1.1-.3-1.3-.5l-1.3-.5c-.5-.1-1.1-.3-1.3-.5l-1.3-.5-1.2-.4-2.2-.9a58.5 58.5 0 0 1-9.3-4.3 42.5 42.5 0 0 0-4-1.8l-1.1-.7a58.4 58.4 0 0 1-8-4.5l-1.2-.8a93.3 93.3 0 0 1-3.8-2.5 147.3 147.3 0 0 1-15.3-11.6 182.2 182.2 0 0 1-28.3-32A86 86 0 0 0 70 240l-1-1.6-.5-1L67 235l-1-1.8a77 77 0 0 1-4.5-9l-.4-.8c0-.3-.5-1.4-1-2.4s-1-2.2-1-2.7l-.7-1.4-.4-1-.5-1.3c-.3-.5-.5-1.1-.5-1.3a6 6 0 0 0-.5-1.4l-.5-1.4-.4-1.2-.8-2.3a203.7 203.7 0 0 0-2.4-8.4L52 197a8 8 0 0 0-.5-2L51 193c0-.9-.3-1.7-.4-1.8l-.4-1.9a162.4 162.4 0 0 1 6.8-84l.6-1.7.4-1 .5-1.4.5-1.2.4-1 .6-1.6.6-1.2.4-.6.4-1a88.6 88.6 0 0 0 1.2-2.6l1.6-3.2a74 74 0 0 1 5.6-10.2l1.2-2.1c.2-.5.5-.9.6-.9l.4-.5.6-1a122.6 122.6 0 0 0 4.8-7l1.2-1.6.8-1 1.8-2.5 1.6-1.8a183.2 183.2 0 0 1 24-23.8l1.4-.8.8-.8 1.2-1a59 59 0 0 0 4.3-3l2-1.4a74.5 74.5 0 0 1 7.6-4.8 54.4 54.4 0 0 1 6.7-3.7l1.7-1c.9-.4 1.7-.8 1.8-1a21.4 21.4 0 0 0 5-2.3l1.5-.7 1.4-.5.9-.4.7-.4 1.3-.5 2-.8a45.5 45.5 0 0 0 5.9-2l1.1-.5 1.3-.4 1.2-.4 1.7-.5 1.6-.6 1.1-.3 1.7-.4a76.4 76.4 0 0 1 9.8-2.3c.3-.2 1.4-.4 2.4-.5 1 0 2.2-.3 2.7-.5s1.5-.4 2.3-.4c.8 0 2.3-.3 3.5-.5 2-.3 10.6-1.1 14.3-1.3 4.3-.1 15.3.1 19.1.5m-12.6 6.5a329 329 0 0 1-.7 9.1c-.3 5.1-.4 8.6-.1 9 .2.4 1.1.6 3.7.6l6 .2c4.6.2 4.7.1 4.7-1.7 0-1.6-.2-1.6-7.6-1.7-2.8 0-2.9 0-2.8-2.4.1-2.5-.1-2.4 4.7-2.4 4.9 0 4.9 0 4.9-1.4 0-1.9-.3-2-5.1-2-4.1 0-4.4-.1-4.3-2 .1-2.4.1-2.4 6-2 4 .4 4.2.3 4.2-1.6 0-1.5-.3-1.6-9.7-2-3.2 0-3.6 0-3.9.3m-15.3.7a37.7 37.7 0 0 0-5.5.7c-.6 0-1 .3-1.2.5-.2.4 0 4.5.5 7.5l.4 5.3c.2 5.4.1 5.3 4.8 5a33.7 33.7 0 0 0 5.5-.8c3.3-.6 5-3.5 5-8.2 0-7.4-2.9-10.4-9.5-10m45 2.6c-.4.4-.5.8-1 3.3a74.5 74.5 0 0 1-2 8.2c0 .5-.3 1.3-.5 1.8l-.4 1.4-.3 1.5c-.4 1.1.3 2 1.8 2.1.6 0 1.4.3 1.9.4.5.2 1.5.5 2.3.6l2 .5 1.9.5 1.6.4c.7.3 1.6-.9 1.6-2 0-1-.2-1.2-1.4-1.4-.5 0-1-.2-1.3-.4l-1.4-.4c-1.2-.1-4.1-1-4.4-1.4-.3-.2 0-2 .4-2.8.2-.2.3-.9.4-1.5 0-.6.3-1.3.4-1.7.2-.3.4-1 .5-1.8l.6-2.1.4-1.5.3-1.7c.4-1.2.3-1.3-1.2-1.8-1.6-.6-1.8-.6-2.1-.2m-41.8 1.3c1.2.8 1.6 1.6 2 3.4 1 5.3.2 7-3.1 8-3.9 1-3.9 1-4.3-5.7l-.4-4.2c-.3-1.8.3-2.2 3.3-2.1 1.6 0 1.9 0 2.5.6m-31.6 2.3a34.8 34.8 0 0 0-6.6 1.8 2 2 0 0 0-1 .4l-1.2.6c-1 .2-1 .8-.3 2.4l.5 1.5.4 1c.2.5.5 1.2.5 1.6l.6 1.7c.3.5.5 1.1.5 1.4l.4 1 .5 1.5c0 .5.3 1.1.5 1.5l.4 1c0 2.2 1.8 3.8 3 2.8.3-.2.8-.4 1.1-.4.4 0 .9-.2 1.1-.4l1.3-.5c.4 0 1.3-.3 1.8-.6l1.2-.5c.4 0 2.3-1.5 2.6-2l.7-.9c1-1.3 1.1-6.2 0-8.3 0-.3-.5-1.1-.8-1.9-1.6-3.3-4.3-5-7.2-4.7m94.6 5.7A185.6 185.6 0 0 0 244 33.9c-.2.3 1.9 1.4 2.8 1.5l1 .2 1.3-1.5c1.4-1.4 2-1.7 2.5-1.2l1.3.6 2.3.8c2 .8 2.7 2 2 4.1-.2.7.7 1.8 1.6 2 .4 0 1 .3 1.2.5 1 1 1 .6 1-9.8l.1-9.5-.6-.6c-.3-.3-1-.7-1.9-.9l-1.3-.4-2.2 2.5m-93.5-1.9c.4 0 1.9 1.4 2.3 2.2 2.4 4.6 2.3 7.6-.5 9-3.1 1.4-4.5 1.3-4.5-.3l-.4-1.2a5 5 0 0 1-.5-1.3c0-.4-.3-1-.4-1.3l-.8-2.2-.8-2.5c-.2-.6-.3-.9 0-1.1.5-.8 3.4-1.6 4.8-1.4l.8.1m-24.3 5.4a7 7 0 0 1-1 .6c-1.2.5-1.4 1.3-1.1 3.1.4 2.2.7 5 .8 7.2 0 1 .3 2.8.5 4l.4 3.5.2 2.2.2.6 1-.4c.5-.2 1.3-.6 1.8-1l.8-.7-.1-1.6-.2-2c-.1-.4 0-.6 1.5-1.5a46 46 0 0 1 3.8-2c.7-.5 1.3-.3 2.3.7l1.5 1.2.7.4 1.3-.6c1.6-.8 2.2-1.4 1.8-1.8a400.4 400.4 0 0 0-12-10c-2.2-2.2-3.3-2.6-4.2-2m120.3.3c.3.9-.1 5.2-.6 5.2-.9.1-1.6 0-2-.4a2 2 0 0 0-.7-.4c-.1 0-.4 0-.7-.2l-.5-.2.5-.7 1.5-1.7 1-1.2c0-.2 1-.8 1.2-.8l.3.4M142.2 33c1.1 1 1.7 1.8 1.6 1.9-.2.2-.8.6-1.8 1l-1.1.8c-.6.5-.8.1-1-1.5 0-.6-.3-1.6-.4-2.2-.6-1.8-.4-3 .4-2.1l2.3 2.1m137.2-1.9l-.4.6c0 .1-.2.5-.5.7l-.5.7-.5.9a12.9 12.9 0 0 0-1.2 1.7A76 76 0 0 0 273 41c-.3.7-2 3.2-2.5 3.9-.9 1-.6 1.6 1.3 2.8 1 .6 1.5.5 2.3-1 2.7-4.5 3-4.8 4.6-3.8a81.3 81.3 0 0 0 3.3 2c1.2 1 1.6 1 2.4.1 1.3-1.2 1-1.9-1-3l-1.4-1-1-.7a9 9 0 0 1-1.2-.8l-.6-.6.4-.5.7-1c.6-1.3 1.2-1.9 1.5-1.5l1 .6a36.6 36.6 0 0 1 3.1 2l.9.5c1.1 1.4 2.4 1.3 3.3-.3l.5-1-.6-.4-1.3-1L287 35a40.1 40.1 0 0 0-4.7-3c-.7-.9-2-1.2-2.8-.8m-158.7 5.2a33.8 33.8 0 0 0-6.7 4.3c-1.5 1-2.1 2-1.5 2.6a33.6 33.6 0 0 1 3.8 5l.7 1a66.8 66.8 0 0 1 4.5 6.2c1.2 1.9 1.7 2 3 1a30.3 30.3 0 0 1 3.5-2.6l.9-.7c3.1-2.3 4-4.7 3.2-8.6-1-5.2-7.4-9.8-11.4-8.2m94.5 1c-.3.3-.3 28.1 0 28.8.3.5 2.2.3 3.7-.4l1.3-.5c.3 0 3-1.3 4.9-2.4a40.7 40.7 0 0 0 13-14.6 44 44 0 0 0 2.9-5c.6-1-1-2.2-3-2.2a2 2 0 0 1-1-.3c-.2-.2-1-.4-1.8-.5-.7-.1-1.6-.4-2-.6-.4-.2-1.1-.4-1.5-.4L230 39l-2.4-.5c-.7 0-1.5-.2-1.9-.3-2.3-.6-10-1.2-10.4-.7m-22.9.1a102 102 0 0 0-19.1 3.7c-3.7.7-4 1.2-2.8 3.5a749.6 749.6 0 0 1 3.3 6 37.7 37.7 0 0 0 3 4.2 45.4 45.4 0 0 0 9.1 8.4 27 27 0 0 0 5.1 2.6l1 .4c.4 0 1 .2 1.6.5 1.6.7 1.9.4 2.1-2.4.2-2.2 0-25.4-.1-26.2-.1-.4-.9-1-1.3-.9l-1.9.2m-68.7 2.6c2.5 1.3 5.2 5 5.2 7.3v1.3l-1.1 1.1a10 10 0 0 1-1.8 1.5c-.3.1-.8.4-1 .7l-.5.3-1.1-1.3a19.4 19.4 0 0 1-2.1-2.7l-1.1-1.5a9.5 9.5 0 0 1-1.1-1.5l-.9-1.3c-1.1-1.4-1.2-1.3.5-2.4 1.8-1.3 1.7-1.2 2.8-1.7 1.1-.5 1-.5 2.2.2M296 42.2a176.4 176.4 0 0 1-6.5 7 86 86 0 0 0-4.5 5.2c-1.2 1.4-1.2 1.4 0 2.5 1.7 1.7 1.2 2 4.8-2 2-2 2.2-2.1 3.3-1l.8 1v1.8a13 13 0 0 1-.4 3.3l-.5 2.7-.1 1.3 1.4 1.3c1.3 1.4 1.4 1.4 1.7 1 .8-.6 1.6-5.3 1.4-8.2 0-.8.5-1 1.5-.5 2.2 1 5.7-.8 6.4-3.4.8-3 0-4.2-5.8-9.5l-2.2-2c-.5-.6-.8-.7-1.3-.5m-189 4.7c-1.8 1-2.6 2.5-1.5 3.3l1.1 1.1 6 6.8c1.7 1.7 3.1 3.4 3.4 3.8.5.8 1.4.9 2.2 0l.9-.8c.9-.6.7-1.2-.7-2.7a116.3 116.3 0 0 1-6.1-6.7 69 69 0 0 1-2.2-2.4c-2.6-3-2.4-2.8-3.1-2.4m191.1 1l1.7 1.5c2 1.7 2.2 2.9 1 4.2-1.2 1.3-2.1 1-5.5-2.2-1.3-1.1-1.2-1.2.2-2.8 1.3-1.5 1.8-1.6 2.6-.7m-36.8 2.3l-.3.8c0 .3-.3.6-.4.7l-.3.5a48.3 48.3 0 0 1-6.5 11.9c-.5.4-1.5 1.8-2 2.4a53.4 53.4 0 0 0-2.8 3.2 49.4 49.4 0 0 1-6.9 6.8 76.5 76.5 0 0 1-13.9 8.3l-1.3.5c-.2 0-.8.2-1.3.5l-1.5.5-1.3.4-1.7.5c-.5 0-1.4.3-2 .5a8 8 0 0 1-2.2.4 3 3 0 0 0-1.4.3l-.4.3v16.6c0 18 0 16.8 1.1 17.1l.9.4c.2.2.6.3.9.4l1.3.6 2.5 1.4 2 1.2 1.6 1c.1 0 .4.1.7.4l1.2 1c2.7 2 5.6 4.6 7.9 7.2a33.3 33.3 0 0 1 7.3 11.4c.4 1 .8 1.7.9 1.7 1.3.1 31.6 0 31.8-.1.4-.2.9-1.4 1-2.7 0-.6.3-1.5.5-2l.4-1.2a491.4 491.4 0 0 0 1.6-4.6 55 55 0 0 1 7.6-13.8l1.9-2.5a125.3 125.3 0 0 1 10.5-10.3 60.6 60.6 0 0 1 6.5-4.5 43 43 0 0 1 5.4-2.6c4-1.5 4-1.4 3-3l-1-1.8c-.3-.8-1.1-2.4-1.8-3.5l-1.5-2.7a61.6 61.6 0 0 0-2.7-4.3 64.4 64.4 0 0 0-4.4-6.2A103.5 103.5 0 0 0 279 60.6l-1.9-1.3a59.3 59.3 0 0 0-6-4.1 48.5 48.5 0 0 1-4.7-2.8l-1-.6c-1-.9-3.9-2-4.2-1.6m-113.4.1l-.8.5a97 97 0 0 0-24.8 17.7 117.9 117.9 0 0 0-20.3 24.7 75 75 0 0 0-4.4 8.1c-.9 1-.6 2.8.4 2.8a25.3 25.3 0 0 1 8.4 3.8l1.1.6c.7.3 3.4 2.1 4.6 3.2l2.4 2a52.3 52.3 0 0 1 11.9 13.5 47.1 47.1 0 0 1 6.3 12.4l.4 1.2.4 1 .5 1.7c0 .5.3 1.3.5 1.9l.4 1.6c0 .9.4 1.8 1 2 .7.3 31.9.2 32-.1.5-.9 1.2-2.6 1.2-2.8a32.5 32.5 0 0 1 5.9-9 64.5 64.5 0 0 1 14.4-11.8 96.3 96.3 0 0 0 4.1-2l1.4-.7 1.1-.6v-16.1c.1-19.6.4-17.6-2.5-17.9a8 8 0 0 1-1.8-.4l-1.8-.4c-.6 0-1.4-.3-1.7-.5l-1.4-.5c-.5 0-1.2-.3-1.5-.5l-1.2-.4a2 2 0 0 1-1-.4l-1.1-.5a22.7 22.7 0 0 1-4.7-2.2 17.4 17.4 0 0 1-2.6-1.6 76.4 76.4 0 0 1-5.9-4.1 62 62 0 0 1-19-25.8c-.1-.6-.9-.8-1.9-.4M98 55.7l-1.1.7a10.3 10.3 0 0 0-3.6 4c-.3.5-.4.9-.4 2.5 0 2 .1 2.3 1.5 3.8 1 1 4 1.9 4.5 1.2l1-.5c1-.3 2-.8 3.9-2.1 2.2-1.5 3.7-1.5 4.2 0 .8 2.6-3.2 6.1-5 4.5-.7-.6-1.5-.4-2.4.8-1.4 1.6-1.2 2.1.8 2.9 5.7 2.2 12.7-5 10-10.3-2-3.9-5.3-4.2-10.4-.9-.8.6-2.1 1.2-3.1 1.6-1.2.5-2.1-1.4-1.3-2.5 1.6-2.1 2.5-2.6 4-2.2 1.1.4 1.2.3 2.1-.7l.9-1c1.4-1.5-3.8-3.2-5.6-1.8M309.3 60a7.8 7.8 0 0 0-2.8 1.2s-.4.2-.6.5l-1.2 1c-3 2-4.7 7.4-3.1 10l.4.9c0 .8 3.2 4 4.7 4.7 2 1 6.6.8 8-.5l.7-.5c.7-.4 3.3-2.8 3.8-3.6 4.4-6.5-2.2-15.6-10-13.7m5 4.1c3.3 2.2 3.6 5 .8 8.3-3.5 4-8.9 3.4-10-1.1-1-4.2 5.6-9.5 9.2-7.2M86 70.8a8.6 8.6 0 0 0-3.5 3.3 141.1 141.1 0 0 1-4.4 6.3c-.5.7.2 1.4 2.8 3l1.1.8 1.9 1.3a43.8 43.8 0 0 1 4.9 3.5l1.9 1.3c1.8 1.3 2.5 1.4 3 .7 1.7-2.6 1.7-2.4-1-4.2a21 21 0 0 1-2.5-1.8c-1.1-.5-.7-2.7.5-2.7l.6-.3c.3-.3.8-.4 4.4-.3h4l.7-.7c2.3-2.3 2.4-3.1.4-3l-3-.2h-3.2c-1.6.4-1.6.4-1.6-1.9v-2l-1-1.2a6 6 0 0 0-1.6-1.4l-1.2-.6c-1-.5-1.9-.5-3.2.1m3 4.5c1 1.3.9 2.2-1.1 4.8-.5.6-1 1.4-1 1.7-.3.6-.9.5-2.2-.6l-1.3-.9c-.6-.3-.5-1 .1-1.8l1.1-1.5c1.7-2.6 3-3.1 4.4-1.7m237.6 1l-1.1.6a118.5 118.5 0 0 1-6.4 4l-1.3.9a6 6 0 0 1-1 .6l-1.6 1-1.6.9c-1.6 1-1.9 1.3-1.6 2 .1.5.3.8.4.8l.6.7c.4.8 1 .8 1.9.1l1-.7a30.5 30.5 0 0 0 3.1-1.9l2.1-1.3c1.5-.9 2.4-.9 1.7 0l-.7 1.4-.7 1.2-.3.8c0 .3-.4 1-.6 1.3l-.5.9-1.4 3.1c-1.1 1.7-1.2 2.5-.2 4l.7 1.1c.3.5 1.2.1 4.1-1.8a43.2 43.2 0 0 1 4.3-2.7l1.6-1 1.7-1 2.5-1.6c1.9-1 2.2-1.6 1.4-2.6L334 86c-.4-.7-1-.6-2 .2a621 621 0 0 0-7 4.3c-.6.4-1.6.7-1.6.4 0 0 0-.2.2-.3l.5-.7.5-1 .8-1.6a106.7 106.7 0 0 1 3.4-7c.5-.8.5-1.7.1-2.3-1.1-2-1.3-2-2.3-1.7M73.8 87.7c-.4 0-.6.4-.9 1.1-.2.6-.4 1.2-.6 1.3l-.4.8c0 .3-.3.7-.5 1l-.5 1c0 .3-.5 1.1-1 1.9l-.8 1.8-.6 1.3c-.6 1-.6 2.2-.1 2.4a24 24 0 0 0 1.6.8 33.6 33.6 0 0 0 3.6 1.8l1.5.7 6.5 3.1c2 1.3 2.9 1.3 3.6-.2 4-7.7 5.2-10.6 5-11.3-.6-1.1-2.8-1.4-3.1-.3a88.5 88.5 0 0 1-3.4 7.3c-.1.5-1 .9-1.4.5l-1.7-1c-1.9-.9-1.9-.7.4-5.3 1.8-3.7 1.9-4 1-4.2-.3 0-.7-.3-1-.5-.9-.9-2.2.7-3.1 3.7 0 .2-.3.6-.5.8-.2.2-.5.7-.6 1.1a5 5 0 0 1-.8 1.4l-.5.7-1.5-.8-1.5-.7.4-1.2.6-1.4.5-1 .6-1.3.5-1c0-.4.4-.9.6-1.3.8-1.2.7-2-.4-2.7l-1-.5-.5.2m263 6.7c-1.4.5-1.5 1.3-.2 3.7.8 1.6.4 2.6-1.4 3.1l-1.4.6-1.2.5-.8.4-1.1.5c-.3 0-.7.3-.9.4l-1.4.7c-2.4.9-3.5 1.4-4.1 1.9l-.7.5.3 1c.2.5.6 1.2 1 1.5l.5.7 1-.4 1.6-.8 1-.4c.3 0 .7-.2.9-.4a3 3 0 0 1 1.2-.6c.5 0 1-.3 1.1-.5l.6-.3a6 6 0 0 0 1.4-.5c4-1.9 4.2-2 4.8-1.7l.7.7 1.5 3.2c.2.2.5.2 1.2 0 1.5-.2 2-1.2 1.2-2.6a31.8 31.8 0 0 1-2-4.6 273.2 273.2 0 0 1-2.6-5.9c-.3-1-.9-1.2-2.2-.7M65.2 104.8l-.2.9c0 .2-.1.5-.3.7-.8 1-.5 1.5 3.3 4.4a427.1 427.1 0 0 1 6.1 4.8c1 .7.2.8-6.4.8h-6.4l-.6 1.3c-1.5 2.8-1.8 2.7 8.8 2.8 10 0 10 0 10.4-.8l.7-1.7c.6-1.5 1-1.1-4.6-5.6l-1.9-1.6a302.4 302.4 0 0 0-7.2-6c-.4-.6-1.5-.6-1.7 0m280 8c-.3.2-.8.3-1.3.4l-1.3.4c-.5.3-2 .7-5.2 1.5l-2.2.7-2 .6c-.5 0-1 .2-1.2.4-.2.2-2.2.7-2.7.7-.7 0-.6 3 0 4 .2 0 .4.8.6 1.6l.7 2.4.5 1.8c0 .5.3 1.2.5 1.7l.4 1.3c0 1 .3 1.1 2 1 .9 0 1.8-1.3 1.4-2-.2-.2-.4-.9-.5-1.3 0-.5-.3-1.2-.5-1.5l-.4-1.3-.4-1.4c-.3-.5-.5-1.2-.5-2v-1.2l1-.2 1.7-.6c1-.5 1.9.2 2.2 2 .1.5.3 1.2.5 1.4l.4 1.4c0 .6.3 1.3.5 1.8l.4 1.1c0 .8.7.9 1.9.3 1.5-.7 1.6-.8 1-1.9l-.5-1.6c0-.4-.4-1.7-.8-2.9-.8-2.6-.8-2.7.9-3.5 1.9-.9 2.3-.7 2.6 1.4 0 .5.2 1 .3 1.3.2.2.5 1.3.8 2.4.9 3.2 1 3.5 2 3.5 2 0 2.5-1.2 1.5-3.6l-.5-1.7a2 2 0 0 0-.3-1l-.5-1.5a8 8 0 0 0-.5-1.6l-.6-1.9c-.5-2.1-1.2-3-2-2.4M88 123.3c-.5.4-.8 1.1-1 2.6 0 .5-.3 1-.4 1.3a6 6 0 0 0-.5 1.7c0 .6-.3 1.4-.4 1.6a80.3 80.3 0 0 1-2.4 12.9c-.4 1.6-.5 5-.2 5.4.3.4 28.8.6 29.4.2.3-.2.3-1 0-1.5l-.4-1a32.3 32.3 0 0 0-5.5-9.9 39.5 39.5 0 0 0-10.8-9.7c-2-1.3-2.8-1.7-4.6-2.7-2.6-1.3-2.6-1.3-3.2-.9m233.7-.1l-1.8.9a198.6 198.6 0 0 1-3.2 1.8 188.1 188.1 0 0 1-4.7 3.2 50.4 50.4 0 0 0-10.1 11 36.6 36.6 0 0 0-3.3 7.1c-.3.5-.5 1.7-.3 1.8.3.2 29.3.2 29.6 0 .3-.2.2-2.7-.2-4.7l-.5-3.5c0-1-.2-2.2-.4-3l-.8-3.8a35.9 35.9 0 0 0-1.9-7.7c0-1-1.1-3.4-1.6-3.4l-.8.3m-262.7 2c-.5.5-1.2 2.3-1 2.8.2.4 1.9 1 3.3 1.3a113.1 113.1 0 0 1 10.7 2.6c3 1 4 1 4.2 0 0-.4.3-1 .5-1.4.3-.5.3-.8.2-1-.2-.4-3-1.4-4-1.4-.2 0-.7-.1-1-.3l-1.9-.5-2-.5c-.2-.2-1.1-.4-1.9-.5-.8-.1-1.7-.3-2-.5l-1.6-.4c-.6 0-1.5-.3-2-.5l-1-.3-.5.5m290.2 7.6l-2.7.5-2.9.5-2 .4-2.2.3-3.2.6c-2 .3-2.5.5-2.4 1.3l.2 1.5c.2 1.7.8 1.9 3.1 1.1 1.7-.5 4.3-.7 4.7-.4.2.2.3.6.3 1.4 0 1.4-.4 1.9-4 5.3l-2.5 2.4.2.8c.6 4.1.6 4.1 5.3-.3l1-1.2c0-.4 1.5-1.8 1.7-1.6.2.2.3.3.3.5 0 1.2 2.3 2.5 4.4 2.5 3.7 0 5.8-2.6 5.1-6.3l-.4-3c0-.7-.3-1.8-.4-2.3l-.5-2.5c-.2-2-.8-2.3-3.1-1.5m-292.9 1.9l-.2 1.6c0 1.8 0 1.9 2.5 2.1 1.1.1 2.4.3 2.9.5s1.7.4 2.7.5c2.2.1 2.9.3 2.5.7-.5.4-2.3 1.3-2.7 1.3l-1 .4a34.8 34.8 0 0 1-4.6 2l-1.7.7c-2 .7-2.3 1-2.5 2.8-.2 1.9 0 2.1 1.5 2.1l2.4.4 2.3.4 5 .7c7.5 1.2 7.3 1.2 7.6-1.1.2-1.3.2-1.3-1.6-1.6a23 23 0 0 1-2.5-.5 9 9 0 0 0-2-.3c-3.2 0-5.9-1.3-3.6-1.8.9-.2 2.1-.7 4.3-1.7l1.2-.5 1-.4 3.6-1.5c.6-.1 1-.9 1.2-2.5.1-1.3-.4-2-1.4-2-.3 0-.7 0-.9-.2l-2.3-.4a71.8 71.8 0 0 0-11.9-1.8c-1-.3-1.5-.2-1.8 0m293.1 2.7c.2.3.4 1.1.5 1.9l.3 2.3c.2 1.3-.3 2.4-1 2.7-1.7.7-3.1-.3-3.4-2.2 0-.6-.2-1.4-.4-1.9-.7-2-.4-2.6 1.3-2.8.6 0 1.2-.2 1.4-.3.5-.3 1-.2 1.3.3m-12.5 16.4c-.4.2-.4.3-.3 1.2.3 2.3.3 2.3 1 2.6a38.9 38.9 0 0 1 2.3 1c1.4 0 2 7.4.7 7.8-3 1-3.5 1.6-3.5 3.6s.4 2.2 2.9 1l3.5-1.5c.2 0 .5-.1.6-.3l1-.5 1.4-.6a86.1 86.1 0 0 1 8.4-3.7c1.8-.4 1.3-4.4-.6-5l-1.6-.6-1-.3a5 5 0 0 1-1.3-.5c-.5-.3-1.2-.5-1.3-.5a62.1 62.1 0 0 0-8-2.7l-1.2-.4c-.4 0-1-.3-1.4-.5-.9-.4-1-.4-1.6-.1m-283 2.5c-.7.3-.9.7-.8 2.1.2 2 .2 2 4.3 2 5.8 0 9 .2 9.7.6 2.2 1.3 2.3 4.2.2 5.9l-.9.7-6.5-.1c-7.4-.2-7-.3-7 1.5-.1 2.2-.1 2.2 4.3 2.3 8.2.2 10 .2 11.3-.4 1-.4 2.6-1.8 2.6-2.3l.5-1.2c.8-1.7.7-5.5-.2-7.3-.7-1.6-1.2-2-2.6-2.8l-1.2-.6-6-.2a201.7 201.7 0 0 1-7.6-.2m293.8 4.7c1.2.4 2.3.8 2.4 1 .2.1-2.2 1.4-3 1.6-.4 0-.8.3-1 .4-.2.3-.9.4-1.2.2-.2-.2-.7-2.5-.7-3.3 0-.2.7-.5 1.1-.6l2.4.7m-263.6 9.3c-1 .2-1 .5-.8 1.9l.5 3.4a62.9 62.9 0 0 0 1.7 10.5l.5 2c0 .7.3 1.6.5 2 .1.3.4 1 .5 1.7 0 .7.3 1.5.5 2l.5 1.5c.3 1 1 1.3 1.8.8.1-.2 1-.6 1.8-1a15 15 0 0 0 2.3-1.4 51.2 51.2 0 0 0 14.3-12.6l1-1.6c.8-1.2 1.2-1.9 1.7-3l.7-1.4.4-1 .5-1.3c.7-1.4.8-2 .4-2.2-.2-.3-27.7-.5-28.8-.3m51.9.2c-.2.1-.5.9-.8 2.2a36.6 36.6 0 0 1-2.2 7.2l-.5 1.3a63.1 63.1 0 0 1-29.6 32.3c-.3 0-.8.2-1.1.4l-1.4.7a1057.9 1057.9 0 0 1-3.1 1.2 62.3 62.3 0 0 0 8.1 15 161.8 161.8 0 0 0 8 10.4 133.5 133.5 0 0 0 21.6 19.3 178 178 0 0 0 14.2 8.7c.4.1 1.6-1.2 1.6-1.7a31.1 31.1 0 0 1 2.3-4.9 30.6 30.6 0 0 1 1.9-3.3l3.7-5.6a82 82 0 0 1 15-14.3l1.5-.9 1.7-1a4 4 0 0 0 1-.7l.6-.3 2-.9a41.8 41.8 0 0 1 12-4c1.9-.3 3-.6 3.5-1l.4-.5v-32.3l-.7-.7c-.4-.3-.8-.6-1-.6-.2 0-.8-.2-1.4-.6l-1.4-.6-1.4-.8-1.6-.9a73.4 73.4 0 0 1-7.6-5.4 50.4 50.4 0 0 1-7.7-8 32.6 32.6 0 0 1-5.1-9.5c-.5-.4-32-.6-32.5-.2m108-.2c-.7 0-1.2.6-1.2 1.3l-.4 1.3a60 60 0 0 0-1 2.1 22.1 22.1 0 0 1-2.4 4 53.2 53.2 0 0 1-22.3 17.4c-.3.1-.7.4-1 .8l-.5.5v16.2c0 15.3 0 16.2.4 16.5.6.5 1.7.9 3.4 1.1.9.1 1.9.3 2.3.5l1.5.4 3 1a280.5 280.5 0 0 0 5.4 2.1c.2 0 .6.2.9.5.3.3.7.5.9.5l.8.4 1.2.7c1.6.8 6.7 4.4 8.5 6a124.7 124.7 0 0 1 9.5 10 78.2 78.2 0 0 1 8.7 15l.7.8 1.2-.6 1.2-.7.8-.6 1.6-.8a291.3 291.3 0 0 1 3.3-2 368 368 0 0 0 8.8-6l5.1-4a104 104 0 0 0 18-18.5 85.1 85.1 0 0 1 2.7-3.6l1-1.5 1-1.5.9-1.4c.9-1.1 3-5 5.6-10l1.2-2.3-.7-.3-1-.3-.7-.3c-.2-.2-.8-.4-1.2-.5a4 4 0 0 1-1.4-.6l-.8-.4c-.2 0-.7-.2-1-.5l-1.2-.6c-.3 0-.8-.4-1.2-.6a3 3 0 0 0-1-.5l-.4-.3-.7-.5-1.1-.7a230.6 230.6 0 0 0-3.8-2.8 82.5 82.5 0 0 1-13.6-15 11 11 0 0 1-1-1.6l-.6-1-.5-.7-.8-1.5a33.4 33.4 0 0 0-2.1-4.3l-.5-1.3-.5-1.2-.4-1-.6-1.8a11 11 0 0 0-.6-1.8l-.4-1.5-.4-1.6c-.2-.4-.4-1-.4-1.4 0-.3-.1-.6-.3-.8-.2-.2-30.5-.4-31.9-.2m55 .3c-.5.4-.4.6.4 2.5l.6 1.5a25.4 25.4 0 0 0 2.4 4.6 58.8 58.8 0 0 0 12.2 12.4 31.3 31.3 0 0 0 5.6 3.4l1 .5.8.4c1 .7 2 .2 2-1.1l.4-1.4c.2-.4.5-1.3.6-2 0-.6.3-1.5.5-2l.6-2.8.6-2.8c.2-.4.3-1.4.4-2 0-.8.3-2.1.5-3l.6-4c0-1.3.3-2.7.4-3.1.3-1.5 1.3-1.4-14.9-1.4-13 0-14.5 0-14.8.3m80.8 72c-2 .3-4.5 1.1-5.9 1.9-1.2.6-1.7 1-2.2 1.1-.2 0-.7.4-1.2.8l-1.6 1.1a34.4 34.4 0 0 1-5.3 4l-2.2 1.6a36.8 36.8 0 0 0-6.8 7.3 43.6 43.6 0 0 0-5.2 8.1l-1 1.9-1 2c-.5.8-.2 1.3.5 1.3.5 0 .8.2 1.4.8 7 7.4 6.9 7.3 6.7 7.8a97.5 97.5 0 0 1-14 12.9 178 178 0 0 0-7.7 5.7c-.4.4-.6.6-3.1 2.2l-2.5 1.7a587.6 587.6 0 0 1-12.1 7.6 45.5 45.5 0 0 1-4.8 2.7 160.6 160.6 0 0 1-13.5 7l-1.4.7a29.5 29.5 0 0 1-5.2 2.2l-2.3 1.1a8 8 0 0 1-1.4.5c-.3 0-.7.3-.9.4l-1.1.5c-.5.1-1 .3-1 .5-.2.2-.6.4-1 .4l-1.1.4-1.9.7-1.8.7c-.2.2-.6.3-.8.3l-1.2.4-1.7.7c-.5 0-1.2.3-1.5.5-.3.3-.8.4-1.1.4-.3 0-.7.1-1 .3-.2.2-.8.4-1.3.5l-1.6.6-1.6.5a24 24 0 0 0-3.4 1 41.7 41.7 0 0 0-3.2 1 30.1 30.1 0 0 1-3.9 1l-1.8.6c-.3.2-1 .4-1.6.4l-1.6.4c-.3.2-1.3.4-2.2.6a84.3 84.3 0 0 0-6 1.2 53.7 53.7 0 0 0-5.3 1c-.7 0-1.7.3-2.2.4-.4.2-1.8.4-3 .5-1.3.1-2.8.3-3.4.5-.5.2-2.4.4-4.2.5l-4 .4a205 205 0 0 1-51.6-2.8 104 104 0 0 0-8.5-1.5l-1.8-.3-1.5-.4-2.3-.5a7 7 0 0 1-1.8-.4c-.3-.2-1.2-.4-1.9-.5-.7 0-1.5-.3-1.8-.5l-1.7-.4c-.6 0-1.5-.3-2-.5l-1.2-.4-1.9-.4a819.3 819.3 0 0 0-10.5-3.3l-1-.4a10 10 0 0 1-1.6-.5l-1.8-.6a45.4 45.4 0 0 1-6.7-2.6 2 2 0 0 0-1-.4c-.3 0-.8-.2-1-.4a5 5 0 0 0-1.4-.6c-.4 0-1-.3-1.2-.5l-1.2-.5-1.7-.7-1.1-.5-1-.4a87.8 87.8 0 0 0-5.1-2.5 158.6 158.6 0 0 0-7.7-3.9l-1.7-1-2.7-1.5a30.5 30.5 0 0 1-4.4-2.6l-1.7-1-1.2-.9a36 36 0 0 1-4.8-3.1 171 171 0 0 1-23-18.9c-5.7-5.5-6.4-6.4-5.5-7a106.4 106.4 0 0 1 4.1-4.6c2.2-2.3 2.3-3.5.9-6.6a16.6 16.6 0 0 0-2.5-4.4l-.9-1.4-1.2-1.7a101.7 101.7 0 0 0-14.3-15.3l-.4-.3-1-.7A118.8 118.8 0 0 1 35 244c-2.3-1.1-7-1.9-10.1-1.7-2.6.2-3 .4-4.7 2.2l-4.6 4.7C10 255 6.2 259 5.8 259.5c-2 2.8-4.8-4.3-3.2-8a11 11 0 0 1 2-3.2c.2 0 .5-.5.7-.8.8-1.6-1-3-2.2-1.8-.2.2-.5.5-.8.5l-1.1.7c-.4.4-.8.6-1 .6-.1 0-.2 1.3-.2 6 0 4.8 0 5.8.3 5.8.1 0 .4.3.5.6.8 2 4.8 4.9 7.6 5.5l1.9.6c1.3.5 7.9.4 8.8 0 1.4-.8 2.2-.5 1.4.3A7813 7813 0 0 0 .3 286.7c-.2 0-.3.6-.3 2.6s0 2.6.3 2.6 3-2.8 3.6-3.7l1.5-1.7 1-1.2 1.3 1c3.2 2.9 6.7 6.5 6.7 7 0 .4-.4.9-2 2.2a117.4 117.4 0 0 0-6.3 6c-2.7 2.5-2.9 2.9-1.7 4l1.3 1.7A110.9 110.9 0 0 0 12 315a213.4 213.4 0 0 0 59 48l1 .5 2.1 1.2 1 .5 1 .5a70.4 70.4 0 0 0 7.6 4 89 89 0 0 0 8.5 4.1c.4.3 1 .5 1.1.5l.9.4.8.4 1.1.5 1.4.6a40.6 40.6 0 0 1 5 2.1c.2 0 .8.2 1.3.5s1.1.5 1.3.5l1 .4 1.5.7a45.9 45.9 0 0 1 5.7 2 251.2 251.2 0 0 1 7.9 2.8l1.7.5a51.8 51.8 0 0 0 7.3 2.2c.6.2 1.4.5 1.8.5a8 8 0 0 1 1.6.5c.4.2 1 .4 1.4.4l1.4.3c.4.2 1.5.5 2.3.6l1.7.5 1.6.4c.8.1 1.8.3 2.2.5l2.7.6a62.2 62.2 0 0 1 6.2 1.2l2.4.5 2.6.5c.9 0 2 .3 2.3.4.4.2 1.5.4 2.5.4l3.2.5 2.5.4 3.9.4a221.6 221.6 0 0 0 21.1 1.6 170 170 0 0 0 22.2-.4 292 292 0 0 0 32.7-3.4c1.2 0 2.4-.2 2.7-.4l2.4-.4 3.6-.6a322.3 322.3 0 0 1 10.9-2.2l2.5-.5a5 5 0 0 0 1.6-.4c.2-.1 1-.4 1.9-.5l1.7-.4 1.8-.5a7 7 0 0 0 1.8-.5l.6-.2 1.8-.4a582 582 0 0 1 8.6-2.6l1.3-.4c.3 0 .8-.2 1.1-.4l1.4-.5c.5 0 1-.3 1.3-.4l1.7-.7a43.7 43.7 0 0 0 6.9-2.5l1.1-.5c.5 0 1-.3 1-.5l1-.4c.5 0 1.1-.3 1.5-.5l2.2-1a120 120 0 0 0 12-5.7 107.2 107.2 0 0 0 8.3-4.5 38 38 0 0 0 5.4-3.2l1.2-.6a328 328 0 0 1 7.7-5 135.7 135.7 0 0 0 8.1-5.6 103.7 103.7 0 0 0 6.5-5 272.3 272.3 0 0 0 22.4-19.2 402.7 402.7 0 0 0 17.3-17.4c.4 0 .4-4.2 0-4.2l-.5.4-1.8 2a328.5 328.5 0 0 1-54 46.8 41.4 41.4 0 0 1-4.7 3.2 702 702 0 0 1-9.9 6l-2.9 1.5a110.7 110.7 0 0 0-6.7 3.5l-1 .5-1.2.6-1.7.8c-.5.3-1 .5-1.3.5l-1 .5-1 .5-1 .4a49.4 49.4 0 0 1-8.8 3.7c-.4.1-1 .3-1.2.5-.2.2-.6.4-.9.4l-1 .3c-.6.4-1 .5-7.2 2.6a69.9 69.9 0 0 1-6.5 2.1c-.4 0-1.1.2-1.8.5l-1.6.5-1.2.3-2.3.7a168.1 168.1 0 0 0-11 2.7c-.4.2-1.2.3-1.6.3l-2 .4-2.7.6c-.8.1-1.8.3-2.2.5-.5.2-1.1.3-1.6.3a108.6 108.6 0 0 1-12.6 2 58.5 58.5 0 0 1-7 .8l-3.7.4a40 40 0 0 0-4.5.5c-.8.2-3.2.4-5.2.5a331.5 331.5 0 0 1-51.1-.5l-3.7-.5c-1.5 0-3-.3-3.3-.4l-2.5-.4-3.3-.5a344.6 344.6 0 0 0-12-2.3l-2.4-.5c-.6 0-1.5-.3-2-.5-.3-.2-1-.4-1.5-.4l-1.8-.4-2-.5c-.5 0-1.2-.3-1.6-.4l-2.6-.7-2.3-.6-4.5-1.3-2.1-.7-1.2-.4-1.1-.4a54.2 54.2 0 0 1-8.6-2.9 79 79 0 0 1-7.3-2.8 52.2 52.2 0 0 1-7.4-2.9l-1.3-.6c-.2-.2-.7-.4-.9-.4l-1-.4-1-.5a4 4 0 0 1-1.1-.5l-.8-.4-2.1-.9a1172.7 1172.7 0 0 0-6.6-3.3 55.6 55.6 0 0 1-8.1-4l-.8-.5-1.1-.7a43.6 43.6 0 0 1-3.2-1.8 69 69 0 0 1-6.2-3.6A393.9 393.9 0 0 0 57 351a29.6 29.6 0 0 1-3-2l-1.9-1.4a115.3 115.3 0 0 1-10-7.6c-1.6-1-2-1.3-2.7-2l-2.8-2.3a65.1 65.1 0 0 1-5.5-5A155.2 155.2 0 0 1 8 305.5c-.5-.6-.6-.8-.4-1 .5-.7 2.7-2.8 3.9-3.8 4-3.3 5.5-4.7 6.4-5.7a153.2 153.2 0 0 1 12.7-12 374.4 374.4 0 0 1 10.6-9.8c.5-.5 1.3-.5 1.5 0 0 .2.6 1 1.2 1.7a43.7 43.7 0 0 1 3.3 4.1l1.2 1.4A129.8 129.8 0 0 0 65.1 297l2.4 2.1c1 1 2.3 2 3.1 2.4l1.2 1a79.2 79.2 0 0 0 8 5.9 115 115 0 0 0 8.2 5.4 100.3 100.3 0 0 1 5 3c.3.3.8.5 1 .6l.8.4a43.2 43.2 0 0 1 2.6 1.5 376.8 376.8 0 0 0 17.4 8.6l1.1.4c.2 0 .8.2 1.2.5l1 .5 1.2.4a52.6 52.6 0 0 0 6.8 2.6c.2 0 .8.2 1.3.5a5 5 0 0 0 1.3.5c.2 0 .9.2 1.4.5a5 5 0 0 0 1.4.5l1.2.4 2.2.7 2 .6c.3.2 1 .3 1.3.4.4 0 1.1.3 1.6.5l1.9.6a43.1 43.1 0 0 0 8.3 2.3l2.3.5a50.7 50.7 0 0 1 5.7 1.2l1.8.4 2.2.4c1 .2 2.2.4 2.6.6l2.6.4c1 .1 2.3.3 2.7.5.5.2 1.9.4 3.2.5l3.1.4a112 112 0 0 0 12.7 1.4l6.7.4 8.8.4c2.9.2 4.6.2 7.8 0l7.7-.4a119.2 119.2 0 0 0 16-1.8l2.6-.4c.5 0 1.7-.2 2.6-.5.8-.3 2-.5 2.4-.5a6 6 0 0 0 1.8-.4l2.1-.5a208.7 208.7 0 0 1 11.1-2.7l2.1-.5c.5 0 1-.3 1.3-.4l1.5-.5c.7 0 1.4-.3 1.6-.5l1.3-.4c.4 0 1-.3 1.4-.4l1.5-.6a51.2 51.2 0 0 0 8.9-3c.4 0 1-.3 1.4-.5l1.3-.5c.4 0 1-.3 1.3-.5l1-.4 1-.4a53.4 53.4 0 0 1 5.5-2.3 9 9 0 0 1 1.5-.6c.3 0 .7-.2.9-.4a4 4 0 0 1 1.1-.5c.5 0 1-.3 1.1-.5l.6-.3 1.3-.5a231.8 231.8 0 0 1 6.3-3 316.3 316.3 0 0 1 10.8-5.6 6 6 0 0 0 1-.6l1.6-1a121.8 121.8 0 0 0 12.2-7.3 533.6 533.6 0 0 0 14.6-10.5c.2 0 .7-.6 1.2-1l1.4-1.1a85 85 0 0 0 5.8-5 98.8 98.8 0 0 0 17-19c.3-.7 1-.5 2 .7l2.5 2.6c1.9 2 4.4 4.6 7.4 8l4.7 5a250.5 250.5 0 0 1 10.5 11.3l3.5 3.7c1.3 1.6 1.4 1.5 1.4-1 0-1.5 0-2-.3-2l-.7-.6c-3.2-3.4-5-5.5-5-5.8 0-.3 1.8-2 3.1-3a114.7 114.7 0 0 0 2.3-1.7c.6-.3.6-.3.6-2 0-2-.3-2-3.5.5l-1.3 1c-.3.1-1 .8-1.7 1.4-2 1.7-2.2 1.6-5-1.7a237 237 0 0 0-11.3-12.2 166.9 166.9 0 0 1-6.3-7.2c-.5-1.2-2.1-1.2-9.5 0-1.3.2-3.2.5-4.2.5l-3.3.5c-1.2.4-2.1.3-2.1 0s.6-1.6.8-1.7l.5-.7c.5-1.2 1.4-2.5 3.1-4.8l.8-1.2a49 49 0 0 1 12.7-11.2l.3-.4 1.1-.8a84 84 0 0 0 3.6-2c.4-.3 1-.7 1.5-.8l1.3-.5a10 10 0 0 1 2.5-.6l3-.4c.9-.2 1.3.8.6 1.4l-.5 1c0 .5-.3 1.1-.5 1.5a138.8 138.8 0 0 1-1.8 4.9c-1 2.3-1 5-.5 6.2.2.3.4 1 .5 1.7.2 1 .3 1.2 2.6 3.6a62.8 62.8 0 0 1 6.3 7.3c.8.8 2 2.3 2.3 2.9a106.9 106.9 0 0 1 3.6 4.2c4.2 5.1 4.4 5.2 4.4 2.2 0-1.6 0-2.2-.2-2.2-.4 0-1.3-1-3.2-3.3l-2.8-3.3-2.7-3.3-1.3-1.4c-1.1-.8-.6-1 3-1 2.8 0 3.7 0 4.3-.3a9 9 0 0 1 1.9-.5l1-.1v-3l-.8.1c-.5 0-1.3.3-2 .5-2.3.9-6.6.6-10-.6-4-1.4-5.5-6-3.4-10l.4-1.1.4-1 .4-1.2.4-.9.5-1.1c0-.3.3-.7.4-.9l.5-.8c.3-.7.7-.9 1-.3l1.2 1.5a56.1 56.1 0 0 1 4 5 29 29 0 0 0 2.3 2.9c.3.2.6.7.8 1 .1.3.7 1.1 1.3 1.7.6.6 1.3 1.4 1.5 1.8 1 1.1 1.1.9 1.1-1.6 0-1.6 0-2.2-.3-2.2-.2 0-1.1-1-2.3-2.5l-1.9-2.4-.9-1c-.6-1-1.6-2.4-2-2.7-.2-.1-1-1.1-1.7-2.2-2-2.6-2.2-2.7-3.8-3-1.9-.2-5.4-.2-7.4.1m-348.6 3.4l1.8.5c.3 0 .8.2 1.2.5l1 .5a527.3 527.3 0 0 0 2.6 1.5c3.3 2.1 6.5 5 8.9 8.1l2 2.4a63.5 63.5 0 0 1 8 11.2c.5.5.5 1.5.1 1.7a8 8 0 0 1-3.1-.5 8 8 0 0 0-2-.4 10 10 0 0 1-2.2-.6c-.5-.2-1.3-.4-1.9-.4-.6 0-1.4-.2-1.9-.4l-1.3-.4c-.2 0-.9 0-1.5-.2-1.5-.3-1.6-.3-4.7 2.7a212.2 212.2 0 0 1-10 9.2 149.3 149.3 0 0 1-6.5 6c-.7.5-2 1.7-2.7 2.5-1.7 1.6-2.2 1.8-2.8 1-.5-.9-2.8-3.2-4.4-4.5L9.2 284l-1-1 .9-1a571.5 571.5 0 0 1 7.3-7.4l6.1-6.2c5.7-5.7 6.2-6.3 6-7.3 0-.4 0-.8.2-1.2.5-1 1.1-3 1.1-3.8a42.8 42.8 0 0 0-3.2-9.7c-1-1.2 1.7-1.6 4.5-.6m-7.8.8c.2 0 .4.6.6 1l.7 1.5.4 1c0 .3.2.8.4 1l.5 1.2c0 .4.3 1 .5 1.5.7 1.5.7 2.8.1 4a9 9 0 0 1-3.2 3.4l-.9.5c-3.2 2.2-12.2 2.5-14.4.5-.5-.4-.6-.3 4.7-5.8L18 251c4.9-5.1 4.6-4.9 5.3-4.3m192.8 5.8c-.4.6-.5 28.2 0 28.8a26 26 0 0 0 10-.7c.9 0 2.4-.4 3.3-.6l3.9-.9a154.7 154.7 0 0 1 5-1.3 9 9 0 0 1 2-.4c1.6-.3 2-1 1.1-2.1l-.4-.9a2 2 0 0 0-.4-.9c-.3-.3-.8-1.1-1.1-1.8a23.8 23.8 0 0 0-1.5-2.6l-.4-.6-.4-.6c0-.2-.5-1-2-2.8l-1.2-1.7a30.4 30.4 0 0 0-10-8.5c-.3-.3-.6-.5-.8-.5l-1.3-.5a22.4 22.4 0 0 0-5.1-1.8c-.2 0-.5 0-.7.4m-23.2.6l-2.5 1a29 29 0 0 0-5.4 3 45.1 45.1 0 0 0-14.6 18.7c-.6 1-.4 1.5.8 1.7.4 0 1 .2 1.3.4l1.6.5a147.8 147.8 0 0 1 9.3 2.1l2.6.5 3.5.5c1.2 0 3 .3 4 .4 2.9.5 2.6 2.2 2.6-14.3 0-7.8 0-14.3-.2-14.6-.2-.8-.7-.7-3 .1m-77.4 6c-.8.6-.9 1.5-.1 2.1 2 1.6 2.2 1.7 2.2 2.2 0 .2-.2.6-.6 1-.3.2-1 1-1.5 1.8a8 8 0 0 1-1 1.4l-.9 1c-.4.6-1.1 1.6-1.7 2.2-1.4 1.8-1.4 2-.4 2.9 1.3 1 1.6 1 3-1a176.3 176.3 0 0 1 6-7.3c.2 0 .8.5 1.5 1 1.3 1 1.7 1.2 2.4.7 1.2-.9 1-1.8-1.1-3.3a64.5 64.5 0 0 1-6.5-5c0-.3-.5-.2-1.3.3m11.3 8.4l-.7 1-1 1.9a22.9 22.9 0 0 0-1.7 2.8l-.5.7a72 72 0 0 1-2.6 4.5c-.6.5-.1 1.6 1 2.1a54.8 54.8 0 0 1 6.1 3.5c1.6 1 2.1 1 2.6.4 1-1.3.6-1.8-1.9-3l-2.3-1.5-1-.5c-.7-.2-.9-1.3-.3-1.8l.6-1c.4-1 2.1-.7 3 .5l.6.3 1.5.8 1.4.8.6-.5c.5-.2.7-.6.8-1 .2-.8.1-.8-1.8-1.9-4-2.1-4.2-2.4-3.5-3.5l.5-1c0-.5 2.5.3 3 1l1.5 1c.8.4 1.5.8 1.6 1 .3.4 1.3.1 1.7-.6.6-1 .3-1.6-1.6-2.6a91 91 0 0 1-5.4-3.2c-.8-.6-1.6-.7-2.2-.2m146.3 2.3a3 3 0 0 1-.9.7 29.4 29.4 0 0 0-3 1.6c-4.3 2-4.8 2.5-4 4l1 1.6a247 247 0 0 0 3.9 7.5c.6 1.9 1.8 2.6 3 1.7.3-.3.6-.5.8-.5l2-1 1.7-1 .9-.5 1.3-.6c1.2-.3 1.7-1.6.9-2.5-.4-.5-1.4-.5-1.9-.1l-2.3 1.3a37 37 0 0 0-2.5 1.4c-.6.5-1.2 0-2-1.6l-.5-1 .4-.4c.2-.3 1.3-1 2.5-1.6 1.2-.5 2.4-1.2 2.7-1.4l.5-.5-.5-1c-.6-1.3-.5-1.2-1.8-.5a236.5 236.5 0 0 1-4.5 2.3c-.4.4-1 0-1.6-1-.6-1.2-.3-1.5 3-3.2 2.8-1.4 2.9-1.4 3-2.1 0-1.2-1.5-2.4-2-1.6m91.6 1.9c.1.2.2.3 0 .4l-1 1.2a26 26 0 0 1-2.4 3c-2.9 3.8-3.3 4-5 1.8a43 43 0 0 0-2.4-2.7c-2-2.2-1.6-2.6 3.5-3a18 18 0 0 0 3-.4l3.4-.6c.4 0 .8.1.9.3m-315.3 2a488.2 488.2 0 0 1 5.3 1.1c1.1 0 1.3.7.4 1.8l-.8.8-1 1.1c-1.3 1.7-1.7 1.6-3.8-1-.3-.4-1-1.4-1.8-2.2-1.4-1.6-1.4-2.3 0-2l1.7.4m89.6.4l-.3.6c0 .2-.2.4-.4.6-.2.2-.4.6-.4 1 0 .2-.2.7-.5 1.1l-.5 1-.4 1.2a36.8 36.8 0 0 0-2.3 5.5c-.8 1.6-.7 1.9.3 2.7.8.6.9.6 1.2.3.5-.5 1.4-2.1 1.4-2.7l.3-.6c.2-.1.4-.6.5-1 .1-.5.4-1.1.7-1.4.3-.3.5-.8.5-1.2.1-1.2.5-.7.6.8a7 7 0 0 1-.3 2.3c-.9 2.7-.8 5 .2 5.7 1.4 1 2 .5 3.9-2.4.5-.7 1.8-2.3 2.1-2.4.2-.1.3-.3.3-.5 0-.6.4-1.3.7-1.2.4.2.4 1-.2 2a5 5 0 0 0-.5 1.2l-.6 1.4a7 7 0 0 0-.6 1.5l-.4.7c-.8 1.1 0 2.2 1.6 2 .7 0 .7 0 1.6-2a1197.3 1197.3 0 0 1 4.2-9.8c.5-.8.1-1.8-.8-2-.4 0-1.1-.4-1.7-.6l-1-.5-1.1 1.2-1.2 1.4c0 .2-1.2 1.8-2.7 3.6-1.2 1.3-1.4.5-.7-2.7 1-4.7.8-5.5-1.5-6.6-1.8-.8-1.6-.8-2-.2m115.2 4.8c-1.3.7-1.4 1-.8 2.1l.5 1.3.5 1.2.5 1.3.4 1 .6 1.5.5 1.1.5 1c.3 1 1.1 3 1.4 3.3.3.3 2-.2 3.2-.8l1.2-.5.9-.4.9-.4c.4 0 2.7-1 3-1.4 1.5-1.3-1.4-2.7-3-1.4l-1.5.6-2 .7-.7.3-.4-.8a89.6 89.6 0 0 1-3.3-8.4 11 11 0 0 1-.7-1c-.4-.9-.5-.9-1.7-.3m-5.8 1.6l-.8.3c-.5 0 .6 4.4 1.9 7.8l.5 1.7c0 .4.3 1.1.5 1.5.2.5.4 1 .4 1.4 0 .9 1 1.9 1.8 1.7 1.7-.4 1.8-1 1-3.9-.5-1.2-.8-2.3-.8-2.5l-.5-1.4c-.3-.5-.5-1.3-.5-1.6 0-.4-.2-.8-.4-1.1l-.5-1.3c-.2-1.3-1.2-3-1.7-2.9l-.9.3m-93.3.2l-.4 1.2-.5 1.5-.4 1.5a6 6 0 0 1-.5 1.7c-.2.4-.4 1-.4 1.4l-.4 1.6c-1.6 3.5 1.6 6.9 6.4 6.9h2.1l1-.8c.5-.4 1-1 1-1.1l.5-1 .5-1.4c0-.4.3-1.2.5-1.6l.4-1.3.4-1.4.6-2c.1-.6.3-1.4.5-1.6.4-.6 0-1-1.4-1.3-1.5-.4-1.9 0-2.2 2.1 0 .5-.3 1-.4 1.2-.2.2-.3.6-.3 1l-.4 1.6-.7 2.4c-1.1 4-6.2 3-5.3-1.1a91 91 0 0 1 1.9-6.9c.4-1.4.4-2.3 0-2.6-.5-.4-2.2-.4-2.5 0m86.9 1.7l-.6.4c0 .2.5 3.2.9 4.4.2.8 0 1.1-1 1.3l-1.6.4c-2.5.7-2.7.7-2.9-.8 0-.5-.3-1.2-.5-1.5l-.4-1.2c0-1.3-1.3-1.6-2.8-.7-.4.2 0 3 .5 4l.3 1.4.5 2c.2.3.4 1.1.5 1.9 0 .7.3 1.6.5 1.8l.4 1.5c.3 1.8.8 2.1 2.4 1.4 1-.4 1-1 .5-2.7a10 10 0 0 1-.4-1.7l-.3-.9c-.4-.8.4-1.5 2-1.8l1.9-.5c1-.4 1.5.2 1.9 2.3.5 2.5.6 2.7 1.1 3 1.4 1 3.4-.4 2.5-1.9-.2-.2-.4-1.1-.5-1.9l-.4-1.7c-.1-.1-.4-1-.5-1.8-.2-.9-.4-1.9-.6-2.2a3 3 0 0 1-.3-1.2c0-2.6-1.4-4-3.1-3.3m-69.7 2.7c-1.5.6-3 2.1-3.8 3.7-.9 1.7-1 6.6-.3 7.5.3.2.5.6.6.9.4 1.3 3 2.6 5.3 2.8 4.2.2 7.8-3.8 4.2-4.8l-.9-.2-1 1c-3.4 3.7-7-1-4.8-6 1.3-3.2 4.9-3.4 6.3-.4.6 1.4 3 1 3-.4 0-1.3-2-3.8-3-3.8l-1-.4c-1.1-.5-3.1-.5-4.6.1m51.9.6l-1.6.5c-4 1.2-5.7 5.8-4 10.4 2 5.2 8 6.1 11.8 1.8.6-.8.8-2.4.3-2.8-1.1-1-2.4-.7-2.8.6-1 3.3-5.3 2.8-6.2-.8-.7-3-.7-3-.2-4.4 1-2.6 3.4-3.3 5.1-1.6 1.2 1.2 2.7 1.2 3.5-.1.8-1.5-3.8-4.2-5.9-3.6m-189.9.6c0 .7-.6 1.3-2.2 2.5l-2.8 2c-1 .8-2 1.4-2.3 1.4-1 0-.7.9.5 2.3l.7.8c.2.3.3.3.7-.4.2-.4.7-.9 1-1l4.7-3.4c.7-.5 1.5-1 1.8-1l.7-.5c0-.3-1.7-2.6-2-2.6-.1 0-.4-.1-.5-.3-.3-.4-.3-.3-.3.2m153.4.8c-5.8 2.1-5.9 13.2-.1 14.4l1.7.4c5.6 1.3 10-4.5 8-10.7-1.2-3.6-5.6-5.5-9.6-4m186.8 1.4l-1.3 1.7-.4.7.6.5c.3.3.5.7.5 1l.5.8.6 1c0 .4.3.8.5 1 .3 0 .4.3.4 1 0 .8-.3 1-.8.6-.2-.2-.9-.4-1.6-.5-.6 0-1.4-.3-1.8-.5-1.6-.8-2.2-.7-3.4.7-1.3 1.4-1.3 1.6-.4 1.9.4 0 .8.3 1 .4l.8.4c.2 0 .4.3.4.4 0 .2.2.4.5.5.3.1.5.3.5.5s.3.4.7.6l1 .7.5.4c.3 0 1.6 1.4 1.6 1.7 0 1 .4 1.2 1.1.6 1-.8 1-1.8 0-1.8-.8 0-1.2-.3-2.5-1.5l-1.3-1c-.2 0-.4-.1-.5-.3l-.9-.7c-.3-.1-.5-.4-.4-.5 0-.3 1.4-.3 1.7 0 .1.2.5.3.8.3.6 0 3.8.8 4.9 1.2.8.3 1.6-.6.9-1.1-.1 0-.5-.6-.7-1.2l-.9-1.5-.4-.8-.4-.8c-.2-.3-.4-.7-.4-1 0-.2-.2-.5-.5-.6-.6-.2-.6-.4-.2-.8.2-.1.7.1 2.3 1.4l2.6 2c.2.2.6.7.8 1.2l.4.9.4-.6 1-1.6c1-1.2 1-1.7-.2-1.7l-1-.7c-.6-.6-1-1-2.7-2a10 10 0 0 1-3-3.1c-.2-.9-.4-.9-1.3.2M193 290c2.9 2.1 1.8 8.2-1.6 9.1-1.8.5-3.9-.7-4.4-2.5-1.5-4.9 2.5-9.1 6-6.6m-154.2 3.5c-.7.5-.6 1.2.2 1 2-.2 2.7 1 1.4 2.3-3.8 3.4-5.1 4.5-6.1 4.7-.8.2-.8.3-.6.6.2.1.3.3.3.4 0 .3 1.3 1.9 1.9 2.2.6.3.7.3.7-.4 0-.4.2-.7 1-1.3l1.2-1c.2-.3.5-.6.8-.7l1.9-1.6c2-1.8 3.2-1.5 2.8.7-.2 1.1 0 1.3.8 1l.7-.4c.4-.2.3-1.4-.3-2a60.3 60.3 0 0 1-3.5-3.9c0-1.2-2.1-2.4-3.1-1.6m168.2 0c-.7.6-.7 2.4 0 2.7 1.3.7 2.4.1 2.2-1.2-.2-1.5-1.2-2.1-2.2-1.4m155 9.8c-.6.8-1.9 2-2.6 2.8-1.6 1.6-1.7 1.8-1.1 2a70 70 0 0 1 5.7 5.3c.7.7 1.1 1.2 1.2 1.7l.1.7 1-1c4.9-5 5-5.1 4.9-5.7-.2-.7-.7-1.3-1-1.3l-.6-.3c-.3-.3-.3-.3-.3 0 0 .2 0 .3.2.3.4 0 .2 2-.2 2.3l-.4.6c0 .5-1.5 1.5-1.9 1.3-.6-.3-2.3-2-2.3-2.3 0-.4.6-.6 1.3-.6 1.4.2 1-1.2-.6-2l-.6-.6c-.3-.7-1-.3-.8.5.1 1.2-.3 1.8-1 1.2-2-1.6-2.7-2.8-1.6-3 .3-.1.5-.3.5-.4 0-.3 1.3-.8 2.2-.8 1 0 1-.1.4-1-1-1.1-1-1.1-2.5.3m-313 .5l-.3.6-1.7 1.9-2.7 2.5c-1.3 1.3-1.8 1.6-2.4 1.6-1 0-.8.5.7 2.2 1 1 1.4 1 2 0 .3-.5 1.1-1.3 1.8-2a270.5 270.5 0 0 0 4.5-4c1-.7 1-.8-.3-2-1.4-1.3-1.4-1.3-1.7-.8m6.1 6.2l-.2.8c-.1.7-5.4 6.1-6.1 6.3-1 .3-1 .5-.2 1.4 1.1 1 1.4.9 1.4-.4 0-.3.5-1 1.5-2a15 15 0 0 0 2.1-2.3c.7-.7 1.3-.6 1.3.1l-.3 2.4c-.4 3-.5 6.5-.3 7l.1.5.7-.5 1-.8c.2-.5 3.4-4 4.5-5 .5-.5.9-.7 1.4-.7.4 0 .6 0 .5-.1-.2 0-.3-.3-.3-.6 0-1.3-1.2-1.2-1.8.1-.3.6-.7 1-.8 1.1-.2 0-.4.2-.4.3l-.8 1c-1.5 1.4-1.6.9-.9-3.7.5-3 .5-3-.8-4.3-1.2-1-1.4-1.2-1.6-.6m298.8 1.5a34.8 34.8 0 0 0-5.3 4.8c-.3.1-.6.5-.8.8l-.4.6.6.7c.7.9 1.5.8 1.2-.1-.2-.6.6-2 1.2-2 .2 0 1.1.7 2 1.7 3.3 3.5 4 4.3 4 5.2 0 1 2-.4 3-2 .4-.6.3-.8-.4-.8-.6 0-.6 0-3.5-3.3l-2-2.1c-1-1.2 0-2.5 1.5-2 .6.3 1.2 0 1.2-.4 0-.8-2-1.8-2.3-1M66 320.3c0 .4-.1.8-.3 1l-1.5 1.8a17.2 17.2 0 0 1-4 4.4c-.3.1-.4.2-.3.7.2.6.3.7 3 2.7.4.2 1.2.8 1.7 1.4 1.3 1.1 1.8 1.2 2.8.1 1-1 .8-1.2-1.1-1.2-3 0-3.8-1.4-2-3.4 1.2-1.6 1.6-1.6 1.7-.3 0 2 .8 1.7 2.3-.6 1-1.5.7-2.1-.4-1.3-.7.6-1.8.6-1.6 0 .3-1.4 2.7-4 2.7-3l.5.5c.3 0 .5.3.5.4 0 .2.2.4.4.6.3.2.5.6.6 1.2.1 1.3.4 1.3 1.3.2l.7-.8-1.5-1.2a29.1 29.1 0 0 1-3-2.5c-2.5-1.7-2.5-1.7-2.5-.7m275.3 2.4c-.3.4-.1 1.8.3 2.8.3.7.5 1.4.5 2.3 0 1 0 1.4.4 1.9.4.4.5 1 .6 2.4.2 3 0 3 1.9 1.3l.8-.7-.8-.3c-1.2-.4-1.4-1.7-.5-2.3.3-.2.5-.4.5-.6 0-1 2.7-1 3.2.2.3.7 1.1.7 1.8 0 2.2-2 2.2-2.2.9-2.4-.4 0-1.5-.5-2.3-1a108.5 108.5 0 0 0-7.3-3.6m3.2 4.5c.8.4.8.8.2 1.5-1 1-1.6.7-1.7-.8 0-1.2.3-1.8.7-1.2l.8.5m-268 .5c.4.2.4 1.3 0 1.9l-2.2 3.2c-1.6 2.4-2.6 3.6-3.1 3.6-.9 0 1.7 2 2.8 2.3.6.1.6 0 .5-.5-.1-.5 0-.8.2-1 .2-.1.3-.3.3-.5l.7-1c1-1.2 1.3-.7 1.3 2.5v2.5l.7.7c.6.6 1.6 1.1 1.9 1v-2.7c0-3 0-3.3 1.5-3.3 3.3 0 3.2-4.2-.2-6.3l-2-1.3c-.8-.5-1.7-1-2-1h-.3m256.9.3l-.9.7-.7.5-3.1 2-1.4 1c-.4.2-.5.4-.5 1 .1 1.3 1 1.7 1.2.6.3-1.7 2.1-2.2 2.8-.9l1 1.5a63.8 63.8 0 0 1 3 4.8c.2 1 .5 1 1.4.4l1.1-.6c.2 0 .4-.2.4-.4l.4-.7.4-.4h-.6c-.4 0-.7-.2-1.2-.9a165.4 165.4 0 0 0-1.8-2.6l-.4-.6c-1-1-2-2.8-1.9-3.3.3-1 1.5-1.4 2.4-.7 1 .7 1-.5.1-1.3-.6-.7-.7-.7-1.8 0m-252.6 3.3c.6.7.2 2.2-.7 2.9-.8.5-1.5.5-2.3 0-.9-.5-.9-.6.4-2.4l1.2-1.6.7.5.7.6m240.6 4.5c-1 .6-2.3 1.7-2 1.9l.6.2c.5.1 2 2 2 2.5l.4.5.5.8c0 .2.5.9.9 1.5 1 1.5 1 1.4 1.1 2.3.2 1 .4 1 2.2-.1 1.4-.8 1.7-1.6.6-1.6-.2 0-.8-.9-2.2-3.2a105.4 105.4 0 0 0-2-3.5c-.3-.2-.4-.5-.4-1 0-1-.4-1-1.7-.3M92 338.6a9 9 0 0 1-2.3 1.7c-.5.3-.8.6-.8.8l-.4.2c-.2 0-.5.2-.6.4l-.5.4c-.2 0-.6.3-1 .6l-.8.6c-.2 0-.4.2-.6.4l-.7.4c-1.4 0-1.3 1 .1 1.6 1 .5 1.4.4 1-.3-.1-.6 0-1 .7-1.3.5-.3 2.8.2 2.8.5 0 .2.2.4.5.6.7.5.7 1.4 0 2.1l-.6.5.6.6c2 2.1 3.1 2.1 3.2 0a65.2 65.2 0 0 1 1-9.8c-.2-.4-1.4-.3-1.6 0m-1.9 4c0 .5-.1 1-.3 1.3-.4.5-.9.6-.9.1l-.4-.6c-.5-.5-.5-.5.2-1.3.9-1 1.4-.7 1.4.5m221.5-1c-.3 0-.5.2-.6.4l-.7.4c-.4 0-.8.3-1 .4a4 4 0 0 1-1.1.6c-.4.1-1 .5-1.3.9l-.4.6.5.1c.6.2 1.5 1.5 1.9 2.6l.5 1c.2 0 .3.3.3.4l1 2c.6 1.6.8 2 .6 2.3-.5 1 1.9.4 3.1-.8l.7-.7-.6-.3c-.8-.5-1.8-2-1.8-2.8 0-.5.9-.4 2.1.3 3.1 1.7 3.2 1.8 4.5 1.2 1.3-.4 1.4-1.4.4-1.8-3-1-4.3-2.1-3.6-3.1 1.6-2.2-1.7-5-4.5-3.8m-210.4 1.2l.1.3c.3.2.5 0 .3-.3-.2-.1-.3-.2-.4 0m212 .7c1 .8 1 2.1-.1 3.4l-.7.7-.5-.5c-1-1-2-3.3-1.5-3.5l.7-.6c.3-.4 1-.2 2 .5m-211.3-.2l-.1.5c0 .4-.5 1.5-1.4 3.1a33.2 33.2 0 0 0-1.9 4.1c-1.2 1-1.3 2.4-.2 2.4l.6.4c.6.7 1.7.6 1.7-.2 0-.4 0-1 .2-1.2l.5-1c.4-1.7 1.7-1.2 1.7.6 0 .5.2 1.7.5 2.5l.4 1.6 1.2.6c1.2.6 2 .6 1.5 0-.2-.2-.4-1-.5-1.6 0-.6-.3-1.6-.4-2.2-.4-1.1-.2-1.4 1-1.7 2.3-.6 3.1-3 1.6-4.7-1-1.3-6-3.6-6.4-3.2m3.9 2.5l.4.7c.8.5.2 2.3-1 3l-.8.5-.7-.5c-.9-.5-1-1.2-.4-2.2l.7-1.1c.4-1 1.8-1.2 1.8-.4m195 1.2c-.2.2-.7.4-1 .4-.2 0-.6.2-.9.5-.2.3-.6.5-.8.5-.6 0-3.5 1.4-3.5 1.6l.6.9c.4.4.7 1 .8 1.5l.6 1.2.4.8.4.8.6 1.3c.1.5.3 1 .5 1.1.4.3.4 1.8 0 2.2-.5.5.8.2 2.6-.7a102 102 0 0 1 3.7-1.7c.4-.1 1-.5 1.3-.8l.7-.6-.4-.9-.6-1c-.2-.5-.5-.4-.6 0-.2 1.5-.5 2.2-1 2.4-.4 0-.7.3-.8.5-.2.3-.4.4-1.1.4h-.9l-.6-1.3c-1.1-2.5-.5-3.3 1.2-1.7l.6.5.2-.5c.1-.4 0-.6-.2-.8l-.6-1.3c-.3-1-1.3-2-1.6-1.5-.2.1-.2.3 0 .6.2.4.2.5-.2.9-.5.5-1 .3-1.3-.7l-.5-1.2c-1-1.4 2.4-2.9 3.6-1.5 1 1.2 1.2-.4.2-1.6-.6-.8-.7-.8-1.4-.3m-185.7 2.4l-.2 1c0 .5-.3 1.2-.5 1.7l-.4 1-.4 1-.6 1.5-.6 1.4-.4 1-.6.5-.6.4c0 .2 2.2 1.4 3 1.5 1 .2 1 .2 1-.8a24.6 24.6 0 0 1 2.2-6.6c.2-.5.5-1.2.8-1.5.4-.4.6-.7.5-1-.2-.5-3-1.5-3.2-1.1m173.6 2.9l-.6.6.6.5.6.5-.2 2.5c-.2 3.3-.7 3.7-2.1 1.8l-1.5-1.6a8.1 8.1 0 0 1-1.3-1.6c-.5-.9-1-1-2.1-.5-1.5.6-2 1.5-1 1.8.4.2 1.7 1.4 5.5 5.5 2.7 3 3 2.5 3-5.1l.3-3.1c.4-.5.5-1.7.2-1.9-.6-.2-.8 0-1.4.6m-165.5.4c-.1.2-.2.5-.1.7.1.5-.2 2.1-.6 2.8a7 7 0 0 0-.6 1.4l-.6 1.8c-.9 2.3 0 4.3 2.1 5l1.1.5c.6.5 2 .4 2.3 0 .1-.3.4-.5.5-.5.6 0 1.7-1.2 1.7-1.8 0-.3.1-.6.3-.7.4-.3.7-1 .7-1.7 0-.4.1-.6.4-.8.3-.1.4-.4.4-1 0-.8.1-1 .7-1.7.8-.6.8-.7.4-1-.9-1-2.2-.5-1.7.7.1.4 0 .7-.1 1-.2.3-.3.8-.3 1l-.2.7c-.1 0-.4.5-.5 1.1-.2.6-.4 1.2-.6 1.4l-.5 1c-.1.5-.4.8-.5.8l-.7.4c-.7.7-1.1.7-2 0-1.6-1.3-1.6-1.5-.2-5.3 1.4-3.7 1.5-4 2-4.2.8-.4.5-.7-.8-1-.4 0-.8-.2-1-.4-.5-.4-1.3-.5-1.6-.2m14 5c-.3.6-.2 1.2.1 1.8 1 1.8 1.4 3.6 1.6 6.6.2 2.4.4 2.8 1.1 2.5.6-.2 3-3.2 3-3.7 0-.2.1-.3.3-.3.2 0 .4-.3.6-.6.1-.3.4-.6.6-.7.3 0 .6-.3.7-.5.4-.6.6 0 .3 1a20 20 0 0 0-.6 2c-.4 2-1.2 3.7-1.7 4-.5.2 1.7 1.2 2.9 1.2h.7v-.9c0-1 .3-2.2.8-3.9l.5-2c0-.6.4-1.5.7-2.2.7-1.3.6-1.6-1.2-2-1.1-.2-2.6.4-2.6 1 0 .3-.4 1-1.4 2.1-.4.4-.6.9-.6 1 0 .4-.1.5-.6.5-.3 0-.6.1-.7.3-.2.2-.6-2-.8-4.5-.2-1.6-.5-2.2-1.6-2.7-1-.4-2-.4-2.2 0m129 1.8l-2.5.7c-2.6.6-3 .9-2.3 1.6.4.5.7 1.2.7 1.8 0 .3.1.7.3 1 .2.2.4 1 .5 1.6l.5 2.2c.2.6.3 1.2.2 2-.1 1.2 0 1.2 2.2.7 1.7-.4 2.1-1 1.1-1.6-.5-.2-.6-.4-.7-1.3 0-.6-.3-1.4-.5-1.9l-.5-1.8c0-.5-.3-1.3-.5-1.8-.3-.8-.3-.8 0-1.3l.4-.7c0-.6.5-.5 1.6.2 2.9 2 3.6 6.3 1.4 8.6-.4.4-.4.6-.2.7.5.3.8.2 2-.5 3.5-2.4 3-7.9-1-9.7-1.1-.5-2.4-.8-2.6-.5m-129.9 1.2l-.1 1.6c0 1.3 0 1.5-.4 1.8-.4.2-.5.5-.4 1 0 .7-.1 1-.5 1.5-1 1 0 2.2 1.2 1.6l.5-.2-.4-.5c-.5-.7-.5-1.8 0-2 .3-.2.4-.5.4-1l.2-1.8c.3-1.4 0-2.5-.5-2m115 2.6c-1.2 2.8-1.5 6.7-.5 5 .5-.8.6-.8 1.3 0 .7 1 .7 1.9 0 2-.6.2-1.5-.2-1.5-.6 0-.4-1-.6-1.2-.3l-.2 1.6c0 1-.1 1.5-.4 1.8-.6.9-.8 2.5-.1 2l1.1-.5 1-.3-.5-.5c-1-1-.4-2.3.8-2.3.3 0 1 0 1.5-.2 1.1-.3 2.1.5 2 1.5-.3 1.2 2.6 1.3 3.4 0l.5-.5-.5-.4-.6-.4-.9-1.3a36 36 0 0 0-2.4-3.4l-1-1.4-1-1.5c-.6-1-.6-1-.9-.3m-90.1.4c0 .1 0 .6.2 1s.3 1 .3 1.3c0 .5 0 .6.5.6s.8.6 1 2.4c0 .6.3 1.3.4 1.5.2.2.4.9.4 1.4.2 1.4.5 2.3.8 2.3l.6.1c.2.1.4 0 .6-.6l.6-1 1-1.8c.4-.7.9-1.5 1.1-1.6.2-.2.4-.4.4-.6 0-.6.4-1 .7-1 .5.2.3 3-.4 5.5-.6 2.3-.6 2.3 1 2.7 1.4.4 2.2.3 1.9-.4-.3-.6 0-3.6.5-5.8.2-.6.3-1.6.3-2 0-.7.1-1 .5-1.4.9-.8.4-1.1-1.6-1.2l-1.6-.1-.7 1-.6 1.2-.4.4c-.2.1-.4.5-.6.8a5 5 0 0 1-1.2 1.7c-.4.5-.8 0-1-1.2a8 8 0 0 0-.4-2c-.2-.4-.4-1.1-.4-1.5 0-1.3-1-2-2.5-2-.9 0-1.3.1-1.4.3m72 2c-2.4 0-2.5.1-3.3 1.2-1.5 2.2 0 5 3.4 5.6 2.5.6 3.3 3.3 1 3.3-.4 0-.5.5-.2 1 .2.3.2.3 2-.6 2.5-1.1 2-5-.8-5.9-.3 0-.8-.3-1.1-.5l-1.3-.5c-1-.2-1.9-1.1-1.6-1.8.6-1.6 2-1.8 3.4-.4 1.1 1.1 1.4 1 1.4-.2 0-1-.2-1.5-.6-1.4l-2.3.1m-54 .7v1.1a39 39 0 0 0-.2 5c0 2.5 0 2.7-.4 3.1-1 1-.4 1.4 2 1.5 1.2 0 2.8.2 3.5.3 2.3.5 2.8.3 3-1.4.2-1.3 0-1.4-1.4-.3-1.7 1.3-3.6 1.5-3.6.4 0-.2-.1-.5-.3-.7-.2-.3-.2-.5 0-.8l.1-1.2c0-1.3.7-1.5 1.3-.3l.4 1 .4-.4.3-.8.3-1.5c.4-1.6.3-2.2-.3-1.5-.6.8-1.8 1-2 .6-.7-1 0-3.1.9-3.4.4-.2-.3-.8-1-1-1.5-.4-2.7-.3-3 .3m5.3.2l-.7.3.9.4 1.3 1.2c.7.8 1.2.5 1.2-.7s-1.3-1.8-2.7-1.2m8 .2c-.3.3-.2 1.2.2 1.7l.4.8c0 .5.7 1.2 1.2 1.2.2 0 .5.2.7.7l1.2 1.7a39 39 0 0 1 3 3.8c1.2 2.4 1.9 2.1 1.9-.6 0-2.4-.1-2.8-1-3.2a5.6 5.6 0 0 1-2-2.2c-.7-1.4-2.6-3.4-3.4-3.5a7.1 7.1 0 0 1-1.8-.4h-.5m28.5 0c-.3.1-.3.2 0 1l.4 3.2c0 1.2.3 2.9.4 3.7v1.9c-.5 1 2.1 1.7 3.4.8l.4-.3-.5-.4-.6-.4-.2-3.3c-.2-4-.2-5.2.1-5.7.3-.5-2-.8-3.4-.4m-59.7.8c-.4.9-.4 2.3 0 2.6.7.3 1-1.4.5-2.8l-.1-.5-.4.7m53-.1c-.2.3-.2.5.2.7.2 0 .6.4.8.7.4.6.8.4 1-.4.1-.9-.4-1.5-1.2-1.5-.6 0-.8.1-.9.5m-13.8 0c-.5.6.3 1.5 1.2 1.5.2 0 .6-1 .5-1.3-.2-.3-1.5-.5-1.7-.2m9.7 0h-1.7c-1.6-.1-2 .1-2 1.2 0 1.1.2 1.2 1.2.3 1.1-1 2.1-1 2.4-.3a29 29 0 0 1-.2 8.9c-.6.6-.2.7 2 .7 2-.1 2.4-.2 2-.6-.8-.5-1.2-8.4-.6-9.4.5-1-1.6-1.5-3.1-.9m-49.5 3.4c0 1-.6 2.4-1.1 2.7l-.6.4.5.2c1.1.7 2.6.2 2-.6l-.3-1.5c-.2-1.2-.5-2-.5-1.2m32 2.1c0 .3.3.4.5.1 0 0 0-.2-.2-.3-.2 0-.3 0-.3.2m37.8 1.2c-.7.7 0 3.2.7 3 .3-.2 1-.2 1.4-.2l.9.2v-.7c0-.4-.1-.6-.3-.6-.5 0-1.7-.8-2-1.4-.4-.7-.3-.7-.7-.3m-37.8.8l-.1 1.7-.2 1.2.8.2c1 .3 1.9.1 1.3-.3l-.5-.9c0-.3-.3-.6-.5-.7-.3 0-.4-.2-.3-.7 0-.3 0-.6-.2-.8-.3-.2-.3-.2-.3.3"/>
</svg>
