<svg xmlns="http://www.w3.org/2000/svg" width="338.6" height="356.2" display="block">
  <g fill-rule="evenodd">
    <path fill="#e3001c" d="M329.8.5l-2.3 1.2-2 1.2c-.1.3-1 .7-1.9 1-.8.3-1.7.7-2 1l-1.7.9c-.8.2-1.7.7-2.1 1-.4.3-1.3.8-2 1l-2 1c-.6.4-1.7 1-2.5 1.2l-2 .8-2 1a9 9 0 0 0-2 1l-1.5.8c-2 .5-3 .8-3.6 1.4-.5.3-1.2.6-2 .8-1.4.3-2.2.6-3 1.2a7 7 0 0 1-2.3 1c-1 .2-2 .6-2.6 1-.5.3-1.5.7-2.3.8-.8.2-2 .6-2.5 1-.6.3-2 .8-3 1l-2.6 1c-.4.3-1.7.8-3 1a12 12 0 0 0-2.7 1c-.8.6-1.3.7-3.2 1.2-1 .2-2.2.6-2.7.9-.5.2-1.8.7-3.1 1-1.4.2-2.7.7-3.4 1-.7.4-1.7.7-2.6.9A14 14 0 0 0 255 31l-3.2.9a16 16 0 0 0-3.4.9c-.9.4-2.4.8-4 1l-3.7 1c-1.1.6-2.2.8-4.9 1.2-1 .1-2.2.4-3 .8-1 .4-2.2.7-4.1 1l-5 1a28 28 0 0 1-4.2 1c-2.6.3-3.9.5-5.4 1-1 .4-2.7.7-4.9 1-1.9.2-4.3.6-5.4 1-2.5.6-4.4 1-5.7 1-1.9 0-6.1.6-7.9 1-1.8.6-2.2.6-7.7 1l-8 1a66 66 0 0 1-8.6 1 136 136 0 0 0-15.6 1.2c-1.6 0-3.5.3-4.2.4a833.4 833.4 0 0 1-56.5-.5 93 93 0 0 0-15.1-1.1A92.7 92.7 0 0 1 64 46.7c-.9-.4-5-.8-9-1-2.1-.2-5.7-.7-7-1.1-.9-.3-3.3-.6-6.6-.8-1.7-.2-3.3-.4-4.4-.7-2-.6-4.5-1-7.6-1.3-2.2-.2-3.1-.4-6.4-1.3l-3.8-.7c-1.9-.2-3.3-.4-4.1-.8-1.8-.6-2.4-.7-5.6-1.1l-3.7-.7c-2.4-.6-2.4-1-2.1 14.3L4 72.7c.2 6.8.3 8.8.5 9.9.2.8.3 2.2.3 3.8V89l.8.5 2.1.7 3.3.7c1.8.4 3.4.6 9.4 1l4.1.6 3.1.6c2 .3 5.5.6 9.6.8 1.9 0 3.7.2 4 .3 2.8.7 8.7 1.2 18.2 1.5a129.2 129.2 0 0 1 13.4.9 940.8 940.8 0 0 0 78.1.1c1.7 0 3.8-.3 4.7-.4 1-.2 4.5-.4 8-.5a55.9 55.9 0 0 0 14.2-1.2l2.2-.2a60.5 60.5 0 0 0 15.6-1.6c1.6-.4 4.3-.8 6-1a67.4 67.4 0 0 0 12.6-1.9c5.8-.6 6.8-.8 7.7-1 1.3-.5 4.4-1.1 5.6-1.1 1.3 0 3.4-.4 5.6-1.1 1-.3 3.3-.8 5-1 2-.3 3.7-.7 4.2-1 1-.3 2.5-.7 6.1-1.2 1.2-.2 2.4-.5 3-.8.6-.3 2-.7 3-.8 3-.5 4-.8 5-1.2l3.6-1 3.9-1c.6-.3 2-.7 3.2-1 1.1-.1 2.9-.6 3.8-1 1-.4 2.6-.8 3.5-1 1-.2 2.3-.6 3.1-1 .9-.4 2.1-.8 3.1-1 1-.2 2.3-.6 3.2-1l2.7-1c.7 0 2-.5 2.8-1 1-.4 2.3-.9 3.1-1 .8-.2 2-.6 2.7-1 .7-.4 1.6-.8 2-.8 1.3-.3 2.6-.8 3.3-1.3l2.2-.8a16 16 0 0 0 3-1.1c.7-.4 1.9-.9 2.5-1 .6-.2 1.6-.6 2-1l2.4-1c.8-.2 1.9-.6 2.4-1 .5-.3 1.6-.8 2.4-1a9 9 0 0 0 2.2-1c.3-.3 1.4-.7 2.2-1l2.2-1a9 9 0 0 1 2-1c1.8-.6 2-.7 2.5-1.8l.4-1V.8l-.5-.4c-.6-.5-.7-.5-1.5 0"/>
    <path fill="#fc0" d="M328.5 1c-1.5 1-1.6 1.1-.3.5l1.2-.8c.4-.4.3-.4-1 .4M332 27v12.6a3678.7 3678.7 0 0 0 0-12.6M321.7 4.6l-.7.6c-.4.2-.5.4-.4.4.2 0 1.6-1.2 1.4-1.2 0 0-.2 0-.3.2m-5 2.6l-.8.6c.3 0 1.5-.6 1.7-.9.4-.4.4-.4-.9.3m-3.2 1.5l-1.8 1c-.3 0-.5.1-.4.2.2.2 1.6-.5 2.7-1.2 1.4-1 1-1-.5 0m-8.5 4c-.3.3-1 .6-1.5.8-.9.2-.9.2-.2.1 1 0 1.7-.5 2.1-1 .4-.3.3-.3-.4.2m-5 2c-.1.2-.6.5-1 .6l-.7.3c.2.2 1.5-.4 1.8-.7l.3-.4-.4.3m-4.3 1.6l-1.6.9c-.7.3-.7.4-.2.3a3 3 0 0 0 1.1-.6l1.3-.7c.5-.3.7-.4.5-.4a3 3 0 0 0-1 .5m-5.8 2.4c-.6.4-1 .7-.8.7l1-.6 1.1-.6c.3-.1.3-.2.1-.2l-1.4.7m-6 2.4c-.7.2-1.2.4-1 .5.3 0 2-.7 2.2-.9v-.1l-1.3.5m-4.8 1.7c-.7.4-1 .5-.6.5l2-1c0-.2 0-.2-1.4.5m-4.4 1.2c-.2 0-.6.4-1 .7l-.3.3.7-.4 1.2-.5c.6-.2.7-.3.3-.3-.2 0-.6 0-.9.2m-13.2 4.7c-.4.2-.7.5-.6.5l1-.5c.5-.3.8-.5.6-.5l-1 .5m-7.2 2l-1.8.7c-.7.2-.7.2.2 0 .6 0 1.5-.3 2-.5 1.3-.6 1-.7-.4-.1m-6.3 1.8l-.5.3 1-.3c.3-.2.6-.4.4-.4l-.9.4m-1.8.6c-.4 0-.4.1 0 .1l.7-.1c.6-.3 0-.3-.7 0m-3.4.6h.5c.6 0 1-.1 1.1-.2.2-.1-1 0-1.6.2m-10.4 2.8l-.5.3 1-.3c.3-.2.6-.4.4-.4l-.9.4m-229 1.4l-.1 2.3v2l.1-2.1a11.7 11.7 0 0 1 .4-2.6l-.4.4m6.4-.3H10h-.3m216.5 0c-.8.3 0 .3 1 0h.2-1.2M15.1 39.2l1.6.4c.3 0-.2-.2-1-.4-1.7-.7-2.1-.7-.6 0m9 1.7l1.3.3-.7-.3-1.3-.4.7.4m189.7 0c-.5 0-.8.3-.7.3l1.2-.3c1.2-.5.8-.5-.5 0m-6.4 1.1H207.7h-.3m-3 .4l-1.8.5-1.7.5-.7.2 1.9-.3a78.4 78.4 0 0 1 4.2-1.2l-1.9.3M38.8 43.5H39h-.3m1.6.2h.4-.4m154.9.2H195.6h-.3m-191.8 1v-.4.5m44.4-.4l.8.1c.4 0 .3 0 0-.1-.7-.3-1.3-.3-.8 0m139.9.7H188h-.3m-135.2.2h.4-.4m133.6 0H186.5h-.3m-2.1.2H184.4h-.3m-3 .2h.4-.3m-121 .2h.4-.3m118.3 0h.4-.4m-115.3.4c1.1.3 2.9.6 2.7.4-.1-.2-2.7-.7-3.2-.7-.3 0 0 .1.5.3m6.8 1h.4-.4m98.9 0H169.6h-.6m-96 .2h.4-.4m93 0h.7-.7m-88.5.2H77.8h-.3m3 .2h.7-.7m78.7 0H159.8h-.6m-9.7.7l-3.8.5h.8a101 101 0 0 1 7.4-.7l.8-.2h-.8l-4.4.4m-63 0l.9-.1h-.8m3.7.2h.8-.8m3.1.3c.5.1 2 .2 1.8 0l-1.2-.1h-.6M107 49.8H107.3h-.3m26 0H133.3h-.3m198.2 4.6c-.3.5-.6.8-1.2 1-.7.4-.8.5-.3.4.9-.2 1.5-.7 1.8-1.3.3-.8 0-1-.3-.1m-4.3 2.4l-.6.5.7-.5c1-.5 1-.5.7-.5l-.8.5m-9 4l-.8.7c.2 0 1.7-1 1.7-1.2l-1 .6M3.7 62.5v-.7.7m311.1-.6c-.8.3-2.8 1.5-2.5 1.5l1-.5 1.8-.9 1-.4-1.3.3m-6.3 2.8l-.7.5c.3 0 .6-.2.8-.3l1-.5c.4-.2.6-.4.4-.4l-1.5.7M4 70.2v3a188 188 0 0 0 0-3m300.2-4l-.7.4c0 .1 1.5-.4 1.6-.6l-1 .3M293.7 70c-.9.4-2.4 1.3-2.1 1.3l1.2-.6a20.9 20.9 0 0 1 2.1-1 5 5 0 0 0-1.2.3m-12.3 4.2l-.7.3.7-.1a38.7 38.7 0 0 1 1-.5c-.2 0-.7.1-1 .3m-14.9 4.6l-.3.3.7-.3c.3-.2.5-.3.3-.3l-.7.3m-4.9 1c-1 .3-2.5.9-2.4 1l1-.2 2-.6c.7-.2 1-.3.7-.3-.2 0-.8 0-1.3.2M4.4 84.6c0 3.7.1 4.2.6 4.6.3.2.3.2.1 0-.1-.2-.3-1.6-.3-3.4 0-1.7-.2-3.4-.3-3.7-.1-.4-.2.4-.1 2.5m251.5-2.9H256.2h-.3m-3.5.6a3 3 0 0 0-1 .5h.4l1.4-.5c.5-.2.8-.3.5-.3l-1.3.3m-6.3 1.6H246.4h-.3m-1.9.3c-.6.2 0 .2 1 0 .5-.2.5-.2 0-.2-.2 0-.7 0-1 .2m-11.7 2.7l-.7.3c.9-.1 2.9-.8 2.4-.8l-1.7.5M213.2 90c-2 .3-1 .4 1.1 0 1.2 0 1.7-.2 1.1-.2l-2.2.2m-203.5.8l1.8.3-1-.3a10 10 0 0 0-1.8-.4l1 .4m198.6.3c-.9.2-1 .2-.5.2.4 0 1.1 0 1.5-.2 1-.4.6-.4-1 0m-4.8.6H203.8h-.3m-185 .2h.4-.3m2 .2h.5-.4m178.9 0H199.9h-.3m-175 .5c.2.2 3.6.8 3.8.7l-1-.3-2.8-.4m167.1.8h-1.4l1.3.1a8 8 0 0 0 1.8-.1c.6-.2.4-.2-1.7 0m-162.3.1h.5-.5m159.4.2h.4-.4M35.5 94h.5-.5m149.8 0H185.6h-.3m-146.5.2h.7-.7m144 0h.5-.4m-7.3.9c-1.1.5-.6.5 1.1 0 1.3-.4 1.4-.4.6-.4l-1.7.4m-131 0l.8-.1h-.8m1.6.2H46.5h-.3m4.4.4H51.2h-.6m8.8.4h.4-.4m4.1.2a30.3 30.3 0 0 0 4.2 0c-.5 0-4.6-.2-4.2 0m92.5 0c-.3.1.7.1 2.4.1a47.9 47.9 0 0 0-2.4 0m-86.7.4c1.1.2 8 .4 7.1.2a43.5 43.5 0 0 0-7-.2m78.8.3H148.8h-.6M135.3 97.5H136.3h-1m-2.5.2H133h-.3m30.1 217c-153.4.2-161 .2-161.6.5-1.4.8-1.3-.3-1.3 20 0 21.5-.1 20.2 2 20.7.5.2 46.4.3 162.7.3h162l.6-.6.7-.7v-19c0-20.8 0-19.7-1-20.8-.7-.5 7.3-.4-164-.3"/>
    <path fill="#019ca9" d="M66.5 166.4c-2.7.1-3.8.3-4.2.6-.6.5-3.7 1-7.7 1.3-2.9.2-4 .4-4.6 1-.7.5-.9.6-4.7 1-2.4.2-3 .3-3.8.8-1 .6-2.4 1-5 1.3-1.7.2-2.2.3-2.7.7-.7.6-1.3.8-4 1.2-1.6.2-2.2.4-3 .9-.8.5-3 1.2-4 1.2l-1.8.6a13 13 0 0 1-4.8 1.4c-1.3.2-1.7.3-1.9.7-.4.6-1 .8-2.7 1-2 .4-2.7.7-3 1.6-.5 1-.5 55-.1 55.4.4.3 2 0 2.4-.6.6-.7 1.2-1 2.9-1.2a5 5 0 0 0 2.2-1c.8-.6 1.5-.8 3.5-1.1.8-.2 1.5-.4 1.8-.7.7-.6 1.4-.9 2.7-1.1 1.8-.3 2.6-.6 3.1-1 .6-.6 2-1 4-1.3 1.4-.1 1.7-.3 2.2-.8.6-.6 1.2-.8 3.6-1.1 1-.2 1.8-.4 2.1-.7 1-.6 1.8-1 4-1.2 1.4-.3 2.3-.5 2.7-.8.9-.6 2-.9 4.2-1.1 2.5-.3 3.6-.5 4.5-1 1.3-.7 2.3-.8 6.5-1.1a35 35 0 0 0 5-.7c.9-.2 1.2-.2 3.9.1l4.8.6c2.7.1 3.9.4 4.9 1 .6.5 1.3.7 2.4.9 2.4.3 3 .5 3.8 1.2.6.4 1 .6 2.3.9 1.7.2 2.6.6 3.3 1.3l1.7.7c1.6.4 2 .5 2.8 1.3.4.3.8.6 1 .6.7 0 2.3.6 3 1.1.4.3 1.2.7 1.7.8a5 5 0 0 1 2.6 1.4c.3.3 1 .5 1.9.8 1.4.3 2.6.9 2.6 1.3 0 .1.8.4 3 1 .4 0 1.2.5 1.6.9.6.4 1.1.7 1.8.8 1.7.2 2.5.5 3 1s2 1 3 1c.7 0 2.4.7 3 1.2a42 42 0 0 0 13.9 1c7.6-.5 7.1-.5 8-1.1.7-.4 1.4-.7 2.4-.8 3.8-.6 4-.7 4.7-1.2.4-.4 1.1-.7 1.8-.8 2.5-.5 3-.7 3.8-1.2 1-.7 2-1 3.4-1.1 1.2-.2 1.6-.3 2.4-1 .3-.4 1-.6 2.5-1 1.4-.3 2.2-.6 2.7-1 .3-.3 1.1-.6 1.6-.7l2-.5a5 5 0 0 0 1.8-.7c.8-.7 1.5-1 3-1.1 1.2-.2 2-.5 3-1.2.4-.3 1.2-.6 2.4-.8 1.2-.2 2-.5 2.6-1 .7-.3 1.6-.7 3-1 1.3-.2 2.5-.6 3.3-1 .7-.4 1.7-.8 2.3-.8 3.6-.5 4-.6 4.9-1.1 1-.7 2-.9 7.3-1.2l3.5-.4c.5-.3 1.9-.3 4 0l5.6.5c4.5.3 5 .4 6.1 1.2.6.3 1.2.5 2.6.7 2.8.3 3.7.5 4.7 1.2.6.4 1.4.7 2.7.9a10.5 10.5 0 0 1 4 1.5c.3.2.8.4 1.1.4 1.1 0 3.3.6 4.2 1.2.5.3 1.5.7 2.7 1 1.3.2 2.2.6 2.7 1 .6.4 1.4.7 2.7 1 1 .2 2.1.5 2.3.7l.8.6c.3.1 1.1.4 2 .5 2.3.4 2.8.5 3.6 1.1.5.5 1.1.7 2.3.9 2.4.3 3 .6 4 1.2.6.5 1.1.6 2.8.9 2.4.3 3.1.5 4.4 1.2 1 .5 1.4.5 6.1 1 2.1.2 4 .4 5.1.8 2.2.6 8.4.4 12-.3l4.5-.6c3.2-.3 3.8-.4 4.8-1 1.1-.8 1.4-.8 3.4-1.1 1.4-.3 2-.4 2.3-.8.7-.7 1.2-.9 2.8-1.2 1-.3 1.7-.6 2.2-1 .5-.4 1.4-.9 2-1 .7-.2 1.4-.6 1.9-1 .4-.4 1-.8 1.4-.8.9-.2 1.6-.6 2.4-1.3.3-.4 1-.7 1.5-.9.6-.1 1-.4 1.3-.9l1.4-1 1.7-1.3 1.4-1c.3 0 .9-.5 1.2-1 .4-.4.9-.8 1.2-.8l.8-.4c.1-.2.4-14.6.5-28 0-6.2.1-7.4.4-8.6.5-1.8.7-6 .5-10l.1-2.2c.2-1.8.1-2-1.2-2-.8 0-1 .2-1.5.7-.8.9-1.5 1.3-2.5 1.6-.5.1-1 .4-1.2.7-.1.3-.8.7-1.5 1-.7.4-1.5.8-1.7 1.1a5 5 0 0 1-1.6 1c-.6.2-1.4.6-1.7 1-.3.3-1 .7-2 1-1 .3-1.5.6-1.8 1-.3.4-.8.7-2 1l-1.8.8c0 .3-1.4 1-2.8 1.3-.7.2-1.6.6-2 .9-.4.4-1.3.7-2.6 1-1.1.3-2.1.7-2.3.9-.6.6-1.6.9-4 1.2a10 10 0 0 0-3.4.8 32.5 32.5 0 0 1-20-.8c-2.3-.4-3-.6-3.7-1.2-.3-.4-1-.6-2.1-.8-1.7-.3-2.4-.6-3-1.3-.3-.2-1-.5-1.9-.7-1-.3-1.7-.6-2.4-1.2l-1.4-.7c-.7 0-2.3-.7-2.9-1.3-.4-.4-1-.7-2.2-1-1.2-.2-1.7-.4-2-.9-.3-.3-.8-.6-1.2-.7a8.6 8.6 0 0 1-3.3-1.3c-.4-.3-1.2-.7-1.7-.8-1.6-.4-2.6-.8-3-1.2-.4-.5-1-.7-3-1a4.4 4.4 0 0 1-2.4-1c-.8-.6-1.1-.7-3.2-1-2.7-.3-3.5-.5-4.5-1.1-.8-.6-1.2-.7-6-1l-4.9-.7a76.3 76.3 0 0 0-19.8.7c-4.8.2-6 .4-7 1-1 .7-2 1-4.1 1.2-.7 0-1.4.3-1.9.6a7 7 0 0 1-3.5 1.3c-1.5.2-1.8.3-3 1.2l-2.5.9c-1.3.3-2 .5-2.2.8-.3.5-1.4 1-2.7 1.2-1 .1-1.4.3-2 1l-1.4.7c-2 .4-2.3.6-3 1.2l-1.5.8a967.4 967.4 0 0 0-3.2 1c-.2.5-1 .9-2.8 1.3-1 .2-1.9.5-2.4.9-1 .6-1.1.7-3.3 1-1 .3-1.9.5-2.3.9-1.1.7-1.5.8-4.7 1.2-2.2.2-3.1.4-4.2.9-2 .8-4.6 1-13 1-7.6-.2-7.5-.2-9-1.3-.3-.2-1.2-.4-2.7-.6-2.5-.4-3-.5-3.7-1.2-.4-.3-1.1-.6-2-.8-1.7-.4-2-.6-2.8-1.4-.3-.3-.8-.6-1.2-.6-.4-.1-1.1-.5-1.6-1-.5-.4-1.3-.9-1.8-1-1-.5-1.3-.7-1.6-1.3-.2-.4-.5-.6-1-.7-.4 0-1-.4-1.4-.8l-1.8-1.4a6 6 0 0 1-1.4-1.1c0-.2-.6-.6-1.2-.9-.6-.2-1.1-.6-1.3-1-.3-.5-.6-.7-1-.8-.4 0-1-.5-1.5-1-.5-.4-1.4-.9-2-1.1l-1.6-1c-.3-.4-.9-.7-1.6-1a5 5 0 0 1-2-1c-.6-.6-1-.7-2.8-1-2.1-.4-2.6-.6-3.6-1.3-1-.7-10-1-18.5-.5"/>
  </g>
</svg>
