<svg xmlns="http://www.w3.org/2000/svg" width="399.9" height="399.9" display="block">
  <g fill-rule="evenodd">
    <path fill="#da233f" d="M187.7 71.3a1170.1 1170.1 0 0 0-24.1 13.9l-4 2.2-3 1.7h-39.2v19.4h40l2.2-1.3a445.7 445.7 0 0 1 11-6.4 218.7 218.7 0 0 1 9-5.3l1.6-1a419.2 419.2 0 0 0 8-4.6l1-.6v-9.7L190 70l-2.4 1.4m22.7 8.3v9.7l1 .6 1 .6a176.3 176.3 0 0 1 8.6 5 184.3 184.3 0 0 1 8.7 5l3.3 2 6.8 4 3.6 2h39.8L283 99v-9.7h-39.3l-3-1.8a451.8 451.8 0 0 0-7.3-4.2l-6.6-3.8-7.8-4.5a1080.1 1080.1 0 0 0-7.4-4.2l-1.3-.8v9.7m-99.5 75.5c-.3.2-.2 32.3 0 32.6.3.2 1.3.2 3.4.2h3v99.6l.7.5.8.5a41.3 41.3 0 0 1 5.2 3 96.1 96.1 0 0 1 7.9 4.5 76 76 0 0 0 5.1 3 70.3 70.3 0 0 0 5.2 3 53 53 0 0 0 4.4 2.5 27.4 27.4 0 0 0 2.9 1.7A1470.3 1470.3 0 0 0 180 324a5941.1 5941.1 0 0 1 10 5.6s.2-7.2.2-16.4v-16.5l-3.9-2.2-8.4-4.9-8.5-4.9-8-4.6a2101.7 2101.7 0 0 0-10.6-6c-.4-.4-.4-66.5 0-66.5a59.4 59.4 0 0 1 7 4 297.2 297.2 0 0 1 8.8 5 192 192 0 0 1 11.8 6.8 36.3 36.3 0 0 0 2.9 1.7 556.4 556.4 0 0 0 14.8 8.6l.9.5v20l1.6 1 1.7.8 1.7-1 1.6-.8-.1-11.4v-11.4l-6.6-3.8a4623.4 4623.4 0 0 0-35.7-20.5 1440.5 1440.5 0 0 0-10.3-6c-.3-.3-.4-1.7-.4-23.1V155h-39.6m139.2 0l-.1 25c0 22.2 0 25-.4 25l-1.6-.9-1.4-.8-1.4-.8a72.5 72.5 0 0 0-5.7-3.3 333.7 333.7 0 0 0-11-6.4 504.5 504.5 0 0 0-13.7-8 550.5 550.5 0 0 0-9.9-5.7l-1.3-.8v-9.6c0-9.3 0-10.4-.4-10.4l-1.6-.8-1.3-.7-1.1.6-1.7.9-.5.3V181l1.5.9a2292 2292 0 0 1 28 16.3 1141.5 1141.5 0 0 1 22.4 13l1 .6v62l-6.4 3.6a1484.8 1484.8 0 0 1-25.7 15l-1.4.8-1.1.7-3 1.7-2 1.1v16.4c0 16.8 0 16.8.8 16.2a86.1 86.1 0 0 1 7.4-4.4 76 76 0 0 1 5.1-3 52.2 52.2 0 0 1 3.6-2l2.6-1.5a63148.4 63148.4 0 0 0 53-30.7c.3-.3.4-3 .4-50v-49.9h6.4v-33h-19.7c-10.8 0-19.7.1-19.8.2"/>
    <path fill="#0c3062" d="M187.9 0h.5-.5m23.4 0h.5-.5m-1.5 9.2c-.1.4.2.7.9.7 1 0 1.1.6.9 3l-.5 4.2c-1.3 13.8-1 12.4-2.5 12.4-.8 0-1.4.8-.6.9 1.2 0 4 .4 6 .7 8.9 1.5 15.3-3 15.3-10.7 0-6.5-4.4-10.5-12.1-10.9a48 48 0 0 1-4.1-.3c-2.5-.5-3.1-.5-3.3 0M221 11c6.9 3.2 7.5 13.6 1.1 18a10 10 0 0 1-7.6.9c-1.7-.5-1.7-.6-1.2-4.6l.9-8c.7-7.2.5-6.4 1.6-6.8 1.4-.4 3.7-.2 5.2.5m-48.1-.4l-2.5.4-2.4.2c-3.2 0-5.6 1.1-3.1 1.4 1.3.2 1.4.6 2 7l.9 8.6c.4 3.8.4 3.8-1 4-.8 0-.9.1-.8.5.1.4 2.4.4 5 0 .6-.2 1.9-.3 2.8-.3 7 0 12.9-6.5 11.6-13-1.3-6.4-5.6-9.4-12.5-8.8m3.8 1.5a9 9 0 0 1 5.4 7c1.6 7.3-2.6 12.7-9.5 12.3-2.1-.2-1.8 1-2.8-9.4-1-10.4-1-9.4-.2-9.7l1.5-.5c1.4-.5 4.2-.4 5.6.3m68.7 1.9c-.3.3-.1.8.3 1 1.2.2 1.2.6.3 4.4l-2.2 8.8c-1.5 6-1.6 6.2-2.4 5.9-1-.4-1.3-.3-1.3.2 0 .4 0 .6.7.7l5 1.4 4.2 1.2v.8c.2.8.6 1 .9.4.1-.3 1.8-6.5 1.8-6.9 0-.3-.6-.5-.7-.2l-.4 1C251 35 249.7 36 248 36c-1 0-2.8-.4-3.1-.7a1126 1126 0 0 0 2.6-10.6c.6-2.4.7-2.5 1.6-2.1 1.1.4 1.1.3.8 3.3 0 .5 0 .7.4.7h.5l.7-3.7c.5-1.9.7-3.4.7-3.5-.4-.4-.8 0-1 1-.1 1.5-.2 1.5-1.5 1.2-.9-.2-1.1-.3-1.1-.6 0-.4 1-4.2 1.3-4.6 0 0 .7 0 1.5.4 3 1 3.4 1.7 2.9 5.5 0 .3 0 .4.3.4.4 0 2-4.8 2.2-6.4 0-.6-.8-.7-1-.2-.4.7 0 .7-5.4-.8-5-1.3-5-1.3-5.1-1.1m-103.9 3.6c-.1.3 0 5.2.3 17l.1 5-.8.4c-.9.3-1 .4-.7.8.2.2 5.1-1.3 5.5-1.8.3-.3 0-.8-.4-.6-1 .4-1.8.3-2.3-.2l-.5-.5V26.4c.1-.2 1.9-.9 2.2-.9l1 1.4c6.4 10 6 9.4 5 9.7-.6.2-.8.4-.8.8 0 .7 0 .7 2.2-.1 1-.4 2.3-.9 3-1 1.1-.5 1.4-1.3.3-1.2-.8 0-1.8-.6-2.6-1.9l-5.5-8.4c-5-7.6-5.6-8.2-6-7.1m2.2 5.4c1 1.5 1 1.5 0 2-1.2.5-1.2.4-1.2-1.6 0-2.1 0-2.2 1.2-.4M281 26.9c-.1.2 0 .4 0 .4.2 0 .6.3.9.6l.6.6-.7 1.4a782.1 782.1 0 0 1-6.7 14.6c-.6 1.1-.7 1.2-1.8.7-.6-.2-.8-.2-.9 0-.3.5-.2.6 5.7 3.6 2.8 1.4 3 1.6 2.6 2.3-.3.5.2 1 .6.7a86 86 0 0 0 4.3-9.4c-.3-.6-.7 0-1.8 2.2-1.7 3.4-2.8 4-5.4 3.3-1.5-.4-1.5-.6-.2-3.4a572.5 572.5 0 0 0 7.1-15l.8.4c.8.3 1.4.2 1.4-.2 0-.3-5.6-3.2-6.1-3.2-.2 0-.4.2-.4.4m-165.8 2c-1.5.4-2.5.8-4.4 2l-4.5 2.4c-3 1.4-3.7 2.5-1.3 1.7 1-.3 1.7.8 5.3 8.6l2 4.6c2 4.1 2 4 1 4.5-.6.3-.8.5-.8.8 0 .6-.4.7 3-1l3.4-1.5c3.7-1 7.3-5 8.4-9.1 1.9-7.3-5-14.6-12.1-13m3 2c7 2.4 9.3 12 4.2 17a9.7 9.7 0 0 1-5.3 2.4c-.8 0-.3.9-6.1-11.4l-1.6-3.3c-1-2-1-1.9.5-3 2.7-2 5.5-2.6 8.2-1.7m75.4 9.6l-4.7.4a123.9 123.9 0 0 0-22.6 3.3 157.1 157.1 0 0 0-49.6 20.4 166.2 166.2 0 0 0-54.1 55.7 180.3 180.3 0 0 0-7.9 15.4 160.3 160.3 0 0 0-1.1 126l1 2.4a171.4 171.4 0 0 0 25 39.5A162.7 162.7 0 0 0 186.7 359a187.6 187.6 0 0 0 31.5-.3 158.3 158.3 0 0 0 86.4-37.6 159.8 159.8 0 0 0 53-151 170 170 0 0 0-4-16.2c-2.5-9-9.4-24.8-15.5-34.9a160.2 160.2 0 0 0-144.8-78.5m113.3 3.2l-8 6.7c-6.7 5.7-6 5.2-6.6 4.8-1.4-.8-1.4-.2 0 .8 2.8 2 3.5 2.5 3.9 2.4.3-.2.2-.3-.5-1-1.3-1-1.2-2 .7-3.4l1.7-1.4a153.7 153.7 0 0 1 5.3-4.6c.3 0 2.3 1.4 2.3 1.6 0 .5-4 11.6-4.1 11.6l-.9-.3c-.6-.4-1.2-.2-1 .3.1.4 5 3.6 5.3 3.5.4-.1.3-.4-.2-1-.7-.8-.7-.9.1-3.5l4.8-16c.5-1.9.5-2 .2-2.3-.5-.3-.3-.5-3 1.8M89 44.5l-2.7 2v.4l.2.5.6-.4c1.4-.9 1.3-1 5 4.6l4 6.2c3.3 5.2 3.1 4.6 2 5.3-.8.6-1 1.2-.4 1.2.2 0 5.3-3.4 5.8-4 .6-.4-.3-.7-1-.3-1.3.6-1.4.5-6-6.6-.5-1-2-3.3-3.3-5.1-2.4-3.8-2.4-3.7-1.4-4.5.5-.4.6-.7.5-1-.2-.5-.4-.3-3.3 1.7m217.5 1.9c-.6 1.8-.7 1.9-1.5 1.4-1-.6-1-.6.4-1.8 1.6-1.4 1.7-1.4 1.1.4m-236 10.8c-.2.3-.2.4.1.9.5.5.4.8 0 .8-1.5 0-3.2 2.4-3.2 4.3 0 4 3.3 5.7 8.6 4.3 4.5-1.1 5.7-.9 7.5 1.5 1.9 2.4.5 7-2.6 8.5-5.1 2.5-10.6-2-7.7-6.3 1.7-2.5 5.5-.7 4 2-.3.6 0 .7.8.3 2.4-1.2 1.2-4.6-1.6-4.6-6 0-7 8.5-1.4 10.6 4.7 1.8 10.7-3 10.7-8.8 0-4.9-4.3-7.5-10-6-4.4 1.2-5.6 1.2-7-.3-1.1-1.4.3-4.3 2.2-4.3 1.2 0 1.8.5 3.5 2.3.8.9 1 1 1.2.7.4-.4.5-.1-2.5-3.7-2.3-2.6-2.3-2.6-2.6-2.2M197 59.4c.2.8.2 32.3 0 32.7l-2.6 1.8a1557.5 1557.5 0 0 0-16 9.2 2527 2527 0 0 1-18.9 11l-2.3 1.4h-46.5l-.1-16.6V82.3h22.8c18.7 0 22.9 0 23.4-.2l4.9-2.7A3890.1 3890.1 0 0 1 195 60c2-1.2 1.9-1.2 2-.6m10.3 1.6a428.9 428.9 0 0 0 14.9 8.6 500.8 500.8 0 0 0 15.3 9 245.3 245.3 0 0 1 6.2 3.5c.5.2 4.2.2 23.4.2H290l-.1 16.6v16.5l-23.3.1h-23.3l-1-.6-1-.6a159 159 0 0 1-10-5.7 330.8 330.8 0 0 0-12.2-7.1 1217.2 1217.2 0 0 0-15.6-9.2c-.2-.3-.2-32.6 0-33 .1-.5 0-.6 3.8 1.7m129.2 6.6c-2.6 1-3.4 3.9-2.2 8.2 1.2 4 1.3 6.2.4 7.4-1.7 2.7-5.5 3-8 .7-3.5-3-3.4-8.5.3-10.4 3-1.5 6.5 2 4.3 4.4-.8.7-.9.7-2.3.3-.8-.2-.5.5.6 1.3 2.1 1.4 3.8 0 3.4-3a5 5 0 0 0-8.7-2.8c-5.8 6.4 4.3 16.9 11.1 11.7 2.6-2 3-5.2 1.4-10.6-1-3.2-1-3.8-.4-5 1-2 3.5-1.8 4.6.4.6 1.2.2 2.4-1.6 4.3-1 1-1 1.1-.8 1.4.4.4.4.4 3.4-2.8 2.3-2.5 2.4-2.6 2-2.8-.4-.2-.5-.1-.8.2-.4.6-.6.6-.9-.2a4.5 4.5 0 0 0-5.8-2.7m-285.4 14a9.1 9.1 0 0 0-6.5 7.1c-.2 1.2-.3 1.4-.8 1.1-.7-.4-.7-.4-2.2 1.5-1.4 1.6-1.4 1.7-1.1 2 .3.4.3.4 1-.1.8-.9 1.2-.8 2.6.4a1960.8 1960.8 0 0 0 12.7 11.1l-.6 1c-.6.7-.7 1.1-.1 1 .3 0 4.9-5.7 4.9-6 0-.4-.5-.3-1.2.4-1.1 1.2-1.7 1-3.6-.5-.8-.7-.8-1.1.3-1.5a61.9 61.9 0 0 0 5.9-2.1c3.4-1.3 7.8-6.2 5.9-6.6-.2 0-.3 0-.3.2 0 .8-1.9 2.3-3.8 3.1l-2.4 1c-1.5.8-1.7.7-1-.6 3.4-7-2.4-14.5-9.7-12.5m3.8 2.7c6.9 2.2 7.6 9.8 1.3 12.8-1 .5-1.8 1-1.8 1.2 0 .5-.2.4-3.2-2.2l-4.7-4c-.9-.8-1-.9-1-2 0-4.5 4.6-7.3 9.4-5.8m299.9 2c-.4.1-.3.4.2 1 .8 1.2 1 1-13 11.8-1.4 1-1.7 1-2.1.2-.4-.5-1-.8-1.2-.4-.1.2 1 1.7 4.6 6.6l1.7 2.3-.5.5c-.4.5-.5.6-.3.9.3.4 6.2-3.9 6.3-4.5.2-.8-.5-.7-2 .3-2.3 1.5-3.1 1.4-5.2-1.1-1.2-1.4-1.2-1.5 0-2.3l2.9-2.3c7.2-5.7 6.5-5.2 7-4 .5 1 .4 1.2-.7 2.4-1 1-1.2 1.6-.5 1.6.3 0 5.5-4.2 5.5-4.5 0-.5-.4-.4-1.3.2-1.2 1-1.3 1-2-.1-.9-1.2-.8-1.4.7-2.5l2-1.4.6-.5 1 1.5c1.5 2.4 1.4 4-.4 5.6-.7.6-1 1-.8 1.2.2.6.4.4 3.1-1.8 3-2.4 3.4-3.2 1.4-2.6-.3.2-.8-.3-3.4-4-1.6-2.4-3-4.2-3.1-4.2h-.5m-145.6 15.6a765.5 765.5 0 0 0 16.4 9.5c5 3 11 6.6 13.6 8l4.5 2.6 22.8-.2h23.2c.4.1.4 6.8 0 7-1 .3-46.4 0-47.1-.3a132.9 132.9 0 0 1-8.7-5 256.6 256.6 0 0 1-8.5-5l-6.4-3.7a642.8 642.8 0 0 0-14.7-8.5l-.8-.6-.1-3c0-2.9 0-4 .2-4l5.6 3.2M197 99.6c.1.4.2 2 .1 3.3 0 3.1.6 2.4-4.8 5.6a2850.3 2850.3 0 0 1-33.3 19.3l-1.7 1h-23.1c-12.7 0-23.3-.1-23.4-.2-.2-.1-.2-1-.2-3.6v-3.4H134l23.3-.2 2-1.2a240.1 240.1 0 0 1 9.9-5.6A4857 4857 0 0 0 196.7 99c.1 0 .3.3.3.6m-167 7.7c0 .2 0 .4.3.7.6.4.6.5-.6 2.8a82 82 0 0 0-3.7 7.3c0 .4.6.5.9.1.7-1.2 1.6-1.4 3-.5l2 1.1a825 825 0 0 1 10.9 6c1.8 1 1.8 1 1.2 2-.5 1-.5 1.3.1 1.3.3 0 1-1.3 2.8-4.7 2.5-5 2.6-5 3.3-4.6.6.5.8.4.7-.1 0-.3-.6-.8-2.2-1.7l-3.2-1.9c-.8-.4-1-.5-1.3-.3-.5.4-.3.6 1 1.3 2.4 1.4 2.8 2.9 1.4 5.6-.8 1.8-.5 1.8-4.6-.5l-4.4-2.4c-3.4-1.8-3.4-1.9-2.6-3 .5-.6 1.8-.7 2.8 0 .7.5 1.2.5 1.2 0 0-.2-.8-.8-2.2-1.6l-3.1-1.7c-1-.6-1.3-.6-1.3 0 0 .2.3.6 1 1 1.2.6 1.3.7.7 2-.6 1.3-.5 1.3-3 0-2.2-1.4-2.2-1.3-1.2-2.9 1.5-2.7 3-3.2 5.1-2 1.2.5 1.6.6 1.6 0a38 38 0 0 0-6.1-3.6c-.2 0-.4 0-.5.3m340 2l.1.6c.6 1 .3 1.6-1.2 2.3l-2 1a1055 1055 0 0 1-12 6.7c-.8.5-1.3.4-1.3-.2 0-.5-.7-1.1-1-1-.4.2-.3.5 1.4 3.9 1.3 2.4 1.8 3.3 2.1 3.3.6 0 .6-.2 0-1.4-.5-1.3-.3-1.7 1.3-2.6l1.4-.8c.1 0 .2 2.2.2 4.7 0 6.6.7 9.6 2.5 10.8 1.1.8 1.5.5.7-.6-.9-1-1.2-2.9-1.2-5.8 0-3-.1-3 1.3-1.5 2.5 2.6 5 3.4 8.3 2.5 6.9-2 8.5-10.6 3-15.8-1.6-1.6-1.6-1.6-1.1-2 .3-.2.3-.4-.7-2.3-1-2-1.5-2.6-1.8-1.9m-173 3.3c.3 1 .1 6-.2 6.3a271 271 0 0 0-12 7 204.5 204.5 0 0 1-8.9 5.3 712 712 0 0 1-15 8.8l-3.5 2h-46.9l.1-3.4V135h46.7l3.2-2a338.1 338.1 0 0 1 10.3-6 839.8 839.8 0 0 1 18.2-10.5l4.3-2.5c3.8-2.3 3.6-2.2 3.7-1.5m11.3 2.1a126.2 126.2 0 0 0 8.6 5 70.3 70.3 0 0 1 5.1 3 230.2 230.2 0 0 1 11.3 6.4 68.5 68.5 0 0 0 5.2 3 60.6 60.6 0 0 0 3.7 2.2l1 .6 23.4.1 23.3.1v6.9h-46.8l-2.5-1.4a6563.7 6563.7 0 0 1-35.2-20.5c-2.2-1.3-2-1-2-4.5s0-3.8 1-3.2l4 2.3m163 .5c4.6 2.2 4.8 9.5.3 12.6-5.5 3.7-10.6 1.3-10.6-5 0-1.8 0-2-.4-2.1-.9-.2-.6-.4 5.4-3.6a335 335 0 0 0 3-1.6c1.3-.8 1.3-.8 2.4-.3m-351.8 17c-.5 1.5-.9 2.8-.8 2.9.2.3.7.1.9-.4.8-2.1 1-2 8.2 3.6 6.6 5.1 6.4 4.8 3.5 4.5l-4.4-.3c-10.9-1-10-.8-9.5-1.8.4-.9.4-1.3 0-1.3-.5 0-3 6.6-2.6 6.9.4.2.5.2.7-.4.6-1.3.7-1.3 4.2-1l15.4.9h2.2l.2-.5c.3-.7 1.3.1-8.4-7.3-8-6-8.3-6.2-8.2-6.9.4-2.7-.3-2.2-1.4 1m364.9 10.3c-.2.1-.2.4-.1 1 .2 1.4.7 1.2-9.5 4.5l-6 1.8c-2.3.8-2.3.8-2.6-.5-.3-1-.4-1-.8-.8-.3.2-.4 0 1.6 6.6 1.2 4.2 1.2 4.4.4 4.4-.3 0-.4.1-.4.5 0 .8.1.8 3.5-.4l3.5-1.2c.4-.1.5-.9 0-.9a4 4 0 0 0-1 .3c-2.1 1-4.3 0-5-2.3l-.5-1.6c-.1-.5 0-.6.3-.8.8-.5 11.8-3.6 12-3.4.9.9-.2 2.7-1.8 3-1 .1-1.3 1-.4 1 1 0 6.8-2 6.8-2.3 0-.7-.4-.8-1.7-.4-1.4.4-1.4.4-1.7-.8-.3-1.1-.4-1 1.9-1.8 2.3-.9 2.6-1 2.7-.6 1.2 4 .8 5.7-1.2 6.2-1 .3-1.8.8-1.8 1 0 .5.3.6 1 .4l6-2c.3-.2-.3-.8-1-.8h-.5l-1.4-4.8c-1.9-6-1.7-5.7-2.3-5.3M157.4 173v24.8l.5.4.7.4 1.3.7 1.1.7 2.8 1.6A1806 1806 0 0 0 187 215a15568.8 15568.8 0 0 0 20.8 12l2.6 1.6V257l-1.6.9a324.6 324.6 0 0 1-8.6 4.7c-.5 0-10-5.5-10-5.9-.2-.2-.2-4.7-.2-10V237a320.4 320.4 0 0 0-13.5-7.8 27.2 27.2 0 0 0-3.3-1.9 831.4 831.4 0 0 0-15.8-9v52.3l3.4 2a620.4 620.4 0 0 1 11.5 6.8l3.5 2a1107.2 1107.2 0 0 1 21.2 12.7c.2.8.2 45.6 0 46-.2.2-.3.2-.7 0a204.5 204.5 0 0 0-10.5-6.1 1127.1 1127.1 0 0 0-15-8.7 672.8 672.8 0 0 1-13.6-7.8 7173.4 7173.4 0 0 0-44-25.3l-2.5-1.5-.1-47.8c0-38-.1-47.9-.3-47.9a236.7 236.7 0 0 0-6 0c-.4-.2-.6-46.5-.2-46.8 0 0 12-.2 26.7-.2h26.6V173m139.1-1.5c0 17.6 0 23.3-.2 23.5-.2.2-.8.3-3 .2h-3.1c-.2 0-.2 9.7-.2 47.8v47.8l-2.8 1.6a321 321 0 0 1-12.2 7 76.6 76.6 0 0 0-6.1 3.6 98.6 98.6 0 0 1-8 4.6 367 367 0 0 1-8 4.6 2104.5 2104.5 0 0 1-34 19.7 138.2 138.2 0 0 0-6.3 3.7c-5.6 3.3-8.7 5-9 5-.4-.2-.4-46.1 0-46.6.2-.3 1.5-1 3.8-2.3a5932.7 5932.7 0 0 0 32.5-19l3-1.7v-56.4l-2.5-1.5a1207.2 1207.2 0 0 1-22.6-13 3316.2 3316.2 0 0 1-27.4-15.8l-.4-.4v-13.9c0-10.8 0-14 .2-14.2a84.7 84.7 0 0 1 9-5.3c1-.6 1-.6 2.2 0a234.3 234.3 0 0 0 5.8 3.4l3.2 1.8v20l.4.2a578.8 578.8 0 0 0 16.6 9.6 385.2 385.2 0 0 1 11.6 6.7l3.9 2.2v-22.8l.1-23.1c.1-.2 5.6-.2 26.8-.2h26.7v23.2M11.1 161.1l-.9 3.4c-.2.7.5.6.9-.1.6-1.1 1-1.3 2.6-.8l15.6 4c.6 0 .6.3.4 1.8 0 .5 0 .6.3.6a20 20 0 0 0 1.9-6.5c.2-1.2-.6-1.1-1 0-.3 1.3-.7 1.3-5 .1a817 817 0 0 0-13.6-3.6v-.7c.4-.9.3-1.4-.1-1.4s-.5.5-1.1 3.2m380.2 8.2l-.1.9c0 1.3-.1 1.3-4.4 2a1011.7 1011.7 0 0 0-13.9 2c-.2.2-.5-.2-.7-1.2-.2-1.5-1-1.6-.8 0 .6 4 .6 4.2 1.1 4.3.4 0 .5 0 .5-1 0-1.3-.4-1.2 7-2.3l6.6-1c.8-.1.7.3-.1 1a1234.6 1234.6 0 0 0-12.6 10c-2.2 1.6-1.7 1.8 3 1a648.8 648.8 0 0 1 14.6-2.3c1.3-.2 1.4-.2 1.6 1.1.2 1 .5 1.4.8.8.2-.5-.4-5-.7-5.1-.4-.2-.7 0-.6.5.1 1.8.4 1.7-8.4 3a148.6 148.6 0 0 0-5.4.7c0-.3.6-.8 8.3-6.8l5.1-4c.5-1.1-.3-4.2-1-3.6M7.6 180.6l-.3 2.5c-.3 2.2.5 3 .8 1 .2-1 .7-1.2 2.7-1l4 .5 7.2.7c.3.2.6 0-7.2 3.6l-7 3.2-1.3.6v1.2l-.1 1.8c0 .8.6.9.7.1.3-1.4 1.2-1.6 6-1l10 1c3 .2 3 .2 3.1 1.4 0 .9.5 1.5.8.9.3-1 .6-4.9.3-5.1-.6-.4-.8-.3-.8.4 0 1.8-.5 1.8-11.1.7a40 40 0 0 0-2.7-.2c-1.5 0-.6-.5 7.3-4.1a989.7 989.7 0 0 0 7-3.3c1.1-.5 1.7-.9 1.7-1.4 0-.4-.4-.5-4.3-.8a1848.7 1848.7 0 0 1-12.3-1c-4.1-.3-4-.2-3.8-1.5.2-1 .1-1-.2-1-.3 0-.4.1-.5.8m392.3 7.4v.4c.1-.3.1-.6 0-.8v.4M0 188.2v.4c.1-.3.1-.6 0-.8v.4m374.3 10.6v3.1c-.2 1.6-.2 1.6.2 1.6s.5 0 .5-.6c0-1.5 1.2-2.4 2.6-2l5 1.7c4.8 1.6 4.6 1.5 4.5 3.1-.2 1.5.1 1.3-4.6 2.6l-5.4 1.4c-2.1.5-2.1.5-2.1-.8 0-.8-.1-1-.5-1-.3 0-.4.1-.3 3.4 0 3.4.3 4.4.8 2.7.3-1 1-1.3 6.6-3 15-4.3 14.3-4 13.8-4.8-.2-.3-1.1-.7-13.5-4.8-6.2-2.1-6.8-2.4-6.7-3.2 0-.7 0-.9-.4-.9s-.4.2-.5 1.5m15.9 6.3l1.2.5c0 .4-2.9 1.2-3.1 1-.5-.5-.2-2.2.4-2l1.5.5m-384 5.1c-.3 1 .3 5 .7 5.1.4 0 .5 0 .5-.7 0-1.3.2-1.4 2.9-1.6l4.5-.4c9.3-.9 10.3-.8 11.3 1.5 1.3 3.2-.7 4.9-6 5.1l-7.4.5c-5 .3-4.8.3-5-1-.3-1.5-1-1-.9.6l.3 3.4c.1 2.2.2 2.6.7 2.4.3-.1.4-.4.4-1 0-1.1.4-1.3 4.5-1.6 11.3-.7 12-.8 13.7-2.2 1.3-1 1.7-2.3 1.4-4.6-.5-3.7-2.4-5-6.6-4.6a63 63 0 0 1-14 .6c-.2-1.4-.3-1.8-.6-1.8l-.3.3M0 211.6v.4c.1-.3.1-.6 0-.8v.4m399.8 0v.4c.1-.3.1-.6 0-.8v.4m-134 142.1v.9l.2.6-4.2 1.6c-6.3 2.4-6.3 2.4-6.1 2.9 0 .2.4.2 1.2.2 1.4 0 .9-1 5.1 9.3 3.8 9.2 3.6 8.4 2.4 8.8-1 .3-1.2.5-.8 1 .2.3.6.2 5-1.6 5.4-2.2 5.5-2.3 5.7-1.6.3.6.6.9.9.6.3-.3-2.4-7.7-2.7-7.7-.8 0-1 .5-.6 1.5 1 2.2.9 3.6-.2 4.5-.4.4-3.1 1.6-3.4 1.6-.3 0-2.8-5.8-4.9-11-1-2.5 1.9-2.5 3.1 0 .5.9 1 1.1 1 .5 0-.5-2.4-6.5-2.6-6.6-.7-.2-.8.3-.3 1.5.6 1.3.5 1.5-.8 2-1.2.4-1.2.4-2.2-2l-.9-2.2.6-.5c2.4-2 5.3-1.2 6.5 1.6.5 1 .6 1.1 1 1 .5-.3.5 0-.8-3.1-1.7-4.3-1.8-4.3-2.1-3.8m-130.3 4.1c-9.4 3.5-11 15.4-2.8 20.3 3.4 2 9.2 2.7 10.6 1.3.3-.3-.2-1.1-.6-1-4 1.8-9 0-11-3.8-2.5-5-1-11.8 3.2-15 5.4-4 14 1.6 11.5 7.6-.4 1-.3 1.3.3 1.3a43 43 0 0 0 3.3-7.9c-.2-.5-.5-.3-.9.5-.5 1.1-.7 1.1-2-.2-3.2-3-8-4.4-11.6-3m95 8l-2.7.4c-.7 0-1.2.5-1 .8.2.2.5.3 1 .3 1.4-.1 1.4-.2 2.6 6.5l.6 3.3c1.9 10.3 1.8 9.4 0 9.6-.5 0-.7.5-.4.9.2.2.2.2 7.6-1.2 2.5-.5 2.8-.5 2.9.4 0 .6.6.9.8.4l-.7-5.3-.9-5h-1l.5 2.5c.9 4.2 0 5.7-3.5 6.3-.8.2-1 0-1.3-2.6a548.6 548.6 0 0 0-2.7-15.4c-.3-1.2-.3-1.2 1-1.4.8 0 1-.1 1-.5-.2-.6-1-.6-3.7 0m-64 0c-.3.5 0 1 .7 1 1.3 0 1.4 1.3.4 7.4a285.6 285.6 0 0 0-1.4 10.2c-.3 2-.3 2-1.6 1.9-1-.1-1-.1-1 .4 0 .6 0 .6 2.7 1 4.2.4 4.5.4 4.5 0 0-.3-.2-.5-.5-.5-1.1 0-1.6-.9-1.3-2.4l.3-2.7c1-8.3 1-8.5 2-8.4 4.8.7 5.3.8 5.3 1.2a82.2 82.2 0 0 1-1.6 10.5c-.3 2.6-.3 2.5-1.5 2.4-1.7 0-1.6.5.2.8 6.1 1 6 1 6 .4 0-.4 0-.5-.7-.6-1.2-.2-1.4-.9-1-3.1a315.5 315.5 0 0 0 1.6-11.2l.6-4 .2-1.3 1 .1c1.2.1 1.8-.5.7-.8-2.3-.5-7-1-7-.7 0 .3.6.8 1 .8 1 0 1.3 1.4.8 4-.3 1.5-.1 1.5-3.2 1-3.2-.5-3-.2-2.8-3 .3-3 .3-2.8 1.5-2.7.9 0 1.6-.3 1.3-.6-.1-.1-2-.5-4.6-.8a66.8 66.8 0 0 1-2.7-.3m37.7 2.8c-1.9.1-3.2.3-3.4.4-.4.4 0 .8.6.8 1.6 0 1.5-.6 2 14.2.2 5.8.2 5.6-1.2 5.6-.8 0-1 .1-1 .4 0 .5 6.9.5 7.3 0 .4-.3 0-.8-.8-.8-.7 0-.8 0-1-.5-.2-.6-.6-9.7-.7-15.7v-3.3h1c.9-.1 1-.2 1-.7 0-.5.2-.5-3.8-.4M187.9 400h.9l-.4-.1h-.5m23.4 0h.5-.5"/>
    <path fill="#95a4b6" d="M185.7.1l-2 .2c0 .1-1.4.3-3 .3-3.6.2-3.9.2-4 .4l-1.4.1c-.6 0-1.1.1-1.1.2l-.8.2c-2 .1-3.6.3-3.7.5l-1.3.1c-.6 0-1 .1-1.1.2l-1.8.3c-.9 0-1.7.2-1.7.3 0 .2-.5.2-1 .2l-1.2.2a7 7 0 0 1-1.7.4c-.7 0-1.3.2-1.3.3l-1 .1-.8.2c0 .1-.7.3-1.5.4-.7 0-1.4.2-1.5.3l-.7.1c-.3 0-.5.1-.5.2s-.6.3-1.3.3c-.8.1-1.4.3-1.5.4l-.7.1c-.3 0-.5.1-.5.2s-.6.3-1.2.3c-.7.1-1.2.3-1.2.4l-.6.1c-.4 0-.7.1-.7.2-.1.1-.6.3-1.1.3-.6.1-1 .3-1 .4l-.6.1c-.4 0-.6.1-.6.2s-.5.3-1 .3c-.6.1-1 .3-1 .4l-.5.1-.6.2-1.2.4c-.5 0-1 .2-1 .3l-.7.1c-.4 0-.5.1-.3.2s0 .2-.7.3c-.6.1-1 .3-1 .4l-.5.1c-.3 0-.5.1-.5.2s-.4.3-.8.3l-1 .4-.6.1-.4.2c0 .2-.4.3-.9.4-.4 0-.8.2-.9.3l-.5.1c-.2 0-.3.1-.3.2 0 .2-.4.3-.8.4-.5 0-.8.2-.8.3l-.4.1c-.3 0-.4.1-.4.2 0 .2-.3.2-.5.2l-1.2.4c-.4.2-.8.4-.9.3v.1c.1.2 0 .2-.2.2l-1.3.5c-.5.3-1.2.6-1.6.6-.3.1-.5.3-.5.4l-.4.1c-.3 0-.4.1-.4.2 0 .2-.2.2-.3.2-.5 0-2 .8-1.8 1h-.3a4 4 0 0 0-1.8.9l-.8.2c-.4.1-.6.3-.6.4l-.3.1c-.2 0-.3.1-.3.2l-.7.4c-.4 0-.7.2-.7.3l-.3.1c-.2 0-.3.1-.3.2s-.4.3-.7.3c-.4.1-.7.2-.7.4l-.3.1c-.2 0-.3.1-.3.2s-.4.3-.7.3c-.4.1-.7.2-.7.4l-.3.1-.4.2-.9.5-.8.5c0 .1-.3.3-.6.3-.3.1-.7.3-1 .6l-.9.5c-.3 0-.5.2-.5.3l-.3.1c-.2 0-.3.1-.3.2l-.5.4c-.3 0-.5.2-.5.3l-.3.1c-.2 0-.3.1-.3.2s-.3.3-.5.3l-.5.3c0 .2-.2.2-.4.2-.3 0-.4.1-.4.2 0 .2-.2.2-.3.2-.2 0-.5.2-.8.5l-1 .6c-.3.1-.5.3-.5.4l-.3.1c-.2 0-.3.1-.3.2s-.2.3-.5.4c-.2 0-.6.2-.7.4-.2.1-.4.2-.5.1-.1 0-.2 0 0 0 0 .2 0 .4-.2.4l-.4-.1-.1.1c0 .2-.1.3-.2.3-.1-.1-.3 0-.3.2-.1.3-.3.4-.5.4s-.6.3-.8.5c-.2.3-.6.6-.9.6l-1 .7-.6.4-.4.2c0 .1-.6.6-1.3 1-.8.5-1.4 1-1.4 1.1l-.4.1-.3.2s-.4.5-1 .8l-1 .9-.2.1c-.2 0-.3.1-.3.2s-.2.3-.4.3-.7.5-1.1.8l-1 .7-.5.4-1 .7a7 7 0 0 0-1 .9c-.1.2-.4.4-.6.4l-.4.3c0 .2-.2.3-.4.3-.1 0-.2.1-.2.3l-.4.3c-.2 0-.6.4-.9.7-.3.3-.6.5-.8.4h-.1c0 .5 0 .7-.5.8-.3 0-.6.3-.6.5-.1.2-.3.5-.5.5l-.2.5c0 .2-.2.2-.3.2-.2 0-.7.2-1.3.8-.5.4-1 .9-1.3 1-.2 0-.4.2-.4.4-.1.2-.3.5-.5.5l-.2.3c.1.2 0 .2-.1.2-.2 0-.9.6-1.6 1.3l-1.5 1.3c-.2 0-1.2 1.1-1.1 1.3 0 0 0 .2-.3.3-.5.2-2.8 2.5-2.7 2.7l-.2.1a13 13 0 0 0-3.1 3.2c-.3 0-2.2 2-2.2 2.2l-1.4 1.5c-.8.7-1.4 1.5-1.3 1.6l-.1.1h-.2c0 .1-.4.6-1 1.1-.5.6-1 1.1-1 1.3a35.9 35.9 0 0 1-3.6 4.3l-.5.7c-.3.2-.5.6-.5.7 0 .2-.2.4-.4.4l-.4.3-.5.7a3 3 0 0 0-.6.8c0 .2-.2.3-.4.3 0 0-.1.1 0 .2 0 .2 0 .2-.2.2s-.4.3-.5.5c0 .3-.2.5-.3.5l-.2.4c-.1.3-.4.7-.8 1-.3.3-.5.6-.5.8l-.5.5c-.2.2-.3.5-.2.6 0 .1 0 .2-.1 0-.2 0-.3 0-.4.3 0 .3-.2.4-.3.4l-.1.3-.5.8-.5.7c0 .2-.1.2-.2.2s-.3.2-.4.5c0 .2-.3.6-.6.9l-.4.7-1.1 1.4-.3.4v.4h-.3l-.3.5c0 .4-.2.6-.3.6l-.6.9-.3.6s-.3.2-.5.7L30 94l-.4.8-.2.2c-.2 0-.2.2-.2.3 0 .2-.1.3-.2.3-.2 0-.3.3-.4.5 0 .3-.2.6-.4.8l-.1.3c0 .1 0 .3-.3.3l-.2.5c0 .3-.1.4-.2.4-.2 0-.2.2-.2.3 0 .2-.1.3-.2.3s-.3.3-.3.5c0 .3-.3.7-.5.9-.3.2-.5.7-.6 1 0 .4-.2.6-.3.6l-.1.4c0 .2-.1.3-.2.2-.1-.2-.8 1.2-.8 1.6l-.2.2c-.1 0-.3.2-.4.5l-.2.5c-.3.3-.8 1.4-.8 1.7 0 .2-.1.3-.2.3-.2 0-.2.2-.2.3 0 .2-.1.3-.2.3-.2 0-.2.2-.2.3l-.3.6-.3.6c0 .3-.2.5-.3.5l-.3.7c0 .3-.2.5-.3.4 0 0-.2 0-.2.3 0 .2 0 .5-.3.7l-.2.9-.2.5c-.2 0-.8 1.3-.8 1.6l-.2.4c-.2 0-.8 1.5-.8 1.9l-.2.2c-.2 0-.2.2-.2.4s-.1.2-.3.1h-.1c0 .1 0 .7-.6 2.2 0 .2-.2.3-.3.3l-.2.4-.4 1.3-.7 1.7c0 .3-.2.6-.3.6l-.1.4c0 .3-.1.4-.2.4-.2 0-.2.2-.3.5l-.4 1.4-.7 1.6c0 .3-.3 1-.5 1.3l-.5 1.4c0 .5-.2.8-.3.8l-.1.5c0 .3-.1.5-.2.5-.2 0-.3.2-.3.5 0 .2 0 .7-.3 1l-.2 1c0 .3-.1.5-.2.5-.2 0-.3.2-.3.5 0 .2 0 .7-.3 1l-.2 1-.2.4c-.1.1-.3.6-.3 1.1-.1.6-.3 1-.4 1l-.1.5-.2.6c-.1.1-.3.6-.3 1.1l-.4 1.2-.1.7c0 .3-.1.5-.2.5l-.4 1.2c0 .7-.2 1.2-.3 1.2l-.1.6c0 .4-.1.7-.2.7s-.3.6-.3 1.2l-.4 1.3-.1.8-.2 1c-.1 0-.3.6-.3 1.2l-.4 1.5-.1 1c0 .4-.1.8-.3.9l-.3 1.5c0 .8-.2 1.3-.3 1.3l-.1 1.1c0 .6-.1 1.1-.3 1.2l-.3 1.8c0 1-.2 1.7-.3 1.6l-.1 1.1c0 .7-.1 1.2-.2 1.3-.2 0-.3 1-.4 2.3 0 1.2-.2 2.2-.3 2.2l-.1 1.3-.2 1.5c-.2.4-.4 3.4-.4 5.7a87.9 87.9 0 0 0-.5 17.2 91.5 91.5 0 0 0 .5 17.6 28.9 28.9 0 0 0 .6 7l.1 1.2.2.9c.1 2.2.3 3.9.5 4l.2 1.2.1 1c.1 0 .3.9.3 1.8.1 1 .3 1.8.4 1.7 0 0 .2.4.2 1l.1 1.1c.1 0 .3.7.3 1.5.1.8.2 1.5.4 1.5l.2 1c0 .7 0 1 .2 1 0-.1.2 0 .2.3 0 1 .2 2.3.4 2.4l.2.8.1.5.4 1.4c0 .8.2 1.4.3 1.3 0 0 .2.2.2.6l.1.7c.2 0 .6 2 .5 2.3l.2.1.2.6.1.7.4 1.2c0 .6.2 1 .3 1 0 0 .2.2.2.5s0 .9.2 1.2l.3.9.3.8c.5 1 .5 1.2.7 2 0 .4.2.7.3.7l.2.7.1.7.4.8.2.8.5 1.3c.2.7.5 1.6.8 2l.5 1.4c0 .4.2.7.3.7l.2.5.1.5c.2 0 .3.4.4.8 0 .5.2.8.3.8l.2.3c0 .2 0 .5.2.9a40.2 40.2 0 0 1 1.7 4c.2.3.5.8.5 1.2.1.4.3.6.4.6l.2.3c0 .2 0 .5.2.9a39.6 39.6 0 0 1 1 1.7s.2.1.2.3c0 .5.6 1.8.8 1.8l.2.7c.1.4.3.7.4.7l.2.3.1.3c.1 0 .3.4.3.7.1.4.3.7.4.7l.2.3.1.3c.1 0 .3.4.3.7.1.4.3.7.4.7l.2.3c0 .2 0 .3.2.3l.2.4.4 1 1.2 2.1c.3.8.7 1.5.8 1.5l.2.5c0 .2 0 .3.2.2l.3.5c0 .4.2.6.3.6v.3c0 .2 0 .3.3.3l.4.5c0 .3.2.5.3.5l.2.3.1.3c.1 0 .3.3.3.5.1.3.2.5.4.5l.2.3.1.3.4.6c0 .4.2.6.3.6l.2.3.1.3.6.8.6 1 .3.6.1.2c.1 0 .3.2.3.4a4 4 0 0 0 1 1.6c.3.2.5.5.5 1.1h.3s.2 0 .2.2l.1.3c.1 0 .3.2.4.5 0 .2.3.6.6.9l.5.7.3.5c.2.2.5.5.5.8l.4.4s.2.1.2.3l.5.7.5.7.5.7.5.7.1.3c.2 0 .3.3.4.5 0 .3.2.6.4.6l.7.8c.2.4.5.7.6.7.1 0 .1.2 0 .4v.2c.2-.1 1.4 1 1.4 1.2l.5.7.5.9.1.2c.1-.1.4 0 .5.4l.7.8.5.5.6 1a18.2 18.2 0 0 1 1.7 2 7.7 7.7 0 0 1 1.1 1.2l.3.3 2 2.5c.4.3.6.6.5.6l.2.1c.2 0 .4.2.6.5l.6.8.6.8.5.4a24.8 24.8 0 0 0 2.8 3 31 31 0 0 1 2.8 2.9l2.2 2c1.1 1.2 2 2 1.8 2-.1-.2-.2-.1 0 0 0 .1.2.2.3.1 0 0 .9.6 1.7 1.5a37.8 37.8 0 0 0 4 3.3c.2 0 .3 0 .3.2s.2.5.5.7l1.4 1.3c.6.5 1 1 1.2 1l1 .7c.4.5.9.8 1 .8.2 0 .3.3.3.8 0 .2 0 .2.4 0 .3-.2.4-.2.5 0 .1.3.4.6 1.1 1.1.3.2.6.5.6.7 0 .3 0 .3.1 0 .2-.2.2-.2.4.1 0 .2.2.3.3.3.2 0 .5.3.8.5l.7.5c.2 0 .3.1.3.2s.1.3.3.3l.6.6c.2.3.4.5.6.4.2 0 .3 0 .4.3 0 .3.2.4.4.3.2 0 .4 0 .5.2 0 .2.4.3.6.3.4 0 .4 0 .2.2-.3.2-.3.2 0 .2l.8.5.7.5c.2 0 .3.1.3.2s.1.3.4.4c.2 0 .7.3 1 .7l1 .7c.2 0 .4.2.4.3l.3.1.4.3c0 .2.2.3.3.2l.2.1c0 .2 0 .2.2.1l.2.1c0 .1.2.3.5.4.2 0 .5.2.5.3l1 .7 1 .7s.2.2.5.2l.9.5c.1.3.5.5.8.6.3 0 .5.2.4.3 0 .1 0 .2 0 0 .2 0 .4.1.6.4l.6.3.4.2c0 .2.1.2.3.2.2 0 .5.2.5.4l.3.2c.1-.1.4 0 .5.1l.5.3c.2 0 .3.1.3.2s.2.3.5.3c.2.1.5.2.5.4l.3.1.3.2c0 .2.2.3.5.4.2 0 .5.2.5.3l.3.1c.3 0 1.5.7 1.6.9l.4.1c.2 0 .5.2.5.3 0 .2.3.3.5.3.3 0 .5.1.5.2 0 .2 1.4.8 1.8.8l.2.2c0 .2 0 .2.3.2l.3.2c0 .1.3.3.7.4.3 0 .7.2.7.3l.3.1.3.2c0 .1.3.3.7.4.3 0 .7.2.7.3l.3.1.3.2c0 .1.3.3.7.3l.7.3c0 .2 1.4.8 1.8.8l.2.2 1 .6 1 .5.4.1.6.2c0 .2.3.3.8.4.4 0 .8.2.8.3l.3.1.3.2c0 .1.3.3.7.3.4.1 1 .3 1.2.5.3.2.8.5 1.2.5l.8.4.5.1.4.2c0 .1.3.3.8.3l.8.4.5.1.5.2c0 .1.3.3.8.3l.8.4.3.1c.3 0 .5.1.5.2l1 .4c.5 0 1 .2 1 .3l.5.1.5.2c0 .2.1.2.4.2.4 0 1.3.4 2.2.9l.8.1 1 .3c.3.2.8.3 1 .3l.6.2c0 .1.4.3 1 .3l1 .4.6.1.6.2c0 .1.4.3 1 .3l1 .4.8.1.6.2c0 .1.5.3 1.2.3l1.2.4.5.1.8.2c0 .1.7.3 1.4.3l1.2.4.6.1.9.3 1.5.3c.6 0 1.2.2 1.2.3l1 .1c.4 0 .9.1 1 .3l1.5.3c.7 0 1.4.2 1.4.3l.6.1 1.2.2 2.2.4c.8 0 1.6.2 1.6.3l1.1.1 1.4.2c.1.2 2.8.5 4.2.5.1 0 .3 0 .3.2l1.3.1c.8 0 1.4.1 1.5.2 0 .1 1.5.3 3.4.4a537.3 537.3 0 0 0 35.6.4c0-.2 1.2-.4 3-.4 3.3-.2 3.7-.2 3.9-.4l1.4-.2 1.3-.1c0-.1 1.1-.3 2.4-.3l2.3-.3 1.2-.2 1.2-.2c0-.1 1-.3 1.9-.3 1-.1 1.8-.3 1.8-.4 0 0 .4-.2.9-.2l.9-.1c0-.1.7-.3 1.6-.3l1.6-.4s.3-.2.7-.2l1-.1c0-.1.6-.3 1.2-.3.7-.1 1.2-.3 1.3-.4l1-.2.8-.1c0-.1.5-.3 1.2-.4.6 0 1.2-.2 1.3-.3l.8-.2.7-.1c0-.1.5-.3 1.2-.4.6 0 1.2-.2 1.2-.3 0 0 .2-.2.5-.2l.7-.1 1-.4c.6 0 1-.2 1-.3l.8-.2.6-.1c0-.1.4-.3 1-.4.5 0 1-.2 1-.3l.4-.2c.3 0 .8 0 1-.3l1-.3c.2 0 .4 0 .5-.2l.6-.2.5-.1c.1-.1.6-.3 1-.3l1-.4s.1-.2.3-.2c.3 0 .5 0 .6-.2l.5-.2a7 7 0 0 0 2.2-.7 5 5 0 0 1 .9-.3l.8-.4.6-.2c.2 0 .5 0 .5-.2l.8-.3c.4 0 .8-.2.8-.3 0 0 0-.2.2-.2s.6 0 .9-.3l.9-.3c.2 0 .4 0 .4-.2 0 0 0-.2.3-.2l.3-.1c0-.1.4-.3.9-.3.5-.1 1-.3 1.2-.5.2-.2.7-.5 1.1-.5l.8-.4s.1-.2.3-.2c.2 0 .5-.1.7-.3l.9-.3c.2 0 .5 0 .5-.2 0 0 0-.2.3-.2l.3-.1c0-.1.3-.3.7-.3l.7-.4s0-.2.3-.2l.3-.1c0-.1.3-.3.7-.4.3 0 .7-.2.7-.3 0 0 0-.2.3-.2l.3-.1c0-.1.3-.3.7-.3l.7-.4s0-.2.3-.2l.3-.1c0-.1.3-.3.7-.3l.7-.4s0-.2.3-.2l.3-.1 1-.6 1-.5s.1-.2.3-.2c.3 0 .5 0 .6-.2.2-.3 1.5-1 1.8-1 .2 0 .3 0 .3-.2 0 0 .1-.2.4-.2.2 0 .3 0 .3-.2-.1 0 0-.2.2-.2s.5 0 .7-.3c0-.1.3-.3.5-.3l.3-.1c0-.1.2-.3.4-.3.3-.1.6-.3.7-.6 0-.2.3-.4.5-.4.3 0 .6 0 .8-.3l.6-.3c.1 0 .4 0 .4-.3 0-.1.3-.3.5-.3.3 0 .5 0 .5-.2 0 0 0-.2.3-.2l.3-.1c0-.1.2-.3.5-.3.2-.1.5-.2.5-.4 0 0 0-.2.3-.2l.3-.1c0-.2.2-.3.5-.4.2 0 .5-.2.5-.3 0 0 0-.2.3-.2l.3-.1c0-.1.1-.3.4-.4.2 0 .6-.3.9-.6l.7-.5c.2 0 .4-.1.5-.4l1-.5c.4 0 .6-.1.6-.2-.2-.2.4-.7.7-.7l.7-.4c.2-.3.4-.5.5-.4.1 0 .2-.1.3-.4 0-.3.1-.3.3-.1.1.2.1.2.1 0 0-.1.2-.3.4-.3l.2-.1c-.1-.1 0-.3.3-.3s.8-.4 1.2-.8l.8-.7c.3 0 .9-.5 1.6-1.1l.8-.6c.2 0 .4-.1.6-.4l.4-.4c.2 0 .6-.2 1-.6l1.3-1c.8-.7 1-1 1-1.3 0-.4 0-.3-1.6 1a66.7 66.7 0 0 1-3.7 2.8 190.9 190.9 0 0 1-11.6 8c-.9 1-18.8 10.8-25.4 13.8a212.2 212.2 0 0 1-51.6 15.3 69.8 69.8 0 0 1-6.1.8c-2.5.5-6.6.8-14.1 1.3a339.2 339.2 0 0 1-29-.7 110 110 0 0 1-11.4-1.4 151.7 151.7 0 0 1-21-4.3 79.4 79.4 0 0 1-5.7-1.6 205.4 205.4 0 0 1-47-21 117.6 117.6 0 0 1-13.2-8.9 187.1 187.1 0 0 1-17.7-14.4A234.5 234.5 0 0 1 34.7 312a221 221 0 0 1-18-32.9A205.3 205.3 0 0 1 1 218c-.5-5.1-.7-10.3-.7-18A177.2 177.2 0 0 1 4 161.6l.4-2.3A107.1 107.1 0 0 1 7 148.7a84.5 84.5 0 0 1 2-7 241.2 241.2 0 0 1 8.6-22.9l1-2.2a115.4 115.4 0 0 1 7.1-14A194.5 194.5 0 0 1 48.5 70a204.8 204.8 0 0 1 74.2-54.2 186.3 186.3 0 0 1 7.6-3 285 285 0 0 1 14.5-4.7 263.8 263.8 0 0 1 22.5-5.2 209.1 209.1 0 0 0 6.9-1 274 274 0 0 0 6.7-.7l4.7-.5A283.5 283.5 0 0 1 218 1a103.5 103.5 0 0 1 12.3 1.6 398.4 398.4 0 0 1 17.8 3.6 317.9 317.9 0 0 1 9.8 2.7 145.7 145.7 0 0 1 18 6.4c4.5 2 6.6 2.9 12 5.5a176.1 176.1 0 0 1 30.6 18.7 275.2 275.2 0 0 1 11.3 9A271.1 271.1 0 0 1 348 66.2l1.9 2a114.3 114.3 0 0 1 9.1 11.2l1.3 1.7a475.4 475.4 0 0 1 7.1 10.3 293.2 293.2 0 0 0 6 9.7l2.1 3.8a354.8 354.8 0 0 1 9.4 19.8 279.4 279.4 0 0 0 2.3 5.8l1 2.7a233.1 233.1 0 0 1 7.2 26.1A139.6 139.6 0 0 1 398 174l.3 3.1a131 131 0 0 1 .9 8.7 257.1 257.1 0 0 1-1 38.5 177.8 177.8 0 0 0-1.2 8.2 205.8 205.8 0 0 1-15 49.5 254.3 254.3 0 0 1-18 31.6 24 24 0 0 1-3.6 4.7l-.4.8-1 1.2a176 176 0 0 1-25.7 28.2 56.5 56.5 0 0 1-6.7 5.6l-1 1a4 4 0 0 0-1 .9c0 .3.4.1 1-.4l.9-.5c.1 0 .3-.1.4-.4 0-.2.3-.4.6-.5.2 0 .5-.3.6-.5 0-.2.3-.4.5-.4.3-.1.6-.3.7-.6 0-.2.3-.4.6-.5.2 0 .4-.2.3-.3l.1-.2c.1 0 .6-.3 1-.8l1-.8 1-1c.6-.5 1.1-1 1.2-.9.2.1.3 0 .3-.1 0-.3 1.2-1.5 1.8-1.9.2 0 .5-.3.6-.6l.5-.5 1-1 1-.8.3-.1c0-.3 1.7-2.1 1.9-2l.4-.5c.1-.3.4-.6.6-.7.3 0 .5-.2.5-.3 0-.2.5-.8.7-.8l.2-.1c0-.2 1-1.3 3.3-3.7l1.6-1.8s0-.2.3-.2l.2-.1c0-.1.4-.7 1-1.3.6-.6 1-1.2 1-1.3l1.3-1.4 1.2-1.4c0-.2.8-1.2 2-2.5l.6-.7.5-.7.5-.7.5-.6.5-.6.5-.7.5-.7.8-1 .6-1c.2-.4.5-.7.6-.7h.1c0-.1 0-.4.4-.6l.5-.7.1-.3c.2 0 .3-.2.4-.5l.2-.4c.1 0 .4-.2.6-.6l.9-1.3.5-.7.2-.4 1.6-2.4c0-.2.2-.4.3-.5.2 0 .5-.5.7-.9.1-.3.4-.6.5-.5 0 0 .2 0 .3-.2 0-.1 0-.2-.1 0l-.2-.1.1-.3c.1 0 .3-.2.3-.5.1-.2.2-.5.4-.5 0 0 .2 0 .2-.3l.1-.3c.1 0 .3-.2.3-.5.1-.2.2-.5.4-.5 0 0 .2 0 .2-.3l.1-.3c.1 0 .3-.2.3-.5.1-.2.2-.5.4-.5 0 0 .2-.1.2-.4l.1-.4c.2 0 .3-.2.4-.5 0-.2.2-.5.3-.5 0 0 .2 0 .2-.3l.1-.3c.1 0 .3-.2.4-.5l.6-1c.3-.3.5-.6.5-.8 0-.1 0-.3.2-.3 0 0 .2-.1.2-.3 0-.3.5-1.4.9-1.8l.2-.4c-.1-.1 0-.3.2-.3.1 0 .3-.3.3-.5l.1-.5c.2 0 .9-1.4.9-1.8 0 0 0-.2.2-.2 0 0 .2 0 .2-.3 0-.1 0-.3.2-.3 0 0 .2 0 .2-.2 0-.3.6-1.8.8-1.8l.3-.7c0-.3.2-.7.3-.7 0 0 .2 0 .2-.3l.1-.3c.1 0 .3-.3.4-.7 0-.3.2-.7.3-.7 0 0 .2-.1.2-.4l.1-.3c.1.1.3-.2.4-.5 0-.4.2-.8.3-.8 0 0 .2-.1.2-.4l.1-.4c.1 0 .3-.3.4-.7l.2-.7c.1 0 .3-.1.3-.4 0-.2.3-.4.4-.4.2 0 .4 0 .4-.2h-.3c-.2.1 0-1 .2-1.2.2-.1.7-1 .7-1.2 0-.1.2-.8.6-1.5a6 6 0 0 0 .5-1.6c0-.3.1-.5.3-.5 0 0 .2-.1.2-.4l.1-.4c.1 0 .3-.3.4-.8 0-.4.2-.8.3-.8 0 0 .2 0 .2-.2s0-.6.2-.9l.3-.9c0-.2.2-.7.5-1l.4-1.1.3-1.1.3-1 .1-.2c.1 0 .3-.3.4-.8 0-.4.2-.8.3-.9l.2-.6c0-.2 0-.5.2-.6l.2-.5c0-.3 0-.7.3-1l.3-.9.1-.6c.1-.2.4-.9.5-1.6l.6-1.5.3-1.2c0-.5.2-1 .3-1l.2-.8.1-.6c.1 0 .3-.5.3-1.2l.4-1.2s.2-.2.2-.5l.1-.8.4-1.5c0-.6.2-1.2.3-1.2l.2-.6.1-.9c.3-.2.4-1.1.4-2.2 0-.4.1-.6.3-.6 0 .1.2-.2.2-.7 0-.5 0-1 .2-1l.3-1.6c0-.8.2-1.4.3-1.4 0 0 .2-.4.2-1l.1-1c.1 0 .3-.8.4-1.8 0-1 .2-1.8.3-1.8 0 0 .2-.4.2-1l.1-1.3c.2 0 .3-1.2.4-2.6 0-1.4.2-2.2.3-2l.1-1.3c0-1 .1-1.8.2-1.8.2 0 .4-2.6.4-5.4a104.2 104.2 0 0 0 .5-19.3 148.1 148.1 0 0 0-4-40.4l-.2-1c-.1 0-.3-.6-.4-1.3 0-.6-.2-1.2-.3-1.2l-.1-.7c0-.5-.2-1-.3-1.4-.2-.3-.3-.9-.3-1.3l-.2-.9c-.2 0-.2-.3-.2-.7l-.2-.6c-.1 0-.3-.5-.3-1.2l-.4-1.2-.1-.5c0-.4-.1-.7-.2-.7-.1-.1-.3-.6-.3-1.1-.1-.6-.2-1-.4-1.2l-.1-.6-.2-.5c-.1 0-.3-.4-.3-1l-.4-1-.1-.7-.2-.7c-.2 0-.3-.3-.4-.8 0-.4-.2-.8-.3-.8l-.1-.4-.2-.6-.4-1c0-.6-.2-1-.3-1l-.1-.6c0-.2-.1-.3-.2-.3s-.3-.3-.3-.9l-.4-1-.1-.5-.2-.5c-.1 0-.3-.3-.4-.7 0-.4-.3-1-.5-1.4l-.5-1.3c0-.4-.2-.8-.3-.8l-.1-.3c0-.3-.1-.5-.2-.5-.1-.1-.3-.5-.3-.9-.1-.4-.3-.9-.5-1-.2-.2-.5-.7-.5-1.2-.1-.4-.3-1-.5-1.2-.2-.2-.5-.7-.5-1.1l-.4-.8-.1-.4-.2-.4c-.1 0-.3-.2-.3-.6l-.4-.7-.1-.5-.2-.4c-.2 0-.2-.1-.2-.4 0-.4-.6-1.6-.9-1.6l-.1-.3c0-.3-.7-1.5-.9-1.6l-.1-.6-.3-.7-.3-.5c0-.2-.1-.3-.2-.3-.2 0-.2-.2-.2-.4 0-.3-.2-.7-.3-.8l-.3-.5c0-.2-.1-.3-.2-.3s-.3-.3-.3-.7l-.4-.7-.1-.3-.2-.3c-.1 0-.3-.2-.3-.5-.1-.2-.2-.5-.4-.5l-.1-.2a4 4 0 0 0-.9-1.7l-.1-.5c0-.2-.1-.3-.2-.3-.2.1-.2 0-.2-.2a1 1 0 0 0-.3-.7c-.2 0-.3-.3-.3-.5l-.2-.3c-.1 0-.3-.2-.3-.5-.1-.2-.2-.5-.4-.5l-.1-.3-.2-.3c-.2 0-.2 0-.2-.3l-.4-.6c-.2-.2-.4-.4-.3-.6v-.3c-.2 0-.4-.3-.7-.7l-.6-1a1 1 0 0 1-.2-.6l-.2-.3c-.1 0-.4-.3-.6-.7l-.4-.9-.6-.8-.8-1-.3-.6c0-.2-.3-.5-.5-.7-.2-.2-.5-.6-.5-.9l-.6-.8-.3-.6c0-.2-.2-.4-.3-.5-.2 0-.3-.2-.4-.4l-.2-.1s-.1 0 0-.2c0 0 .2-.1.4 0 .2 0 .2 0 .1-.2h-.3c-.3 0-1-.6-1-1l-.1-.2c-.2 0-.9-1-.9-1.2l-.8-1-.7-1-.5-.7c-.3-.2-.5-.6-.5-.7l-.4-.5c-.8-.7-1.1-1.5-.8-1.7.2-.1.2-.2-.1 0-.4 0-1.1-.5-1.1-1l-.3-.2a.5.5 0 0 1-.3-.4c0-.2-.1-.4-.3-.4-.1 0-.2-.2-.1-.5V75c-.3.2-1-.4-1-.8 0 0-.1-.1-.2 0-.1 0-.3-.1-.4-.4 0-.4-.3-.7-2.1-2.6a6 6 0 0 1-1-1.2l-1.5-1.8a13 13 0 0 1-1.8-2c0-.2-.2-.3-.3-.2l-.1-.1c0-.2-1-1.3-3.6-4-.5-.5-1-1.1-.9-1.3 0-.1 0-.2-.2 0-.3 0-.4 0-.3-.3 0-.3 0-.4-.1-.3-.2 0-1.4-1-2.7-2.3a22 22 0 0 0-2.8-2.6c0-.3-1.5-1.7-2.2-2.2-.4-.2-.6-.5-.5-.5.4-.2.3-.6 0-.5-.2 0-.5 0-.8-.3l-.5-.4-2-1.6c-.9-1-1.8-1.8-2-1.9a.9.9 0 0 1-.6-.5l-.2-.4-.6-.3a86.5 86.5 0 0 0-6.4-5.1 147 147 0 0 1-4.3-3.4l-.3-.1c0-.2-.2-.3-.3-.3-.2 0-.3 0-.3-.2l-.4-.2-.2-.1c.1-.1 0-.3-.4-.3-.2-.1-.4-.2-.4-.4l-.3-.2-.3-.1-.5-.4c-.2 0-.6-.3-.9-.6-.2-.2-.5-.5-.7-.5l-.5-.3-1-.7c-.5-.2-.9-.5-1-.7 0-.1-.2-.3-.4-.3s-.5-.1-.6-.3c-.1-.2-.5-.5-.8-.5-.3-.1-.7-.3-.9-.6-.1-.2-.3-.4-.5-.4a1 1 0 0 1-.5-.2l-1-.7-1.3-.8c-.3-.3-.7-.5-.9-.5-.2 0-.3 0-.3-.3 0-.1-.1-.2-.3-.2l-.5-.1c-.1-.2-.4-.4-.6-.4-.1 0-.2 0-.2-.2l-.3-.2-.3-.1c0-.1-.3-.3-.5-.3-.3 0-.6-.3-.9-.5l-1.7-1-1.5-.9-1-.5-.8-.5-.3-.2-.3-.1c0-.1-.3-.3-.7-.4-.4 0-.8-.3-.9-.4l-.2-.2-.5-.1-.8-.4c-.2 0-.3 0-.3-.2l-.3-.2-.3-.1c0-.1-.3-.3-.7-.4-.4 0-.7-.2-.7-.2-.2-.3-1.5-.9-1.8-.9l-.2-.1c0-.2-1.5-.9-1.9-.9l-.1-.2-.3-.2-.3-.1-.8-.4c-.5 0-.8-.2-.8-.3l-.4-.2c-.2 0-.5 0-.5-.2 0-.1-.4-.3-.8-.3l-.7-.2c-.2-.2-1.5-.8-2-.9l-.7-.4-1-.5c-.5 0-.8-.2-.9-.3l-.4-.2-.5-.1-.7-.4c-.4 0-.8-.2-.8-.3l-.5-.2c-.3 0-.5 0-.6-.2l-.9-.3c-.5 0-.8-.2-.8-.3l-.3-.2c-.2 0-.6 0-.9-.3l-1-.3c-.2 0-.4 0-.4-.2l-.5-.2-.5-.1c0-.1-.4-.3-.8-.3-.5-.1-.8-.2-.8-.4l-.5-.2-.6-.1-1.1-.4c-.6 0-1.1-.2-1.2-.3l-.6-.2-.4-.1-1-.4c-.6 0-1-.2-1-.3l-.6-.2-.6-.1-1-.4c-.6 0-1.1-.2-1.2-.3 0 0-.3-.2-.7-.2l-.5-.1c0-.1-.6-.3-1.2-.3-.7-.1-1.2-.3-1.2-.4l-.6-.2-.8-.1a4 4 0 0 0-1.3-.4c-.7 0-1.3-.2-1.3-.3l-.6-.2-.8-.1c-.1-.2-1.5-.4-2.5-.4-.3 0-.5-.1-.4-.3 0 0-.3-.2-.8-.2s-1 0-1-.2l-1.6-.3c-.9 0-1.5-.2-1.5-.3l-.8-.2-1-.1-1.8-.4c-1 0-1.8-.2-2-.3l-1.2-.2-1-.1c-.1-.2-1.2-.3-2.4-.4-1.2 0-2.3-.2-2.4-.3l-1-.2-1.3-.1c-.3-.2-2-.3-3.9-.4a716.4 716.4 0 0 0-33.8-.5m24 8.7c-.2.8 0 1.2.8 1.4 1 .1 1.2.4 1 1.4a406.4 406.4 0 0 0-1.6 17.2c0 .3-.2.3-1 .3-1.3 0-1.8.6-1.1 1.3.2.2.7.3 1.4.3s1.7.1 2.3.3c8 1.5 11.6.8 15.4-3.2 4-4.2 3.5-12.2-1-15.8a13.4 13.4 0 0 0-8.6-2.7l-4.3-.5c-2.5-.3-3.1-.3-3.3 0m3.5.4l4 .3c7.8.4 12.3 4.4 12.2 11 0 7.6-6.4 12.1-15.2 10.6-2-.3-4.9-.7-6.1-.7-.8 0-.2-.9.6-.9 1.5 0 1.2 1.4 2.5-12.4l.5-4.1c.2-2.5 0-3-1-3-.6 0-1-.4-.8-.8.2-.5.8-.5 3.3 0m-39 1c0 .2-1.8.4-5.8.8-3.7.3-4.6.6-4.6 1.3 0 .5 0 .5.8.6 1.4.1 1.5.4 2 6.5l.6 5.3c.7 7.7.8 7.2-.5 7.3-1 .1-1.1.2-1 .9l.2.5 2-.1c9-.5 10.3-.8 13.4-3.2 7.9-5.8 4.8-18.2-4.7-19.7-2-.3-2.2-.3-2.4-.2m41.6.4c-1 .4-.9-.4-1.6 6.7l-1 8.1c-.4 4-.4 4 1.3 4.6 9.8 3 16.4-9.6 9-17-2.3-2.3-5.2-3.2-7.7-2.4m-38.5.2c4.1.8 7.1 4 8 8.7 1.4 6.5-4.5 13-11.5 13l-2.8.2c-2.6.5-4.9.5-5 0 0-.3 0-.3.9-.5 1.3-.1 1.3 0 .9-4l-.9-8.6c-.6-6.3-.7-6.7-2-6.9-2.5-.3-.1-1.4 3-1.4.5 0 1.6 0 2.5-.2 2.7-.6 5.3-.7 6.9-.3m43.2.4c2 .7 3.9 2.6 5.2 5.2.5 1.2.7 6 .2 7.3-2 5.1-6.3 7.5-11 6.1-2-.6-2 0-.3-14.3l.4-2.9c.1-1.7.3-1.8 2.9-1.8 1.1 0 1.8 0 2.6.4m-49.4.7c-2.4.8-2.2.2-1.8 5l1.5 14.3c.3.3 3.3.4 4.5.2 10.5-2 9-19.5-1.5-19.8-1.3 0-2.1 0-2.7.3m5 .3c8 3 8.3 16.1.4 18.6-1.4.4-5.4.5-5.5.1l-.3-2.8-1-10.9c-.5-4.2-.5-4.4.1-4.6l1.5-.5c1-.4 3.6-.3 4.8 0m69 1.6c-.3.8-.2 1.2.4 1.5.7.3 1.3 1 1 1.2l-2.2 8.8-2.2 8.6h-.7c-1.7-.2-1.6-.2-1.7.4-.1 1-.6.8 8.8 3.3l1.3.4-.1.7c0 .6 0 .7.5 1 .7.3.7.2 1.5-2.6l1-3.8c.3-1.3.3-1.4 0-1.6-.5-.4-1-.3-1 .1a6 6 0 0 1-1.4 3c-.9 1-2.4 1.3-4.2.7-1-.4-1 0 .1-4.7 2.4-9 2-8.2 3-8 1 .3 1 1 .3 3.5 0 .3 1 .8 1.3.6.2-.1.8-2.3 1.5-5.6l.4-1.4c.2-.5 0-.8-.7-1-.6-.1-.6 0-.9 1.4-.1 1.3-.2 1.4-1.2 1-1.1-.2-1.1-.2-.8-1.4a95.2 95.2 0 0 0 1-3.3c2.7 0 4.6 2.1 4.2 4.5-.3 1.7-.3 1.9.2 2 .5.2.9-.1 1-.7l.6-2.3c1.3-4.6 1.3-4.3.3-4.6-.5 0-.6 0-.7.3-.1.6-.4.6-1.9.2a141.8 141.8 0 0 0-6.6-1.9c-2-.5-1.9-.5-2-.3m5.3 1.5c5.4 1.5 5 1.5 5.3.8.3-.5 1.2-.4 1.1.2-.2 1.6-1.8 6.4-2.2 6.4-.2 0-.3 0-.3-.4.5-3.8.2-4.5-3-5.5l-1.4-.4c-.2.4-1.3 4.2-1.3 4.6 0 .3.2.4 1 .6 1.4.3 1.5.3 1.7-1.2.1-1 .5-1.4.9-1 0 0-.2 1.6-.7 3.5l-.7 3.6-.5.1c-.4 0-.4-.2-.4-.7.3-3 .3-2.9-.8-3.3-1-.4-1-.3-1.6 2a1126 1126 0 0 1-2.6 10.7c.3.3 2.1.7 3.1.7 1.7 0 2.9-1 3.5-3l.4-1.1c0-.3.6-.1.7.2l-1.8 7c-.3.5-.7.3-.8-.5l-.1-.8-4.2-1.2-5-1.4c-.6-.1-.7-.3-.7-.7 0-.5.3-.6 1.3-.2.8.3.9.1 2.4-5.9l2.2-8.8c1-3.8 1-4.2-.3-4.5-.6-.1-.6-1 0-1l4.8 1.2m-109.2 2.2c-.2.2-.2 2.5 0 8l.2 11v3.2l-.6.2c-.8.3-1 .8-.7 1.3.3.5 6.3-1.5 6.3-2 0-.7-.6-1-1.3-.8-2 .8-2.1.6-2.3-6.2l-.1-5.7 1-.2c1.3-.4 1-.6 3.1 2.7a23.8 23.8 0 0 0 1.8 2.6c0 .1.4.9 1 1.7l1 1.7.3.6c.5.6.4.8-.5 1-.8.1-1 .4-.6 1.3.1.4.3.5.5.4l2.5-.9c4-1.4 4-1.4 3.5-2.2 0-.2-.4-.4-.7-.4-1.4 0-1.4.1-10.8-14.2-2.3-3.5-2.9-4-3.6-3m6.2 7.3l5.5 8.4c.8 1.3 1.8 2 2.6 1.9 1.1-.1.8.7-.4 1.1l-2.9 1c-2.2.9-2.3.9-2.2.2 0-.4.2-.6.7-.8 1.2-.3 1.5.2-4.9-9.7l-1-1.4c-.3 0-2 .7-2.2 1v11.3l.5.5c.5.5 1.4.6 2.3.2.4-.2.7.3.4.6-.4.5-5.3 2-5.5 1.8-.2-.4-.2-.5.7-.8l.8-.4-.1-5c-.5-17.7-.5-17.4.3-17.3.4 0 1.3 1.2 5.4 7.4m-5-1.3c0 2 0 2 1.2 1.5 1-.4 1-.4 0-2-1.1-1.7-1.2-1.6-1.2.5m1.7 1l-.7.4-.6.2v-2.8l.7 1 .6 1.2m136.7 2c-.4.6-.3 1 .4 1.3.8.5.9.8.3 2a197.7 197.7 0 0 0-5.1 11c-2.2 4.8-2 4.6-3 4.2-1-.4-1.5-.2-1.4.5 0 .5.5.7 4 2.5 5 2.7 4.7 2.4 4.4 3-.4.6-.3 1 .3 1 .4.2 1-.1 1-.5l1.1-2.4a305.8 305.8 0 0 0 2.8-6c.4-.7.2-1.2-.5-1.2-.3 0-.5.3-.7.7-2.1 5-3.4 6-6 5-1.3-.4-1.4-.1 1.7-6.7a220.5 220.5 0 0 0 4.3-9l.9-2 1 .3c.7.3 1 .3 1 .1.5-.7.2-1-2.8-2.6-3.4-1.7-3.4-1.7-3.7-1.2m3.6 1.5l3 1.7c0 .4-.6.5-1.4.2l-.8-.4a64 64 0 0 0-4 8.3 568.8 568.8 0 0 0-3 6.7c-1.4 2.8-1.4 3 .1 3.4 2.6.8 3.7 0 5.4-3.3 1.1-2.3 1.5-2.8 1.8-2.2 0 .3-4 9-4.3 9.4-.4.3-.9-.2-.6-.7.4-.7.2-1-2.6-2.3-5.9-3-6-3-5.7-3.6.1-.2.3-.2 1 0 1 .5 1.1.4 1.7-.7a413 413 0 0 1 6.7-14.6l.7-1.4-.6-.6a4 4 0 0 0-.8-.6c-.4 0 0-.8.3-.8l3.1 1.5m-170.2 1a9 9 0 0 0-2.9 1.2l-4.8 2.7c-3.7 1.7-3.6 1.6-3 2.4.4.4.5.5.7.3.8-.9 2 0 3.2 2.6a993.5 993.5 0 0 0 5.3 11.5c1.2 2.6 1.2 2.4-.2 3-.5.3-.6 1-.2 1.4.1.2 3.5-1.3 7.6-3.3 8.3-4 10.4-13.3 4.5-19.3a10 10 0 0 0-10.2-2.6m6.3.4c4 1.4 7 5.9 7 10.1 0 4.8-4.1 10.3-8.7 11.6l-3.4 1.6c-3.4 1.6-3 1.5-3 .9 0-.3.2-.5.8-.8 1-.4 1-.4-1-4.5l-2-4.6c-3.6-7.8-4.3-8.9-5.3-8.6-2.4.8-1.6-.3 1.3-1.7 1.5-.7 3.5-1.8 4.5-2.5 3.5-2 7-2.6 9.8-1.5m-7.4 1.6c-1.9.6-4.5 2.4-4.5 3l.7 1.7c.4.8 1 2.3 1.6 3.3 5.8 12.3 5.3 11.4 6 11.4 3.4 0 7-3 8-6.9 1.8-7-5.5-14.8-11.8-12.5m4.2 0c3.2 1 5.2 2.9 6.7 6.4 2.3 5.4-.2 11-5.5 12.5-1.4.4-2.1.4-2.1.2l-1.4-3a1883.9 1883.9 0 0 1-5.7-12l-.5-1.2.8-.7c2.2-1.9 5.3-2.8 7.7-2.1m73.3 9.4a309.4 309.4 0 0 0-19.6 2.4 104.7 104.7 0 0 0-12 2.8l-2.8.8-.5.1a168.1 168.1 0 0 0-39 17.5l-1 .6a49.5 49.5 0 0 0-4.4 3 112.8 112.8 0 0 0-11 8 164.1 164.1 0 0 0-37.7 43.7l-1.7 3.1c-.8 1.4-1.5 2.8-1.8 3.1a258 258 0 0 0-8.4 18.8 240.2 240.2 0 0 1-3 8.6 89.6 89.6 0 0 0-3.1 12 613.8 613.8 0 0 1-1.7 8.6l-.5 3.1a209 209 0 0 0-1.8 20.3 178.7 178.7 0 0 0 4 38.2 175 175 0 0 0 8.6 26.7c.1.5.7 1.7 1.2 2.8a163.2 163.2 0 0 0 57.5 68.2 176.4 176.4 0 0 0 37.9 18.8 404.3 404.3 0 0 0 14.5 4l2.2.5a182.5 182.5 0 0 0 13.9 2.4 168 168 0 0 0 60.9-4l3-.8a90.2 90.2 0 0 0 12.4-4 167 167 0 0 0 41.8-23.4l.9-.8s0-.2.2-.2 1.1-.7 2.8-2.2l3-2.5c3.3-2.9 3.9-3.4 8.5-8 4.5-4.5 8-8.3 10.6-11.6l2-2.4a141.9 141.9 0 0 0 8-11.3A158.7 158.7 0 0 0 339 120a170.8 170.8 0 0 0-38.3-44.4c-1-1-1.3-1.1-4.2-3.3a154.6 154.6 0 0 0-11.3-7.8l-3.3-2a194.5 194.5 0 0 0-22.4-11 133.7 133.7 0 0 0-16.3-5.6 192 192 0 0 0-21-4.2c-9.7-1.3-23-1.8-31.6-1.2m22.3.4a3105.3 3105.3 0 0 0 9.4 1 1209.1 1209.1 0 0 0 10.2 1.8 490 490 0 0 0 4.9 1 159.4 159.4 0 0 1 84 51.1c5.1 5.8 12 15.4 16.7 23.2a169.6 169.6 0 0 1 20 53.8 82.6 82.6 0 0 1 1 6.6 160 160 0 0 1-8.6 75.8A160.8 160.8 0 0 1 214.4 359a187.6 187.6 0 0 1-31.5-.4 151.8 151.8 0 0 1-24.4-4.6 161.3 161.3 0 0 1-105.1-92.3 166.5 166.5 0 0 1-11.2-42 165.5 165.5 0 0 1 1.7-50.3A160.3 160.3 0 0 1 179 41.9a123.9 123.9 0 0 1 14.5-1.4c1.8-.2 16.3 0 19.5.3m95.4 1a186.3 186.3 0 0 0-5 4.2 344 344 0 0 0-9.6 8.3c-.8.7-1.2.8-1.7.5-.6-.4-1.2-.2-1.2.2s4.7 3.8 5 3.7c.7-.3.6-.8-.2-1.5-1.4-1.3-1.3-1.5 1.8-4.2l5.3-4.6c.4-.4.5-.3 1.4.4 1 .8 1.1.5-.8 6l-1.7 5.2c-.2.9-.5 1-1 .5l-.8-.4c-.3 0-1 1-.8 1.2.5.4 5.3 3.6 5.6 3.6.8 0 .9-.9 0-1.5-.3-.3-.3-1.4 0-2l.5-1.8a56.4 56.4 0 0 1 1.5-5 65.3 65.3 0 0 0 1.5-5.2 58.2 58.2 0 0 1 1.6-5.4c.7-2.4 0-3.4-1.4-2.1m1.3 0c.3.1.3.3-.2 2.2l-4.8 16c-.8 2.6-.8 2.7-.1 3.4.5.7.6 1 .2 1.1a28 28 0 0 1-5.3-3.5c-.2-.5.4-.7 1-.3l.9.3c.2 0 4-11 4-11.6 0-.2-1.9-1.6-2.2-1.6l-.8.5a276.4 276.4 0 0 1-6.2 5.5c-1.9 1.5-2 2.3-.7 3.5.7.6.8.7.5.9-.4 0-1.1-.4-3.9-2.4-1.4-1-1.4-1.6 0-.8.7.4 0 1 6.7-4.8 8.9-7.5 10.3-8.7 10.5-8.7l.4.2M88.8 44.3c-3.1 2.2-3.3 2.4-2.7 3 .4.3.5.3 1 0 1.2-.9.8-1.4 7.1 8.3l3.6 5.4c1 1.4 1 1.4 0 2-.9.6-1 .8-.6 1.4.4.5.3.6 3.6-1.8 3-2.2 3.1-2.3 2.7-3-.3-.3-.3-.3-1 0-1.3.8-1.2 1-6.6-7.5l-2.8-4.4-2-3 .8-.8c.8-.7.9-.8.5-1.3-.4-.7-.4-.7-3.6 1.7m3.4-1.4c.1.2 0 .5-.5 1-1 .7-1 .6 1.4 4.4l3.4 5.1c4.5 7.1 4.6 7.2 5.8 6.6.8-.4 1.7-.1 1.1.3-.5.6-5.6 4-5.8 4-.6 0-.4-.6.5-1.2 1-.7 1.2-.1-2.1-5.3l-4-6.2c-3.7-5.6-3.6-5.5-5-4.6l-.6.4-.2-.5v-.4c.6-.6 5.5-4 5.7-4 .1 0 .3.2.3.4m213 3c-1.3 1.3-1.3 1.3-.3 1.9.8.5.9.4 1.5-1.4.6-1.8.5-1.8-1.1-.4m.7.6c-.6 1.5-.5 1.4-1 1l-.5-.5.9-.9c1.2-1.1 1.2-1 .6.4M70 57c-.2.4-.2.4.2 1l.3.5-.7.3c-3.3 1.4-3.9 6.5-1 8.4 1.5 1 4.6 1.2 7 .5 4-1 5.5-1 6.7.4 3.9 4.4-.7 11.1-6.5 9.5-3.4-.9-4.5-4.4-2.2-6.9 1.5-1.6 4.3.5 3 2.3-.5.8.1 1.2 1.1.6 3.7-2 .1-6.6-3.7-4.7-6 3-3.3 11.5 3.4 11.1 5.5-.3 10.1-7.8 7.7-12.3-2-3.6-5-4.5-10.3-3.2-4.4 1-4.8 1-6-.3-.6-.7-.6-2.3.1-3 1.5-1.6 2.8-1.2 5.2 1.5.7.8.8.9 1.4.4.6-.4.6-.4-.1-1.2a125 125 0 0 1-4.3-5c-.2-.4-.8-.3-1.2.1m2.9 2.3c3 3.6 2.9 3.3 2.5 3.7-.3.3-.4.2-1.2-.7-1.7-1.8-2.3-2.3-3.5-2.3-1.9 0-3.3 3-2.1 4.3 1.3 1.5 2.5 1.5 6.9.4 8.2-2.2 13 4.3 8.2 11.2-2.3 3.3-5.8 4.7-9 3.5-5.5-2-4.4-10.6 1.5-10.6 2.8 0 4 3.4 1.6 4.6-.8.4-1 .3-.8-.3 1.5-2.7-2.3-4.5-4-2-2.9 4.3 2.6 8.8 7.7 6.3 3-1.5 4.5-6 2.6-8.5-1.8-2.4-3-2.6-7.5-1.5-5.3 1.4-8.7-.3-8.6-4.3 0-1.9 1.7-4.3 3.2-4.3.4 0 .5-.3 0-.8-.3-.5-.3-.6-.1-.9.3-.4.3-.4 2.6 2.2m122 .6a148.5 148.5 0 0 1-8.2 4.7A1112.3 1112.3 0 0 1 169 75.1a3890.1 3890.1 0 0 0-12.2 7c-.5.2-4.7.2-23.4.2h-22.9l.1 16.6v16.5l23.3.1h23.3l2.3-1.3 3.2-1.9A2527 2527 0 0 0 197 92.1c.2-.4.2-32 0-32.7-.1-.6 0-.6-2 .6m8.5-.7c-.2.4-.2 32.7 0 33l3 1.8a1217.2 1217.2 0 0 1 26.1 15.2 194.7 194.7 0 0 1 9.7 5.6l1 .6h46.6V82.2h-22.8c-19.2 0-22.9 0-23.4-.2a43.5 43.5 0 0 1-6.2-3.6 468.5 468.5 0 0 1-15.3-8.9A92.5 92.5 0 0 0 216 66a504.5 504.5 0 0 0-8.7-5c-3.9-2.3-3.7-2.2-3.8-1.7m-6.8 16.5v16.4l-2.2 1.3a342.4 342.4 0 0 0-10.2 6 6718 6718 0 0 0-25.6 14.8l-1.4.8h-46.6l.1-16.2V82.6H134l23-.2 4.3-2.5a177.6 177.6 0 0 1 7.9-4.6 342.6 342.6 0 0 0 14.2-8.3 180.5 180.5 0 0 1 8-4.6 126.2 126.2 0 0 0 5.2-3l.1 16.4m9.8-15a71.8 71.8 0 0 0 6 3.5l1.3.8a84.5 84.5 0 0 0 5.5 3.2 254.8 254.8 0 0 0 8.3 4.8 454.4 454.4 0 0 0 15 8.8l.9.5 23 .1 23.2.1v32.5h-46.5l-2.3-1.3a147.6 147.6 0 0 1-7.2-4.2 254.8 254.8 0 0 0-11.5-6.7A17579.5 17579.5 0 0 1 204 92.3c-.2-.2-.4-33-.2-33l2.7 1.5m129.3 6.9c-2.4 1.2-3 4.4-1.5 9.1.5 1.4.9 5 .6 5.5-2 5.4-9.8 2.8-10.5-3.5-.5-4.8 5.9-7.7 7.2-3.2.5 1.8-1 3.2-2.5 2.3-.4-.2-1 .2-1 .7 0 .4 2.2 1.7 2.8 1.7 2.7 0 3.4-4.2 1.1-6.8-2.6-3-7.4-2-9.1 1.8-2.6 5.6 4.3 13.3 10.3 11.6 4.5-1.4 5.8-5.4 3.9-12-1.4-4.3-.7-6.8 1.7-6.2 2.6.5 2.8 3.2.4 5.7-1.2 1.2-1.3 1.8-.3 1.9.3 0 5.4-5 5.6-5.6.3-.6-1-1-1.5-.4-.2.3-.3.3-.5-.4-1-2.5-4.1-3.5-6.7-2.2m4 0c1 .3 2 1.4 2.5 2.6.3.8.5.8 1 .2.2-.3.3-.4.7-.2.4.2.3.3-2 2.8-3 3.2-3 3.2-3.4 2.8-.2-.3-.2-.4.8-1.4 1.8-1.9 2.2-3 1.6-4.3-1.1-2.2-3.6-2.4-4.6-.5-.6 1.3-.6 2 .4 5.1 1.6 5.4 1.2 8.7-1.4 10.6-6.8 5.2-16.9-5.3-11.1-11.7a5 5 0 0 1 8.7 2.8c.4 3-1.3 4.4-3.4 3-1-.8-1.4-1.5-.6-1.3 1.4.4 1.5.4 2.3-.3 2.2-2.3-1.3-5.9-4.3-4.4-3.7 1.9-3.8 7.3-.4 10.4 2.6 2.3 6.4 2 8.1-.7.9-1.2.8-3.3-.4-7.4-1.6-6 1-9.7 5.5-8.1M52.8 81a9.4 9.4 0 0 0-8.4 7.6c-.3 1-.3 1-.6.8-.5-.5-.7-.4-1.3.3l-.9 1c-1.6 1.8-1.8 2.3-1.2 2.9l.5.4.6-.7c.4-.3.8-.7 1-.7a98.7 98.7 0 0 1 11.1 9.5l3 2.6-.7.8c-.7.7-.7.8-.4 1.2.5.6.6.5 2.6-1.9l2.2-2.7c1-1 1.1-1.4.8-1.8-.4-.4-.8-.3-1.3.4-.8 1.2-1.8 1-3.7-.7-.5-.4-.5-.4 3.9-1.9a26.4 26.4 0 0 0 2.9-1.2c3.8-1.6 7.3-6 5.6-6.9-.4-.2-1 .2-1 .8 0 .4-1.9 2-2.9 2.3l-2.3 1c-1.7 1-1.7 1-1-.6 2.7-6.2-1.9-13.1-8.4-12.5m4 .9C61.3 84 63 89.3 60.7 94c-.7 1.3-.5 1.4 1 .7l2.4-1c1.9-.9 3.8-2.4 3.8-3.2 0-.2.1-.3.3-.2 2 .4-2.5 5.3-6 6.6l-1.6.6c-.8.4-3.1 1.2-4.2 1.5-1 .4-1.1.8-.3 1.5 1.9 1.6 2.5 1.6 3.6.5.7-.7 1.2-.8 1.2-.3 0 .2-4.6 5.8-5 6-.5 0-.4-.4.2-1.2l.6-.9-5.8-5-7-6.1c-1.3-1.2-1.7-1.3-2.6-.4-.6.5-.6.5-1 .2-.2-.4-.2-.5 1.2-2.1 1.5-1.9 1.5-1.9 2.2-1.5.5.3.6 0 .8-1.1.3-1.6 1.9-4.3 3.2-5.4 2.2-2 6.4-2.5 9-1.3M50.3 84c-4 1-6.2 5.9-3.8 8l4.7 4c3 2.6 3.2 2.7 3.2 2.2 0-.2.7-.7 1.8-1.2 8.3-4 3.1-15.2-6-13m5.3.7c4.7 1.7 6.3 7.5 3 10.6-.8.7-2.7 1.7-3.2 1.7-.2 0-.5.3-.8.5l-.6.6-2.4-2.2a261.7 261.7 0 0 1-4.9-4.2c-.8-.7-.8-.8-.8-1.6 0-4.6 4.7-7.3 9.7-5.4M354.7 86c-.4.2-.4.3-.2.9.6 1.5.6 1.6-1.6 3.3a50.1 50.1 0 0 0-3.2 2.4 500.4 500.4 0 0 0-7.8 6.1c-1.4 1.1-1.3 1.1-1.9.2-.6-.8-1.6-.7-1.6.1 0 .2 5 7.2 5.9 8.1.3.5.3.5-.2 1-.4.6-.2 1.5.3 1.5.3 0 6.2-4.5 6.4-4.8.1-.3-.4-1.2-.7-1.2l-1.6 1c-2.2 1.5-3.2 1.3-5-1l-1-1.2.6-.4a205 205 0 0 1 6.4-5c3.3-2.7 3.2-2.6 3.6-1.4.3.8-.4 1.8-1.3 1.8l-.2.3c0 .1 0 .4-.2.6-.7.8.4 1.7 1.2 1l2.7-2.3c2.5-2 2.8-2.2 2.4-2.7-.3-.4-.7-.3-1.6.4-1 1-1 1-1.7-.2-.6-.8-.7-1-.4-1.1l1.8-1.4c1.7-1.4 1.6-1.4 2.7.3 1.3 2.1 1 3.9-.9 5.3-.8.7-.9 1.8 0 1.8.2 0 5.7-4.4 5.7-4.7.1-.8-.5-1.2-1.1-.8l-.6.3-1-1.3a26.8 26.8 0 0 0-1.7-2.4l-.8-1.1c0-.2-.7-1-1.4-2-1.3-1.8-1.4-2-2-1.4m3.7 4.3c2.6 3.7 3 4.2 3.4 4 2-.6 1.6.2-1.4 2.6-2.7 2.2-3 2.4-3.1 1.8-.1-.2.1-.6.8-1.2 1.8-1.6 2-3.2.4-5.6l-1-1.5-.6.5-2 1.4c-1.5 1.1-1.6 1.3-.7 2.5.7 1 .8 1 2 .1 1-.6 1.4-.7 1.3-.2 0 .3-5.2 4.5-5.5 4.5-.7 0-.6-.5.5-1.6 1.1-1.2 1.2-1.5.7-2.5s-.5-1-2.8.8a5785.3 5785.3 0 0 0-7.2 5.6c-1 .8-1 .9.1 2.3 2.1 2.5 3 2.6 5.2 1 1.5-1 2.2-1 2-.2-.1.6-6 4.9-6.3 4.5-.2-.3-.1-.4.3-.9l.5-.5-1.7-2.3a41 41 0 0 1-4.6-6.6c.2-.4.8-.1 1.2.4.4.8.7.8 2-.2 14.1-10.8 13.9-10.6 13-11.7-.5-.9-.4-1.2.4-1.2 0 0 1.5 1.8 3.1 4.2m-155 8.6v6.6l.9.6 1.7 1a337.6 337.6 0 0 1 13 7.5l6.4 3.7a1076.2 1076.2 0 0 1 17.2 10c.7.3 46.1.6 47 .2.5-.1.5-6.8 0-7l-23 .1-23 .2-4.4-2.6a15613 15613 0 0 1-30-17.5c-6.2-3.7-5.6-3.4-5.8-2.8m-13.5 3.8a2509.7 2509.7 0 0 0-30.5 17.4l-2.1 1.2-23.3.1-23.3.1-.1 3.4c0 2.6 0 3.5.2 3.6l23.4.1h23.1l1.7-1a169.7 169.7 0 0 1 6.9-3.9 648.4 648.4 0 0 1 11.7-6.8l14.7-8.5c5.4-3.2 4.8-2.5 4.8-5.6 0-2.8 0-4-.4-4l-6.8 3.9m16.5-2.3a47.6 47.6 0 0 1 5 2.8 21.7 21.7 0 0 0 3 1.8 280.5 280.5 0 0 0 10.9 6.4 1147.4 1147.4 0 0 0 17.1 10l1.2.7h23l23-.2v6.2l-23.2.1H243l-1.2-.6a128.2 128.2 0 0 1-7.7-4.5 476.8 476.8 0 0 0-12.9-7.4 345.7 345.7 0 0 0-15.2-8.9l-2.2-1.3-.1-3.3v-3.4l.8.5 1.8 1m-9.6 2v3l-.8.6-1 .5a55 55 0 0 0-5.1 3 209 209 0 0 0-8.7 5 301.1 301.1 0 0 0-13.8 8l-1.3.8-5 3-3.7 2h-46.6V122l23.2-.1h23.3l1-.8 1.3-.8 3-1.7a298.4 298.4 0 0 1 11-6.3 108.4 108.4 0 0 0 7.2-4l1.9-1a203 203 0 0 0 8.2-4.8 424.3 424.3 0 0 1 5.1-3c.7-.5.8-.2.8 3m-167 4.5c-.3.5-.2.6.3 1l.5.6-.5 1a256.8 256.8 0 0 0-3.2 6l-1.3 2.5.4.4c.5.5.8.4 1.4-.6.5-.8 1.3-.6 4.8 1.4l11.4 6.2c.7.4.7.4.2 1.4-.6 1-.6 1.2 0 1.5.7.3.5.6 3.3-4.8 2-4.1 2.4-4.7 2.8-4.5 1 .3 1.2.3 1.3-.1.2-.7 0-1-2.3-2.2a223.5 223.5 0 0 1-3.6-2l-1-.6-.4.4c-.5.6-.2 1 1.5 2 2 1 2.3 3.4.6 5.7l-.4.6-3.2-1.7-4.5-2.5c-3.5-2-3.5-1.9-2.7-2.7.7-.6 1.8-.5 2.7.2.7.5 1 .4 1.3-.2.3-.6.2-.6-1.3-1.5l-4-2.2c-1.1-.7-1.5-.7-1.7-.2-.4.7-.3.8.9 1.4 1.2.7 1.2.9.7 2-.4.8-.5.8-2.7-.4-2-1.1-2-1-1.2-2l.5-.9c0-.1.3-.6.8-1 1-1 2.4-1.2 4-.3 1 .6 1.6.5 1.6-.2 0-.4-.6-.8-3-2.3-3.7-2-3.5-2-4-1.4m3.9 1.7c1.6 1 2.9 1.8 2.9 2 0 .5-.4.4-1.6-.2-2.2-1.1-3.6-.6-5.1 2.1-1 1.6-1 1.5 1.2 2.8 2.5 1.4 2.4 1.4 3 0 .6-1.2.5-1.3-.8-2-.6-.3-1-.7-1-.9 0-.6.4-.6 1.4 0l3.1 1.7c1.4.8 2.2 1.4 2.2 1.6 0 .5-.5.5-1.2 0-1-.7-2.3-.6-2.8 0-.8 1.1-.8 1.2 2.6 3l4.4 2.4c4.1 2.3 3.8 2.3 4.6.5 1.4-2.7 1-4.2-1.5-5.6-1.2-.7-1.4-1-.9-1.3.2-.2.5-.1 1.3.3l3.2 1.9c1.6 1 2.2 1.4 2.2 1.7 0 .5-.1.6-.7.1-.7-.5-.8-.4-3.3 4.6a18.3 18.3 0 0 1-2.8 4.7c-.6 0-.6-.3 0-1.2.5-1 .5-1-1.3-2a322 322 0 0 1-13-7.2c-1.3-.9-2.2-.7-3 .5-.2.4-.8.3-.8-.1l3.7-7.3c1.2-2.3 1.2-2.4.6-2.8-.5-.4-.4-1.1.2-1l3.2 1.7m336.3.2c-.4.4-.4.5-.1 1.2.4.8.2 1.2-.6 1.6a283.7 283.7 0 0 0-8.8 4.8 228.5 228.5 0 0 1-5.8 3.3c-.4.3-.8.1-1.1-.7-.4-.9-1.6-1-1.6 0l3.4 6.6c.9 1.5 1.8.5 1.1-1.1-.6-1.4-.5-1.7 1-2.5 1.3-.7 1.3-.8 1.1 3.6-.2 6.8 1.4 11.6 3.8 11.6.5 0 .6-.7.2-1.2-.9-.8-1.2-2.4-1.2-5.3V128l1.3 1.3c1.9 1.9 3.2 2.4 5.6 2.4 8.3 0 11.9-10 5.7-16.3-1.3-1.4-1.4-1.6-1.1-1.9.3-.3.2-.5-.9-2.6-1.3-2.4-1.4-2.6-2-2m1.8 2.2c1 2 1 2 .7 2.3-.5.4-.5.4 1.2 2 5.4 5.2 3.8 13.9-3.1 15.8-3.2.9-5.8.1-8.3-2.5-1.4-1.5-1.3-1.6-1.3 1.5 0 3 .3 4.8 1.2 5.8.8 1 .4 1.4-.7.6-1.8-1.2-2.5-4.2-2.5-10.8 0-2.5-.1-4.7-.2-4.7l-1.4.8c-1.6.9-1.8 1.3-1.3 2.6.6 1.2.6 1.5 0 1.4-.3 0-.8-.9-2-3.3-1.8-3.4-2-3.7-1.5-4 .3 0 1 .6 1 1 0 .7.5.8 1.3.3l1-.6 1.4-.7a238.8 238.8 0 0 1 11.6-6.4c1.5-.7 1.8-1.3 1.2-2.3-.2-.5 0-1 .3-1 .2 0 .7.8 1.4 2.2M193.3 114a369.2 369.2 0 0 1-10.5 6 817.4 817.4 0 0 1-18.2 10.7l-4.1 2.4-3.2 1.8H134l-23.3.1-.1 3.5v3.4h46.8l3.5-2 4.4-2.6a712 712 0 0 0 20.6-12l1.3-.7a271 271 0 0 1 9.6-5.8c.5-.4.5-6.9 0-6.8l-3.5 2m10.3-1.8a10 10 0 0 0-.2 3.3c0 3.5-.2 3.2 2 4.5a310.4 310.4 0 0 1 11.3 6.6l1.3.7a117.5 117.5 0 0 1 8.5 5 712.4 712.4 0 0 1 14 8.2l2.6 1.4H290v-3.4l-.1-3.5h-23.3l-23.3-.2-1.1-.6-1.1-.7a60.6 60.6 0 0 1-5.2-3 68.5 68.5 0 0 1-5.2-3 209 209 0 0 1-11.2-6.5 70.3 70.3 0 0 0-5.2-3l-2.6-1.5-7.3-4.2c-.4-.3-.6-.3-.8-.1m-6.9 3.2c0 3.5.1 3.3-1.4 4.1a49.8 49.8 0 0 0-4.5 2.6 583 583 0 0 1-17.9 10.4 28.6 28.6 0 0 1-3.3 2 725 725 0 0 1-12 7c-.5.2-5 .2-23.7.2h-23.1v-6.4h46.4l2.4-1.4a193.1 193.1 0 0 1 8-4.7 821.4 821.4 0 0 0 15-8.7 86.2 86.2 0 0 1 5.6-3.2 143.2 143.2 0 0 0 8.4-5l.1 3.1m8.5-2.3a83.3 83.3 0 0 0 6.7 4l2.4 1.2a243.5 243.5 0 0 1 11.2 6.5 73.8 73.8 0 0 0 4.6 2.7 196.6 196.6 0 0 0 10 5.8 19 19 0 0 0 2.7 1.5l.7.5h46.2V141.6l-23.1.1h-23.1l-1-.5-2.6-1.5a235 235 0 0 0-12.2-7 214 214 0 0 0-8.4-5 279.4 279.4 0 0 0-14.2-8.2l-1.3-.8v-3.2-3.2l1.4.8m164 2.3L366 117c-6 3.2-6.3 3.4-5.4 3.6.3 0 .4.3.4 2.1 0 6.3 5.1 8.7 10.6 5 3.6-2.6 4.4-8.8 1.4-11.5-1.8-1.5-2.5-1.7-4-.8m3.7 1c3.4 3.2 2.3 9-2.2 11.6-4.8 3-9.3.3-9.2-5.3 0-1.3 0-2-.3-2.3l-.1-.3a79.4 79.4 0 0 1 5.5-3c4.6-2.5 4.4-2.5 6.3-.7m-352.4 13c-.3.5-1.7 4.7-1.7 5.2 0 1 1 1 1.4 0 .4-1.2 1.3-1.3 2.6-.2l5.5 4.3c5.6 4.3 5.5 4 1.8 3.7l-5.7-.6c-7.4-.5-6.8-.4-6.2-1.5.4-.8.3-1-.2-1.1-.6-.3-.9-.1-1.1.5l-1.2 3.2c-1.1 3-1.2 3.3-.7 3.5.6.3.8.1 1-.4.4-1.1.8-1.3 3.7-1a327.8 327.8 0 0 0 12.7.7c5 .4 5.3.3 5.7-.4.4-.7.4-.8-2.9-3.2a672.5 672.5 0 0 0-7.3-5.6c-7.3-5.6-6.7-5-6.2-6.3.3-.9-.7-1.6-1.2-.8m.8.6v1c-.2.7.1.9 8 7 9.8 7.3 8.8 6.5 8.5 7.2l-.2.6-2.2-.1-15.4-1c-3.5-.2-3.6-.2-4.2 1-.2.7-.3.7-.7.5-.4-.3 2-6.9 2.6-6.9.4 0 .4.4 0 1.3-.5 1-1.4.9 9.5 1.8l4.4.3c2.9.3 3.1.6-3.5-4.5-7.2-5.6-7.4-5.7-8.2-3.6-.2.5-.7.7-1 .4-.2-.4 1.8-5.7 2.1-5.6.2 0 .3.3.3.6M384.4 142c-.2.1-.3.4-.2 1 .2 1.4.1 1.5-5.6 3.2l-9.2 3c-2.6.8-2.5.8-2.9-.5-.2-.8-.3-.9-.7-.8-.6 0-.8.5-.5 1.5a948.7 948.7 0 0 1 1.7 5.5c1 3.8 1.1 4 .3 4.2-.4 0-.4.2-.4.6 0 1.2 0 1.2 5.5-.7 2.4-.9 2.6-1 2.4-1.6-.1-.6-.5-.6-1.3-.3-1.6 1-4.2.2-4.8-1.2-.4-1-.8-2.7-.6-2.9.3-.2 10.8-3.4 11.4-3.4.4 0 .4.2.4.7 0 1-.6 1.6-2 1.8-.7.2-.8.3-.8 1 .1 1 .2 1 5.9-1 1.8-.5 1.8-.6 1.8-1.2-.1-1-.5-1-2.6-.2-.4.1-.5 0-.6-.5-.4-1.2-.4-1.2 1.8-2l2.1-.7.4 1.3c.7 2.6.1 4.6-1.3 4.6-.7 0-2 .9-2 1.3 0 .7.4 1 1 .8a84.6 84.6 0 0 1 6.5-2.2c.5-.3-.3-1.2-1-1.2-.6 0-.7-.1-1.2-2l-2-6.7c-.5-1.5-.8-1.8-1.5-1.4m.9.4l1.6 5.1 1.4 4.8h.6c.6 0 1.2.6.9.8l-6 2c-.7.2-1 0-1-.4 0-.2.8-.7 1.8-1 2-.5 2.4-2.3 1.2-6.2 0-.4-.4-.3-2.7.6-2.3.8-2.2.7-2 1.8.4 1.2.4 1.2 1.8.8 1.3-.4 1.7-.3 1.7.4 0 .3-5.8 2.3-6.8 2.3s-.6-.9.4-1c1.6-.3 2.7-2.1 1.8-3-.2-.2-11.2 3-12 3.4-.4.2-.4.3-.3.8l.5 1.6c.7 2.3 2.9 3.3 5 2.3a4 4 0 0 1 1-.3c.5 0 .4.8 0 .9l-3.5 1.2c-3.4 1.2-3.5 1.2-3.5.4 0-.4 0-.5.4-.5.8 0 .8-.2-.4-4.4-2-6.7-2-6.4-1.6-6.6.4-.3.5-.2.8.8.3 1.3.3 1.3 2.7.5l5.9-1.8c10.2-3.3 9.7-3 9.5-4.5-.2-1 .5-1.6.8-.8m-281.2 5.8c-.4.3-.2 46.6.2 46.7.2.1 1.5.2 3 .1h3c.2 0 .3 9.8.3 47.9v47.8l2.7 1.5a449.6 449.6 0 0 0 11.3 6.5 66.7 66.7 0 0 0 4.8 2.8 238.5 238.5 0 0 0 6.4 3.6 4436.8 4436.8 0 0 0 42.2 24.4 222.3 222.3 0 0 0 7.8 4.5 10002 10002 0 0 0 10.5 6c.4.3.5.3.7 0 .2-.3.2-45.1 0-45.9a65.7 65.7 0 0 0-10.8-6.6 1107.2 1107.2 0 0 0-25.4-14.8l-3.4-2v-26.3-26.2l2 1.2A3323.8 3323.8 0 0 0 190 237v9.7c0 5.3.1 9.8.2 10 .2.4 9.6 6 10.1 6l2.8-1.5a487.5 487.5 0 0 1 5.8-3.3l1.6-.9v-28.5l-2.6-1.5a2457.4 2457.4 0 0 0-32-18.6 1806 1806 0 0 1-17.9-10.4l-.5-.4v-49.6h-26.6c-14.6 0-26.6.1-26.7.2m139 .1c-.1.1-.2 10.5-.2 23v23l-4-2.3a8043.7 8043.7 0 0 1-28.1-16.3l-.4-.3v-19.9l-3.2-1.8a909.8 909.8 0 0 0-5.8-3.3c-1.2-.7-1.3-.7-2.2 0l-1.7 1c-4 2-7 4-7.3 4.2-.2.3-.2 3.4-.2 14.2v13.9l.4.4a329.6 329.6 0 0 0 17.4 10.1 400.9 400.9 0 0 1 10 5.7 3674.3 3674.3 0 0 1 22.6 13l2.5 1.5v56.4l-3 1.8-3.4 2a5932.7 5932.7 0 0 1-32.9 19.3c-.4.4-.4 46.3 0 46.5a67.5 67.5 0 0 0 11-6.2l1-.5a138.2 138.2 0 0 1 7.8-4.5 3440.9 3440.9 0 0 1 32.9-19 367 367 0 0 0 13.5-8 55.9 55.9 0 0 0 5.2-3 169 169 0 0 0 8.6-4.9l3.6-2.1 2.8-1.6v-47.8c0-38 0-47.8.2-47.8h3c2.3 0 3 0 3.1-.2.2-.2.2-6 .2-23.5v-23.2h-26.7c-21.2 0-26.7 0-26.8.2M157.2 173V198l.5.4a25.7 25.7 0 0 0 3.5 2 196.1 196.1 0 0 0 5 3 318.8 318.8 0 0 0 11.4 6.5 253.9 253.9 0 0 0 8.6 5 230.2 230.2 0 0 0 10.8 6.3 330.8 330.8 0 0 0 10.6 6.2l2.6 1.5-.1 14V257l-1 .5a642 642 0 0 0-8.6 4.9c-.2.1-.7 0-1.7-.6a830.2 830.2 0 0 0-7.4-4.3l-1-.5v-20l-2.9-1.7a510.2 510.2 0 0 1-10.3-6 2255 2255 0 0 1-15.6-9c-4-2.3-4.2-2.4-4.4-2.1V271l1.5.9a149.6 149.6 0 0 0 7.5 4.3 214 214 0 0 0 11.6 6.8 685 685 0 0 0 17.5 10.2l1.5 1V317c0 20.5 0 22.9-.4 22.8a52.6 52.6 0 0 1-5.7-3.4 178.6 178.6 0 0 1-9-5 480.2 480.2 0 0 0-13.3-7.8 3220 3220 0 0 1-31.4-18 672.6 672.6 0 0 1-10.2-6l-2.1-1.1-1.4-.9a55.2 55.2 0 0 0-6.2-3.6 274.8 274.8 0 0 0-4.7-2.6l-1.6-1-.1-47.8v-47.9H104.4v-46.5h52.8v24.8m139-1.6v23.2H293l-3.1.1-.1 47.9-.1 47.8-1.7 1a33.4 33.4 0 0 1-4 2.4 530 530 0 0 1-12.4 7.1 209 209 0 0 1-11.3 6.5 31.8 31.8 0 0 1-4 2.4 433.7 433.7 0 0 1-10.8 6.2 862.7 862.7 0 0 1-19.8 11.5 465.3 465.3 0 0 0-10.2 6 345.7 345.7 0 0 0-11.6 6.5l-.1-23v-23l1.7-1a5035.9 5035.9 0 0 1 37.3-21.9c.5-.2.8-56.2.3-56.8a717.5 717.5 0 0 1-20.5-11.9l-.9-.5a75.7 75.7 0 0 0-7-4l-2.6-1.5a743.8 743.8 0 0 0-19.9-11.5l-1.8-1v-28.1l1.1-.8 1.6-.9 5.9-3.3c1.2-.7 1.3-.7 3.8.7a395.6 395.6 0 0 0 5.6 3.2l1.7 1 .1 10v10l1.7 1a223.6 223.6 0 0 0 7 4 1165.2 1165.2 0 0 1 15.6 9c6.9 4 8.5 5 8.7 4.8 0 0 .2-10.5.2-23.2v-23h52.8v23.1M11.6 158l-.6 2.3-.8 3c-.2 1.2-.3 1.5 0 1.7.4.6 1 .4 1-.2.3-1.2.8-1.4 2.4-1l2.2.5a486.2 486.2 0 0 1 12.5 3.2l1.4.4-.1.7c-.2 1.5-.2 1.6.4 1.6.7 0 .7 0 1.6-4.4l.6-2.1c.2-.7 0-1-.5-1.2-.5-.1-.9.3-1 1-.3 1 .2 1.2-8.5-1.1l-6.7-1.8c-3.3-.8-3-.6-2.8-1.7.3-1.2-.7-2-1.1-.9m1 .3c0 .2-.1.7-.3 1v.7a817 817 0 0 1 13.6 3.7c4.3 1.1 4.7 1 5-.1.4-1.2 1.2-1.3 1-.1A20 20 0 0 1 30 170c-.3 0-.3 0-.3-.6.2-1.5.2-1.7-.4-1.9l-15.6-4c-1.6-.4-2-.2-2.6.9-.4.7-1 .8-.9 0l.9-3.3c.6-2.7.7-3.2 1-3.2.3 0 .5.2.5.4M391 169.1l-.1.9c0 .8-.4 1.3-1.1 1.4a114.6 114.6 0 0 1-6.1 1 170.9 170.9 0 0 1-9.6 1.4c-1.5.2-1.6.2-1.8-1-.1-.7-.3-1-.6-1-.7-.1-.8.2-.6 1.2l.4 2.6c.2 1.8.4 2.2 1 2.1.4 0 .5-.2.5-.8.1-1.7 0-1.5 3.4-2a5150.3 5150.3 0 0 0 9.6-1.5l.8-.1-.6.5-1 .8-11 8.6c-1.7 1.3-1.9 1.6-1.8 2.3.1.5 0 .5 2.1.2a693.5 693.5 0 0 1 16.1-2.6c2-.3 2-.3 2.1.8.2 1 .5 1.4 1.2 1.1.3 0 .4-.2.3-.8l-.4-2.7c-.2-2.3-.3-2.4-1-2.3-.6 0-.6.1-.6.8.1 1.5 0 1.5-3.4 2a1022.7 1022.7 0 0 0-9.7 1.5l10.1-8c3.4-2.5 3.3-2.4 3.1-4.8-.1-1.6-.6-2.3-1.3-1.6m1 1.8c.2 2.2.8 1.6-5 6-7.7 6-8.2 6.5-8.3 6.8 0 .2 0 .3.3.2l5-.8c9-1.4 8.6-1.3 8.5-3 0-.6.2-.8.6-.6.3 0 .9 4.6.7 5.1-.3.6-.6.2-.8-.8-.2-1.3-.3-1.3-1.6-1A529.9 529.9 0 0 1 377 185c-4.7.8-5.2.6-3-1a472 472 0 0 0 12.6-10c.8-.7.9-1.1.1-1l-6.6 1c-7.4 1.1-7 1-7 2.4 0 .9 0 1-.5 1-.5-.2-.5-.4-1-4.4-.3-1.6.5-1.5.7 0 .2 1 .5 1.4.7 1.2l1.7-.2a414 414 0 0 0 12.2-1.8c4.3-.7 4.4-.7 4.4-2 0-.9 0-1.1.5-1 .3 0 .4.4.5 1.7M7.2 180c-.1 1-.4 5-.3 5.2.4.7 1.5-.3 1.5-1.5 0-.5.6-.5 6.9.1l4.8.5 1.5.1-1.3.6A491 491 0 0 0 8 190.7l-1.7.8-.1 1.3c-.2 2-.2 2.7.2 2.8.5.2.8 0 1-1 .5-1 2.2-1.1 10.8 0l3.9.4c3.7.3 3.8.3 3.8 1 0 .9.2 1.3.7 1.4.7.2.8 0 .8-1.3l.3-2.4c.3-1.8 0-2.2-.9-2.2-.5 0-.5.1-.5.5 0 1.6-.6 1.8-3.6 1.5a86.3 86.3 0 0 1-9.9-1.2l2.7-1.1a382.3 382.3 0 0 1 12-5.6c1-.5 1.2-.7 1.4-1.4.2-.7-.2-.8-6-1.2a786 786 0 0 1-11-1c-3.8-.3-3.5-.2-3.3-1.3.3-1 .2-1.2-.6-1.2-.4 0-.6.2-.6.5m1 .8c-.2 1.3-.4 1.2 3.7 1.5a1210.4 1210.4 0 0 1 12.3 1c3.9.3 4.3.4 4.3.8 0 .5-.6 1-1.6 1.4a140.3 140.3 0 0 0-7.1 3.3c-8 3.6-8.8 4.1-7.3 4.1l2.7.2c10.6 1.1 11 1.1 11-.7 0-.7.3-.8.9-.4.3.2 0 4.1-.3 5-.3.7-.7 0-.8-.8 0-1.2-.1-1.2-3.1-1.4l-10-1c-4.8-.6-5.7-.4-6 1-.1.8-.8.7-.7-.1v-3l1.4-.6 7-3.2c7.8-3.5 7.5-3.4 7.2-3.6l-7.1-.7-4-.5c-2.1-.2-2.6 0-2.8 1-.3 2-1 1.2-.8-1 0-.9.2-2 .3-2.5 0-.7.2-.9.5-.9s.4.1.2 1.1m366 16.7c-.3.9-.2 6.3.2 6.4.5.1.7-.1.9-1.2.2-2 .6-2 6.8 0l4.9 1.7-.1 1.1c-.2 1.4 0 1.3-2.8 2l-3.8 1c-5.4 1.5-5.1 1.5-5.1.2 0-1-.3-1.3-1-1-.2 0-.5 6.4-.3 7 .2.6 1.2.3 1.3-.5.3-1.1 1-1.4 9.9-3.9a115.8 115.8 0 0 0 3.4-1c2-.5 6.2-1.7 6.7-2 .6-.2.8-1.1.3-1.5-.2-.2-5.2-2-15-5.2-4.9-1.6-5-1.6-5-2.1 0-1.2-1-2-1.3-1m1 .1v.6c0 .8.5 1 6.7 3.2a82.6 82.6 0 0 1 13.5 4.8c.5.8 1.3.5-13.8 4.9-5.7 1.6-6.3 1.9-6.6 3-.5 1.6-.7.6-.8-2.8 0-3.3 0-3.4.3-3.4.4 0 .5.2.5 1 0 1.3 0 1.3 2 .8 1-.3 3.5-1 5.5-1.4 4.7-1.3 4.4-1 4.6-2.6.1-1.6.3-1.5-4.5-3l-5-1.7c-1.4-.5-2.6.4-2.6 2 0 .4-.1.5-.5.5s-.4 0-.3-1.6l.1-3.1c0-1.3 0-1.5.5-1.5.2 0 .4.2.4.3m13 7.3c-.2.4-.2 1.4 0 1.6.3.3 3.2-.5 3.2-.9l-1.2-.5-1.5-.4c-.2-.1-.4 0-.5.2m1.6.3c1 .4 1 .6-.1.9-.5 0-1 .3-1.1.3-.2.1-.2 0-.2-.6 0-1 0-1 1.4-.6M6.2 209.7c-.3.2-.2 5.2 0 5.7.4.5 1.6.2 1.5-.4-.3-1.3 0-1.6 1.9-1.7l5-.5c8.3-.7 8.7-.7 10.1.1 2.2 1.4 1.6 5-1 5.7-.4.2-7.5.6-13 .9l-2.7.1v-.7c0-1.3-1.3-2-1.4-.7-.1 1 .4 7.1.6 7.2.6.2 1.2-.2 1.2-1 0-1.4-.7-1.3 11.5-2 4.2-.3 5.5-.7 7-2.1 2.3-2.4 1.4-7.5-1.6-9-.9-.5-2-.6-6-.3l-11 .8h-.8l-.1-.9c0-1-.6-1.6-1.2-1.2m.9 1l.1 1c0 .5 5.9.2 14-.6 4.2-.4 6 1 6.6 4.6.3 2.3 0 3.5-1.4 4.6-1.6 1.4-2.4 1.5-13.7 2.2-4 .3-4.5.5-4.5 1.7 0 .5-.1.8-.4.9-.5.2-.6-.2-.7-2.4l-.3-3.4c-.1-1.6.6-2.1.8-.6.3 1.3 0 1.3 5 1l7.5-.5c5.3-.2 7.3-2 6-5.1-1-2.3-2-2.4-11.3-1.5-1.2 0-3.2.2-4.5.4-2.7.2-3 .3-3 1.6 0 .7 0 .8-.4.7-.4 0-1-4.2-.6-5.1.1-.6.6-.2.8.5m258.5 142.8c-.2 0-.2.3-.1.8v.8l-1.9.7a156 156 0 0 0-7.6 3c-.7.2-.7.3-.4 1 .2.6.5.6 1.6.2.4-.1 1 .5 1.3 1.3a618.5 618.5 0 0 1 3.8 9.4l2.8 6.7-.9.4c-1 .3-1.2.6-.8 1.3.3.6 1.3.3 7.5-2.4 1.9-.8 2.9-1.2 3-1l.3.5c.3.6 1 .7 1.3.3.2-.4-.1-1.4-1-3.5l-.9-2.4c-.7-2.2-1-2.3-1.9-1.8-.4.2-.4.8.3 2.2.8 2 .3 3.2-2 4.4-1.9.9-1.8.9-2 .2l-.5-1-2.1-5.4c-1-2.2-1.7-4.1-1.9-4.3-.3-.6-.2-1 .5-1 .9-.3 2 .5 2.3 1.6.3 1 .5 1 1.2.8.6-.2.6 0-.9-3.9s-1.5-3.8-2.1-3.5c-.6.4-.7.7-.1 1.7.5 1.2.5 1.3-.6 1.8-1 .4-1.2.3-1.6-1l-.5-1.4c-.8-1.8-.8-1.6.3-2.1 2.2-1.2 5.6-.2 5.6 1.6 0 .6.6 1.5 1 1.4 1-.1.9-.6-.6-4-1.4-3.5-1.6-3.8-2.4-3.4m1 .7l2.6 6c0 .8-1 .4-1.4-.6-1.2-2.8-4-3.5-6.5-1.6l-.6.5 1 2.1c1 2.5 1 2.5 2.1 2 1.3-.4 1.4-.6.8-2-.5-1.1-.4-1.6.3-1.4.2 0 2.7 6 2.7 6.6 0 .6-.6.4-1-.5-1.3-2.5-4.1-2.5-3.2 0 2 5.2 4.6 11 4.9 11 .3 0 3-1.2 3.4-1.6 1.1-.9 1.2-2.3.2-4.5-.4-1-.2-1.5.6-1.5.3 0 3 7.4 2.7 7.7-.3.3-.6 0-.9-.6-.2-.7-.3-.6-5.6 1.6-4.5 1.8-4.9 2-5.1 1.6-.4-.5-.2-.7.8-1 1.2-.4 1.4.4-2.4-8.8-4.2-10.3-3.7-9.4-5-9.3-1 0-1.2 0-1.3-.2-.2-.5-.2-.5 6.1-2.9l4.2-1.6-.1-.6c-.3-1.2.3-1.5.7-.4m-129 2.9c-4.7.8-8.3 3.8-9.8 8-.4 1.4-.5 5.7 0 7 1.2 3.8 3.4 5.9 7.9 7.6 2.8 1 7.5.9 8-.3.2-.5-.3-1.3-.8-1.2-3.5.9-4.8.8-7-.2-6-2.7-6.8-12.5-1.5-17.5 5.2-4.8 14 0 12 6.4-.5 1.3-.5 1.5-.2 1.7.7.4 1 0 1.9-2 2.5-5.8 2.5-5.9 2.2-6.2-.4-.5-1-.3-1.4.6l-.4.8-.6-.6c-2.2-2.1-3-2.6-5.6-3.5-1.4-.5-3.7-.8-4.7-.6m4.9 1c2.4.8 3 1.2 4.7 2.8 1.3 1.3 1.5 1.3 2 .2.4-.8.7-1 .9-.5.1.4-3 8-3.3 8-.6 0-.7-.4-.3-1.4 2.4-6-6-11.6-11.5-7.6-4.3 3.2-5.7 10-3.1 15 2 3.8 7 5.5 10.9 3.9.4-.2 1 .6.6.9-1.4 1.4-7.2.7-10.6-1.3-11.3-6.7-2.7-24.5 9.7-20m89.9 7.1l-3.4.7c-2.4.5-2.6.6-2.3 1.4.2.4.3.5 1 .4 1.3-.2 1.5 0 1.8 2.5a105.7 105.7 0 0 0 1.4 7.4 734.4 734.4 0 0 0 1.4 8.7l-1 .2c-1 .1-1.2.3-1 1 .4.8-.2.9 7.6-.7 2.8-.5 3-.5 3 .4.1.6.2.6.6.6 1-.1 1 0-.5-8.8-.4-2.5-.4-2.5-1.1-2.4-.7 0-.8.5-.4 2.5.9 3.8.4 5.5-1.7 6.2-1.6.5-2 .4-2.2-.9a289.5 289.5 0 0 1-3-17.4l.9-.3c1.1-.1 1.3-.3 1-1.1-.2-.7-.3-.7-2.1-.4m2 .7c0 .4-.2.4-1 .5-1.3.2-1.3.2-1 1.4a410.7 410.7 0 0 1 2.7 15.4c.4 2.5.5 2.8 1.3 2.6 3.6-.6 4.4-2 3.5-6.3l-.5-2.5h1l.9 5 .7 5.3c-.2.5-.7.2-.8-.4-.1-.9-.4-1-3-.4-7.3 1.4-7.3 1.4-7.5 1.2-.3-.4 0-.9.5-1 1.7-.1 1.8.8-.1-9.5l-.6-3.3c-1.2-6.7-1.2-6.6-2.6-6.5-.5 0-.8 0-1-.3-.2-.3.3-.7 1-.8l2.8-.5c2.7-.5 3.5-.5 3.6 0m-67.8-.1c-.2.2-.2 1.3.1 1.3l.8.2c1 .3 1 3.3 0 8.7a51.9 51.9 0 0 0-.8 5.2l-.5 3.1-.2 2h-2.4v.7l.2.7 2.7.4c3.7.5 4.5.5 4.8.1.3-.5 0-.8-1-1.1l-.9-.3.1-1.2 1.2-9.6.2-1.8 1.4.1c4.4.4 4.5.5 4.2 2.2a62.2 62.2 0 0 0-1.1 7.2l-.5 2.9v1h-1.3c-1 0-1.1 0-1.1.5 0 .7.3.8 2.5 1.1l2.7.4c2 .4 2.3.5 2.5.2.5-.6.1-1.2-.8-1.5l-1-.3v-1.3l.2-2.4a92.7 92.7 0 0 0 1-6.8 415 415 0 0 0 1.1-7l.3-1.1h1c1 0 1.2-.1 1.2-.5.1-.6-.3-.8-2-1l-3.5-.6c-2.2-.3-2.5-.3-2.4.5 0 .4.2.6.7.8 1.2.3 1.4.8 1 2.8-.2 2.2 0 2.1-3 1.7-3-.4-2.7-.1-2.5-2.5.2-2.8.2-2.8 1.5-2.6 1 0 1 0 1.2-.4.1-.7 0-.9-1-1l-3.4-.5c-2.9-.5-3-.5-3.2-.3m2.8.5c2.5.3 4.5.7 4.6.8.3.3-.4.6-1.3.6-1.2 0-1.2-.2-1.5 2.6-.2 2.9-.4 2.6 2.8 3.1 3 .5 3 .5 3.2-1 .5-2.6.2-4-.8-4-.4 0-1-.5-1-.8 0-.3 4.7.2 7 .7 1 .3.5 1-.6.8l-1.1-.1-.2 1.3a195.2 195.2 0 0 0-1.8 12.1l-.5 3c-.3 2.3 0 3 1 3.2.7 0 .9.2.9.6 0 .6 0 .6-6.1-.4-1.8-.3-1.9-.9-.2-.8 1.2 0 1.2.2 1.5-2.4a1576.2 1576.2 0 0 1 1.6-10.5c0-.4-.5-.5-5.3-1.2-1 0-1 .1-2 8.4 0 1-.3 2.2-.3 2.7-.3 1.5.2 2.4 1.3 2.4.3 0 .5.2.5.5 0 .4-.3.4-4.5 0-2.8-.4-2.7-.4-2.7-1 0-.5 0-.5 1-.4 1.3.1 1.3.2 1.6-2a169 169 0 0 1 1.4-10c1-6.2 1-7.5-.4-7.5-.4 0-.7 0-.7-.4-.2-.5 0-.8.5-.7l2 .4m34.4 2.3l-3 .1v1.6l1 .1c1.2 0 1.1-.5 1.5 9.8.3 10.2.4 9.4-1 9.4-1 0-1 0-1 .6.2.6 1.7.8 5.7.5l2-.2.1-.6c0-.6 0-.7-.7-.7-1.1 0-1.3-.1-1.4-1.7-.3-5.2-.4-10.5-.5-13.7V370h2V368.2h-.9l-3.8.2m4.5.6c0 .5-.1.6-1 .6l-1 .1v3.3c0 6 .5 15.1.7 15.7.2.5.3.5 1 .5.8 0 1.2.5.8.8-.4.5-7.2.5-7.2 0 0-.3 0-.4 1-.4 1.3 0 1.3.2 1.1-5.6-.5-14.8-.4-14.2-2-14.2-.6 0-1-.4-.6-.8.2-.1 1.5-.3 3.4-.4 4-.1 3.8-.1 3.8.4"/>
  </g>
</svg>
