<svg xmlns="http://www.w3.org/2000/svg" width="117.4" height="141.3" display="block">
  <g fill-rule="evenodd">
    <path fill="#a51d28" d="M58.6 1c0 .6-.1.9-.3 1-.2.1-.2.2.3.2 1 0 1.5.6 1.4 1.8 0 .7 0 .8.1.6a.8.8 0 0 1 1.4.8c0 .5 0 .5.5.4 1.2-.2 3 .9 3.3 2 .3 1.2-.3 2.3-1.7 3.1-.4.2-.5.3-.3.4.4.1.5.4.3.8-.4.7-2.3 0-3.4-1.3l-.6-.7v1c0 .6 0 1.1.2 1.3.4.5.4 1.3 0 2l-.2.7h1c2.1.1 2.9.7 2.3 1.6-.2.3-.5.4-1 .4-.3 0-.6 0-.7.2-.2.2-.7.2-1.1 0-.5-.4-.5-.2-.5 1v1l.6-.5c1.4-1.5 3.1-.7 2.5 1.1-.1.6-.2.6-1 .6-1.1 0-1.4.7-1.4 3v1.8h1c.7 0 1.1-.2 1.3-.3 0-.2.4-.3.7-.4.4 0 .7-.2.8-.3 0-.2.2-.3.4-.3.1 0 .5-.1.7-.3l.6-.3.4-.4c.2-.2.5-.3.7-.3.1 0 .3-.1.3-.3l.5-.7.8-1 .6-.5.4-.6.2-.7c1.2-1.5 2.5-9.3 1.6-9.3-.1 0-.2-.1-.2-.4 0-.2 0-.4-.2-.4l-.1-.4c0-.3-.1-.4-.2-.4s-.2-.2-.2-.5c0-.2 0-.4-.2-.4l-.1-.2c0-.2-.1-.3-.2-.3l-.2-.3-.1-.4c-.1 0-.2-.1-.2-.3l-.3-.5c-.2-.2-.4-.4-.4-.6 0-.4-.6-1-.8-.9-.2.1-1.2-.8-1.2-1 0-.2-.2-.2-.4-.2-.1 0-.3-.1-.2-.2 0 0 0-.2-.2-.2-.1 0-.2 0-.2-.2 0 0-.2-.1-.4 0-.2 0-.3 0-.3-.2s-.4-.4-1-.4c-.2 0-.4 0-.4-.2 0 0-.1-.2-.3-.2L63 .7l-.4-.2c-.2 0-.3 0-.3-.2h-1L60.2.1l-.9-.2h-.7v1m-1.9 5.4c0 .1 0 .2.2.2l.1.3.2.2c.3 0 .2-.3-.2-.6-.1-.2-.3-.2-.3 0M54 8l-.2.4c.2 0 .8-.5.7-.6 0 0-.3 0-.5.2m9.2.1l.3.3v-.3l-.3-.2c-.2 0-.2 0 0 .2m-9.4 3l.4.1c.3 0 .3 0 .1-.1-.3-.2-.5-.2-.5 0M0 41.6v29.2h14l13.8-.1.1-2.5c0-1.4.2-2.4.3-2.5l.3-1.2c0-.6.2-1.3.4-1.6.1-.2.3-.8.3-1.3.1-.6.2-.9.4-1 .2-.1.4-.4.4-.6l.1-.7 1.2-2.7.6-1 .6-1c0-.2.1-.3.3-.3l.2-.4.4-.6c.2-.2.5-.6.6-1l.7-.8.3-.6c0-.2.2-.3.4-.4.2 0 .3-.2.3-.3 0-.2 1.5-1.6 1.7-1.6.1 0 .2-.1.2-.3 0-.1 0-.2.2-.2s.7-.4 1.5-1.1c.1-.2.3-.3.5-.3l.1-.2c0-.1.2-.3.5-.4.2 0 .4-.2.4-.3 0-.2.2-.3.5-.3.4 0 .5 0 .5-.3s.1-.3.4-.3c.3 0 .5-.2.6-.4.1-.2.4-.3.6-.3.3 0 .4-.1.4-.3l.6-.3c.3 0 .6-.2.7-.4l.5-.2.8-.3.8-.4c.3 0 .6-.1.8-.3.1-.1.6-.3 1-.3.5 0 .8-.2.9-.3l1-.4c.5 0 1-.2 1.2-.3.2-.2.8-.2 2.5-.2 1.9 0 2.3 0 2.4-.3.1-.3.6-.3.8 0 .5.4 1.2 0 1.3-.6 0-.6 0-.6-.4-.6-.6.2-1.5-.7-1.5-1.4l-.1-.4c-.4 0-.7-.5-.7-1.2 0-.5 0-.6.3-.6.2 0 .4-.1.5-.3.4-.4 0-.7-1.1-.7-.9 0-1 0-1-.5s-.4-.5-.5 0c0 .6-2.4.7-2.5 0-.2-.6-.8-.6-.8 0 0 .5 0 .5-1.2.4h-1L49 31c0-3.7-.2-3.6 1.3-3.6h1v2.2h.5c.5 0 .5 0 .5-1v-1h2.1v1c.1 1.4.8 1.6.8.1 0-1 .2-1.3 1.1-1.3l.8-.1v-2.4c-.1.4-1.7.5-1.8 0l-1-.3c-.7 0-1-.2-1-.3 0-.2-.1-.3-.4-.3-.2 0-.6-.1-.8-.3l-.8-.7c-.7-.4-3.2-3-3.3-3.4a4 4 0 0 0-.5-.9c-.2-.3-.5-.7-.5-1l-.4-.9c-.3-.7-.8-2.7-.6-3v-.7l-.2-.6H0v29.1m56.7-23.2c0 .2.4.4.6.4.2 0 0-.3-.3-.4h-.3m6 10.7v.5c.1 0 .2-.8 0-1v.5M59 41.2c0 2-.2 4.3-.4 4.4-.2 0 .9 1.8 1 1.8l1-1.2c.8-1.2 1.4-1.4 1.4-.3l.4 1 .4 1 1-1.1c1.2-1.2 1.6-1.3 1.6-.7 0 .3.6 2.3.8 2.5l1.1-.8c1.4-1.2 1.4-1.1 1.6.3.2 1.9.2 1.9 1.4 1.1l1.2-.6.5-.2v1.3c-.1 1.8-.1 1.8 1.4 1.2 1.7-.6 1.7-.5 1.5 1-.3 1.6-.2 1.6 1.2 1.3 1.6-.4 1.7-.3 1.3.9-.4 1.1-.4 1.8-.1 1.8l1.2-.2c1.7-.3 1.7-.2 1 1.3-.7 1.6-.7 1.6 1 1.6 1.8 0 1.8 0 .7 1.6-.9 1.3-.9 1.3.8 1.6 1.5.3 1.7.5 1 1.1l-.5.5-.5.7-.5.5 1.2.4c2.1.6 2 .5.8 1.7l-1.2 1.1 1 .5 1.4.7.4.3-.8.5c-.4.4-.8.6-.9.6-.1 0-.2 0-.2.2 0 .3 5.9.2 6-.1a26.2 26.2 0 0 0-1.3-9c-.1-.5-.3-.9-.4-.9-.2 0-.3-.2-.3-.6a7.8 7.8 0 0 0-1-3.1c-.7-1.5-1-2-1.2-2l-.1-.3-.2-.3s-.2 0-.2-.2 0-.3-.2-.4c-.2 0-.3-.2-.3-.3l-.5-.7-.5-.7c0-.1 0-.2-.2-.2l-.1-.2c0-.2-.1-.3-.3-.4a.4.4 0 0 1-.2-.3c0-.2-.1-.3-.2-.3-.2 0-.5-.3-.8-.7-.4-.3-.7-.6-.9-.6l-.2-.3c0-.1-.1-.3-.3-.3-.2 0-.3-.2-.3-.3 0-.2-1.5-1.7-1.7-1.7-.1 0-.2 0-.2-.2l-.4-.4c-.3 0-.4-.2-.4-.3 0-.2-.2-.3-.5-.3a.7.7 0 0 1-.6-.3c0-.2-.3-.3-.5-.3l-.6-.4-.7-.3-.3-.3c0-.1-.4-.3-.7-.3-.3 0-.6-.2-.7-.4l-.5-.2-.9-.3-.7-.4a1 1 0 0 1-.7-.2c-.1-.2-.6-.3-1-.4-.4 0-.8-.2-1-.3-.1-.1-.7-.3-1.4-.3l-1.4-.4-1.1-.3h-2.7l-1.8-.1v1m3.1 9.1l.4.2c.1.1.3.1.4 0 .5 0 0-.3-.6-.3-.4 0-.4 0-.2.1m-6 1.7c-.1.2-.1.2 0 .2l.4-.2c.1-.4 0-.4-.4 0m13.6 1.4s0 .2.3.2c.2 0 .3-.1.2-.2l-.2-.2-.3.2m-1.2.7l.3.3s.1 0 0-.2c0-.3-.4-.4-.3-.1m-14.6.1c0 .3.8.5 1 .2.2 0 .1-.1-.1 0-.2 0-.5 0-.6-.2H54m.2 1.3c.4.2.6.2.4 0 0-.2-.3-.2-.5-.2-.3 0-.3 0 0 .2m16.5 2c0 .2.1.3.2.3l.2-.3-.2-.2s-.2 0-.2.2m-26.2 1c0 .2 0 .3.1.2l.2-.3c0-.2 0-.3-.2-.3l-.1.4m20.5.3c-.5.1-.5.1.2.1h1.2c.5-.2.4-.2-.2-.2l-1.2.1m3.9.4c-.2.2 0 .3.3 0 .3-.2.3-.2 0-.2 0 0-.2 0-.3.2m9.4 4l.1.3c.2.2.2.2.2 0 0-.3-.2-.5-.3-.3m-8.6.4l.1.3c.1 0 .2-.1.2-.3 0-.1 0-.2-.2-.2l-.1.2m-27.5.6h1.4l-.7-.1h-.7m26.7.7h.3-.3m2.5.5l.1.5s.1-.1 0-.4c0-.6-.1-.7-.1 0m-5.6.6c0 .4 0 .5.1.3v-.7.4m-20 .3V66v.3m5.6 3.2c0 .4-.1.7 0 .8l.1-.7c0-.4.1-.7 0-.8l-.1.7m1 .3v-.4.4m27.4-.2v-.3.3m-39.7.1v.6l.2-.8c-.1-.2-.1-.2-.2.2m31.8 0l.2.5V70c0-.6-.2-.7-.2 0m-39.7 1l-.4.2c0 .2-1.6.2-2.7 0-.7-.2-.9-.2-1 0-.2.3-.1 4.5.1 4.7l.4 1.3c0 .7.3 1.5.4 1.9.2.3.3 1 .3 1.3l.1.6.3.5c0 .3.3.9.5 1.4.3.4.4.9.4 1l.5.6c.2.2.5.8.6 1.3l.4.8s.3.3.4.7l.5.7c.1 0 .2 0 .2.2l.1.3.5.5.7 1.1.5.7.6.6.5.6.3.3c.2 0 .3.2.4.4 0 .2.2.3.3.3.2 0 .3.1.3.3 0 .1.1.2.3.2.1 0 .3.2.3.4s.3.4.4.4c.2 0 .4.2.4.3 0 0 .1.2.3.2.2 0 .3.2.3.4 0 0 .1.2.3.2l.7.4c.2.3.5.4.6.4l.6.5c.3.3.7.6 1 .6l.6.4.6.3c.4 0 .7.2.8.4l.5.2.8.4c.2.1.5.3.8.3l.5.2c0 .2.4.3 1 .4.5 0 .9.2 1 .3 0 .1.5.3 1.1.4.6 0 1.1.2 1.2.3l1.4.3c.7 0 1.4.2 1.5.3l2 .2 1.8.2v-.7c.2-.9.2-4.2 0-4-.1.3-.4 0-1-1.2-.7-1.4-.7-1.4-1.9 0-1 1.1-1 1.1-1.5 0l-.6-1.5-.2-.5-1 1c-1.3 1.3-1.3 1.3-1.6-.4C50 93 50 93 48.7 94c-1.4 1-1.5 1-1.5-.4 0-1.8-.2-2-1.6-1.3-1.6.8-1.5.8-1.5-1v-1.5l-1.3.4c-1.7.6-1.7.7-1.3-.7.5-1.8.5-2-.4-1.8a9 9 0 0 1-2.3.3l.8-2.7c0-.2-.3-.2-1.4-.2-1.8 0-1.8 0-1-1.3.8-1.5.8-1.5-.8-1.7-1.8-.1-1.8-.2-.7-1.4l.4-.6.2-.4c.4-.3.2-.5-1.3-.8-1.6-.4-1.6-.4-.4-1.7 1-1 1.1-1.3.7-1.3l-.6-.1-.8-.4c-1.3-.5-1.3-.6 0-1.6.7-.4 1.1-.9 1-1 0-.2-1.4-1-2.2-1.4-.4 0-.5-.2-.3-.2.1 0 .3 0 .4-.2v-.1h-.6m57.3.5l-.2 3c0 1.5-.1 2.6-.2 2.8l-.5 1.3-.4 1.2c-.1 0-.2.2-.2.6 0 .3 0 .6-.2.6-.2.1-.3.5-.4.8 0 .8-.1.9-.9 2.6l-.5 1.4c0 .1 0 .2-.2.2l-.4.5-.5 1-.7 1a2 2 0 0 0-.4.6l-.7.8c-.4.4-.7.8-.7 1l-.5.5-.5.7-.1.2c-.3 0-1.2 1-1.2 1.2l-.2.1-.9.7c-.3.4-.7.7-.8.7-.2 0-1 .8-1 1 0 0-.1.2-.3.2l-.6.3c-.2.2-.4.4-.6.4l-.6.3c-.1.2-.4.3-.6.3-.2 0-.4.1-.4.3 0 .1-.1.2-.3.2-.2 0-.5.2-.6.4l-.6.3c-.2 0-.4.2-.5.4-.1.2-.3.3-.8.3-.3 0-.6 0-.6.2-.1.2-.5.3-1 .4-.6 0-1 .2-1 .3-.1.2-.4.3-.9.3s-.8 0-1 .3c0 .2-.5.3-2.2.4-1.2 0-2.2.2-2.3.3 0 0-.8.2-1.7.2l-1.7.2v19.8a440.3 440.3 0 0 0 .3 19.6l.8-.2c.4 0 .8 0 .8-.2l.6-.1c.4 0 .7-.1.7-.2l.6-.2.6-.1c0-.1.2-.2.5-.2s.5 0 .5-.2h.5c.4 0 .6 0 .6-.2.1-.2.3-.2.6-.2h.5c0-.2.3-.3.5-.3l.5-.1.5-.2c.3 0 .6 0 .6-.2l.5-.1c.4 0 .6-.1.6-.2l.4-.2.3-.1.6-.2c.3 0 .6 0 .6-.2l.4-.1.5-.2h.7c.4 0 .5 0 .3-.2-.2-.1-.2-.2 0-.2l.5-.1c0-.1.2-.2.5-.2s.5 0 .5-.2l.3-.1.4-.2c0-.1.2-.2.5-.2l.5-.1.2-.2c.2 0 .3 0 .3-.2l.4-.1.4-.2h.3c.1 0 .2 0 .2-.2s.2-.3.4-.2l.3-.1c0-.1.1-.2.3-.2.1 0 .2 0 .2-.2l.5-.1.4-.2c0-.2 0-.2.1 0s.2.1.3-.1c0-.3.2-.4.4-.4s.4 0 .4-.2l.3-.1c.2 0 .3-.1.3-.2s.2-.2.3-.1c.1 0 .2 0 .2-.2s.1-.2.3-.2c.2.1.4 0 .6-.2.1-.2.3-.3.5-.3l.2-.2c0-.1.1-.2.3-.2l.3-.1.4-.2c.2 0 .3 0 .3-.2l.3-.1c.2 0 .4-.2.5-.4 0-.2.2-.3.4-.2.2 0 .4 0 .5-.2 0-.2.2-.2.3-.2 0 0 .3 0 .4-.3l.5-.3c.1 0 .4-.1.5-.3l.5-.4c.1 0 .4-.1.5-.3l.4-.3c.2 0 .6-.3.7-.5 0-.3.2-.4.5-.4.2 0 .5-.1.6-.3.5-.8 1.1-1.3 1.3-1.2.2 0 1-.6 1.4-1.3l.5-.4c.3 0 1-.7 1-1l.3-.2.2-.1c-.2-.3 1.5-2 1.8-1.8.3.1.3 0 .3-.2-.1-.3 0-.4.2-.4s.3 0 .2-.2c0-.1.8-1 2-2l.4-.6c.2 0 .2-.2.2-.4 0-.3.4-.7.8-.7.1 0 .3-.1.3-.3l.3-.4c.2-.1.3-.3.3-.5l.3-.4.2-.6c0-.2.3-.5.5-.7.3-.1.6-.4.6-.5l.1-.3.2-.3c0-.2.2-.5.5-.8l.4-.4c-.2 0-.2 0-.1-.1 0-.2.1-.3.2-.3s.2-.1.2-.3c0-.2.1-.4.3-.5.2-.2.4-.4.4-.6l.1-.3c.1 0 .2-.1.2-.3 0-.2.1-.4.3-.5.2-.1.4-.3.4-.5l.1-.2c.1 0 .3-.2.3-.4 0-.3.2-.5.3-.5l.1-.5c0-.4.1-.6.2-.6l.2-.3.1-.2.2-.4c0-.2 0-.3.2-.3l.1-.3.2-.2.2-.4c0-.2 0-.3.2-.2v-.5l.1-.6.2-.4c0-.2 0-.3.2-.3l.1-.3.2-.4s.2-.1.2-.3l.1-.4c.1 0 .2-.1.2-.3 0-.2 0-.4.2-.4l.1-.7.2-.6c.1 0 .2 0 .1-.1 0-.1 0-.3.2-.5l.2-.6.2-.4v-.5l.1-.4.2-.6c0-.4 0-.6.2-.5 0 0 .2-.2.2-.5l.1-.6.2-.5c0-.3 0-.5.2-.5l.1-.6c0-.4.1-.6.2-.6s.2-.3.2-.7c0-.4 0-.7.2-.7V89c0-.4 0-.7.2-.8.2-.2.2-.5.2-1v-.9c.2 0 .2-.4.2-.9l.2-1s.2-.6.2-1.5l.1-1.5c.1 0 .2-.8.2-2.2 0-1.3 0-2.2.2-2.2l.1-3c0-2.2 0-3 .2-3s.2 0 0 0c-.2-.2-5.4-.2-14-.2H89.6l-.1.5m-9.8 1v.6c.2-.1.3-1.5.2-1.5l-.2.8m-2.6.5V72.3v.4m-11.4 1.6l-.1 1.8v.8c.1 0 .2-.8.2-1.8v-1.8l-.1 1m-13.2.4V74.3v.4m-8.8 2.6h.3-.3m29.1 0h.3-.3m-16.6.2h.6l-.3-.1h-.3m-5.8.3h1.1l-.5-.1h-.6m12.7 0h.5-.5m-8.2 4c-.7.2.1.2 1.1 0l.8-.1h-1.9m-.7 1.4v.4c.2 0 .2 0 .2-.3l-.1-.4-.1.3m20 2.4c0 .3 0 .3.2.2.3-.3.3-.5 0-.5 0 0-.2.1-.2.3M56 87c0 .2.2.2.6 0 .3-.1.3-.1-.1-.1l-.5.1m2 0c.2 0 .4.3.4.5.1.4.1.4.2-.1 0-.5 0-.6-.5-.5H58m1.4 3c0 .3 0 .5.2.5h.2V90c.1-.2.1-.3 0-.2l-.3-.1v.2m-1.1 0c0 .2 0 .3-.2.4v.3c.3.3.3.2.3-.3v-.6l-.1.3m-3.4.2h-.3c-.2 0-.2 0 0 .2h.5v-.3l-.2.1m7.3.1c-.2.2-.2.3 0 .3.4 0 .6-.3.4-.4-.1-.1-.3 0-.4.1m-.9 1.6c-.3 0-.4.1-.4.2.2.2.7.2.9 0 .1-.3 0-.3-.5-.2"/>
    <path fill="#f8cf1a" d="M58 2.4c-.9.5-1.1 1-.7 1.7.4.6.3 1 0 .6-.7-.6-1.6-.1-1.6.7 0 .4 0 .5-.5.5-3.2-.1-4.5 4.2-1.4 4.9.5 0 1 .5.5.5-.3 0-.6.5-.6.8 0 .2 1 .1 1.6 0 .7-.4 1.7-1.3 1.7-1.6 0-.5.7-.5.7 0 0 1.2 0 2-.4 2.4-.2.4-.3.6-.1.8l.3 1v.5h-.9c-1.4 0-1.5 0-2 .5l-.5.4.5.5c.4.3.8.5 1.1.5.4 0 .7 0 .8.2h.5c.4-.3.5-.3.6.3 0 1.3-.2 1.7-.8 1-.6-.6-1.9-.4-2.2.4-.4.9 0 1.3 1 1.3.3 0 .7.2 1 .4l.5.4v3c0 3.3.1 3.3-.7 3.3-1 0-1.2.3-1.2 1.3 0 .8 0 1-.4 1-.3 0-.3-.2-.3-1 0-1.1-.2-1.3-1.3-1.2h-.8v1c-.1 1.1-.1 1.1-.6 1.1h-.5v-2.2h-1c-1.5 0-1.4-.1-1.3 3.6v3.3h1.1c1.2 0 1.2 0 1.2-.4 0-.6.6-.6.8 0 .1.7 2.5.6 2.5 0 .1-.5.5-.5.6 0 0 .3.2.4 1 .4 1.2.1 1.7 1 .5 1-.3 0-.3.2-.3.7 0 .7.3 1.2.7 1.2l.1.4c0 1 1.4 1.8 1.9 1.2l.4-.2c.3 0 .6-.5.6-1l.4-.5c.4-.3.3-1.5-.1-1.8-.4-.1-.4-.7-.1-.8l1-.3c.4-.1.7-.3.7-.4 0-.4.8-.3 1 0 .1.3.3.4 1 .4.6 0 .7 0 .8-.3.1-.5 1.3-.5 1.4 0 .1.3.2.3 1.1.3h1v-6.5h-2.4v1c-.1.7-.2 1-.4 1s-.3-.3-.3-1l-.1-1h-.9c-1-.1-1.2 0-1.3 1-.2 1.2-1 1.6-1 .5 0-1-.1-1.4-.8-1.5l-.8-.2v-2.8c0-3.6.2-4.2 1.4-4.2.7 0 .8 0 1-.6.7-1.6-1-2.5-2.4-1.2l-.6.6v-1c-.1-1.2 0-1.4.4-1 .4.2 1 .2 1 0l.8-.2c1.3 0 1.6-1.3.4-1.7l-1.6-.2c-1.2 0-1.3-.1-.9-.8.4-.6.4-1.6 0-1.9-.1-.1-.2-.5-.2-1.3v-1.1l.6.7c1.1 1.3 3 2 3.4 1.3.2-.4 0-.7-.3-.8-.2 0 0-.2.3-.4 1.4-.7 2-1.9 1.6-3.3-.2-1-2-2-3.2-1.8-.6.1-.6.1-.5-.4.2-.9-.8-1.4-1.4-.8-.2.2-.2 0-.1-.6.1-.9-.1-1.5-.8-1.8-.6-.2-.4-.2-1.2.2M57.3 7l-.4-.2-.2-.4.4.2.2.4m-2.1.8c.4 0 0 .3-.4.4l-.9.2c-.2 0-.2 0 .2-.4.2-.2.6-.4.7-.3h.4m8.3.5v.3l-.3-.3C63 8 63 8 63.2 8c.1 0 .3 0 .3.2m-2.2 37c0 .2-.4.7-.8 1.2-.8 1.2-.7 1.2-1.4 0-.8-1.2-1.3-1.2-2 0-.4 1-1.2 1.5-1.2.8l-.6-.8c-.4-.3-.6-.7-.6-.7 0-.3-.7-.2-.7 0 0 .6-.7 2.2-1 2.3-.1 0-.6-.3-1.1-.9l-1-1-.2.6-.3 1.2c-.2 1.3-.8 1.4-2 .3-.3-.4-1-.6-1-.4l-.1 1.3c-.1 1.6-.5 1.9-1.5 1L45 50h-.6v2.4h-.6a2 2 0 0 1-1-.3c-.3-.2-1.4-.3-1.4 0l.3.7c.6 1.5.2 2.3-.9 1.9-1-.5-2.4-.2-1.6.3l.3 1.1c.3 1.3.2 1.4-1.4 1.3-1.3 0-1.4 0-.7 1.4.7 1.2.6 1.3-.8 1.6l-1.3.5c0 .2 1.2 1.8 1.4 1.8l.1.3c0 .1-.1.2-.3.2l-.8.3-1.2.4c-1 0-1 .2.3 1.4l1 1-.8.4a4 4 0 0 1-1.2.4l-.4.2c-.2.2.4 1 .6 1l.5.3.6.5c.3.2-.1 1-.6 1l-.5.4c-.2.2-.4.4-.6.4-.5 0-.7.4-.3.6 2.1 1 2.3 1.4 1 2.3-1.4 1-1.4 1 0 1.6l.7.4.6.1c.4 0 .3.2-.7 1.3-1.2 1.3-1.2 1.3.4 1.7 1.5.3 1.7.5 1.3.8l-.2.4-.4.6c-1.1 1.2-1 1.3.7 1.4 1.6.2 1.6.2.8 1.5-.8 1.4-.7 1.5 1 1.5h1.4a32 32 0 0 1-.8 2.8s1.3 0 2.5-.2c.6-.1.6 0 .2 1.6-.3 1.5-.3 1.5 1.2 1a16 16 0 0 1 1.4-.5v1.5c0 1.8 0 1.8 1.5 1 1.4-.7 1.6-.5 1.6 1.3 0 1.4 0 1.4 1.6.3l1.1-.8.3.8.3 1.5c.2.8.4.8 1.5-.3 1.2-1.2 1.1-1.2 1.7.5.5 1.4.6 1.4 1.7.2 1-1.2 1.2-1.1 1.8.2.7 1.5.8 1.6 1.4.5.4-.9 1-1.6 1.2-1.6.2 0 .8.7.8.9 0 .2 1 1.1 1.1 1.1.1 0 .4-.4.6-1 .5-1.3.8-1.4 1.6-.5 1 1.1 1.7 1 1.9-.4.2-1.4.4-1.5 1.6-.5 1.5 1.1 1.4 1.2 1.5-.4 0-1.6.3-2 .8-1.5l.5.3c.1 0 .4.1.5.3.9.8 1.2.6 1.2-1 0-1.5.2-1.7 1-1.3l.7.3s.3 0 .4.2c.4.5 1.4.2 1-.3-.2-.3-.4-1.8-.2-2.1.1-.2.3-.2.7 0l1.3.2h.8l-.2-.6-.1-1.4v-.7h1.2c1.4.1 1.5 0 1-1-.8-2-.8-2.1.7-2 1 .1 1.7 0 1.7-.4l-.1-.2c-.1 0-.2-.1-.2-.3l-.2-.4c-.4-.2-1-1.5-.8-1.7l1.3-.2c1.6 0 1.8-.1 1-1-.4-.3-.6-.6-.6-.7l-.4-.2c-.7-.2 0-1 1-1.2 1.3-.2 1.7-.8 1-1.3-1.3-.9-1.7-1.6-1-1.8l.7-.4.7-.4c.3 0 .5-.2.5-.3 0-.2-1.7-1.5-2-1.5-.4 0-.2-.5.5-.9l.8-.4.6-.4.5-.5-.4-.2-1.4-.7-1-.5 1.1-1c1.4-1.3 1.4-1.2-.2-1.6-1.8-.5-1.8-.5-1.2-1.1l.5-.7.4-.5c.8-.6.6-.9-.8-1-1.8-.3-1.8-.4-.9-1.7 1-1.6 1-1.6-.6-1.6-1.8 0-1.8 0-1-1.6.6-1.5.6-1.6-1-1.3l-1.3.2c-.3 0-.3-.7.1-1.8.4-1.2.3-1.3-1.3-.9-1.4.3-1.5.3-1.2-1.2.2-1.6.1-1.7-1-1.2l-1.4.5c-.5.2-.6 0-.5-1.5 0-1.5 0-1.5-1.4-.7-1.2.7-1.3.7-1.5.5l-.2-1.5c-.2-1.4-.2-1.5-1.6-.3a6 6 0 0 1-1.1.8 12 12 0 0 1-.8-2.5c0-.6-.4-.5-1.5.7l-1 1-.5-.8-.4-1.1c0-.5-.5-.9-.8-.6m3.7 5.5l.9.3 2 .9.7.3c.6.4.6.5 0 1-.8.5-1 .5-1.8-.2a3 3 0 0 0-.8-.6l-1.2-.6-1.4-.7c-.2 0-.5-.3-.6-.4-.2-.2-.4-.4-.6-.4h1a6 6 0 0 1 1.8.4m-10.2 0c0 .1-.2.3-.5.3-.2 0-.6.2-.7.4l-.6.3-.6.3a1 1 0 0 1-.7.4c-.2 0-.5 0-.5.2-.6.9-1.5 1.1-2.2.6l-.5-.4.8-.6 1.1-.6.4-.2.8-.3c.5 0 1.2-.2 1.6-.4 1-.4 1.7-.5 1.6 0m3.9 2v2l-.9.1c-1.4.3-2.4-.1-1.7-.7.2-.1.3-.4.3-.6 0-.3 0-.4.2-.4s.4-.2.4-.5l.4-.4s.2 0 .2-.2c0-.3.8-1.3 1-1.2v2m-2.8-1.5c0 .2 0 .3-.3.3-.2.1-.3.2-.3.4l-.4.3-.3.3c0 .2-.8 1-1 1l-.3.3c-.3.4-1.3.5-2 .1l-.4-.2.5-.4.7-.5c.2 0 .4-.1.5-.3 0 0 .4-.3.7-.3.2 0 .5-.2.5-.4l.5-.2.7-.3c.4-.4.8-.4 1 0m6.8 0l.7.3.4.3.7.2c.3 0 .5.1.6.3l.6.4c.6.2 1 1 .5 1.2-.6.3-1.3.2-1.6-.2 0-.2-.3-.3-.4-.3-.2 0-.5-.3-.7-.6l-.6-.6c-.2 0-1-1.1-1-1.3.1-.2.3-.1.8.3m-2.9.3l.4.5.4.7.3.6c.8 1.3.7 1.4-.6 1.4h-.8v-1.3c-.2-1.8-.1-2.3.3-2m-3 .4l-.3.2-.1.4c0 .5-1.4 2-1.9 2-.8 0-.6-.6.7-1.7 1.3-1.2 1.5-1.4 1.5-1m5.9 1c1.3 1.4 1.4 1.7.8 1.7h-.7c-.3.2-.4 0-.6-.3l-.4-.6a.6.6 0 0 1-.3-.4 2 2 0 0 0-.3-.8c-.8-1.3 0-1 1.5.5m8.1.5l.6.4c0 .1.2.3.5.4.5.2 2.3 1.9 2.3 2.2l-.8.5c-.9.5-1.7.5-1.7.1l-.5-.3c-.2-.1-.6-.4-.7-.7-.3-.6-.9-1.2-1.1-1.2l-.5-.4c-.3-.5 0-1 .6-1l.4-.1c0-.1.2-.2.3-.1l.6.2m-22 .4c.2.1.3.2 0 .3l-.1.3c0 .1-.2.3-.4.3-.3.1-.8.6-2.1 2.1-.7.7-2 .7-2.5 0-.2-.3.5-1.5 1-1.5l.4-.3c1.9-1.7 3-2 3.8-1.2m19 .6l.3.2 1 .8 1 1c1.2 1.2 1.2 1.4-.1 1.6l-1 .2c0 .6-1 0-1.6-1a18 18 0 0 0-1.4-1.7l-.5-.6.4-.1.8-.4c.6-.3 1-.3 1.1 0m-17 0c.1.2.4.3.7.3.6.2.6.4-.1 1-.4.3-.6.6-.6.8 0 0 0 .2-.2.2l-.3.6-.5.6-.4.3c-.1.3-.2.3-.5.2l-1.3-.4C46 58 46 58 46.9 57l1-1c0-.3.3-.5.4-.5.2 0 .3-.1.4-.3 0-.2.2-.4.4-.4l.3-.1c0-.2 1-.2 1.3 0m5 .6l1.5.3h1.5v3.7h-1c-.7.1-.8.2-.7.5 0 .2.2.3.6.2 1-.2 1.1 0 1.2 2.3 0 2.4.3 2.2-3 2.2-3 0-3.1-.1-2.9-1.4a29.2 29.2 0 0 0 .6-2.5l.2-.4c0-.2.2-.3.7-.3h1.5c.6 0 .6 0 .5-.2-.1-.2-.5-.3-2.2-.3-1.7-.1-3.5-.4-4-.8 0 0 .4-.9.8-1.3 2-2.2 2.2-2.3 3.3-2 .3.2.4.3.3.5-.1.4 0 1 .2 1l.4-1c.2-.8.4-1 .6-.5m9.4.4l.7.9.3.3s.2 0 .2.2 0 .3.2.4l.3.3.1.3c.4 0 .3.6 0 .7l-.9.2c-1.5.3-2.1.3-2.1 0 0-.7-.1-.8-.3-.9l-.3-.6c0-.3-.3-.7-.5-1-.8-1.2 1.1-1.9 2.3-.8m-3.1.3c0 .3.2.6.3.7.1.1.3.5.3.8l.3.6c.1 0 .2.3.2.7v.5h-1.9l-1.9.1v-1.8c0-2.2 0-2.1 1.4-2 1.2 0 1.2 0 1.3.4m-18.6 1.7l.6.4c.5 0 .6.2.4.8-.1.3-.3.5-.4.5l-.3.6-.5.6-.1.2-.4.6c-.2.2-.3.5-.3.7 0 .6-1.2 1.3-1.4.9l-.8-.4c-.6-.1-.9-.5-.5-.7l.2-.6c0-.2.3-.7.6-1l.4-.6c0-.3 1.6-2.3 1.8-2.3.2 0 .5.1.7.3m31.6-.2l.2.2.6.7.7 1.1.8 1.5c.7 1.2.8 1.4.3 1.6l-.5.3c-.5.5-1.7.2-2-.4 0-.3-.2-.6-.3-.7l-.2-.4c0-.5-.6-1.4-1.4-2.3-.5-.5-.7-1-.3-1l.6-.4c.4-.3 1-.4 1.5-.2m-2.5 1.8l.9 1 .1.3c.2 0 1.2 2.3 1.2 2.6 0 .5-.4.6-2.2.6-2 .1-2.1 0-2.3-.9 0-.4-.2-.8-.3-1l-.3-.6-.3-.6c-.2-.1-.7-1.2-.7-1.4 0-.2 1.3-.6 1.8-.6l1-.1c.3-.3.2-.3 1.1.7M48 59c.7.3 1 .7.6 1-.5.2-1.7 2.7-1.7 3.3v.5H45c-2.7-.1-2.9-.4-1.3-2.7l.6-1v-.2c.1 0 .4-.2.6-.6.5-.7 1.9-.8 3-.3m3.6.7l.8.2c.5-.1.7.2.5.8-.2.3-.5 1.5-.7 2.6-.2 1-1.2 1.4-2.4 1-.3-.2-.8-.3-1.1-.3-1.6 0-1.5-1.3.3-3.7l.4-.7c0-.3 1.8-.2 2.2 0m16.5.2c.2.1.3.4.3.5l.4.8c.7 1 1.2 2.7 1 3-.4.3-3 .5-4 .3-.6 0-.6-.1-.6-.8 0-.4-.1-1-.3-1.3a7 7 0 0 1-.3-1.5l-.1-.9h.4c.3 0 .8 0 1.2-.2 1-.4 1.7-.3 2 0m-4.3.4l.2 1 .4 2c.4 1.4.5 1.3-2.4 1.3h-2.5v-2-2.2c0-.3 4-.3 4.3 0m-23.2 3.2l.6.4c.4.2.6.5.3.5l-.2.4-.3 1.1-.5 2.5c-.2 2.4-.3 2.5-1.7 2.4h-1.1V70c-.1-.4 0-1.2.1-1.9l.3-1.5.2-.8.3-.7c0-1 .6-2 1.2-2 .4 0 .7.1.8.3m38.1.5l.4 1s0 .4.2.7c.3.5.7 4.5.5 5 0 .1-.4.2-1.3.2h-1.3l-.1-1.2a17.9 17.9 0 0 0-.5-3.2c0-.4-.2-1-.4-1.2-.3-.6-.3-1.4.2-1.4l1-.3c.8-.5 1-.4 1.3.4m-35.3.3c.2 0 .8.2 1.5.1 1.4 0 1.5.2 1.2 1.5-.2.5-.3 1.8-.4 2.8-.2 2.3 0 2.2-2.6 2.2-2.2 0-2.4-.2-2.1-1l.1-1.1A9.7 9.7 0 0 1 42 65c.2-1 .7-1.3 1.5-.8m32.1.7l.2.6.4 1.3.2 2.2c.3 1.7.3 1.8-2 1.8-2.4 0-2.2 0-2.5-2.2l-.4-2.6c-.3-1.4-.3-1.4 1.9-1.6 1.9-.2 2.2-.1 2.2.5m-26.4-.2l1.7.2h1V67a14 14 0 0 1-.2 2.5l-.2.8-.1.5h-2.5l-2.5-.1v-1c-.1-.7.2-2.8.7-4.8 0-.5 1-.5 2.1-.2m21.4.7c.4.9 1 5 .6 5.2l-2.7.2h-2.5l-.1-2.5-.2-2.9c0-.3.1-.3 2-.4l2.3-.2c.1-.2.3 0 .6.6M58.4 65c.4.1.5 4.2.2 5.2l-.2.5h-2.8c-3.2 0-3.4 0-3.3-1 0-2 .3-4.4.4-4.6a24 24 0 0 1 5.7 0m6.4 0c.3.1.5 4.7.2 5.2-.2.4-.2.4-2.8.3h-2.7V68v-2.9c0-.2 5-.3 5.3 0m-24.6 6.4l.3 2 .5 2.3c.5 1 .6 2.1.1 2.3-.6.2-1.7.3-2 .2-.6-.4-1.8-6.6-1.3-7 .3-.2 2.1 0 2.4.2m5.3-.2l.1 1.8c0 1.2.2 2 .3 2.2.3.5.4 1 .3 1.6 0 .1-.2.2-.6.2l-1.2.2c-1.4.6-2.6.2-2.6-1l-.3-1.2c-.2-.5-.4-1.4-.4-2l-.2-1.2c-.2-.1-.1-.5.2-.6a24 24 0 0 1 4.4 0m19.5 0c.3 0 .3.2.3.5L65 74c-.2 3-.3 3.1-2.5 3l-2.1-.2c-1.1 0-1.3-.3-1.1-1.9 0-1.7 0-3-.4-3-.3 0-.3.3-.2 2.2 0 2.6.2 2.5-2 2.5l-2.5.2c-1.7.1-1.7 0-1.9-1.8-.1-2.6-.3-3-.6-3-.2 0-.2.2-.2.5.3 2.4.3 4.1.2 4.3-.2.2-4 .4-4.5.3-.3 0-.4-.2-.4-.6l-.3-1.3c-.4-1-.5-3.6-.3-3.8H65m6.5.2c.1.1.1.2 0 .4-.3.3-.2.6.1.6.1 0 .2-.2.2-.6 0-.7.3-.8 3-.7 1.9 0 2 .1 1.8.7-.2.4-.4 1.1-.5 3 0 .8-.2 1.3-.4 1.4 0 .1-.3.5-.3.8l-.1.5H74c-1.1-.1-1.2-.1-1.2.2 0 .2.1.3.9.3 1 .1 1.2 1.3.3 2l-.7 1c-1.2 2-1.2 2-1.8 2l-.6-.1c0-.1-.5-.3-1-.3-.7-.1-1.1-.8-.5-1.2l.3-.6c0-.3.2-.6.3-.8.3-.3.3-2.5 0-2.8-.2-.2-.4.2-.2.5.2.1.2.3.2.4l-.4 1-.4 1-.1.5-.5 1-.5.5-1.7-.2h-1.8v-.8c0-.5.1-1 .3-1.4l.3-1.4c0-1-.2-.9 2-.8 2 0 1.5-.6-.6-.7h-1v-.7l.2-5c0-.2 5.5 0 5.7.3m8.3-.2c.4.3-.3 5.7-.9 6.8-.2.4-.6.6-.8.4l-1-.3c-1-.2-1.4-.6-1-1.5.4-.6.7-2.4.9-4.3 0-1.2.1-1.2 1.5-1.2l1.3.1m-21.6 5.9c.5.1.6.4.5 2.3 0 2 0 1.9-1.8 2l-2.2.2-.8.1-.4-.8a4 4 0 0 1-.4-1.4L53 79c-.6-.5-.1-1.3 1-1.4 3-.4 3.4-.4 4.2-.2m3 0l2.1.2 1.3.1v.8c0 .5-.2 1.1-.3 1.4l-.5 1.2c-.2.8-.5 1-1 .8l-1.7-.2c-1.7 0-1.7.1-1.7-2 0-2 .1-2.7.7-2.5l1.2.2m-9 .7c.3.4.3.6.2.8-.2.2 0 1.7.4 2.4.3.6 0 .9-1 .9a8 8 0 0 0-1.6.2h-.9c-.1-.3-.6-.1-.6.2 0 .2-.2.3-.9.3-.5 0-.9 0-1 .2-.3.4-1 .3-1.4 0a12 12 0 0 1-1.3-2.1c-1.2-1.4-1.6-2.5-1-2.6l1-.3c.8-.2 1.6-.2 1.8 0 0 .2.2.1.3 0 .3-.5.6-.2.6.4 0 .7.4.6.7 0 .4-1 4-1.2 4.7-.4m-10.2.8c.2.2.4.4.4.6 0 .1.1.5.3.7l.4.6.3.5.7 1 .5.6c.2 0 .3.7.1 1l-.4.2-1 .3-.7.4-.4-.4a18.8 18.8 0 0 1-2.5-4c-.5-.3-.2-1 .5-1.3.4 0 .9-.2 1-.3.3-.2.3-.2.8.1m34.3 0h.6c.9 0 1.4.7 1 1.4l-.5 1-.9 1.6c-.3.4-.6.8-.6 1 0 0 0 .2-.2.2l-.5.3c-.3.4-.4.4-.5.2-.1-.2-.6-.4-1-.5-.8-.2-1.3-1.2-.7-1.2l.4-.6c0-.3.3-.7.4-.7.2-.2.5-.6.8-1.4l.5-.5.1-.3c0-.6.9-1 1.1-.6m-17.9 3.6l.2 1.5c0 1.3 0 1.4.3 1.5.4 0 .4 0 .4-1.4 0-1.8-.1-1.8 2-1.7 2 .1 2.2.3 1.7 1.4-.4.7-.4 1 0 1l.6-1 .4-1 1.5.1c2.3.1 2.3.5.2 3l-.7.8H64c-1.4 0-1.7.4-.5.6.4 0 .7.2.7.2 0 .3-3 3-3.3 3-.2 0-.1-.5.2-1l.3-.6.3-.4c.3-.2.4-1 .1-1 0-.1-.2 0-.3.4 0 .4-.2.7-.4.7s-.3.2-.3.5l-.2.3-.5.6c-.6 1-.7.8-.7-1.2 0-1.3.1-1.9.3-2 .4-.5 0-.8-.9-.7-2.5.4-3.3.3-3.7-.6l-.4-.8c-.2-.3-.5-1.4-.5-1.7 0-.2 1-.5 1.7-.6l2.6.1m-5 1c1.5 2.9 1.5 3.2 0 3.2-.8 0-1.5-.4-1.5-.8l-.4-.4c-.2 0-.3-.3-.3-.4 0-.2 0-.3-.2-.3l-.5-.7c-.5-.9-.3-1 1-1.2 1.6 0 1.6 0 2 .6m-4 .4l.5.7c0 .1 0 .2.2.2l.6.8.8 1c.2.2.3.5.2.6-.2.3-2.3.2-2.6 0-2.7-2.4-3.2-3.4-1.6-3.6 1.3-.1 1.5-.1 2 .3m21.2 0c.2.1 0 1.3-.3 1.4a2 2 0 0 0-.6.5l-.5.4-1.1 1c-.3.2-1.8.3-2.3 0-.3 0-.4-.5-.1-.5.2 0 2-2.5 2.1-3 .1-.3 2.3-.2 2.8.1m-24.9.8l.4.5.2.4c.2 0 .3.2.3.3 0 .1 0 .2.2.2s1.8 1.7 1.7 1.9l-.2.2c-.1 0-.3 0-.5.3-.8.7-.8.7-1.4.4a2 2 0 0 1-.6-.5l-.6-.5c-.3-.1-.8-.6-1.2-1a4 4 0 0 0-1-.8l-.1-.3c0-.4.6-.9 1-.9.3 0 .6 0 .8-.2.4-.3.5-.3 1 0m27.3 0l.6.2c.6 0 .9.5.6.8l-1.8 1.8-.4.3-.4.4c-.2 0-.4 0-.5.2-.6.7-2.6.3-2.7-.5 0-.2 1.1-1.1 1.4-1.1l.1-.2c0-.2.2-.3.4-.4.2 0 .3-.2.3-.3l.2-.4c.2 0 .4-.3.5-.6.3-.5 1.3-.7 1.7-.2M58.6 87c.3.5.2 3.9-.1 3.9a.3.3 0 0 1-.3-.3l-.1-.2-1-1.3-.9-1.5c-.2-.1-.2-.7 0-.8.7-.3 2.2-.1 2.4.2m-3.2.5c.3.2.5.5.5.6 0 .2 0 .3.2.4.2 0 .3.2.3.3l.3.6c.7 1 .3 1.5-.5.7a16 16 0 0 0-1.2-1c-1.6-1.4-1.9-1.9-1-2h.8c.1 0 .4.1.6.4m-2.8.1l.5.3c.1 0 .2 0 .2.2s.4.6 2 2.1c.8.7.8.7.4.7-.3 0-.5 0-.6-.2a2 2 0 0 0-.7-.4l-.6-.4c0-.1-.1-.2-.3-.2a1 1 0 0 1-.6-.2l-1.4-1-.4-.3c-.2-.5 1.2-1 1.5-.6m13.5 0c.8.4.7.6-1 1.5l-1.5 1-.6.3c-.2 0-.4 0-.4.2l-.2.1c-.7 0 2.3-3.2 3-3.3 0 0 .4 0 .7.2m-15.5 1.1l.6.3.5.4.6.3.5.2.6.5c.2 0 .4.2.4.3l.4.2.6.3c.1.2.6.4 1 .5.3 0 .6.2.6.3-.1.4-3 0-4.3-.7l-.7-.2-2-1-.9-.3c-.6-.4-.6-.4-.2-1 .5-.6 1.8-.7 2.3 0m18.5 0c.6.3.6.7 0 .9l-.5.4-.6.3-.8.3-.7.4c-.2 0-.5 0-.7.2-.2.2-.5.3-.8.3-.2 0-.6 0-.8.2a7 7 0 0 1-3 .4c-.4-.2.2-.6.8-.6L63 91l1.3-.7c.2 0 .4-.2.5-.3 0-.2.2-.3.4-.3s.5-.1.6-.3l.5-.4c.2 0 .4-.1.5-.3.5-.5 1.5-.5 2.2 0m94.8 226.5v-.3.3"/>
    <path fill="#00454e" d="M57.5.2h-1l-.8.1c0 .1-.2.2-.5.2s-.5 0-.5.2l-.4.1c-.3 0-.5.1-.5.2s-.1.2-.3.2c-.2 0-.3 0-.3.2 0 0-.2.1-.4 0l-.3.1c0 .1-.1.2-.3.2-.1 0-.2 0-.2.2l-.3.1c-.4 0-.5.2-1.4 1.2-.3.3-.6.5-.7.4-.2 0-1 .7-1 1 0 .1-.1.4-.4.7-.2.2-.5.5-.5.7l-.1.3c-.1 0-.2.1-.2.3 0 .2 0 .3-.2.3l-.1.3-.2.2-.2.6c0 .4 0 .6-.2.6 0 0-.1.2 0 .4 0 .3 0 .5-.2.5-.2.1-.2.3-.1.7 0 .4 0 .6-.2.6-.4 0 .1 5.5.7 6.2l.3.7c0 .3.3.7.5 1l.5 1a19.1 19.1 0 0 0 4.1 4c.2.2.6.3.8.3.3 0 .4.1.4.3 0 .1.3.3 1 .3.5.1.9.2 1 .4 0 .1.3.2.9.2h.8v-1.7c0-2.3-.5-3.2-1.5-3-.5.2-1.3-.5-1.3-1 0-1 1.5-2 2.4-1.3.5.4.8.3.8-.2s0-.5-.6-.5l-.8-.2-.7-.2c-.5 0-1.3-.6-1.3-1 0-.5.8-.8 2-1 1.5 0 1.5 0 1.1-1.1-.2-.7-.2-.7.1-1.2.5-.6.6-1.2.4-2 0-.5 0-.5-.3-.2-.4.8-2 1.8-3 1.8-.9 0-1-.2-.6-.9.1-.2 0-.4-.7-.9-1.5-1-1.8-3-.6-3.7 1-.7 2-1.1 2.5-1.1.7 0 .8-.2.6-.6-.2-.4 0-.5 1-.8.5-.2.6-.2.5-.6-.2-.6.2-1.1 1-1.6S59 0 58 0c-.2 0-.5 0-.5.2m13.9 13l-.1 1.1c0 1.2-.9 3.7-1.6 4.6l-.2.7c0 .3-.3.6-.4.6-.2 0-.5.3-.6.6l-.8 1c-.3.2-.5.5-.5.6 0 .2-.2.3-.3.3-.2 0-.5.1-.7.3l-.4.4-.6.3c-.2.2-.6.3-.7.3-.2 0-.4.1-.4.3-.1.1-.4.3-.8.3-.3 0-.7.2-.7.4l-1.1.3h-1v2l.8.1.7.1v.8l.1 1c0 .8.5.3.5-.6 0-1.2.2-1.3 1.6-1.2h1l.1 1c0 1.6.5 1.6.5 0v-1h2.8V31c0 3.8.1 3.6-1.3 3.6-1.2 0-1.5 0-1.5-.6 0-.3 0-.4-.3-.4-.2 0-.3.1-.3.4 0 .8-2.2.9-2.4.1-.1-.6-.6-.6-.8 0-.2.5-.3.5-.9.5-.9 0-1 .4-.4 1l.4.5c0 .4-.4 1.2-.6 1.2-.1 0-.2.2-.2.5 0 .4-.2.7-.6 1-.3.3-.6.7-.6 1-.1.5-.9.8-1.3.4-.2-.2-.7-.2-.8.1-.1.2-.5.3-2.4.3-1.7 0-2.3 0-2.5.2-.1.1-.7.3-1.2.3l-1 .4-.9.3c-.4 0-.9.2-1 .3-.2.2-.5.3-.8.3l-.8.4-.8.3-.5.2c0 .2-.4.3-.7.4-.3 0-.6.2-.6.3 0 .2-.1.3-.4.3-.2 0-.5.1-.6.3 0 .2-.3.4-.6.4s-.4 0-.4.3-.1.3-.5.3c-.3 0-.5.1-.5.3 0 .1-.2.3-.4.3-.3.1-.5.3-.5.4l-.1.2c-.2 0-.4.1-.5.3-.8.7-1.3 1-1.5 1l-.2.3c0 .2 0 .3-.2.3s-1.7 1.4-1.7 1.6c0 .1-.1.3-.3.3-.2 0-.4.2-.4.4l-.3.6a5 5 0 0 0-.7.9 5 5 0 0 1-.6.9l-.4.6-.2.4c-.2 0-.3.1-.3.2l-.6 1-.6 1-1.2 2.8-.1.7c0 .2-.2.5-.4.6-.2.1-.3.4-.4 1 0 .5-.2 1-.3 1.3a6 6 0 0 0-.4 1.6c0 .6-.2 1.1-.3 1.2l-.3 2.6v2.4H0V72c0 .7 0 1.2.2 1.2l.1 3.4c0 2.2.1 3.4.2 3.4s.2.7.2 1.7l.1 1.7c.1 0 .2.4.2 1 0 .4 0 .8.2.8l.2 1 .1 1.2c.1 0 .2.4.1 1 0 .7 0 1 .1.9.2 0 .2 0 .2.6 0 .4 0 .6.2.6.1 0 .2.2.1.7 0 .4 0 .6.2.6l.1.6c0 .4.1.6.2.6s.2.2.2.5c0 .2 0 .4.2.4 0 0 .1.2 0 .4 0 .3 0 .5.2.5s.3.4.3.7l.1.6c.1 0 .2.2.2.5s0 .5.2.5v.5c0 .4 0 .5.2.5.1 0 .2.1.1.4l.1.5c.2 0 .2.2.2.5l.2.5c.1 0 .2 0 .2.2l.1.3.2.4c0 .2 0 .4.2.4l.2.4c0 .2 0 .3.1.2.1 0 .2.1.2.4 0 .3 0 .6.2.6 0 0 .1 0 0 .2 0 .2 0 .3.2.3s.3 0 .2.3c0 .2 0 .3.2.3s.2.1.1.4l.1.3.2.4.1.3.2.4c0 .2 0 .4.2.4l.2.3.3.6c.2.1.3.4.3.5 0 .2.1.3.2.3s.2.2.1.3c0 .2 0 .4.3.6.2.2.3.3 0 .3l.2.2c.5.3.8.6.8.9l.1.3c.1 0 .2.1.2.3 0 .2.1.4.3.4.2.1.4.2.3.4 0 0 0 .3.3.5l.3.6c0 .2.1.3.2.3.2 0 .3.2.4.5 0 .3.2.5.2.5.3 0 .9.7.8 1-.1.1 0 .2.1.2.2 0 .4.2.4.5s.2.5.3.5c.3 0 2 2 2 2.2l.1.4 1 .7a58.8 58.8 0 0 0 7.2 6.7c.3 0 .7.5.6.7 0 0 0 .1.1 0 .2 0 .3 0 .4.3 0 .2.3.4.6.4s.5.2.5.4l.4.4c.3 0 .6.2.8.4l.4.3.4.3.5.4c.2 0 .4 0 .4.2s.2.2.3.2l.6.1c.1.2.3.3.4.3 0 0 .2 0 .2.2 0 0 .1.2.3.2.2 0 .4 0 .6.3l.7.5.6.4.3.1c.2 0 .4 0 .4.2l.3.1.6.3c.1.1.3.3.5.3l.2.1.4.2c.2 0 .3 0 .3.2l.3.1.2.2.4.2c.2 0 .3 0 .3.2 0 0 .1.1.2 0 .2 0 .3 0 .4.2 0 .2.2.2.3.2l.3.1c0 .2 0 .3.3.2h.4c0 .2 0 .3.2.3l.3.1c0 .1.2.2.5.2s.5 0 .5.2l.3.1.4.2s.2.2.5.2l.5.1.4.2c.2 0 .4 0 .4.2 0 0 .2.1.4 0 .2 0 .3 0 .3.2s.1.3.4.2h.5c.1.2.3.3.5.3l.3.1c0 .1.2.2.5.2s.5 0 .5.2l.4.1c.3 0 .5.1.5.2 0 0 .2.2.6.2.3 0 .6 0 .6.2 0 0 .1.1.4 0 .3 0 .5 0 .5.2.1.2.3.3.6.2.2 0 .3 0 .3.2s.1.2.6.1c.5 0 .6 0 .6.2s.1.2.5.2h.6l.6.2c.3 0 .5 0 .5.2l.6.1.6.2s.3.2.7.2l.6.1c0 .1.4.2.9.2.4 0 .8 0 .8.2l.4.1c.3 0 .3 0 .3-19.7v-19.8l1.7-.2c.9 0 1.7-.1 1.7-.2l2.3-.3c1.7-.1 2.2-.2 2.3-.4.1-.2.4-.3 1-.3.4 0 .7-.1.8-.3 0-.1.4-.3 1-.3.5 0 .9-.2 1-.4l.6-.2c.5 0 .7-.1.8-.3.1-.2.3-.4.5-.4l.6-.3c.1-.2.4-.4.6-.4.2 0 .3 0 .3-.2s.2-.3.4-.3.5-.1.6-.3l.6-.3c.2 0 .4-.2.6-.4l.6-.3c.2 0 .3-.1.3-.2 0-.2.8-1 1-1 0 0 .5-.3.8-.7l.9-.7.2-.1c0-.3 1-1.2 1.2-1.2l.1-.2.5-.7c.3-.2.5-.5.5-.6l.7-.9.7-.8.4-.6.7-1 .5-1 .4-.5.2-.2.5-1.4c.8-1.7.8-1.8 1-2.6 0-.3.1-.7.3-.8l.2-.6c0-.4 0-.6.2-.6l.4-1.2.5-1.3c0-.2.2-1.3.2-2.7l.2-3v-.6h28V12.5h-46l-.1.7m-7.8 27.2c.5 0 1 .2 1.1.3l1.4.4c.7 0 1.3.2 1.4.3l1 .3c.4 0 .9.2 1 .4l.7.2.7.4.9.3.5.2c0 .2.4.3.7.4.3 0 .6.2.7.3 0 .2.2.3.3.3l.7.3.6.4c.2 0 .4.1.5.3.1.2.4.3.6.3.3 0 .5.1.5.3 0 .1.1.3.4.3l.4.4c0 .1 0 .2.2.2s1.7 1.5 1.7 1.7l.3.3c.2 0 .3.2.3.3 0 .2.1.3.2.3.2 0 .5.3.9.6.3.4.6.7.8.7 0 0 .2.1.2.3 0 .1 0 .3.2.3s.3.2.3.4l.1.2c.1 0 .2 0 .2.2l.5.7.5.7c0 .1.1.3.3.3l.2.4.2.2.2.3.1.2c.2 0 .5.6 1.1 2l.3.6c.2.2.8 2 .8 2.6 0 .4.1.6.3.6.1 0 .3.4.4 1l.4 1 .1.6.3 1c.3.6.6 4 .5 5.6v.9H86c-3.7.2-3.8.2-2.2 1.2 1.4.8 1.4 1 0 1.7s-1.4 1 .4 2.3c.8.6.8.7-1.3 1.3-.8.2-1.3.7-1 .8.2 0 .3.2.3.3l.7 1c1 .9 1 .8-.7 1.1-1.8.3-1.8.2-.8 1.7s1 1.5-.7 1.6h-1.5v.6c0 .3.3.9.5 1.3.5 1 .5 1-1.2 1h-1.4c0 .4.4 1.7.5 1.8.5.6.2 1-.6 1-.3-.2-1-.2-1.4-.3H75v.8c0 .6 0 1 .2 1 .2.2.2.8-.1 1l-1.5-.5c-1.5-.8-1.5-.8-1.5 1 0 1.7 0 1.7-1.3 1-1.3-.8-1.5-.8-1.6 0l-.2 1.4c-.2.8-.3.8-1.4 0-1.3-1-1.8-1-1.8.3 0 .5-.4 1.6-.6 1.6l-1-1c-1-1-1.3-1.1-1.6-.4l-.3.7-.2.5c0 1-.6.8-1.3-.3-.8-1-1.2-1.2-1.5-.6l-.5.9c-.3.5-.4.8-.4 2.3l-.1 2.3-.1.7-1.8-.2-2-.2c-.1-.1-.8-.3-1.5-.3s-1.3-.2-1.4-.3c0-.1-.6-.3-1.2-.3l-1.2-.4c0-.1-.4-.3-1-.3-.5 0-.9-.2-1-.4l-.4-.2c-.3 0-.6-.2-.8-.3l-.8-.4-.5-.2c0-.2-.4-.3-.8-.4-.3 0-.6-.2-.6-.3l-.6-.4c-.3 0-.7-.3-1-.6l-.6-.5c-.1 0-.4-.1-.6-.4l-.7-.4c-.2 0-.3-.1-.3-.2 0-.2-.1-.3-.3-.4-.2 0-.3-.2-.3-.2l-.4-.3a.7.7 0 0 1-.4-.4c0-.2-.2-.4-.3-.4-.2 0-.3 0-.3-.2s-.1-.3-.3-.3c-.1 0-.3-.1-.3-.3 0-.2-.2-.4-.4-.4s-.3-.2-.3-.3l-.5-.6-.6-.6-.5-.7-.7-1c-.2-.4-.4-.6-.5-.6l-.1-.3-.2-.2-.5-.7c-.1-.4-.3-.7-.4-.7l-.4-.8c-.1-.5-.4-1-.6-1.3l-.5-.6c0-.1-.1-.6-.4-1l-.5-1.4c0-.3-.2-.5-.3-.5l-.1-.6c0-.4-.1-1-.3-1.3a11 11 0 0 1-.4-1.9l-.4-1.3a16 16 0 0 1-.1-4.7c.1-.2.3-.2 1 0 1 .2 2.7.2 2.7 0 0-.1.1-.2.3-.2.4 0 1.9-.7 2.5-1.2l.5-.4-1.3-1-1.3-1 .5-.1c.2-.2.9-.4 1.4-.6 1.2-.4 1.2-.3 0-1.6-1.2-1-1.2-1.2-.3-1.4 1.6-.3 2.3-.5 2.3-.6a16 16 0 0 0-1.8-2.4c-.2-.2.2-.3 1.5-.4 1.8-.2 1.7-.1 1-1.6-.8-1.6-.8-1.6 1-1.6h1.4l-.1-.5-.3-.7c-.2-.2-.4-1.8-.3-1.8l1.3.3c1.3.2 1.8.2 1.6-.1l-.2-.8-.2-1c-.3-1 0-1 1.2-.6 1.6.6 1.8.4 1.6-1.4-.2-1.4-.1-1.4 1.5-.5a5 5 0 0 0 1.2.5l.4-2.4c0-.7.4-.7 1.4 0 1.2 1 1.3 1 1.5.2.6-2.4.6-2.4 1.9-1.1l1 1 .3-.5.4-1.3c.4-1.3.9-1.4 1.6-.2.7 1.4 1.2 1.4 2-.1.7-1.3.8-1.3 1.1-.8.2.2.3.4.4.3 0 0 .3-2.7.3-4.3v-1l1.8.2h2.7M53 51c-3.3 1-4.6 1.7-3.9 2.2.3.2 1.2 0 1.5-.3L52 52a30.8 30.8 0 0 0 2.4-1.2c1-.5.3-.4-1.3 0m10.2 0l1 .4.5.4.2.1c.3 0 1.4.6 2 1.2.5.4.7.4 1.1.3 1.2-.3 1.2-.5-.3-1.2-2.1-1-5.6-2-4.5-1.3m-5.3 1l-1 1.6c-1 1.3-1 1.3.2 1.3 1.4 0 1.5-.1 1.4-2 0-1.5-.2-1.8-.6-.9m5.3.8a6 6 0 0 0 1.2 1l.4.3c.2.2 1.3.2 1.6 0 .1-.1-.8-.7-2-1.4-2.2-1-2.3-1-1.2.1m-9.8-.1c-2.6 1.3-2.6 1.4-1.5 1.6.8 0 .8.1 2.2-1.2 1.4-1.3 1.2-1.5-.7-.4m6.2-.6c-.2 2.5-.2 2.8.8 2.8.9 0 1-.1.4-1-.7-1.2-1.2-2-1.2-1.8m1.7.6c1 2 1 2 1.7 2s.6-.1-.5-1.3c-1-1-1.6-1.4-1.2-.7m-6.2.7c-1 1-1 1.3-.5 1.3.3 0 .9-.7 1.7-2 .2-.4-.2-.1-1.2.7m-9.7 2c-2.2 1.7-2.2 1.7-.7 2.2.8.2 4.3-3.2 3.6-3.5-.8-.4-1.1-.2-3 1.2M69.3 54c-.4.3-.5.3 1.2 2 1.7 1.6 1.6 1.6 2.3 1.2l.8-.2c.6 0 .4-.4-.7-1.5-.6-.6-1.2-1-1.3-1L71 54c-.5-.4-1.3-.4-1.7-.1m-19.6.9l-.3.2a11 11 0 0 0-2.7 2.8l1.4.4c1.3.2 1.3.2 2.3-1.2l1-1.3.7-.6-1.1-.3c-1-.2-1.2-.2-1.3 0m16.8 0c-.6.3-.7.5-.3.7.1 0 .4.3.5.6l.7 1 .7.9c.2.3 1 .5 1 .3 0-.1.3-.2.7-.2 1.2 0 1.2-.4 0-1.6-2-1.9-2.1-2-3.3-1.6m-13.4.6a81.9 81.9 0 0 1-2 2.3c-.7.7-.7 1 0 1l1 .1h1c.4-.3.7-1 .3-1l-.6-.3c-.3-.4-.3-.4.1-.4 1.1 0 1.4-.5.8-1.3-.1-.2-.1-.3 0-.4.3-.2-.1-.2-.6 0m10.3 0c-.6 0-.6.2 0 1.2l.5 1.3c.4.8.5 1 .7 1l1.4-.2c.6 0 1.1-.2 1.1-.3 0-.2-.8-1.4-1.4-2l-.4-.6c0-.2-.9-.5-1.2-.5h-.7M56 56c0 .5.2.5 1 .2l.6-.2c.1.2-.5 1-.8 1.2-.2 0 .5.5.8.5.7 0 .7.7 0 .7-1.3.2-1.2.8.1.8h.9v-3.5h-1.3c-1.1 0-1.3 0-1.3.3m3.5 1.2c0 2.2-.2 2 1.9 2s2 .2.9-2.4l-.3-1-1.3-.1h-1.2v1.5M41.6 59l-1 1.7c-1 .9-.8 1.6.1 2 1 .2 1.1.2 1.2-.2 0-.2.5-.7.9-1.3.4-.6.7-1 .7-1.2l.2-.3c.6-.6.7-.8.7-1.1 0-.2-.2-.4-.6-.5-.3 0-.5-.2-.6-.3-.2-.5-.7-.2-1.6 1.2M74 57.8l-.8.3c-.3.1-.3.2.4 1l1 1.2c0 .3 1.2 2.7 1.4 2.8.2 0 2-.6 2-.8 0-.4-1.6-3.2-2.3-3.9-.7-.9-1-1-1.7-.6m-28.7 1.5c-.7.8-1.7 2.4-1.7 2.6l-.3.5c-.8.7-.5 1 1.6 1 1.8.2 2 .1 2-.7 0-.3.8-1.7 1.5-2.8.3-.5 0-.8-1.2-.8l-.6-.2c-.2-.3-.9-.2-1.3.4m25.4-.4l-.7.2c-.7 0-1.1.4-.8.8a13 13 0 0 1 1.4 3c.2.8.4 1 1.5.9 2.5-.3 2.7-.3 2.7-.6 0-.5-1.3-2.8-2-3.5l-.6-.8c0-.2-1.2-.2-1.5 0m-21.4 1.4l-.4.7-.3.4c-.3.4-1 2.2-.8 2.3 0 0 1 .2 2.1.2l2 .1.1-.4.4-1.6a6 6 0 0 1 .4-1.4c.3-.4 0-.6-1.3-.7l-1.5-.2c-.1 0-.4.2-.7.6m17-.5c-1.8.2-1.8.2-1.2 2.2l.3 1.4c0 .6.4.8 1.6.8 2.7 0 3-.3 2.4-1.8l-1.6-2.8-1.6.2m-12.3.7A15 15 0 0 0 53 64l2.8.1 2.8.1v-2l-.1-2h-3.7c0-.4-.8-.2-1 .2m7.5-.3h-1.7v2c-.2 2.3-.4 2.2 2.4 2 2.7 0 2.6 0 2.3-1l-.5-2c-.2-1-.2-1.1-.6-1h-2m-22 3.7a4 4 0 0 0-.4 1.2l-.2.5c-.2.1-.4 1.2-.8 3.8l-.1 1h2.2l.2-.7.4-2.2c0-.9.2-1.7.4-2 .4-.8.5-1.7.1-1.7l-.5-.1c-.7-.6-1-.6-1.4.2m38.3-.2c-1.2.3-1.2.4-.8 1.7a14.7 14.7 0 0 1 .6 4v1h2.6l-.1-1.5c0-1.5-.7-4-1.2-5-.2-.5-.3-.5-1.1-.2m-35.2.8l-.4 1.3a14 14 0 0 0-.5 2.3L41 70v.4H45.2l.1-1a120 120 0 0 0 .6-4.2c.1-.6.1-.6-2-.8l-1.8.1m30.8.1l-1.7.2.3 1.2a32.8 32.8 0 0 1 .6 4.2c0 .2.6.2 2.1.2h2v-.8a14.4 14.4 0 0 0-1-4.7c0-.5-.4-.5-2.3-.3m-25.8.4c-.2.2-.4 1.4-.8 4.4v1h4.8l.2-1.1.3-2.7V65H51l-2.2-.1-1.6.1m21.9 0l-2.2.2c-1 0-1.2 0-1.2.2l.1 2.7v2.3H71.1v-1.2c-.3-2-.8-4.5-1-4.3l-1 .1m-16.3.3s-.2 1.2-.2 2.6l-.2 2.5h3c3.5 0 3.2.3 3.2-2.8v-2.2l-1.4-.1c-2-.2-4.3-.2-4.4 0m8.7 0h-1.9v.5V70.4H64.9v-2.2c0-3 0-3-.9-3l-2.5.1M37.7 72c0 1 .4 3 1 4.6.6 2 .6 2 2 1.4.8-.3.8-.3.2-2-.3-.7-.5-1.8-.6-2.4-.1-2-.2-2.2-1.5-2.2h-1v.6m3.4.7c.2 2.4 1 4.9 1.6 4.8l1.9-.3c1.7-.3 1.6-.2 1.3-.8-.2-.7-.6-3.2-.6-4.2v-.8H41l.1 1.3m5.2.4c.2 2.6.7 4 1.4 3.8l2.9-.2h1.1V76a27.3 27.3 0 0 1-.4-3.6l-.1-.8c0-.2-.2-.3-2.5-.3h-2.5l.1 1.7m6-.7l.2 2.4c.1 2 0 1.9 2.9 1.8 3.4-.2 3 .2 3-2.7v-2.5h-6.2v1m7.2-.8l.1 4.8c0 .1 1.2.2 2.6.2l2.4.1.1-.5c.2-1 .3-4.3.2-4.6 0-.1-.8-.2-2.7-.2-2 0-2.6 0-2.7.2m6.3 2.2v2.7c0 .2.1.3 1 .3l1.3.1c.2.1.4 0 .7-.3.5-.4.5-.4.2-.4-.5 0-1.8-.7-1.8-.9 0-.1.2-.2 1.4-.4.7-.1.8-.2.3-1-.6-1-.3-1.3.6-.5l.7.8.4-.9c.2-.5.4-1 .4-1.4l.1-.5H65.8v2.4M72 72c-.2 1.4 0 2.4.5 2 1-.8 1.3-.1.3.7l-.6.6 1 .4c1.1.5 1.3.8.5.8-.5 0-1.3.3-1.2.5l2.3.5c.5 0 1.1-2.2 1.3-4.2l.2-1.4v-.5h-4.1l-.2.6m5.3-.2l-.2 1.5-.4 2.5c-.6 2.2-.6 2 0 2.1l1.2.4c1 .5 1.6-1.6 1.8-5.3v-1.6h-1.1c-1.1 0-1.2 0-1.3.4M55 77.6h-1.1l-1 .1.8 3.3c.2.6.3.7.7.6l3.5-.2h.7v-1.8c0-1.3-.1-2-.2-2-.3-.2-3.2-.2-3.4 0m4.5.3c-.1.6 0 3.3.1 3.4l1.6.2 1.8.2c.5.2.6 0 1.3-3 .3-1 .3-1-1.6-1l-2.5-.3c-.6 0-.6 0-.7.5m-11.1 0c-.2 0-.2 1 0 1l.6-.3c.8-.5 1-.3.4.5-.6.7-.6.7.3 1 .9.2 1 .5.2.5l-.5.1c0 .1 0 .2-.2.2s-.2.1 0 .7l.4.6h1.1l1.3-.3.5-.1c.3 0 .3-.1.2-.5l-.7-3.1v-.5h-1.8l-1.8.1m17.1.3l-.3 1.4-.4 1.3c-.4 1 .1 1.3 2.4 1.3 1.2 0 1.4-.2 2.1-2.5.5-1.6.5-1.6-.6-1.6l-.9-.1c-.2-.4-2.1-.2-2.3.2m-21.6.2c-1 .1-1.1.6-.5 1.2l.8 1.2.9 1.5c.7 1.1 2.2 1.1 2 0-.1-.6-.4-.7-1-.5-.7.4-1 .1-.6-.4.5-.7.5-.9-.2-1.2-.7-.3-.6-.5 0-.5s1-.3 1-.7c0-.7-1-.9-2.4-.6m27 0c0 .2-.1.6-.3.8l-.4 1c0 .3-.3.9-.6 1.4-.5 1.1-.5 1 .7 1.3l1.3.2c.5.2 3.2-4 2.8-4.4-.2-.3-1.2-.3-1.4 0l-.6-.1c-.6-.4-1.5-.5-1.5-.2m-29.7.6l-.7.4h-.4c-.6 0 .2 2.3 1 3.1l.6.8c1 1.4 1.2 1.4 3 .3.1 0-.7-1.6-1.1-2l-.4-.5a3 3 0 0 0-.5-.9 3 3 0 0 1-.5-.8c0-.4-.5-.5-1-.4m34.3 0l-.2.3-1 2c-1.4 2.4-1.4 2.2-.2 2.7l1 .4.7-.8c.4-.4.9-1 1-1.4l.8-1.4.4-1c-.2-.6-2.1-1.1-2.5-.8m-27.7 3c-.4.7-.3.9.2.8.7-.2.6-.2.3-.8-.3-.6-.3-.6-.5 0m11.9.6c-.3.3-.2 1.3 0 1.2.2 0 .5 0 .7.3.6.6.8.5 1-.2 0-.4.3-.7.6-.7l.1.8c0 .7.3 1 .5.4l.2-.5c.3-.6.2-1.2-.2-1.3-.9-.2-2.7-.1-3 0m-4.8 0c-.5.2-.5.7 0 1.9.6 1.2 1 1.8 1.3 1.7l1.3-.2h1v-3.4H55m-3.5.5c-1 .2-1 .6.4 2.2 1.5 1.9 3 1.7 2.3-.3-1-2.4-.9-2.3-2.7-1.9m12.7-.1l-.1.5-.4 1.2c-.4.8-.4 1.2 0 1.2l.7.4c.5.3.5.3.9 0l.5-.4s.2-.1.2-.3l.4-.7c1.2-1.8 1.2-1.7.3-1.8-1.5-.2-2.4-.2-2.5-.1m-16.3.8c-1.1.3-1 .5.6 2.2 1.3 1.2 2 1.6 2.3 1.1l.5-.2c.4 0 .2-.7-.3-1.1l-.3-.5-.1-.2-.7-.8c-.6-.8-.6-.8-2-.5m20.3.2l-.7 1.1-.8 1.1c-.5.6-.5.7 0 .7l.5.2c.3.5 3.2-1.6 3.7-2.6.2-.5.3-.5-.9-.7-1.2-.3-1.4-.3-1.8.2m-8.6.2c-.2.3.1 1 .4 1 .2 0 .3 0 .2-.4 0-.5-.4-.8-.6-.6m-15.1.7c-1.2.6-1.2.6 0 1.7l1.6 1.3c.7.7 1.3.8 2 .2l.7-.4-3.2-3.3-1.1.5m27.3 0c-.3.5-2 2.3-2.5 2.4-.5.2-.4.4.3.8.8.5 1.4.5 1.6.1l.4-.2 1.6-1.3c1.5-1.4 1.5-1.7 0-2.1-1-.3-1.1-.3-1.4.3M56.6 87c-.5.2-.5.2 0 1 .3.2.4.6.4.7l.3.3.4.6c.6 1.1 1 .3.8-1.5-.1-1.1-.9-1.5-2-1.1m-2.8.3c0 .4 2.9 3.1 3.1 2.9l-.5-1a27 27 0 0 1-1-1.5c-.2-.4-1.6-.8-1.6-.4m9.4.1c0 .4.4.5.6.3.4-.3.3-.5-.1-.5-.3 0-.5 0-.5.2m-3 .1c-.4.2-.5.3-.6 1-.1 1.6.3 1.7 1 .3.7-1.2.5-1.6-.4-1.3m-8.3.2c-.6.2-.7.6-.1.8.2 0 .9.4 1.5.9 2.2 1.4 2.4 1.3.5-.5-1.3-1.3-1.3-1.3-1.9-1.2m13.3 0L63.7 89c-1.2 1.3-1.1 1.6.2.7l1.3-.9.9-.4c.5-.2.6-.5.1-.6l-.5-.2H65m-3 .5l-.7 1.2c-.7 1-.5 1 .7 0 .8-.8 1-1.1.8-1.1-.1 0-.3 0-.3-.2 0-.3-.4-.3-.6 0m-13 .6c-1 .4-1 .7-.4 1l.8.4a8.8 8.8 0 0 0 2.5 1c.4.4 4.2 1.2 4.4 1h-.2c-.4 0-2.4-1.1-4.4-2.5-2-1.2-2-1.2-2.7-.9m18.4 0a55.4 55.4 0 0 1-5.4 3.1c-.2.4 2 .1 3-.4l1.1-.3c.5-.1 2.6-1.1 3.2-1.5.3-.2.2-.3-.6-.7-1-.5-.8-.5-1.3-.1m-73 224.9c0 .1.2.2.5.1.3 0 .3-.1.2-.2-.4-.2-.7-.2-.7 0m2.1 0s.1.2.3.2l.3-.1c0-.3-.4-.4-.6-.1m-10 5l.1.4c.1 0 .2-.1.2-.3 0-.2 0-.4-.2-.4l-.1.4M36 321c0 .1.1.2.3.2.2 0 .3 0 .3-.2 0 0-.1-.2-.3-.2-.2 0-.3.1-.3.2m-9.9 7.5c0 .2.1.3.2.3l.2-.2c0-.2-.1-.3-.2-.3l-.2.2m-45.8.8v-.5.5"/>
  </g>
</svg>
