<svg xmlns="http://www.w3.org/2000/svg" width="124.8" height="145.6" display="block">
  <g fill-rule="evenodd">
    <path fill="#931e31" d="M61.5 45.1L56.8 50l-5 5.1c-.3.5-.3.8-.3 18v17.6H72V73.1l.1-17.6-.7-.8-1.3-1.4-7.5-7.8c-.5-.5-1-.7-1-.4M28.2 55.4v35.3h9.3l9.3.1V55H28.3v.4m48.4-.2v35.5h18.6V73c0-14 0-17.8-.2-17.9-.3-.2-18.3-.1-18.4.1"/>
    <path fill="#cca800" d="M55.6.2l-1.2.3c-.7 0-1.2.1-1.3.2 0 .1-.5.2-1.5.2h-1.4c.1.2 0 .3-.5.3-.4 0-.7 0-.8.2 0 .2-.3.3-.6.3l-.6.1c0 .1-.4.2-1 .2-.7 0-.9 0-.9.2s-.1.3-.5.3-.6 0-.6.2l-.5.1c-.3 0-.5.1-.5.2 0 0-.3.2-.7.2-.5 0-.7 0-.7.2s-.1.3-.4.3l-.4.1c0 .1-.3.2-.7.2-.4 0-.6 0-.5.2l-.4.1c-.2 0-.4.1-.4.3l-.4.2-.4.2-.5.2-.5.1-.4.2-.4.2c0 .2-.2.3-.3.3-.2 0-.3 0-.3.2l-.5.1c-.5 0-.6.1-.6.3 0 .2-.1.2-.4.1-.2 0-.3 0-.3.2 0 .1-.1.3-.3.3l-.2.1-.3.2-.5.2c0 .2-.2.3-.4.2-.2 0-.3 0-.3.2 0 .1-.1.2-.3.2l-.2.2-.4.2-.4.1c0 .3-.5.7-.8.7-.1 0-.2 0-.2.2l-.2.1-.7.4-.6.5-.2.1-.4.2c-.2 0-.4 0-.4.2s-.5.6-.8.6c-.3 0-.7.4-.7.6 0 .2-.5.6-.9.6l-.3.1a108 108 0 0 0-12.9 14.4c0 .2 0 .3-.2.4l-.2.4c0 .1-.2.4-.5.6l-.4.5-.3.6c-.2.2-.3.5-.3.7 0 .2-.1.3-.3.3-.1 0-.2.1-.2.3l-.2.4s-.2.1-.2.4l-.1.4-.2.2c0 .2-.1.3-.3.3 0 0-.2.1-.2.3 0 .2 0 .4-.2.4l-.1.4-.2.4-.2.2c0 .2 0 .3-.2.4-.2 0-.3.2-.3.5l-.1.5-.2.3-.4.7-.4.8-.2.5-.2.5c0 .3 0 .4-.2.4s-.3.2-.3.5 0 .5-.2.5c0 0-.1.2 0 .4 0 .3 0 .5-.2.5l-.2.5c0 .2-.1.3-.3.3-.2 0-.2.1-.1.5 0 .4 0 .5-.2.6-.2 0-.3.3-.3.6l-.1.5c-.1 0-.2.2-.2.5s0 .5-.3.5c-.2 0-.2 0-.1.7 0 .6 0 .8-.2.8s-.2.1-.2.5l-.2.5s-.2.3-.2.8 0 .8-.2.9c-.1 0-.2.2-.1.6 0 .4 0 .6-.2.7-.2 0-.3.3-.3.6 0 .2 0 .4-.2.4l-.1 1.1c0 1 0 1.2-.3 1.2-.2 0-.2.1-.1.7 0 .6 0 .8-.2.9-.2 0-.3.3-.3 1l-.1.7c-.1 0-.2.8-.2 1.9 0 1.5 0 1.8-.2 1.7-.2 0-.3.2-.2 1.4v1.5A116.4 116.4 0 0 0 .2 85c0 .6 0 .8.3.8.2 0 .3.2.2.8 0 .5 0 .7.2.7.1 0 .2.4.2 1.2l.1 1.2c.1 0 .2.2.2.5 0 .4.1.6.3.7.2 0 .2.2.1.9-.1.6 0 .7.2.6.2 0 .2 0 .2.6 0 .4.1.7.2.7l.2.6c0 .4 0 .7.1.6.1 0 .2.2.2.7 0 .7 0 .9.3.8.1 0 .2 0 .2.3s0 .5.2.5l.1.4.2.5s.2.3.2.7c0 .3 0 .6.2.6s.3.3.3.5l.1.4.2.4c0 .3 0 .5.2.5l.1.5c0 .3.1.5.3.6l.2.4c0 .2.1.3.2.3l.2.2c0 .2 0 .4.2.5.2.2.3.4.2.7 0 .3 0 .5.2.6l.2.5c0 .1.1.3.2.2l.1.4c0 .2.1.4.3.4l.2.2c0 .2.1.3.2.3 0 0 .2.1.2.3l.1.4c.1 0 .2.1.2.4 0 .2 0 .4.3.4l.2.4c0 .2 0 .4.2.4l.1.4c0 .2.1.3.2.2 0 0 .2 0 .2.3l.1.3c.4 0 .7.5.7 1 0 .4.3.8.7.8l.1.5c0 .2.1.3.2.3l.2.1c0 .4.4.8.6.8.1 0 .2.1.2.3 0 .4.4.9.7.9v.3c0 .2 0 .3.2.3s.3.1.3.3l.1.2.2.2c0 .2.2.4.4.5.7.4.5 1.3-.4 1.3-.2 0-.3.1-.2.2 0 .1 0 .2-.3.3-.2 0-.3.1-.3.2 0 0-.1.2-.3.2-.1 0-.3 0-.3.2 0 .1-.2.3-.4.3l-.5.1-.7.4c-.3 0-.5.3-.5.4 0 .1-.1.2-.3.2l-.4.2-.4.2-.4.1c0 .1-.1.2-.3.2l-.3.2c0 .2-.2.3-.3.3-.2 0-.3 0-.3.2l-.2.1-.7.4c-.2.3-.5.5-.7.5l-.4.1c0 .1 0 .2-.2.2l-.3.1c0 .2-.7 1-1 1l-.1 10.1c0 9 0 10.1.2 10 .2 0 .3.2.3.8a238.7 238.7 0 0 0 18-.3l.1-5.1c0-5.4 0-5.6.8-5.3.1 0 .3 0 .3-.2s.3-.3.5-.3l.4-.1c0-.3 1-.7 1.4-.6.4 0 .5 0 .5-.2 0-.1.1-.2.3-.2.2 0 .3-.1.3-.2l.3-.2c.1 0 .4 0 .5-.2.2-.2.4-.2.7-.2.3.1.4 0 .4-.1 0-.2.2-.3.4-.4.5 0 1 .2 1 .4h.3c.2 0 .3.1.4.3l.4.2c.2 0 .3.1.3.2 0 0 .1.2.3.2 0 0 .2 0 .2.2s.3.3.8.4c.4 0 .7.2.7.3l.2.2c.2 0 .3.1.4.3l.4.2c.3 0 .6.2.8.4l.8.3c.3 0 .4 0 .3.2 0 .2 0 .3.4.3.2 0 .4 0 .4.2l.3.1c.2 0 .3.1.3.2l.6.2.6.1.3.2.5.2c0 .2.3.3.6.3.2 0 .4 0 .4.2l.6.1c.4 0 .6.1.7.3 0 .2.2.2.4.1.2 0 .4 0 .4.2s.3.3.6.3l.5.1.8.2c.5 0 .9 0 .9.2l.4.1c.2 0 .5.1.6.3l1.1.2c.5 0 .9.1.9.2 0 0 .3.2.8.2.6 0 .8 0 .9.2 0 .2.2.3.7.2.4-.1.6 0 .8.1.2.2.6.3 2.2.3a75.6 75.6 0 0 0 18.2-.6c0-.2.2-.2.9-.2l.8-.2c0-.1.4-.2 1-.2.7 0 1 0 1-.2.1-.2.3-.3.6-.3l.4-.1.8-.2c.5 0 .9 0 1-.2l.4-.1c.3 0 .5-.1.5-.3l.6-.2c.4 0 .5 0 .4-.1 0-.2 0-.3.6-.3l.7-.1.2-.2c.2 0 .3-.1.4-.3 0-.2.2-.2.6-.1.5 0 .6 0 .5-.2 0-.2 0-.2.4-.2l.4-.2.6-.2c.4 0 .6 0 .6-.2s0-.3.3-.2l.4-.1c0-.2.3-.3.5-.3.1 0 .3 0 .3-.2l.3-.1c.2 0 .6-.2.8-.5l.6-.4.3-.1.4-.2c.2 0 .4 0 .4-.2l.3-.1.3-.3.3-.2c.2 0 .3-.1.3-.2s.1-.2.3-.2c.2 0 .3 0 .4-.2 0-.2.2-.3.4-.2l.4-.1c0-.2.1-.3.5-.3.3 0 .5 0 .5.2s.1.3.3.3l.6.1.6.1c.2 0 .4.2.4.3l.4.2c.2 0 .3 0 .3.2s.2.3.6.2h.6c0 .2.2.3.4.3s.4.2.4.3l.3.1c.1 0 .2.1.2.3 0 .2.2.2.5.1h.5v5.2c0 4.6 0 5.3.3 5.3a52.9 52.9 0 0 0 9.2.4h8.9v-.4l.1-.4c.1 0 .2-3.5.2-10.2a148 148 0 0 0-.4-10.6c0-.3-.2-.4-.3-.5-.2 0-.4-.1-.5-.3h-.5c-.2 0-.3 0-.3-.3 0-.1-.1-.2-.3-.2l-.4-.2c0-.1 0-.2-.2-.2l-.5-.4-.7-.4c-.2 0-.4 0-.4-.2l-.5-.2a.8.8 0 0 1-.6-.4c0-.3-.3-.4-.6-.4l-.5-.1c0-.1-.1-.2-.4-.2-.2 0-.4-.2-.6-.4-.1-.3-.3-.4-.6-.4l-.4-.2c0-.1-.1-.2-.3-.2-.2 0-.4 0-.4-.2s-.3-.3-.4-.3c-.7 0-.8-.3-.3-.7l.6-.4.2-.4c0-.4.3-.8.6-.8.2 0 .2-.2.1-.4l.1-.4c.3 0 .8-.7.8-1l.5-.7.5-.7c0-.2.1-.4.3-.5l.2-.4.4-.4c.2-.1.3-.4.3-.5 0-.2.1-.3.3-.4l.2-.4s0-.2.2-.2l.1-.4c0-.3.2-.6.5-.9l.4-.5.1-.2c.1 0 .2-.2.2-.5s0-.5.2-.5l.1-.3c0-.2.1-.4.3-.4.1 0 .2-.1.2-.3l.2-.4.2-.5.1-.4.2-.3c0-.1.1-.3.3-.3l.2-.5c0-.3 0-.4.2-.4l.1-.4c0-.3.1-.5.3-.5.1 0 .2-.3.1-.5 0-.2 0-.3.2-.4.2 0 .3-.3.3-.6l.1-.5.2-.4c0-.3 0-.4.3-.4.1 0 .2-.1.1-.4 0-.3 0-.5.2-.5.1-.1.2-.3.2-.8l.2-.6s.2-.2.2-.5c0-.2 0-.4.2-.4s.3-.2.3-.7l.1-.8c.1 0 .2-.2.2-.6 0-.3 0-.5.2-.5l.1-.5c0-.2.1-.4.3-.4.2 0 .2-.1.2-.9 0-.5 0-1 .2-1.1.1-.2.2-.5.1-.6 0-.2 0-.5.2-.6l.2-.8c0-.5 0-.6.3-.6.2 0 .2-.2.2-1.2v-1.2c.3 0 .3-.2.3-.9l.2-1s.2-.7.2-1.7c0-1.4 0-1.7.2-1.7s.3-.3.2-1.7a63.3 63.3 0 0 0-.4-19.3c0-1.1-.1-1.8-.2-1.8l-.2-1c0-.6 0-1-.2-1s-.2-.3-.1-1.2c0-1 0-1.2-.2-1.3-.2 0-.3-.3-.3-.7 0-.4 0-.7-.2-.7-.1 0-.2-.3-.2-.7l-.1-.6c-.2 0-.2-.2-.2-.8 0-.7 0-.9-.2-.9s-.3-.1-.3-.6l-.1-.7c-.1 0-.2-.2-.2-.5s0-.5-.2-.5l-.1-.8c0-.5 0-.7-.3-.6-.2 0-.2 0-.2-.5l-.2-.6-.2-.6c0-.3 0-.6-.2-.6l-.2-.5c.1-.2 0-.3-.1-.3-.2 0-.3-.1-.3-.4 0-.3 0-.4-.2-.4l-.1-.6c0-.4-.1-.6-.3-.6a.3.3 0 0 1-.2-.3l-.2-.5-.3-.7a2 2 0 0 1-.2-.7c0-.3-.1-.5-.3-.5-.2-.1-.2-.3-.1-.6 0-.4 0-.4-.2-.2s-.2.1-.2-.2c0-.3-.1-.5-.2-.5 0 0-.2-.1-.2-.3l-.4-.7-.4-.8c0-.2 0-.3-.2-.3l-.1-.4c0-.2-.1-.3-.3-.3l-.2-.4c0-.3-.1-.4-.2-.4l-.2-.2c0-.1 0-.3-.2-.4-.5-.6-.6-.8-.6-1 0-.1 0-.3-.2-.4l-.1-.3c0-.2-.2-.4-.4-.5a.8.8 0 0 1-.4-.6c0-.3-.2-.5-.2-.5-.1 0-.2 0-.2-.2s0-.3-.2-.3c-.3 0-.6-.4-.6-.8 0-.2-.1-.3-.2-.3l-.2-.4c0-.2 0-.3-.1-.2h-.2c0-.2-.3-.5-.6-.9-.3-.3-.6-.7-.6-.9 0-.2 0-.3-.2-.3a.3.3 0 0 1-.3-.3s0-.2-.2-.2-.3-.2-.4-.5c0-.3-.3-.6-.5-.8-.6-.4-1.2-1-1.2-1.2 0 0 0-.2-.2-.2l-.1-.2c0-.1-.4-.6-.6-.6-.2 0-.6-.4-.6-.6 0-.2-.5-.6-.7-.5-.1 0-.2-.1-.2-.4 0-.4 0-.5-.2-.5-.3 0-1.2-.7-1.2-1l-.4-.3c-.3-.1-.5-.4-.6-.6-.2-.3-.4-.4-.5-.4l-.3-.4c0-.2-.4-.4-.7-.6-.3-.1-.5-.3-.5-.4 0-.2-1.2-1.3-1.5-1.3-.3 0-.7-.4-.7-.7l-.3-.1-.8-.4a333 333 0 0 1-2.5-2l-.4-.1c0-.1-.1-.2-.3-.2-.2 0-.4-.2-.5-.4-.2-.4-.9-.8-1.3-.8-.1 0-.2 0-.2-.2s-.1-.3-.4-.2c-.2 0-.3 0-.3-.2l-.4-.2c-.2 0-.4 0-.4-.2l-.3-.1a.3.3 0 0 1-.2-.3l-.4-.2-.3-.2-.4-.2-.5-.1-.4-.2c-.2 0-.4-.1-.4-.3 0-.1-.1-.2-.4-.2-.2 0-.4 0-.4-.2l-.5-.1L85 5l-.4-.2c-.2 0-.3 0-.3-.2s-.2-.3-.5-.3l-.5-.1-.4-.2c-.3 0-.5 0-.5-.2l-.6-.1c-.2 0-.4-.1-.4-.3 0-.2-.1-.2-.5-.2s-.6-.1-.6-.2-.3-.2-.7-.2l-.7-.1c0-.1-.2-.2-.5-.2s-.5 0-.5-.3c0-.1-.2-.2-.9-.2-.5 0-.9 0-.9-.2l-.6-.1c-.3 0-.6-.1-.6-.3 0-.1-.3-.2-.7-.2l-.6-.2c0-.1-.5-.2-1.5-.2L70.5.7c0-.1-.5-.2-1.2-.2-.8 0-1.1 0-1.1-.2S66.9 0 61.8 0c-4.2 0-6.3 0-6.2.1M69 3a68.3 68.3 0 0 1 7.6 1.6A59.8 59.8 0 0 1 96.8 15l1.1 1c3 2.5 7.2 7 10 10.7a76.3 76.3 0 0 1 13.8 36.3c.3 2.2.3 12.9 0 15.2a60.5 60.5 0 0 1-2 11.3 32.5 32.5 0 0 1-1.5 5.3l-1.9 5a79.7 79.7 0 0 1-8.9 15.4l-2.8 3.4a60.4 60.4 0 0 1-24 17 58 58 0 0 1-29.3 2.3 54.2 54.2 0 0 1-6.1-1.6A59.7 59.7 0 0 1 14.5 113a78.1 78.1 0 0 1-12-30 88.2 88.2 0 0 1 0-24.4 74 74 0 0 1 1.8-8.2l.5-1.7a11.2 11.2 0 0 1 .7-2 69.3 69.3 0 0 1 28.2-36.4l1-.5a58 58 0 0 1 22.5-7.2c1.3-.2 10.3 0 11.8.3M18.4 121.2c2 2.2 5 5 7.7 7.3 2 1.5 2 1.5-.4 2.5a99.4 99.4 0 0 0-18.4 10.8c-.2 0-.2-2.6-.2-8.2v-8l1.1-.8 1.3-.8 1.3-.7a50.4 50.4 0 0 1 5.1-3c1-.5 1.3-.4 2.4.9m90-.4a45.3 45.3 0 0 1 6.3 3.6l1.9 1.2v8l-.1 8.3-2-1.2a26.2 26.2 0 0 0-2.7-2 78.5 78.5 0 0 0-13.6-7.5c-.4 0-2.2-1.1-2.2-1.3l2-1.6c2.7-2.2 6.2-5.6 7.9-7.6.7-.9.7-.9 2.5 0m-87.8 19v3.5H15c-6 0-6 0-4.4-1l1-.8a93 93 0 0 1 8.6-5.2c.2 0 .2.7.2 3.5m83.4-3.2a34 34 0 0 1 2 1.2l5.3 3.3c2 1.4 2.7 2 2.6 2.2-.2.2-10.5.2-10.8 0-.2-.3-.3-6.7 0-7 .1-.1.3 0 .9.3"/>
    <path fill="#172332" d="M53.4.1c-.5.2-.2.3.7.4.7 0 1 0 .9-.2-.1-.2-1.2-.4-1.6-.2m15.5 0c-.5.2-.2.4.4.4.4 0 .7 0 .7-.2h.3c0 .1.2.2.2 0 0-.3-1-.4-1.6-.2M49.2 1c-.4.1-.4.1 0 .1L50 1c.1-.2-.1-.2-.7 0m24.6 0l.6.2c.6 0 .5-.1-.2-.3-.3 0-.5 0-.4.1m1.8.4c.4.3.7.3.7 0h-.5c0-.2 0-.2-.2-.2-.3 0-.3 0 0 .2m-30.8.8l.4.1.4-.1-.4-.2c-.2 0-.4 0-.5.2m33.5 0l.4.1c.2 0 .4 0 .3-.1l-.3-.2c-.1 0-.3 0-.3.2m-19.8.5l-1.9.3a63.9 63.9 0 0 0-13.2 3l-1.9.8a64.9 64.9 0 0 0-12.2 6.8A71.8 71.8 0 0 0 16.7 26c-1.3 1.7-3.6 5.1-4.7 7l-.9 1.6a79 79 0 0 0-8.4 25 86.2 86.2 0 0 0 .8 27L5 92.2l1.3 3.7.4 1.3a17.2 17.2 0 0 0 1 2.5 79 79 0 0 0 6.4 12 64.9 64.9 0 0 0 29.3 23.7l1.9.7a56 56 0 0 0 26.5 1.7 55.3 55.3 0 0 0 27.2-13.7 60.3 60.3 0 0 0 11.1-13 71.8 71.8 0 0 0 11.2-30.4 95.4 95.4 0 0 0-1-25.9A93.3 93.3 0 0 1 119 50l-.4-1.3a24.8 24.8 0 0 0-1.3-3.7 26.4 26.4 0 0 0-1-2.8 76.2 76.2 0 0 0-11.6-19 71.4 71.4 0 0 0-15-12.7A56.9 56.9 0 0 0 67 3c-1.7-.2-8.5-.4-8.6-.3m-17 .6c-.1.1 0 .2.3.2.2 0 .3 0 .3-.2l-.4-.1-.3.1m40.1 0l.4.2c.3 0 .4 0 .4-.2-.2-.1-.8-.1-.8 0m-55.8 9c-.3.3-.4.7-.2.7l.2-.4c0-.2.2-.3.3-.2.1.1.2 0 .1 0-.1-.3-.1-.3-.4 0m72.5.2c0 .2.6.8.7.7 0 0 0-.3-.3-.5l-.4-.2m1 .9l.1.2.2.1c0 .3.4.7.7.7l.1-.2-.1-.1-.6-.5c-.2-.2-.4-.4-.4-.2m3.8 3.4c0 .2.7.8.8.7 0 0 0-.2-.3-.4-.3-.4-.5-.5-.5-.3m-38.2.3a30.1 30.1 0 0 1 8.3 1.5l1.7.5c1.6.6 1.4.5 4.2 1.9a17.5 17.5 0 0 1 3.9 2l3 2a54.7 54.7 0 0 1 20.1 33 67.6 67.6 0 0 1-2.3 33.8c-.4 1.2-.7 1.7-1 2.3a54.6 54.6 0 0 1-16.5 22 42.7 42.7 0 0 1-19 8 56.6 56.6 0 0 1-16.3-1.2 42.8 42.8 0 0 1-20.2-13.2l-1.3-1.5a60.4 60.4 0 0 1-12.6-31 107.9 107.9 0 0 1 .4-16 30 30 0 0 1 .8-4.4 83.4 83.4 0 0 1 2.5-8.3A65.5 65.5 0 0 1 28.8 34a45.7 45.7 0 0 1 25-16.1 38 38 0 0 1 11-.7m-46.6 2c-.2.2-.3.5 0 .5l.1-.3.2-.3c.2 0 .2 0 0 0h-.3m87 0l.1.3c0 .2.1.3.2.3l.2-.2c0-.2-.4-.5-.6-.5-.1 0 0 0 0 .1m1.7 1.9c0 .2.7.9.8.8 0 0 0-.3-.3-.6l-.5-.2m-90.4.3c-.4.3-.5.7-.2.7l.1-.3.2-.2s.2-.1.2-.3c.2-.3 0-.3-.3.1m-2.5 3l-.2.4c.2 0 .7-.5.6-.6l-.4.2m-5.2 8c-.2.1-.2.3 0 .4l.2-.3c0-.5 0-.5-.2-.1m-3.1 6.2v.2c-.2 0-.3 0-.3.2 0 .1.1.3.3.3.1 0 .2-.2.2-.5l-.1-.4c-.1 0-.2.1-.1.2m112.2 0c0 .2.1.3.3.3.1 0 .2 0 .1-.2 0-.2-.1-.3-.2-.3s-.2.1-.2.3M4.3 41.3c-.2.2-.1.4.1.3l.3-.3c0-.2-.3-.2-.4 0m115.2 1l.2.4c.2 0 .2-.5 0-.6-.1 0-.2 0-.2.2M3.1 44.4c-.2.5-.1.6.1.5.2 0 .3-.2.3-.4 0-.4-.3-.4-.4 0M121.3 48c0 .2.1.4.3.4.2 0 .2-.1.2-.4 0-.5-.5-.6-.5 0M1.2 50.9l.1.4.2-.4c0-.2 0-.4-.2-.4l-.1.4m121.3 1.3c0 .4 0 .6.2.6.4 0 .4-.5 0-.9-.2-.3-.2-.3-.2.3M0 56.4c0 .4 0 .8.2.8l.1-.8-.1-.7c-.1 0-.2.3-.2.7m123.3-.4c0 .2 0 .3.2.3l.1-.3-.1-.3c-.1 0-.2.1-.2.3m1.2 14.8c0 3.8 0 6.2.2 6.1.2-.1.2-12.4 0-12.4-.1 0-.2 2.5-.2 6.3M0 85.2c0 .4 0 .6.2.6l.1-.6-.1-.5c-.1 0-.2.2-.2.5m123.3.3l.1.3c.2-.2.3-.6 0-.6v.3m-.7 3.1l-.2.7c0 .6 0 .6.3.2.3-.5.2-1-.1-.9m-121.5 2l.1.4.2-.4-.1-.4c-.1 0-.2.1-.2.4m120.2 2.7v.7c.2 0 .4-.4.4-.7 0-.2-.2-.2-.4 0M3 96.8l.3.4c.2.1.2.1.2 0 0-.2-.1-.4-.3-.4H3m117.5.2s0 .1-.2 0l-.1.2.1.3c.2 0 .4-.5.3-.6h-.1m-1 2.3c0 .3 0 .3.2.1.2-.3.2-.5 0-.5l-.2.4m-115.3.7c0 .5.5.5.5.1 0-.2-.1-.3-.3-.3-.2 0-.2 0-.2.2m113 4.5l-.1.6-.2.5.6-1c0-.1 0-.2-.2-.2-.1 0-.1 0 0 .1M9.6 111c0 .3.5.4.5.2l-.3-.3-.2.1m4.3 6.3c0 .1.5.5.7.5l-.2-.3c-.3-.3-.5-.4-.5-.2m95.2.2c-.4.3-.2.8.4.8l-.1-.2c-.3-.2-.3-.3 0-.6.2-.4.2-.4-.3 0m2.5 2l.5.2-.1-.3-.5-.2.1.2m-96 1.4a257.6 257.6 0 0 1-6.4 3.7l-2 1.4c-.2.2-.2 15.6 0 15.6l2.5-1.7a96.1 96.1 0 0 1 17.1-9.6c.6 0 .2-.5-1-1.6a60 60 0 0 1-6.3-5.7c-2.8-2.8-2.7-2.8-3.8-2.1M104 123a59.6 59.6 0 0 1-6.7 6c-.9.7-1.2 1.2-.8 1.2a93.3 93.3 0 0 1 19.6 11.3c.3 0 .4-15.1 0-15.7-.2-.5-8.8-5.5-9.4-5.5L104 123m-99.4.7c-.4.4-.5.6-.2.6.1 0 .3 0 .3-.2l.1-.3.2-.1c0-.3-.2-.2-.4 0m114.5.8c.2.2.2 2.7.3 10.2v10-9.8c.1-9.9 0-10.6-.3-10.6-.1 0-.1 0 0 .2m-89.3 7.7l-.2.3.5-.3c.2 0 .2-.2.2-.2l-.5.2m63.5 0c-.1.2 0 .3.3.3s.4 0 .2-.1c-.2 0-.3-.2-.2-.3v-.1c-.2 0-.3.1-.3.2m-62.4.4l.3.4c.4.2.4 0 0-.3H31m60.4.7l.2.3.3-.3c.2-.2.2-.2-.1-.2-.2 0-.4 0-.4.2m7.2 1c0 .2.1.3.3.3.3.2.4.2.4-.1 0-.2-.2-.3-.4-.3-.1 0-.3 0-.3.2m1.5 5.7c0 3.1 0 5 .2 5l.1-5-.1-5c-.1 0-.2 1.7-.2 5m-80.3-3.5a20.3 20.3 0 0 0-2 1.1c-.1 0-7 4.5-7.7 5.1h10.3v-3.2-3.2l-.6.2m83.5 0v6.2h5.1c4.2 0 5 0 4.8-.1a62.5 62.5 0 0 0-9.9-6.1m-62.9 1l.4.1.3-.1c0-.1-.1-.2-.3-.2-.2 0-.4 0-.4.2m42.4 0l.3.1.4-.1c0-.1 0-.2-.3-.2-.2 0-.4 0-.4.2m-39.3 1.1l.4.2c.2 0 .4 0 .4-.2l-.5-.1-.3.1m36.1 0c0 .1.1.2.3.2.2 0 .4 0 .4-.2l-.3-.1-.4.1m-33.4.9s.2.1.4 0c.4 0 .3 0-.2-.2-.2 0-.3 0-.2.2m30.8 0h.3c.1.1.3 0 .4 0 0-.1 0-.2-.2-.2l-.5.1m-26 1.2c0 .1.2.2.5.2s.6 0 .6-.2l-.6-.1-.6.1m20.5 0l.8.2c.4 0 .7 0 .7-.2l-.7-.1-.8.1m-67.1 4.3s0 .3.2.4c.2.2.3.1.3-.1s-.1-.4-.3-.5c-.1 0-.2 0-.2.2"/>
  </g>
</svg>
