<svg xmlns="http://www.w3.org/2000/svg" width="142.7" height="164.8" display="block">
  <path fill="#00356e" fill-rule="evenodd" d="M68.8.6a5.8 5.8 0 0 0-3 7.2l.4 1s-1.9.2-4.6.2h-4.5l-.1 3.6c0 3.2-.1 3.5-.4 3.9a435.2 435.2 0 0 1-9 9.4l-.5.2-1.3.5c-1.7.6-5.3 2.2-6.8 3l-1.6.9a36.9 36.9 0 0 0-6.4 4 47.3 47.3 0 0 0-6.6 5A84 84 0 0 0 9.2 58 78.7 78.7 0 0 0 1 80.7L.2 87a77 77 0 0 0 7.4 38.7 81.7 81.7 0 0 0 8.4 13 70.4 70.4 0 0 0 41 24.7 248 248 0 0 0 6.8 1l2.2.3a130 130 0 0 0 14.3-.4 60.6 60.6 0 0 0 16.8-4.2l2-.8a65.6 65.6 0 0 0 11.4-6.1 73.6 73.6 0 0 0 21-21l1-2a76.6 76.6 0 0 0 10-30.2c.5-4.2.1-13.8-.7-18.3l-.3-1.8a71.4 71.4 0 0 0-46.4-54 40 40 0 0 1-5.6-5.7l-1.8-2c-2.1-2.2-2-1.7-2-5.5l-.1-3.5c0-.2-1-.3-4.6-.3a41 41 0 0 1-4.5 0l.3-1.1a5.9 5.9 0 0 0-8-7.2m4.7 2c2 1.4 2.3 4.6.4 6.2-.3.3-.4 2.1 0 2.2l5 .2h4.7v3.5H73.2v19.7h.5a13.5 13.5 0 0 0 4.2-1.3c1.5 0 7-6.2 7-8v-.4c.2-.1.3-.4.3-.8.2-.7.2-.7-1.9-1-2-.2-1.9-.3.2-2.3 2-1.8 1.9-1.8 2.2-1.3l.5.7c1.1 1 3.8 4.2 3.7 4.2l-1-.1c-1-.2-1.3-.2-1.5.5-.2 1.1-.4 1.8-1 3.1-7.3 14.7-27 12.5-31.3-3.5-.1-.3-.9-.3-1.6 0h-.7c-.2 0 4.3-5 4.6-5 .3 0 3.4 3 3.4 3.3 0 .1-.4.3-1.5.4-2 .3-2.1.4-1.7 1.8a12.9 12.9 0 0 0 1.7 3.4c.6 1.2 2.6 3.2 4.3 4.3 2 1.3 5.5 2.5 5.8 1.9l.1-9.8V15l-5.2-.1-5.2-.1v-3.5H64l5-.2v-1c0-1 0-1-.4-1.4-2-2-1.2-5.5 1.6-6.5.7-.3 2.4 0 3.3.5m-3 1c-1.7.7-1.3 3.5.5 3.8 1.9.3 3.1-2.1 1.8-3.4-.5-.4-1.8-.7-2.4-.4m-3 15.8V22h-1.8l-1.9.1-2.6-2.6a23.6 23.6 0 0 1-2.5-2.8h8.8v2.7m16.7-2.7l-2.6 2.8-2.7 2.7h-1.7c-1 0-1.7-.1-1.8-.2-.2 0-.2-5.1 0-5.3a81 81 0 0 1 8.8 0m-16.6 11c0 2 0 3.7-.2 3.8-.3.3-2.7-1-4.3-2.6-1-1-3-3.8-2.7-4 .2-.2 5.7-1 6.6-.9h.5v3.7m11-3.4l4 .6c.1 0-.5 1.2-1.3 2.4-1.2 1.7-4.6 4.3-5.7 4.3-.2 0-.2-.7-.2-3.7 0-4.1 0-4 1-3.9l2.2.3m-24.6 3c1.7 4.7 6.4 9.4 11 11 .6.2 0 .4-3.6 1a35.4 35.4 0 0 0-7.4 1.9 57.7 57.7 0 0 0-21.3 13.2 55 55 0 1 0 48-15.3c-2-.3-2.8-.5-2.8-.6l.8-.5c1-.3 2.6-1.2 2.8-1.4 0 0 .3-.3.7-.4 2.1-1 7-7.5 7-9.5 0-.4.4-.5 1.2-.2l1.6.5a39 39 0 0 1 7.7 2.9 31 31 0 0 1 5.1 2.5l1.4.8 1.2.7a71.3 71.3 0 0 1 31.4 42c0 .6.4 1.8.5 2.5a72 72 0 0 1-3.6 41.5 72 72 0 0 1-25.6 31.3 72.1 72.1 0 0 1-26 10.5 75 75 0 0 1-33-2 75.2 75.2 0 0 1-24.7-13.6c-.8-.6-1.4-1.2-4-3.7A69.6 69.6 0 0 1 2.7 83.2L3 81a49.8 49.8 0 0 1 1.5-6.3 57.2 57.2 0 0 1 3.4-9.6 73.6 73.6 0 0 1 9.6-15.5 75.8 75.8 0 0 1 26.2-20l4.7-1.8a30 30 0 0 1 4.4-1.4c.2-.4.7 0 1 .9m43 5.6c-.4 0-.7.3-.8.4l-2 2-2.4 2.4c-.7.7-1.4 1-2 1-.8 0-.7.6.2 1l1.6.7c1.2.5 2.2.3 1.1-.3-.7-.4-.7-.8-.1-1.6.8-1 .9-1.1 2-.6 1.3.6 1.3.6 1.2 1.8 0 1.2-.2 1.4-1 1.4-.3 0-.4.1-.4.3l.4.4c.3 0 1.1.5 2 .8 1.5.8 2.1.8 1.6 0-.7-1-.8-2-.5-5.2.1-1.5.2-4 .1-4.6 0-.2-.2-.2-1 0m-51.5.2c-1.1.2-4.8 1.9-5 2.2-.2.3 0 .4.8.4.9 0 1 .1 2.3 3.1 1.2 2.7 1.3 3.3.7 3.9-1 .9-.2 1 1.6.1l1.9-.8c1.4-.6 1.8-.9 2.6-1.7 3.6-3.5.1-8.5-5-7.2m1.8 1.2c2.6 1 3.5 4.8 1.4 6.3-1.3 1-1.9.6-3.2-2.5a277.2 277.2 0 0 0-1.4-3.3c0-.7 2-1 3.2-.5M96 36c-.2 1.3-.4 1.5-1.3 1-.5-.4-.5-.6.3-1.4.9-.9 1-.8 1 .4m7.4.3c0 .1 0 .5.3.7.4.7.3 1-1.3 3.5-1.9 2.8-2 3-2.9 2.8-.4 0-.8 0-.8.2a9 9 0 0 0 2.4 1.7l.9.6c1.3 1 1.8.7.8-.4-.6-.7-.6-1 0-1.9l.6-1c.3-1 1 0 .9 1.5-.2 2.4.7 4.2 2.5 5.2.5.2.8 0 .6-.4a7.4 7.4 0 0 1-1.2-4.7v-1h.9c2.8-.5 2.6-3.1-.4-5.2-3.2-2-3.1-2-3.3-1.6m-69.6 3c-.1.5 0 .8.3 2.3a81.2 81.2 0 0 1 1.2 5.2c.3.4.2 1.2 0 1.8-.6 1-.1 1 1.2 0l1.6-1c.9-.7.4-1-.7-.5-.6.3-1.2-.4-1.3-1.5-.2-.8.2-1.3 1.5-2l.5-.3.9.7c1 .7 1 1 .7 1.5-.4.6 0 .9.6.4l.7-.4h.2c0-.2.4-.5.8-.7 1.7-1.2 1.8-1.4.5-1.4-.8 0-1.3-.2-3.3-1.7L35 38.8c-.6-.5-1-.4-1.2.3m73 0c1 1.3-.3 3-2.1 2.6-.5-.2-.5-.5.4-1.9.9-1.3 1-1.4 1.6-.7m-36.1.9s0 .3-.2.5l-.6 1-1 2-.8 1.2-1.5.1a25.9 25.9 0 0 0-4.2.7c-4.2.7-8.7 2.2-12.7 4.2l-1.6.8-.9-.4a19 19 0 0 1-3-1.5c-1.3-.7-1-.8 3.7-3.3A70 70 0 0 1 56 42 51.5 51.5 0 0 1 70.6 40m4.9 0a61.6 61.6 0 0 1 5.7.8c4.6.8 9.2 2.3 14 4.8 1.9.9 2 .9 1.7 1.2l-.4.3-.7.4c-1.9 1.4-3.2 2-3.7 1.7a50 50 0 0 0-16.9-4.4c-.7 0-1.1-.5-2.2-2.8l-.6-1.1c-.4-.7-.4-1.1 0-1.1l3.1.2m-39.6 1.8c1 .6 1 .9.4 1.3-.8.5-.7.5-1-.4-.5-1.4-.4-1.5.6-.9m76.6.7c-.8.6-1.7 1.6-1.6 1.8.1.2.7.2.8 0 .3-.4 1.3-.4 2.1.2 1.1.7 1.3.4-2.2 4-2 2-2 2-2.7 1.5-1.3-.6-1.1 0 .4 1.4L111 53c.6.6 1.1.3.7-.4-.6-.8-.3-1.3 2.5-4.2l1.4-1.5c0-.4.5-.4 1 0 .7.7.9 1.5.6 2.4-.3.7-.2.9.3.9.1 0 1.7-2.2 1.7-2.4 0-.2-.2-.3-.4-.4-.7-.1-4.8-4-5.4-5-.3-.5-.3-.5-1 0M27 45.4c-2 .7-6.8 5.5-5 5l.7-.3c.5-.3 1 .1 3.5 2.7 1.7 2 2 2.3 1.4 3.1-.7.9.3.8 1.2-.2l2-2c1.8-1.7 2.3-2.7 2.3-4.4 0-3.1-3-5-6.1-4m1.9 1.8c1.9.8 3.3 3.2 2.6 4.6-1.1 2-1.7 2-4.5-1-2.6-2.6-2.6-2.6-1.8-3 1.4-1 2.5-1.1 3.7-.6m41.6 18.5c0 12.8 0 18.6-.2 18.8-.2.2-13.4.3-16.5 0h-2l-.1-.5c0-.4 0-.5.8-1 3.8-2 4.6-6.6 1.6-9.5-.7-.7-2.8-2-3.2-2-.7 0-1.3-.5-1.2-1C50 69 52 69 55 70.5c1.4.7 1.8.6 1.8-.3l.1-1c.3-.6.4-3.1.2-3.4l-.9-.2c-.6 0-.8 0-2-.6-2.3-1-4-1-4-.1l-.3 1.7-.5 2c-.4 2.2-.3 2-1 2.1-.9.1-1 0-1.6-1.6-.6-1.8-.6-2 .1-2.2 1.4-.2.1-2.1-1.4-2.1-1.4 0-2.7 2-1.3 2.1.7 0 .7 0 .6 2.2V71l-.9.2c-.4 0-1.1.3-1.6.5l-.8.3c-.2 0-1.7 1.1-2.2 1.7-3 3-1.7 8 2.6 9.8 2 .7 2.2.9 2.1 1-.1.1-16 .2-17.2.1-.7 0-.9-.2-.9-.4a36.7 36.7 0 0 1 1.7-6 49.5 49.5 0 0 1 20.3-24.8 49.2 49.2 0 0 1 14.4-5.5 34 34 0 0 1 7.3-.8h1v18.6m7.2-18.3l2.1.4a46.7 46.7 0 0 1 20.3 9.3l1.7 1.3a53.5 53.5 0 0 1 11.1 14.4 53 53 0 0 1 3.7 10.3c.4 1.4.4 1.4-.9 1.5h-2.2l-1-.1-.2-1.4c-.1-2.5-1.2-3.5-3.7-3.5-1.3 0-1.5 0-1.4-.3 0-.2.2-.4.5-.4 1.4-.1 1.3.1 1.3-2.9 0-4.2-.5-5.5-2.5-6.5-1.9-1-2.3-1-9.8-1h-7l-.7.5c-1.3.9-2.7 2.7-2.7 3.6v.4a715 715 0 0 0-.5-9.3l-.2-2.5h.7l1.4-.3 4.3-.2 4-.1c.4-.3 2.2-.4 3-.2.2 0 .4 0 .5-.2.3-.4-.2-1-.8-1L98 59c-.2-.2-1.2 0-2 .3-.4.2-2.6.3-2.7.2-.2-.3 2.2-1.6 2.8-1.5 1.1.3 1.3.2 1.4-.3 0-1-1.7-1.2-3.5-.3-2 1-2.6 1.1-5.3.9-3.5-.3-4-.2-5.1 1.7l-.7 1.2-.1 2.7-.3 7c-.2 5.5-.2 5.7-.6 6.3l-.2.9c0 .3-.1.3-2.5.4h-2.5l-1.2 1.2c-1.7 1.6-1.8 1.8-1.8 3.4 0 1.5 0 1.5-.9 1.4h-.6V46.8l2.3.1c1.3 0 2.7.2 3.2.3m23 1.4A54.7 54.7 0 0 1 117 65.9c-.1.3-5.4.3-5.6 0A52.5 52.5 0 0 0 99 53l-.6-.3V50c0-2.6 0-3 .4-2.7l2 1.3M42 50c0 .7 0 1.9.2 2.7v1.4l-1 .8a50.4 50.4 0 0 0-10.6 11.4c-.7 1-.7 1-3.4 1-2.8 0-2.8 0-2-1.3a64.2 64.2 0 0 1 12.8-14.6c.2-.3 3.6-2.7 3.7-2.7l.3 1.3m78.6 0v1c.2.6-.5 1.4-1.7 2.1-3.3 2.2-4 3.5-2.9 5.8 1.6 3.1 3.5 3.4 7.2.9 2.2-1.5 2.3-1.5 3-1.3 1.1.4 1 0 0-1.4-1.3-1.8-1.5-2-1.7-1.8v.6c.5 1.1.2 1.6-2.2 3.4-2.1 1.5-3 1.7-4.1.7-2-1.7-.7-4 3.3-6.2l.7-.3.6.4.8.3c.2-.2.1-.6-.3-1l-1.3-1.8c-1-1.5-1.2-1.7-1.4-1.3M20 52.2a33.1 33.1 0 0 0-2.9 3.9c0 .3.6.2 1-.2.7-.5 1-.4 3.5 1.6 2.8 2 2.7 2 2.6 3.2-.2 1.2-.1 1.1 1.2-.5l1.5-2c.8-.9.4-1.4-.6-.7-.6.4-1 .3-3.2-1.4-3-2.2-3.1-2.5-2.7-3.3.4-.6 0-1-.4-.5M15.2 59c-2.5 2.5-2 5.8.9 5.8l.8-.2.3-.2 1-.5c1.7-1 3-1 3.3.1.4 1.3-1.1 2.4-3 2.2-1.6-.2-1.2.5.5 1 1.3.5 1.5.5 2.4-.6 3.1-3.7.6-7-3.6-4.7-2 1-3.1.9-3.1-.5 0-.9.4-1.2 1.8-1.2 1.3 0 1.7-.2 1-.6l-.8-.5c-.5-.5-1.1-.6-1.5-.1m72.2.3c.1.1-.6.4-1.4.6-.8.1-1-.2-.4-.5.5-.3 1.7-.4 1.8-.1m41 1.8v.8c0 .9-.4 1.1-2.7 2.2-3.6 1.8-3.5 1.7-4.2 1-1-.9-1-.3 0 1.7l1 2.3c.2.5.5.7.8.3l-.1-.6c-.4-.8 0-1.3 1.1-1.9 1.7-.8 2-.3.8 1.4-1.4 2-1.5 2.9-.9 4.7.5 1.4.5 1.4.9 1.2.2 0 .2-.3.2-1.1 0-2 1.7-4.8 2.6-4.3 1.1.8 3 .1 3.2-1.2.3-1.4-2-7.2-2.7-6.5m1.2 3.7c1.3 1.2-1 3-2.5 2-.9-.6-.8-.9.4-1.4.3 0 .7-.3.8-.4.2-.2.5-.3 1-.4l.3.2M52.2 66c0 .3 0 .4-.4.4-.5 0-.7-.4-.4-.7.3-.2.8 0 .8.3m2.6.1l1.2.3c.3 0 .3.2.3.7 0 .9-.2 1-1.2.5l-1.1-.4c-.4-.1-.5-.2-.5-.8 0-.7 0-.7 1.3-.3m-.7 2c.6.2 1.2.4 1.4.6.4.1.5.3.5.6 0 .7-.3.7-1.1.3a7.2 7.2 0 0 0-3.4-.8c-1.4 0-1.5-.1-1.1-1 .2-.5 2.2-.4 3.7.3m65.3 1.9a64.7 64.7 0 0 1 3.4 8.9 44.6 44.6 0 0 1 1.9 14.2l-2.4-1.3-2.2-1.4-.3-1.7a46.2 46.2 0 0 0-4.1-15.7c-.7-1.4-.7-1.3.5-3l1-1.7c0-.2.6-.8.8-.8 0 0 .7 1 1.4 2.5M10.9 68.8c-.6.3-1.6 2-2.1 3.4a39 39 0 0 1-.7 1.8c-.4 1.1.2 1.8.7.7.3-.7.7-.7 2.5 0l2.3.9c1.8.6 2.2 1 2.2 1.9 0 1 .6.8 1-.3l.6-1.8.5-1.3c.5-1 0-1.5-.6-.5-.4.8-1 .9-2.1.5-1.7-.7-1.6-1.3.3-1.6 2.2-.3 3.2-1 4-2.4.9-1.6.6-2.1-.5-1a7 7 0 0 1-3.4 1.5c-1.3.3-1.4.2-1.7-.8-.3-1.2-1.9-1.7-3-1m13.8 1l1.2 2c1 1.3 1 1.5.1 3.6A66.7 66.7 0 0 0 23 88.3l-.3 2.2-1.7 1c-3.5 2-3.2 2.2-2.9-2.2a55 55 0 0 1 5.5-20c0-.1.3-.5.5-.5l.7 1m70.4-.2s-.1.4-.4.6c-.5.6-1 1.6-1 2 0 .3-.2.4-.9.5-.8.1-1 0-.7-.8.5-1.1 2.6-2.8 3-2.3m3.1 0c.2 0 .2.2-.4.8l-.6 1c0 .8-.7 1.4-1.5 1.3-1 0-1-.3-.5-1.2.8-1.3 2.3-2.2 3-2m7.1.6c1 .4 1.7 1 2.2 2 .4.7-.3.6-1-.1-2-2.2-5.1-2.3-7-.2-1.2 1.2-1.8 1.2-1.2 0 1.1-2.2 4.4-3 7-1.7m-15.5.2l-.8 1.5c-.4.8-.9 1.2-1.2.8-.4-.4.5-1.8 1.6-2.6.8-.6 1-.5.4.3m1.2 1.3c-.7 1.5-1.4 1.6-.8.1.2-.5 1.3-1.5 1.4-1.4l-.6 1.3m-78.5-.7c.5.3.7 1 .6 1.7 0 .4-.7.5-1.2.2l-1.1-.4c-.8-.3-1-.4-.9-.7.3-1 1.6-1.4 2.6-.8m72.6 2.7l-.1 2.5c-.3-.1-.3-.4-.2-4 0-2.2.3-1 .3 1.5M49.7 72c1 .4 2.6 1.2 3.1 1.6.5.4.3.6-.8.8l-2 .2c-1.3.2-1.2.2-1.8-1.2-.6-1.7-.4-2 1.5-1.4m-5.1 1.6c-.2 1.7-.1 1.6-.9 1.7-4.6.7-5 .6-4-.6 1.2-1.4 3.1-2.5 4.4-2.6h.6l-.1 1.5m2.4-.7l.3 1c.3.8 0 1.3-.3 1-.3-.4-.5-2.5-.2-2.4l.2.4m-1.2 1.5l-.1.7c-.2 0-.3-1.2 0-1.4.1-.2.1-.1.1.7m83.2-.5c-5 1.8-3.3 10.2 2 9.8 3-.2 4.4-1.7 4.4-4.8 0-3.9-3-6.2-6.4-5m-40.5 1.8v2l-.6-.1h-.7v-1.8c0-2 0-2 .7-2h.5v2m2.2-.1v1.8h-1V76c-.1-2 0-2.2.5-2h.5v1.8m2.8-1.7V77.6H91.6v-1.7-2c.1-.2 1.8-.2 1.7 0m3.3.3v3.3h-1l-1.2.1v-3.9h1c1 0 1.2.1 1.2.5m11.2 1.5v1.8H97.7v-3.8l5 .1h5.2v1.9m-53.3.2c.7 1.7.3 2.2-2.1 2.5l-1.9.2c-.7 0-.8 0-.9-.4l-.2-1c-.5-1.5-.6-1.4 2-1.7 2.6-.3 2.8-.3 3 .4m79 .4c2.2 1.7.9 4.4-2.5 5.2-4.8 1-5.8-4-1-5.5l1-.3c.6-.2 2 .1 2.5.6M47.8 76c.3.2 1 2.4.9 2.6-.4.3-1.3 0-1.3-.5l-.2-1.2c-.3-1 0-1.3.6-.9m-1.6 1c.2 1.4.2 2-.3 2-.6 0-.6-.2-.5-1.6.2-1.4.6-1.7.8-.5m-1.9.8c0 1.6 0 1.6-1.8 1.7-.8 0-1.7.2-2 .3-1 .3-1.4 0-1.7-1-.5-1.6-.4-1.8 1.2-2 .7 0 1.5 0 2-.2l1.5-.1h.8v1.3m41.2.2l.1 1.9.2 2.1c.5 1.9.1 2.9-.9 2.5-.2 0-.4-6.3-.2-6.7.2-.3.8-.2.8.2M6.8 79l-.6 4.4-.4 1.8c-.3 1.1.2 1.5.7.6.4-.7.7-.8 2.4-.6 4 .4 4.8.7 5 1.6.5 1.4.9.9 1.1-1.2a66 66 0 0 1 .8-5V80l-.7-.4c-1.6-.6-2.8-.6-2.2 0l.7.5c1.5.6 1.4 4 0 3.9-1.9-.1-2.4-.3-2.4-.8-.1-1 .3-1.7 1-2 .8-.4.6-.7-.6-1L10 80c-.7-.1-1 .2-.5.6.5.4.7 1.1.6 2-.1.9-.4 1-2 .6-1.3-.3-1.3-.3-1-1.6.3-1.2.6-1.5 1.3-1.6.7-.1.9-.2.7-.5-.1-.2-.5-.3-1.8-.7-.3 0-.4 0-.6.3m80.4 1.1c0 1.8 0 2.4-.2 2.4-.1 0-.2-.4-.2-.9l-.1-1.7c-.2-1-.2-1.2.2-1.2.2 0 .3.3.3 1.4m2.6 1.4c0 2.4 0 2.8-.2 2.8-.3 0-.4-5.3-.2-5.5.4-.3.4.1.4 2.7m2.7 0c0 2.7 0 2.8-.3 2.8-.4 0-.6-5.2-.3-5.5.5-.5.6 0 .6 2.7m2.8-.1c.1 2.8.1 3-.2 3-.4 0-.6-4.3-.3-5.4.2-1 .5 0 .5 2.4m5.4-1c0 1.8 0 1.9 1.5 1.7h.7v-1.6c.2-2.1.5-2.2.6-.2 0 2 0 2 1.2 2 1.4-.1 1.3 0 1.3-2.8 0-.4 0-.7.2-.7l.1 2.7c0 2.7 0 2.8-.3 2.8s-.3 0-.4-.7v-.8h-1c-1 0-1.1.1-1.1.9 0 .5 0 .6-.3.6-.1 0-.2-.1-.2-.7 0-1.3-2-1.2-2.2 0-.2 1-.4 1-.5 0v-.8l-1-.1c-1-.1-1.4.1-1.3.8l-.1.7c-.2.2-.2-.3-.2-2.6l.1-2.8c.2 0 .3.9.2 2.2l-.1 1 .5.1H100.2v-1.7c.2-2.4.5-2.3.5 0m-46.3-.9c-.5 1.2-2.7 3-3.2 2.7-.2-.1-.7-1.7-.7-2.2 0-.4 0-.5 1.3-.6l1.5-.1c.8-.2 1.2-.1 1 .2m27.1.8v.6h-1c-.8.1-1 0-1.4-.4-.7-.7-.5-.8 1-.8h1.4v.6m-31.7 1c.6 1.6.6 1.7-.5 1.9-1 .2-1.2 0-1.4-1.7-.1-1.7-.1-1.7.7-1.7h.7l.5 1.5m-3-.4l.2 1.6.1.9h-.9l-.9-.1v-1.5c0-1.7 0-1.7.8-1.6.5 0 .6.1.7.7m30.8-.3c.7.7.6.7-.4.7-1.2 0-1.3.2-1.3 1.7 0 1.2 0 1.3-.3 1.4-.6.2-.7 0-.7-1.3v-1.3l.8-.8c1-1 1.3-1 2-.4m-33.3 0V82c-.2 1.2-.5 1.3-2 .5-2.3-1.1-2.4-1.6-.4-1.8 2.1-.3 2.3-.3 2.4 0m64 0l-.4.7-.5.5-.1-.4c-.3-.7.6-1.3 1-.7m2.7 1c.7 1 .8 2.9 0 2.7-.3 0-.3-.3-.4-1v-.8h-1.2v.8c0 1.4-1 1.6-1 .2 0-.9 0-1 .7-1.8 1-1 1.1-1 1.9 0m-32.3.5c.2 1.4 0 2.5-.4 1.9-.2-.3-.2-2.2 0-2.4.2-.2.3-.1.4.5m-1.5 1.1l-.2 1-.2-1c0-.7 0-1 .2-1l.2 1m4.1 0v1H80v-1c0-1 0-1 .8-1h.5v1m-30.7.8c0 .1-.8.3-1.5.2-.5 0-.5-.1-.2-.2.5-.2 1.6-.2 1.7 0m-7.4 1.6l-.2.3-.2.7c0 .3 0 .6-.2.7-1.3 1-1.7 1.8-1.4 2.9l.1.4h7.4l7.4-.2c.2-.1 0-2-.1-2.6-.2-.7-1-1.5-1.7-1.7-.2 0-.4-.2-.4-.3 0-.3.4-.3 8.2-.3h8.3v1c.1 1.2 0 1.3-1.1 1.7a5.3 5.3 0 0 0-2.9 3c-.3.9-.3.9-1 1-1.8.2-40.2.1-40.4-.1-.1-.4.2-5.6.4-6.4.1-.3 17.8-.3 17.8 0m53 0c.7.2 1.1.3 1.3.1.2-.1.4 0 .6.3.4.6 2 .6 2.2-.1.1-.7.5-.7.5 0 0 .5.3.7 1 .5.7 0 1.2-.5 1.2-.8 0-.3.3-.3.5.1 0 .2.3.3.5.3a3 3 0 0 0 1-.3c.7-.3 1-.3 6.4-.3h5.7l.1.6.3 1.5c.2 1 .3 4.3 0 4.5-.2.4-40.4.3-40.8-.1l-.4-.7c0-1-2-2.9-3.8-3.4-.3-.1-.3-.2-.3-1.3v-1.1h11.4c10 0 11.7 0 12.6.2M5.6 88c0 .1-.2 3.1-.1 3.8 0 .6.7.1.7-.6 0-.8.9-.6 4.5.8 1.4.6 1.5.6.3 1.1-4 1.6-4.7 1.8-4.9.9 0-.2-.1-.4-.4-.4-.3 0-.6 3.7-.3 4.4.1.3.8 0 .8-.4s.6-.7 2.9-1.6a153.9 153.9 0 0 0 4.3-1.8c2-.8 2-1-.7-2.2-5.3-2.4-6.1-2.9-6.4-3.5-.3-.6-.5-.8-.7-.5M128.1 90l-.1 2.7c0 3 .2 3.4.8 1.6l.3-.8h7.3c.5.7-1.4 2.4-2.5 2.2-.5-.1-1.4-.8-1.4-1.2 0-.3-.4-.6-.7-.4-.2.2-.1 1 .4 2 1 2.3 3.8 2.3 4.6 0 .4-1.2.4-6 0-6-.1 0-.2 0-.3.3-.3 1-.3 1-3.5 1-3.5 0-4 0-4.2-1-.2-.6-.5-.8-.7-.4m-65 4.3h3l.2.4c.3 1.8 2.3 3.7 3.5 3.7.7 0 .7.4.7 11 0 11 0 10.7-.8 10.7-.4 0-.8.2-1.3 1-.3.2-1.9.3-2 0-1.3-5.2-5.4-7-9-4.1a7 7 0 0 0-2 3.3c0 1.6-.5-.3-.7-2.6l-.6-4s.2-.2.5-.2c.8-.1 1-.4.9-2v-1.3h-1c-1.3-.1-1.2 0-1.6-4.2l-.1-1h.5l.4-.1v-2.5H53c-.9-.1-.7 0-3-3.2-.8-1.1-1-2.2-.3-2.4.7-.3.7-1 .1-1-.2 0-.4-.2-.5-.4-.2-.5-.6-.6-.8-.1 0 .2-.2.4-.5.4-.7.2-.7 1 0 1 1.1.3.3 2.2-2.3 5.3-.1.2-.4.3-1 .3-.4 0-.7 0-.7.2v2.3l.5.1c.4 0 .5.1.5.4l-.5 4-.2.8h-.9c-1 0-1 0-1 1.7 0 1.4 0 1.6.6 1.6s.7.1.5 1.4l-.7 4.9c-.2 1.6-.2 1.6-2.5 1.6-1.7 0-2 0-2-.3-.4-1-1.9-1.2-2.6-.3-1 1.1-1.3.9-3-1.7a67.2 67.2 0 0 1-5.4-10.7A53.6 53.6 0 0 1 25 95.9v-1.6h15.9a1537.5 1537.5 0 0 1 22.1 0m54.7 1.8a37.4 37.4 0 0 1-1.2 8.1 48 48 0 0 1-8.2 17.3c-1 1.4-1 1.3-3.2.9-2.3-.5-2.6-.5-2.9-.3a4 4 0 0 1-1.5.3c-1 0-1.7.1-2.5.5-2.1.7-3 .6-4-.4 0 0 .1-.3.4-.5.5-.5.9-1 3.4-4.6l2-2.8a10 10 0 0 0 1.6-2.5c-.3-.4-.9-.1-1.3.5l-4.7 6.2s-.1-.1 0-.4c0-.3.2-.6.6-1.5a333.7 333.7 0 0 0 2.6-6.7c.2-.4.2-.5 0-.7-.5-.4-.7-.1-1.5 1.7a258 258 0 0 1-3.5 8.7c-.5 1.1-.5.3-.3-3.7.2-4.7.2-7.9 0-7.7l-.2 1.3a251 251 0 0 1-1.2 9.6c-.8 0-1-.3-.5-1.7.3-1.1.3-1.2-.5-1.6-.8-.4-1-.3-1.3.5-.1.6-.6 1.3-.6.9L89 116c-.2-1.4 0-2.1.5-2.3.4 0 .5-1.4.1-1.5-.4-.2-1.4.6-1.3 1.1 0 .7-.3.7-2-.2-2-1-2-1-2.6.4-2 3.7-3 5.6-3.2 5.6l-.8-.3-2.5-1.4v1.2l1 4.4c0 .3-.3.3-3 .2h-3V98.6h.4c1.6-.4 3.4-2 3.7-3.5l.3-.8h41.1V96m-97.5-.4l2.2 1.2c.3 0 .3.3.6 2.6.6 4.9 2.1 10.3 4.2 14.6.6 1.3.6 1-.7 3-1.7 2.8-1.6 2.6-2 2.3A40.9 40.9 0 0 1 22 114a41.3 41.3 0 0 1-2.6-7.8c-.7-2.8-1-4-1.3-8-.4-4.2-.6-4 2-2.5m104.7-.7v.3a390.7 390.7 0 0 0-1 8.4l-.3 1.5a57.7 57.7 0 0 1-4.7 12.9c-.6 1.2-.8 1.1-1.5-.3l-1.2-2-.8-1.3.8-1.6a53 53 0 0 0 3.7-14.6c.2-1.4-.1-1.1 2.4-2.4 2-1.1 2.6-1.3 2.6-1M14.2 98.9l-.2.5c0 .6-.6 1-2 1.2l-2.5.5c-1.9.3-3 0-3-.5s-.5-.9-.7-.5c-.2.3-.2.4.1 1.5l.3 2c0 1.3.5 2 .7.9.2-1 .6-1.2 2.5-1.5 4-.6 4.9-.6 5.3.5.4 1.2.6.1.3-2l-.3-2c-.1-1-.3-1.1-.5-.6m113.9.1l-.1.4c0 .2 0 .6-.2.9-.7 2.5-.7 5.3 0 3.5.5-1 .8-1.1 2.1-1 1.7.4 1.6 1.1-.1 1.7a7.2 7.2 0 0 0-2.9 1.6c-.3.5-1 2.3-1 2.7 0 .5-.5 2.3-.7 2.8-.5.9-.1 1.4.5.6.5-.7 1-.6 2 .1l.6.7-.4 1c-.5 1.4-.9 1.6-2 1.4-.8-.1-1-.2-1.2-1-.3-.7-.5-.5-.8.4a19 19 0 0 1-.7 2c-.5 1.1-.5 1.7 0 1.3 1.2-.8.8-.8 5.6-.7 4.2 0 4.5 0 4.5-.3 0-.7-.5-1.4-1.5-2.3-5.3-4.7-5.7-5.4-4.3-6.8 1.5-1.4 3.9-2.3 4-1.6.2.7 1 1.3 1.8 1.4 1.7.3 2.5-.8 3-3.8l.4-1.6c.4-1.7.1-2.2-.7-1.2l-.6.7-1.6-.3-2.4-.4c-2-.3-2.7-.7-2.7-1.6 0-.5-.4-.8-.6-.6m-78.6 1.4l.7 1.1c.6.9.6.9-1.3.9-2 0-2 0-1.5-.7l.8-1.1c.6-.9.8-.9 1.3-.2m3.2 3.2c0 .4 0 .4-3.9.3-4.2 0-4.1 0-3.8-.4a22 22 0 0 1 7.7.1m82 .3c.9.2.9.2.5 1-.8 1.4-2.6 1.1-3-.6-.2-1 .3-1 2.5-.4m-83 2.1c.3 1.2.6 3.3.6 3.8v.4H45.6v-1c0-1.5.4-3.9.6-4l2.8-.1h2.6l.2 1m-37.6.3l-1.5.5a48 48 0 0 1-4.5 1.1c-.1 0-.5-.1-.7-.4-1-1-1-.3 0 3 .3.9.6.8.7-.2 0-1.1.3-1.3 2.5-2 2.4-.8 2.4-.8 1.4 1a83.5 83.5 0 0 0-2.4 3.9c-.9 1.3-.9 1.4-.6 2.4.5 2 .9 2.3 1.1 1.1.3-1.2.5-1.3 4.9-2.5 1.1-.2 2-.1 2.4.3.6.8 1 .4.5-.6a19 19 0 0 1-.6-2.3c-.3-1.2-.9-1-.9.2 0 .8-.2 1-2.6 1.8-2.5 1-2.6.8-1.4-1.1l.7-1.1.4-.7 1-1.6.7-1.4c1.2-1.7 1-2-1.1-1.4m40.1 5.4v.4h-5.4c-4.9.1-5 .1-5.3-.2-.3-.6 0-.6 5.4-.6h5.2l.1.4m-4.3 1.7h3l.3 1.6a369.2 369.2 0 0 0 .6 4.5l.1.8-.8-.1c-.8-.1-.8-.1-1.3.5l-.5.6h-4.8l-.6-.6c-.5-.6-.5-.6-1.4-.5h-.9l.2-1c.8-6.2.8-6 2.4-5.8H50m79.8.7c1.5 1 1.5 1.4-.1 1.3-1 0-1.1-.2-.7-1.2.2-.5.2-.5.8-.1m-43.5.3c0 .1 0 .2-.2.2-.1 0-.3 0-.4-.2l.3-.1.3.1m.8.5l.5.2c.2 0 .2 0 .1.1-.2.1-1.2-.3-1.2-.5s.5 0 .6.2m-.9.7c1.5.7 2 1 1.7 1.3-.1.2-3.6-1.7-3.6-1.9 0-.3.1-.3 1.9.6m-.7 1.1l1.3.6c1 .5 1.4.9 1.6 1.7 0 .3.2.5.6.6l1.5.5 1 .5v1c0 .5 0 1-.2 1.1-.2.1-2.6-.3-4-.8l-1-.3.1-.7.2-1.2c.1-1-1.3-1.7-1.6-.9-.6 1.7-.7 1.8-1.1 1.7-.6-.1-1.9-1-1.9-1.2l1.6-3.2c.1-.2.5-.1 1.9.6m-22.6.6c1.2.7 2.3 2.5 2.6 4.2v.7H69l.3-.4c.8-1.4 1.3-.5 1.3 2.3 0 1.8.1 1.7-3.1 1.6h-2.8l-.1-2v-2.2c.2-.3-.2-1.7-.7-2.5-1.8-2.7-5-2.2-6.4 1-.3.6-.3 1.6 0 1.7.1 0 .1 0 0 .2-.2 0-.2.8-.3 2v1.8H38l-1.3-1.4c-1.6-1.8-1.7-1.8-1-2 .2 0 .5-.3.5-.4 0-.8 1-.9 1.2-.1l.2.5H41c1.8 0 3.3 0 3.3-.2 0-.8 1-1 1.4-.3l.2.5H52.1l.3-.5c.3-.7 1-.7 1.2 0 .4 1.2 2.7.6 2.7-.7 0-2.9 4-5.2 6.6-3.8m-46 1l-2.6 1.2c-2 1-2.8 1-2.8.4l-.3-.1c-.5 0-.5.2.4 2 1 1.8 1.5 2.2 1.3.9-.1-1.2.3-1.6 3.4-3.2 2.6-1.2 4.7 0 4.1 2.6-.4 1.8-5.3 4-6.3 2.8-.8-.8-.8.2 0 1.4l1 2c.6 1.3 1 1.4 1 .1 0-1 .2-1 3-2.5.8-.4 1.8-1 2.2-1.4l.7-.7v-1.3c-.2-3.2-2.7-5.3-5.2-4.2m45.2.4c1.1.6 1.6 2 .7 2-.6 0-.8.3-.7 1.1 0 1 .2 1.2 1 1 .4 0 .5 0 .5.5.2.8 0 .8-2.7.8h-2.6v-.5c0-.5.2-.8 1-.8.5-.1.5-.1.6-1 0-.9 0-.9-.8-1-.6-.2-.6-.6-.2-1.2.7-1 2.1-1.5 3.2-1m17.4 1l3 1.5c1 .4.1.4-.8 0l-1.8-.8c-1.2-.5-1.8-1-1.8-1.2 0-.3.3-.2 1.4.5m42.5-.3l-.7 1.2a23 23 0 0 1-1 1.9c-.8 1.1-.6 2 .2 1 .5-.5 1.3-.4 3 .5 4.4 2.4 4.4 2.3 3.2 3.5-.7.7-.8.7-1.5.6-1.4-.2-1.2.4.3 1 1.6.7 1.8.7 1.8.2 0-.7 2.5-5.4 3.3-6.2.7-.8.6-.9-.3-1.5l-1.2-.8c-.7-.6-1 .1-.3.9.5.6.6 1.3.2 2-.4.8-.6.8-1.6.2l-2-1c-2.8-1.6-3.3-2-3-3 .2-.4-.1-.8-.4-.5m-4.6 1.2a47.5 47.5 0 0 1-9.4 11.9 56.2 56.2 0 0 1-4.7 4c-4 2.8-3.7 2.9-3.7-.6v-2.6l.5-.3c3.8-2.7 9-8 11.2-11.5.8-1.2.6-1 3.5-1.1 2 0 2.5 0 2.6.2M30 121h1l.5.7c2.2 3.3 8.2 9.4 11.5 11.5 1 .7 1 .7.8 2.7l-.2 2.4c0 .9-.1.9-1.5 0A54.8 54.8 0 0 1 26 121.7c-.6-1-.5-1 1.3-.9l2.7.1m28.2 1h-.4c-.2-.2-.1-.3.2-.3.3 0 .4 0 .2.2m20.5 3.2v.7h12.7l12.8.3c.3.2-5 4.7-7.7 6.5a48.9 48.9 0 0 1-23 7.3h-1.3v-15.5h6.4v.7m-15 .5v2.2h3.3l3.3.2.1.5c.2.7.2 11 0 11.2a34.5 34.5 0 0 1-16-3 55.1 55.1 0 0 1-13.8-8.6c0-.2 2-.2 8.8-.3H58v-2.6h2.7c2.7 0 2.7 0 2.8.4M94.2 137l3 1.7c1.2.6 1.3.9.8 1l-.5.3a56.2 56.2 0 0 1-25.3 6.9c-.1-.2.2-1 .8-2.2l1-1.8.6-.9h1.3a48.8 48.8 0 0 0 16.6-4.6c1.4-.7 1.3-.7 1.7-.4m-42.4 1.1l1.6.7 6.3 2c2.5.6 5.8 1.1 7 1.1 1 0 1.4.2 1.5.5l1.2 2.2c1.4 2.4 1.4 2.4-.3 2.2a50.7 50.7 0 0 1-24.3-7c0-.6 4.7-2.7 5.3-2.4l1.7.7m37.7 10.7a83 83 0 0 1-3.2 1c-1.2.4-1.3.8-.2.8.6 0 1.2.9 1.9 3 1.1 3.5 1.1 3.8.3 4.4-1 .8-.2.8 2 0l5-1.5c.4-.1 0-3.1-.5-3.1-.1 0-.3.2-.3.6-.2 1.3-.6 1.8-1.6 2.4-1.4.6-2.1 0-2.7-2.2-.2-.8 2-1.3 2.6-.6.3.4.7.5.7.1l-.9-2.8v-.4c.5-.4.2-2.6-.4-2.5-.2 0-1.4.3-2.7.8m-38.7-.5c-3.9 1.5-4.2 6.7-.6 8.6 1.3.6 2.2.9 3.3.9h1.1l.7-1c1.2-1.6.9-2-.6-.9-3.5 2.8-6.8-2.2-3.7-5.6 2-2 5-1.3 5 1.3 0 1.4.6 1.2 1-.3.4-1.3.4-1.3-.4-1.8-2-1.3-4.2-1.7-5.8-1.2m41.2 1.5c.8 1-.2 2.5-1.7 2.7l-.6.1-.4-1.1c-.4-1.5-.4-1.7.4-2 1.1-.3 2-.2 2.3.3m-33.5.6c-.3.3-.3.2.4.6.6.3.9 1 .7 2l-.3 1.5c-.4 2.7-.4 3-.6 3.4-.2.2-.6.5-1 .6-1 .3-.4.7 1.4.9l1.9.2c1.3.3 1.9-.4.6-.7-.6-.2-.8-.7-.7-1.9.2-1.6.2-1.6 2.4-1.3 2.4.3 2.3.3 2 1.7-.2 1.5-.5 1.8-1.3 2-1.3.2-.9.6 1 .8l1.9.2c1.5.3 1.9 0 1-.5-.8-.5-.9-.7-.6-3.1.4-3.3.8-4.3 1.5-4.4.7-.2 1-.6.5-.7l-3.1-.4-1-.2a.4.4 0 0 0-.5 0c-.3.3-.3.4.4.7.8.4 1 1 .7 2.3-.2 1-.2 1-1.2.8l-2-.3c-1.4-.2-1.5-.3-1-1.9.2-.8.6-1.3 1.1-1.3 1.7 0 .8-.6-1.3-.9l-2.2-.3c-.3 0-.5 0-.7.2m21 .6c-.5.2-1.3.3-1.7.3-1.4 0-1.9.5-.7.7 1 .2 1.2.8 1.6 4l.2 1.9c.2.9-.1 1.5-.7 1.8-1.1.4-.5.9.7.6l4.5-.7c2.2-.3 2-.3 2.2-1l.2-1.3c.3-1.1-.2-2-.6-1-.5 1.7-1.8 2.7-3.3 2.6-1 0-.9.1-1.3-3.1-.6-3.7-.6-3.9.6-4.5 1-.5 0-.6-1.6-.3m-4.8.4l-2.2.1c-2.4 0-2.9.2-1.7.7.8.3.8.3 1 2 .5 2.7.2 5-.6 5.4-.9.5-1.1.8-.6.9H75c.9 0 .9-.5 0-.8-1-.2-1-.5-1-3.8 0-3.4 0-3.7 1-3.8.5-.2.7-.6.2-.7-.3-.1-.3-.1-.4 0"/>
</svg>
