<svg xmlns="http://www.w3.org/2000/svg" width="394" height="285.3" display="block">
  <g fill-rule="evenodd">
    <path d="M5.3.3C5 .5 5 .8 5 1c0 .3-.1.6-.3.7-.2.2-.3.7-.3 1.5 0 1.3.1 1.5 1.4 2a60 60 0 0 1 1.7.7c.2 0 .5 0 .5.2s.3.3.6.3c.2 0 .4 0 .4.2s.2.3.3.4c.4.1 1 .4 1.5 1l.7.3c.2 0 .5.3.7.6.2.2.5.5.7.5 0 0 .2 0 .2.2l.4.2c.3.1.5.3.5.4 0 .1 0 .2.2.2s.4.3.6.7c.1.4.5.8.7 1l.4.8c0 .2.1.4.3.4l.2.8c0 .4.1.6.3.7.2 0 .3.3.3.6s0 .5.2.6l.1.6.2.7.4 1.8c0 .9.2 1.7.3 1.8.1.1.2 24 .2 80.9a2631.2 2631.2 0 0 0 .5 81.8c0 .4.1.7.3.8l.2.4c0 .3.6 1.4.8 1.5l.1.4c0 .2.1.4.3.4.2 0 .3.1.3.4 0 .3 0 .5.2.6.2 0 .3.3.3.5s0 .4.2.4.3.2.3.5c0 .2.1.4.3.5l.2.3c0 .2.1.3.2.3s.2.1.2.3l.5.8.6.7s0 .2.2.2a51.6 51.6 0 0 0 7.8 7.8c.2 0 .7.5 1.2 1 .5.6 1.1 1 1.3 1 .2 0 .4.1.4.3 0 .1.1.2.3.2l.2.3c0 .2.1.3.3.3.1 0 .3 0 .3.2s.2.3.4.3.4.1.5.3l.7.2.3.2.4.2.5.2c.1.2.3.3.6.3s.4.1.4.3c0 .2.2.2.6.2.3 0 .5.1.5.3 0 .2.2.3.4.3s.5 0 .7.2c0 .2.3.3.5.3s.4 0 .4.2l.7.2c.3 0 .7 0 1 .2.1.2.7.3 1.2.3.6 0 1 0 1 .2s.4.3 1 .3c.8 0 1 0 1 .3 0 .2.3.2 1 .2s1 .1 1.3.3c.2.2.6.3 1.9.3l1.8.1 17.1.3a196.1 196.1 0 0 1 18.7.5c1 0 1.3 0 1.3.2.1.2.4.3.9.3s.7 0 .7.2 0 .3.2.3l1 .7 1 .7c.1 0 .2.1.2.3l.3.4.3.6.1.3.5.7c.2.4.4.7.6.7l.2.4.2.6c.2 0 .3.2.3.3 0 .2.1.3.3.4l.2.4c0 .6 1.2 1.5 2.1 1.5.7 0 1 0 1 .2l.1.3.4.5c.2.6.8 1.4 1.1 1.4.2 0 .3.1.3.3.2.3 1.2.3 1.3 0 0-.2.2-.3.4-.3l.2-.2c0-.2.1-.3.2-.3l.5-.7.5-.7c.1 0 .2-.2.2-.5 0-.4.1-.6.3-.6l.3-.2.1-.3c.2 0 1-.6 1-.8 0-.1.4-.7 1-1.3.7-.6 1.2-1.2 1.2-1.4 0-.2.6-1 .9-1 0 0 .2 0 .2-.2l.2-.2c.2 0 .3-.1.3-.3l.7-.5.7-.5s.1-.2.3-.2c.1 0 .2 0 .2-.2s.2-.3.8-.3c.4 0 .7 0 .8-.3 0-.1.3-.2.8-.2s.6 0 .6-.3c0-.2.3-.2 1.3-.2a216.2 216.2 0 0 1 19.8-.5 422.8 422.8 0 0 0 19.6-.4c.7 0 1-.1 1-.3.1-.2.4-.3 1-.3.7 0 1 0 1-.2.1-.2.4-.3 1-.3s1 0 1-.3c0-.1.3-.2.8-.2.3 0 .7 0 .7-.2l.4-.3.7-.2.8-.3c.3 0 .5-.2.5-.3l.5-.1c.2 0 .5-.1.5-.3 0-.1.3-.3.6-.3.2 0 .4 0 .5-.2 0-.2.3-.3.5-.3.3 0 .4 0 .4-.3 0-.1.2-.2.5-.2.2 0 .6-.2.8-.5l.7-.4c.2 0 .4-.1.4-.3l.4-.2c.1 0 .2-.1.2-.3a29.5 29.5 0 0 0 6.2-6.3c.3 0 1.2-1 1.4-1.5l.2-.4c.1 0 .2-.1.2-.3 0-.1 0-.2.2-.2s.3-.2.3-.4.2-.6.5-.9l.6-.6.4-.8.4-1c0-.2.2-.4.3-.4.1-.1.3-.3.3-.5s0-.4.2-.5l.3-.5c0-.2.1-.5.3-.7l.2-.9c0-.3.2-.7.3-.8.1-.2.3-.7.3-1.1 0-.5 0-.8.2-.9.2 0 .2-16.1.2-79.6a6938.6 6938.6 0 0 1 .4-81.5c0-1.4 0-1.7.3-1.7.2 0 .3-.2.3-.7 0-.4 0-.8.2-1 .2-.1.3-.4.3-.7 0-.2.1-.5.3-.7l.2-.8.2-.5.3-.5c0-.3.2-.5.2-.5.1 0 .2-.2.2-.5s.1-.4.3-.4c.1 0 .2-.1.2-.3l.3-.2.3-.3c0-.2 0-.3.2-.3s.3 0 .3-.2c0-.1.3-.4.7-.6l1-.7.7-.4.4-.3.3-.2.2-.3c0-.2.2-.3.5-.3.2 0 .5 0 .6-.2l.6-.5c.3 0 .8-.3 1-.4.3-.2.8-.3 1-.3.3 0 .6-.1.8-.3l.6-.2c.3 0 .4-.1.4-.3 0-.2.3-.2 1.3-.2s1.4 0 1.4.2.3.3.4.3c.3 0 1 .6 1 .9l.2.1.6.5.6.4s.2.2.2.5.1.6.4.9l.4.7.3.8c.2.3.3.7.3 1 0 .3 0 .6.2.8.2.2.3.6.3.8 0 .3.1.6.3.8l.2 1.2c0 .5.1 1 .3 1.1.1.2.2 16.7.2 81a7202 7202 0 0 0 .4 81.7c0 .5.1.8.3.9l.2.6c0 .4.2.7.3.8l.3.6c0 .2 0 .4.2.4.2.1.3.2.3.4 0 .3.5 1.3.7 1.3l.2.3.1.7a65.4 65.4 0 0 1 1.2 2c.2.1.3.3.3.5s0 .4.2.4.3 0 .3.2 0 .3.2.3l.2.4c.1.5 1.6 2 1.9 2l.2.3c0 .2 0 .3.2.3l.1.3.6.8.5.7.3.1.2.3c0 .2.1.3.3.3.1 0 .2 0 .2.2s.2.3.3.3c.2 0 .3.1.3.3 0 .1 0 .2.2.2s.3.1.3.2l.4.3c.3 0 .5.2.5.3l.2.1c.2 0 .3.1.3.3 0 .1.1.2.3.2l.3.3c0 .2.2.3.4.3.1 0 .7.4 1.2 1 .6.5 1 1 1.2 1l.1.2c0 .1.2.2.5.2s.4.1.4.3c0 .2.1.3.3.3.1 0 .3 0 .3.2s0 .3.2.3.3 0 .3.2l.4.3c.3 0 .5.1.5.2s0 .2.2.2l.4.2c0 .2.3.3.5.3.3 0 .5.1.5.3 0 .1.1.2.4.2.2 0 .5.2.5.3.1.2.3.3.4.3l.8.3c1 .5 1.2.6 1.5.6.2 0 .5 0 .6.2.1.2.5.3 1 .3s.8 0 .8.2c0 .3.2.3 1 .3.7 0 .9 0 .9.3 0 .2.2.2 1.1.2.8 0 1.2.1 1.4.3.1.2.6.3 1.6.3l1.4.1 18.2.3a225.2 225.2 0 0 1 20 .5c1.2 0 1.5 0 1.5.2s.2.3.7.3c.4 0 .7 0 .7.2.1.2.3.3.5.3s.4.1.5.3l.3.2c.2 0 .3.2.3.5s0 .4.2.4.3.1.3.2l.4.6c.5.5.8 1 1 1.4 0 .2.2.3.3.3l.2.2c0 .2.2.3.3.4l.3.3.4.7.5.6.5.8.5.8c0 .2.1.3.3.3.1 0 .2 0 .2.2 0 .3.2.3 1 .3.8-.1.9 0 1 .3 0 .2.1.5.3.5l.2.3c0 .2.1.3.3.3.1 0 .2 0 .2.2 0 .4 1.2 1.2 1.8 1.2.4 0 1.6-1 1.6-1.5 0-.2.1-.4.3-.5l.2-.4c0-.1.2-.5.5-.7.2-.3.4-.7.4-1 0-.1.1-.3.3-.3.1 0 .2-.1.2-.3l.3-.3c.1 0 .3-.2.3-.4l.5-.8c.3-.3.5-.6.5-.8 0-.3.4-.8.7-.8.1 0 .2 0 .2-.2s.1-.3.3-.3c.1 0 .2-.1.2-.3 0-.1.1-.2.3-.2.1 0 .3-.1.3-.3 0-.1 0-.2.2-.2s.3-.1.3-.3l.7-.5.7-.5.4-.2c.3 0 .5-.2.5-.3 0-.1.2-.2.5-.2.4 0 .5 0 .5-.3 0-.1.2-.2.7-.2.4 0 .6-.1.7-.3 0-.2.4-.2 1.3-.2a231.5 231.5 0 0 1 20.1-.5 424.3 424.3 0 0 0 19.6-.4c.7 0 1.1-.1 1.3-.3.1-.2.6-.3 1-.3.6 0 .9 0 1-.2 0-.2.3-.3.7-.3.4 0 .8-.1 1-.3l.8-.2a3 3 0 0 0 1.1-.3l1-.2.6-.2.5-.2.6-.3.6-.2c.2 0 .4-.1.5-.3 0-.1.3-.3.5-.3s.5 0 .5-.2c.1-.2.3-.3.5-.3s.4-.1.4-.3l.3-.2c.4 0 1.4-.6 1.4-.7 0-.1 0-.2.2-.2s.3-.1.3-.3l.4-.2c.3 0 .5-.1.5-.3l.2-.3c.2 0 .4 0 .5-.2.1-.2.3-.3.5-.3s1.8-1.5 1.8-1.8l.3-.1c.1 0 .2-.1.2-.3 0-.1.1-.3.3-.3.1 0 .2 0 .2-.2s.1-.3.2-.3c.4 0 1.3-1 1.3-1.5 0-.2 0-.4.2-.4s1.3-1 1.3-1.3l.5-.7.4-.8.3-.3c.1 0 .3-.3.3-.5 0-.3 0-.5.2-.5.2-.1.3-.3.3-.5s.1-.5.3-.7l.2-.7c0-.2.1-.4.3-.5l.2-.5.2-.4.3-.6c0-.3.2-.5.3-.5l.1-.7c0-.5.1-.7.3-.7.2 0 .3-.2.3-.5s0-.6.2-.8c.2-.2.3-.6.3-1 0-.3.1-.8.3-1 .2-.3.2-10.1.2-79.6 0-46.6 0-79.3.2-79.3l.3-1.4c0-.7.2-1.3.2-1.3l.2-1c0-.6 0-.9.3-1 .1 0 .2-.3.2-.7 0-.3.1-.7.3-.8l.3-.6c0-.2 0-.6.2-.9.2-.2.3-.6.3-.7l.4-.8a22.5 22.5 0 0 1 4-4.1c0-.1.1-.2.3-.2l.3-.3c0-.2.3-.3.4-.3l.8-.4c.2-.3.5-.5.7-.5.2 0 .4 0 .4-.2s.3-.3.5-.3c.3 0 .5-.1.5-.3l.6-.2c.3 0 .4-.1.4-.3 0-.2.2-.2.5-.2s.6-.2.7-.3c0-.2.2-.3.3-.3.6 0 1-.5 1-1.5v-1L388 3.5a24.5 24.5 0 0 1-2.6-3.2C385 0 5.6 0 5.3.3M82.6 13a3397.9 3397.9 0 0 1 18.3 18c.1 0 6.5-6.2 14-13.8l13.9-13.9h7.3c7.1 0 7.4 0 7.6.3l.1 7.7v7.3L132 30.3a552.3 552.3 0 0 0-11.8 12l11.8 12L143.8 66v7c0 5.3 0 7.1-.2 7.3-.1.1-2.1.2-7.7.2h-7.6l-13.6-13.6A670.1 670.1 0 0 0 101 53.3L87 67 73.3 80.5h-7.6c-7.3 0-7.6 0-7.8-.3-.4-.8-.2-13.8.2-14.4l11.8-12 11.5-11.6-11.6-11.7-11.8-12c-.3-.5-.4-14.4 0-15 0-.3.4-.3 7.4-.3h7.4l9.8 9.7m-26.8 67c0 68.7.1 76.1.4 77 1.8 7 3.8 9.2 10.1 11.5l1.8.7h67l1.7-.8c3.2-1.3 6.2-3.6 7-5.2a21 21 0 0 0 1.3-3.6c.7-3.2.7 0 .7-79.5 0-68.6 0-75.7.3-76 .3-.3 42.4-.4 42.9-.1.3.2-.2.7-2 1.8a14 14 0 0 0-6.4 8.9 54.6 54.6 0 0 1-.6 2.7l-.3 1.4c-.3.8-.3 5.6-.4 81V180l-.5 1.2c-3 9-12.5 18.1-20.2 19.8l-.6.3-.4.2c-.2 0-.8 0-1.3.2l-1.4.5-17.6.1a409 409 0 0 0-17.6.2l-2.5.4c-6.7.6-11 3.1-15.2 9-1.3 2-1.2 2-2.8-.3a19 19 0 0 0-15.8-9l-17.8-.3a101.5 101.5 0 0 1-22-1l-1.7-.6a29.6 29.6 0 0 1-14-9.5 28.8 28.8 0 0 1-5.6-9.9c-.3-.5-.3-7-.3-80.7 0-66.3 0-80.3-.2-81.2C21 16 20 12.6 19.3 11a15 15 0 0 0-5.7-6c-1-.7-1.2-1-1.1-1.2l21.6-.1h21.6l.1 76m69.7-75.7c0 .5-24.1 24.9-24.6 24.9-.3 0-24.8-24.4-24.8-24.8l.1-.3c0-.1 11.2-.2 24.7-.2h24.6v.4m253.3 0c0 .2-.4.7-1.3 1.3a17 17 0 0 0-5.3 6c-1.2 2.4-2 5-2.7 9-.1.5-.3 7.7-.3 18l-.1 17H211.9l-.1-18.4a147.9 147.9 0 0 0-.7-20.2l-.2-.7-.5-1.6c-1-2.9-2.2-5.2-4-6.9-1-.9-3.7-3-4-3-.2 0-.3-.7-.1-.8.7-.2 176.5 0 176.5.3m-139.6 6.5a226.7 226.7 0 0 1-3.8 5.5c-.9 1.4-.6 1.3-5.1.5l-3.8-.7c-1.2-.3-1.3-.2-1 .8l.2 1.4c0 .3.1.9.3 1.3l.2 1.4.2.8.3 1.1.2 1.6c0 .6-.1.8-4.6 3.8-3.3 2.2-3.2 2-1.4 3.3l1.8 1.4c.4.5 1.5 1.3 2.3 1.8.9.5 1.6 1.1 1.7 1.3a24.2 24.2 0 0 1-1 6.4c0 .4 0 1-.2 1.3-.3.8 0 1 1 1 1.2-.3 1.3-.2 1.2.9l-.1 1 .9-.1 1.1-.3 1-.2c.4 0 1 0 1.2-.2l1.7-.3 1.7-.3c.7-.1.4-.5 3.6 4.1.4.7 1 1.2 1.3 1.4.3.1.8.5 1 1 .7.8.7.8 1.7-.6l2.1-3c2.3-3.4 2.1-3.3 4.2-2.8a59.8 59.8 0 0 0 5.6 1c1 .3 1.4.2 1.3-.4a244.3 244.3 0 0 1-1.2-6.5c-.3-1.7-.2-2 1-2.8l5.8-4c.4-.4.2-.5-.9-1.3-.2-.2-.4-.4-.4-.6 0-.5-2.7-2.5-5-3.9-.7-.4-.8-1-.4-2.2l.3-1.5.1-1c.4-1.4.8-3.7.6-3.8 0-.1-.4-.2-.7-.1-1 .1-1.1 0-1-1.3l.1-1.1-.6.1L248 17c-2.2.5-2.6.4-3.5-1l-.5-.8a327.9 327.9 0 0 1-4-5l-.3-.4-.5.9m101.5-.6a86.2 86.2 0 0 0-5 7c-.2.3-.2.3-1.7 0a68 68 0 0 0-5.2-1l-1.8-.2-.6-.1.1.6a35 35 0 0 1 .5 2.8l.3 1.4.4 2 .2 1.6.2.7-1.1.8a155 155 0 0 1-6.1 4.3l-.4.4 1.2.8a17 17 0 0 1 1.8 1.4c.3.4 1.1 1 1.8 1.5l1.8 1.2.6.6c.2.2 0 2-.2 3.1a54.3 54.3 0 0 0-1 5v.7h1.2l1.3-.2-.2 1c-.1 1 0 1.1 1.2.9.4-.2 1.3-.3 1.9-.4a6 6 0 0 0 1.2-.2l1.4-.3 1.8-.3.7-.1 1.6 2.4c1.9 2.8 2.3 3.3 2.6 3.2l1 .8c.9 1 .8 1 2.3-1.2 4-5.8 3.6-5.4 4.9-5.2a63.8 63.8 0 0 0 4.6 1c.5 0 1.4.1 1.9.3 1.3.2 1.4.1 1-1.3a47 47 0 0 1-.5-3.3 34.4 34.4 0 0 0-.6-3.2c-.3-1-.3-1 5.8-5.2 1.6-1 1.6-1.1.6-1.9-.4-.3-.8-.7-.8-.9 0-.3-.9-1-3-2.5-.9-.5-1.8-1.2-2.1-1.5l-.6-.5.2-1.2.5-2.1a7 7 0 0 0 .2-1.5l.2-.8.2-1.3v-1H355.4v-2.4l-.5.1a100.3 100.3 0 0 1-5.4 1 6 6 0 0 1-1.6.3h-1.2l-.7-.9a49.4 49.4 0 0 1-2.4-3.3l-1.7-2c-.8-1-.8-1.1-1-.9m-51 .8a100.6 100.6 0 0 1-3.6 5.2c-1 1.4-.9 1.4-2.7 1a680.2 680.2 0 0 0-6.2-1.1c-1.3-.3-1.3-.3-.6 3.4l.9 4.5c.2 1 .1 1.1-1.1 2a136.2 136.2 0 0 0-4.5 3c-2 1.4-2 1.4-.8 2.2.6.4 1.4 1 1.8 1.5l2 1.6c3 2 2.8 1.5 2.1 4.8a165.1 165.1 0 0 0-.8 4.4c-.2 1.2-.2 1.3 1.1 1.2h1v.8c-.2 1.1 0 1.3 1.3 1a120.2 120.2 0 0 0 5.6-1c1.3-.4 1.2-.6 4 3.7 1 1.3 1.3 1.7 1.7 1.7.2 0 .5.3.8.7.7 1 .9 1 1.8-.4 1.1-1.8 3.3-4.8 3.8-5.5.5-.6 1.6-.7 2.4-.3l1 .2 1.4.2 1.3.3 1.6.3c1.7.4 2 .2 1.5-1.2l-.3-1.6-.1-1c-.4-.7-1-4.6-.7-5a228.6 228.6 0 0 0 7.1-5.1l-.8-.8c-.6-.4-.9-.7-.9-1 0-.5-.3-.8-3.5-3l-2-1.2v-.7l.2-1.3a35 35 0 0 0 1-5.3c.4-.8.2-1-.8-1l-.8.1v-2.4l-.7.1a44.4 44.4 0 0 1-3.1.6l-1 .2-1.6.3c-2.3.6-2.3.6-4.7-3a6 6 0 0 0-1-1.3 7 7 0 0 1-1.2-1.4c-1-1.5-1.2-1.6-2-.4M242 15c2.2 3.3 2.3 3.4 2 4l-.4.7c0 .1 0 .5-.2.7l-.4 1-1 2.4c-1 2.6-1.1 2.8-1.6 2.8-1.1.2-1.2 0-2.1-2.2a205.2 205.2 0 0 0-2-4.8c-.5-1-.5-1.6-.2-2a24.7 24.7 0 0 0 2.3-3.3l.5-.6.4-.6c.6-.9.9-.7 2.7 2m50.7-.1l1.9 2.7c.3.4.3 1 0 1.7a17.2 17.2 0 0 0-1 2.4 51.7 51.7 0 0 0-1.7 4.1c-.6 1.3-2.4.9-2.4-.5 0-.2 0-.3-.2-.3l-.1-.2-.9-2a70.5 70.5 0 0 1-1.5-3.5c-.4-1-.3-1.5.3-2.2l.6-.6 2.3-3.5c.7-.9 1-.8 2.7 1.9m48.9-2.1c.2.1.3.3.3.5l.1.2c.2.1 2.4 3.4 3 4.3.3.6.3.6-.2 1.6l-.4 1.1-.3.7a25.4 25.4 0 0 0-1.4 3.3l-.3.8c0 .7-.6 1.3-1.3 1.3-.8 0-.8 0-2.2-3.4a513 513 0 0 0-1.5-3.6c-.6-1-.4-1.8.5-3l1.5-2.3c1.4-2 1.5-2.1 2.2-1.5M37 18.2c-1.1.6-1.4.7-3 .8-2 .2-2.1.2-3 4.1-.2 1.6-.5 2-1.8 3.4-3.4 3.6-3.8 5.9-1.5 8 .7.8 1 1 1 1.5 0 1 1 2.7 1.7 3.2.4.2.9.6 1 .9.7 1.1 1.2 1.3 3.4 1.3h2l.9.7c2.3 1.9 4 2 6.4 0 1-.8 1-.8 2.4-.8 2.8 0 3.6-.6 4.4-3.5.2-.7.6-1.3 1-1.8 1.8-1.9 1.8-3.6 0-5.7-3-3.5-3.2-3.9-3.5-5.7l-.8-3c0-.2-.4-.4-.7-.5-.5 0-.6-.2-.7-.7-.2-1.1-.5-1.3-2.7-1.5-1.4 0-2-.2-2.3-.5-1.5-1-2.6-1.1-4.2-.2m123.8 0a6 6 0 0 1-3 .8c-2 .2-2 .2-2.7 3.2l-.3 1.3-.3 1c0 .3-.6 1-1.1 1.6-3.9 4.2-4.4 6.8-1.8 8.6.6.4.7.6.7 1s0 .7.2.8l.2.6c.2.8 1 1.9 1.6 2.2l1.2 1.1c.5.7.8.9 1.5 1l1.1.4.8-.1c1.2-.4 1.8-.3 2.5.4 2 2 4.4 2 6.6 0 .7-.7.8-.7 2.4-.7 2.5 0 3.5-.7 4.2-3l.3-1.2c0-.1.3-.6.8-1 2-2.2 1.8-4-.5-6.5a22.4 22.4 0 0 1-2-2.5 10 10 0 0 1-1-3l-.7-2.6-.8-.3c-.5-.3-.7-.5-.8-1-.1-1-.3-1-2.5-1.3-1.5-.2-2.1-.3-2.5-.6a6 6 0 0 0-2.4-.9l-1.7.7m68.2-.5l1.6.3c1.6.3 3.1.6 3.5.8.4.2.5.3 1.7 3.3l1.1 2.7c1 2 1 2.4.5 3-.3.3-1.1.4-1.6.1a17.4 17.4 0 0 0-2.5-1 89.1 89.1 0 0 0-3.8-1.6c-.8 0-1.3-1-1.7-3.5l-.4-2.4c-.4-2-.2-2.2 1.6-1.7m23.4.6c0 .6-.3 2.6-.9 5.4-.1.8-.6 1.3-1.6 1.7a48.7 48.7 0 0 0-6 2.5c-.6.3-1.2.2-1.6-.2-.4-.5-.4-.6.3-2.2a389 389 0 0 0 1.5-3.8c1-2.5 1.4-3.1 2-3.1l4-.8c2-.4 2.3-.4 2.3.5m28.1-.4l1 .1 1.4.3 1.4.3c.5 0 1.4.9 1.4 1.3l1.4 3.5c1 2 1.4 3.4 1.4 3.7 0 .8-1 1.3-1.9.8l-1-.4a70.3 70.3 0 0 1-5-2.1c-1.2-.5-1.5-.7-1.6-1.6l-.4-2.2c-.9-4.2-.6-4.7 2-3.7m22.5 0c.2.2 0 1.8-.3 2.9l-.2 1c0 1.2-.8 3.3-1.2 3.3l-1 .4a74.3 74.3 0 0 1-5.6 2.3c-2 1-2.4-.3-1-3.3a133.7 133.7 0 0 0 1.6-4.1c0-.5.7-1.7 1.1-1.7l1.7-.4c4.5-1 4.7-1 5-.5m27.6 0c.3.2.7.2 1 .2l1.4.3 1.4.3c.6 0 1 .5 1.7 2.2a96.8 96.8 0 0 0 1.9 4.4c1 2.4.4 3.6-1.5 2.6-.8-.4-1.7-.8-2-.8l-.1-.1-.4-.2-.8-.3a19.3 19.3 0 0 0-2.8-1.1c-.4 0-1.3-1-1.3-1.3l-.3-1.5c-1.1-5-.9-5.7 1.8-4.6m22.7.4c0 1.1-.4 3-.6 3.4a3 3 0 0 0-.2 1.1c0 .4 0 1-.3 1.4-.3.6-.5.8-1.9 1.3a82.2 82.2 0 0 0-5.4 2.3c-.7.4-1.2.4-1.6-.1-.6-.5-.6-.5.1-2.1a161.9 161.9 0 0 0 2.4-6c0-.4.8-1 1.3-1l1-.2 1.7-.4 1.8-.3c1.4-.3 1.7-.2 1.7.6m-313 1.4l1.3 1c.4.6 1 .6 1.5 0 .6-.7 1.5-.2 1.8 1 0 .7.3 1.7.8 3.2.1.5.5 1.2.7 1.4a42.8 42.8 0 0 1 2.6 3c1 1.1 1.2 2.5.2 3.5-.6.7-.9.5-2-1.2-1.4-1.8-1.7-2-2.2-1.6-.5.3-.5.3 1.3 2.8 1.7 2.3 1.7 2.3 1 4-.7 1.2-3.6 2-4 1-.4-.7-.7-2-1.1-4.3l-.4-1.4-.1-.7c0-.3-.1-.3-.6-.3-.7 0-.7 0-.2 2.1a103 103 0 0 1 .8 3.8c.7 3.1-3.7 4.4-5.7 1.7-.4-.5-.4-.6-.2-1.7a69.7 69.7 0 0 0 .7-4.3c.3-1 .1-1.4-.5-1.4-.5 0-.5 0-.6.8a29.8 29.8 0 0 1-.6 3.5c-.4 2.4-.4 2.4-1 2.6-2.2.8-4.1-.6-4.1-3a19.8 19.8 0 0 1 2.7-4.4c.3-.5.3-.5-.5-1-.2-.1-.8.6-2.2 2.7-.8 1.1-1 1.2-1.8.5-.7-.7-.6-2.2.1-3l.2-.4 3-3.4.5-1 .2-.8c.1-.2.3-.7.3-1.1 0-.5.2-1 .3-1l.2-.6c0-1.2 1-1.7 1.6-.7.4.7.8.8 1.1.3 1.7-2.3 3-2.8 4.9-1.6m123-.4l.4.1 1.2 1c1 1 1.6 1 2.1.3.3-.4 1.3-.2 1.4.3l.2.7.8 3.2c.1.7.2 1 1 1.8 3.6 3.7 4 4.6 2.8 6-.7.7-1 .7-1.9-.5l-1.5-2-.5-.6-.5.4c-.4.3-.4.7-.1 1a8.6 8.6 0 0 1 1.4 1.9c.6.2 1.4 1.8 1.3 2.6-.2 1.9-1 2.5-2.9 2.6-1.6 0-1.6.1-2-1.9a305.8 305.8 0 0 0-.9-4.3c-.1-.7-.7-1-1-.7-.2.3-.2 2 0 2.3l.4 1.2c0 .6.3 1.6.4 2.3.3 1.6.2 1.7-.8 2.4-1.5 1.2-2.4 1.2-3.8.3-1.3-1-1.4-1.4-.7-5.8.3-1.7.3-2.1.1-2.4-.6-.7-1 0-1.2 1.6-.4 3.6-.8 5-1.5 5.2-1.7.7-3.8-.5-3.8-2.1 0-.3 0-.6-.2-.7-.2-.3 0-.8 1.6-3.1 1.4-2 1.4-2 .8-2.4-.5-.2-.6-.2-1.4 1l-.8 1.1-.2.2c0 1-1.2 1.5-1.8.7-1-1.2-.4-2.7 2.4-5.8l1.3-1.4.5-2.1c.7-3.2 1.4-4.1 2-2.8.3.6 1.2 1 1.3.5.5-1.4 3.8-3.1 4.2-2.1M69.3 31.8a90.1 90.1 0 0 1 10 10.5c-.2 1-20.4 20.7-20.9 20.5-.1-.2-.2-41 0-41.3.3-.3 1.5 1 10.9 10.3m74 12c0 17.5-.1 19-.4 19-.3 0-19-18.4-19-18.8 0-.4 18.8-19.1 19-19 .3 0 .3 3.6.3 18.9m85.4-17.7a79.9 79.9 0 0 1 6 2.5c.2.2.5.3.7.3.4 0 1 .7 1 1.2 0 .7-.3.9-1.7 1.5a142 142 0 0 0-5 2.1c-1.4.8-2.6.4-4.7-1.5l-.3-.2c-.3 0-2.4-1.6-2.4-1.8a15 15 0 0 1 3.6-3l1-.6 1.1-.7s.4 0 .7.2m24 .3l2.7 1.9c2.5 1.6 2.6 2 1.4 2.7l-2.2 1.5c-2.8 2-2.7 2-4.7 1l-3.1-1.3c-2.5-1-2.9-1.3-3-1.9-.2-.6.2-1.4.6-1.4a56.4 56.4 0 0 0 7-2.9c.3-.2.4-.2 1.2.4m29.1.7c5.6 2.2 5.5 2.2 5.5 3.1 0 .6-.1.7-2.2 1.6l-1 .4-1.1.5-1.2.5c-3 1.3-2.8 1.3-4.5 0l-2.3-1.5c-1.5-1-1.8-1.3-1.8-1.6 0-.3.5-.9.8-.9l.3-.1c.1-.3 4.6-3.2 4.8-3.2l2.7 1.2m49.4-.4a127.3 127.3 0 0 1 5.4 2.2c.5 0 1 .7 1 1.3 0 .6-.8 1.3-1.5 1.3a53.9 53.9 0 0 1-5.3 2.2c-1 .5-1.6.6-2 .3a44 44 0 0 1-3.7-2.5c-1.2-.6-1.7-1.2-1.4-1.7 0-.2.3-.4.3-.4l.4-.2 4.3-3c.5-.3.7-.3 2.5.5m22.7-.3a9.9 9.9 0 0 1 1.3 1c.2 0 1 .6 1.9 1.2 2 1.5 2 1.6 0 3l-1.7 1.2c-2.5 1.7-2.2 1.7-4.5.7a527.1 527.1 0 0 0-3.9-1.7c-2.2-1-2.2-1-2.2-1.7 0-.6.4-1.2.8-1.2a63.2 63.2 0 0 0 7.3-3l1 .5m-49.8.4a25.7 25.7 0 0 1 1.6 1.1c3.4 2 3.4 2.2.4 4.1l-1.8 1.2c-1.7 1.2-1.6 1.2-4.6-.1a457.8 457.8 0 0 0-4-1.8c-1.3-.4-1.6-2.4-.4-2.4l.7-.3a112.8 112.8 0 0 1 6-2.4c.6-.3 1.1-.1 2.1.6m-12.5 1c3 1.1 2.3 5.1-.8 5.1-3 0-3.4-4.3-.5-5.2l.7-.2.6.2m51.4.7c2.5 2.3-.9 6.1-3.4 4-1-.9-1.2-1.7-1-2.7.6-2 3-2.7 4.4-1.3M241 28c1 .4 1.8 1.7 1.6 2.9-.3 1.6-2.3 2.6-3.8 1.8-3-1.4-1-6 2.2-4.7m-3.8 4.8c.6.6.6.9 0 2.3l-.6 1.3c0 .1 0 .4-.2.7l-1.3 2.8c-.7 1.7-1.2 2.1-2.7 2.1a5 5 0 0 0-1.4.3l-1.5.3-.9.1c-.2.3-1 .2-1.3 0l.1-1.8.4-2.3c.4-2.4.8-3.3 1.4-3.3l.5-.1a26.6 26.6 0 0 1 3.5-1.5c2.7-1.4 3.4-1.5 4-.9m7-.2a251 251 0 0 1 6.2 2.7c.7 0 1 .6 1.3 2.5l.6 3c.4 1.7.3 2-.5 2a13 13 0 0 1-3.4-.6l-1-.2c-1 0-2.2-.5-2.4-1l-.4-1a4 4 0 0 1-.4-1l-.1-.4-.5-1-1-2.7c-.9-1.5.1-3 1.6-2.3m43.8.3c.7.6.7.7-.5 3.4a93.8 93.8 0 0 0-1.8 4.2c0 .7-1.4 1.5-2.5 1.5l-1.2.2a87.6 87.6 0 0 0-4 .5 23 23 0 0 1 1-6c0-.7.5-1.4 1-1.4a51.5 51.5 0 0 1 5.3-2.2c2.2-1 2-1 2.7-.2m7.2-.2a211.4 211.4 0 0 1 6.1 2.6c.7 0 1 1 1.7 5.4.4 2 .4 2.1-.4 2a16 16 0 0 1-3.5-.5l-1-.2c-.4 0-1-.1-1.4-.3-.7-.2-.8-.3-1.6-2.4l-1.9-4.6c-.8-1.8.2-2.8 2-2m43.2.1c.5.6.5 1 .2 1.8a18 18 0 0 0-1 2.3l-1 2c-1 2.6-1.5 3.1-3 3.1-.4 0-1 .1-1.4.3l-1.5.2-1 .2c-.2.3-1.3.2-1.4 0-.1-.3.3-2.7.6-4.2l.3-1.5c.1-1 .6-1.7 1.1-1.7l.5-.1 1.6-.8a141.7 141.7 0 0 0 4.3-1.8c.9-.4 1.2-.3 1.7.2m7-.2a23.7 23.7 0 0 1 1.7.8l1.4.5c1.1.6 1.4.7 3 1.3.8.4 1.2 1.2 1.2 2.2l.3 1.5.3 1.5c0 .4 0 .8.2.9.5.5 0 1.5-.6 1.5-1 0-2.8-.4-3.4-.6a4 4 0 0 0-1.1-.2c-1 0-2.2-.5-2.3-1a5 5 0 0 0-.3-.9l-.3-.8-.1-.3-.5-.9-.5-1.5c-1.4-3.1-1.4-3-.7-3.8.5-.6.7-.6 1.6-.2M240.6 34a13.2 13.2 0 0 1 1.7 3.7l.4 1 .8 2 .6 1.3-.7 1c-2.5 4-3.1 4.8-3.5 4.8a15.5 15.5 0 0 1-3.3-4.3l-.5-.6c-.4-.5-.4-1 0-1.8a4375.2 4375.2 0 0 1 3-6.9c.3-.3 1.2-.4 1.5-.2m51 .4l.5.7.2.6a77 77 0 0 1 2.1 5.3c.4.7.4 1.3-.2 2l-.6.9a26 26 0 0 1-1.9 2.8c0 .3-.8 1.1-1 1.1-.3 0-.7-.4-1.1-1a71.5 71.5 0 0 0-2.1-3l-1.1-1.6.4-1.1a19 19 0 0 1 1.2-2.8l.5-1.3.8-1.8.3-.7c0-.7 1.6-.8 2 0m50.4-.1c.2.2.3.5.3.7l.3.7.5 1.2 1.3 3.1c1 2.2 1 1.7-.8 4.4l-1.2 1.8c-1 1.5-1.5 1.8-1.9 1.3a41.3 41.3 0 0 1-3-4.5c-.6 0-.7-1.5-.2-2.5L339 37c1.3-3.1 2-3.8 3-2.5M114.6 68.6c10 10 11.4 11.4 11.2 11.7-.2.3-1 .3-23.2.3h-23l-.2-.3c-.2-.3.3-.8 5-5.5l16-15.8c1.4-1.4 2-1.8 2.3-1.8.4 0 2.5 2 11.9 11.4M37.9 58.3c-.4 0-1 .4-1.4.6-.6.5-1 .6-2.5.7-1 0-1.8.1-1.9.2-.1.1-1 3.4-1.3 5.1 0 .2-.8 1.3-1.8 2.3-3.2 3.6-3.6 6-1.3 8 .7.5 1 .9 1 1.2 0 .8.5 2.2 1.2 2.8l1.5 1.5c1.3 1.2 1.7 1.4 3.8 1.4 1.5 0 1.8 0 2.2.3 2.6 2.1 4.6 2.2 6.7.2.6-.5.8-.6 2.5-.7 2.5-.2 4-1.2 4-2.6a6 6 0 0 1 1.4-2.8c2-2 1.7-3.5-1-6.9-1.9-2.2-2.3-2.9-2.6-4.5-.5-2.6-.8-3.3-1.6-3.3-.3 0-.5-.2-.7-1-.3-1.1-.2-1-2.4-1.3-1.7-.1-2-.2-2.7-.7-1-.6-2-.8-3-.5m124 0c-.4 0-1 .3-1.4.6-.7.4-1 .5-2.6.7-2.2.2-2.3.2-2.4 1.2l-.3 1.3a90.4 90.4 0 0 0-.9 3.2 33 33 0 0 1-3 3.5c-.6.5-1.3 2.5-1.3 3.7v1.3l1.1 1 1.1 1.3c0 1.2 1.5 3.9 2.2 3.9.1 0 .5.3.8.7.8 1.2 1.4 1.4 3.7 1.4 1.7 0 1.9 0 2.3.4 2.2 2 4.2 2 6.4.2.9-.7 1-.7 2.2-.7 2.3 0 4.5-1.2 4.5-2.4 0-.1 0-.5.2-.8.2-.2.3-.7.3-1 0-.3.2-.7.8-1.2 1.7-1.7 1.8-3.5.2-5.5l-2.8-3.3c-.2-.2-.5-1-1-2.8-.6-2.8-.7-3-1.4-3.2-.6-.2-.6-.3-.8-1.4-.2-.7-.2-.7-2.4-.8-1.5-.1-1.8-.2-2.7-.7-1-.6-1.8-.8-2.8-.6m207.1 0c.2.2.2 13.7.2 59.9 0 58.7 0 62-.5 62.6l-.2.5c0 .2 0 .6-.2.9l-.3.7a25 25 0 0 1-3 6.1 28.4 28.4 0 0 1-8.5 8.7 55.6 55.6 0 0 1-10.7 4.2 220.9 220.9 0 0 1-18.5.6c-20.2 0-20.6 0-24.1 1a37 37 0 0 1-2.2.6 3 3 0 0 1-.7.3c-1.7 0-6.5 4.5-8.9 8.3-.7 1.2-1 1.2-1.7.3a38.3 38.3 0 0 0-7-7.4 16.5 16.5 0 0 0-6-2.3c-.4 0-.8 0-1-.2-.9-.4-29-.9-35.4-.5a27.6 27.6 0 0 1-11.9-2.4c-4.6-2-8.5-5.3-12-10a114.3 114.3 0 0 0-1.9-2.8 21.1 21.1 0 0 1-2.3-5c-.2-.2-.6-2.5-.5-3.2a19891.6 19891.6 0 0 0 0-120.9c.3-.3 157-.3 157.3 0M39.8 59.8c.5.2 1.3.8 1.7 1.2.8.8 1.4.9 1.8.2.4-.6.9-.6 1.3-.1.3.3.4.6.8 2.6A11.7 11.7 0 0 0 46 66c0 .2.4.8.8 1.2 3.2 3.3 3.9 4.7 2.9 6-.7 1-1 1-2.4-1-1-1.4-1.5-1.8-1.8-1.8l-.6.6a23.5 23.5 0 0 0 2.6 3.6l.6.9-.3 1c-.6 1.7-1.4 2.3-3.2 2.3h-1.1l-.3-.9a27 27 0 0 1-.8-3.7c0-.5-.6-2.5-.8-2.4-.8 0-1.3.6-.8 1 0 0 .2.2.2.5 0 .2 0 1 .2 1.5 1 4.1 1 4.1.3 4.9-1.6 1.5-3 1.6-4.6.3-1.3-1-1.3-.6-.2-6.2.3-1.7.2-1.9-.5-1.9-.5 0-.5.1-.6.9l-.3 1.4-.2 1.6-.3 1.5-.3 1v.5h-1.7c-2 0-2 0-2.6-1.6-.5-1.4-.4-1.7.4-3a128.8 128.8 0 0 0 1.8-2.5c.5-.7.5-.7-.3-1.2-.3-.2-1 .4-1 .8l-.4.6-.8 1.2c-.8 1.3-1 1.3-1.8.6-.6-.6-.7-1.4-.4-2a10 10 0 0 1 1.7-2.7l1.3-1.5c1-.9 1.3-1.4 1.3-2l.1-.5.3-1c0-.5.2-1 .3-1l.2-.7c0-1.3 1.2-1.8 1.6-.7.3.8.9.8 1.3.1.3-.6 2.4-2.2 3-2.3l1 .5m123.8 0l1.7 1.2c.9.9 1.2.9 2 .2.4-.6 1.2-.3 1.3.4l.2.7c.2.5.7 2.4.7 3 .1.7.4 1 3 4 1.2 1.2 1.7 2.5 1.3 3.3-.8 1.6-1.3 1.5-2.7-.4l-1.4-1.8c-.2-.3-1 .1-1 .5a22 22 0 0 0 2.7 3.8c.4.2.2 2-.2 2.6-.6 1-1.3 1.4-2.7 1.4-1.6 0-1.4.2-2.4-5-.4-1.9-.5-2.1-1-2-.5.2-.6 2-.3 2.4l.4 1.2c0 .6.3 1.6.4 2.3.5 2.7-2.2 4.1-4.6 2.5-1.4-.9-1.4-1-.7-5.3.4-2.5.3-3-.2-3s-.8.6-1 1.8c-.4 4.2-.7 5-1.8 5.2-2 .3-3-.3-3.4-2l-.2-.8c-.2-.2.3-1.4.5-1.5.3-.2 2.2-3.2 2.2-3.5 0-.1-.1-.4-.3-.5-.5-.3-.5-.3-2 1.9-1.3 1.7-1.7 2-2.3 1.1-.9-1.1-.2-2.8 2.1-5.4 1.4-1.5 1.7-2 2-2.7a55.2 55.2 0 0 1 .6-3c0-1 1.3-2 1.6-1.2.3 1 1 1.2 1.6.3.5-.7 2.1-2 3-2.2l1 .5M249.8 78c-.2 0-.4.2-.6.5l-.3.4 1.2 1.2c.7.7 1.6 1.4 2 1.6.8.5.8.8.2 1.8l-.4 1.1c0 .5-.5 1.3-1.6 2.4-.5.5-.9 1.2-1 1.4l-.2.7-.2.5c0 .7-.5 1.7-1.3 2.6-1 1-1 2.8 0 3.6l1.5 1.5c1.3 1.4 3.5 2.1 4 1.4l.7-.3c.4 0 .8-.2.8-.3.2-.3 1.5-.1 2.2.3 1.2.7 1.7.8 3 .7 3.6-.3 3.5-.3 4.4.1 1.5.8 2.5 2.2 2.9 4.3.1.7.3 1 1.2 1.9.6.5 1.2 1.3 1.4 1.7.2.4.7 1 1 1.2.9.8 1 .8 1.5 1 2.7 1.4 3 1.7 3 3.2 0 1 0 1.4.5 2.3.6 1 .7 2.2.2 2.8l-.2 1.1c0 .7-.2 1-1 1.9-.8 1-1.2 1.8-1.6 2.8-.3 1-.3 1.1.5 1.3 1 .1 1.6.7 1.6 1.2s.3.7 2 .8c2.3.1 4.5-1.1 4-2.3-.3-1-.2-1.4.4-2 .6-.7.5-.6.2-3.4 0-.5 0-1.3.2-2l.4-1.9c.1-1 1-1.2 1.5-.2.5.9.4 3.8-.2 4.6-1 1.5-1 2.6.1 3.1.4.2.8.5 1 .9.1.3.5.6 1 1l1.3.5c.4.2 1.3.2 1.4 0l.6-.2c1.5 0 2.2-3 1.2-5.2l-.5-1.5c0-.3 0-.6-.2-.7l-.2-2-.3-2.2-.2-1.8-.1-1.6h.5c1-.2 5.7-.5 7.1-.5 1.3 0 2 .3 2 .9 0 .7 3.2.5 4.7-.4a65 65 0 0 1 2-1l1.4-.7.8-.3.5-.1c.2-.2 1.6-.6 3-.7h.8l.5 1 1.2 2c1 1.2 1.3 2.8 1.2 4.5-.3 2.6-1 5-1.8 5-.3 0-1.3 1-2 1.9-.8 1-.9 1.4-.3 1.4l.6.2.8.3c.4 0 .4.1.3.6-.1 1 1 1.3 4 1.3h2.2l.5.6c.6.7 1.2 1 2.2 1.7 1.8 1 5.2-.4 5.2-2.2 0-.4.1-.7.4-1 .5-.4.6-1.4.2-2-.4-.8-.5-3.9-.3-9 0-2.7 0-3-.7-4.3-1.7-3.1-1.7-5.4.1-9.2a8.1 8.1 0 0 1 1.2-1.9l1-1.4c2.7-3.8 3.1-10.3.6-13-.4-.3-1-1-1.3-1.5-.6-.7-1.5-1.2-3.4-2a56.2 56.2 0 0 0-22.9.5c-1.3.3-11 .3-12.7 0-.7-.1-3.5-.3-7.7-.4-3.7 0-7.1-.2-7.7-.3-1.4-.3-5.3-.3-7.3 0s-2 .3-3.2 0c-.8-.3-1.2-.3-2-.1-1 .2-1.1.2-2.3-.4l-1.2-.6-1 .3a6 6 0 0 1-3.8 0 14 14 0 0 1-2-1h-.4m8 2.6c.8.6 2.3.7 3.1.3.4-.2.6-.2 1.3 0 .9.4 3.4.3 5.2 0 1.2-.3 3.5-.2 6 .2 1.4.3 3 .3 8 .4 4.8 0 6.5 0 7.6.3a68.6 68.6 0 0 0 13.2-.3 58.9 58.9 0 0 1 20.5-.6c3.8 1.2 4.5 2.2 4.5 6.1 0 3-.1 3.5-1.6 5.1-1.2 1.2-1.4 1.1-.7-.1 2-3.6 1.8-3.2.8-3-.6 0-.7.1-1.2 1.1-1.3 2.5-5 5.4-7 5.4-1.2 0-3.7-.8-5.6-1.8-1.8-.9-2-1-4-2.3-2.2-1.5-3-1.7-4.8-1.7-2 0-2.1 0-.7 1.3.3.3.5.6.5.9 0 2 1 3 2.6 2.8l1.5-.1c.2 0 1 .4 1.8 1 5.2 3.3 9.6 3.8 13.5 1.3.7-.4 1 0 .5.9-1 2.1-1.5 4.9-1 7 0 .8.1 1 .8 2.2 1 1.6 1 2 1 3.7l-.2 3c-.3 1.4-.2 3 .3 5.7.3 2.4-.1 3-1.5 2l-.5-.4.3-2c.2-2 .1-3.2-.2-5.2-.3-1.6-.6-2.7-1.5-5l-.6-1.8c-.1-.5-.8-.7-1.3-.4-.3.2-.3 1 0 3.3.2 1.3 0 2.8-.3 3.3l-.5 1.3-.5 1.6a11 11 0 0 0-.8 3.1c0 1-.1 1.1-.7 1.4-.3.2-.5.5-.5.8 0 .8-1.6 1.3-2.4.7-.5-.4-.1-1.1.7-1.4.3 0 .6-.2.8-.3.3-.2 1-2 1-2.8l.2-.7c.4-.4.3-5 0-6a9.2 9.2 0 0 0-1.4-2.4c-.4-.2-1-2-1.2-3.3-.2-.9-.3-1.6-.5-1.6a25 25 0 0 0-10.4 2.6c-2.2 1.1-2.3 1.1-2.4.7v-.4h-6.1l-7 .2-.7.2v1l.3 2.7.5 3.5c0 1.2.3 2.2.6 3 .6 1.6.7 4 .2 4.4-1.6 1.2-3.6-.2-2.1-1.4.6-.6.6-.6.5-1.6l-.2-2.4c-.1-1.3-.2-1.5-.8-2.4a11.9 11.9 0 0 1-1.9-3.7l-.5-1.2-.4-1.2-1 1.6a12.6 12.6 0 0 0-1.5 3.9c-.5 1-.9 4.7-.5 5 .4.4.2 1.2-.4 1.9-.7.6-.8 1-.4 2 .3.8-.6 1.5-2 1.5-1.7 0-1.7-.3-.3-2 1.5-1.7 2-5.5 1.1-7.3-.5-1-.5-1.2-.4-2.4.1-1.3 0-1.6-.6-2-3.7-1.9-4.6-2.5-5.1-3.6l-1.3-1.6c-.9-.9-1.4-1.8-1.4-2.4 0-2.8-5.4-7-8.2-6.4-1.7.4-3.2.3-4.1-.2-1-.6-2.3-.8-3.2-.5-1.2.5-2.5.7-3.1.5-1.2-.3-1.7-1.9-.9-2.5.6-.5 1.1-1.4 1.5-2.8.5-1.6.6-1.8 1.7-3 .9-.9 1.2-1.4 1.4-2.5.1-.5 1.6-2 2.2-2.3.6-.2.4-.6-.3-.8-1-.3-1.1-1-.2-1a3 3 0 0 0 1-.3c.8-.4 1.2-.3 2 .2m-157.3 2.6v83.2c-.3.4-32.6.2-33.6-.2l-3.9-1.9c-1-.5-2.3-1.8-2.7-2.7l-.6-1-.5-1.3-.5-1.3-.1-.7c0-.3-.1-.7-.3-1-.3-.7-.4-73 0-73.2.7-.3 42-.1 42.2.1m42.5 36.8c0 30.6 0 37.1-.2 37.9-.7 2.4-.8 2.9-1.2 3.7-.6 1.2-2.6 3-3.2 3l-.3.2-1.7 1-1.8.8h-31.4l-.1-.5c-.3-.6-.3-82.3 0-82.8.1-.3.5-.3 20-.3h20v37m-20.9-31.8c-1 .2-1.7.6-2.6 1.6l-.9.8h-1.7c-3.3-.1-4.8 1.2-5.1 4.4l-.1 1-1 .4c-1 .4-2.3 1.5-2.6 2.4-.7 1.7-.4 5.2.5 5.8.3.2.2.9-.2 1.2-1 1-2.3 3.6-2 4l.3.7c.1.3.2.7.4.8.3.5 1.4 1.5 2 2 .3.3.4.5.3.9a8.3 8.3 0 0 0-.3 3.2c0 .8.2 1 .7 1.5a676.2 676.2 0 0 1 3 2.7c.3.3.4.5.4 1 0 1.3 1 3 1.7 3l.8.8c.7 1 1.4 1.4 3 1.4 1.1 0 1.4 0 1.4.3a63.2 63.2 0 0 1-.6 9.9c0 4.5-2.6 7.9-9.7 12.2-3.6 2.2-3.5 2.1-3.5 2.7.1.7.8.8 1.8.4s1.8-.6 2-.5c.3.2 0 .6-.9 1.2-1.5 1-1 2 .5 1.2l1-.2.5-.2.3-.2.9-.2c1.1-.6 2-.8 2-.7.3.2.2.7-.2 1.4-1 1.5-2.4 4.3-2.4 4.5 0 1 1 1 1.8.1 1.4-1.4 1.7-.7.5 1.3-.4.7-.4.7-.1 1 .4.5.5.5 1.6-.6a40.4 40.4 0 0 0 6.7-7.4l1-1.1c.8-1.1 1-1.1 1.7-.3l5.1 5c.9 0 1-.5.1-2.7-.9-2.6-.8-3 1-2 1 .6 1.3.8 2.5 1.3a18 18 0 0 1 1.7.8c.1 0 .5 0 .8.2 3 1.3 5 .9 2.8-.6-.4-.3-.8-.7-.8-1 0-.3-.3-.6-2-1.9-3.3-2.4-4-3-5.3-4.3a9.2 9.2 0 0 1-3-6.5l-.2-1.2c-.2-.1-.3-2.5-.3-6.2-.2-6.9-.2-6.8 1-6.5 3 1 4.6 0 5-2.7.3-1.5.3-1.4 2.1-1.8 2.8-.6 3.9-2.6 3-5.4-.6-1.4-.5-1.4.3-2 3-1.8 3.1-6.5.3-9-.4-.4-.4-.7 0-1.3.7-1 1-1.8 1-3.1.2-2-.1-2.4-3-5.7-.5-.4-.8-1-.8-1.2 0-.5-.6-1.5-1.4-2.4l-1.5-1.5c-.9-1-2.8-1.1-4.3-.5-.2.1-.6 0-1-.6a7.1 7.1 0 0 0-6-1.6m3.1 1.7c1.2.4 2.3 1.4 2.3 2 0 1 .3 1 1.7.2 1.5-1 2.4-1 3.4 0 .4.3.5 2.4.2 3-.3.5 0 .7 1 1 3.4.8 4.3 3.7 2 6.5-1 1.2-1 1 0 2 1.6 1.5 2 2.5 2 4 0 1.8-1 3.5-2 3.5-1.3 0-1.6 1-.8 2.9 1.3 2.8.3 4.3-2.9 4.3-2 0-2 0-2 2.3 0 2.8-1 3.2-4.2 1.7-1.6-.7-1.5-.7-1.7 2.3-.1 2.7.2 12.3.4 14.2.5 3.4 2.8 7 6.4 9.7 2 1.6 0 1.3-2.2-.3-1.2-.9-2.1-.3-2.2 1.3-.1 1.3-.4 1.3-1.2-.1-1.8-3.3-3-3.2-5.7.2l-1.7 2.3c-2.3 3-2.2 2 0-1.4 2.4-3.3 1.8-4.6-1.4-3.3-1.6.6-1.6.4.2-1.2a12.5 12.5 0 0 0 3.6-5.7c.4-.9.7-3.8.7-5.6a50.1 50.1 0 0 0 .4-12.7 165.5 165.5 0 0 1-3 1.2c-.7.3-3.2.2-3.4-.2-.4-.5-.5-1.5-.3-2.8 0-.7.2-1.6.3-2v-.6l-1 .1c-3.4.4-4.8-1.7-3-4.4.7-1 .6-1-.6-1.8-3.2-2.1-3.2-4 0-6.4 1.2-1 1.4-1.3.5-1.6-3.5-1.1-2.2-6.8 1.5-7 1 0 1.1 0 1-.3-.4-4.3.6-5.5 4.3-5l1.5.1.3-.5c1.6-2.1 3.4-2.8 5.6-2m180.2 1.6c1.9.9 2.5 1.8 1.2 1.8-.3 0-.6 0-.6.2-.2.3-1.5.2-1.7-.2-.8-1.5-.3-2.5 1-1.8m7.3 4.2l1.5.4c.3 0 .7.1 1 .3l2 .2a5 5 0 0 0 3.1-.7c.4-.2.8-.2.8 0 0 1.1-3.9 1.9-6.4 1.2a12 12 0 0 1-3.5-1.7c-.7-.3.3-.2 1.5.3M67 97.9c-.3.2-.9.2-1.7.2-.8 0-1.3 0-1.4.2-.2.3-1 .5-2 .4h-1l.2.5.3 2.3.7 5.5c.4 1.8.5 3.2.4 3.6a4 4 0 0 0 .4 3.4c.4.7.5.8.4 1.6-.1.7 0 1 .2 1.6.4.6.4.8.2 1.4a15 15 0 0 0-.2 1.8l-.2 1.2h1c1 .2 1.3.5 1.1 1.1l.1.5a28.6 28.6 0 0 0 9.5 0c.7 0 .7 0 .7-.4-.3-1-.2-3.7 0-4 .3-.2.4-.6.4-1.5 0-1 0-1.4.4-2 .4-.8.4-1 .4-3 0-1.4.1-2.7.4-4.2 1.2-7 1.3-7.3 1.2-7.4h-.3c-.8.8-1.7 0-1.4-1l.2-.8c0-.3-1.2-.3-1.7 0-.3 0-.6-.1-1.3-.5-.7-.4-1-.5-1.2-.4-.2.2-1.5.2-2-.2-.5-.3-.6-.3-1 0-.7.4-1.4.4-1.9 0-.3-.2-.4-.2-.9 0m22.2 0c-.3.3-.6.3-1 .3-.9-.2-1.6-.2-2.5 0l-1-.1c-.3-.2-.5-.2-1.2.3s-.9.5-1.8.4h-1v1.6l.3 2 .2 1.4c0 .6.1 1.5.3 2l.2 1.5.3 2c.3 1 .3 1.1 0 1.5-.1.3-.3.8-.3 1.3 0 .7.2 1.1 1 2.6.2.2.2.7.1 1.1 0 .6 0 1 .3 1.4.2.5.2.7 0 2l-.2 2c0 .4 0 .4 1.8.8.4 0 .4.2.3.7 0 .3 0 .6.2.6l1.6.2a28.2 28.2 0 0 0 7.7-.1c.8-.1.8-.2.7-.5-.3-1-.3-3.3 0-3.7.3-.4.3-.8.3-1.7 0-1 0-1.2.5-1.9.4-.7.5-.8.4-2.8 0-1.2 0-2.4.2-2.7l.3-1.7a77.2 77.2 0 0 1 1.1-7c0-.4-.1-.5-.8-.5h-.7v-1l-.1-1.2-1 .1c-.9.1-1.1 0-1.8-.3-.6-.4-.9-.4-1.8-.3-.8 0-1.1 0-1.4-.2-.6-.4-.7-.4-1.2 0m-21 1.8c.3.3.7.2 1.3 0 .6-.4 1-.4 1.4 0 .4.2.8.3 1.6 0 .5-.2.6-.2 1.2.3l.8.4c.5 0 .8.5.5 1 0 .3-.3 1-.3 1.7a1291.6 1291.6 0 0 0-1 8.2c.2.8 0 1.3-.5 2l-.5.5h-4c-4 0-4 0-4.4-.4-.6-.6-.8-1.2-.5-2 .3-.8.2-3.1-.2-4.1l-.2-1.4a9 9 0 0 0-.2-1.5l-.3-2.2v-1.5l1-.6c.8-.4 1.2-.5 1.3-.4.3.3 1 .2 1.6 0 .5-.3 1-.3 1.4 0m19.6 0c.6.2.7.2 1.2 0 .8-.4 1-.4 1.5 0 .4.2 1.4.3 1.6 0 .1-.3.6-.2 1.2.3l.9.5c.4 0 .4 1.8-.3 4.6a40.2 40.2 0 0 0-.7 5.8c.4.5.2 1.7-.6 2.5-.3.4-.4.4-4.4.4h-4l-.4-.5c-.6-.7-.7-1.3-.5-1.7.3-.5.3-1.4 0-3.2a158.9 158.9 0 0 1-.7-5.1c-.3-2-.2-2.7.3-2.9.3 0 .7-.3 1-.5.4-.3.5-.3.8-.2.5.3 1.3.2 1.7 0 .5-.4.7-.4 1.4 0M38.1 102l-1.4.6c-.8.6-1.2.7-3 .8-1.7.2-1.8.2-2 1.3l-.3 1.3-.4 1.8c-.3 1.4-.5 1.7-2 3.3-2.2 2.4-2.7 3.3-2.7 5 0 1.4.3 1.9 1.4 2.9.8.6 1 .8 1 1.4v.8c.2 0 .3.3.4.5 0 .7 1 1.8 1.6 2l.8.8c.6 1.2 2.8 1.8 4.6 1.3.5-.1.7 0 1.4.5 2.6 2 4.4 2 7-.2.5-.4.7-.4 2-.4 2.5 0 4-1 4.3-3 .2-1 .5-1.7 1.3-2.5 1.9-2 1.6-3.5-1.5-7.2-1.7-2-1.7-2-2.5-5.2-.5-2-.5-2-1.1-2.2-.5-.2-.7-.3-.9-1-.3-1-.4-1-1.7-1.2-2.2-.2-2.8-.4-3.4-.8-1.2-.7-2.1-1-3-.6m123.7 0l-.7.4c-1 .8-1.9 1-3.3 1-1.8 0-1.8 0-2.2 1.4l-.9 3.8c-.1.5-1 1.8-1.8 2.4-2.8 2.4-3.5 6.4-1.3 8 .5.3.8.7.8.9 0 1.2 1 3.2 2 3.7.4.2.9.7 1.2 1.1.7 1 2 1.4 3.5 1.2 1.6-.2 1.7-.1 2.6.6 2.1 1.8 3.8 1.8 6.3 0l1-.8h1.6c2 0 3-.5 3.5-1.6.3-.6.9-2.2.9-2.5 0-.2.3-.7.8-1.1 2-2 1.8-4-.6-6.6a12 12 0 0 1-1-1.1c-.1-.4-.5-.7-.7-.9-.4-.3-.7-1-1.2-3.2-.7-2.8-.8-3-1.4-3.1-.6-.1-.8-.3-1-1.2 0-.9 0-.8-1.7-1-2-.2-2.8-.4-3.4-.8-1-.7-2-.9-3-.5M40 103.6c.4.2 1.1.7 1.6 1.2.9.8 1.1.8 2 .2.7-.6 1.3-.3 1.5 1l.9 3.3c.1.5.4 1 .6 1.3 3.2 3 4.1 5 3.1 6.4-.6.8-1 .7-2-.6a35.3 35.3 0 0 0-1.5-2c-.3-.5-.5-.5-1 0l-.4.3 1.7 2.2c1.8 2.4 1.8 2.6 1 4.2-.7 1.5-3.8 2.1-4 .8l-.3-.6-.2-.7c0-.4-.1-1-.3-1.4l-.2-1.2c0-1-.6-2.6-1-2.6-.7 0-.8.3-.6 1l.4 2 .6 2.4c.4 1.9.4 2-1 3-1.3 1.1-2.7 1-4.2-.3l-.8-.8.2-1.3a88.2 88.2 0 0 0 .8-4.5c.2-.9 0-1.3-.7-1.3-.3 0-.4.1-.5.8a32 32 0 0 1-.6 3.5c-.4 2.7-.4 2.6-2 2.7-2 .1-2.8-.7-3.1-2.8 0-.5 1.4-3.2 2.3-4 .4-.4.7-1.1.5-1.3-.7-.4-1-.5-1-.4l-1 1.4a9 9 0 0 1-.9 1.3l-.1.3c0 .4-.9.9-1.2.6-1-.8-1.2-2.2-.3-3.4l.3-.4c0-.2 1.9-2.3 2.8-3.2.5-.5.6-1 1-2.9l.4-1 .2-.8c0-1.3 1-1.7 1.6-.6.4.6 1 .6 1.3 0 .7-1.5 2.9-2.4 4.1-1.8m123.8 0c.7.4.8.5 1.8 1.4.7.7.7.7 1.4.2.9-.8 1.6-.6 1.8.5l.9 3.5c0 .4.3 1 .6 1.2 2.8 3 3.2 3.5 3.5 4.5.4.8.3 1.3-.3 2.1-.7.8-1 .7-2.4-1.2-.7-1-1.4-1.8-1.5-1.8-.5 0-1 1-.6 1.3l1.5 1.9c1.5 2 1.6 2.7.8 4.1-.8 1.2-3.9 1.8-4.1.8a96.4 96.4 0 0 1-1.3-6c0-.5-.6-.7-1-.6-.3.1-.3 2 0 2.3l.4 1.3.4 2.3c.5 2.8-2.3 4.2-4.9 2.3-1-.8-1-1-.4-5.6.4-2 .3-2.5-.4-2.5-.4 0-.6.4-.7 1.8l-.6 4.2c-.3 1.3-2.8 1.6-4 .4-1.3-1.4-1.2-2.5.6-5.2 1.5-2.2 1.5-2.1 1-2.5-.5-.3-.5-.2-1 .2a14 14 0 0 0-1.5 2.3c0 .2-.8 1.1-1 1-1.4 0-1.6-2.5-.4-4l.8-.8 1.4-1.8a6 6 0 0 0 1.3-1.9l.5-2c.4-2 .7-2.5 1.3-2.5.3 0 .5.1.5.2 0 1 1.1 1.1 1.6.3a7 7 0 0 1 2.3-2c.5-.1 1 0 1.7.3m-90.9 12c.5.9 0 1-4 1h-4v-.5c0-.7.2-.8 4.3-.7 3 0 3.6 0 3.7.3m19.5-.2c.3.1.2.8-.1 1-.6.3-7.3.2-7.7 0-.4-.3-.3-1 .2-1.1l7.6.1m-20.1 3.1c.4.5.2 1.6-.3 1.8-.6.2-5.7.2-6.4 0-.6-.3-.6-.3-.3-1.3l.2-.7h3.3c2.3 0 3.3 0 3.5.2m19.5 0c.2 0 .3.3.3.8 0 1-.4 1.2-3.8 1.2-3.6 0-4-.2-3.4-2 .1-.2 6.3-.3 6.9 0m228.8.6c.3 1 0 2.6-.6 2.5-.5 0-.6-.7-.4-1.5l.3-1c.2-.5.4-.6.7 0m2.5 3.3c.9 1.2-1.3 2.7-3 2-.8-.3-.8-.7.5-1.4 1.7-1 2-1.2 2.5-.6m-245.8 7.8c-.7.3-.9.3-1.5.1-.7-.2-.7-.2-1.5.3-.8.6-1.5.8-1.7.4-.3-.4-1.2-.2-1.1.3a29.2 29.2 0 0 1 .6 4.3 391.1 391.1 0 0 1 .8 7.6c-.3 1.3 0 2.4.5 3.2.4.5.5.7.4 1.5-.1.7 0 1 .2 1.6.4.7.4.7 0 2.4-.3 2.1-.3 2 .8 2 .8 0 1.4.6 1.1 1.1-.4.7 5.7 1.2 9 .7 1.3-.1 1.3-.1 1.1-2.2 0-1.6 0-1.8.3-2.3.3-.5.3-.8.2-1.5 0-.8 0-1.1.5-2 .4-1 .5-1.1.4-3 0-1.8.4-4.6 1-7.3a34.8 34.8 0 0 0 .6-3.9l.1-.6-.8.2c-1 .1-1.3-.2-1-1.2.3-1.2.4-1.1-1.5-.8-.3.1-.6 0-1-.3-.8-.6-1.2-.7-1.9-.5-.6.2-1.1.1-1.8-.4-.3-.1-.4-.1-.8.1-.7.4-1.6.4-2 0-.2-.1-.4-.1-1 .2m1.2 1.6c.5.3.6.3 1.5 0s1-.3 1.4 0c.3.3.6.3 1.3.2 1.5-.2 3.2.8 2.8 1.8l-.7 4a6 6 0 0 1-.2 1.3c-.4.6-.6 3.4-.4 4.5.2.9 0 1.4-.5 2l-.4.4H75l-.5-.4c-.5-.5-.7-1.4-.5-1.8.3-.5.3-2.7 0-3.4l-.3-2-.4-3a9 9 0 0 0-.2-1.7c-.2-.3 0-.9.3-.9a3 3 0 0 0 1-.5c.5-.4.7-.4 1.3-.2.6.1.8 0 1.3-.2.8-.4.7-.4 1.3 0m171 6.2c-.2.1-.3.4-.3.5a15 15 0 0 0 3 2.8c.9.4 1 .9.3 1.8l-.4 1c0 .6-.5 1.4-1.4 2.2l-1 1.4-.4 1-.2.6c0 .5-.7 1.8-1.3 2.4-.7.6-.7 1-.6 2.4 0 2 2.2 3 4.5 2.2 2.3-.6 3.4-.5 4 .3 0 .1 1.3.2 3.3.2h3.2l1.3.8c2 1.4 3.3 3.2 3.8 5.3.2 1 .3 1.2 1.4 2.3.7.6 1.2 1.3 1.2 1.5 0 .3 1.4 1.7 2 2l1.3.7 1.4.8c.7.3.8.5.8 1.9 0 .8.1 1.3.5 2.2.6 1.1.7 2.5.2 3l-.2.8c0 .5-.1 1-.4 1.4-1.6 2.2-2.4 3.6-2.4 4.3 0 .3 1.8.8 3 .8 1.7 0 4.1-1.5 3.8-2.3-.4-.8-.3-1.6.1-2.2.6-.7.7-2 .3-3-.2-.7 0-1.6.8-4.7.1-.7.5-1.2.8-1.2l.7.9 1.1 1.9.7 1v1.7c0 1.2 0 2-.2 2-.3.3-1 1.7-1.1 2.3-.4 1.1 2.4 2.2 4.3 1.6 2-.5 2.5-3.5 1-6.4a18 18 0 0 1-.7-4.3c0-1.1-.2-2.3-.3-2.6-.5-1.6-.3-1.7 2.7-2 3.6-.3 5.9-.1 6.6.5 1.1 1 2.8.8 6-.8a16.2 16.2 0 0 1 5.2-2c.5-.2 3.3-.6 3.4-.5.2.2.8 2.1.8 2.4a7 7 0 0 0 1.3 2.5c2 2.8 1.6 8.3-.8 9.9-1 .6-2.5 2.4-2.4 2.8.1.8 5 1.2 5.8.5 1-.9 1.7-2.1 1.8-3.4 0-.7.2-1.5.3-1.7a30.7 30.7 0 0 0 1-3.3l.3-.8c.1-.6.6-1 1-.8l.3 1.9c.2 1.5.2 2.2 0 4.4l-.1 1.4c0 .7-.1.8-.8 1.2-1 .6-2 1.7-2.2 2.2 0 .4.8 1.4 1.3 1.4l.7.3c1.8.9 5.2-.7 5.2-2.4l.2-.8c.6-.3.8-1.2.6-1.8-.7-1.6-.7-1.8-.7-7.3v-5.4l-.9-1.7c-1.4-2.7-1.3-4.6.1-7.9l.5-.9.5-.9 1.5-2.2c1.7-2.4 2-3.6 2.2-7 .1-4.3-.7-6-3.8-7.2l-1.2-.5c-2.1-.9-15.2-.9-18.8 0-4.5 1.1-12 1.2-19.4.4-1-.2-3-.2-5.3-.1l-5-.1c-5-.6-6-.6-11 0-.6 0-1 0-1.2-.2-.4-.3-1.7-.4-2.6-.1-.8.2-.9.2-1.5-.1-1.2-.8-2-.9-3.5-.4-.8.3-1 .3-1.9 0-1-.2-2.7-.8-3-1-.3-.3-.9-.2-1.2.2m9 2.4c.7.4 2 .6 2.3.2.3-.3 1.6-.2 1.9 0 .3.3 2.7.2 5.4-.2a97.4 97.4 0 0 0 13 .6l7.6.3a58.6 58.6 0 0 0 18.5-.8l2.3-.4c1.4-.2 10.3-.1 12 .1 2.8.5 5 1.6 5.7 3.1.7 1.3.4 6.4-.4 7.2l-.5.7c-.5.8-1.6 1.7-1.7 1.5v-.3c.2-.1.5-.7.8-1.3l1-1.8.4-.7h-.7c-.7 0-.8.1-1.4 1.2-.4.7-1.1 1.7-2 2.6a9.3 9.3 0 0 1-3.5 2.3c-1.9 1-6-.5-10.7-3.5-2.6-1.7-3.4-2.1-5-2.1-1.7 0-2.3.4-1.4 1 .7.4 1 1 1 1.5.1 2.2 1.4 3.2 3.6 2.6.6 0 1.4 0 1.6.3a21 21 0 0 0 6.2 3.2c2.7.7 6.1.3 7.7-1 1-.7 1.5-.4 1 .7-.6 1-1.1 2.7-1.1 3.3l-.2 1.1c-.4 1 0 2.8 1.1 5 1 2 1.1 2.9.7 6.3-.2 1.6-.2 3.2.2 5.9.4 2 .3 2.2-.6 2.2-1.1 0-1.3-.3-1-2.5a19.3 19.3 0 0 0-1.3-9.2 62 62 0 0 1-.9-2.4c-.4-1.2-1-1.6-1.5-1-.2.3-.2.5.1 3.3l.2 1.7-.9 2.7a2287.5 2287.5 0 0 1-1.4 5.1c0 .9-.4 1.4-.9 1.4-.2 0-.3.2-.4.7v.7h-1.3c-1 0-1.4-.1-1.4-.3-.1-.3.9-1.2 1.5-1.3.4 0 .6-.3.7-.5 1.8-4.7 1.7-8.3-.3-11.2-1-1.5-1-1.6-1.4-3.6l-.3-1.7h-1.3c-2.3.2-6.7 1.2-8.2 2-2.9 1.7-4.4 2.2-3.4 1.2v-.3c-.6-.2-10.6 0-12.3.2l-1.7.3v1l.4 2.7.5 3.5c.1 1.7.4 3 1 4.1.4 1 .1 3.2-.4 3.4-2 .7-3.4-.4-2-1.5l.7-.5-.1-1.2-.3-2.5c0-1.3-.3-1.8-.9-2.5a19.8 19.8 0 0 1-2.4-5.2l-.3-.7-.9 1.8c-1.2 2.7-1.2 2.5-1.8 5-.4 1.5-.5 3.7-.2 3.9.4.3.2 1.2-.5 1.9-.7.6-.7.7-.5 1.2.4 1.3.3 1.3-.3 1.8-.5.4-.8.5-1.6.4-1.4 0-1.5-.4-.4-1.7 1-1.3 1-1.3 1.4-2.9.6-2.5.6-3.4 0-4.7-.6-1-.6-1.2-.5-2.5V170l-.8-.5c-.5-.3-1.3-.8-1.9-1-2.1-1.3-2.6-1.6-3-2.6l-1.3-1.7c-.9-.9-1.4-1.7-1.4-2.3 0-.1 0-.5-.2-.8l-.3-.6c0-.8-2.7-3.6-4.3-4.4l-1.2-.6h-3c-2.8 0-2.9 0-3.5-.4-.7-.4-3-.6-3.4-.3-.5.5-2.2.7-3 .4-1.2-.6-1.4-1.6-.3-2.8.5-.5.8-1.2 1-2 .6-1.7 1-2.4 1.8-3.2.7-.7 1.3-1.7 1.5-2.6.1-.7 1-1.7 2-2.3.8-.5.8-.6-.6-1.2-.5-.2-.2-.7.5-.7l.4-.2c.2-.4 2-.2 2.7.3m-221 4.6l-1.2.7-1.8.3c-1.7 0-2.5.4-2.5 1l-.5 2.5c-.6 2.3-.9 2.8-2.3 4.3-1.8 1.8-2.6 3.3-2.7 4.7 0 1.6 0 1.7 1.2 2.9.9 1 1.1 1.3 1.1 1.7 0 1 1.1 2.8 2 3.3.3.2.8.6 1 1 .7 1 1.7 1.3 3.7 1.2l1.5-.1 1 .7c2.3 1.8 3.7 1.9 5.9.2 1.3-1 1.5-1 3-1 2.3 0 3.7-1 4-3 .3-1 .6-1.8 1.3-2.4 1.8-1.9 1.7-3.6-.6-6.3-2.2-2.6-2.7-3.4-3-5.3-.7-2.8-.8-3-1.6-3.2-.4-.1-.5-.3-.7-1-.2-1-.6-1.1-2.7-1.2-1.4-.1-1.7-.2-2.2-.5l-.7-.5c-.1 0-.4 0-.7-.2-.8-.4-1.5-.3-2.5.2m124.2-.1l-1.2.6c-.4.3-1 .4-2.2.5-2.4.1-2.3 0-3 3.2a8.6 8.6 0 0 1-1 3.2l-1.4 1.5c-3 3.2-3.5 5.5-1.4 7.5.6.6 1 1.2 1 1.4a6 6 0 0 0 1.6 3.2l1.4 1.3c1.2 1.2 2.1 1.5 4 1.3l1.3-.1 1 .7c2.5 2 3.7 1.9 6.8-.4.4-.3.8-.4 2-.4 1.8 0 2.8-.5 3.4-1.2.4-.6 1-2.5 1-3l1-1c1.8-2 1.6-3.9-.5-6.4a54.7 54.7 0 0 1-2.5-3c-.1-.2-.9-3-1.2-4.7 0-.4-.2-.6-.9-.9-.6-.3-.7-.4-.7-.8 0-1-.9-1.5-3.1-1.5a4 4 0 0 1-1.5-.1c-1-1-2.7-1.4-3.9-1m-121.9 1.3c.7.4 1.8 1.3 2.3 1.8l.4.5.8-.5c1.2-.8 1.7-.6 2 .7l.3 1.6c.7 2.7.7 2.7 1.7 3.8 2.8 3 3 3.2 3 4.3 0 1.4-1.1 2.5-1.8 1.7a122.5 122.5 0 0 0-1.6-2.2c-.7-1-1.5-1.2-1.7-.5-.1.2.4 1.2.8 1.5.7.7 2.2 3.1 2.1 3.6-.4 2-1.1 2.7-3.4 2.9-1.2.1-1.3-.2-2.1-4.6-.2-1-.5-2.2-.7-2.5l-.6.1c-.5.2-.6.6-.3.8l.2.7.2 1.4.3 1.2c0 .4.1 1 .3 1.3.5 1.7.2 2.3-1.8 3.4-1 .6-2.1.3-3.5-1-.8-.7-.8-.9.2-5.9.3-1.8.3-1.7-.4-1.7-.6 0-.6 0-.7.6a78.3 78.3 0 0 1-.6 3.5c-.4 2.5-.5 2.7-1.7 2.8-1.4.2-3-.5-3-1.3v-.4c-1-.6-.2-2.6 2-5.5.6-.6.6-.7.3-1-.5-.6-.9-.4-1.8 1l-1 1.3-.1.3c0 .4-.8.8-1.2.6-.8-.4-1.2-1.5-.8-2.3l.5-1 1.7-2.2c1.8-2 2-2.3 2.1-2.9a25.6 25.6 0 0 1 .8-3l.2-.9c.1-.7 1.4-1 1.4-.2 0 .9 1 1 1.4.2.7-1.3 2.9-2.5 3.8-2m124.3.3c.5.3 1.1.8 1.4 1.2.7.7 1 .8 1.8.2 1.2-.8 2 .6 2.4 4 .1.7.3 1 1.8 2.5 2.7 2.9 3.2 4.1 2.1 5.3-.6.7-1.5.8-1.5.2l-.5-.7a13 13 0 0 1-.7-1c-.7-1-1-1.3-1.5-1.2-.7.2-.7.7-.1 1.3l.5.6c0 .2 0 .3.6 1 1.3 1.5 1.5 2 1.4 2.8-.1 1.3-.8 2.1-1.8 2.4-2 .6-2.7.4-3-.8a162.8 162.8 0 0 0-.9-5.1c0-.6-.6-1-1-.8-.3.3-.4 1.8 0 2.2l.2 1.3c0 .5.2 1 .3 1.2.6.8.2 3.4-.5 3.4l-.3.1c-.3.8-2 1.1-2.8.6-2-1-2.3-2-1.7-5 .2-.7.4-1.8.4-2.5l.1-1.1h-.5c-.7 0-.8.1-1 1.5-.4 5-.7 5.5-2.8 5.5-2 0-3.3-2.6-2-4.4a90.5 90.5 0 0 0 1.6-2.5c.7-1 .7-1.5.1-1.6-.5-.2-.5-.1-1.7 1.6-1.5 2.2-1.7 2.3-2.4 1.5-1.2-1.3-.4-3 3.2-6.7.5-.6.6-.9 1.2-3.4.4-1.8.6-2.3 1-2.5.4-.2.8 0 .8.4 0 .3.7.9 1 .9l.5-.6a7 7 0 0 1 2.3-2c.6-.4 1-.3 2 .2m-80.7 1.5c.4 1 0 1-4 1-4.2 0-4.3 0-4-1 .2-.3 7.9-.3 8 0m-.6 3c.8 1.5.4 1.7-3.5 1.7-4 0-4 0-3.5-1.4l.2-.7h3.3c3.1 0 3.3 0 3.5.4m223.3.2l1.2.7c.8.3.7 1-.1 1.1l-1.2.2c-1 .1-1.3-.1-1.5-1.3-.2-1.2.3-1.5 1.6-.7m6.3 3.8l.6.2c2 1.1 7 1.4 7.6.5 0-.2.8-.2.8 0s-.8.7-1.1.7l-.6.3c-.3.2-.9.3-2.2.3-1.4 0-2-.1-2.2-.3l-.8-.3-.6-.1-.6-.3c-.6-.2-2.2-1.2-2-1.4l.5.2.6.2M72.7 173.6l-1.6.8c-1 .5-1.3.6-2.7.6-1.8.1-2.1.3-2.3 1.3l-.3 1.8-.5 1.9c-.1.8-.2 1-1.4 2.2-3.6 3.9-4.2 6.4-1.8 8.3l.9 1.1c.3 1.6.6 2.4 1.3 3a101.1 101.1 0 0 1 3 2.7c.2 0 .3 0 .4.2.1.2 2.4.2 3 0 .4-.2.5 0 1.3.5 2.6 2 4.6 2 7-.3.3-.3.7-.4 2.2-.4 2.6-.1 3.3-.7 4.2-3.4.2-.8.5-1.4 1.1-2 2-2.2 1.7-3.5-1.7-7.5-1.5-1.8-1.7-2.2-2.4-5.6-.2-1-.4-1.4-.8-1.4-.5 0-.9-.6-1-1.2-.2-1-.6-1-2.5-1.2-1.4-.1-1.9-.2-2.4-.5-.5-.4-2.2-1-2.3-1l-.7.1m52.4.7c-1 .6-1.3.7-2.7.7-2 .1-2 0-2.7 3.2-.6 2.7-.6 2.7-2.3 4.6-2 2.2-2.7 3.4-2.7 5.2v1.2l.9.9 1 .9c.1 0 .3.4.3.7.2 1.3.9 2.7 1.6 3.2a15 15 0 0 1 1.8 1.8c.7.7 1.8 1 3.5.9 1.5 0 1.5 0 2.3.5 2.4 1.9 4.1 1.8 6.5-.1.8-.7.8-.7 2.4-.7 2.7 0 3.5-.7 4.3-3.4a5 5 0 0 1 1-1.9c2.3-2.4 1.9-3.7-2.2-8.4a4 4 0 0 1-.8-1l-.2-1.1a55 55 0 0 1-1-3.9l-.8-.3c-.5-.2-.6-.4-.7-1-.2-1-.5-1.2-2.5-1.3-1.5-.1-1.8-.2-2.8-.7-1.6-.9-2.6-.9-4.2 0m-51 .9l.7.4.3.2.9.7c.7.8.8.8 1.7.2 1-.7 1.4-.4 1.8 1.1a76.2 76.2 0 0 0 .8 3.4c0 .2.4.7.8 1.2 3.4 3.7 3.9 4.5 3.2 5.9-.6 1-1.3 1.1-2 0a25 25 0 0 0-1.8-2.3c-.3-.3-.4-.4-.8 0-.6.3-.6.4 0 1.2a31.9 31.9 0 0 1 1.7 2.1c1.8 2.4.6 5-2.4 5-1.2 0-1.3 0-2.2-4.8-.5-2.3-.5-2.3-1-2.4-.7-.1-.7.3 0 3.8.6 2.7.7 3.6.4 3.9-.3.4-2 1.4-2.5 1.5-1 .3-3.6-1.6-3.4-2.3l.3-1.6a111 111 0 0 1 .7-4.8l-.4-.2c-.7-.2-1 .1-1 1 0 .5 0 1.1-.2 1.5l-.3 2c-.3 2.2-.5 2.4-2.1 2.4-1.7 0-2.7-.7-2.7-2 0-.2 0-.5-.2-.6-.4-.2 0-.9 1.3-3 1.4-2 1.6-2.6 1.1-2.8-.5-.2-.7 0-1.1.6-1.8 2.8-2.5 3.4-3.2 2.6-1-1.1-.4-3 2.2-5.7 1.6-1.7 1.8-2.2 2.5-5.5.3-1.5 1-2 1.6-1 .4.8 1 .9 1.5 0 .8-1.3 2.7-2.2 3.9-1.7m54 0l2 1.5c.5.6.8.6 1.4 0 1-.7 1.8-.3 1.8.9 0 .3 0 .6.2.7l.7 2.7c.1.6.1.6 2.4 3.2 2 2.2 2.2 3.2 1.3 4.5-.7.8-1 .7-2.3-1-1.4-2-1.5-2-2-1.8-.5.4-.4.6.9 2.4 1.7 2.2 1.8 2.6 1.7 3.2a3.2 3.2 0 0 1-3.2 2.8c-1.2 0-1.5-.5-2-3-.7-3.8-.8-4.2-1.3-4.2-.7 0-.6 2.1.3 5l.3 1.5v1l-.7.6c-2 1.6-3.2 1.5-5-.3l-.5-.6.3-1.9.6-3.3c.3-1.5.2-1.7-.6-1.7-.5.1-.5.2-.6 1.3l-.3 1.8-.2 1.3-.3 1.5-.4 1h-1.4c-1.9 0-3-1.1-3-3 0-.4 2-3.7 2.7-4.4.3-.4.1-.9-.4-1-.4-.1-.5 0-.7.3a27 27 0 0 1-1.5 2.1l-.1.2-.3.3c0 .2-.3.5-.5.6-.9.4-1.8-1.1-1.4-2l.2-.8c0-.4.7-1.2 2.2-3l1.5-1.6c.2-.4 1-3 1.2-4.2.1-.7.4-1.3.7-1.4.3-.1 1 .2 1 .5s.5.6.8.6c.1 0 .4-.2.5-.5 1-1.5 3.1-2.4 4-1.8m194.8 7c.8 1.3-1 2.7-2.7 2.2-1.4-.3-1.1-.9.9-2 1.5-.8 1.4-.7 1.8-.2m-144.2 29.5c0 .2-.2.2-.8.2-.5 0-.9.2-1 .3a1 1 0 0 1-.7.3c-.2 0-.4 0-.5.2 0 .2-.1.3-.2.3-.3 0-.9.7-.9 1 0 .3-.1.4-.2.4-.2 0-.3.2-.3.5 0 .4-.1.6-.3.6-.2 0-.2.2-.2.7a33.6 33.6 0 0 0-.4 6.2v5.4H97.7c-67 0-75.6 0-75.7.3 0 .1-.3.3-.6.3-.2 0-.4 0-.5.2 0 .2-.3.3-.5.3s-.4 0-.4.2l-.3.1c-.1 0-.3.1-.3.3 0 .1-.1.3-.4.3-.4.1-.4.2-1.3 2.7-.3 1-.4 1.4-.4 6.2v5.2h-7.2a77 77 0 0 0-8.5.4h-1v.7c0 .4-.2.7-.3.8a524.2 524.2 0 0 0 .3 35.9c0 .6 0 .6.7.6.4 0 .7.1.7.3.1.2.4.3 1.3.3 1 0 1.1 0 1.3.4 0 .3.1.5.2.5s.2.2.2.5c0 1-.3 1 11.4 1a49.5 49.5 0 0 0 11.3-.5c.2 0 .4-.1.5-.3l.3-.2c.2 0 1.2-1 1.3-1.5 0-.3.2-.5.2-.5l.2-.6c0-.5.1-.8.3-.8.2-.1.2-1 .2-5.8v-5.6h75.5c67 0 75.6 0 75.7-.3l.7-.3.4-.1c0-.1.2-.3.5-.3.3-.1.7-.3.9-.6l.5-.4c.1 0 .2 0 .2-.2s.1-.3.3-.4c.1 0 .3-.3.3-.5s0-.5.2-.5.3-.3.3-.6a42.2 42.2 0 0 0 .4-6.5v-5.7h20.9v4.1c0 2.3.1 4.1.2 4.1l.2.8c0 .4.2.8.3.8l.3.5c0 .3.3.5.5.6.3 0 .5.2.5.3 0 .1 0 .2.2.2s.3.1.3.2c0 .3.7.9 1 .9.1 0 .3 0 .3.2l.7.1c.3 0 .5.1.5.3l.1.3c.1 0 .8.5 1.4 1.2.9.9 1.4 1.2 1.7 1.2l.7.3c.2.2 8.5.3 73.6.3 78.4 0 74.5 0 73.7.7a31 31 0 0 0 .2 7.8c0 .9.7 2.4 1.2 2.4 0 0 .2.1.2.3 0 .1 0 .2.2.2l.6.5.7.4c.3 0 .4.1.4.3 0 .2.2.2.5.2s.6.2.6.3c0 .2.3.3.6.3.2 0 .4 0 .4.2 0 .3 1.6 1.7 2 1.7a48.4 48.4 0 0 0 11.1.5H393l.5-.3.5-.4V249l-.6-.4c-.4-.2-1-.4-1.5-.4l-.9-.1V247c0-.8 0-1.2-.2-1.3-.2 0-.3-.4-.3-.8 0-.6 0-.6-1-.6a47.8 47.8 0 0 0-6.8-.4H377v-3.5c0-2 0-3.4-.2-3.5l-.2-.5c0-.3-.6-1.9-.8-2l-2.2-1.9c-.2-.2-.5-.6-.6-1 0-.3-.2-.5-.2-.5l-.3-.5c0-.4-.2-.6-.5-.7-.3 0-.5-.2-.5-.3 0-.2-.5-.6-1-.6-.2 0-.4-.1-.4-.3l-.6-.2c-.2 0-.5-.2-.5-.3-.1-.2-8.5-.3-74-.3h-73.9v-3c.1-2.3 0-3-.2-3.4a3 3 0 0 1-.2-1.2c0-.7-.8-2.3-1.2-2.3a.3.3 0 0 1-.2-.2c0-.2-.2-.3-.3-.3a.3.3 0 0 1-.3-.3c0-.1 0-.2-.2-.2a.3.3 0 0 1-.3-.3c0-.1 0-.2-.2-.2s-.7-.5-.7-.7l-.2-.2c-.2 0-.3-.2-.3-.6 0-.3-.1-.5-.3-.5a.3.3 0 0 1-.2-.3l-.2-.2a3 3 0 0 1-.9-.7l-.8-.7-.4-.3c-.1-.1-.6-.3-1-.3s-.7 0-.7-.2c-.1-.3-2.2-.3-16.9-.3s-16.7 0-16.7.3m33.8 3.8c1.4 1 1.4 0 1.4 16 0 12.5 0 14.2-.2 14.6l-.3.4h-36l-.2-.4c-.3-.4-.3-2-.3-14.6.1-16 0-15.1 1.5-16l.7-.4H212l.6.4m-28.7 6.9l.7.6v14.8l-.4.4-.9.4 2.6.1h2.6c-1.5-.3-1.6-.8-1.6-8.3 0-6.8 0-7.3.8-7.9.9-.6.7-.7-1.9-.7h-2.5l.6.6m8-.3l.5.4c1 .6 1 .8 1 7.7l-.1 6.9c-.3.6-1.2 1.4-1.7 1.5l2 .1h2.2c-.6-.2-1.3-1-1.5-1.4-.2-.7-.3-11.7 0-12 .2-.2.8.1 1 .7l.4.4c.1 0 .2 0 .2.2l.3.5.7.9 1 1.1a45.4 45.4 0 0 1 3.2 4 32.8 32.8 0 0 0 2.5 3.1 24 24 0 0 0 2.4 2.7l.1-7.5c0-8.2 0-8.5 1-9 1-.4.7-.6-1.3-.6s-2.5.3-1.5.6 1 1 1 6.2c.1 6.1 0 6.4-1.7 4a23.3 23.3 0 0 0-2-2.4l-.8-1-.1-.2-.4-.4a44 44 0 0 1-2.3-2.9c-3-3.9-3-3.9-4.7-3.9-1.2 0-1.4 0-1.4.3m-17.2 9.6c.1.2.2 2.3.2 8.5 0 7.8 0 8.3.3 9a54.5 54.5 0 0 1 3.3 8c.4 1 .7 2 .9 2.2.5 1.1 0 2.5-1.3 3.2-1 .5-156.3.5-156.8 0-.2-.2-.3-1.7-.3-14.4 0-15.9 0-15.2 1.3-16.2l.6-.5h75.8c58.7 0 75.8 0 76 .2m194 .3c1.4 1 1.3.1 1.3 16.2 0 14 0 14.4-.3 14.6H213.3l-.8-.5c-1.4-1.1-1.3-2.9.3-5.8l.2-.5.2-.7a116.7 116.7 0 0 0 1.6-3.7l.4-1.1.6-1.4c.4-.6.4-1 .4-8.8 0-5.2 0-8.2.2-8.4.1-.4 1.2-.4 76-.4h75.8l.5.5m-121.6 6.9a2 2 0 0 1-.7.2c-2 0-3.2 4.1-1.8 6a12 12 0 0 0 3.3 2.7c.2 0 3.3 2.3 3.7 2.7 1.2 1.6.4 4.6-1.3 5l-.9.2c-1.3.6-4.4-1.3-5.4-3.3l-.6-1c-.2 0-.2.2 0 .4l.1 1.4.3 2 .3.9.4-.4c.5-.4.5-.4 2.5.2 4.6 1.3 8.4-1.6 7.3-5.5-.4-1.3-2-2.9-4.4-4.2-3-1.6-4-2.7-4-4.3 0-4 6.4-3 7.6 1.4l.2.5v-.5c.2-1.3-.4-5-.7-4.3-.2.5-1 .7-1.6.4l-.9-.3a2 2 0 0 1-.8-.2c-.2-.2-.8-.3-1.3-.3s-1.1.1-1.3.3m18.3 0a3 3 0 0 1-.9.2c-1.1 0-3.7 2.3-4.5 4l-.6 1.4c0 .2-.1.7-.3 1-.3.9-.3 2.6 0 3.6a38.4 38.4 0 0 1 .6 2.2l.2.5c0 .5 1.9 2.6 3 3.2 4 2.4 9.7 1 11.7-2.8 1.5-3 1.4-7.3-.3-9.8-1.8-2.8-6.4-4.6-8.9-3.5m-113.2.1l-1.5 3.7a34.2 34.2 0 0 1-1.4 3.3l-.7 1.8-.5 1.2a24.6 24.6 0 0 1-1 2.7c-1 2.5-2 3.8-2.5 3.8-.3 0-.3 0 0 .2s3.2.2 3.4 0c0-.1 0-.2-.2-.2-.7 0-1-1.5-.5-2.5l.2-.7.3-.9.5-.8c0-.2.6-.3 3.3-.3h3.3l.4.4.4.8c0 .1 0 .4.2.6 1 1.4 1 3.2 0 3.4-1 .2 0 .4 2.3.4 2 0 3-.2 2-.4-.3-.1-.6-.4-.7-.6l-.3-.4-.2-.2-.8-2.1a49.5 49.5 0 0 1-2.2-5l-.2-.7a50.3 50.3 0 0 1-2.1-5l-.4-1-.3-.7c0-.6-.6-1.1-.8-.8m-119.4.3c1.2.2 1.3.8 1.3 8.2 0 7.6-.1 8-1.7 8-.3 0-.3 0 0 .2 0 .1 2.6.2 6.2.2 7 0 6.2.2 6.7-1.8.5-2.1.5-2.2.1-1.9l-.4.6c0 1.5-3.5 2.7-6.9 2.4-2.1-.2-2-.2-2-4.3 0-4-.3-3.7 3.1-3.6 2.8 0 2.9 0 3.6 1.6l.4.9V244l-.3.8c-.7 1.7-.9 1.8-3.7 1.9-3.4 0-3.2.3-3.2-3.4 0-4-.2-3.7 3.4-3.7 3.7 0 4.2.2 4.7 1.6.4 1.4.6 1.2.6-.5v-1.6h-6.2c-3.5 0-6 .1-5.7.2m15.3 0c.8.1 1.4.9 3.3 3.7l1 1.5.6.8.5.8.4.6c.6.8.2 1.5-3.6 6.2l-1 1.3c-.6.7-1.1 1.1-1.6 1.3-.8.2 0 .4 1.7.4 2 0 2.8-.2 1.9-.4-1-.2-1.1-1.7-.3-2.3l.6-.7c2.7-4 3.3-4.4 4-3l.6.8.4.4 1 1.8c1.2 1.9 1.3 3 .2 3-.3 0-.3 0 0 .2 0 0 1.3.2 2.8.2l2.8-.2c.2-.1.1-.2-.2-.2-.8 0-3.4-3-4-4.7l-.2-.2c-.3-.2-2.7-4-2.7-4.1a32.9 32.9 0 0 1 6-7.2c.3-.1-.1-.2-1.4-.2h-2l.5.4c.6.7.3 1.6-1.3 3.3l-1.3 1.7c-.9 1.3-1 1.2-2.3-.6-2.3-3.4-2.6-4.2-1.5-4.6.3-.1-.6-.2-2.4-.2a13 13 0 0 0-2.5.1m24.6 0c1.1.3 1.2.4 1.3 6.9 0 6 .1 6.2.7 7.4 1.5 3.2 7.5 3.7 10 .8.4-.4.7-.8.7-1l.3-.7c.2-.4.3-1.7.3-6 0-6.5.2-6.9 1.5-7.3.3-.1-.3-.2-1.7-.1a7 7 0 0 0-1.9 0c.2 0 .6.3.9.6l.5.4v6c0 7.2-.2 7.8-2.7 9-.8.3-3.4.3-3.7 0a.8.8 0 0 0-.5-.2c-.5 0-1.7-1.5-2-2.5-.4-.8-.4-1.5-.4-6.5 0-6.2 0-6.4 1.2-6.7.2-.1-.8-.1-2.3-.1h-2.2m18.2.1c1 .3 1 .6 1 7.8 0 7.5-.1 8.4-1.5 8.4-.2 0-.4.1-.3.2.2.2 4 .2 4.3 0 .3-.1.2-.2 0-.2-.6 0-1.2-.5-1.5-1.1-.3-.9-.4-11.7 0-12 .4-.2.5-.1.7.4a53.6 53.6 0 0 0 2.3 5.5l.3.8c0 .1 0 .2.2.2l.2.2c0 .1 0 .5.2.8l.8 1.8.5 1.2.6 1.3.5 1.1.4-.5.3-.7.5-1.4a92.2 92.2 0 0 0 3.2-7.3l1-2.7c.5-1 1-1.6 1.3-1.1.1.1.2 2.9.2 6.1 0 6.7 0 7-1.2 7.3-.3.1-.5.3-.5.4.2.1 4.9 0 5.3-.1.3-.1.3-.2-.1-.2-.3 0-.7-.2-1-.4l-.4-.4v-7.3c0-7.9 0-8 1.1-8.2h-3.6l-.6 1.2a67.1 67.1 0 0 1-2.3 5.5l-.8 2c0 .1 0 .2-.2.2l-.1.3-.3.8-.5 1.4c-.5 1.1-1.2 1.5-1.4.6a58.8 58.8 0 0 0-4.7-10.8l-.5-1.2h-2c-1.6 0-1.9 0-1.4.1m22 0c.2 0 .6.2.8.5l.4.4v6.6c.1 8.2 0 8.7-1.3 8.7-.4 0-.4 0-.1.2.6.4 8.4.1 9.8-.3 4-1.1 4.3-5.9.6-7.7-1.1-.6-1.3-1.1-.4-1.4 2.6-.6 2.8-5 .4-6.4-1.4-.8-1.7-.8-6.2-.8l-4 .1m16.2 0c.2 0 .6.3.8.6l.4.4v14.5l-.5.4-.8.4c-.2 0-.3.1-.2.2 0 .2 4.8.2 5.1 0 .2 0 .1-.2-.3-.2-1-.2-1.1-.7-1.2-4.2 0-3.4 0-3.5 1-3.5.6 0 2 1.2 2 1.6 0 0 0 .3.2.4l.5.6a43.4 43.4 0 0 0 2.7 3.8c1.2 1.6 1.3 1.7 3 1.7 1.3 0 1.9-.2 1-.4a98.5 98.5 0 0 1-5.5-6.5c-.7-1-.7-1.5 0-1.7 4-.8 5-5.9 1.4-7.6l-.9-.4a44.8 44.8 0 0 0-8.7 0m150.3-.1l.7.2c1.2.2 1.2.5 1.2 8 0 7.7 0 7.9-1.2 8-1.3.3.6.5 6.2.5 6.6 0 6.6 0 6.6-1l.3-1c.1-.2.3-.6.3-1 0-.2 0-.6.2-.7.1-.2.1-.2 0-.2l-.4.4c-.6 1-2 2.4-2.6 2.5l-1.3.3c-1.2.3-4.9.2-5.4-.1l-.4-.3v-7.3c0-8.1 0-7.9 1.3-8.2a32.5 32.5 0 0 0-5.4 0m17.8 0c.3 0 .7.2 1 .5l.5.6v7c0 7.9 0 8.1-1.2 8.1-.3 0-.3 0 0 .2.6.4 12.7.1 12.8-.3a24.8 24.8 0 0 0 .9-3c0-.7-.4-.4-.8.3-1.2 2-2 2.5-5.8 2.6-3.8.1-3.8.1-3.8-4.2 0-4-.3-3.7 3-3.7s3.9.2 4.1 1.5c.3 1.3.5.4.5-2 0-2.2-.2-3-.5-1.7-.2 1.2-1.3 1.7-4.4 1.7-2.8 0-2.7.1-2.7-3.5 0-2.6 0-2.9.4-3.3l.3-.5h3.3c3.7.1 4 .2 4.6 1.8.4 1.1.5.9.4-1v-1.3h-6.6l-6 .1m17.8 0c.3 0 .7.3 1 .6l.4.4v7c0 8 0 8-1.2 8.3-1 .2-.1.4 1.7.4 1.6 0 2.3-.2 1.4-.4-1-.3-1-1-1-7.2 0-5.6 0-5.7.3-5.7.2 0 .5.1.6.4a149 149 0 0 1 4 8.6c1.2 2.6 1.7 3.7 1.7 4 0 .4.5 0 .8-.8a157.4 157.4 0 0 1 2.9-6.4l2.4-5.3c.4-1 .8-1.4 1.1-1.3.1.1.2 2.2.2 6.2 0 6.7 0 7.2-1 7.5-1 .2 0 .4 2.1.4 2.2 0 3.2-.2 2.1-.4-1-.2-1-.4-1-8.1v-7l.5-.6c.3-.3.7-.5 1-.6H331l-.6 1.3a107.9 107.9 0 0 0-3.6 8.3c0 .1 0 .2-.2.2l-.1.2c0 .4-.9 2.2-1.2 2.4-.4.4-.6.1-1.3-1.4a318.9 318.9 0 0 0-4.7-10.2l-.4-.8H315.1m-45.8.4c2.8 1.3 3.8 3.5 3.7 8.5-.1 3.9-.6 5.2-2.7 6.6-1.2 1-3.6 1.5-4 1l-.4-.2c-.8 0-2.9-1.7-3.4-2.8-1-2.2-.9-2-.9-5.2 0-3.1 0-3 1-5.1 1-2.5 4.4-3.9 6.7-2.8m-150 0c2 .3 3.2 1.3 3.2 2.5 0 .2 0 .6.2.8.4.7-.4 2.4-1.4 3.2-.7.4-1 .5-2.6.6-2.5 0-2.4.3-2.4-3.5V240l.5-.3c.6-.3 1-.3 2.6 0m16.9.1c1.6.5 3.3 3.9 2.2 4.5l-.1.5c0 1.4-4.9 3.3-5.8 2.2-.4-.4-.2-6.6.1-7 .3-.4 2.5-.5 3.6-.2m16.2 3.6a53.6 53.6 0 0 0 2 5c.4 1 .2 1-2.7 1H149v-.4c0-.2 0-.7.2-1a31 31 0 0 0 2-5.1c.2-.8 1-.5 1.3.5m-32.3 4.2l.7.2c1.2.3 2.3 2 2.3 3.5 0 .9-.3 2.3-.5 2.3l-.3.3c-.1.4-1.4 1.1-2 1.1-.2 0-.4 0-.5.2-.2.3-2.5.2-3-.2l-.6-.4v-3.5c0-3.1 0-3.5.3-3.7.4-.2 3 0 3.6.2m-101.5 8.8v8.6l.5.4.4.6.8 2.1a577.3 577.3 0 0 1 2 5c1.5 3.5 1.6 4 .7 5-.3.3-.8.6-1.2.7-.8.3-17.2.3-17.6 0A374 374 0 0 1 4 248c.2-.2 2-.2 7.4-.2h7.1l.1 8.6M387 248c.4.3.5 30.3 0 30.8-.3.3-16.9.5-18 .1-1.3-.3-2-2-1.4-3.3a17 17 0 0 0 1-2c0-.4.3-1 .4-1.3a241.3 241.3 0 0 1 3-6.7l.3-.6v-8.5c0-4.6 0-8.5.2-8.5.1-.2 14.2-.2 14.5 0m-207.4 2.3c.1 2-.4 3-.7 1.8l-.8-2c-.5-.8-.2-1.2.8-1.1h.7v1.3m33.5-1c0 .2 0 .8-.3 1.3l-.6 1.3c-.3 1-.8.1-.8-1.4s.1-1.6 1-1.5c.5 0 .7 0 .7.3M23.7 265.4c.2.3.3.6.3 1.2 0 1.4-.7 2.7-1 1.8l-.3-.7-.3-.9-.1-.3c-.3 0-.2-1.2 0-1.3.5-.2 1-.1 1.4.2m345.2 0c.3.3.3.5 0 1l-.3.6c0 .5-.7 1.8-1 1.7-.2 0-.3-3 0-3.4.3-.3 1-.3 1.3 0"/>
    <path fill="#e12523" d="M58.3 3.7v14.5L70 30c8 8.3 11.6 12 11.6 12.2 0 .3-3.5 3.9-11.7 12L58.3 66v14.2h14.9l6.8-6.7a789.4 789.4 0 0 1 20.8-20.6c.3 0 1.3 1 15.1 14.8L128.6 80h14.8V66.3l-11.7-11.8-12-12.1c0-.3 2.9-3.2 11.9-12.2l11.9-12V11c0-6.8 0-7.3-.3-7.3h-14.4l-13.9 13.9c-7.6 7.7-14 13.8-14 13.8-.2 0-4.2-4-9-8.7L78 8.9l-5.2-5.2H58.3M256 80.8c-.5.2-.5.7 0 .7s.7.5.4.9l-.5.4c-.4 0-1.9 1.5-2.1 2.3a6 6 0 0 1-1.6 2.7c-.8.8-1 1.3-1.4 2.4-.6 1.7-.7 2-1.5 2.9-.8.9-.7 1.6.3 2 .6.3 1.4.2 3-.4 1.1-.4 2-.3 3.3.4 1 .5 1 .5 4.6.4 3.9-.1 7.3 2.9 8.4 7.4 0 .2.6.9 1.1 1.5l1.3 1.6c.5 1 1 1.4 3.3 2.6l.8.5.8.4c1 .5 1.2.9 1 2.2-.3 1.1-.3 1.1 1 4l.2.5.2-.5a70.7 70.7 0 0 0 1-3.8c0-.5 2-4.7 2.3-4.8.3-.2.7.2.8.8.5 2.2 2.6 6.5 3.3 6.5.3 0 .1-1.9-.4-4.9-.4-2.8-.4-2.8 0-3 1.3-.5 14.2-.8 15-.4.3.3.4.3 1-.1 2.5-1.4 5.3-2.3 9.7-3 1.8-.2 1.8-.2 2.2 2.8.2 1.2.3 1.5 1.4 3.1 1.7 2.5 1.9 6.5.4 10.5-.2.7-.2 1 .2 1 .3 0 .5-.2.6-1 .1-1.2.4-2.3 1.6-5.7.7-2 .6-1.7.3-5.9-.2-2.1 1.3-2.8 2.2-1a24 24 0 0 1 2.3 10.9c0 3.3 0 3.6.5 3.6s.7-.4.6-.8c-.4-1-.6-5.4-.4-7 .4-3.4.3-4.2-.6-6a9.7 9.7 0 0 1-.3-9c.4-1 .3-1.1-1-.4-3.2 1.7-7.6.9-12.3-2.1l-1.7-1-1 .1c-2 .5-3-.2-3.5-2.5-.3-1.3-.4-1.4-1.2-2-1.6-1-1-1.4 2.2-1.3 2 .1 2.6.3 5.4 2.3 2.7 2 6.4 3.4 8.5 3.4 2.1 0 5.2-2.3 6.6-5 .8-1.5.9-1.6 2-1.6h.8v-1.8c0-4.7-2.4-5.8-12.3-5.8-4.5 0-5.6.1-10 .9-6.1 1-9 1-15.3.5l-9.7-.4c-4.5 0-5.8 0-7-.3-1.8-.4-4.4-.3-7.4 0-1.7.3-2 .3-2.8 0-.9-.3-1-.3-1.7-.1-1.1.3-2 .3-2.7-.3-.7-.4-1.5-.5-2.2-.3m48.7 11.4c.3 1 .5 1.1 1.8.8l.7-.3-.9-.5c-1.2-.8-1.7-.8-1.6 0m-18.4 23.7v2.2c0 2 0 2-.5 2.2-1 .5-.7 1.1.5 1.1.8 0 1-.2 1-.9v-.6c.3-.1.3-1 .1-1.2a11 11 0 0 1-.9-2.5c0-.3-.2-.4-.2-.3m-8.3 1.6c-.6 1.8-.7 2.5-.4 2.6.4.2 1.4-.9 1.2-1.3l-.2-1.2c-.1-1.3-.3-1.3-.6-.1m-1.6 4.2c-1.3 1.4-1.3 1.5-.2 1.5 1.3 0 1.8-.4 1.6-1.4-.3-1-.6-1-1.4-.1m37.1-.6c-.4.4-.2.7.6.7.7 0 .8 0 .8-.5s-1-.6-1.4-.2m8 1.9c-1.7.8-1.8 1.2-.5 1.2 1 0 1.9-.4 1.9-1 0-.7-.4-.7-1.4-.2m-65 17.5l-.7.3h-.6l.6.3c.6.3.9.5.9.8l-1.3 1c-1.2 1-1.3 1-1.6 2a6.1 6.1 0 0 1-1.8 2.8c-.7.8-1 1.2-1.2 2.2-.3 1.3-1 2.6-1.7 3.2-1.4 1.3.7 2.4 3 1.5 1.7-.6 3.3-.3 4.4.7.3.2.7.2 4.1-.1 1.7-.1 2.8.3 4.7 1.8 2 1.5 3 3.2 3.6 5.7 0 .3.6 1 1.2 1.6a8 8 0 0 1 1.3 1.6c.3.8 1.4 1.6 4.5 3.2 1.4.7 1.5 1 1.2 2.3-.2 1-.2 1 .2 2l.7 1.7c.4 1.2.7 1 .7-.4l.2-1 .5-1.4a33 33 0 0 1 2.5-5.4c.4-.3.7.1 1 1.2.4 1.6 1.3 3.8 2.2 5 1 1.3 1 1.3 1 .4 0-.7 0-1.5-.6-5-.4-2.7-.8-2.5 8.5-2.7 5.6-.1 6.4-.1 6.6.1.2.3.4.2 1.6-.4a22 22 0 0 1 8.6-2.5c2.4-.3 2.3-.4 2.6 2 .3 1.7.3 1.9 1.2 3.2 1.3 2 1.6 2.8 1.7 4.6a16.2 16.2 0 0 1-.7 5.6l-.3 1c0 .6 0 .6.2.6.3 0 .4-.4.6-1.2l1.2-4.2c1-3 1-3.1.9-4.5l-.2-2.7V166l.8-.2c1-.2 1.5.5 2.7 4.6l.7 2.1.3 4.5c0 3.7 0 3.9.4 4 .5.1 1-.3.7-.8-.4-.6-.6-5.3-.4-7 .4-3.1.3-4.2-.5-5.8a10.1 10.1 0 0 1-.3-9.5c.4-.7.2-.8-.4-.4-2.2 1.4-6 1.6-9 .4-1.6-.7-3-1.5-4.2-2.3-1.4-.9-2-1-2.8-.6-1.5.7-3.4-1.3-3.4-3.5 0-.2-.4-.6-1-1-1.6-1.1-1.3-1.4 1.7-1.4 2.4 0 2.4 0 5.7 2.2 4.5 3 8.4 4 10.6 3 1.4-.6 4.3-3.2 4.3-3.8 0-.8 1.4-2.2 2.1-2.3 1 0 1.2 0 1.1-2 0-2.9-.5-3.6-3.2-4.7a58 58 0 0 0-22 .4c-2.8.6-11 .6-13.9 0-.5-.1-3.2-.2-6.7-.2-4.9 0-6 0-7.7-.3-3.8-.7-3.4-.7-8.3 0-1.6.2-1.8.2-2.7-.1-.8-.3-1-.3-1.6-.1-1 .3-2 .2-2.9-.4-.8-.5-1.5-.6-1.7-.3m48.3 11.4c.2 1.2 1 1.3 2.3.6.2 0-1.7-1.3-2-1.3-.3 0-.3.2-.3.7m-18.4 23.8v4.1l-.5.3c-1.1.6-.9 1.1.5 1.1h1v-.5l.1-1.1c.2-.5.2-.7 0-1.2l-.8-2.3c-.1-.3-.2-.5-.3-.4m-8.2 1c-.3 1-.7 3-.6 3.2.5.5 1.5-1 1.2-1.9l-.1-1c0-.5-.3-.7-.5-.3m-1.9 5c-1 1-1 1.3 0 1.3 1.2 0 1.7-.5 1.6-1.5-.2-1-.6-1-1.6.1m37.5-.8c-.8.4-.6.7.3.7.8 0 .8 0 .9-.5 0-.6-.3-.6-1.2-.2m8.5 1.7c-.6.1-2 .9-2.1 1-.4.6 1.8.7 2.4.1.6-.5.4-1.3-.3-1.1"/>
    <path fill="#f8c751" d="M212.3 119.6c0 51.5 0 61.3.2 61.9l.6 1.7a28.6 28.6 0 0 0 6 9.4 24.7 24.7 0 0 0 6.7 5.6 31.4 31.4 0 0 0 7.4 3c3.3.8 2.8.7 22 .9 13.6 0 18.7.1 19.6.3l2.5.5c2.2.4 5.2 1.5 5.4 2l.2.2 1.5 1 2.5 2.5c1.4 1.6 2 2.3 2.7 3.4.7.9 1.2 1.3 1.2.9 0-.2 2-2.9 2.6-3.6a17 17 0 0 1 12.1-6.8c1.4-.3 4-.3 19.6-.4 11 0 18.3-.1 18.6-.2a66.1 66.1 0 0 1 5-1.3c.6-.1 1.7-.5 3.3-1.2a26.4 26.4 0 0 0 15-15l1.5-4.4c.3-1.4.3-3.1.3-61.5v-60H212.3v61.1m38.4-41.9c.2.2 1 .5 1.8.8 1.5.5 1.8.5 3.4 0 1-.2 2 0 3 .4.6.5.6.5 1.6.2a3 3 0 0 1 1.9 0c1 .3 2.1.3 4.9 0 2.2-.2 5-.1 6 .2l7.2.3c4 .1 7.7.3 9.5.5 5.2.5 11.2.2 15-.8 3-.8 14.3-1 17.4-.3 2.6.5 4.8 1.7 5.8 3.2l.8.9c2.6 1.6 2.7 10 0 13a25.3 25.3 0 0 0-2.7 4.4 9 9 0 0 0-1 3.1c-.3 1.7-.1 2.9.9 4.9l.8 1.5v5.5l.1 5.8c.8 2 .8 2.6 0 3.4-.2.2-.3.4-.2.6.2.7-1.3 2.4-2.2 2.6l-.6.2c-.3.5-3.8 0-3.8-.5 0-.1-.1-.2-.3-.2-.1 0-.7-.4-1.2-1l-1-1-.7.2c-1.7.6-5.6-.4-5.5-1.4 0-.4 0-.5-.8-.7-1-.3-1.5-.7-1.2-1.2a8.9 8.9 0 0 1 3-3.3c.5-.2.6-.4.7-.9l.3-.9c.9-1.7.5-5.3-.7-7.2l-1.2-1.9c-.4-1.1-3.2-.5-7.4 1.7-3 1.6-5 1.8-6.1.6l-.6-.6-4.1.2c-2.3 0-4.2.2-4.2.2l.2 1.4a87.4 87.4 0 0 1 1 6.8l.4 1c.5 1 .4 4.3 0 5-1.2 1.5-6 1.2-6.4-.5 0-.2-.4-.6-.8-.8l-1-.6c-.4-.2-1.1.6-1 1.1.4 1.6.4 1.5-.4 2.2a4.9 4.9 0 0 1-4.9 1.4c-1.5-.4-1.6-.5-1.8-1.2-.1-.5-.2-.6-1-.9-1.5-.4-1.3-1.8.5-4.3.6-.7 1-1.5 1-1.9l.4-1.6.3-1.1-.5-1.4c-.4-.9-.5-1.6-.5-2.2 0-1.3-.3-1.5-3-3a7 7 0 0 1-2.4-2.2 10 10 0 0 0-1.6-1.9c-1-1-1.2-1.2-1.2-1.9l-.1-1c-.1-.2-.3-.7-.6-1-.6-1.4-2.4-2.6-3.5-2.3l-1.4.3c-1.5.3-4.2-.2-4.2-.8 0-.3-1.6-.3-2.6 0-2.2.8-3.8.5-5.3-1l-1.5-1.5c-.4-.3-.7-.8-.7-1 0-.2 0-.4-.2-.4-.6-.4 0-2.2 1-3.4.5-.5.8-1 1-1.7.3-1.5.7-2.3 1.8-3.4a6 6 0 0 0 1.2-2l.6-1.3c.4-.4.3-.5-.8-1.4-1.4-1-2.7-2.3-2.7-2.8 0-1 1.3-1.7 2-1.2M59 83.5c-.3.8 0 72.8.3 73.7l.5 1.5c.7 2.3 3 5.2 4 5.2l.2.2c.2.2 2.8 1.4 4.4 2l16.3.1h15.6l.1-.4V83.4H79.7l-20.8.1m44.8 41.2v41.5H119c11.3 0 15.4 0 15.8-.2 3.5-1.3 5.7-3 6.5-4.7.7-1.6 1-2.2 1.4-4.3.1-1 .4-72.5.2-73.3l-.1-.4h-39.2v41.4m21.9-37c1.3.5 2.4 1 3 1.6.4.5.6.6 1 .4 1.1-.2 3-.2 3.6 0 .7.4 1.7 1.4 1.7 1.6l1 1.1c.7.7 1 1 1.1 1.8.2.6.5 1.1 1.1 1.8l.9 1.1.7.8c1.8 1.8 2 3.7.7 6.3-.7 1.3-.7 1.4.1 2.3 2.4 2.6 1.7 8-1.1 9.1-.4.2-.6 1-.2 1.1.4.1.4 3.1 0 4-.6 1.3-1.6 2-3.3 2.3-1.4.3-1.5.4-1.5 1.3 0 1.5-1.1 3.1-2.5 3.5-.8.2-2.7 0-2.9-.2-.8-1.3-1.3 2.9-.8 7l.4 4.3c.1 2.6.3 4 .7 4.7l.6 1.3c.3.7 1 1.5 1.7 2.2a38 38 0 0 0 4.8 3.8c2 1.5 2.6 2 2.6 2.3 0 .3.3.7 1 1.2 1 .8 1.1 1.1.6 1.9-.4.5-1 .5-1.8.2l-1.7-.6-1.2-.5-.4-.1c-.3 0-.6-.1-3.2-1.3-1.8-.9-1.9-1-1.6-.6l.3.8.2.8.5 1.2.3 1-.4.5c-.8.9-1.2.7-4.2-2.4l-2.8-2.8-.4.5-3 3.7c-1.2 1.6-5.6 6-6.1 6-1 .2-1.7-.6-1.3-1.4.2-.6.1-.9-.3-.5-.4.3-1 0-1.6-.5l-.4-.5 1-2 1.4-2.5c.5-.9.5-1.1 0-.9-.5.3-4.6 1.6-5 1.6-.9 0-1-2-.1-2.1.2 0 .2 0 0-.1h-.4c-1 .8-2.4 0-2.4-1.2 0-.2 1-1.2 1.3-1.2l1-.6 1.3-.8c.7-.3 2.9-1.8 4.3-2.8 3.8-2.9 5.2-5.3 5.5-9.8a340.9 340.9 0 0 1 .6-7.8v-1.2h-1.1c-1.6-.1-2.5-.6-3.4-1.8l-.6-.6c-.7 0-1.8-2-1.8-3.2 0-.5-.7-1.2-3.3-3.6-1-1-1.3-2.6-.7-4.5.3-.9.3-.9 0-1-1.8-1-3.2-4-2.5-5.4l.3-.7c0-.2 1-1.6 1.3-1.7.5-.2.4-.7-.1-1.8-1.6-3.1 0-7.4 3-8.2.6-.2.6-.2.7-1.4.3-3 2-4.5 5.3-4.5h1.8l.8-.8c1.6-1.5 4-2 5.9-1.5m-54.3 9.8c.5.3.7.3 1 .1.8-.3 1.2-.2 2 .3.6.4.8.4 1.4.3 1.8-.2 1.6-.3 1.7 1 0 1.3 0 1.3 1 1 .6-.3 1 .4.7 1.5l-.3 1.4c0 .2 0 1-.2 1.8a153.2 153.2 0 0 0-1.1 7.7c0 2 0 2.3-.4 3-.4.6-.5 1-.5 1.9 0 .6-.1 1.3-.3 1.7-.3.7-.3 1 0 3.3.2 1.3-.1 1.4-3.9 1.5-5.7.2-7.5 0-7.3-1.1.1-.3 0-.4-.3-.5-2.2-.5-2.2-.5-1.8-2.1.4-1.4.4-2.4 0-3.1l-.2-1.5c0-.7 0-1-.4-1.7-.7-1-.8-2-.4-3.2l.1-1a41.6 41.6 0 0 1-1-7.6c-.7-3.3-.5-4.5.5-4.1 1 .4 2.6 0 2.6-.5 0-.2 1-.2 1.4 0 .2.2.4.2 1 0 .7-.4 1-.4 1.8-.1.5.2.7.2 1.2 0 .6-.5.8-.5 1.7 0m19.5 0c.6.3.8.3 1.1.1.6-.3 2.3 0 2.3.6 0 .2 1.2.1 1.9-.1.8-.3 1.2.1 1 1-.4 1.3-.4 1.3.6 1.3 1.2 0 1.2 0 .8 2a89 89 0 0 0-1 5.6c-.6 3.4-.7 4.3-.5 4.5.2.2.2 1.7 0 2.2l-.3.6-.3.7c-.2.3-.2.7-.2 1.3.1.7 0 1-.3 1.7s-.3.8-.2 2.5c.3 2.6.7 2.5-5.3 2.5-5.4 0-5.7 0-5.8-1 0-.5-.1-.6-1-.8-1-.2-1.3-.5-1.2-1a27.3 27.3 0 0 0 .6-2.9l-.4-1c-.4-1-.4-1.1-.2-1.6.1-.6.1-.7-.3-1.3-.8-1.3-1-2-.5-3.9 0-.3 0-1.4-.2-2.4a99.7 99.7 0 0 1-1.1-8.6c-.3-1.3.1-1.8 1-1.4a2 2 0 0 0 2-.2c.6-.5 1.6-.6 2-.3.2.2.4.2.8 0 .8-.4 1-.4 1.8-.1l.7.1c.1 0 1-.5 1.3-.5 0 0 .5.1.9.4M283 115.4c-.5 1.5-.8 3.6-.4 4.4l.2.6.4-.8.6-.8c.2 0 .1-2.6-.1-3.3-.4-.7-.4-.7-.7-.1M78.6 129.8c.6.3.7.3 1 0 .5-.3 1.4-.3 1.9 0 .4.3 1.2.4 1.4.1.2-.3 1-.2 1.7.3.6.5.7.5 1.7.3 1.4-.2 1.5 0 1.4 1.2v1H89.4v.7c0 .8-.2 1.8-.7 4.7a69.2 69.2 0 0 0-1.1 9.6c-.6.7-.8 1-.7 2 .1.6 0 1-.2 1.6-.4.9-.4 1.2-.1 3.6v1c-.7.6-5.7.8-9.3.4l-1.8-.2v-.6c-.2-.7-.4-.9-1.1-.9l-1-.3-.4-.4.3-1.3c.4-1.5.4-2.6 0-3l-.2-1.6c0-.6 0-1.2-.2-1.2-.7-.5-1-2.5-.6-3.7.1-.4.2-.8.1-.9-.1-.2-.8-4.8-1.3-9.4-.3-2.4-.3-2.4 1.3-2.3 1.1.1 1.2.1 1.8-.3.6-.5 1.4-.6 1.6-.3.2.3.8.2 1.2-.1.5-.3 1-.3 1.6 0m172.5 7.9l1.5.7a6 6 0 0 0 3 0c1-.5 2.4-.3 3.3.5.2.1.6.2 1 .1 2.1-.3 2.3-.3 2.6 0 .4.2 3.7.2 4.7-.1l2.3-.2a76.9 76.9 0 0 0 12.3.8c4.4 0 6.7.1 7.6.3a53.3 53.3 0 0 0 18-1.1 115.2 115.2 0 0 1 16 .3c2 .4 4.4 2 5 3.3 1.6 3 1 9.4-1.2 12-1.3 1.4-2.7 4-3.5 6.4-.3 1-.3 3.2 0 3.7a22.6 22.6 0 0 1 1 2.4c.7 1.2.8 2.4.7 5.6-.2 3.3 0 5.7.4 7.6l.4 1.6-.5.6c-.3.4-.5 1-.5 1.2 0 1.2-2.5 3-4.3 3-1.3 0-3.5-1.1-4-2-.3-.6 1.3-2.4 2.8-3.3.4-.2.8-5.5.5-6.9-.2-.5-.6-.2-.7.6l-.3.9c-.5 1.3-1 3-1.1 4.5-.1.8-.3 1.1-.7 1.5l-.5.7c0 1.4-4.2 2-6.4.8l-.6-.4c-.8-.3.6-2.7 2.3-3.8.8-.4 1-.7 1.1-1.1 0-.4.2-.7.3-.9 1-1.8.5-5.3-1-7.5-1-1.5-1.1-1.9-1.4-3.5-.2-.7-.2-.7-.8-.7-2.4 0-5.3 1-9.4 3.3-1.5.8-3.8.7-4.7-.2l-.5-.4h-4c-4.7.2-4.3 0-4 1.7l.4 2.4c0 1.1.5 4.1.8 4.6 2.5 4.5-1.3 8.7-5.4 6.1l-.7-.3c-.8-.4-.3-2.8.9-4 .5-.6 0-3.2-.9-4.4l-.4-.8-.2-.4a.9.9 0 0 1-.3-.5c0-.6-.7.3-.7.8 0 .2-.1.7-.3 1-.2.6-.3 1.3-.2 3.2v2.5l-.5.7c-.4.6-.4.7-.3 1.1.6 1.2 0 2.1-1.9 3.1-1.1.6-4.8.5-5.4-.1-.5-.5.4-3 1.7-4.5.5-.6.7-1 .8-1.5l.4-1.8.3-1.1-.5-1c-.4-.8-.6-1.4-.6-2.3 0-1.4-.1-1.5-1.3-2.1-1.4-.7-1.6-.8-2.6-1.6-.8-.5-1.8-1.7-1.8-2.2a5 5 0 0 0-1.4-1.4c-.3 0-1-1.4-1-2 0-2.3-4.2-6.3-6.2-5.9-1.8.4-4.4.3-5 0-1.3-.8-2.3-1-3.5-.3-1.7.9-4.4 0-5.2-1.8-.7-1.5-.6-2.3.7-3.8.4-.5.7-1.2 1-2 .5-1.7.8-2.2 1.7-3.2.6-.5 1-1.2 1.3-1.9l.7-1.5c.2-.5.3-.3-1-1.4-2.4-1.8-2.9-2.7-2.1-3.6.6-.8.6-.8 2-.1"/>
    <path fill="#017c4e" d="M12.5 3.9c-.1.2.1.5 1.1 1.2 3 2 4.3 3.4 5.7 6 .8 1.5 1.8 4.9 2.5 8.2.2 1 .2 14.9.2 81.2 0 73.7 0 80.2.3 80.7l.5 1.4a28.8 28.8 0 0 0 6.4 10 29.6 29.6 0 0 0 16.4 9c.9.4 3.7.5 20 .6a355.6 355.6 0 0 1 19.5.6c.5 0 1.3 0 1.8.2l1.9.5a19 19 0 0 1 10.4 8c1.6 2.2 1.5 2.2 2.8.4 4.2-6 8.5-8.5 15.2-9.1l2.5-.4c.3 0 7-.2 17.6-.2l17.6-.1a97.6 97.6 0 0 0 3.7-1.2c7.7-1.7 17.1-10.9 20.2-19.8l.4-1.2.1-80.2c0-75.4.1-80.2.4-81l.3-1.4c0-.3 0-.8.2-1.1l.4-1.6c1.1-4 3-6.8 6.4-8.9 1.8-1 2.3-1.6 2-1.8-.5-.3-42.6-.2-43 .1-.2.3-.2 7.4-.2 76 0 79.5 0 76.3-.7 79.5a21 21 0 0 1-1.3 3.6c-.8 1.6-3.8 3.9-7 5.2l-1.7.8H68l-1.8-.7C60 166.1 58 164 56.2 157c-.3-1-.3-8.4-.4-77.1l-.1-76-21.6-.1H12.5m63.7 0c-.2.2-.1.8 0 .9l.1-.4v-.6l-.1.2m49 .2v.7c-.3.2-.3.2 0 0s.4-.8.1-1v.3m77-.3c-.2.1-.1.8.1.8.3 0 3 2.1 4 3 1.8 1.7 3 4 4 6.9l.5 1.6.2.7a147.9 147.9 0 0 1 .7 20.2v18.3h157.3v-17c.1-10.2.3-17.4.4-18 .7-3.9 1.5-6.5 2.7-9 1-2 2.8-4 5.3-5.9.9-.6 1.4-1.1 1.3-1.3 0-.3-175.8-.5-176.5-.3M55.6 80.4c.1 84 0 76.1 1 79.3 1.6 4.7 4.4 7.2 10.3 9.3l1.4.4h33.3c37.6 0 33.5.2 36.4-1.3 5-2.4 6.6-4.7 7.8-10.5.2-.7.2-18.6.3-77.2l.1-76.2H187.8l.7.1-.5.4-.6.4a18 18 0 0 0-3.4 2.7c-2.6 2.5-4 6.5-4.9 13.4 0 1-.2 26.2-.2 80v78.4l-.4 1.3a36.5 36.5 0 0 1-11.7 15.8 37.8 37.8 0 0 1-12.6 5.2c-.3.1-8 .2-18.3.2-13.1 0-18 .1-18.9.3l-2.7.5c-4.8.9-8.4 3.3-12.4 8.7-1.4 1.7-1 1.7-2.5-.3-4.3-5.7-8.6-8.4-14-8.8a475.8 475.8 0 0 0-18.9-.5 115.8 115.8 0 0 1-22.4-1.1 29.2 29.2 0 0 1-15.6-9.6 34.6 34.6 0 0 1-5-7.7c-.4-.4-1.1-3-1.2-4.6V98.4l-.1-79-.5-2c-1.6-6.5-3.2-9.1-7.1-12-.8-.6-1.4-1-1.4-1.2h42.3l.1 76.2M378 4.2c.6.2.6.2-.8 1.2-4.4 3.2-6.5 7-7.9 14.6-.2 1.2-.2 4.1-.2 18.1 0 9.2 0 16.8-.2 17 0 .1-15.9.2-78.3.1h-78.3V37.4l-.3-18.4-.4-1.7c-.8-3-1.9-5.9-3-7.6-.8-1.3-3-3.4-5-4.7-.9-.6-1-.6-.5-.8h175m-139.8 7.3l-2.3 3.4c-1.7 2.4-1.2 2.3-6.3 1.3-4.5-1-4.8-.9-4.4.5l.3 1.8a71.5 71.5 0 0 0 1 6c0 .2-.5.7-1.3 1.3-5 3.4-5.9 4-6 4.3-.2.2 1.5 1.6 2.3 2 .2 0 .4.3.5.5.1.3 1.2 1 2.3 1.8 2.6 1.7 2.4 1.4 1.7 5.2a568 568 0 0 0-1 4.5c0 .7.3 1 1.4.7 1-.2 1.1 0 1 .8-.2 1.3-.4 1.3 5 .3l3.2-.6.4.5 1.2 1.6c1.9 2.8 2.4 3.4 2.8 3.5.3 0 .7.4 1 1 .9 1 .8 1 2.4-1.2l3.5-5.1c.3-.5.6-.5 4 .2 6.1 1.3 5.9 1.4 4.8-3.3a32.8 32.8 0 0 1-.7-3.7c-.3-1.3-.2-1.3 2.2-3 5.6-3.6 5.5-3.5 4.1-4.5-.4-.3-.8-.7-.7-.8.1-.2-.3-.8-1.1-1.3l-2.6-1.8-1.8-1.2v-.8l.3-2.3a109.5 109.5 0 0 0 .8-4c.3-1.3.2-1.5-.9-1.4-1 .1-1 0-.8-1 .2-1.3 0-1.4-3.4-.7l-5 .9c-.5 0-.5 0-2.4-2.8a9.7 9.7 0 0 0-1.4-1.7c-.2 0-.7-.8-1.2-1.5-1.2-1.8-1.3-1.8-2.9.6m51.3-.7a985.7 985.7 0 0 0-4.4 6.1c-.2.1-2-.2-5.8-1-4-.7-3.8-1.2-2.6 4.9.5 2.8.7 3.8.5 4l-5.4 3.8c-2.3 1.6-2.3 1.6-.6 2.7.7.5 1.4 1 1.6 1.4.3.4 1.7 1.4 3.7 2.7.8.5.8 1 .5 2.8l-1 5.3c-.3 1.5-.1 1.7 1.7 1.2.4 0 .4 0 .4.9v1h.5a35 35 0 0 0 7-1.1l.9-.2 1.2 1.8 2 2.8c.4.6.8 1 1 1 .4.1.7.4 1 1 .8 1.1 1 1 3.4-2.7a31.5 31.5 0 0 1 2-3c.7-1 1-1 2.2-.8a296 296 0 0 0 5.1 1c2.5.5 2.8.3 2.5-1.4a70 70 0 0 1-1.2-6.7v-.9l2.6-1.8 3.4-2.3c1.3-.9 1.6-1.8.6-1.9-.4 0-1-.7-1-.9.2-.4-2.1-2.2-5-4-.6-.3-.8-1-.5-1.5l.2-1 .2-1.4c1.1-4.6 1.1-4.8-.2-4.8h-1l.2-.7.1-1.1c.1-.6-.8-.6-5 .3l-3.7.7c-.2 0-.8-.9-1.5-2l-2.2-2.7a14 14 0 0 1-1.4-1.8c-.7-1.3-1-1.2-2 .3m49.4 1.3l-2.6 3.8-.8 1h-.7l-2.2-.4-5.3-1c-1-.1-1.2 0-1 1.1a111.6 111.6 0 0 1 1.3 7.4l.1.8-3.2 2.2c-5 3.4-4.8 3.2-3 4.4.8.5 1.6 1 1.8 1.4l2.3 1.7c2.3 1.6 2.2 1.4 1.8 3.2a534.3 534.3 0 0 0-1 5.1c-.3 1.8-.2 2.2.7 2 1.5 0 1.4-.1 1.3.9v1h.6l3-.5c5.6-1 4.5-1.4 7 2.2 1.6 2.4 1.7 2.5 2.1 2.5.3 0 .6.3 1 .8.5.8.7 1 1 .8.2-.1 3-4 4.2-6 1-1.4 1-1.3 2.6-1l5 .9c2.4.4 2.7.3 2.5-1a69.6 69.6 0 0 1-1-5.3l-.5-2.4.6-.5 2.3-1.7c5-3.3 5-3.2 3.7-4.2-.5-.3-.8-.7-.9-.8v-.4a1017.7 1017.7 0 0 0-4-2.9c-1.8-1.2-1.8-.6-.4-7.3.4-2.2.4-2.3-.8-2.1h-.9l.1-1v-1.2h-.5l-1.4.1c-2.2.5-6.8 1.3-7 1.2l-1-1.4a680.4 680.4 0 0 0-2.3-3l-1.3-1.7c-1.1-1.7-1.2-1.7-3.2 1.3m-97.6-.4a154 154 0 0 1 3.2 4.1c.9 1.5 1.3 1.6 3.5 1.1 2-.4 3.2-.7 5.7-1l.6-.2v1.1c-.2 1.3-.1 1.4.9 1.3h.7c.2.2-.2 2.5-.6 3.8l-.1 1.1-.3 1.5c-.4 1.3-.3 1.8.4 2.2 2.3 1.4 5 3.4 5 3.9 0 .2.2.4.4.6 1.1.8 1.3 1 .9 1.3l-5.9 4c-1 .8-1.2 1.1-.9 2.8a165 165 0 0 1 1.2 6.5c.1.6-.2.7-1.3.4l-1.8-.3-3.8-.7c-2-.5-1.9-.6-4.2 2.7-3.4 5-3 4.7-3.7 3.6l-1.1-1c-.4 0-.9-.6-1.3-1.3-3.2-4.6-2.9-4.2-3.6-4.1a93.5 93.5 0 0 1-5.6 1 5 5 0 0 1-1.1.3h-.9v-.9c.2-1.1.1-1.2-1.1-1-1 .1-1.3-.1-1-1l.2-1.2.1-.9c.3-.2 1-5.1.9-5.5 0-.2-.8-.8-1.7-1.3-.8-.5-1.9-1.3-2.3-1.8l-1.8-1.4c-1.8-1.2-1.9-1 1.4-3.3 4.5-3 4.7-3.2 4.6-3.8l-.2-1.6-.3-1-.2-.9c0-.4 0-1-.2-1.4-.2-.4-.3-1-.3-1.3 0-.3 0-1-.2-1.4-.3-1-.2-1 1-.8l3.8.7c4.5.8 4.2.9 5-.5a110 110 0 0 1 3.9-5.5l.5-.9.4.4 1.2 1.6m102.2 1.2l1.2 1.6 1.2 1.7.7 1 1.2-.1a6 6 0 0 0 1.6-.3l1-.2c.4 0 1 0 1.2-.2l1.6-.3 1.6-.3.6-.1v2.4H357v1l-.3 1.3-.2.8c0 .3 0 1-.2 1.5l-.5 2.1-.2 1.2.6.5 2 1.5c2.2 1.4 3 2.2 3 2.5 0 .2.5.6.9 1 1 .7 1 .8-.6 1.8-6.1 4.1-6 4.1-5.8 5.2a34.4 34.4 0 0 1 .6 3.2l.2 1.2.4 2.1c.3 1.4.2 1.5-1.1 1.3a27.3 27.3 0 0 0-3.1-.6l-1.3-.3-2.1-.4c-1.2-.2-1.3 0-3 2.3l-2 3c-1.4 2.2-1.3 2.1-2.2 1-.5-.4-.9-.8-1-.7-.3 0-.7-.4-2.6-3.2L337 45h-.7l-1.8.4c-.6 0-1.3.2-1.4.3a6 6 0 0 1-1.2.2c-.6 0-1.5.2-1.9.4-1.2.2-1.3.1-1.2-1l.2-.9-1.3.1-1.3.1.1-.6.3-1.5.7-3.6c.3-1.1.4-3 .2-3.1l-.6-.6-1.8-1.2c-.7-.5-1.5-1.1-1.8-1.5a17 17 0 0 0-1.8-1.4l-1.2-.8.4-.4 2.6-1.9 3.5-2.4 1-.8v-.7l-.3-1.6a81.9 81.9 0 0 1-1-4.6l-.2-1.6v-.6l.5.1a61.9 61.9 0 0 0 4.4.8l2.6.5c1.5.2 1.5.2 1.8 0a33.5 33.5 0 0 0 1.8-2.5l3.1-4.6c.3-.2.3-.2 1.1 1l1.7 2m-51.8-1.8a7 7 0 0 0 1.1 1.4L294 14c2.4 3.6 2.4 3.6 4.7 3l1.6-.3c.2 0 .7 0 1-.2l1.5-.3 1.6-.3.6-.1v1.2l.1 1.2h.8c1-.1 1.2 0 .9 1a35 35 0 0 1-1 5.3c-.2.2-.2.8-.2 1.2v.7l1.9 1.3c3.2 2.1 3.5 2.4 3.5 2.9 0 .3.3.6 1 1 .4.4.8.7.7.8a228.6 228.6 0 0 1-7.1 5.1c-.2.4.3 4.3.7 5l.1 1 .3 1.6c.4 1.4.2 1.6-1.5 1.2a9 9 0 0 0-1.6-.3l-1.3-.3-1.5-.2-.9-.2c-.8-.4-2-.3-2.4.3-.5.7-2.7 3.7-3.8 5.5-1 1.3-1.1 1.4-1.8.4-.3-.4-.6-.7-.8-.7-.4 0-.7-.4-1.6-1.7-3-4.3-2.8-4.1-4-3.8a120.2 120.2 0 0 1-5.7 1c-1.2.4-1.5.2-1.3-.9v-.8h-1c-1.3.1-1.3 0-1-1.2a64 64 0 0 0 .7-4.4c.7-3.3.9-2.8-2.1-4.8l-2-1.6-1.8-1.5c-1.2-.8-1.2-.8.8-2.2a200.6 200.6 0 0 0 4.5-3c1.2-.9 1.3-1 1-2l-.4-2.2c-1.2-6.4-1.2-6 .2-5.7a97.2 97.2 0 0 0 6.2 1.1c1.8.4 1.8.4 2.7-1a364.5 364.5 0 0 1 3.6-5.2c.7-1.2 1-1.1 1.9.4m-1.6 1.7c-.2.2-.2.3 0 0 .2-.1.5-.2.7-.1h.3c-.2-.3-.8-.3-1 0m-.7 1l-.3.5.5-.5.3-.5-.5.5M114.1 16l-.9.9 1-.9c.8-.8 1-1 .8-1l-.9 1m-75.8 1.3c-.7.2-2 1-2.2 1 0 .1-.9.3-1.9.3-2 .2-2.5.4-2.7 1.2l-.6 2.8-.5 2.2-1.7 1.8c-3.2 3.7-3.6 5.9-1.3 8 .9 1 1 1.2 1 1.7 0 1.2 1 2.8 2.2 3.4.2 0 .6.5.8.8.6 1 1.4 1.3 3.6 1.3h1.8l1 .7c2.2 1.7 4 1.7 6.3 0 .8-.7 1-.7 2.5-.8 3-.3 3.9-1 4.6-3.8.2-.6.5-1.2 1-1.7 2-2.4 1.8-3.8-1.3-7.5-1.7-2.1-2-2.5-2.4-4.7-.4-2.4-.6-2.8-1.4-3-.3-.2-.6-.4-.6-.6-.3-1.4-.6-1.6-2.7-1.8a6 6 0 0 1-3-.7c-1.2-.6-2-.8-2.5-.6m123 .3a8 8 0 0 0-1 .6c-.4.3-1 .4-2.3.5-2.5.1-2.5.2-3.7 5.6 0 .3-.8 1.3-1.7 2.3-3.3 3.8-3.7 6.6-1.2 8.3.3.2.6.5.7.9.3 1.8 1.4 3.8 2 3.8.2 0 .6.4 1 1 1.1 1.1 2.6 1.6 4.2 1.3 1-.2 1-.2 1.5.2 3.4 2.3 4.8 2.4 7.3.2.7-.6.8-.6 2-.6 2.8 0 4.5-1.3 5-3.9 0-.4.3-1 .9-1.6 2.3-2.5 1.9-4-2.4-8.9a4 4 0 0 1-.9-2 41.3 41.3 0 0 0-.7-2.9c-.2-.8-.6-1.4-1-1.4-.5 0-.8-.4-1-1.2 0-.8-.4-1-2.8-1.2-1.3 0-1.7-.2-2.4-.6-1-.6-2.6-.8-3.5-.4M40 17.8l1.2.6c.3.3 1 .4 2.3.5 2.2.2 2.5.4 2.7 1.5 0 .5.2.6.7.7.3 0 .6.3.7.4l.8 3c.3 2 .6 2.3 3.5 5.8 1.8 2.1 1.8 3.8 0 5.7-.4.5-.8 1.1-1 1.8-.8 2.9-1.6 3.5-4.4 3.5-1.4 0-1.4 0-2.4.8-2.5 2-4 1.9-6.4 0l-.8-.6h-2c-2.3 0-2.8-.3-3.5-1.4-.1-.3-.6-.7-1-.9a4.9 4.9 0 0 1-1.8-3.2c0-.5-.2-.7-1-1.5-2.2-2.1-1.8-4.4 1.6-8 1.3-1.4 1.6-1.8 1.9-3.4.8-3.9.8-4 3-4.1 1.5-.1 1.8-.2 2.9-.8 1.4-.8 1.9-.8 3-.4m123.6 0l1.3.6c.4.3 1 .4 2.5.6 2.2.2 2.4.3 2.5 1.3.1.5.3.7.8 1l.8.3.6 2.7a10 10 0 0 0 1 3 22.4 22.4 0 0 0 2 2.5c2.4 2.4 2.5 4.2.6 6.3-.5.5-.8 1-.8 1.1l-.3 1.2c-.7 2.3-1.7 3-4.2 3-1.6 0-1.7 0-2.4.6-2.2 2-4.6 2-6.6 0-.7-.6-1.3-.7-2.5-.3-.3 0-.7.1-.8 0a6 6 0 0 0-1-.3c-.8-.1-1-.3-1.6-1-.3-.4-.9-.9-1.2-1a3.9 3.9 0 0 1-1.6-2.3l-.2-.6-.2-.7c0-.5-.1-.7-.7-1-2.6-1.9-2-4.5 1.8-8.7a6 6 0 0 0 1.1-1.5l.3-1.1.3-1.3c.6-3 .6-3 2.7-3.2a6 6 0 0 0 3-.8c1.6-.8 1.7-.8 2.8-.4m63.7 0l-.2.4c0 .2 0 .2.2 0 0-.3.3-.5.6-.5.5-.2.5-.2 0-.2l-.6.2m24.5-.1c.3 0 .6.2.6.4v-.1c0-.2-.1-.3-.5-.4-.6 0-.6 0 0 .1m50 0l.6.1h.6c-.1-.2-1.2-.3-1.2-.1m26.5.1l-.2.8c0 .5 0 .5.2-.1 0-.5.2-.7.6-.7.5-.1.5-.2.1-.2l-.7.2m24.4 0l.7.2c.1.2.1.1 0 0 0-.2-.2-.3-.6-.3-.5 0-.5 0 0 0M245.2 19l-.3.5.5-.5c.3-.2.4-.4.3-.4l-.5.4m101.1 0l-.3.5.5-.5c.3-.2.4-.4.3-.4l-.5.4m-50.8.7c-.3.7-.2.8 0 .2l.3-.6-.3.4M41 20l.5.6.6.5-.5-.6-.6-.5m261.8.2v.6c-.2.3-.2.3 0 0 .1-.2.2-.4.1-.6 0-.3 0-.3 0 0m-194 1l-.6.6.6-.6.7-.7-.7.7m126.2-.6s0 .4.2.6l.3.3a2 2 0 0 0-.3-.6l-.2-.3M237.3 22.5l.3.6.3.3a2 2 0 0 0-.3-.6l-.2-.3m-131.5 1.7l-.6.6.6-.6.7-.7-.7.7m145 .4l-.4.6.5-.5.5-.6-.5.5m78.3-.5c0 .1.2.4.5.6l.5.5-.5-.6-.5-.6v.1M142 25.7l-.5.5.5-.5.6-.6-.6.6m100 1.2c0 .3.5 1.2.9 1.2 0 0 0-.2-.3-.4-.4-.3-.5-.5-.4-.8.1-.5 0-.5-.2 0m-195 0l.5.6.6.5-.5-.6-.6-.5m296 .1c0 .2.3.5.5.7l.5.5-.4-.5-.4-.7c-.1-.2-.1-.2-.1 0m-313.2.8l-.5.6.6-.6c.5-.4.6-.6.5-.6l-.6.6m123.7.2l-.7.7.8-.7.7-.7c0-.2-.1 0-.8.7m-14 0l-.6.7.6-.6.7-.7-.7.6m92.1-.4l.6.3-.2-.3a2 2 0 0 0-.7-.2l.3.2m-60.2.2l.6.6.6.5-.5-.6c-.5-.5-.7-.6-.7-.5M155.3 30c-.2.2-.2.2.1 0 .3-.2.5-.2.7 0 .3.3.3.3.1 0-.3-.4-.6-.4-1 0m87.3.4V30v.3m101 .7c-.2.5-.2.6 0 .3s.3-.8.2-.8l-.3.5m-169.6.2c0 .5.1.5.2.2l-.1-.6c-.1-.1-.1 0 0 .4m48.8-.5l.5.5.6.3-.6-.5-.5-.3m-62.3.6l.2.7.1.5V32a1 1 0 0 0-.2-.7c-.3-.2-.3-.2-.1 0m-114.5.7l.5.6-.3-.6a2 2 0 0 0-.5-.5l.3.5m292.7-.4l.6.5.6.6-.5-.6c-.5-.5-.7-.7-.7-.5m-95.8 1c-.2.2-.2.2 0 0l.6-.3c.4 0 .4 0 0 0-.2 0-.5 0-.6.2m101 .2l-.5.5.4-.4.8-.5c.4 0 .4 0 0 0-.2 0-.5.1-.8.4m-209.6.7l-.6.7.7-.6.6-.7-.7.6m209.1.2l.2.6c.1.2.2 0 0-.3 0-.7-.2-.8-.2-.3m4.3 0l.6.2-.3-.3a2 2 0 0 0-.6-.2l.3.2m-108.3.4c0 .1.3.2.8.2s.8 0 .6-.2h-1.4m8.4.2l.6.2-.3-.2a2 2 0 0 0-.6-.3l.3.3m43-.2c.4 0 .8.2 1 .3.2.2.2.2 0 0-.2-.3-.5-.4-1-.4h-.6l.6.1m49.6.2c-.2.3-.2.3 0 .1.4-.3 1.3-.3 1.7.1.3.3.3.3 0 0-.4-.6-1.4-.6-1.7-.2m-299 .5c.2.7.3.8.3.3 0-.1 0-.4-.2-.6v.3m90.4 1.3l-.7.6.7-.6c.6-.5.7-.7.6-.7l-.6.7M30.4 37.2c0 .1.2.4.5.6l.5.4-.5-.5-.5-.6v.1m1.4 1.2H33.5h-1.7m124.3 0h.4-.4m79.2.9c-.3.6-.3.8 0 .2.2-.3.3-.5.2-.6l-.2.4m67.4 0c0 .5.3 1.3.3.9l-.2-.7c0-.2-.1-.3-.1-.1m-9 0c0 .2 0 .4.2.7l.3.3a2 2 0 0 0-.3-.7l-.2-.2m59.4.6c0 .3 0 .5.1.3v-.6.3m-190.3.2c-.4 0-.4.1 0 .1l.5-.1c.3-.2.1-.2-.5 0m89.1 0c0 .3 0 .5.2.7v-.3c-.1-.6-.2-.8-.2-.3m-125.8 1l-.6.7.6-.6c.7-.6.8-.7.6-.7l-.6.7m202 .7c.1.4.2.6.4.7.2 0 .2 0 0-.1l-.3-.7c0-.5 0-.5 0 0m-25.1.2c0 .2-.1.4-.3.5-.1 0-.1 0 0 0 .3.1.5-.3.4-.6 0-.2-.1 0-.1.1m-228 4.2l-3.8 4 4-4c3.6-3.6 4-4 3.8-4l-4 4M124 44l7.7 8 7.7 7.6-7.6-7.7a269 269 0 0 1-7.8-8m168.7 1.3l-.3.5.5-.5.2-.5-.4.5m-2.5 2.3c.2.4.8.5 1 .2h-.3c-.2 0-.5 0-.6-.2-.3-.2-.3-.2-.1 0M67.9 54l-3.4 3.4 3.4-3.4a183.5 183.5 0 0 0 0 0M62.8 59l-1.5 1.5 1.5-1.4c1.4-1.3 1.5-1.5 1.4-1.5L62.8 59m-25-1c-.5.1-1 .5-1.3.7-.6.4-.9.5-2.4.5-2.1.1-2.4.3-2.6 1.5a66.5 66.5 0 0 1-1 4.1c0 .3-.9 1.4-1.8 2.4-3.3 3.7-3.6 6.1-1.2 8.1.6.5.8.8.9 1.3.2 1.5 1.4 3.5 2 3.5.2 0 .6.4 1 .8 1 1.3 1.4 1.4 3.6 1.4 1.7 0 1.9 0 2.5.5 2.6 2 4 2 6.6.2.8-.7 1-.7 2.4-.8 2.7-.1 4-1 4.5-3.1l.3-1.2c0-.3.4-.8.8-1.1 2-2 1.8-4-.3-6.6-2.7-3-2.6-3-3.5-6.7-.4-1.7-.5-1.9-1.2-1.9-.5 0-.5 0-.7-1.2-.2-.9-.6-1-2.5-1.2a6 6 0 0 1-3.1-.8c-1.4-.7-2-.8-3-.4m123.8 0c-.3.1-1 .4-1.3.7-.6.4-1 .5-2.6.6-2.3.1-2-.3-3 4.2-.4 1.7-.5 1.8-2.3 3.8-3 3.6-3.5 6.2-1.1 8 .3.3.7.7.7 1 .5 2 1.2 3.3 2.3 3.8.4.2.7.5.7.6 0 .2.7 1 1.3 1.3.4.3.8.3 2.4.3h2l.8.7c2.2 1.8 4 1.8 6.4 0 .9-.7 1-.7 2.2-.7 2.9 0 4.4-1.3 5-4 0-.6.3-1 .9-1.7 2.3-2.4 1.8-4.1-2.5-8.8-.4-.4-.6-.9-.8-2a22.7 22.7 0 0 0-.7-2.8c-.2-.8-.6-1.4-1-1.4s-.9-.5-.9-1c0-1-.3-1.2-2.4-1.4-1.8 0-2-.1-2.8-.6-1.4-.9-2.2-1-3.3-.6M41 58.8c.7.5 1 .6 2.7.7 2.2.2 2.1.2 2.4 1.3.2.8.4 1 .7 1 .8 0 1 .7 1.6 3.3.3 1.6.7 2.3 2.5 4.5 2.8 3.4 3 4.9 1.1 6.9a6 6 0 0 0-1.3 2.8c0 1.4-1.6 2.4-4.1 2.6-1.7.1-1.9.2-2.5.7-2.1 2-4 2-6.7-.2-.4-.3-.7-.4-2.2-.3-2 0-2.5-.2-3.8-1.4l-1.5-1.5c-.7-.6-1.3-2-1.3-2.8 0-.3-.2-.7-.9-1.2-2.3-2-1.9-4.4 1.3-8 1-1 1.8-2 1.8-2.3a54 54 0 0 1 1.3-5c0-.2 1-.3 1.9-.3 1.6-.1 1.9-.2 2.5-.7 1.4-1 3.1-1 4.5 0m123.8 0c.9.5 1.2.6 2.7.7 2.2.1 2.2.1 2.4.8.2 1 .2 1.2.8 1.4.7.2.8.4 1.5 3.2.4 1.9.7 2.6 1 2.8l2.7 3.3c1.6 2 1.5 3.8-.2 5.5-.6.5-.8 1-.8 1.3 0 .2-.1.7-.3 1l-.2.7c0 1.2-2.2 2.3-4.5 2.4-1.2 0-1.3 0-2.2.7-2.2 1.9-4.2 1.8-6.4-.2-.4-.4-.6-.4-2.3-.4-2.3 0-2.9-.2-3.7-1.4-.3-.4-.7-.7-.8-.7-.7 0-2.2-2.7-2.2-3.9l-1-1.3-1.2-1v-1.3c0-1.2.7-3.2 1.3-3.7a33 33 0 0 0 3-3.5 20.6 20.6 0 0 0 .9-3.2l.3-1.3c.1-1 .2-1 2.4-1.2 1.5-.2 2-.3 2.6-.7 1.4-1 2.6-1 4.2 0M41.4 61l.8.7-.6-.7a5 5 0 0 0-.8-.7l.6.7m-7.8-.2v.2c.4-.1.7 0 .7.2l.1.4v-.3c0-.4-.6-.8-.8-.5m9.8.1c-.2.3-.2.3 0 .1.4-.3.7-.2 1.2.1.3.3.3.3 0 0-.4-.5-.9-.6-1.2-.2m123.9.1l-.4.4.4-.3.6-.2h.3c0-.2-.6-.2-1 .1M60 61.6c-.9 1-1.3 1.2-1.5.9-.1-.2-.2-.2-.1 0 .1.5.5.4 1.5-.6l1-1-.9.7m57 9.4c6.4 6.5 8.8 9 8.7 9.2 0 .3-2.1.3-23.2.2l-23 .1c.3.4 46.1.1 46.3-.2.2-.3-1-1.6-8.8-9.3l-9-9 9 9m37.8-3.7l-.7.8.7-.7c.7-.7.9-.8.7-.8l-.7.7m16.1.2l.9.8-.8-.9-.9-.8.8.9m-17.5 1.4l-.6.6.6-.6.6-.5c0-.2-.2 0-.6.5m-67.7 4.7l-4 4 4-4 4-4-4 4m88.1-1.8c0 .4.1.7.2.6l.1-.6-.1-.5c-.1 0-.2.2-.2.5m-13.1.6c0 .5 0 .5.1.2V72c-.2-.1-.2 0-.1.4m-125.3 1v.7c-.2.3-.2.3 0 0 .1-.2.2-.5.1-.6 0-.3 0-.3 0 0m12.2 1.4l.3.7c0 .2.1.2.1 0l-.2-.7c-.3-.3-.3-.3-.2 0m-17.7.8v-.3.3m50.2 3.1l-1 1.2 1.2-1.1c1.4-1.6 1.3-1.6-.2 0M36 78.3c0 .5 0 .7.4 1l.5.5-.4-.5c-.2-.2-.4-.7-.4-1v-.6l-.1.6M165 79.7l-.5.5.5-.5.6-.6-.6.6m-43 10.2c-.8.4-1.6 1.2-2.2 2l-.3.4-1.5-.2c-3.7-.4-4.7.8-4.2 5 0 .4 0 .4-1 .5-3.8.1-5 5.8-1.6 6.9.9.3.7.7-.6 1.6-3.1 2.4-3.1 4.3 0 6.4 1.3.8 1.4.9.8 1.8-1.9 2.7-.5 4.8 3 4.4l1-.1-.1.7-.3 1.9c-.2 1.3-.1 2.3.3 2.8.2.4 2.7.5 3.4.1a165.5 165.5 0 0 0 3-1.2 50.1 50.1 0 0 1-.4 12.8 22.2 22.2 0 0 1-1 6.6c-.4 1.3-1.8 3.2-3.3 4.7-1.8 1.6-1.8 1.8-.2 1.2 3.2-1.3 3.8 0 1.5 3.3-2.3 3.4-2.4 4.4-.1 1.4l1.7-2.3c2.6-3.4 4-3.5 5.7-.2.8 1.4 1 1.4 1.2.1 0-1.6 1-2.2 2.2-1.3 2.1 1.6 4.2 2 2.2.3a16.3 16.3 0 0 1-6.4-9.7c-.2-1.9-.5-11.5-.4-14.2.2-3 .1-3 1.7-2.3 3.1 1.5 4.1 1 4.2-1.7 0-2.3 0-2.3 2-2.3 3.2 0 4.2-1.5 2.9-4.3-.8-1.8-.5-3 .8-3 1 0 2-1.6 2-3.5 0-1.4-.4-2.4-2-3.8-1-1-1-.9 0-2 2.3-3 1.4-5.8-2-6.7-1-.2-1.3-.4-1-.9.3-.6.2-2.7-.2-3-1-1-1.9-1-3.4 0-1.4.9-1.7.8-1.7-.2 0-1.6-4-3-5.7-2m-55.3 9.7c-.5.3-1.3.4-1.6.1-.1-.1-.5 0-1.3.4l-1 .6v1.5l.3 2.2.2 1.5c0 .5 0 1 .2 1.4.4 1 .5 3.3.2 4-.3.9-.1 1.5.5 2.1.4.4.5.4 4.4.4h4l.5-.5c.5-.7.7-1.2.5-2-.2-1 0-3.8.3-4.3l.3-1.5a1291.6 1291.6 0 0 1 .7-4c.3-.6 0-1-.5-1l-.8-.5c-.6-.5-.7-.5-1.2-.3-.8.3-1.2.2-1.6 0-.4-.4-.8-.4-1.4 0-.6.2-1 .3-1.3 0-.3-.3-.9-.3-1.4 0m19.6 0c-.4.2-1.2.3-1.7 0-.3-.1-.4 0-.8.2l-1 .5c-.5.2-.6 1-.3 2.9a57.3 57.3 0 0 1 .7 8.3c-.2.4-.1 1 .5 1.7l.4.5h4c4 0 4 0 4.4-.4.8-.8 1-2 .6-2.5a175.5 175.5 0 0 0 .8-5.7c.6-3 .6-4.7.2-4.7a3 3 0 0 1-1-.5c-.5-.5-1-.6-1.1-.3-.2.3-1.2.2-1.6 0-.5-.4-.7-.4-1.5 0-.5.2-.6.2-1.2 0-.7-.4-1-.4-1.4 0m-49 2.2l-1.2.7c-.2.2-1 .4-2.2.5-2.1.2-2.3.3-2.5 1.2a35 35 0 0 1-1 4c-.1.8-.4 1.2-2 3-3 3-3.4 5.7-1.1 7.7.7.7.9.9 1 1.7.3 1.5 1.6 3.4 2.3 3.4.1 0 .4.3.6.7.8 1.1 2.6 1.7 4.4 1.4l1-.2.7.6c2.3 2 4.4 2 6.7.1.8-.6 1-.6 2.5-.7 2.8-.2 3.9-1 4.5-3.5.3-.9.5-1.4 1-2 2.2-2.3 2-3.7-1.1-7.4l-1.9-2.2-.5-2.5c-.7-2.9-.7-2.9-1.5-3.1-.4-.1-.6-.3-.7-.7-.2-1.3-.4-1.4-3.1-1.6-.9 0-1.7-.2-1.8-.4a3.7 3.7 0 0 0-4-.7m123.8 0l-1.3.8c-.2.1-.9.3-2.2.4-2.3.2-2.2 0-2.8 3-.8 3-.8 3-2.6 5-3 3.4-3.5 6.3-1.2 8 .5.3.8.7.8 1 .5 1.9 1 3 1.9 3.5l1.4 1.3c1 1.2 2.5 1.7 4 1.3 1.1-.2 1.2-.2 2.6.9 2 1.5 4 1.4 6.2-.5.7-.5.8-.5 2.4-.6 2.8-.2 4.6-1.8 4.6-4.2 0-.2.3-.6.6-1 2-2 2.1-4.1.1-6.4a42.7 42.7 0 0 1-2.3-2.9c-.3-.3-.6-.9-.8-1.8a32 32 0 0 0-.7-3c-.2-.8-.5-1.3-1-1.3-.4 0-.9-.6-.9-1.1 0-.9-.3-1-2.4-1.2-1.6-.2-2.2-.3-2.7-.6-1.6-1.1-2.3-1.2-3.7-.6m-120.3.7c.6.4 1.2.6 3.4.8 1.3.1 1.4.2 1.7 1.3.2.6.4.7.9 1 .6.1.6.1 1.1 2.1.8 3.2.8 3.2 2.5 5.2 3 3.7 3.4 5.2 1.5 7.2-.8.8-1.1 1.5-1.3 2.5-.4 2-1.8 3-4.3 3-1.3 0-1.5 0-2 .4-2.6 2.2-4.4 2.2-7 .2-.7-.6-.9-.6-1.4-.5-1.8.5-4-.1-4.6-1.3a2 2 0 0 0-.8-.8 3.8 3.8 0 0 1-1.6-2l-.3-.5-.2-.8c0-.6 0-.8-.9-1.4-1.1-1-1.4-1.5-1.4-2.9 0-1.7.5-2.6 2.7-5 1.5-1.6 1.7-1.9 2-3.3a32.1 32.1 0 0 1 .7-3c.2-1.2.3-1.2 2-1.4 1.8-.1 2.2-.2 3-.8 1.7-1 2.6-1 4.3 0m122.6-.6l1.1.6c.6.4 1.5.6 3.4.8 1.7.2 1.7.1 1.8 1 .1.9.3 1 1 1.2.5.1.6.3 1.3 3.1.5 2.2.8 2.9 1.2 3.2.2.2.6.5.8.9l1 1.1c2.3 2.5 2.4 4.6.5 6.6-.5.4-.8 1-.8 1 0 .4-.6 2-.9 2.6-.6 1.1-1.6 1.6-3.5 1.6h-1.6l-1 .7c-2.5 1.9-4.2 1.9-6.3.1-.9-.7-1-.8-2.6-.6-1.5.2-2.8-.2-3.5-1.2-.3-.4-.8-.9-1.2-1-1-.6-2-2.6-2-3.8 0-.2-.3-.6-.8-1-2.2-1.5-1.5-5.5 1.3-7.9.7-.6 1.7-1.9 1.8-2.4 1.2-5.4 1-5.2 3.1-5.2a5 5 0 0 0 3.3-1 3 3 0 0 1 2.6-.4m-122 3l.8.7-.6-.7-.8-.7.6.7m-7.2.4l.3.5-.2-.5-.3-.6.2.6m121.3 4.3l-.5.8c-.4.5-.4.5 0 .3.4-.5.7-1 .6-1.2l-.1.1m-108.4 1.9l.6.6.6.5-.5-.6c-.5-.5-.7-.6-.7-.5m17.8 3.9c-.2 0-.3.2-.3.6v.5h4c4 0 4.5-.1 4-1-.2-.2-7-.4-7.7-.1m19.6-.1c-.5 0-.6.8-.2 1 .4.3 7.1.4 7.7 0 .3-.1.4-.8 0-.9-.2 0-7-.2-7.5-.1m-49.1.3c-.1.1 0 .3 0 .4v-.2c0-.1.3-.3.5-.3l.4-.1H36c-.3 0-.5 0-.5.2m124.8 0l.2.8.1.4v-.4a1 1 0 0 0-.2-.7c-.3-.3-.3-.3-.1 0m-119.2 2.8c0 .5.3 1.2.3.8 0-.2 0-.5-.2-.7 0-.2-.1-.3-.1-.1m24 .5c-.3 1-.3 1 .3 1.3.7.2 5.8.2 6.4 0 .4-.2.5-.3.5-.9 0-1 0-1-3.7-1h-3.3l-.2.6m19.6-.5c-.5 1.8-.2 2 3.4 2 3.4 0 3.8-.1 3.8-1.2 0-.5-.1-.8-.3-.9-.6-.2-6.8 0-6.9.1m-49 3.6c0 .4.2.7.4.8.2.2.2.2 0 0a2 2 0 0 1-.2-.8v-.5l-.1.5M77 132c-.5.3-.7.3-1.3.2-.6-.2-.8-.2-1.4.2a3 3 0 0 1-.9.5c-.3 0-.5.6-.3.9l.2 1.6.4 3c0 1 .2 1.9.3 2.1.3.7.3 2.9 0 3.4-.2.4 0 1.3.5 1.8l.4.4h8.1l.5-.4c.5-.6.7-1.1.5-2-.2-1.1 0-4 .4-4.5l.2-1.3.7-4c.4-1-1.3-2-2.8-1.8-.7.1-1 0-1.3-.2-.5-.3-.5-.3-1.4 0-.9.3-1 .3-1.5 0-.6-.3-.5-.3-1.3.1M37.4 145l-1.1.6c-.4.3-1 .4-2.4.5-2.2.1-2 0-2.9 3.3-.7 3-.6 2.8-2.9 5.3-2.6 2.8-2.9 5.9-.7 7.3.6.4 1 1.2 1 1.7 0 1 1.1 2.8 2 3.2.3 0 .7.5 1 .9.7 1.1 2.2 1.6 4.3 1.4 1-.1 1.1-.1 1.6.3 2.6 2.2 4.6 2.2 7 .2.6-.6.7-.6 2.3-.7 2.8-.2 3.8-1 4.5-3.5a4 4 0 0 1 1.1-2c2-2.2 1.8-3.8-1.3-7.5l-1.7-2.1-.6-2.5c-.8-3-.8-3-1.5-3.1-.5-.1-.6-.2-.7-.8-.2-1.2-.4-1.3-2.5-1.4-1.5-.1-2-.2-2.5-.5-1.5-1-2.8-1.2-4-.6m123.9 0l-1.2.6c-.5.3-1 .4-2.4.5-2.2.1-2 0-2.8 3.2-.7 3-.6 2.7-2.2 4.5-3.4 3.7-3.8 6.3-1.5 8.3.8.6 1 .9 1 1.3 0 1 1 2.8 1.9 3.4.4.3 1 .7 1.1 1 .7 1.1 1.2 1.3 3.4 1.3l2 .1 1 .7c2.2 1.7 4 1.6 6.3-.1.9-.7 1-.7 2.6-.8 2.8-.2 4.6-1.8 4.6-4.2 0-.2.3-.6.6-1 1.6-1.5 2-3 1.2-4.8-.4-.8-.8-1.3-3-4-.8-.9-1-1-1.5-3.4-.7-3.1-.6-3-1.8-3.4-.4-.2-.5-.3-.5-.8 0-1-.2-1.1-2.4-1.3-1.7-.2-2-.3-3-.8-1.4-.7-2.3-.8-3.4-.3m-121.5 0l.7.3.7.5c.5.3.8.4 2.2.5 2.1 0 2.5.2 2.7 1.3.2.6.3.8.7.9.8.1 1 .4 1.5 3.2.4 2 .9 2.7 3 5.3 2.4 2.7 2.5 4.4.7 6.3-.7.6-1 1.3-1.2 2.4-.4 2-1.8 3-4.2 3-1.4 0-1.6 0-2.9 1-2.2 1.7-3.6 1.6-6-.2l-.9-.7-1.5.1c-2 .1-3-.2-3.7-1.2-.2-.4-.7-.8-1-1-.9-.5-2-2.2-2-3.3 0-.4-.2-.8-1.1-1.7-1.2-1.2-1.3-1.3-1.2-3 0-1.3 1-2.8 2.7-4.6 1.4-1.5 1.7-2 2.3-4.3l.5-2.5c0-.6.8-1 2.5-1 1 0 1.7-.2 1.8-.3 1.3-1 2.8-1.4 3.7-1m124.4.4l1.2.7 1.5.1c2.2 0 3 .4 3 1.5 0 .4.2.5.8.8.7.3.8.5 1 1 .2 1.5 1 4.4 1.1 4.7l2.5 2.9c2.1 2.5 2.3 4.4.4 6.3l-.8 1.1c0 .5-.7 2.4-1.1 3-.6.7-1.6 1.1-3.4 1.2-1.2 0-1.6.1-2 .4-3 2.3-4.3 2.3-6.9.4l-1-.7-1.1.1c-2 .2-3-.1-4.1-1.3a14 14 0 0 0-1.4-1.3 6 6 0 0 1-1.6-3.2c0-.2-.4-.8-1-1.4-2-2-1.6-4.3 1.4-7.5l1.3-1.5c.4-.4.8-1.6 1.1-3.2.7-3.2.6-3 3-3.2 1.3-.1 1.8-.2 2.2-.5 1.6-1 2.5-1.2 4-.4m-2.2 1h1c0-.1-.2-.2-.5-.2-.2 0-.4 0-.5.2M44.6 148l.3.6c0 .2.1.2.1 0l-.2-.6c-.3-.4-.3-.4-.2 0m30.7.1c-.4 1-.3 1 3.8 1s4.5 0 4.1-1c-.1-.3-7.8-.3-8 0m.4 3.3c-.5 1.5-.5 1.4 3.5 1.4 3.6 0 3.7 0 3.7-.8 0-1.3 0-1.3-3.7-1.3h-3.3l-.2.7m-29.5 1.8l.6.6.5.5-.5-.5-.6-.6m107.9 1.6l-.5.6.5-.5c.6-.5.7-.7.5-.7l-.5.6m18.2.9l.7.7s-.2-.4-.6-.7l-.7-.7.6.7m-143.3.5c-.3.3-.5.5-.4.6 0 0 .3-.2.5-.6.7-.7.6-.7-.1 0m15.9 1.3c0 .2 0 .4.2.6.2.3.3.3 0 0v-.6-.3l-.2.3m129 1v.7c.2 0 .2-1 0-1.2v.6m-138.2.2V159c0-.2.3-.3.7-.4h.5-.6c-.3-.1-.6 0-.6.2m123.8-.1l-.2.4.2-.1c.1-.2.4-.4.7-.4h.4l-.4-.1c-.3 0-.6 0-.7.2m1.2.5c0 .3 0 .5.1.3v-.6.3M41.2 162c.1.8.2 1 .2.3 0-.2 0-.5-.2-.6v.3m-6.3.4v-.3.3m.9 2.8v-.3.3m131-.4c0 .6 1.6 1 2.3.6h-.7c-.9 0-1 0-1.3-.4l-.2-.2m-123.4.6l1 .1h.7l-1-.1h-.7m-1.7.1l-.4.7-.4.5.5-.5.4-.7c-.1-.2-.1-.2-.1 0m-9.6.2h.8l-.4-.1h-.4m123.8 0c.3.1.6.1.8 0h-.8m-117.4 2h.3-.3m123.8 0H162.8h-.3m-90.7 6l-1 .6a6 6 0 0 1-2.4.5c-2.3.2-2 0-2.7 2.7-.8 3.2-.9 3.4-1.3 3.9-2.8 3-3.4 3.8-3.8 5.1-.5 1.8-.2 3 1.1 4.2.7.6 1 1 1 1.5.3 1.2 1 2.6 2 3.3.5.3 1 .9 1.2 1.2.6.9 1.6 1.2 3.7 1.2h1.7l1 .7c2.3 1.8 4.2 1.7 6.5-.2.6-.6.8-.6 1.7-.6 3 0 5.3-1.8 5.3-4.4 0-.2.3-.7.8-1.1 2.4-2.6 2-3.8-2.3-8.8-.4-.4-.7-1-.9-1.8a61.2 61.2 0 0 0-.7-3c-.2-1-.5-1.5-1.2-1.7-.5-.1-.6-.3-.7-.9-.3-1-.4-1.1-2.5-1.3-1.6-.2-2-.3-3-.8-1.4-.7-2.4-.8-3.5-.3m54 0l-1.3.7c-.3.2-1.2.3-2.2.4-2.2.2-2 0-2.9 3.4-.6 2.5-.7 2.8-1.3 3.5-2.3 2.5-2.7 3-3.2 4.1-1 2.1-.7 3.5.9 5 .7.6.9.9 1 1.4.1 1 .9 2.5 1.6 3 1 .8 1.1 1 1.6 1.6.7.9 1.5 1.1 3.6 1.1h1.7l1 .7c2.3 1.8 4 1.7 6.4-.2.7-.6.9-.6 1.8-.6 3 0 5.3-1.8 5.3-4.5l.5-.8c2.4-2.1 2.2-4-.6-7.3-2.3-2.6-2-2.2-2.7-5.1-.7-2.8-.6-2.7-1.5-3-.5-.3-.6-.4-.7-1-.2-1-.4-1.1-2.5-1.3-1.6-.2-2-.3-3-.8-1.4-.7-2.5-.8-3.5-.2m-51.5 0l1.4.8c.5.3 1 .4 2.4.5 2 .1 2.3.3 2.5 1.2.1.6.5 1.2 1 1.2.4 0 .6.4.8 1.4.7 3.4 1 3.8 2.4 5.6 3.4 4 3.7 5.3 1.7 7.5-.6.6-1 1.2-1.1 2-.9 2.7-1.6 3.3-4.2 3.4-1.5 0-1.9.1-2.2.4-2.4 2.2-4.4 2.3-7 .3-.8-.6-1-.7-1.3-.5-.6.2-2.9.2-3 0l-.4-.2a101.1 101.1 0 0 0-3-2.7c-.7-.6-1-1.4-1.3-3-.1-.2-.5-.7-1-1-2.3-2-1.7-4.5 1.9-8.4 1.2-1.3 1.3-1.4 1.4-2.2a40.7 40.7 0 0 1 .8-3.7c.2-1 .5-1.2 2.3-1.3 1.4 0 1.7-.1 2.7-.6a7.4 7.4 0 0 1 2.3-.9l.9.3m55 .5c1 .5 1.3.6 2.8.7 2 .1 2.3.3 2.5 1.3 0 .6.2.8.7 1l.7.3.4 1.5a55 55 0 0 0 1 3.5l.7 1c4.1 4.7 4.5 6 2.3 8.4a5 5 0 0 0-1 1.9c-.9 2.7-1.7 3.4-4.4 3.4-1.6 0-1.6 0-2.4.7-2.4 2-4 2-6.5 0-.8-.5-.8-.5-2.3-.4-1.7 0-2.8-.2-3.5-1a15 15 0 0 0-1.8-1.7c-.7-.5-1.4-2-1.6-3.2 0-.3-.2-.7-.3-.7a6 6 0 0 1-1-1l-.9-.8V188c0-1.8.6-3 2.7-5.2 1.7-1.9 1.7-1.9 2.3-4.6.8-3.2.7-3 2.7-3.2 1.4 0 1.7 0 2.7-.7 1.6-.9 2.6-.9 4.2 0m-6.2 3.1c.4.4.7.4 1 0 .2-.3.2-.3 0 0h-.9c-.4-.2-.4-.2-.1 0m-4 5.6l-.6.6.6-.5.6-.6c0-.1-.2 0-.7.5m16.4-.1l.5.6.6.5-.5-.6c-.5-.5-.6-.7-.6-.5m-71.8 1.7l-.5.6.6-.5.5-.6-.6.5m70 1.2l-.4.4.4-.2.6-.2v-.1c-.1-.3 0-.3-.6.1m-4.5 1.6v.8c.2.5.2.4.2-.3 0-1 0-1-.2-.5m-5 0H125c0-.2-1-.2-1 0m12.7 1.6l.5.2c.3 0 .5 0 .5-.2h-1M71 190v-.3.3m53.8.5c0 .4 0 .5.1.3v-.6.3m-47 3.5l.6.4c.3 0 .3 0 0-.1l-.6-.4c-.3-.3-.3-.3 0 .1m46.4.1l.1.5s.1-.1 0-.4c0-.6-.1-.7-.1 0m-48 0l-.4.9-.4.4.5-.4c.3-.3.4-.6.4-.9v-.4l-.1.4m3.2 0c-.5.1-.5.2 0 .2.2 0 .5 0 .6-.2.3-.2.2-.2-.6 0m54 0c-.5.1-.5.2 0 .2.2 0 .5 0 .6-.2.3-.2.2-.2-.6 0m-3.6.8l-.4.5.5-.4c.3-.3.5-.5.4-.6l-.5.5m-1.6 1.1l-.8.2c-.7.2-.7.2-.1.2l.8-.2.3-.3-.2.1m85.7 35.7v7.1a1293.3 1293.3 0 0 0 0-7.1m-37 0a1277.3 1277.3 0 0 0 0 0m5.7-9.7l.8.3.5.3-.4-.4a1 1 0 0 0-.8-.4c-.3 0-.3 0 0 .2m5.5 0l-.2.2c0 .1.1.1.2 0l.6-.2.4-.1h-1m3 0l.6.4c.4.4.4.2 0-.2a1 1 0 0 0-.7-.3c-.3 0-.3 0 0 .2m3.5-.1l.6.5.5.4-.4-.5-.6-.5h-.1m8.5.1c.3 0 .5.2.6.4l.4.2-.2-.3-.8-.4c-.3 0-.3 0 0 .1m4.3.3l-.2.3c.1 0 .3 0 .3-.2l.5-.3c.3-.1.3-.2.1-.2l-.7.4m-20.5 8.2v3.4a258.4 258.4 0 0 0 0-3.4m6.3-.2v3.2a245 245 0 0 0 0-3.2m12-1.2v2.4a126 126 0 0 0 0-2.4m10.9 11.4a126.4 126.4 0 0 0 .1-.1V232l-.1 8.4m-195 7.7v7.2a1325.6 1325.6 0 0 0 0-7.2m173-11.6v-.3.3m-6.6 1.7l.6.4-.5-.5-.5-.5.4.6m5 .7h1-1M60 239h1.8l-1-.1H60m31.4 0h.9-1m15.4 0H107.6h-1m176.5 0h.4-.4m15.3 0h.5-.5m35.3 0H334h-.3m-204 .8l.5.4s-.1-.3-.4-.5l-.5-.5.4.6m118.5-.4h.4-.4m49.3 0l.6.4.6.5-.5-.5c-.2-.3-.5-.5-.6-.5 0 0-.1 0 0 0m17.8 0l.6.5.5.5-.4-.5-.6-.5h-.1m-197 .3c.3.2 1.6.3 1.4.2 0 0-.4-.2-1-.2h-.5M59.6 240.2c0 .4 0 .5.1.3v-.6c-.1-.2-.1-.1-.1.3m74.1-.4h.8-.8m-72.9.8l-.7.7.8-.7c.7-.6.8-.8.7-.8l-.8.8m78.6-.5l.6.5.6.5-.5-.5c-.5-.6-.7-.7-.7-.5m114.2.9c0 .5 0 .6.1.4v-1 .6m7.6 0l-.6.7.7-.6.7-.7c0-.1-.2 0-.8.6M92 247.1v3.5a267.6 267.6 0 0 0 0-3.5m189.3.4v3.5a296.5 296.5 0 0 0 0-3.5m-207.3-1.8v2.5a145.5 145.5 0 0 0 0-2.5m40.2 1.7v3.4a274.7 274.7 0 0 0 0-3.4m16.2 0v3.3a267.6 267.6 0 0 0 0-3.4m170.6-3.9c0 1.6 0 2.2.1 1.4a40.3 40.3 0 0 0 0-1.4m15.5 3.8v3.3a260.6 260.6 0 0 0 0-3.3m-6.5-5.4v.5c.2 0 .2-.2.2-.5v-.4l-.2.4m-234 4v2a98 98 0 0 0 0-2m56.4-2.1c0 1.2 0 1.7.1 1.1a23.9 23.9 0 0 0 0-1.1M86 246.5c0 2.7 0 3.8.1 2.5a130.8 130.8 0 0 0 0-2.5m19.2-4.5c-.4.3-.4.3 0 .1.6-.3.6-.2.6 6v6.1l.1-5.8c.1-6.9 0-7-.7-6.4m35.5.2c.1.7.2.8.2.3 0-.1 0-.4-.2-.6v.3m-106.8.4V242.3v.3m58.9-.2l-.2.3h.2c.2-.2.4-.2.5-.1.1 0 .2 0 0-.1 0-.2-.2-.2-.5 0m58.3.3c-.2.4 0 .4.3 0 .2-.3.2-.3 0-.3-.1 0-.3.1-.3.3m166.2-.2l-.1.3c0 .1 0 0 .2 0 .1-.3.2-.3.5-.1.4.2.4.2.2 0-.3-.3-.6-.4-.8-.2m-194.8.7c0 .6 0 .7.1.4a1 1 0 0 0 0-.7c-.1-.3-.1-.2-.1.3m185.5 1c0 .2 0 .3.2.3s.2 4.6 0 4.9c-.2.2-.2.2 0 .2.4 0 .4-5.3 0-5.4h-.2m-184.3 1.4l-.5.6.6-.6c.5-.4.6-.6.5-.6l-.6.6m29.4-.1l.3.6c0 .2.2.3.2.2a2 2 0 0 0-.2-.6l-.3-.2M42 246l-.4.4.6-.4c.5-.6.4-.6-.2 0m219.6 1.4v-1 1m45.7-1.4l-.3.4.6-.4c.5-.6.4-.6-.3 0m24 0V246v.3m-117.7 0c-.1 0-6.5.2-18 .2h-18 18a140.4 140.4 0 0 0 18-.2m-81.2.2c0 .5.3.8.8.8.3 0 .2 0-.1-.1a.8.8 0 0 1-.6-.6c0-.3-.1-.4-.1 0m189.8-.2l.3.6.2.2a2 2 0 0 0-.2-.6l-.3-.2m-200 .2c-.1.1 0 .7 0 .8.2 0 .2 0 .2-.3-.1-.2 0-.4.1-.5.1 0 .2-.1 0-.1h-.2m-84.9.3h1.8c.6 0 .1-.1-.9-.1h-.9m79.8 0h.4-.4M34 249.4v1.4a37.8 37.8 0 0 0 0-1.4m241.7-1.9v-.3.3m-141.9-.2h.6l-.3-.1h-.3M117.2 247.5h1l-.5-.1h-.5m6 .4l.6.4.5.2c0-.2-1.1-.8-1.1-.6m10 .2h.5l-.3-.1h-.3M301 251c0 1.8 0 2.5.1 1.6a52.5 52.5 0 0 0 0-1.6M149 249l.1.5s.1-.1 0-.4c0-.6-.1-.7-.1-.1m238.2 14.6a419 419 0 0 0 0-.1v-15 15.1M54.3 248.8l.5.1c.3 0 .6 0 .5-.1 0-.1-.2-.2-.5-.2l-.5.2m78.1 2.5c0 1.2 0 1.7.1 1a23.9 23.9 0 0 0 0-1m79-.9v-.7.7m-112.1.6c0 .3.5.7.7.6.2 0 .1-.1 0-.1-.2 0-.4-.2-.5-.3l-.2-.2m155.1.6v.4c.1-.2.1-.5 0-.8v.4m-2.5.4c0 .3 0 .5.1.3v-.6.3m-8.8.2c.1.7.2.9.2.3 0-.2 0-.5-.2-.7v.4m-198 0l-.4.4.4-.3c.3-.3.4-.3.5 0h.1c0-.5-.3-.5-.6 0m47.4 1.1v-.3.3m199.3.6l-.6.6.6-.6c.5-.4.7-.6.5-.6l-.5.6m-241.6.3v.5c.1.1.2 0 .2-.3 0-.7 0-.7-.2-.2m106.2.2v-.3.3m-72.1.2l-.6.6.6-.6c.5-.4.7-.6.5-.6l-.5.6m57-.4l.6.6.6.5-.5-.5c-.5-.6-.7-.7-.7-.6m-83 .6l-.4.4c-.1.1-.2.2 0 .2s.6-.5.5-.7c-.1-.2-.1-.1-.1 0m243.1.2c.2.2.5.3.7.3l-.2-.1-.6-.3.1.1m-264.1.1h.5-.5m2 0c-.5.2-.5.2 0 .2l.9-.1c.4-.2 0-.2-.8 0m40.6.3h.9l-.5-.1h-.4m-23 .3l.5.2c.3 0 .3 0 0-.2l-.5-.2c-.2 0-.2 0 0 .2m191.2 0l.5.2c.2 0 .5 0 .5-.2h-1m19 0l-.8.1h.7l1-.1s.1-.2 0-.1l-1 .1m-147.2.1h.4-.4m146.9.6h.7l-.4-.1h-.3M23.9 266.7l-.1 1.2c-.1.3-.1.3 0 0 .2-.1.2-.7.2-1.2v-1l-.1 1m345.6 4.2c-.3.6-.2.8.1.2.2-.3.3-.5.2-.6l-.3.4M373.7 278.9"/>
    <path fill="#0160a0" d="M13.2 4.2l1.4 1.2c4 2.9 5.5 5.5 7 12l.6 2v79l.1 80.6a11.9 11.9 0 0 0 1.4 5 34.6 34.6 0 0 0 8 10.6 29.2 29.2 0 0 0 14.3 6.8c2 .5 3.9.5 20.5.7 17.5 0 17.8 0 21 .8 4.9 1 8 3.3 11.9 8.4 1.5 2 1.1 2 2.5.3 4-5.4 7.6-7.8 12.4-8.7l2.7-.5c.8-.2 6.2-.3 19.2-.3l18.7-.3a33 33 0 0 0 23.7-20.8l.3-1.4v-78.4c0-53.8.1-79 .2-80 .9-7 2.3-10.9 4.9-13.4a18 18 0 0 1 4-3l.5-.5-.7-.1H146.2v76.2c-.2 58.6-.2 76.5-.4 77.2-1.2 5.8-2.9 8-7.8 10.5-3 1.5 1.2 1.3-36.4 1.3H68.3l-1.4-.4c-5.9-2-8.7-4.6-10.2-9.3-1-3.2-1 4.6-1-79.3l-.2-76.2h-21a793 793 0 0 0-21.3 0m189.9 0c-.5.1-.4.3.4.8 4.3 2.7 6.4 6 8 12.3l.4 1.7c0 .3.2 8.5.2 18.4l.1 17.8h78.3c62.4 0 78.2 0 78.3-.2.1 0 .2-7.7.2-16.9 0-14 0-16.9.2-18.1 1.4-7.5 3.5-11.4 8-14.6 1.3-1 1.3-1 .7-1.2H203.1m38 6.7l1.2 1.5 1.4 1.7c2 2.8 1.9 2.8 2.3 2.8l5.1-1c3.3-.6 3.6-.5 3.4.7-.2 1.2-.1 1.2.8 1.1 1 0 1.2.1 1 1.4a72.8 72.8 0 0 0-1.2 6.3v.8l1.8 1.2 2.6 1.8c.8.5 1.2 1 1 1.3l.8.8c1.4 1 1.5.9-4.1 4.6-2.4 1.6-2.5 1.6-2.2 2.9a49.6 49.6 0 0 1 .7 3.7c.8 3.5.8 4.4 0 4.2a277.7 277.7 0 0 0-4.8-.9c-3.4-.7-3.7-.7-4-.2l-3.5 5c-1.6 2.4-1.5 2.4-2.4 1.2-.3-.5-.7-.8-1-.9-.4 0-1-.7-2.8-3.5l-1.2-1.6-.4-.5-3.2.6c-5.5 1-5.1 1-5-.3 0-1 0-1-1.3-.7-1 .2-1.2-.1-.9-1.7 1.7-7.8 1.8-7-1-8.8-1-.7-2-1.5-2.2-1.8-.1-.2-.3-.5-.5-.5-.8-.4-2.5-1.8-2.3-2 .1-.3 1.6-1.3 6-4.3l1.4-1V24l-.9-4.3c-.3-1.4-.7-3.7-.6-3.9.2-.3 1.3-.2 4.5.5 5.1 1 4.6 1.1 6.3-1.3 4.3-6.3 3.8-6 5.2-4m50.4-.4l1.4 1.8 2.2 2.8c.7 1 1.3 1.9 1.5 1.9l3.7-.7c4.2-.9 5.1-1 5-.3l-.1 1-.1.8h1c1 0 1.1.1.7 2.3a444.3 444.3 0 0 0-1 4.8c-.2 1-.1 1.2.4 1.6 3.1 1.9 5.3 3.6 5.1 4 0 .2.6 1 1 1l.5.3c.3.5.2.6-1.4 1.7-6.6 4.5-6 3.7-5.4 6.4a370 370 0 0 1 .9 4.9c.5 2.2.6 2.1-4.3 1.2-5-1-4.6-1-5.5.3l-.7 1-1.3 1.9c-2.4 3.7-2.6 3.8-3.3 2.6-.4-.5-.7-.8-1-.9-.4 0-.7-.4-1.2-1-1.8-2.7-3-4.4-3.2-4.5-.2 0-1.4.1-3.9.6-4.8.9-4.6 1-4.4-.5 0-.9 0-.9-.4-.8-1.8.5-2 .3-1.7-1.2l1-5.3c.3-1.9.3-2.3-.5-2.8-2-1.3-3.4-2.3-3.7-2.7l-1.6-1.4c-1.7-1.1-1.7-1.1.6-2.7 4.5-3 5.2-3.6 5.4-3.8.2-.2 0-1.2-.5-4-1.2-6.1-1.4-5.6 2.6-4.8l5.8 1 1.9-2.6c3.9-5.7 3.6-5.4 4.5-4m50.6.4c.5.7 1 1.4 1.3 1.6l1 1.1a680.4 680.4 0 0 1 2.3 3.4 69.2 69.2 0 0 0 8.4-1.3h.6l-.1 1.2v1h.8c1.2-.2 1.2 0 .8 2.1-1.4 6.7-1.4 6 .4 7.3a1017.7 1017.7 0 0 1 4 2.9v.4c0 .1.4.5.9.8 1.2 1 1.3.9-3.7 4.2l-2.3 1.7-.6.5.5 2.4a423 423 0 0 1 1 5.3c.2 1.3-.1 1.5-2.6 1l-4.9-1c-1.7-.2-1.6-.3-2.6 1.2-1.2 2-4 5.8-4.2 5.9-.3.2-.5 0-1-.8-.4-.5-.7-.8-1-.8-.4 0-.5-.1-2.2-2.5-2.4-3.6-1.3-3.3-7.4-2.2l-3 .6v-1c0-1.1.1-1-1.4-1-.9.2-1-.2-.6-2a929 929 0 0 0 1-5c.3-1.9.4-1.7-2-3.3l-2.2-1.7c-.2-.3-1-1-1.7-1.4-1.9-1.2-2-1 2.9-4.4 3.6-2.4 3.3-2.1 3-4.2a331.5 331.5 0 0 1-1.2-7.2c.3-.2-.1-.3 6.3 1 .8 0 1.7.2 2.2.3h.7l.8-1L339 12c2-3 2-3 3.2-1.3M40.9 18a6 6 0 0 0 2.9.7c2.1.2 2.4.4 2.7 1.8 0 .2.3.4.6.5.8.3 1 .7 1.4 3.1.5 2.2.7 2.6 2.4 4.7 3.1 3.7 3.4 5.1 1.3 7.5-.5.5-.8 1.1-1 1.7-.7 2.8-1.7 3.5-4.6 3.8-1.6 0-1.7.1-2.5.8-2.3 1.7-4 1.7-6.4 0l-.9-.7H35c-2.2 0-3-.3-3.6-1.3l-.8-.8a4.4 4.4 0 0 1-2.2-3.4c0-.5-.1-.8-1-1.6-2.3-2.2-2-4.4 1.3-8l1.7-2 .5-2.1.6-2.8c.2-.8.7-1 2.7-1.2l2-.2c0-.2 1.4-.9 2.1-1.1.5-.2 1.3 0 2.6.6m123.9 0c.7.5 1 .6 2.4.7 2.4.2 2.7.4 2.9 1.2 0 .8.4 1.2 1 1.2.3 0 .7.6.9 1.4l.3 1.2.4 1.8a4 4 0 0 0 .9 2c4.3 4.9 4.7 6.3 2.4 8.8-.6.7-1 1.2-1 1.6-.4 2.6-2 4-5 4-1.1 0-1.2 0-1.9.5-2.5 2.2-4 2.1-7.3-.2-.4-.4-.6-.4-1.5-.2-1.6.3-3-.2-4.1-1.4l-1-1c-.7 0-1.8-1.9-2.1-3.7-.1-.4-.4-.7-.7-1-2.5-1.6-2.1-4.4 1.2-8.2.9-1 1.7-2 1.7-2.3 1.2-5.4 1.2-5.5 3.7-5.6 1.4-.1 1.9-.2 2.2-.5 1.5-1 3.1-1.1 4.6-.2m-124 40.4a6 6 0 0 0 3.1.8c2 .2 2.3.3 2.5 1.4.1.6.2.8.7.9.7.2.8.3 1.2 2 .9 3.8.8 3.6 3.5 6.7 2.1 2.5 2.2 4.6.3 6.6-.4.3-.7.8-.8 1l-.3 1.3c-.5 2-1.8 3-4.5 3.1-1.5.1-1.6.1-2.4.8-2.5 1.8-4 1.8-6.6-.2-.6-.4-.8-.5-2.5-.5-2.2 0-2.6-.1-3.7-1.4l-.8-.8c-.7 0-1.9-2-2.1-3.5-.1-.5-.3-.8-1-1.3-2.3-2-2-4.4 1.3-8 1-1.1 1.7-2.2 1.8-2.5a94.1 94.1 0 0 1 1-4c.2-1.3.5-1.5 2.6-1.6 1.5 0 1.8-.1 2.4-.5 1.4-1.1 2.5-1.2 4.3-.3m122.6-.5l1.5.7c.7.5 1 .5 2.7.6 2.2.2 2.3.3 2.5 1.3.1.6.2.7.8 1 .6.3.8.5 1 1.2l.3 1.3.5 1.9c.2 1 .4 1.5.8 2 4.3 4.6 4.8 6.3 2.5 8.7-.6.7-.8 1.1-1 1.7-.5 2.7-2 4-5 4-1 0-1.2 0-2 .6-2.5 1.9-4.3 1.9-6.5 0l-.8-.5h-2c-1.6 0-2-.1-2.4-.4-.6-.3-1.3-1.1-1.3-1.3 0-.1-.3-.4-.7-.6-1-.5-1.8-1.8-2.3-3.8 0-.3-.4-.7-.7-1-2.4-1.8-2-4.4 1.1-8 1.8-2 1.9-2.1 2.3-3.8 1-4.5.7-4.1 3-4.2 1.6-.1 2-.2 2.6-.6 1.3-.9 2.1-1 3.1-.8M40.2 102l1.3.7c.1.2 1 .3 1.8.4 2.7.2 2.9.3 3.1 1.6.1.4.3.6.7.7.8.2.8.2 1.5 3.1l.5 2.5L51 113c3 3.7 3.3 5 1.2 7.4-.6.6-.8 1.1-1 2-.7 2.5-1.8 3.3-4.6 3.5-1.6.1-1.7.1-2.5.7-2.3 1.9-4.4 1.8-6.7-.1l-.7-.6-1 .2c-1.8.3-3.6-.3-4.4-1.4-.2-.4-.5-.7-.6-.7-.7 0-2-2-2.3-3.4-.1-.8-.3-1-1-1.7-2.3-2-1.9-4.7 1-7.8 1.7-1.7 2-2.1 2.1-2.9a51.6 51.6 0 0 1 1-4c.2-1 .4-1 2.5-1.2 1.2-.1 2-.3 2.2-.5 1.1-1 2.7-1.3 4-.7m123.5-.1c.3.1 1 .4 1.3.7.5.3 1 .4 2.7.6 2.1.2 2.4.3 2.4 1.2 0 .5.5 1 1 1 .4 0 .7.6.9 1.4l.2 1.1.5 1.9c.2 1 .5 1.5.8 1.8l1 1.3 1.3 1.6c2 2.3 2 4.5-.1 6.5-.3.3-.6.7-.6 1 0 2.3-1.8 4-4.6 4-1.6.2-1.7.2-2.4.7-2.3 1.9-4.2 2-6.2.5-1.4-1-1.5-1.1-2.6-.9-1.5.4-3-.1-4-1.3l-1.4-1.3c-.9-.5-1.4-1.6-1.9-3.5 0-.3-.3-.7-.8-1-2.3-1.7-1.8-4.6 1.2-8 1.8-2 1.8-2 2.6-5 .6-3 .6-3 2.9-3 1.3-.1 1.9-.2 2.1-.4 1-1 2.7-1.4 3.7-1M40.2 145l1.2.6c.4.3 1 .4 2.5.5 2.1.1 2.3.2 2.5 1.4 0 .6.2.7.7.8.7.1.7.1 1.5 3.1l.6 2.5 1.7 2.1c3 3.7 3.4 5.3 1.3 7.5a4 4 0 0 0-1 2c-.8 2.6-1.8 3.3-4.6 3.5-1.6 0-1.7.1-2.3.7-2.4 2-4.4 2-7-.2-.5-.4-.6-.4-1.6-.3-2.1.2-3.6-.3-4.4-1.4-.2-.4-.6-.8-1-1-.8-.3-1.9-2-1.9-3 0-.6-.4-1.4-1-1.8-2.2-1.4-1.9-4.5.7-7.3 2.3-2.5 2.2-2.3 3-5.3.7-3.3.6-3.2 2.8-3.3 1.5-.1 2-.2 2.4-.5 1.5-1 2.7-1.2 3.9-.6m124.4.3c1 .5 1.4.6 3.1.8 2.1.2 2.4.3 2.4 1.2 0 .5.4 1 .9 1 .3 0 .9.6.9 1 0 1.3 1.2 4.9 2 5.8 2.8 3.2 3.5 4.3 3.5 5.6 0 1-.7 2.2-1.7 3.2-.3.3-.6.7-.6 1 0 2.3-1.8 4-4.6 4-1.6.2-1.7.2-2.6.9-2.3 1.7-4 1.8-6.3 0l-1-.6h-2c-2.2-.1-2.7-.3-3.4-1.4a5 5 0 0 0-1.1-1c-1-.6-2-2.4-2-3.4 0-.4-.1-.7-.9-1.3-2.3-2-1.9-4.6 1.5-8.3 1.6-1.8 1.5-1.5 2.2-4.5.7-3.2.6-3 2.8-3.2 1.4 0 1.9-.2 2.4-.5 2-1.2 2.9-1.2 4.5-.3m-89.3 28.7c1 .5 1.4.6 3 .8 2.1.2 2.2.2 2.5 1.3.1.6.2.8.7 1 .7.1 1 .6 1.2 1.7l.3 1.2.4 1.7c.2.7.5 1.4.9 1.8 4.4 5 4.7 6.2 2.3 8.8-.5.4-.8 1-.8 1 0 2.6-2.3 4.5-5.2 4.5-1 0-1.2 0-1.8.6-2.3 2-4.2 2-6.5.2l-1-.7h-1.7c-2.1 0-3.1-.3-3.7-1.2a6 6 0 0 0-1.2-1.2c-1-.7-1.7-2-2-3.3 0-.6-.3-.9-1-1.5-1.3-1.2-1.6-2.4-1-4.2.3-1.3.9-2 3.7-5.1.4-.5.5-.7 1.3-4 .6-2.6.4-2.4 2.7-2.6a6 6 0 0 0 2.4-.5c1.6-1 2.8-1.2 4.5-.3m54 0c1 .5 1.4.6 3 .8 2.1.2 2.3.3 2.5 1.3.1.6.2.8.7 1 .8.2.8.2 1.4 3 .7 2.9.6 2.5 2.8 5.1 2.8 3.3 3 5.2.6 7.3l-.5.8c0 2.7-2.3 4.5-5.3 4.5-1 0-1.1 0-1.8.6-2.3 2-4 2-6.5.2l-.9-.7h-1.7c-2 0-3-.2-3.6-1-.5-.7-.7-.9-1.6-1.6-.7-.6-1.5-2-1.6-3-.1-.6-.3-1-1-1.6-1.6-1.4-1.9-2.8-.9-4.9.5-1 1-1.6 3.2-4.1.6-.7.7-1 1.3-3.5.9-3.4.7-3.2 2.9-3.4 1 0 2-.2 2.2-.4 2.3-1.2 3-1.3 4.8-.4"/>
  </g>
</svg>
