<svg xmlns="http://www.w3.org/2000/svg" width="400" height="213.6" display="block">
  <path fill="#11473f" fill-rule="evenodd" d="M200.7.4l-1 .5-1.7.3-2 .3c-.5 0-1 .2-1.3.3l-.9.3a512.1 512.1 0 0 0-2.8.7c-.1.1-.4.3-.7.3l-1.3.7-1.5.8c-.7.2-3.7 2.1-4.4 2.8-.2.3-.6.5-.8.5-.1 0-.4.1-.5.3l-.8.8-1.5 1.2-1.5 1.3a18.7 18.7 0 0 0-5.7 7l-.6.9a79.7 79.7 0 0 0-4 8.7c0 .3-.1.7-.3.9l-.3 1.1a30 30 0 0 1-.6 3.6l-.2 1.3c-.2.3-.2 11.2 0 11.8l.5 2.2c.1.9.4 1.9.6 2.2l.3 1.1c0 .4.1.8.3 1 .2.3.4.7.4 1 0 .2.2.5.4.6l.4.8c0 .3.3.8.5 1l.3.6.5 1a57 57 0 0 1 3.2 4.8 39.9 39.9 0 0 0 6.3 6 16 16 0 0 0 1.7 1.5l1.3 1.1 1 .8.7.4a61.5 61.5 0 0 0 9.5 6.2 10 10 0 0 0 2.1 1.2c.4 0 .8.3 1 .4l.6.3c.1 0 .5.2.7.5l.7.4.4.3.7.4a43.3 43.3 0 0 0 6.9 4.3l.9.6 1.6 1a227.2 227.2 0 0 0 10.1 6.6l1.8 1.3.4.2a49.2 49.2 0 0 0 3 2.1l2.9 2.4 1.7 1.5a29.6 29.6 0 0 1 9 12.2c.2 1.2.3 1.7.5 2l.2 1.2.4 1.8a31.5 31.5 0 0 1-.4 11.3 27 27 0 0 1-3.2 8.1l-1.2 1.6a11 11 0 0 1-2.6 2.6l-.6.4a39.1 39.1 0 0 1-5 3.5l-1.6 1-.7.2-1.5.4-1.5.3c-.2 0-.5 0-.6.2l-2.3.8a122.7 122.7 0 0 1-16.2-.5c-.8 0-1.3-.2-1.7-.5-.2-.2-.6-.3-1-.3s-.7-.1-.9-.3l-.9-.6-.9-.4-1.5-.8-1.4-.7-.7-.3c-.7-.1-2-.7-3.2-1.5l-1.3-.8c-.3-.1-.8-.4-1-.7-1.5-1.2-2-1.6-2.6-1.8a9.6 9.6 0 0 1-2.6-2.5l-2.5-2.6a47.9 47.9 0 0 1-7.6-10.1 20.5 20.5 0 0 0-1.8-3.4l-.5-.8-.4-.9-.3-.7-.4-.8a3 3 0 0 0-.4-.8l-.5-1a20 20 0 0 0-.7-1.8l-.7-1.8c0-.4-.2-.9-.4-1.1l-.5-1.1c0-.4-.3-1-.6-1.4l-.4-.7h-2.4c-2.8 0-3 0-2.6 1.6l.2 1.5c0 .3 0 .8.2 1l.3 1.8a58.4 58.4 0 0 0 1 7l.1 1.3.2 1s.2.6.2 1.4c.3 3 .3 3.7.5 4 .1 0 .3.8.3 1.5l.5 3.9.2 1 .1 1.5a72.2 72.2 0 0 1 1.3 8.4l.3 1.5c.2 3.1.3 3.7.5 4l.3 1.7c.2 2.6.4 3.7.7 4.3l.3.6h2.1c2.6 0 2.8 0 3-1.6.2-1 .8-2.5 1.3-2.9l.2-.4c0-1.3 4-2.8 6-2.3a41.9 41.9 0 0 0 4.2 1l1.6.4 1 .3 1 .4 1.6.6 1.2.4c.3 0 .7.1 1 .3l1.3.5 2 .7c1.6.8 2.8 1.1 3.8 1.1.5 0 .9.1.9.2 0 0 .7.2 1.5.2s1.6.2 2 .4c.4.2 1.4.4 2.2.4 2.9.3 3.5.4 3.8.6a100.4 100.4 0 0 0 18.2-.6c.3 0 .6 0 .7-.2l.6-.1.8-.2 1.5-.3c.7 0 1.4-.2 1.6-.3.3-.2.8-.4 1.3-.4l1-.4c.2-.2.7-.3 1-.4a15 15 0 0 0 4.1-2l.9-.4c.1 0 .4 0 .6-.3l.9-.4a47.3 47.3 0 0 0 15.2-14.6l1.2-2.2 1.2-2.2c.6-.9 1.2-2.2 1.6-3.8l.4-1 .3-1a35.2 35.2 0 0 1 .7-3.7l.3-1.4a49 49 0 0 0-1.2-17.8c-.2-.2-.4-.8-.5-1.2 0-.5-.3-1.2-.5-1.5a11.8 11.8 0 0 0-2-4.3 12 12 0 0 1-.7-1.4l-.5-.8-.3-.4c0-.3-1-1.6-1.2-1.8l-.7-.8-1.2-1.4c-.4-.4-.7-.8-.7-1 0-.2-1.7-2-2.7-2.8a35 35 0 0 1-2.8-2.4 18.8 18.8 0 0 0-3.6-3 48.1 48.1 0 0 1-4.7-3.5l-1-.8-.7-.4a24 24 0 0 0-4.8-3.2 7.5 7.5 0 0 0-1.8-1.2l-.9-.5a203.2 203.2 0 0 1-5.9-3.7c-1.2-1-1.4-1-1.7-1.2l-.7-.4-.4-.4-1.3-.7-1.3-.8s-.4-.1-.7-.4l-.6-.4-2-1.2-.8-.4-.6-.3a2 2 0 0 0-.6-.5l-1.4-.8c-.5-.4-1-.6-1.1-.6l-.7-.4-.9-.6-1.7-1-.7-.4a25.3 25.3 0 0 1-4.6-3.1c-.2 0-.6-.3-1-.6-.3-.4-.9-.8-1.2-1a3 3 0 0 1-1-.5l-.3-.3-2.5-2.2a25.7 25.7 0 0 0-2.5-2.3c-.2 0-1.6-1.3-1.6-1.6a28.2 28.2 0 0 1-6-11.1c-.4-1.3-.4-7.4 0-8.5l.5-2a7 7 0 0 1 .5-1.7l.3-.9c0-1.9 4.1-7 6.9-8.5l.7-.5a46 46 0 0 1 8.2-3.7 29 29 0 0 1 12.3.2c2 .2 2.2.2 4 1 .4.2 1 .3 2.1.5.4 0 .9.2 1 .3l1.3.5a12.3 12.3 0 0 1 2.3.9l.5.3.7.3.7.4.9.4a33 33 0 0 1 7.8 5.8 27 27 0 0 1 4.3 4.4 27.3 27.3 0 0 0 2.3 3l.4.7 1 1.7a64.2 64.2 0 0 0 2 3.8 177.7 177.7 0 0 0 2.4 5.3l.5 1.3c0 .3.2.6.3.8l.5 1.7.4 1.6.4 1 .2 1.4c0 .4.3 1 .5 1.3l.4.6h2.2c2.7 0 3.3-.1 3.3-.8 0-.3 0-.5-.2-.6l-.1-1.9c0-1.2-.1-1.9-.3-2.2-.1-.3-.3-1.3-.3-2.2a29.4 29.4 0 0 0-.7-7.4c0-.7 0-1.3-.2-1.4l-.2-2.3c-.3-3.8-.4-5.1-.6-5.4-.1-.2-.3-2-.5-5.9l-.2-1.8-.2-1.6-.2-2.3c-.2-.4-.3-1.3-.3-2l-.1-1.2-.3-2.5-.6-6.4-.2-1.3h-4.9l-.2.8-.3 1.5c-.1.7-.8 2.3-1 2.5a2 2 0 0 0-.5.7c-.1.3-.4.6-.7.7L244 7.5c-.6.5-4.7.5-5.5 0L237 7c-1.6-.2-1.9-.3-3.6-1.1l-1-.4c-.2 0-.7 0-1-.2-.4-.3-1.6-.6-2.7-.9-.4 0-.7-.2-2-.7l-.7-.2a14 14 0 0 1-2.7-.8c-.2-.1-.8-.3-1.4-.3-.6 0-1.4-.3-1.7-.5-.5-.2-1-.4-1.7-.4-.6 0-1 0-1.3-.2-.2-.2-.8-.3-1.3-.4-1.2 0-1.9-.3-1.9-.6 0-.5-13-.3-13.3.1M0 3.9v2h2.7a32 32 0 0 1 11.6 1.9c1.6.5 5 3.7 5.3 5 0 .3.2.6.3.8l.5 1.3A39.4 39.4 0 0 0 21 17c0 .2 0 .6.2.8.8 1.5.8 3.7.9 43.5a944.8 944.8 0 0 0 .6 41.9 77.6 77.6 0 0 0 1.5 17c.1 1.4.3 2.4.6 2.8l.2 1c.2 1.1.3 1.7.6 2.2l.2.9.4.8.3.7a30.8 30.8 0 0 0 3.5 6.5l.4.8a13 13 0 0 0 2 3c.1 0 .3.3.3.5l.4.7a26.5 26.5 0 0 0 8.1 8l1 .8c.4 0 .6.3.6.4 0 .2 2 1.4 3.5 2.1l1.4.8a43.7 43.7 0 0 0 6.4 3.1c.3.2 2.3.8 2.7.8l.8.3 1 .2 1.1.3c.6.3 1 .4 2.3.4.8 0 1.7 0 1.9.2.6.3 1.6.5 3.4.6 1 0 2.2.3 2.8.5 1.2.4 22.7.6 23.4.2.7-.4 1.6-.6 3.5-.7 1.4 0 2-.2 2.4-.4a4 4 0 0 1 1.2-.4l4.2-1c.7-.3 1.5-.5 1.8-.5.5 0 1.1-.2 2-.7a11 11 0 0 1 2-.8c.6-.1 1.1-.3 1.4-.5l.7-.4.7-.3.8-.4c.2 0 .7-.4 1.2-.7a20 20 0 0 1 2.2-1.2 10.9 10.9 0 0 0 2.6-1.7 54 54 0 0 0 11.6-11.3l1.1-1.6.6-1 .8-1.2c.3-.3.6-.7.6-1 0-.2.2-.5.4-.6l.3-.8c0-.3.2-.8.4-1l.5-1.3.5-1.5c.2-.3.3-.8.3-1l.3-1 .5-1.3.4-1.2.3-.9.4-1.2.3-1.7c0-.3 0-1 .2-1.3.2-.7.4-2.2.6-4.8.2-2.2.4-3.3.6-3.6.4-.6.5-6.5.6-43.2a586.2 586.2 0 0 1 .9-46.3 24 24 0 0 1 1.1-5.5c0-.3 1.3-2.4 2.5-3.7 2.1-2.6 5.1-4 8.7-4.4.5 0 1-.2 1-.3.4-.3 2.3-.5 5.1-.6 1.7 0 2.7-.1 2.7-.2.2-.3.2-3 0-3.4-.1-.4-54-.4-54.2 0a7 7 0 0 0 0 3.3c.2.2.8.3 2.9.4 4.2.1 6.9.3 7.4.5a32.2 32.2 0 0 0 3 1l.9.3c.4 0 1 .3 1.2.5a694.4 694.4 0 0 0 1.6 1c.3 0 2.4 2.2 2.4 2.5 0 .1 0 .3.2.4.5.5 1.3 2.3 1.3 3.1 0 .5 0 1 .2 1.2a125.8 125.8 0 0 0 .6 3.7c.2 1.2.2 10.6.2 40.6 0 42.5-.1 49.6-.8 50.6l-.3 1.7a47.3 47.3 0 0 1-1.8 9.3 7 7 0 0 0-.8 2.2l-.2.7-.2.7c0 .3-.5 1.3-1 2.2a12 12 0 0 1-1.7 2.8l-.5.8-.4.7a28.5 28.5 0 0 1-5 5c-.7.7-1.3 1.2-1.5 1.2l-1 .8a13.8 13.8 0 0 1-4.2 2.8l-.8.4-.8.4-.5.3c-.2 0-.7.2-2 1.1l-.9.5-.6.3c-.3.3-3.2 1.2-3.7 1.2l-.7.4c-.3.2-.9.4-1.6.5-.7 0-1.4.2-1.6.4l-1.4.2a95.2 95.2 0 0 1-24.2.2c-.6 0-1.2-.2-1.4-.3-.4-.2-1-.3-2.3-.5l-1.5-.5c-.3-.2-.9-.4-1.3-.4s-.8-.2-.8-.3c-.2-.2-.8-.6-1.9-1l-.8-.5a7 7 0 0 0-.8-.4l-.9-.4-.7-.4-1.2-1c-.3-.3-.7-.6-.9-.6l-1.5-1.2-2-1.8a17.3 17.3 0 0 1-3.5-4.3 22 22 0 0 1-2.4-4.8c0-.3-.3-.7-.4-.9l-.4-.8-.4-1.4-.4-1.2-.3-1a80.8 80.8 0 0 0-1.2-5.2c-.2-2.1-.4-3.9-.6-4l-.3-2.5a120.6 120.6 0 0 0-1-10 3321.1 3321.1 0 0 1 .4-82c0-.3 0-.9.2-1.3l.5-2.3c.7-3.7 1.4-5 3.2-7 1.5-1.4 4-2.8 4.8-2.8.5 0 2.5-.7 2.8-.9a38 38 0 0 1 7.4-.6c2.5 0 2.6 0 2.7-.5.3-.5.3-2.3 0-3V2H0v2m273-1.7c-.2.3-.6 7.3-.8 14.2 0 2-.2 3.7-.3 3.9l-.3 3.5-.5 11.8c-.2 2 0 2.2 2.1 2.2 2 0 2.2-.2 2.5-2.4a311 311 0 0 1 1.1-6.7l.4-1.2c.3-.4.5-1 .5-1.1l.3-.8.4-.8c0-.3.2-.6.3-.7.2-.1.3-.4.4-.7.1-.5.6-1 1.6-2.2l.8-1c0-.2.4-.7.9-1.1l1.2-1.4c.1-.3.6-.7 1-1 .4-.2.8-.6.9-.8l.7-.4c.2 0 .6-.3.7-.5.1-.2.7-.6 1.2-.8l1.2-.7c.4-.3 1.4-.6 2.6-.7 1-.1 3.3-.7 4.4-1l5-.2c2.7 0 4.4 0 4.4-.2.3-.3 17.6-.2 18 .2a6900.6 6900.6 0 0 1 0 126.6 12.6 12.6 0 0 1-.5 3.4c-.2 1.2-2 4.5-3 5.6-.8 1-3.6 2.6-4.3 2.6l-1 .4c-1.5.7-2.1.8-7.2.9-3 0-4.9.1-5 .2-.3.2-.3 3.1 0 3.7l.2.4h64l.4-.3c.4-.5.6-3.5.2-3.8l-5-.2a54 54 0 0 1-7-.7c-.6 0-1.3-.3-1.5-.5l-.8-.4a3 3 0 0 1-.8-.4l-.6-.3c-.6 0-3.3-2.4-3.3-2.9l-.3-.6-.5-1-.3-1a10 10 0 0 1-.7-3l-.2-.7c-.6-1-1-127.4-.4-128 .3-.4 19.2-.4 23.6 0a54 54 0 0 1 9.1 1.4l.8.3.6.3c.2.2.5.3.7.3l.6.4 1 .5c.4 0 .7.3.8.4l.6.3a29 29 0 0 1 7.5 7.4l.8 1.5 1 1.7c0 .4.2.8.3 1l.3 1a57.4 57.4 0 0 0 1 4.7c.2.7.5 2.4.5 3.2 0 1.5.5 1.8 3 1.8h1.7v-2c0-1.2 0-2-.2-2s-.2-.6 0-.7c.2-.1.2-.1 0-.1l-.1-.7c0-.4 0-.7.2-.7.1-.1.1-.1 0-.1-.2 0-.2-.3-.2-.7 0-.4 0-.7.2-.8.1 0 .1 0 0-.2-.1 0-.2-.3-.2-.7 0-.4 0-.7.2-.7.1 0 .1 0 0 0-.5-.4-.6-1.5-.8-5.1a506.8 506.8 0 0 0-1.4-21c-.4-.4-124.4-.5-124.6-.1m116 138.6a2 2 0 0 1-.8.1 2 2 0 0 0-1 .4 3 3 0 0 1-.7.4 8.8 8.8 0 0 0-2.6 2.6c-.2.1-.4.5-.4.9l-.4 1c-.2.2-.5 1.4-.6 2.2a9.4 9.4 0 0 0 1 4l.4.4c.2 0 .4.4.4.6.2.8 1.9 2.2 3.2 2.5l1.2.4c.8.3 3 .4 3.4.1l1.2-.5c2-.7 3.1-1.7 4.1-3.7l1-1.8v-2c0-1.7-.1-2-.5-2.4-.2-.2-.3-.6-.3-.7 0-1.2-3.8-4.4-5.2-4.4l-.4-.1c-.1-.2-2.6-.2-3 0m3.6 1.4l1 .4c.5 0 2.6 2.2 3 3.1l.5 1c.5 1 0 4-1 5.5-.4.8-2 2.2-2.3 2.2l-.6.3c-.9.6-3.3.9-4.1.5l-1.2-.3c-.8-.1-2.6-1.4-2.8-1.9l-.4-.5-.5-.7c0-.4-.3-.7-.4-.8-.4 0-.3-4.6 0-5 .2 0 .4-.3.5-.6.4-.9 2.6-3 3.2-3 .3 0 .7-.1 1-.3.9-.5 3.2-.4 4.1.1m-5.2 2c-.5.4-.5 8.2 0 8.3 1 .3 1.2 0 1.2-1.3 0-1.6.3-2.2 1.1-1.8l1.3.2c1 0 1 .1 1 1l.3.6c.1.2.3.5.3.8 0 .3 0 .5.3.5 1 .4 1.2-2 .1-3l-.4-.4.5-.4c.3-.1.5-.4.5-.6 0-.2 0-.6.2-.9.5-1 0-2.2-1.1-2.7-.9-.3-4.8-.5-5.3-.2m3.4 1c2.5.7 2 3-.7 3.1-1.2 0-1.5-.4-1.5-1.9 0-1.6.4-1.9 2.2-1.3M1 174.7c-.1 0-.2.5-.1 1.5v1.4h397.7c.5-.4.4-2.7-.2-2.9-.5-.2-397-.2-397.4 0m378 14.7c-1.2 2.6-1.6 3.6-1.4 3.7.4.2 3.7-3 3.7-3.6 0-.6-2-.7-2.3 0m-172.2 3.9l-.6.3c-.3.2-.7.4-1 .4-.6.1-.9.3-2 1.8-.6.7-.7 3.7-.2 4.3.2.1.4.5.5.8.3 1.1 1 1.8 3.2 2.8a11.5 11.5 0 0 1 2.3 1.5l1.4 1c2.3 1.7 2.3 4.9.1 5.8-.8.4-4 .4-4.6 0a10 10 0 0 1-2.4-2.4c0-.2-.1-.5-.3-.7l-.5-.9c-.2-.8-.6-.6-.6.3l.4 3.4.2 1c0 .7 0 .7.4.7.2 0 .4 0 .4-.2 0-.5.5-.6 1.6-.5.9.1 1 .2 1 .4 0 .3.2.3 2.8.3 2.1 0 2.8 0 2.8-.2 0 0 .3-.3.7-.4.6-.2.8-.5 1.6-1.6l.8-1.3v-1.5c0-1.4-.2-2.4-.7-2.8a2 2 0 0 1-.4-.8c-.1-.3-.3-.5-.4-.5l-.7-.5a28.5 28.5 0 0 0-4.4-2.8c-2.6-1-3.8-4-2.3-5.5l.7-.7h1.3c2.1 0 4.7 1.6 5 3.1.2.9 1 1.7 1.4 1.3.2-.2.2-.3 0-1l-.3-2c-.3-3-.5-3.5-1-2.7-.4.6-2.7.6-4.1.2-1.2-.4-1.8-.5-2-.4m75.4 0a308.5 308.5 0 0 0-5.1 3l-.7.9c-.5.3-1.2 1.9-1.3 2.9l-.2 1c-.4.6-.5 3-.2 4.3l.4 1.8c0 .4.3 1 .5 1.2l.3.6c0 .4 1.7 2.3 2.6 3 .8.5 2.4 1.1 3 1.1 0 0 .2 0 .2.2l2.4.1 2.3-.1c0-.3.6-.2.7 0 0 .2.1.1.1 0 0-.2.3-.4.7-.6a9.6 9.6 0 0 0 3.6-3.1c0-.2.2-.6.4-.7 1.3-1.5 1.9-7.3.9-8.9l-.4-1.2c-.1-.4-.4-1-.8-1.5l-1-1.2c0-.3-.3-.5-.4-.5l-.7-.3c-2.2-1.8-5.8-2.7-7.3-2m45.9 0a11 11 0 0 0-3.2 1.3l-.8.4c-.8.3-2.6 2.3-2.9 3 0 .4-.3.8-.4 1l-.3 1c0 .4-.2.9-.4 1-.3.6-.3 4.9 0 5.4.2.1.3.5.3.8 0 2 3 5 5.5 5.7l1.1.4c.1.2 4.7.2 4.7 0l.3-.2c1.1 0 4.3-2.5 4.8-3.7 0-.2.2-.5.3-.5.3 0 .8-1.5 1.1-3.3l.4-1.7v-1.2l-.3-1.5c0-.5-.2-1.2-.3-1.3l-.4-1c-.2-1.2-1.6-3.1-2.4-3.4l-.7-.4c-.3-.3-1-.6-1.7-1a251.2 251.2 0 0 0-1.6-.7 7 7 0 0 0-3.1-.1m-214.4.3a2 2 0 0 1-.9.3c-.4 0-2 1.6-2.3 2.4-.5 1-.2 3.8.5 4.6l.5 1c.1.3.3.5.5.5l.6.4 1.6 1 1.2.7c.1.2.4.3.7.4.3 0 .5.2.6.3l.8.8c2.2 1.5 2.8 4 1.3 5.5-1.2 1.1-4.9 1.1-6 0l-1-.9c-.3-.2-.7-1-1-1.5-.5-1-.6-1.2-1-1.2-.5 0-.5.3-.1.8.1.2.2.8.2 1.8 0 .9 0 1.6.2 1.7l.1.7c0 .6.8.8 1 .2 0-.4.8-.6 1.6-.4.3 0 .5.2.6.4 0 .5 6.2.5 6.2.1 0-.1.2-.4.5-.5.7-.4 1.1-.8 1.4-1.5.1-.3.3-.6.5-.7.3-.3.4-4 0-4.4l-.8-1c-.3-.6-.8-1.1-1.2-1.4l-1-.8-.5-.4c-.3 0-.7-.2-1-.4a9.5 9.5 0 0 0-1.9-1.2c-.3 0-1.6-1-2-1.6-1.7-2.3-.7-4.5 2-4.5l1.4.1 1 .5c.9.3 2.2 1.8 2.9 3.4.3.8 1.1.5 1-.4l-.3-2c-.2-2.4-.3-2.5-2.2-2.5a12 12 0 0 1-3.9-.5c-.5-.2-1.3-.1-1.8.2m46.5.6l-.5 1.2-.4 1a3 3 0 0 0-.4.8c0 .3-.6 1.8-1 2.5l-.4 1-.5 1c-.2.2-.3.5-.3.7 0 .2-.1.7-.4 1l-.5 1.4c0 .3-.2.7-.4 1-.2.2-.4.6-.4.9 0 .3-.2.7-.4 1a21 21 0 0 0-1 2.4l-.6 1-.4.7-.5.3c-.5.1-.5.2-.5.8v.4l.8-.2c.4 0 .7.1.7.2 0 .2.1.2.1 0 0-.1.3-.2.7-.2.4 0 .7.1.7.2 0 .2.1.2.1 0l.4-.2c.2 0 .3-.1.3-.3 0-.6.6-.4.7.2 0 .5.1.5.1-.1 0-.5 0-.6-.4-.6-.5 0-1.1-.7-1-1.3.2-1 .5-2 .7-2.3.1-.2.3-.6.3-1 .2-1.2.5-1.3 4.3-1.2h3.4l.7 1.4 1 2.5.4 1.1-.4.4-.7.4c-.3 0-.4 0-.4.4 0 .3 0 .3.1 0 .3-.4.7-.3.7 0s.1.4.3.4l.4.2c0 .2.1.2.1 0 0-.1.3-.2.7-.2.4 0 .7.1.7.2 0 .2.1.2.1 0 0-.1.3-.2.7-.2.4 0 .7.1.7.2 0 .2.1.2.1 0 0-.1.3-.2.8-.2s.7 0 .8.2v-.3c.2-.8 1.2-.8 1.4 0l.1.5.1-.5c.2-.6.7-.8.7-.3l.1.2.5.3c.2.2.3.3.3.1.1-.3 1.3-.3 1.5 0 0 .2 0 .2 0 0 0-.1.3-.2.7-.2l.8.2c0 .2 0 .2 0 0 0-.1.3-.2.7-.2l.8.2c0 .2 0 .2.2 0 0-.1.3-.2.7-.2.4 0 .7.1.7.2 0 .2.1.2.1 0 0-.1.3-.2.7-.2.4 0 .7.1.7.2 0 .2.1.2.1 0l.4-.2.7-.2c.2-.2.7-.3 1.3-.3.7 0 1 0 1.2-.3l.7-.4 1.1-.6 1.3-1c.4-.2.7-.5.7-.8l.4-.7c.1-.1.3-.4.3-.7 0-.3.3-.6.4-.9.7-.9 1.3-5.6.7-6l-.2-.6c-.3-1.4-1.9-4.1-2.4-4.3-.3-.1-.6-.3-.7-.5-.1-.3-1.3-.8-2.4-1.1l-1.8-.5a19 19 0 0 0-6.4-.6h-4v.4c0 .3.2.5.7.8l.5.3v8.3c0 9.6.2 8.7-1.9 8.8-1.8.1-2.4 0-2.8-.9a8 8 0 0 0-.4-.9l-.4-.7-.4-.8-1-2.3a5 5 0 0 0-.4-1 4 4 0 0 1-.4-1c0-.3-.2-.7-.4-1-.2-.1-.4-.6-.4-1l-.4-.8-.3-.7a70.6 70.6 0 0 0-3.2-7.4c-.2-.7-.5-.5-1 .5m230-.6a5 5 0 0 1-1.3.4c-.3 0-.6.2-.6.3l-.4.6-.7 1.4-.5 1.5c-.3.8-.2 2 .2 2.3l.4.8c.3.8.6 1.2 1.3 1.5.7.3 1.3.8 2 1.3l.6.4 1.2.8 2.3 1.7c1.7 1 1.6 4.6-.2 5.4-1 .4-4.2.4-4.8 0a8.8 8.8 0 0 1-2.6-3c0-.5-.7-1.6-1-1.6-.2 0-.2.2-.2.7l.4 3.6.2 1c0 .9.6 1.1.9.4.3-.7 2.6-.7 2.6 0v.3h2.7c2.3 0 2.7 0 2.8-.2l.9-.4c.8-.3 2-1.7 2.2-2.8l.2-1.1c.3-.6.1-1.5-.3-2.4l-.4-1c0-.5-1.2-1.5-5.8-4.5-2.3-1.5-2.4-1.6-2.9-2.5l-.4-1 .3-1c.7-1.8 2.3-2.2 5-1.3 1.5.6 1.8.8 2.6 2.8.6 1.3.8 1.6 1.1 1.3.4-.3.4-1 0-1.5a4 4 0 0 1-.2-1.6c0-1.5-.5-2.7-1-2.4-.6.3-4.4 0-4.6-.4-.2-.2-1.5-.1-2 .2M2 194c0 .4.1.5.6.7.8.4.8.2 1 7 0 7.8 0 7.9 1.5 9.7l1.3 1.2c.5 0 1.4.4 1.4.6 0 .2.6.2 3.4.2s3.3 0 3.3-.2c0-.1.2-.3.5-.4l.8-.5c.1-.2.4-.4.7-.4 1.4-.5 1.7-2.1 1.8-9.1.2-6.5.3-7.4 1-8 1.2-1 .8-1.2-1.6-1.2h-2.2l.1.5c0 .3.3.5.7.6.9.4.9.1.9 7.4v6.3l-.6 1c-1 1.7-1.8 2.4-3 2.6-2.5.3-2.8.3-3.5.1L9 212c-.7-.2-2-1.2-2-1.7l-.3-1.7-.3-1.9-.2-5.7c0-5.5 0-5.6 1-6.2.5-.2.6-.4.6-.7v-.4H2v.4m20.2 0c0 .4.3.6 1.3.8l1 .9.4.7v7.6c.1 8.6.2 8-1.3 8.2-.6.1-.6.2-.3.3.3 0 .4.2.4.6v.2l.8-.2c.4 0 .7.1.7.2.1.2.2.2.2 0l.8-.2c.4 0 .6 0 .6.2l.2-.3c.2-.8 1.2-.8 1.4 0v-.1l.1-.6h-.8l-1-.2c-.5-.9-.8-13.2-.3-13.2.3 0 2 1.7 2.6 2.7a74.9 74.9 0 0 0 5.3 6.4c0 .1.4.7 1 1.2 2 2.2 2.9 3.2 3 3.7 0 .5.2.5.6.5h.4v-8c.1-9.4.2-10.3 1.1-10.8.4-.1.6-.3.6-.6 0-.4 0-.4-2.2-.4h-2.2l.1.5c0 .3.2.4.5.6 1 .3 1 0 1 6.7-.1 6.5-.2 7.2-.8 5.8 0-.3-.5-.8-.9-1.2-.4-.3-.7-.7-.7-.8l-.7-.8L34 203l-.8-1a9 9 0 0 1-1-1.2l-.5-.7A37.3 37.3 0 0 0 28 196l-.8-1.1c-.4-1.1-5.1-1.7-5.1-.7m22.6 0c0 .3.2.5.5.7.3.1.5.4.6.5v16.5c-.2.3-1 .6-1.5.6-.4 0-.4 0-.4.6s0 .6.1.1c.2-.5.7-.8.7-.3l.3.4.4.2c.1.2.2.2.2 0 0-.1.2-.2.6-.2l.8.2c0 .2 0 .2.2 0l.7-.2c.4 0 .7 0 .7.2s0 .2 0 0l.5-.2c.2-.1.3-.3.3-.4 0-.5.6-.2.7.3 0 .3.1.4.1.2l.4-.6.3-.3h-.7c-1.5 0-1.6-.9-1.6-9.5 0-7.5 0-7.7 1.1-8.2.4-.1.5-.3.5-.6v-.4h-5.5v.4m8.5 0c0 .2.2.5.5.6.5.3 1.5 1.7 1.5 2.1l.8 1.8.8 2c0 .3.2.7.3.8.2 0 .4.4.5.8 0 .3.3.7.4.9.2.1.3.6.4 1l.4 1 .4.9 1.2 2.6A24.7 24.7 0 0 1 62 212c.2.2.4.7.4 1 .1.5.8.8.8.3l.3-.5c.2-.2.3-.5.3-.7l.4-1c.2-.5.5-1 .5-1.4l.4-.8.4-1c0-.4.2-.8.4-1l.3-.7.4-.8.4-1 .7-2 .9-2c.8-2.6 2.5-5.4 3.2-5.6.6-.1.8-.3.5-.8-.1-.3-.3-.3-2.5-.3h-2.3v.4c0 .4.1.5.6.7 1 .5 1 1.6-.3 4.4l-.7 1.7c0 .3-.3.7-.4 1l-.4.8-.4 1-.4 1-.4 1-.5 1.2a7 7 0 0 1-1 1.9c-.1.1-.8-1-1.1-1.8a7 7 0 0 0-.5-1.2l-.4-1a3 3 0 0 0-.4-1c-.2-.3-.4-.8-.4-1.1l-.4-.8-.2-.4-.6-1.6-.8-2c-.6-2.6-.6-2.7.3-3.1.4-.2.6-.4.6-.7v-.4h-6.4v.4m21.6 0c0 .4.1.5.5.7 1 .3 1-.2 1 8.7 0 9.3 0 8.6-1.3 8.9l-.4.1c.2 0 .4.3.4.6l.2.3c0-.1.3-.2.7-.2.4 0 .7.1.7.2 0 .2.1.2.1 0 0-.1.3-.2.8-.2l.8.2c0 .2 0 .2 0 0 0-.1.3-.2.8-.2l.7.2c0 .2 0 .2 0 0 0-.1.3-.2.8-.2l.7.2c0 .2 0 .2 0 0l.8-.2c.5 0 .8.1.9.2 0 .2 0 .2 0 0 0-.1.3-.2.7-.2l.8.2c0 .2 0 .2 0 0 0-.1.3-.2.7-.2l.8.2c0 .2 0 .2.2 0 0-.1.3-.2.7-.2 1.6 0 1.7-.2 2.4-3 .2-.6 0-1-.3-.5-.2.4-1.5 1.5-1.8 1.5l-.7.4c-.5.5-6 .7-7 .3l-.4-.2v-4c0-4.8-.3-4.4 3-4.3 2.6 0 3.4.4 3.8 1.5.2.6.8.7 1 .1.2-1 0-3.9-.5-4-.2 0-.4.2-.7.6l-.3.6h-3c-3.6 0-3.3.3-3.3-3.8 0-3.9-.4-3.5 3.7-3.5h3.4l.5.5c.4.3.7.8.9 1.3.8 2.3 1.4 1.3.9-1.4-.4-1.7.3-1.6-7.2-1.6h-6.6v.5m16.9 0c0 .2.1.4.6.6.8.4.8.3.8 8.6 0 9 0 9-1.9 9-.3 0-.4 0-.3.6v.1c.2-.5.8-.8.8-.3l.3.4.4.2c0 .2.1.2.1 0 0-.1.2-.2.7-.2l.7.2c0 .2 0 .2 0 0l.8-.2c.5 0 .8.1.9.2 0 .2 0 .2 0 0 0-.1.3-.2.7-.2.4 0 .7 0 .7.2l.2-.3c0-.3.3-.6.4-.6.2 0 .2 0-.1-.1-.8 0-1.4-.6-1.6-1.3-.2-1.2 0-6.5.1-6.7.5-.4 2.2-.1 2.2.4 0 .1.5.9 1.2 1.7a10 10 0 0 1 1.3 1.8l.3.4.8 1c.3.5.6.8.8.9l.3.5c.1.5 1.5 2 1.8 2l.1.2c0 .2 0 .2.1.1l.8-.2.7.2c0 .2 0 .2 0 0 .1-.2 1.4-.3 1.4 0l.2.1s.2-.1.2-.4c0-.3 0-.4.3-.6.4 0 .4-.1 0-.1s-.8-.2-1.2-.6l-1-.7c-.3-.2-1-1-2.4-3l-1.7-2a4.8 4.8 0 0 1-1.2-2.3l1-.3c2.6-.6 4.3-4.7 2.7-6.9-1.9-2.6-2.3-2.7-8.8-2.8l-4.2-.1v.4m32.6 0c0 .3.2.4.6.6 1 .2 1 .2 1 9l.1 7.7-.4.5c-.4.4-.6.5-1.3.5h-.8v1.2l.2-.5c.2-.8 1.2-.8 1.3 0l.1.3c0-.1.3-.2.8-.2l.8.2c0 .2.1.2.1 0 0-.1.3-.2.7-.2.4 0 .7.1.7.2 0 .2.1.2.1 0s1.4-.3 1.4 0l.1.1c.1 0 .2-.1.2-.4 0-.3.1-.4.4-.6.3 0 .3-.1-.2-.1-1.4 0-1.5-.7-1.5-9.3 0-8.2 0-7.8 1.2-8.4.6-.2.7-.4.7-.6 0-.4 0-.4-3.1-.4h-3.2v.4m10.2 0c0 .3.1.5.5.7.3.2.5.4.6.7l.3.9a187 187 0 0 1-.3 15.3c-.1.3-.8.7-1.6.7-.4 0-.4 0 0 .1.2.2.3.3.3.6s.1.4.2.4l.2-.1c0-.3 1.3-.2 1.4 0 0 .2 0 .2 0 0 0-.1.3-.2.7-.2l.8.2c0 .2 0 .2 0 0 0-.1.3-.2.7-.2l.8.2c0 .2 0 .2.2 0 0-.1.3-.2.7-.2.4 0 .7.1.7.2 0 .2.1.2.1 0 0-.1.3-.2.7-.2.4 0 .7.1.7.2 0 .2.1.2.1 0 0-.1.3-.2.7-.2l1.2-.2c.2-.2.8-.3 1.3-.3.6 0 1 0 1.2-.2 0-.2.5-.5 1-.7a10 10 0 0 0 1.6-1l.7-.4.5-.6.9-1.3c.3-.5.6-1 .6-1.3l.2-.7c.4-.5.4-4.9 0-5.4l-.2-.7c0-1.5-2.1-4.5-3.4-4.9-.3 0-.8-.2-1-.4l-1-.3-1.5-.4c-1.9-.6-3-.7-6.8-.7h-3.8v.4m90.7.6l-.6 1.6c0 .3-.3.7-.4.9l-.4.8c0 .3-.2.8-.4 1.1l-.4 1-.4 1a3 3 0 0 0-.4 1l-1 2.3-.5 1.1c-.1.5-.3 1-.5 1l-.2.6-.5 1.4c-.3.5-.5 1.1-.5 1.3 0 .7-1.7 2.6-2.3 2.6-.4 0-.4 0 0 .1.2.2.3.3.3.6s0 .4.2.4l.1-.1c0-.3 1.3-.2 1.4 0 0 .2.1.2.1 0 0-.1.3-.2.7-.2.4 0 .7 0 .7.2l.1-.3c.1-.3.3-.6.5-.6l-.2-.1c-.8 0-1-1.1-.5-2.1l.5-1.3.7-1.7.4-.8h3.3c3.6 0 4 .1 4.2 1.2l.5.8c.2.2.3.6.3.7l.4 1.3c.5 1 .5 1.4-.2 1.7-1 .3-.7 1 .2 1l.8.2c0 .2.1.2.1 0 0-.1.3-.2.7-.2.4 0 .7.1.7.2 0 .2.1.2.1 0 0-.1.3-.2.7-.2.4 0 .7 0 .7.2s0 .2 0 0l.5-.2c.2-.1.3-.3.3-.4 0-.5.5-.3.7.3l.3.5v-.5c.1-.8 1-.8 1.3 0l.2.3c0-.1.2-.2.7-.2l.7.2c0 .2.1.2.2 0l.7-.2c.5 0 .7 0 .7.2s0 .2.1 0l.4-.2c.2-.1.3-.3.3-.4 0-.5.6-.2.7.3.1.5.1.5.1-.1s0-.6-.4-.6c-.7 0-1.3-.5-1.4-1-.3-1.5 0-12.6.2-12.7.2 0 .3.1.4.3 0 .2.4.7.8 1l1 1.2 1.2 1.5 1 1c0 .2.4.7.9 1.2a15 15 0 0 1 1.3 1.7l.6.7.5.7 1.2 1.3c.5.5 1 1 1 1.2 0 .1.4.7 1 1.2.5.6 1 1.2 1 1.4.1.3.2.4.5.4h.4V205c0-9.6 0-9.5 1-10.1 1.5-.8 1-1-1.5-1h-2.1v.3c0 .3.1.5.5.7 1 .4 1 .4 1 6.7 0 7-.1 7-2.4 3.8l-1-1.4-.8-.8-.8-1a4 4 0 0 1-.9-1.1 3 3 0 0 0-.7-1l-.8-.8-.9-1.2-1.3-1.6-.7-.9-.8-1c-.5-.7-.8-.8-3.4-.8-1.8 0-1.9 0-1.9.4s.6.8 1.3.8c.6 0 1.2.6 1.6 1.4.3.5.3 1.5.3 8v7.4l-.7.3c-1.6.8-4.3.3-4.3-.7l-1.3-2.8a17.2 17.2 0 0 1-1.4-3.4c-.2-.2-.4-.5-.5-.9a14.7 14.7 0 0 0-1-2.3c0-.3-.2-.6-.3-.7l-.8-1.9-.4-1a8 8 0 0 1-.5-1.1 12 12 0 0 0-1.7-3.1l-.4-.4-.5 1m32.9-.8c-.3.2-.4.6-.5 1.4l-.2 1.8c-.2 1.3.5 1.5.7.3.2-1.4 2.1-2.5 4.5-2.5 1.5 0 1.4-.7 1.4 8.5v8l-.5.5c-.3.4-.6.5-1.1.5h-.7l.3.3.4.6v-.2c.2-.5.8-.8.8-.3l.3.4.4.2c0 .2.1.2.1 0 0-.1.2-.2.7-.2l.7.2c0 .2.1.2.2 0l.7-.2c.5 0 .7 0 .7.2s0 .2.1 0l.4-.2c.2-.1.3-.3.3-.4 0-.5.6-.2.7.3.1.5.1.5.1-.1s0-.6-.4-.6c-1.4 0-1.4-.5-1.4-9.7V195h.9c2.5-.2 5 1 5 2.3l.3.6.3.5.2-.4c.3-.6-.1-3.7-.6-4-.5-.4-14.4-.4-14.8 0m45.2 0c-.2.2-.3.6-.3 1.1 0 .5-.1 1-.3 1.2-.3.4-.3 1.2 0 1.7l.3.5.2-.5.1-.8c0-.7 1.5-1.9 2.6-2 1.6-.3 2.6-.4 3-.2l.3.2v16.5l-.4.3c-.3.3-.6.4-1.2.4-.7 0-.8 0-.5.1.3.2.4.3.4.7 0 .4 0 .4.2-.1.1-.6.6-.8.6-.3l.3.4.5.2c0 .2.1.2.2 0 0-.1.3-.2.7-.2.4 0 .7.1.7.2 0 .2.1.2.1 0 0-.1.3-.2.7-.2.4 0 .7 0 .7.2s0 .2 0 0l.5-.2c.2-.1.3-.3.3-.4 0-.5.6-.2.7.3 0 .5 0 .5.1-.1 0-.6 0-.6-.4-.6-.6 0-1-.5-1-1.1a121.1 121.1 0 0 1-.3-16.2c.4-.5 3.8 0 4.7.6.3.2.7.8 1 1.4.7 1.4 1 1.4 1-.2 0-1.5-.3-2.5-.6-2.9-.4-.5-14.5-.4-15 0m37.1 0c0 .4 0 .4.2.2 0 0 .2-.3.4-.3.1-.1 0-.2-.2-.2-.3 0-.4.1-.4.4m.9 0c0 .2.2.6.5.9l.5.6.1 7.8c0 9.4.1 9-1.6 9-.3 0-.4 0-.3.6v.1c.2-.5.8-.8.8-.3l.3.4.4.2c0 .2.1.2.1 0 0-.1.2-.2.7-.2l.7.2c0 .2 0 .2 0 0l.4-.2c.3 0 .4-.1.4-.3 0-.5.5-.4.7.2l.3.5v-.4c0-.4 0-.5.3-.7.3 0 .2-.1-.4-.1-1.4 0-1.5-.3-1.5-8l-.1-5.7h.4c.4 0 .5.2.7.8l.5.9.2.6 1.2 2.6a25.5 25.5 0 0 1 1.6 3.6l.5 1 .5 1.3.2.6.3.6.5 1c.2.4.4.8.7 1l.5.5.4-.4c.4-.5 1.8-3.2 2.2-4.4l.6-1.3.3-.8.3-.4.4-1c.1-.4.3-1 .5-1.2.2-.2.3-.5.3-.7l.4-.7.4-.9c.2-1.1 1.1-2.7 1.5-2.7h.4v5.6c0 7.6-.1 8-2 8-.4.1-.4.1 0 .2.2.2.3.3.3.6s.1.4.2.4l.2-.1c0-.3 1.3-.2 1.4 0 0 .2 0 .2 0 0 0-.1.3-.2.7-.2l.8.2c0 .2 0 .2 0 0s1.6-.3 1.6 0h.2l.4-.4c.1 0 .2 0 .2-.2 0-.5.5-.3.6.3l.2.5v-.5c.2-.8 1.2-.8 1.4 0l.1.3c0-.1.3-.2.8-.2l.8.2c0 .2 0 .2 0 0l.8-.2c.4 0 .6 0 .6.2s0 .2.2 0l.4-.2.3-.4c0-.5.5-.2.7.3v-.1c.1-.5 0-.6-.3-.6-1 0-1.6-.8-1.1-1.7.2-.3.3-.8.3-1l.3-.7.5-1.2c.2-1.2.5-1.3 4.3-1.2h3.3l.7 1.4c.4.8 1 2 1 2.5l.4 1.1-.3.4-.8.4c-.2 0-.4 0-.4.3 0 .2 0 .2.2 0 .3-.2.5-.2.5.1l.3.4.4.2c.1.2.2.2.2 0l.8-.2.7.2c0 .2 0 .2 0 0 0-.1.3-.2.8-.2l.7.2c0 .2 0 .2 0 0l.4-.2c.3 0 .4-.1.4-.3 0-.6.5-.4.7.2 0 .5 0 .5 0 0 .1-.6 0-.7-.4-.8-.4 0-.6-.2-1.2-1.7l-.5-1-.4-.9-.4-.8c-.3-.5-1-2-1.2-2.8-.2-.5-.4-1-.6-1l-.2-.7-.8-2c-.5-.8-.9-1.7-.9-2 0-.1 0-.4-.2-.5l-.5-1-.5-1.3c-.2-.1-.3-.4-.3-.6l-.3-.6a4 4 0 0 1-.5-1l-.3-.7c-.3 0-1.2 1.2-1.2 1.5l-.4 1.2a70.6 70.6 0 0 0-3.2 7.6l-.4 1-.3.8a5 5 0 0 0-.5 1c0 .4-.3.8-1 2.2l-.5 1.4-.5.9a2 2 0 0 0-.4.6c0 .5-3 .7-3.8.2-.7-.3-.7-.1-.7-9v-8l.6-.3c1.3-.6.8-1-1-1-2 0-2.5.1-2.7 1l-.5 1-.3.6-.3.7a5 5 0 0 0-.6 1.1 16.7 16.7 0 0 1-1.6 3.5l-.4.8-.8 2a27 27 0 0 1-2 3.7c-.2.2-.2.2-.4 0l-1.8-3.5a16.7 16.7 0 0 0-1.4-3 15 15 0 0 0-.3-.7 13 13 0 0 1-1.1-2.5 18 18 0 0 0-1.5-3l-.4-.8c-.2-.8-.7-1-2.6-1-1.5 0-1.5 0-1.5.4m-56 .5l.9.3c.9 0 3 2.1 3.2 3.2l.4 1.9a24 24 0 0 1-.1 8.6c-1.2 2.8-2.6 3.8-5.2 3.8-3.1 0-3.8-.5-5.4-3.4-1.2-2.2-1.4-8.3-.3-10.1l.7-1.5c.8-1.5 1.8-2.4 2.8-2.6.4 0 .8-.2 1-.3.4-.2 1.6-.1 2 .1m45.6.1c1.8.6 3.5 2.2 3.7 3.3a46.4 46.4 0 0 0 1 4.8c.2.2.2.3-.1 3.5-.6 4.7-4 7.2-8.4 5.8-1-.4-2.2-1.6-2.7-3 0-.3-.3-.6-.4-.7l-.2-.8-.3-1.1c-.6-1.2-.1-6.6.6-7.8l.4-.8c.1-.4 1-1.8 1.5-2.3.8-1 3.5-1.4 5-.9m-186.8.6c4.6 1.6 6.6 7.9 4.2 12.8a13.6 13.6 0 0 1-3.4 3.5c-.5.5-5.5.7-5.9.2a56 56 0 0 1-.1-8.3v-8l.6-.3c1-.5 3-.4 4.6.1m38.2 0c3 1 5 4.2 5 8.2a9.5 9.5 0 0 1-.6 3.9c0 .8-.8 1.8-3.6 4.3-.4.3-5.2.5-6 .2l-.4-.2v-16l.8-.4c1-.6 3-.6 4.8 0m-82.3.2l.8.5.6.5c1.1.4 1.1 3.7 0 5-1.2 1.4-1.4 1.5-3.4 1.5h-1.8l-.2-.5c-.2-.7-.2-6 0-6.8l.2-.5h1.5c1.2 0 1.7 0 2.3.3m60.8 3.8l.9 2 .5 1.4.6 1.5c.2.3.2.4 0 .8l-.1.4h-5.5v-.5c0-.2.3-1.2.8-2l1-2.4.7-1.4.5-.8.3.4.3.6m213.7.2a443.6 443.6 0 0 0 1.9 4.6c.6 1 .3 1.2-2.8 1.2h-2.8v-.3c0-.3.4-1.2.8-2.2.5-1 1-2 1-2.3a7 7 0 0 1 1.3-2.1l.6 1.1m-148.4 0l.6 1.5.3 1 .2.5c.3.2.6 1.2.7 2.3l.1.6h-2.7c-3.3 0-3.7-.3-2.6-1.7.2-.2.3-.5.3-.7l.3-.7.5-.9c.5-2.4 1.8-3.5 2.3-1.9"/>
</svg>
