<svg xmlns="http://www.w3.org/2000/svg" width="355.9" height="356.5" display="block">
  <path fill="#004038" fill-rule="evenodd" d="M177.1.1c0 .1-2.1.2-5.4.2a75 75 0 0 0-13.1.9l-2 .2c-.8 0-1.7.1-2.2.3a7 7 0 0 1-1.9.2c-.6 0-1.4.1-1.8.3-.4.2-1 .3-1.5.3l-1.6.2c-.4.2-1 .3-1.6.3l-1.2.2c-.1.1-.7.3-1.3.3a5 5 0 0 0-1.4.3 5 5 0 0 1-1.3.2c-.6 0-1.1.2-1.2.3l-1.2.2c-.5 0-1 .2-1.2.3l-1.2.3c-.5 0-1 .2-1 .3l-.7.2-1.1.2-1.2.3c-.2 0-.7.1-1 .3l-.9.3a48.4 48.4 0 0 1-2.9.8A196.6 196.6 0 0 0 104 16a209.4 209.4 0 0 1-5.6 2.8s-.1.2-.3.2c-.2 0-.4 0-.6.2 0 .2-.3.3-.5.3l-.6.3c0 .1-.3.3-.5.3s-.4 0-.6.2c0 .2-.3.3-.5.3s-.4 0-.5.2L92 22.3 82 28a218.8 218.8 0 0 0-23 17.6l-2 1.7a268.7 268.7 0 0 0-16.7 17.8l-2.1 2.6a207.3 207.3 0 0 0-17 26l-.4.5-.3.6c0 .3-.2.5-.4.6l-.1.4-.3.6a1 1 0 0 0-.3.6l-.1.5a125.3 125.3 0 0 0-7.1 15.2l-.5 1.2-.3.9s0 .3-.2.5l-.7 1.9-.3.7-1.3 3.8a232.5 232.5 0 0 0-6 24 4 4 0 0 1-.4 1.5l-.2 1.5-.3 1.7c-.1.4-.3 1.3-.3 2 0 .6 0 1.2-.2 1.4-.1.1-.3 1-.3 2s-.2 2-.3 2.2l-.2 2.6a219.3 219.3 0 0 0 .9 42.2l.1 1.5c0 .6.1 1.4.3 1.8.1.3.3 1 .3 1.6l.2 1.5c.2.3.3 1 .3 1.6 0 .6.1 1.3.3 1.5.1.3.3.8.3 1.3 0 .4 0 1 .2 1.1l.3 1.4a48.9 48.9 0 0 0 2 8.4l.3 1.1.6 2.3a126.1 126.1 0 0 0 6.2 18l.3.7 1 2.4a269.7 269.7 0 0 0 10 19.4 14.2 14.2 0 0 0 1.1 2l.6 1 .5.8.8 1.3.9 1.4.1.1.2.2 1 1.6a67.5 67.5 0 0 1 2.3 3.4l1.1 1.5a83 83 0 0 0 5.6 7.4 120.8 120.8 0 0 0 6.4 7.7 311.3 311.3 0 0 0 17.7 17.3 56.4 56.4 0 0 1 4.7 3.8l1.7 1.3a201.4 201.4 0 0 0 23 15c0 .2.6.5 2.5 1.5a60.8 60.8 0 0 1 5 2.5l.5.3.5.3a52 52 0 0 1 4.7 2.2 68 68 0 0 0 9 3.7 234.2 234.2 0 0 0 14 4.7l1.1.2.7.2 1 .4a29 29 0 0 1 4.4 1 51 51 0 0 1 5.5 1.3l1 .2c.4 0 1 .1 1.4.3l1.8.3c.6 0 1.2.2 1.3.3l1.2.2c.6 0 1.4.1 1.7.3l1.8.2c.7 0 1.5.2 1.8.3.4.2 1.2.3 2 .3a9 9 0 0 1 2 .3l2.6.2 2.3.2c.3.2 2.3.3 4.3.4a135 135 0 0 0 30.2-.6c.8 0 2 0 2.4-.2.5-.2 1.5-.3 2.2-.3.7 0 1.6-.1 2-.3l1.7-.3c.6 0 1.4 0 1.8-.2a6 6 0 0 1 1.6-.3c.5 0 1.3-.1 1.6-.3l1.4-.3 1.1-.1 1.5-.4 3.5-.7a7 7 0 0 1 1.3-.3c.5 0 1-.2 1.2-.3l1.1-.2 1-.3.8-.2a2 2 0 0 0 1-.3l1-.2 1-.3c.3-.2.7-.3 1-.3l1-.2 1.7-.6a159.3 159.3 0 0 0 15.8-5.5l1-.4a113.6 113.6 0 0 0 7.8-3.5 209.4 209.4 0 0 0 15.2-8.1l4.1-2.5a363 363 0 0 0 14-10 85.5 85.5 0 0 0 9.2-7.6 252 252 0 0 0 20.2-21.2 58.7 58.7 0 0 0 4.4-5.7 249.9 249.9 0 0 0 14.9-23.7 104 104 0 0 0 7.4-16.3l.5-1.3.7-1.7.3-.8.1-.4.2-.4.3-.8.5-1.6.6-1.6.3-1c0-.1 0-.4.2-.6.2-.2.3-.6.3-1 0-.2.1-.6.3-.7.1-.2.3-.5.3-.8 0-.3 0-.8.2-1 .2-.1.3-.5.3-.7l.3-1 .2-.8.3-1c.2-.2.3-.7.3-1 0-.2.1-.7.3-1l.2-1 .3-1c.2-.2.3-.7.3-1l.1-.7c.1 0 .3-.6.3-1 0-.6.2-1.1.3-1.2l.3-1.2c0-.6.2-1 .3-1.2l.2-.8c0-.4 0-1 .2-1.4.2-.4.3-1 .3-1.4 0-.3.1-1 .3-1.3l.2-1.5.3-1.5a6 6 0 0 0 .3-1.7c0-.5 0-1 .2-1.3l.3-2 .4-2.4.2-1.9c0-.6 0-1.4.2-1.9a218.4 218.4 0 0 0-1-46.8l-.3-1.8-.3-1.5-.3-1.6c0-.4 0-1-.2-1.4-.2-.3-.3-1-.3-1.4 0-.5 0-.9-.2-1l-.3-1.3-.2-1.2c-.1-.1-.3-.7-.3-1.2 0-.6-.2-1.1-.3-1.2l-.3-1.1c0-.6-.2-1-.2-1.1l-.2-.7c0-.3-.1-.8-.3-1l-.3-1c0-.4 0-.8-.2-1.1-.2-.3-.3-.7-.3-1l-.3-.8-.3-1c0-.3 0-.7-.2-1l-.3-.9-.2-1c-.5-1-.7-1.8-.9-2.5 0-.4-.2-.8-.3-.9l-.2-.7-.3-.8c-.2-.2-.3-.5-.3-.7l-.2-.9a481 481 0 0 0-1.5-4 46 46 0 0 0-2-4.8 114 114 0 0 0-8.7-18.2 29.8 29.8 0 0 1-1.8-3.2c-.1 0-.2-.1-.2-.3 0-.1 0-.3-.2-.5l-.7-1c-.2-.6-.5-1-.6-1l-.2-.3-.4-.8-1.1-1.8a200.6 200.6 0 0 0-8.6-12.4l-1.7-2.2a26.7 26.7 0 0 0-2.2-2.8l-1.3-1.5a59.3 59.3 0 0 1-3.5-4.1l-2.6-2.8A177.6 177.6 0 0 0 177.1 0m10.1 11.5c3.8.1 6 .3 10.2.8l3.8.5a119.8 119.8 0 0 1 14.8 2.7 69.9 69.9 0 0 1 8 2.1 34 34 0 0 1 5.2 1.5l.8.3c.2.2.6.3.8.3.3 0 .6.1.8.3l.8.2.7.3c.2.2.5.3.7.3.2 0 .6.1.8.3l.8.2.8.3c.2.2.5.3.7.3.2 0 .5.1.7.3l.6.2.7.3c.2.2.5.3.8.3l.6.2c.1.2.4.3.6.3l.6.2 1.3.6a180.6 180.6 0 0 1 22 11.3A186.2 186.2 0 0 1 289.5 54 190.3 190.3 0 0 1 313 80l.2.5.5.7.7.8a971.3 971.3 0 0 0 4.4 6.5 1031.6 1031.6 0 0 0 4.6 7.9 193.4 193.4 0 0 1 11.6 25 131.1 131.1 0 0 1 5.2 17.7 56.8 56.8 0 0 0 1.1 4.9 251.7 251.7 0 0 0 1.5 7.8 35.6 35.6 0 0 1 .5 4.4l.4 2.2.2 2 .1 2.2a253.7 253.7 0 0 0 .6 9.3 177 177 0 0 1-3 39.5c-.2.1-.3.8-.4 1.4 0 .5-.2 1.1-.3 1.2l-.2.8c0 .3 0 1-.2 1.5a134.6 134.6 0 0 0-2 7.9 1219.3 1219.3 0 0 1-4 12.4 1 1 0 0 0-.3.6l-.3.7-.3.7-.3 1a611.3 611.3 0 0 0-1.3 3.1c0 .2 0 .4-.2.4l-.3.7c0 .3-.2.7-.3.8-.2.1-.3.3-.3.5s-.1.5-.3.7l-.2.6-.2.4c-.1 0-.2 0-.2.2a52 52 0 0 1-4 8.2 40.8 40.8 0 0 1-2.2 4.2 66.5 66.5 0 0 1-2.5 4.3 125.3 125.3 0 0 1-14.4 20.5 41 41 0 0 1-3.1 3.8 170.1 170.1 0 0 1-61.6 44.4l-.8.2-.6.3a1 1 0 0 1-.6.3c-.2 0-.5.1-.7.3l-.8.2a1 1 0 0 0-.6.3 1 1 0 0 1-.6.3c-.2 0-.6.1-.8.3l-.7.2-.7.3-.9.3c-.2 0-.5.1-.7.3l-.7.2c-.3 0-.6.2-.7.3-.2.2-.5.3-.7.3l-.9.2c-.2.2-.6.3-.8.3-.3 0-.6.2-.8.3l-.9.3c-.2 0-.7 0-1 .2l-.9.3c-.2 0-.4 0-.5.2l-1 .3-.8.2-1 .3c-.5 0-1 .2-1 .3l-.7.2-1 .2c-.3.2-.8.3-1.2.3l-1 .3-1.1.3a3 3 0 0 0-1.2.2c-.3.2-.8.3-1 .3l-1.6.3a64.8 64.8 0 0 1-9.7 1.7 59.3 59.3 0 0 1-7.2 1l-1.7.1-3.7.4-4 .3a193 193 0 0 1-31.8-1.4 149.3 149.3 0 0 1-43.1-12 122.5 122.5 0 0 0-6.3-2.8 3796 3796 0 0 0-10.4-5.5 25.6 25.6 0 0 0-2-1l-2.1-1.4a29.9 29.9 0 0 1-2.9-1.7l-.2-.2-.2-.2a3 3 0 0 1-1-.6l-.8-.5-.8-.6-.8-.5-.8-.6-.9-.5-.2-.1-2.1-1.6a139.2 139.2 0 0 1-16.2-13.3 196 196 0 0 1-17.5-18.9 199.6 199.6 0 0 1-15-22.5A179.6 179.6 0 0 1 14.3 211c-.2-.2-.4-1.7-.8-4.2L13 205l-.2-1.8c0-.8-.2-1.6-.3-1.9l-.2-1.2-.3-2.9a124.7 124.7 0 0 1-1-12.2 207.9 207.9 0 0 1 1.3-28.5c0-.8.2-1.8.3-2.2l.2-1.5.2-1.3.4-1.8a102.6 102.6 0 0 1 3.6-16.4l.3-1c.2-.1.3-.5.3-.8 0-.2.1-.7.3-1l.2-.9.3-.9c.2-.3.3-.7.3-1l.1-.4c.1 0 .3-.5.3-.9l.3-.8.2-.5.3-1 .2-.7.3-.7.3-.7.2-.8.3-.6.3-.8.3-.8c0-.2.1-.5.3-.7l.2-.6.3-.9 1-2.4a45.8 45.8 0 0 1 2.2-5 138.5 138.5 0 0 1 11-20.5 418 418 0 0 1 9.4-13.3 32 32 0 0 0 2.2-2.8l.8-1a49.5 49.5 0 0 1 3.7-4.3 157.7 157.7 0 0 1 26.8-24.4l.3-.2 1.2-.7a190 190 0 0 1 16.5-10.5 302.7 302.7 0 0 1 18.4-8.6c.2 0 .6-.1.8-.3l.7-.3c.2 0 .5 0 .6-.2.1-.2.5-.3.7-.3.3 0 .7-.1.8-.3.1-.1.4-.3.7-.3.3 0 .6 0 .7-.2.2-.2.5-.3.8-.3.2 0 .6-.1.7-.3.1-.1.4-.3.7-.3.3 0 .7 0 .9-.2.2-.2.5-.3.8-.3.2 0 .6-.1.8-.3.2-.1.6-.3 1-.3.2 0 .6 0 .7-.2.1-.2.5-.3.8-.3.3 0 .7 0 .8-.2a9 9 0 0 1 2.6-.7l1-.4.5-.2c.2 0 .7 0 1.3-.2a136 136 0 0 1 34.5-5.4l3.4-.2c1-.2 9.3 0 14.7.2m-17.7 6c-.7.1-2.7.3-4.3.3l-3.4.4-2 .2c-1 0-2 .1-2.4.3-.4.1-1.3.3-2 .3s-1.5 0-1.8.2c-.3.2-1 .3-1.6.3-.5 0-1.3.1-1.7.3-.3.1-1 .3-1.6.3-.5 0-1.1 0-1.4.2a3 3 0 0 1-1.2.3l-1.2.2-1.4.4a52.3 52.3 0 0 0-8.3 2A118.3 118.3 0 0 0 118 29l-.8.3-.8.2A578.5 578.5 0 0 0 109 33a94.8 94.8 0 0 0-10.3 5.4 83.6 83.6 0 0 0-3.4 2 96.7 96.7 0 0 0-10 6.6 102.7 102.7 0 0 0-12.8 10 124.5 124.5 0 0 0-10.1 9.6l-3.1 3.2a83.6 83.6 0 0 0-7.8 9.2 29.8 29.8 0 0 1-1.6 2.2l-.8 1-.8 1a86.2 86.2 0 0 0-5 7.2c-.6.9-.5.6-2.7 4.3a118.6 118.6 0 0 0-7.9 14.6 1 1 0 0 0-.3.6c0 .3 0 .6-.2.7-.2.1-.3.3-.3.4l-.6 1.4a56.3 56.3 0 0 0-3 7.1c0 .2-.6 1.7-1 2.3l-.1.6-.3 1a696.9 696.9 0 0 0-1 3 147.9 147.9 0 0 0-7.2 30.2l-.3 2.3-.5 5a266.7 266.7 0 0 0 .9 36l.2 1.5c0 .6 0 1.5.2 1.9.2.4.3 1.2.3 1.7 0 .6.1 1.3.3 1.6l.3 1.2c0 .5 0 1.2.2 1.6.2.4.3 1 .3 1.3a136 136 0 0 1 1.6 7 135.4 135.4 0 0 0 9.6 27.4 122 122 0 0 0 7.2 14 162.6 162.6 0 0 0 103.6 76c.4 0 1 0 1.2.2.2.1.7.3 1.2.3s1.1 0 1.4.2c.2.2.9.3 1.4.3.5 0 1 .1 1.3.3l1.4.3a5 5 0 0 1 1.6.2c.4.2 1.2.3 1.8.3.6 0 1.5.1 1.9.3l2.1.2a6 6 0 0 1 1.8.3l3 .3 3.4.3 5.9.2c3.2 0 5 .1 5.3.3h1.4c.6-.2 3.2-.3 6-.3a87.5 87.5 0 0 0 17.4-1.6c.6 0 1.3-.1 1.6-.3l1.6-.2c.5 0 1.2-.2 1.4-.3.3-.2 1-.3 1.5-.3.6 0 1.2-.1 1.4-.3l1.2-.2c.5 0 1-.1 1.3-.3l1.3-.3a27 27 0 0 0 4.2-1 97.8 97.8 0 0 0 7.4-2 178.2 178.2 0 0 0 26.2-10.6l1.3-.8a73.7 73.7 0 0 0 8.8-4.9l1.1-.7a105 105 0 0 0 13-9 92.7 92.7 0 0 0 8.8-7.2l3.2-2.8a154.8 154.8 0 0 0 26.8-32.6 32.4 32.4 0 0 1 2-3.1 23.8 23.8 0 0 1 1.4-2.6l.5-.7.2-.5.3-.4.3-.6.1-.3.9-1.5.8-1.5a143.3 143.3 0 0 0 10.7-26.3l.3-.9c0-.5.2-.9.3-1l.3-.8c0-.5.2-.9.3-1l.1-.6c0-.3.1-.8.3-1l.3-1.4.3-1 .2-.7c0-.4.1-1 .3-1.2l.3-1.2c0-.4 0-.9.2-1 .2-.3.3-.8.3-1.2 0-.5.1-1 .3-1.2.1-.2.3-.8.3-1.3s0-1.1.2-1.4c.2-.2.3-.8.3-1.4 0-.5.1-1.2.3-1.5l.3-1.6.1-1.3c.1-.2.3-1 .3-1.8 0-.7.2-1.7.3-2l.4-2.5a2408 2408 0 0 0 .6-7.5 197.6 197.6 0 0 0-1.5-35.8 6 6 0 0 1-.2-1.7l-.3-1.5c-.2-.4-.3-1-.3-1.5 0-.4-.1-1-.3-1.4l-.2-1.4-.3-1.3a4 4 0 0 1-.3-1.3c0-.3-.1-.8-.3-1a3 3 0 0 1-.2-1.2l-.3-1.2c-.2-.2-.3-.7-.3-1a2 2 0 0 0-.3-1 2 2 0 0 1-.2-1l-.2-1a3 3 0 0 1-.4-1l-.7-2.7-.3-.8-.2-1-.8-2.4c0-.4-.2-.8-.3-.9l-.2-.7-.2-.6-.4-.9-.5-1.6A166.7 166.7 0 0 0 311.6 89a27.7 27.7 0 0 1-2.2-3.2l-1.8-2.6-.9-1c-.4-.5-.8-1-.8-1.2l-.3-.4-1.4-1.7a35 35 0 0 0-2.3-2.9 41.4 41.4 0 0 0-2.4-2.8 181.3 181.3 0 0 0-32.4-28.7 99.1 99.1 0 0 0-10.9-6.6 33.9 33.9 0 0 0-3.5-2 1 1 0 0 0-.6-.1c-.2 0-.3-.1-.3-.2s-.3-.3-.5-.3a138.2 138.2 0 0 0-10.6-5l-1.3-.6a47.2 47.2 0 0 0-4.8-1.9 42.9 42.9 0 0 1-3.5-1.2 155 155 0 0 0-37-8.2c-.2-.1-1.6-.3-3.3-.4a217 217 0 0 0-21.3-.3m17.8 5.7a147.9 147.9 0 0 0 8.7.8 1427.1 1427.1 0 0 0 7.2 1l1.8.3 1.7.2 1.3.3c.3.2 1 .3 1.3.3l1.4.2 1.2.3 1 .2 1.3.4a144.1 144.1 0 0 1 44.2 18.2 80.5 80.5 0 0 1 10.4 6.9l1 .6 1 .7c0 .2.5.5 1 .8l1 .8a36.2 36.2 0 0 0 3.3 2.7 43.5 43.5 0 0 1 3.8 3.2 176.4 176.4 0 0 1 24 26.3 162.5 162.5 0 0 1 23.4 48.3l.3 1.3.8 2.7a30.8 30.8 0 0 0 1 4.5 74.4 74.4 0 0 0 1.3 6.3l.3 1.6.2 1.5.3 1.8c0 .9.2 1.7.3 1.8l.2 2.3.3 2.3.3 3a258.1 258.1 0 0 1 0 26.8l-.4 3.7-.2 2.2c0 .7 0 1.4-.2 1.5-.1.1-.3 1-.3 1.8l-.4 2.5-.2 1.5c0 .5 0 .9-.2 1l-.3 1.4a51 51 0 0 1-1.3 6.3 29 29 0 0 0-.8 3.2c0 .5-.2 1-.3 1l-.2.9c0 .4 0 .8-.2.9l-.4 1-.3 1.3-.4 1.2-.3 1-.3 1.1-.3.8-.7 2.3-.3.8c0 .3-.2.8-.4 1l-.2.7-.8 2.1a46.8 46.8 0 0 0-1.4 3.8 7 7 0 0 0-.6 1.4l-.4 1-.6 1.3a65.6 65.6 0 0 1-4.2 9l-1 2a78.5 78.5 0 0 1-4.4 7.5l-.5.8-.2.4a60.7 60.7 0 0 1-5.2 8l-.2.2-.6.8-.9 1.1-.8 1.1a18.8 18.8 0 0 1-1.7 2.3l-1.2 1.4-.7 1-1 1a36.4 36.4 0 0 0-3.3 4l-1.8 2a128.2 128.2 0 0 1-18.8 17.5 2 2 0 0 1-.6.4l-1.5 1.2-.6.5-3 2a124.1 124.1 0 0 1-22 13.1l-.4.3-1.2.6-1 .6-.4.1-1.4.6-1.3.5-.2.2c0 .1-.1.2-.3.2l-1 .4a4 4 0 0 1-1 .3l-.2.2-.4.2-1 .3a578.5 578.5 0 0 1-2.6 1c-.2.2-.5.3-.7.3-.2 0-.5.1-.6.3-.1.1-.5.3-.8.3l-1.6.5a35 35 0 0 1-3.7 1.3 123.4 123.4 0 0 1-14.6 4 4 4 0 0 1-1.3.2 4 4 0 0 0-1.3.3l-1.3.2-1.2.2-1.8.4a218.3 218.3 0 0 0-8.8 1.3l-3 .2a186.8 186.8 0 0 1-35.3-.6 79.1 79.1 0 0 1-12-2 31.2 31.2 0 0 0-3.6-.8l-5.4-1.4a148.5 148.5 0 0 1-33-13.4l-.5-.2-.7-.4a112.3 112.3 0 0 0-4.4-2.6 69.2 69.2 0 0 1-9.6-6.2 92.5 92.5 0 0 1-6.7-5 194.3 194.3 0 0 1-8.3-7.1 202.2 202.2 0 0 1-17.8-19.2l-.6-.8-.8-1a4 4 0 0 1-.6-.8 176.9 176.9 0 0 1-25.2-51l-1-3.9a146.1 146.1 0 0 1-4.2-26.3 231.5 231.5 0 0 1 .3-26.5 75 75 0 0 1 1.6-12 404.8 404.8 0 0 0 1.4-7.4 385.6 385.6 0 0 0 2.2-8.8c.2-.2.3-.6.3-1 0-.3 0-.6.2-.6l.2-.7 1-3 .2-1c0-.1 0-.4.2-.5l.5-1.5.6-1.5.2-.6c0-.2.1-.5.3-.7l.2-.7.3-.9a579.3 579.3 0 0 1 1.6-3.9 105.6 105.6 0 0 1 3-6.4A170.9 170.9 0 0 1 51 89a34.2 34.2 0 0 0 2.3-3.3l1-1.2c0-.2.5-.7.9-1.3l2-2.4a154.8 154.8 0 0 1 130-57.5m-1.4 12.5l-.3 1c0 .4-.2.9-.3 1l-.2 1.1-.3 1.6c-.4 1.4-.7 3-.6 3.3.2.6 1.4.6 1.6 0 1-3.2 3.2-4.8 5.8-4.4a56 56 0 0 0 4 .6l1 .2c.4 0 .4 0 .3.5l-.2 1.4-.3 2.3a102 102 0 0 0-1.2 7.8l-.3 1.8c-.2.5-.3 1.2-.3 1.7l-.2 1.7c-.2.5-.3 1.3-.3 1.8 0 .4-.1 1.1-.3 1.5a7 7 0 0 0-.3 1.9l-.1 1.2c-.1 0-.3.8-.3 1.5 0 .8-.2 1.6-.3 1.7l-.3 1c-.3 2-1.3 2.7-3.6 2.6-1.6 0-1.9.1-1.7 1 .2.7.7.8 5 1.2l1.8.4 1.7.2 1.6.3c.2.2.8.2 1.4.2l2 .3c1.2.4 1.8.2 1.8-.7 0-.6 0-.7-.8-.8-3-.8-3.1-.9-3.2-3.3l.1-2.8a85.2 85.2 0 0 0 1.3-7.8 51.4 51.4 0 0 0 .8-5.5l.3-1.5a131.2 131.2 0 0 1 1.4-9.5l.2-.9h1.2c5.3 0 8.5 2 8.5 5.2 0 1.4.2 2 .7 2.1.7.2 1.1 0 1.1-.7l.2-1.6.6-5.7c0-.5-.3-.7-1.4-.9a174.3 174.3 0 0 1-7.8-1.2 64.8 64.8 0 0 0-6.7-1.1l-1.5-.2c-.5 0-1.3-.1-1.7-.3l-1.8-.2c-.6 0-1.2-.1-1.3-.3l-1.7-.3a18 18 0 0 1-2.3-.3 6 6 0 0 0-2.8-.1m-40 2.7a5 5 0 0 1-1.2.3 17.4 17.4 0 0 0-13.2 11.3l-.6 1.4v.8a9 9 0 0 1-.4 1.7c-1.1 4.5 1.9 13.6 5.7 17.1a17.5 17.5 0 0 0 21.8 2.2 24.8 24.8 0 0 0 5.1-5.4 16 16 0 0 0 2.7-9.6c0-2.8 0-3.5-.2-4-.2-.3-.3-.8-.3-1.2a3 3 0 0 0-.3-1.2l-.3-.8-.1-.6-.9-1.8c-2.4-5-7.3-9-12.8-10-1.4-.2-4.6-.4-5-.2m3.5 3.2c1.6.5 2.7 1.1 4 2.5 1.8 1.8 2 2 3.2 4.5a647.9 647.9 0 0 0 1.3 3.1l.3.8c0 .3 0 .6.2.8.2.2.3.6.3 1 0 .2.1.7.3 1 .1.2.3.8.3 1.3s0 1.1.2 1.4c.2.3.3 1.2.3 3.5 0 2.4 0 3.2-.3 3.6l-.2 1c0 .3-.2.7-.3.8-.2.1-.3.4-.3.6 0 .1-.1.4-.3.5l-.2.5c0 .5-2.8 3-4 3.6-7 3.3-13.3-.8-16.2-10.5-3.1-10.7-.7-18.7 6-20l1-.3c.2-.2 3.3 0 4.4.3M115 49.2a33 33 0 0 0-3.4 2.1l-1 .6-1.4.8-.6.5-.2.1a11 11 0 0 0-2.8 1.7 132.9 132.9 0 0 0-12 7l-1 .6-.8.5c-.8.3-1 1-.6 1.8a33.3 33.3 0 0 0 2.4 4.3c0 .2 0 .4.2.5l.6.9c.3.7.4.8 1 .8.6-.1.8-1 .3-2-.3-.7-.4-4-.1-4l.3-.5c0-.2.5-.7 1-1.2l2.5-1.7 2-1.2c.9-.6 1.3-.2 2.7 2.5l.9 1.4.5 1 .1.2c.1 0 .3.2.3.4l.5 1 1.1 1.7.6 1 .5.7.4.8.7 1c0 .3.3.7.5 1a633.7 633.7 0 0 1 6.2 10.3l.9 1.9c.4 1-.3 2.3-1.9 3.3-1 .6-1.1 1.3-.4 1.8.4.2.5.2 1.5-.5l1.3-.7.7-.5 1-.6c.5-.2.9-.4 1.9-1.1a3 3 0 0 1 1-.5s.2 0 .2-.2a11 11 0 0 1 2.7-1.6l.7-.5c1.8-1 2-1.2 2-1.9s-.6-1-1.2-.5c-1.3 1-3.3 1.2-4.3.2a61 61 0 0 1-5.8-9.4 57.7 57.7 0 0 1-4.1-6.8l-.4-.5s-.2 0-.2-.2a6 6 0 0 0-.8-1.5 59.6 59.6 0 0 0-2.4-4c-1.7-2.8-1.7-2.7-.4-3.4a19.3 19.3 0 0 0 2.4-1.4l.8-.5c2.2-1.4 4.9-1 7 1.1 1 1.1 1.2 1.2 1.8.6.4-.3.3-.9-.1-1.3l-.3-.3-.5-1-.6-.7-.5-.9-.5-.8a10 10 0 0 0-2-2.6l-.9.4m118.4.3l-1.1.2c-.5 0-1 0-1.3.2l-1 .4c-1 .1-2 .6-2.3.8l-.5.2-.4.2-.9.6-.8.5-1.1.9a12 12 0 0 0-2.7 2.7l-.8 1c-.1 0-.2 0-.2.2l-.4.7a23 23 0 0 0-3.2 7.7 25.3 25.3 0 0 0 .3 8.2l.3.8.3.6.4 1.1a13.8 13.8 0 0 1 .9 1.6l.3.7a27.5 27.5 0 0 0 4.9 4.7l1.1.8.8.4 1 .4 1 .5.7.2.9.2a16.7 16.7 0 0 0 12.2-1.5l.6-.3c.3 0 .5-.2.5-.2l.5-.4 1-.6 1.3-1a23 23 0 0 0 6.9-13.7c.2-1.3 0-3.8-.2-4l-.2-.8c0-.4-.1-1-.3-1.3l-.2-1c0-.3-.1-.6-.3-.8a15.4 15.4 0 0 0-3.9-6.1 15.6 15.6 0 0 0-5.5-3.5.8.8 0 0 1-.5-.3l-.7-.3c-.3 0-.7 0-.9-.2-.6-.4-6-.8-6.5-.5m7 3.4l.6.3c1 0 4.3 2.7 5 4a14.2 14.2 0 0 1 .5 10.4c-1 3.3-3.6 8.5-5.3 10.4-1.9 2.1-3.8 4-4.3 4l-.4.1c0 .2-1.3.8-2 .9-.4 0-.7.2-.8.3-.1.2-4.2.2-4.4 0 0-.2-.3-.2-.5-.2l-1.2-.5-1.2-.6c-1.4-.7-3.9-3.7-3.9-4.8l-.2-.2c-.4-.1-.3-7.2 0-7.9.2-.3.4-.7.4-1 0-.1.1-.6.3-.8l.2-1 .2-.4a29.3 29.3 0 0 1 3-5.6 17.4 17.4 0 0 1 7.1-7l.4-.1.7-.3a12 12 0 0 1 5.9 0m30 16.5l-.2.6 1 1.5c.5.7.6 2.6.2 3.1-.7.9-2.3 2.3-4.2 4a47.6 47.6 0 0 0-3.1 2.5 42 42 0 0 0-3.5 3 25.9 25.9 0 0 0-2.8 2.3l-4.8 4c-4 3.5-5.4 3.7-7.2 1.4-.7-1-1.9-1-1.9 0 0 .2 1 1.5 1.8 2.5a91.1 91.1 0 0 1 4.2 5l1 1.3c.9 1 1.2 1 1.8.4.4-.5.4-.5-.5-1.5-2-2.2-1.4-3.5 3.3-7.3a123.6 123.6 0 0 0 7.4-6 62.6 62.6 0 0 1 4-3.6l2.4-2c.9-.7 1.1-.6.6.4a39.4 39.4 0 0 0-1.8 3.9l-.3.5-.3.6a40 40 0 0 1-1.7 3.7l-.3.5c-.1 0-.3.3-.3.5l-.1.4-.3.4-2.2 4.8a273.7 273.7 0 0 0-5.1 10.9c-.7 1.3.3 1.8 2.4 1.2a1217 1217 0 0 1 20.8-5.7l.6-.1 1-.3c.3-.2.7-.3 1-.3.2 0 .7-.1 1-.3l1-.2c.4 0 .8-.1 1-.3.2-.1.6-.3 1-.3h.5l-.8.7a569.7 569.7 0 0 0-13 10.8 131.8 131.8 0 0 0-3.8 3.4l-1 .5c-.9.5-1.8.6-2.1.2l-.5-.3c-.1 0-.6-.3-1-.8-1.1-1.2-1.4-1.3-1.9-.8s-.3 1 .9 2.3a72.9 72.9 0 0 1 3.8 4.5 1027.4 1027.4 0 0 1 4.8 5.4c1 0 1.3-.9.4-1.9l-.7-1-.3-.7c-.6-1.1.2-2.2 3.6-5a95.8 95.8 0 0 0 4.3-3.7l3.1-2.7a167.6 167.6 0 0 0 8.7-7.2c2.6-2.2 3.8-2.5 5.4-1.4l1 .7c0 .5.6 1 1.1.7 1.1-.3.7-1.1-2.2-4.4a50 50 0 0 1-1.4-1.7c-1.5-1.9-2.2-2.5-2.7-2.4-1.7.3-2.3.5-2.4.6l-.9.2a2 2 0 0 0-1 .3l-.9.3c-.3 0-.7 0-1 .2a2 2 0 0 1-1 .3 2 2 0 0 0-1 .3 2 2 0 0 1-1 .3 2 2 0 0 0-.9.2c-.2.2-.6.3-1 .3-.2 0-.7.1-.8.3a2 2 0 0 1-1 .2 2 2 0 0 0-1 .3 2 2 0 0 1-1 .3c-.4 0-.8 0-.9.2l-.8.3-1 .2-1.2.4a27.8 27.8 0 0 0-3.6 1 3 3 0 0 0-1 .3l-.7.1c-.3 0-.7.1-1 .3l-1.1.3-1.2.3c-.6.1-.7-.3 0-1.5a43.3 43.3 0 0 0 2-4.5l.3-.5c.2-.1.3-.3.3-.4l.5-1.3a417.4 417.4 0 0 0 7.5-15.8c1.4-3 1.4-3-.7-5.2a38.8 38.8 0 0 1-2.6-3.1l-1.2-1.4c-.7-1-1.2-1.1-1.7-.5M81 72.2a89 89 0 0 0-7 8c0 1 1.1 1 2 0 .4-.4.8-.8 1-.8 0 0 .2 0 .2-.2 0-.1.5-.2 1.1-.2 1.2 0 2.1.6 4.3 2.6l1.2 1.2a329.8 329.8 0 0 1 11.2 10l.9.7-.2.2c-.4.2-6 0-7.1-.3l-4.2-.1-5-.2-6.7-.4c-2.8 0-5.4-.2-5.7-.3-1.5-.5-4-.3-4.5.3a81.8 81.8 0 0 1-5.8 6.4c-.3.1 0 1.1.3 1.3.4.2.6 0 1.7-.7.6-.5 1.2-1 1.4-1 0 0 .3 0 .4-.2.3-.4 4.2-.5 4.5-.1l1.7 1.5a115.2 115.2 0 0 1 5.3 4.8 160.2 160.2 0 0 1 5 4.4 66 66 0 0 1 5.7 5.2c2 1.7 2.6 2.9 2.4 4-.3.7-1.3 2.3-1.6 2.3l-.1.4c0 .7-2.3 3-3.3 3.5s-6.2.6-23.6.8c-14.1.2-13.2 0-13.5 1.1-.1.4.7 1.3 6.8 7.4a462.9 462.9 0 0 1 12.5 12.7c6.3 6.3 6.5 6.6 6.5 9 0 2.1 1.2 2.8 1.8 1l.3-1 .8-1.9 2.2-5.5c.9-1.7-.6-2.6-1.6-.9-1 2-2.4 2.4-3.5 1.4l-5.6-5.7s0-.3.2-.5.3-.5.3-.7l.3-.8.5-1.1.6-1.3.2-.9.3-.7a50.6 50.6 0 0 0 2-4.6c0-1.3 1.4-1.6 6.7-1.4H77l.5.7c.6.6.6.8.2 2.7-.1 1 .5 1.6 1.2 1.1l.4-.5.3-.8.9-2.2c0-.3.2-.5.3-.5l.1-.5.3-.7c.2-.2.3-.5.3-.7l.2-.8a47.1 47.1 0 0 0 2.5-6l.5-.8a104.9 104.9 0 0 0 6.8-7.6l1-1c.3-.3.3-.4 0-.8-.4-.7-1-.6-2.1.5-1.5 1.4-3.4 1.4-4.6-.1a99.6 99.6 0 0 0-4.5-4 157 157 0 0 0-6.7-6 408 408 0 0 0-4.8-4.6c0-.2 3.9 0 6.1.2l5.5.2c2.7 0 4.1.1 4.2.2.2.2 2 .3 5.6.4 3 0 6 .2 7 .3 3.5.4 7.3.3 7.6-.2.3-.5.2-.8-1-1.9a228.7 228.7 0 0 1-3-2.7A260.9 260.9 0 0 1 92 86l-1.5-1.3a109.9 109.9 0 0 1-8.4-8c-1-1.2-.8-2.1.8-3.7.7-.8.7-.8.4-1.3-.5-.9-1-.7-2.2.6m92.4 6.7l-3.6.2-3.7.4c-.4.2-1.4.3-2 .3a6 6 0 0 0-1.9.2c-.3.2-1 .3-1.5.3s-1.2.1-1.6.3l-1.3.3c-.4 0-1 0-1.4.2a4 4 0 0 1-1.2.3c-.3 0-.8.1-1 .3l-1.2.3-.8.1a3 3 0 0 1-1 .4 25.3 25.3 0 0 0-5.7 1.8l-1 .2c-.1 0-.5.1-.7.3l-.7.3c-.2 0-.5 0-.7.2l-.6.3-.9.3a79 79 0 0 1-4.6 1.9 129.3 129.3 0 0 0-13.2 7.3l-1.4 1a82.8 82.8 0 0 0-6.6 5 89.6 89.6 0 0 0-21 23.2l-.5.8-.8 1.3c-.5.6-.8 1.2-.8 1.3l-.6 1-1.4 2.5a18.4 18.4 0 0 1-1.3 2.4l-.8 1.8a94.7 94.7 0 0 0-9 31.6c-.2.2-.3 1-.4 1.7 0 1.4-.3 1.8-2.5 3.5a25.5 25.5 0 0 0-2.7 2.2c-.8.6-3.6 3-4.2 3.7-.5.6-.8.4-.4-.3l.4-1c0-.3.2-.6.3-.7l.1-.4.3-.9c.5-1 .8-1.9.8-2.2l.3-1.5a12.3 12.3 0 0 0-.8-7.5c0-.2-.1-.4-.3-.5a.8.8 0 0 1-.3-.5c0-.3-2.6-3.2-3-3.4l-.9-.5a5.8 5.8 0 0 0-1.5-.7c-1-.4-4.8-.5-5.5-.1l-.9.3c-.2 0-.4 0-.6.2 0 .2-.3.3-.5.3a18.3 18.3 0 0 0-5 5.3c-.2.1-.7.7-2.5 3.4-3.4 5.1-5.3 7.1-7.1 7.5-2.2.4-4.3-.7-5.3-2.8a10 10 0 0 1 0-5.3c0-.3.3-.8.5-1.2.9-2 3.6-4.5 5-4.5.3 0 .6-.1.8-.3.2 0 1.1-.3 2-.3 1.8-.2 2.2-.4 2-1.2 0-.4 0-.5-.8-.6l-1.5-.3-2.7-.2-2.6-.2-2.7-.3h-2v.8c0 .7 0 .9.3 1 .8 0 1.4 2 .8 2.5a59 59 0 0 1-1.8 4c0 .3-.1.7-.3.9-.4.5-.3 5.2 0 6.2 1 2.6 3 5.1 4.8 6l1.2.5c.2.2.7.3 1.1.3l.8.1c0 .2 2 .2 3.2 0 .9-.2 2.3-.8 2.3-1 0-.2.2-.2.4-.2.5 0 3.5-3 5-5l1.3-1.9 3-4.2c1-1.7 3.1-3.9 3.6-3.9l.7-.3c2.3-1.2 5.6.4 6.8 3.2.4 1 .5 4.4.1 5.1-.2.3-.3.7-.3 1a9.8 9.8 0 0 1-2.3 3.9 8 8 0 0 1-3.1 1.9c-.2 0-.5.1-.7.3l-1.2.2-1.3.2-1.1.4c-1 .1-1.1.6-.4 1.2.3.4 3.4.7 6.2.8.5 0-.4.8-2.2 2.2-3 2.2-3 2-.8 5.2l.5.9.6.8.5 1 .6.9a24.7 24.7 0 0 1 2.3 3.8l1.4 2.1A30.9 30.9 0 0 0 69 202l.5 1a16.5 16.5 0 0 1 1.4 2.3l.6 1a52.5 52.5 0 0 0 3 4.7 181.2 181.2 0 0 0 7.4 10.7c0 .2.4.6.6 1l.6.9a207 207 0 0 0 5.2 7.3c.4.7.9 1.2 1 1.2l.1.2a99 99 0 0 0 5.4 7.3 76.9 76.9 0 0 1 4.8 6.2c0 .2 1 1.5 1.3 1.8l.6.8.8 1.1.8 1a41.3 41.3 0 0 0 2.7 3.6l2.3 3c.5.5 1.3.5 2-.2l.3-.2 1-.4c1-.7 1.1-.6 3.8 1.9a32 32 0 0 0 3.5 2.7l1.4 1.1a80.4 80.4 0 0 0 18.2 10 321.6 321.6 0 0 0 7.4 3c.3 0 .7 0 .8.2.1.2.4.3.5.3.3 0 1 .6 1 .8l.4.9 1 1.5a66.3 66.3 0 0 0 4.8 6.8 23.9 23.9 0 0 0 4.7 4c.3 0 1.4 1.3 2.8 3 3 4 4.4 4.5 8.2 3.2l1.2-.3c.3 0 .6-.2.8-.3 0-.2.3-.3.5-.3a9.4 9.4 0 0 0 3-1.4l.5-.3c.4-.4 1.7-1.1 2.4-1.4l.5-.4.3-.1c.2 0 .5-.1.6-.3l.5-.3c.1 0 .5 0 .7-.2a49 49 0 0 1 5.3-2.5l3.7-1.8a88.4 88.4 0 0 1 12.2-4.7 168.4 168.4 0 0 0 5.1-1.5 6 6 0 0 0 1.1-.4 5 5 0 0 1 1.1-.3l1-.2c.6-.3 3.7-.6 6.7-.8a16.4 16.4 0 0 0 4.3-.5c.4 0 .8-.1 1-.3l.8-.3c.3 0 2.4-1 4.3-2 .4-.1 1.1-.2 2.6-.2 1.4 0 2.3 0 2.7-.2.4-.2 1-.3 1.4-.3.4 0 1-.1 1.2-.3l1-.2.4-.2.7-.3a9 9 0 0 0 2-.8l.6-.2.7-.2c.2-.2.7-.3 1-.4.2 0 .4-.2.4-.3l.4-.2.9-.2 2.8-1.4a37.7 37.7 0 0 0 13.2-11.2 34.7 34.7 0 0 0 5.6-12.1c.2-.3.3-.7.3-1l.1-.4.3-.8.4-1.6c.5-1.6.6-2 .7-3a29 29 0 0 0 .5-5.8c0-2.5 0-4.2.2-4.6l.3-4.1c0-3.6 0-3.7.6-4.5l.5-1 .3-.4.3-.5a122.9 122.9 0 0 0 3.6-8.9l.3-1 .3-.8c0-.2 0-.6.2-.8.3-.6.6-1.7.8-3l.4-1.2.2-1c0-.4 0-1 .2-1.2a35.5 35.5 0 0 1 .7-3.7 140.4 140.4 0 0 0-.3-36l-.4-1.6-.2-1.1a4 4 0 0 0-.3-1.3l-.3-1.1c0-.3 0-.9-.2-1.4a102 102 0 0 1-2-6.8 5 5 0 0 1-.4-1.1c0-.4-.2-.7-.3-.7l-.2-.6c0-.2 0-.5-.2-.7-.2-.2-.3-.5-.3-.7l-.3-1a427.3 427.3 0 0 1-2.1-5 107.8 107.8 0 0 0-8.8-15.7l-1.7-2.4a53.1 53.1 0 0 0-4.7-6A113.8 113.8 0 0 0 234.8 97l-.2-.1a5 5 0 0 0-1.3-1c-.1 0-.3 0-.4-.2a13 13 0 0 0-3-2l-.2-.1-.3-.3-.9-.5a26.3 26.3 0 0 0-2.9-1.6 96.9 96.9 0 0 0-29-10.5c-.3-.1-1-.3-1.6-.3-.7 0-1.4-.1-1.7-.3l-1.8-.2-1.8-.2c-.2-.2-1.6-.3-3.1-.4a62.6 62.6 0 0 0-13.1-.3m14.3 4a9 9 0 0 0 2.1.3l2.2.2 1.7.4a23 23 0 0 1 5.3 1c.6 0 1 .2 1.2.3l1 .2c.5 0 1 .2 1.2.3.4.2 1.8.6 2.6.7.4 0 .8.2 1 .3 0 .2.4.3.7.3.3 0 .7.1 1 .3l.7.2.7.3.8.3.9.2c.2.2.5.3.7.3.2 0 .5.1.7.3l.7.3c.1 0 .5 0 .8.2l1 .5a81.8 81.8 0 0 1 3 1.3 109.1 109.1 0 0 1 15 8.5l.2.2 1.6 1.1a9.6 9.6 0 0 0 1.9 1.3l1.4 1.2a67.1 67.1 0 0 1 4.6 3.9 136.2 136.2 0 0 1 9.4 9.8 77.5 77.5 0 0 1 10.8 16 24.5 24.5 0 0 1 1.4 3 42.5 42.5 0 0 1 2.2 4.8c.5.8.8 1.5.8 1.8 0 .1.1.4.3.5l.2.6c0 .3.2.6.3.8.2.2.3.6.3.8 0 .3.1.6.3.7l.2.7.3 1c.2.2.3.6.3.7l.2.9c.2.2.3.7.3 1l.2.6.4 1a44.7 44.7 0 0 0 1.3 5.2l.1 1 .3 1.4c.2.3.3 1 .3 1.5 0 .4.1 1 .3 1.3l.2 1.8a103.3 103.3 0 0 1-.8 29.7l-.3 1.2-.1.9c-.1 0-.3.5-.3 1-.2 1.5-1.4 1.8-1.4.3l-.2-.4c-.2-.2-.5-.5-1.3-2l-.5-.8c-.4-.2-.3-3.4.1-4 .2-.4.3-1 .3-2 0-.7 0-1.5.2-1.7a104.7 104.7 0 0 0-1-27.4c-.2-.2-.3-.8-.4-1.4 0-1-.5-3-.7-3.3l-.2-1c0-.6-.2-1-.3-1l-.2-.6a81 81 0 0 0-16.2-31.5 94.2 94.2 0 0 0-25.4-21.6 90.2 90.2 0 0 0-16.5-7.5 87.7 87.7 0 0 0-18.6-4.2 90.2 90.2 0 0 0-53.4 10l-.6.2-2 1.2-1.3.8a144.7 144.7 0 0 1-3.8 2.4l-1.8 1.2a67.5 67.5 0 0 0-5.9 4.4 102.2 102.2 0 0 0-17.9 20 40.8 40.8 0 0 0-2.9 4.7 111.5 111.5 0 0 0-8 18.3c0 .3-.1.7-.3 1l-.2 1-.2.7-.4 1.1-.7 3.3-.3 1.3c-.1 1.1-.4 1.9-1 2.4a46.4 46.4 0 0 1-4.2 3.7c0-.6.1-2.7.3-3.5l.3-1.7.1-.8c.1 0 .3-.5.3-1.1 0-.6.2-1.2.3-1.4l.3-1.3c0-.4.2-.9.3-1l.1-.6.3-1.2c.2-.3.3-.8.3-1a44.5 44.5 0 0 0 1.1-3.4 91.2 91.2 0 0 1 31.3-44.8 28.4 28.4 0 0 0 2.8-2.1l.8-.7.4-.2.3-.1a58.8 58.8 0 0 1 7.7-5 118.4 118.4 0 0 1 20-8.4l.6-.1a29.8 29.8 0 0 1 7.3-1.8l1.5-.4 1.8-.3c.8 0 1.5-.2 1.6-.3l1.3-.2c.7 0 1.6 0 2-.2 2-.5 19.7-.6 20.5-.1m3.3 19.7a17.5 17.5 0 0 1 5 1c.3 0 .7.2.7.3l.4.1c.3 0 .8.2 2.4 1a17.1 17.1 0 0 1 6.6 5.6l.2.6.3.5c.1 0 .2.2.2.5s.1.7.3.9c.1.2.3.6.3 1 0 .3 0 .8.2 1 .2.2.3.6.4 1l.3 1.4a653.9 653.9 0 0 1 1.4 4.7l.2 2.1c0 1.8 0 1.8-1 1.3-.5-.2-1.2-.3-3.3-.3l-2.7-.1-.5-.3c-.3 0-1.3-.7-2.2-1.4-2.9-2-4.3-2.1-4.3 0 0 .6-.6.4-.6-.3 0-1-.2-1.4-.8-2.1-1-1.3-2.1-.5-2 1.6v1.5l-.3 1-.4 1c-.1.4-1.6.5-2.5 0-.4-.2-1-.3-1.6-.3h-.9l-.5-1c-.7-1.8-1.5-2.2-3-1.5-1 .6-1 .6-.9-.7.4-2.7.5-10 .1-10.3-.7-.6-1.5-.5-2.1.5l-.7.8c-.5 0-1.2-.5-2.3-1.6-1.4-1.3-2.3-1.5-3.8-.9-.4.2-1 .3-1.4.3-.4 0-1 .1-1.4.3l-1.3.2-1.4.3c-1 .5-1.7.1-1.1-.5l.3-.4c0-1.3 9.2-7.4 11.1-7.4l.4-.1.9-.3c.4 0 .8-.2 1-.3a33 33 0 0 1 7.8-1l2.5.3m-6.5 14.2c-1.5 1.6-1.5 3.6-.2 4.1.7.3 4.4.5 5.3.3 1-.1.8-.6-1-2.9l-1.5-2h-1c-1 0-1.1 0-1.6.5m-6 4.6l-.4 1.4-.3.6c-.2.4-.6.4-.8-.1-.4-1.6 0-3 1-3h.5v1m55.6-.7l1.1.5.3.9c.2.2.3.6.3.8 0 .2.1.5.3.7l.3.7c0 .2 0 .5.2.7.2.2.3.5.3.7 0 .2.1.6.3.8l.2.7c0 .2.4.6 1 1 .4.3 1 .7 1 .9a13.6 13.6 0 0 0 2.4 1.8l1 .8c1 .8 1.4 1.2 1.4 1.6 0 .9-.9 1.9-2.4 2.7-1.4.7-2.7 2.3-2.7 3.3 0 .7-.3.8-.8.5-1-.6-1.9-.7-2.7-.5a35.5 35.5 0 0 0-7 3.7l-1.4.7c-.3.1-.5.3-.5.4l-.3.1c-.2 0-1.9 1-2.4 1.5l-.5.2-.4.2-.5.3-.5.2c-.1.2-.6.5-1 .7a32 32 0 0 0-3.2 1.8l-1.5.8a60.4 60.4 0 0 1-6.6 3.5 201 201 0 0 1-19.7 8.9l-2.8.8a3 3 0 0 0-.8.3l-1 .2c-.6 0-1 .2-1.2.3l-1.6.2c-2.6.2-3 2.2-.7 3.2.8.3.9.3 3 0 .5-.2 1.4-.3 2-.3.7 0 1.3 0 1.5-.2a2 2 0 0 1 1-.3l1-.2c.2-.2.7-.3 1-.4a18.7 18.7 0 0 0 4-1.4 87.2 87.2 0 0 0 11.2-5.8 132.8 132.8 0 0 1 18.2-8.5c.3-.2.8-.3 1-.3.3 0 .8-.1 1-.3a3 3 0 0 1 1.2-.3 3 3 0 0 0 1.2-.2c.3-.2 1-.3 1.4-.3.4 0 1-.1 1.3-.3l1.5-.2c.5 0 1-.2 1.2-.3.1-.1.8-.3 1.4-.3.8 0 1.3-.2 1.4-.4l.5-1.2c.4-.8.5-1 .9-1s.4 0 0 .5c-.4.7-.1 1 .9 1 .5 0 1 .1 1.3.3l1.4.2 1.6.3c.4.2 1 .3 1.6.3a6 6 0 0 1 1.6.3l1.5.2c1.4 0 2.6.6 2.7 1.3 0 .8.6 1.5 2.2 2.4a18 18 0 0 1 6.5 7.2 35 35 0 0 0 2.9 4.2c.7.7.8 1.1.8 3.7 0 2.5.4 4.2 1.2 4.5l.2.3c0 .2.2.4.3.5.4.3.4 1.2 0 1.5-.4.1-2.8-2.6-3.2-3.6l-.7-2.6a22 22 0 0 0-1-3.7 7 7 0 0 0-.3-1l-.2-1-.3-.9-.6-1.2c-1-2-3.1-4.6-4-4.6l-.6-.3c-1-.5-4.6-.2-6.2.5a32.2 32.2 0 0 1-3 1c0 .2-.2.2-.4.2l-1 .3a3 3 0 0 1-1.1.3c-.3 0-1 0-1.4.2-1 .2-3.1 0-4-.6-.6-.3-.6-.3-.2-.8.4-.6.3-1-.5-2.7-.5-1-4-1.6-7-1-.6.2-1.7.3-2.5.3-1.3 0-1.5.1-3.4 1.3a46.2 46.2 0 0 1-4.5 2.5 39.4 39.4 0 0 1-5.6 3c-.1 0-.4 0-.5.2-.1.2-.4.3-.6.3-.1 0-.4.1-.5.3a1 1 0 0 1-.7.3l-.4.1c0 .1-.2.3-.4.3-.5.2-1.6.6-2.2 1l-.8.2c-.3 0-.4 0-.4.2l-.8.3c-.4 0-.7.2-.7.2l-.4.2c-.2 0-.6.1-.8.3l-.7.3c-.2 0-.6 0-.9.2l-.8.3c-.2 0-.5.1-.7.3l-.8.3c-.2 0-.7 0-.9.2-.3.2-.7.3-1 .3l-.9.2a69.1 69.1 0 0 1-17.3 2.9c-4.6.3-4.9.2-5-2v-1h-.6c-1.2-.2-1-1.2.3-1.5.3 0 .7-.2 1-.4l.6-.2c.3 0 1-.8 1.1-1.4l.2-.5v.7c.3 1.3 3.7 2 5.4 1.1a3 3 0 0 1 1.2-.3 2 2 0 0 0 1-.2c.3-.2.7-.3 1-.3.3 0 .7-.1.9-.3.2-.1.5-.3.8-.3.3 0 .6 0 .8-.2.2-.2.6-.3.9-.3.2 0 .5-.1.7-.3l.6-.3c.2 0 .5 0 .7-.2.2-.2.5-.3.7-.3l.9-.3 1-.5.9-.3 1-.4 3.5-1.6a69.7 69.7 0 0 0 8.2-4.3 33.4 33.4 0 0 0 3.7-2l2.4-1.4 1-.5c.2 0 .4-.1.5-.3l.5-.3 1-.5c.4-.3.8-.6 1-.6l1-.5.9-.5a25.8 25.8 0 0 0 6.9-8.9 46.4 46.4 0 0 0 3-6.4c1.6-3.9 2-7.3.8-8.3a4 4 0 0 0-.9-.7c-.7 0 .5-.8 1.6-1 1-.3 1-.3 2.2 0m-64.7 3.8c1.4.3 3.5 1.4 4.4 2.3.4.3 1.7 1 3.4 1.7.4.2 1.2.3 2 .3 1.7 0 3 1 3 2 0 .8 1.2 1.7 2.2 1.8 1 0 1.1 0 1.8.8.4.4 1 .8 1.3.8.3 0 .6.2.7.3 0 0 .4.2 1 .2 1 0 1.6.6 1.6 2l.2 1.7c.2.4.3 1 .3 1.3 0 .7.5 1.8 1.1 2.3.4.4.7.4 2.5 0 .5 0 .6 0 .6.3l-.1.4a5 5 0 0 0-1.6 1.5c-.5 1 .6 2.5 1.6 2l.8-.2c1 0 2.6-2.5 3.6-5.2.5-1.6.6-1.7 1.4-2 1.2-.7 1.3-1.4.7-5-.1-1-.1-1.1.4-1.7l.5-.8.3-.4c.2-.2.3-.6.3-1.3v-1.1l.8-.3c.6-.2 1-.3 1.6-.2l2 .2c1.8.2 1.9.4 1 2.6-.2.3-.3 1-.3 1.5 0 1.6-.2 1.7-2.3 1.7-2.4-.1-2.6 0-2.6 1.7 0 2.6 1.2 3.7 4.1 3.7 2.7 0 4.6 1.9 5 5l.2 1-.8.5a128.7 128.7 0 0 0-3 2 6 6 0 0 0-1.4.9 12.3 12.3 0 0 1-2.2 1.3 40.5 40.5 0 0 1-4.1 2.3 157.9 157.9 0 0 1-10.2 4.7c-.1 0-.5 0-.8.2l-2.3.9a27.8 27.8 0 0 0-2.3.7l-1.3.4c-.4 0-1 .2-1.1.3l-1 .2a4 4 0 0 0-1.3.3l-1.1.3c-.3 0-.7.2-1 .4l-.4.5-.4-.5c-.4-.4-.6-.4-1.3-.4-1.9 0-2.5-1-2.5-3.6 0-1.5-.5-2.5-1.3-2.5-.4 0-1-.5-1-.9 0-.3.6-.5 1.5-.5.7 0 1.4-.8 1.3-1.6 0-.7-1.3-1.3-1.8-1-.6.4-3.4.3-3.6-.1-.5-1-.1-1.7.7-1.3.6.4 1.3.4 1.6.1.3-.4.3-1.2 0-1.5l-.2-.9-.1-.8-.6-1.2c-.3-.5-.5-.9-.8-1-.4 0-.4 0-.2-.7.2-.3.3-.8.3-1.1 0-.9.3-1.4 1.3-2.1 2-1.6 2-3.4 0-4.7-.7-.5-1.7-.7-4.5-.9h-2.4v-1.3l-.2-1.5c-.6-1.4-1.2-4.7-1-5.8.2-.8.3-.8 1-1 1.3-.3 4-.3 5 0m104 2.6c-.1.2 0 1.7.2 2.3a31.7 31.7 0 0 1 1.6 4.8l.5 1.5c.6 2 .9 2.6 1.4 2.6.7 0 .9-.4.7-1.7-.3-3.2.2-3.4 6.2-2.9 3.8.3 3.5.2 4.4 2.8l.8 2.6 2.2 7c0 .6 0 .7-1.2 1.7a215.4 215.4 0 0 0-4.2 3.5l-.8.4c-1 .6-2.2.2-2.9-1.2-.4-.9-.9-1.2-1.5-.9-.3.2-.5 1.3-.2 1.5.1.1.3.5.3.9l.3.8.3 1c0 .4.2.8.3.8l.2.8.3.8.2.4.3 1 .2.7.3.8c.2.3.3.8.3 1l.2.7c.2.2.3.6.3.8 0 .7.7 1.7 1.2 1.7.6 0 .7-.3.7-1.8-.1-2 1.3-4 5-7a40.9 40.9 0 0 0 2.8-2.4 120.7 120.7 0 0 0 5.9-5l1.4-1.3a82 82 0 0 0 4.9-4.2 181.7 181.7 0 0 0 7.5-6.4c1.1-.6.4-1.7-1.3-1.9a21.6 21.6 0 0 0-5-.5c-1 0-2 0-2-.2-.1 0-1.4-.2-2.9-.2l-3-.3c-.3-.2-3.9-.5-8.6-.7-1.5 0-2.8-.2-3-.4-.3-.1-1.3-.2-2.8-.2-1.6 0-2.6 0-3-.2-.5-.2-1.3-.3-2-.3-.6 0-1.4-.2-1.6-.3l-1-.3c-.4 0-1.2-.6-2.2-1.8-.6-.9-1.3-1.1-1.6-.8m-77.9 1.5c1.1 1.6 1.1 5.6.1 8.1l-.4 1 .1-1 .3-2.8c.3-2.4.2-3.2-.7-4.1l-.8-.7.3-.6c.4-.7.6-.7 1.1.1M220 130l-.7.7-1.2 1.1c-.8.8-2 1.6-2 1.5-.2 0-.1-.1 0-.1l.2-.2 1.2-1.3c1.6-1.5 2.5-2 2.5-1.7m6.4.3c0 .2-.2.3-.4.3-.4 0-.4 0 0-.3.3-.5.4-.5.4 0m-161.1.8c0 .1 0 .5-.2.8l-.6 1.3-1 2.6-.3.9c0 .1-.1.4-.3.5a1 1 0 0 0-.3.6l-.2.8-.3.6-.3.6a1 1 0 0 0-.3.6l-.1.5c-.3 0-9.7-9.5-9.7-9.8l6.5-.1a293.6 293.6 0 0 0 7.1 0m229.9 3.6l3 .4 2.4.2a48.7 48.7 0 0 1 3.4.3c.4 0 .2.5-.8 1.3a53 53 0 0 0-4.3 3.7L297 142c-2.7 2.6-3 2.7-3.7.8a26.4 26.4 0 0 0-.9-2.8s0-.4-.2-.7l-.3-.9c0-.1 0-.4-.2-.6l-.6-1.7c-.2-.7-.4-1.5-.6-1.6a151.5 151.5 0 0 0 4.5.1m19.3 2.5c-.8 1-.2 1.3 5.5 3.6 2.7 1 3.4 1.3 4.7 2 1.3.6 1.5 0 .6-2.6-.8-2.6-1-2.8-1.4-3-.8-.4-9.1-.3-9.4 0m-147.6 4c0 .3.2.5.3.5l.2.4c.2.6 1.3 1.7 1.8 1.9 1 .2.5 1.7-.8 2.4l-1.7 1.1c-.8.7-.8.9-1.1-4.8-.3-3.5-.2-3.8.6-2.7l.7 1.3m48.8-.8c0 .2-.1.2-.2.2-.2-.2-.2-1 0-1.1.1-.2.3.6.2 1m32.5.8c1.3 1.4 1.6 1.7 1.3 1.8a52.2 52.2 0 0 0-8.2.8l.8-.6.6-.4c.2 0 1.2-1 2.2-2.3 1-1.4 1.2-1.3 3.3.7m-54.8 6.4c-.5.3-2 2-2.3 2.9a26.9 26.9 0 0 1-5.2 5.3c-.6.5-.7 1.2-.2 1.2.7 0 6.1-3.3 6.1-3.6l.6-.8.6-.8c.5-.6 1.4-2.8 1.4-3.4 0-1-.2-1.1-1-.8m-77.8 5l1.3 1c.8.8 2 2.6 2.8 4a40.9 40.9 0 0 0 3.9 6.4c.3.3.4.5.4 1.5 0 .7.1 1.7.3 2.3l.2 3.4c0 2.5 0 2.4-1.2 3.2a22.4 22.4 0 0 1-2.5 2 44.3 44.3 0 0 0-4.6 4.1c0-.5-.9-1.5-1.3-1.5-.9 0-2.2 1.8-2.2 2.9v.9h1.1l1-.1.4-.3c.2 0 .5-.3.7-.6.2-.4.5-.6.7-.5.1 0 .4 0 .5-.2l.7-.2.8-.3c.2-.2.6-.3 1-.3.2 0 .7-.1 1-.3l.9-.2c.6 0 1.4-.5 2.2-1.1 1.1-1 1.6-.7 1.9 1l.2.9c.2.1.2 1.7 0 1.7-.7.3-.2 8.4.5 9.4.1.1.3.6.3 1 0 .5.2 1 .3 1 .1 0 .2.1.2.3l.2 1c.2.2.3.6.4.9 0 .2.2.5.3.5.1 0 .2 0 .2.2 0 1 2.5 3.7 4 4.2 1.4.5 1.4.5 1.7 2 .2 1-.1 2.5-.7 3.1a40 40 0 0 0-2.5 3.7c-1.2 1.2-.6 4.6.8 5l.3.6.3 1.1.3 1c0 .4.6 1 1.5 1.5.7.3.7.3.3.5-2.2 1-6 4.5-6 5.6l-.2.3-.3.5-.3.7c-.7 1-.7 9 0 9.7.4.5.2 1-.6 1.5-1.4 1-2.4 2-4.6 4.5-6.8 7.9-7.5 8.3-10 4.6l-1-1.5A181.2 181.2 0 0 1 101 230a36.2 36.2 0 0 1-2.5-4.2A362 362 0 0 1 91 213l-.8-1.4-.4-.7a19.2 19.2 0 0 1-1.8-2.7l-1-1.8A45.8 45.8 0 0 0 73 192c-2-1.6-2.3-1.1 3.4-4a137 137 0 0 0 8-4.5c.5 0 5.7-3.6 8-5.5a29.7 29.7 0 0 0 4.9-5.2l.8-1.9c.1-.4.1-.4.3 0l.3.4 2.5 3.3a468.7 468.7 0 0 1 22 34.8c0 .2 0 .4.2.5l.3.6c0 .2.1.4.3.5l.2.5c0 .3.6 1.4.8 1.5l.1.3c0 .1.6 1.6 1 2.1l.2.9.3.6.3.5c.2.5 3.3 2 4 1.8.5 0 .5-.6.2-1.3a203 203 0 0 1-2.4-4.7l-.6-1-.6-.9a42.5 42.5 0 0 0-2-3.2 398.9 398.9 0 0 0-7.4-11 7.4 7.4 0 0 1-1-1.8 43 43 0 0 1-3.4-5.6l-.6-1c-.7-1.2-.9-1.4-1-1.9l-1-1.5-.7-1.3c0-.2-.1-.4-.3-.5-.1-.1-.3-.3-.3-.5l-.1-.2c-.1 0-.3-.2-.3-.4-.2-.5-1.2-2.2-1.4-2.3l-.2-.3-.8-1.4-.9-1.5c0-.2-.6-1-1.2-2a140.3 140.3 0 0 1-3-4.8c-1-1.3-1.2-2-.7-2l1-.3a29 29 0 0 1 3.8-1.7l.6-.3c.1 0 .4 0 .5-.2a13 13 0 0 0 5-4c1-1.9 1.4-3 1.6-4.3l.3-1.8.2-2c0-1.3 0-1.4 1-.8m-6.1 5.7l-1.8 1.9a20.6 20.6 0 0 1-5.3 3c.2 0 .4-.1.4-.3 0-.1 0-.3.2-.3s1.8-1.2 2-1.5l.2-.1.8-.6.9-.5.8-.6.8-.5.4-.3.6-.2m54.2.9l2.4.1 2 .2c.2.3-1.3.8-2.3.8-.6 0-1.3 0-1.7.2-.3.2-1 .3-1.3.3-.4 0-.8 0-.9.2l-1 .3-1.3.3c-.3.2-.7.3-1 .3-.2 0-.4 0-.5.2l-.5.2c-.2 0-.7 0-1 .2-.2.2-.6.3-.8.3l-.8.3-1 .3-.7.3-.3.2a3 3 0 0 0-.9.2c-2 .9-2.8 1-4.2.6-1-.3-3.2-.3-4.2 0l-1.5.3h-.6l.8-.5 1-.6a30.7 30.7 0 0 1 7.2-3.2 2 2 0 0 1 1-.3c.4 0 .9 0 1.1-.2.3-.2.7-.3 1-.3a4 4 0 0 0 1.3-.3c.3-.1 1.2-.3 2-.3.7 0 1.7 0 2.3-.2 1.1-.3 3.4-.2 4.4 0m65.5 1l4 .3a27.3 27.3 0 0 1 5.5.5c.8 0 1.7.2 2 .4l1.2.2 1.2.3c.3.2.7.3 1 .3.3 0 .8.1 1 .3l.8.2c.3 0 .5.2.8.6.6 1.2 3.1 3 4 3 .3 0 .6.2.7.3.2.2.6.3.9.3.2 0 .6.1.7.3.1.1.3.3.5.3l1.1.4c.6.3 1.2.5 1.7.5.9 0 1.4.2 1.4.7l.2.8.6 2c.8 2.6 2 4.1 3.5 4.1l.7-.1.4-.2a3 3 0 0 0 1-.3c.7-.4.8-.3.5.3l-.4 1.1c0 .3-.2.7-.3.8-.3.4.1 5.4.6 6.4l.2 1.4.3 1.1.2 1c0 1 0 1-.2.6l-1-1.5-.6-1.2a42.9 42.9 0 0 0-7.6-9.2c-.2-.2-.5-.3-.7-.3l-.6-.2c-.2-.4-.8-.3-1.4.1l-.7.5v1.3c.2 1.4.5 2.7.8 2.8l.2.3c0 .4 2.2 2.7 3 3.1a46.3 46.3 0 0 1 2 1c.3.1.5.4.7 1.2a31 31 0 0 0 5.5 8.9c1 1 3 4 3.6 5.2.6 1.2.3 1.3-1.2.4-1.8-1-2.4-1-5-.8-2.1.3-3 .1-3-.6 0-.4-.5-1.2-1.1-2.1l-.6-.7h-2.4c-1.4-.1-2.6-.2-3-.4a36.5 36.5 0 0 0-1.3-.5 31.8 31.8 0 0 0-2.9-1.5 26.3 26.3 0 0 0-4.4-2.2l-2.6-.5c-.6 0-1.5 0-2.4.2l-3.6.6a12.4 12.4 0 0 0-4.8 1l-.9.3-.8.2-.6.3a1 1 0 0 1-.6.3c-.2 0-.5.1-.7.3l-.8.2-.8.3c-.3.2-.8.3-1 .3-.3 0-.7.1-1 .3-.6.3-5 .3-5.5 0-.2-.2-.8-.3-1.2-.4l-1.6-.3c-.6-.2-1.1-.2-2.5 0a98 98 0 0 1-5 .7l-1.1.2c-.5 0-1 .2-1.3.3l-1 .3c-.4 0-.8 0-1 .2l-1.3.3-2 .5c-10 2.4-18.6 1.9-18.6-1.1 0-.6-.1-.7-2.5-2.2a30.4 30.4 0 0 1-2.9-2c-.2 0-.6-.3-.8-.5-.3-.2-1.1-.9-2-1.4l-1.5-1.2-.7-2.2a140.5 140.5 0 0 1-2.2-5.7c-.6-1.1 0-.7 1.5 1.1 2.9 3.5 4.8 4.8 5.9 3.7.4-.4.4-.3-.2-1.5a166.6 166.6 0 0 1-4.5-10.5c-.3-.7.3-1 1.2-.5.6.3 2.1 2 2.1 2.3l.3.4.3.6.1.4c.2 0 .5.8 1.2 2.2a7.3 7.3 0 0 0 2.4 3.1l.7.5c0 .8 4-.3 5.3-1.6l1-.8c.7-.6-1-2.4-2.1-2.4a.8.8 0 0 1-.6-.2c-.1-.2-.4-.3-.7-.3-.3 0-.6-.1-.7-.3l-.5-.3c-.5 0-1.7-1.5-1.7-2.1l-.3-1c-.4-1-1-.8 6.3-.9h6.5l.7-.5a9.6 9.6 0 0 1 6.8-1.1c1.7.3 2.2 0 2.2-1.9 0-1.3.3-1.4 3.8-1.3 3.6 0 3.8-.1 6.5-2.2a29.6 29.6 0 0 1 6.2-4l.8-.3c.2 0 .5 0 .7-.2.2-.2.6-.3 1-.3s1-.1 1.2-.3c.3-.1 1.5-.3 3-.3l2.8-.3c.2-.3 1.4-.3 2 0m79.8 4.6l-.6.3c-1.2 0-5.6 4.5-5.6 5.7l-.2.1s-.4.4-.6 1a3 3 0 0 1-.5.9c-.1 0-.3.2-.4.5l-.7 1.4-1 1.8c-3 5.7-5.1 7.5-8.2 6.8-1.6-.3-3.8-2.1-3.8-3 0-.2 0-.5-.3-.7a14 14 0 0 1 0-6l.3-.7c0-1.7 4-5.4 5.8-5.4l.8-.3 1.1-.3c1 0 1.8-1 1.2-1.6a81 81 0 0 0-12.3 0c-.5.6-.1 1.6.6 1.6 1 0 1.5 2.4.7 3.4l-.2.8-.3 1c-.1.2-.3.6-.3 1 0 .2 0 .6-.2.7-.2.2-.2 1.1-.2 3.3 0 2.3 0 3.2.2 3.3l.2.8c0 .4.1.7.3.9.2 0 .3.3.3.4 0 .4.7 1.7.9 1.7l.2.3c0 .1.5.8 1.2 1.4a9.5 9.5 0 0 0 14.4-1 70.8 70.8 0 0 1 1.5-2.2l.7-1.3a46.3 46.3 0 0 0 2.5-4.5l1-2c2.7-5.2 6-7 9-4.6.8.6 2 2.2 2 2.7l.1.7c.3.5.3 2.7 0 3l-.2.6c0 2.7-3.4 5.8-7.4 6.8-2 .5-2.6 1-1.9 1.8.4.4 11.1.4 12.2 0 .7-.3.6-1.2-.3-1.6-1.3-.6-1.6-1.3-1-2.6l.5-1.3.3-1s0-.3.2-.4c.6-.7.7-6.2 0-7.8l-1.2-2.4c-.7-1-2.9-3-3.6-3.3l-1.4-.7a15 15 0 0 0-5.8 0m-96.8 1.3c-.3.4-.4.6-.2 1 .2.7.2.8-1.2 1.2a34.9 34.9 0 0 0-4 1.7l-.8.3a61.8 61.8 0 0 1-6.3 2.6 389.6 389.6 0 0 1-12.2 5.1c-.8 0-1.3 1-.7 1.5.9.9 5.3.8 6 0l.9-.2c.3 0 .6-.1.8-.3l.7-.2c.2 0 .6-.1.8-.3.2-.1.5-.3.8-.3.2 0 .5 0 .7-.2.2-.2.5-.3.7-.3.2 0 .5-.1.6-.3l.5-.3c.1 0 .5 0 .8-.2l1-.5a35.6 35.6 0 0 0 3-1.3c.2 0 .5 0 .8-.2l2.6-.9c.4 0 .8-.2.9-.3l.5-.2 1.7-.5 4.4-1.3c6.6-2 6.4-2 6.4-3 0-.8-.3-1.2-2-1.7l-2.5-.9c-2-.7-4.2-.7-4.7 0m-93.6 1.2a3 3 0 0 1-.8.5c-.4 0-1.3 1-2 2.2-.8 1.3-1 1.5-2 2-1.6.8-3.7 2.8-3.7 3.4l-.2.8c-.3.5 0 1.1.7 1.6l.5.4.5-.4c.2-.3.6-.6.9-.7l1.7-1 1.2-.7c.6-.3 1.8-1.4 2.8-2.7.3-.4.9-.9 1.4-1.1 1.3-.6 2-1.4 2.2-2.2.4-2.1-1.6-3.5-3.2-2.1m14.5.4l-.7.1-.6-.1.8-.2c.4 0 .6 0 .5.2m-1.5.4c0 .2-1.9 1.9-2.2 2-.3 0-1 .5-1.5 1-.8 1-.9 1-.9.6 0-.7.8-1.4 2.3-2.5l1.5-1c0-.2.8-.3.8-.1m10.1 3.8c2.5 1.6 3 2.8 2.6 5.7a82.7 82.7 0 0 0-.6 4.7c-.1.2-.3 1-.3 1.6 0 .6-.2 1.2-.3 1.3l-.2 1.2-.3 1.9c-.2.5-.3 1.4-.3 2.7v2l.7.6a20.7 20.7 0 0 0 2.5 2c.5.6 1.2.9 1.9.9 1 0 1.3-.4 1.9-3.7.2-1.4.2-1.4.6-.9a9.6 9.6 0 0 1 1.5 6.3c-.4 5.7-.4 6.1-1.2 6.8-.8 1-.9 1.2-.5 7.3l.3 7.2c0 2.2.6 3.5 2 5 1.2 1.3 1.2 1.3.7 1.5-.3.1-.4.2-.6 0a.8.8 0 0 0-.5-.2.8.8 0 0 1-.5-.3.8.8 0 0 0-.6-.2.8.8 0 0 1-.5-.3c-.1-.2-.4-.3-.5-.3-1 0-4.3-3.5-4.3-4.7 0-.2 0-.5-.2-.8a25 25 0 0 1-.1-6.8l.2-1 .3-1 .3-1c.1-.6.5-1.6.8-2.2l.2-.5.3-1a1098.7 1098.7 0 0 0 1.2-2.7c.8-1.8.9-2 .8-3.2-.2-1.3-.2-1.3-1.7-1.8-.3 0-1.2.4-1.2.7l-.5 1.4a13.8 13.8 0 0 0-1.3 2.9l-.1.2-.3.4c-.1.5-.4.3-1.8-.9-2-1.9-2-1.8-2.2-3.3-.3-3.3-1.9-5.9-3.5-5.9l-.3-.1-.3-.3c-1.2-.4-2.6-4-3-7.1 0-.8-.2-1.7-.3-1.9l-.2-.8a10 10 0 0 0-2-3.2l-.6-.8-.7-.7-1-.7-1.2-1.2c-.5-.4-.6-.5-.4-1v-.8l1 .2c.5 0 1.2.2 1.4.3.3.2.8.3 1 .3.4 0 .7 0 .7.2l.2.1c.3 0 2.1 1.7 4 3.5 2.6 2.6 4 2.7 3.1.2-.3-.8-.2-1.1.2-.8.4.3 1 0 1.6-.7.3-.3.7-.6 1-.6l.8-.2.8-.3c.7-.3.4-1-.6-1.5-1.3-.6-1.7-1.6-1.4-3.5.2-1 .4-1 1.5-.2m82.2 1.9c-1 .2-1 2.2-.2 2.2l1 .4.7.4-.3.6-.5.8c-.3.3-.3.4-.1.8.1.5 4 .4 4.7 0 1.6-1 1.4-2.6-.2-2.6-.3 0-.5-.1-.6-.5-.6-1.4-.8-1.6-1.4-2-.6-.2-2.1-.3-3.1-.1m-5.7 4.5l-.7.8h-1.5a5 5 0 0 0-2 .3c-.2.2-.6.3-.8.3-.9 0-3.7 1.2-6 2.5-1.8 1-1.2 2.8.7 2.2l3.2-.4a33.2 33.2 0 0 0 7.4-1c.6 0 3-2 3-2.4 0-.1.1-.2.4-.2a4 4 0 0 0 2-1.1c.5-.9-1.1-1.8-3.3-1.8h-1.7l-.7.8m-117.4 2.1c-2 1.8-3.2 2.6-4.2 2.8-1.4.2-2.3 1-2.2 1.7.1.4 0 .9-.2 1.3-.4.8.2 1.9 1.2 1.9.7 0 2.4-1.1 3.3-2a9 9 0 0 1 1.3-1l1.2-1 1.3-1.1c1.8-1.2 2.1-2.1 1.3-3.3-.8-.9-1.2-.8-3 .7m127.2 1.6l-1 .2-1.4.3-1.7.4a150.6 150.6 0 0 0-6.3 1.4c-3.5.8-3.9 1-4 2-.3 1-.5 1.4-1 1.5l-1 .2-3.2.8a5 5 0 0 0-1.3.3 2 2 0 0 1-.8.2c-1.5 0-5.1 2.7-4.7 3.5.2.4 1.1.5 1.3.2l.8-.2c.4 0 1-.1 1.2-.3 1.4-.7 3.4 0 3.5 1.1 0 .9.6 1.1 1.3.6a83 83 0 0 1 7.1-4.7l5.3-3.4c1.6-1 2.2-1.1 3.3-.7 1.3.6 2.5-.1 4.2-2.6.7-1 0-1.4-1.6-.8m-123 3c-.7.2-3.3 3-3.5 3.6-.1.3-.4.6-.6.7-.2 0-.8.4-1.2.8-1.2 1-1.7 1.4-2 1.4-.3 0-.4.1-.4.2l-.8.6c-.9.4-1.6 1.6-1.3 2l.4.7c.4 1.4 1 1.6 2 .6l.5-.2 1.2-.7 1.6-.9c.3 0 .7-.3 1-.8a35 35 0 0 1 2.6-2.8l2.6-2.8.4-.6-.3-.8c-.5-1.1-1.2-1.4-2.2-1m-34.8 2l-.4.2c-.1 0-.2-.1-.1-.2l.4-.2c.1 0 .2 0 .1.2m-1.2.8l-.6.5c-.1 0-.3 0-.5.2s-.4.3-.5.2c-.2 0-.2 0 0-.2.2 0 .6-.4 1-.6.2-.3.6-.6.8-.6.2 0 .1.2-.2.5m21 .4c-1 .2-1.2.5-1.4 1.3-.2.9-.6 1.5-1 1.5-.9 0-2.7 1.3-2.7 2l-.3.4c-.5.5-1 1.6-.8 2 .2 1.1 1.5 2 1.8 1.3l.2-.2c.2 0 .5-.3 2-1.4a31.6 31.6 0 0 0 1.7-1.3l2-1.6c.4-.6 1-1 1.2-1.2.8-.4 1.2-2.4.4-2.6-.6-.2-2.5-.3-3.1-.2m-23.3 1.3c-.5.4-1 .5-1 .3 0-.3 1.2-1 1.4-.9 0 0 0 .3-.4.6m98.2.6c.4.7-.4 1.5-1 1-.5-.2-.6-1.1-.2-1.3.5-.2 1 0 1.2.3m-58 .5c-.6.8-1 1.2-1.6 1.4-2.3.5-3 2.7-1.5 4.5.4.4.7.4 1.3-.1l.7-.5 1.7-1.3 1-.8c.8-.2 1.7-1.3 1.7-1.8 0-1.9-2.4-2.9-3.3-1.4m50 3.6v.6l-.2.8c0 .2 0 .5-.2.6l-.3 2.1-.1 1.9-.1-2-.3-2.3v-.7l.3-.9c0-.5.6-.6.9 0m-46.5 0c-.7.4-1.9 1.5-4 3.7-.5.5-1.4 1.3-2.2 1.7-2.4 1.6-3.4 2.6-3.4 3.7 0 1.7 1 2.4 2.2 1.6l1.3-.4c1-.2 1.4-.6 2.1-2.2.6-1.4 1.2-2.1 1.6-2.1l.8-.6.8-.5c1 0 3.4-2.2 3.4-3.1 0-1.2-1.6-2.3-2.6-1.7m-18.3 1.4a2 2 0 0 1-1 .5c-.8 0-2.2 1.3-2.4 2.4-.1.3-.4.6-.6.7-1 .4-.5 2.5.5 2.5a6 6 0 0 0 3.2-1.9l.8-.8c.3-.1.5-.3.5-.4 0 0 .1-.2.3-.2.3 0 1.3-1.3 1.3-1.7 0-1.1-1.7-1.8-2.6-1m79.5.5c-.2.2-.3.6-.3.8 0 .5-.3 1-.4.9-.2-.2.2-1.9.5-2 .3-.3.5 0 .2.3m-73.9 1c-.3.2-2 2.4-2 2.7 0 .3-1.4 1.1-1.8 1.1-2 0-4 4.2-2.6 5.4.7.6.8.6 2.6-1.3 1.4-1.5 2.8-2.5 3.4-2.5.3 0 1.3-1 1.8-1.7l.7-.8c1.1-.4 1.2-1.2.3-2.2-.8-.8-1.7-1-2.4-.7m63.9 1.9l-.1 1.7a67.7 67.7 0 0 0-.6 2.2c-.2 0-.2-4.4 0-4.6.2-.2.6.1.7.7m53.2 1c-.1.6-1.8 2.4-1.9 2 0-.1.2-.6 1.2-2.2.4-.6.9-.5.7.2m-137.2 1.3c1.4 1.3 1.8 1.8 1.8 2 0 .7-.7.2-2.3-1.4-2.4-2.6-2.1-3 .5-.6m35.6-1.2c-.9.5-1.7 1.2-2 1.7-.1.3-.5.8-1 1.2-.6.7-.7.9-.7 1.8 0 2 .7 2 3.4 0l1.2-.8c1.4-.7 2.4-2 2.1-2.9-.5-1.3-1.7-1.7-3-1m113.4 1l-.6.7-.5.8-.3.4a27.9 27.9 0 0 1-7.3 8c-1.3.9-1.6.7-1-.6 1-2.7 1.1-2.8.3-3.3-1.8-1.1-3.3 0-6.3 4.4l-2.3 3.1c-1.5 1.4-6 3-6 2 0-.7 2.7-3.3 3.5-3.3.1 0 .2 0 .2-.2l.7-.3c.7 0 1.5-.7 1.5-1.1 0-.3 3.8-4.2 4-4.2.4 0 3.4-2.4 4.9-3.9a27.8 27.8 0 0 1 2.8-2.4c.5-.3 6.4-.5 6.4-.1m-56.2 2.4c.7.3.5 1.4-.4 2.2-.8.9-.9.8-.5-1.3.2-1.2.3-1.3 1-1m72.5.5a23 23 0 0 1 3.4 1.5l.7.6v2.8c0 1.7-.1 3-.3 3.6-.2.9-.2 5.6 0 6.3.2.3.1.3-1 .3-1.6 0-2.6 1.1-3.2 3.4a258.3 258.3 0 0 0-1.8 6.9l-.8 1.6c-1.4 3-4.3 4.5-6.5 3.2l-1-.6-2.2.2-3.5.4c-2 .3-3.9.2-4.7-.5-.7-.5-1.4-.7-2.6-1a74 74 0 0 1-5.6-1.6 13 13 0 0 0-4.8-1.2c-1.2 0-1.6 0-2.5-.5-.9-.4-1.2-.5-1.4-.3a2 2 0 0 1-.9.2c-.4 0-.6.1-1 .5-.5.9-.4 1 2.4 2.2l.7.2 1.4.5a79 79 0 0 0 20 4.4c6.8.7 10.4 0 16.6-3.5 3.3-1.8 5.7-5 6.1-8.4l.3-1.6c.2-1 .2-4.1 0-5.7a28.1 28.1 0 0 1 .2-8.5c0-.5.1-1 .3-1.2l.2-.7c0-1 1.6-.7 2.3.4.5.8.7 1.1 1.5 2.9l.8 2.4c0 .3.2.7.3.8l.2.5.5 1.1.7 1.2 1.4 1.2c2.6 2 2.3 3.5-1.6 10.9a11.7 11.7 0 0 0-1.2 3 6 6 0 0 0-.3 2.4c0 2.4.2 2.8 1.7 2.8 1.2 0 1.3.3.2 1.4L256 240l-.9.7-1.2.1h-1l-2.8 2.7a72 72 0 0 0-4.4 4.8 22.6 22.6 0 0 0-4 7.5c-.3 1.4-1 1.7-4.3 1.7-2 0-2.9 0-3-.2l-2-.3c-1 0-2-.2-2.5-.3-.3-.1-1.2-.3-2-.3-.6 0-1.4 0-1.8-.2-.4-.2-1.2-.3-2-.3l-1.7-.2c-.6-.4-8.3-.7-9.5-.5-1 .3-1.1.6-.5.9l.9.3 1 .3 1.3.3 2.3.7.9.3c.2.2.5.3.7.3.2 0 .5 0 .7.2.2.2.5.3.7.3.1 0 .4.1.5.3.1.1.3.3.5.3.3 0 2 1.1 2 1.3 0 .3-.7.5-3.5 1.2-.6.2-3 .3-6.4.4-5 .1-9.7.4-11.1.6-.6.1-.9-.1-.3-.3.6-.3.1-.8-.8-1a35 35 0 0 0-10.8.7c-1.6 0-3.6.8-4.8 1.9l-1.6 1.2-1.2.5c-.8.5-1.3.2-4.3-2-3-2.3-4-3.2-4.3-3.8l-.2-.4-.3-.7c-.1-.8-.5-1.5-.7-1.5l-.9-.7c-1.9-2-2.5-4-2.6-8.8 0-3.5-.3-4.5-1.3-5-2-1.2-2.9-.1-2.4 3a67.6 67.6 0 0 1 .7 6.7l.1 3.9c0 3.2.4 4.1 1.5 4.3.5.1.6.2.6.6 0 .7.6 1.6 1.5 2 .4.2 1.2.9 1.8 1.5 1.2 1.3 2.5 2 4 2.1 1.8.2 2 .2 2.3 1 .8 1.5 1.3 1.7 4 1.1 1-.2 1.2 0 .8.6l-.4.5.5.3c.8.7 2.9.8 3.4.2.3-.2 2.3-.2 2.8.1.1.2.5.3.8.3l-1 .2c-.7 0-1.5.2-1.7.3-.2.2-.8.2-1.2.2l-1.3.3c-.3.2-.7.3-1 .3l-.9.2-1.5.7c-1.3.7-1.8 1.2-2.9 3.3-1.4 2.7-1.6 3-1.7 2.7l-.5-1.1c-.2-.3-.2-.4 0-.7.2-.2.4-.5.4-.8 0-.3 0-.8.2-1.1.2-.7-.2-2.3-1-3.8a17.6 17.6 0 0 0-2.3-4c0-.4-2-2.7-2.4-2.7-.5 0-.8 0-1 .2-.2.4-.1 3.7.2 4.5.3 1 .3 2.9 0 3.5-.6 1 .3 2 1.8 2 1 0 1.2.3.6 1.2a112.4 112.4 0 0 1-2.1 4.5l-.3.8c-.2.2-.3.7-.3 1.1 0 .5-.1 1.1-.3 1.4l-.2 1c0 .5-.4 1.5-.8 2.2l-.3.7c-.3.7-1.6.6-2.3-.2a13 13 0 0 1-2-4c-.2 0-.3-.5-.4-.9a19 19 0 0 1-1-3.7l-.4-.9-.1-.6-.3-1c-.2-.3-.3-.8-.3-1 0-.3-.1-.7-.3-1l-.2-1.1c0-.4-.1-.8-.3-1-.1-.2-.3-.6-.3-1s0-1-.2-1.4c-.2-.3-.3-1-.3-1.3 0-.4-.1-1-.3-1.4l-.3-1.5c0-.5 0-1.2-.2-1.7-.2-.4-.3-1.7-.4-2.9a46 46 0 0 1 .6-17.7c0-.6.2-1.3.3-1.7a6 6 0 0 0 .3-1.8c0-.7.1-1.6.3-2.1.2-.7.2-1.6.2-5 0-4.6-.1-4.4 1.2-3.8 1.8.9 3.4 2.7 4.9 5.7 1.7 3.2 2 3.9 3.3 5 .6.3 1.5.8 1.9.8l.5.2c.5.5 1.6.3 2.1-.4.8-.9.7-1.1-.8-1.8-.6-.4-2-1.7-2.6-2.4-.2-.2-.3-.9-.3-1.8 0-1.7-.5-2.8-2.2-4.6l-.9-1c.2 0 1.2.8 1.7 1.3l1.2 1.4a44 44 0 0 1 3.6 4.5 625.6 625.6 0 0 1 4.2 5.6c1.9 1.8 2.5 2.7 2.7 3.6.2 2 1 2.7 2.9 2.7 1.4 0 1.4 0 1.4-1.7l.2-1.3c.2-.2.5-1.5.7-2.5.1-.9.2-.9.8 0l.8 1.3.4.5 1.4 1.5 1.4 1.4-.6.5c-1.4 1.4 0 3.1 4.2 5.2a109.3 109.3 0 0 1 2.8 1.3c.2 0 .5 0 .6.2l2 .8c.4 0 .7.2.7.3l.6.2c.3 0 .7 0 .9.2.2.2.6.3.8.3l1 .2c.4.2.6.2.8 0l.7-.2c1.3 0 1.7-2.8.5-3.6l-.8-.4-.2-.1a27.5 27.5 0 0 0-4.8-3c-4-1.7-10.1-7.2-10.1-9 0-.1-.2-.4-.5-.6-.5-.6-1-.9-2-1.2l-.7-.5-1.5-.8a19.8 19.8 0 0 1-7.4-6.4 17.2 17.2 0 0 0-4.5-4.4.8.8 0 0 0-.6-.2.8.8 0 0 1-.5-.3c-.1-.2-.5-.3-.8-.3-.3 0-.7-.1-1-.3l-1.2-.2h-1l.5-.4c.4-.5 2.4-.6 2.8-.2l.5.2.8.3.8.2.7.3c.2.2.6.3.8.3.3 0 .6.1.7.3l.7.2.7.3c.2.2.5.3.7.3.2 0 .5.1.7.3l.8.2.6.3c.1.2.4.3.6.3.2 0 .6.1.8.3l.7.2.7.3c0 .2.4.3.6.3.2 0 .5 0 .7.2.2.2.5.3.7.3l.9.3c.9.5 2.8 0 3.3-.7.5-.8-.3-2-1.4-2-.2 0-.6 0-.8-.2-.1-.2-.5-.3-.8-.3-.3 0-.6-.1-.7-.3a1 1 0 0 0-.6-.2 1 1 0 0 1-.7-.3.8.8 0 0 0-.5-.3.8.8 0 0 1-.6-.3l-.4-.2c-.3 0-1.2-.8-1.2-1 0-.6 5.7-.2 6.7.4l.7.2.9.3.8.2.7.3c.2.2.5.3.8.3.2 0 .6.1.8.3l.7.2.7.3c.2.2.6.3.8.3.2 0 .5.1.6.3l1 .2c.3 0 .7.2.8.3.2.2.5.3.9.3.3 0 .8 0 1 .2 1 .4 1.3-1 .6-2.1-.5-.8-.5-1.2 0-1.3.8-.2 4.6 0 4.9.2l.6.2.7.3c.2.2.6.3.8.3.3 0 .6.1.7.3l.7.2c.3 0 .6.2.8.3.4.4 2.4.4 2.8.1a39.8 39.8 0 0 1 15.5-.4c.8 0 2 1 3 2.3 1.8 2.5 5.7 2.3 5.7-.2 0-1.3-2-4.4-2.8-4.4-.2 0-.3-.1-.3-.2-.2-.4-1.7-1-2.6-1-1.1 0-2.2-.4-2.5-1-.2-.3-1-.7-1.7-.7a280.2 280.2 0 0 0-6.5-.5l-3-.3c-2.2-.1-3.6-.3-4.7-.7l.5-.2 1.4-.5 1.1-.4a27.5 27.5 0 0 0 5-2.4 25.8 25.8 0 0 0 4.1-2.8l1-.7a20 20 0 0 0 2.5-2 59.1 59.1 0 0 0 3.8-3.2 37 37 0 0 1 3.3-2.8c1.7-1.3 3.9-1.5 6.9-.6m-126.4.3a69 69 0 0 1-2.6 2.3c-2.2 1.7-2.3 2-1.4 3.7.6 1.1 2 1.4 2 .4l2.1-2.3c2.4-2.3 2.6-2.8 1.9-3.6-.5-.6-1.6-.9-2-.5m64.5 1.1a91.1 91.1 0 0 1-2 5.3c-.6 1.4-.9.8-.8-1.6 0-1.6 0-1.8 1.6-3.3 1.5-1.7 1.7-1.7 1.2-.4m-82-.8c-1.8.6-6 4.6-5.7 5.6.2 1.3 1 1.5 2.2.7l1-.5c4-1.9 6.1-6.9 2.5-5.8m95.5 1.4c-.5 1-1 1.5-1 1 0-.2 0-.4.2-.5.2-.2.3-.5.3-.7 0-.2.1-.6.3-.8.5-.4.6.2.2 1m69.6.4c0 .2.2.5.3.5l.2.3c0 .4-1.1-.6-1.3-1.2-.3-1-.1-1.4.3-.7l.5 1M75 207l-.2.1-.1-.4c0-.4.3-.1.3.3m110.8 2.8a3 3 0 0 0-.3.9l-.1.3c-.1 0-.3.1-.4.4-.5 1 0-2.3.6-3.6l.4-.7v1c0 .7 0 1.3-.2 1.7m-81.5-2.2c-.8.3-1.4 1-2.7 3.4-.7 1.2-1.6 2-2.5 2-1.2 0-1.9 1.8-1.2 3s1.2 1 3.3-.8a31.9 31.9 0 0 1 3-2.5l1.6-1.2c1.5-1 1.7-1.2 1.7-2.2 0-1.5-1.6-2.3-3.2-1.7m-28 1l1.3 1.6.5.8.3.4a65.2 65.2 0 0 1 3.8 5l1.4 1.7a103.7 103.7 0 0 0 4.8 6.4l.5.8.5.8.7 1 .8 1.4a29.7 29.7 0 0 1 1.8 3l.8 1.2 1.4 2.2 1 1.8-.3-.1-.6-.8a24.6 24.6 0 0 0-3.2-4.3l-1-1.5a68.2 68.2 0 0 1-4.4-6.1 18.6 18.6 0 0 0-2-3l-.8-1.2a67.7 67.7 0 0 1-3.9-5.3 145.2 145.2 0 0 1-4-6.1c-.2-.7.2-.5.6.2m84.7 1.3c.3.4.3 1.1 0 1.8s-.5.5-.5-.8c0-1.4.1-1.5.5-1m-41.8 1.3c-.8.7-.9.7-1.4.8l-.5.3c0 .1-.2.2-.5.2-.8 0-1.7.8-1.7 1.6 0 .3 0 .9-.2 1.2-1.5 2.8 4 1.6 6.3-1.4.7-.9.9-1.6.4-1.9l-.6-.7c-.5-.7-1-.8-1.8-.1m48.2 0c.1.5 0 1.5-.2 2.1l-.4 1.4c-.2 1.7-.8 1.8-.8 0 0-2.2 1-4.6 1.4-3.5M86 212.3a11 11 0 0 1 1 1.4l.6.7a64.4 64.4 0 0 1 5 7.3l.6.9.5 1s0 .2.2.2l.5.8A19.6 19.6 0 0 0 96 227a40.4 40.4 0 0 0 2.5 4.3l.2.4.4.6.4.6a81.2 81.2 0 0 1 3.2 6.1l-.7-1-.5-.8-.8-1.2-2.6-3.8a62 62 0 0 1-3.4-5.3s-.2 0-.2-.2a5 5 0 0 0-.6-1.1L93 224l-.4-.5-.3-.5-.8-1.4a180.2 180.2 0 0 1-4.5-7l-1.9-3c0-.3.4 0 .9.6m87.1.4c0 .6-.2 1.3-.3 1.5l-.2 1.2c0 .5 0 1.2-.2 1.6-.2.4-.3 1.2-.4 1.8 0 1.2-.5 2.3-.9 2.3s-.8-.8-.7-1c.1-.1.3-.5.3-.9l.3-1.1.5-1.7a68.7 68.7 0 0 1 1.6-4.8v1.1m-64.4-.6c-2.3 1-3 1.4-3.5 2.4-.6 1-1.3 1.6-2 2-2.6 1.4-4.3 3.6-3.4 4.5.3.4 2.7.3 3.1 0 .2-.2.5-.3.7-.3.3 0 1.6-1.3 2-2 .2-.5.5-.7 1.5-1.4.4-.3 1-.7 1.2-1l1.5-1c3-2 2-4.6-1.1-3.2m13.7 3.4c-1.2.3-4 2.6-4 3.2l-.3.2a5 5 0 0 0-1.1.7l-1.6 1c-1.2.5-2.4 2-2.4 3.1 0 1.5.9 2.1 2 1.5l.8-.3c.8 0 2-.8 3-2 1-1.1 3-2.7 4.5-3.8 2.2-1.5 2.3-4.1.1-3.8l-1 .2m142.8 1.7c.4.6.3 6.6 0 7.2-.2.2-.3.6-.3.9 0 .3 0 .3-.2.2a26 26 0 0 1 0-5.2c0-2.7.1-4.6.2-4.2 0 .4.2.9.3 1m-154.7-.5c-.3.2-.7.8-1 1.4-.4.8-.7 1.2-1.3 1.6a19.6 19.6 0 0 0-5 4c-1 2.3.9 3 3.4 1.4l1.4-.8c1.5-.8 4-3.5 4.7-5.1.6-1.5-1-3.2-2.2-2.5m48.5 5l.7 1.3.3.4.3.6c0 .2 0 .5.2.7.3.5.5 2 .3 2.2-.2.2-1-.3-2-1.2l-1.3-1.3c-.6-.6-.7-.8-.6-1.2l.3-1.9.2-1.4.4.4c.3.2.8.9 1.2 1.5m-34.8-.6a51.5 51.5 0 0 0-2.6 2.1c-.6.3-.9 1-1 2.6 0 2 1.2 2.1 3 .2.6-.5 1.2-1 1.5-1 .8-.2 1.8-.7 2.1-1 2-2.3-.7-4.8-3-3m122.4 3.7c-.2.4-.3.1-.2-.5.1-.3.2-.4.2-.2v.7m-136.7.8l-.4.3-1 .6c-.5.3-1.1.5-1.3.5-1.5 0-2.8 3-1.9 4.1.9 1 2 1 3.3-.1 1.6-1.4 2.4-2 3.3-2.4 2-1 2.2-1.5 1.2-2.6-.7-.7-2.6-1-3.2-.4m33.1.5c1.5.9 1.5 1.5 0 1.5-1.7 0-3.2-1-2.5-1.7.5-.5 1.4-.5 2.5.2m-27.1 2.6a15 15 0 0 0-2 1.8c-.6.7-1.3 1.3-1.5 1.4a6 6 0 0 0-1.2 1.3c-3.3 4.4-.5 5.2 4.1 1.2 4-3.5 5-6 2.6-6l-.6-.1c-.2-.3-.5-.2-1.4.4m17.8.4l1.2.3 1 .2c.3.2.8.3 1.1.3.3 0 .8.1 1.1.3l1.2.3c.3 0 .7 0 1 .2a19.2 19.2 0 0 0 7.8-.5c3.4-.9 5 .3 7.7 5.2 1 2 1.2 5.2.3 7.2a3 3 0 0 0-.2.9l-.2.3-.3.4c-.1.5-.1.5-2 .5-1.2 0-2.3.1-2.9.3-1.2.3-4 .3-4.9 0-.4-.2-1-.3-1.4-.3-.4 0-1-.1-1.2-.3a3 3 0 0 0-1.2-.3 2 2 0 0 1-1-.2c-.1-.2-.5-.3-.8-.3-.3 0-.6 0-.6-.2l-.7-.3c-.6-.2 1-.2 3.3 0 2.1.3 2-1.6-.4-3.4-.1-.2-.6-.3-1-.3-.7-.1-1.6-.4-2.5-.8l-.8-.3a.8.8 0 0 1-.6-.3.8.8 0 0 0-.5-.2.8.8 0 0 1-.6-.3c0-.2-.3-.3-.4-.3-.2 0-1.6-1-1.6-1.3 0-.2.7 0 3.6.6 3 .7 3.6.7 4.4 0 1-1 .8-1.6-.6-2.2a521 521 0 0 1-2-.8l-2.3-.7c-5.1-1.9-6.6-2.8-6.3-3.7.2-.4 2.4-.4 3.3 0m-37.3 8.5l-.1.2c-.2 0-.4-.7-.3-.9.1 0 .4.4.4.7m-26.2.3c-.3.1-.2.4.2 1.2.7 1.5.4 2.3-1.2 3.2a8 8 0 0 0-.8.6l-1.1.6-1.5 1-1.3.7a135 135 0 0 0-8.5 5s-.3 0-.4.2c-.6.8-2.6.5-3-.5-.3-.5-.9-.8-1.2-.6-.2.2-.2 1.1 0 1.4l.9 1.3a174.2 174.2 0 0 0 6.8 11.5c.5 1.1 1.3 1.9 1.9 1.7a231 231 0 0 0 3.8-1c1.3-.2 2.1-.7 2.1-1.1 0-.4-.7-.8-1.1-.5a7 7 0 0 1-3.2 0c-1.4-.5-3-2.1-4.4-4.9l-.9-1.5c-.8-1.5.1-2.6 3.8-4.4l1-.5a9 9 0 0 1 .9-.6c.2 0 .6-.4 1-.6l.7-.5 2-1 2-1.4c.2 0 1-.5 1.7-1 2.2-1.3 3-1.3 4.3.2 1.4 1.6 2.2.8 1-1l-1.2-2-.8-1.4-1-1.6c-1.2-2.3-1.8-2.8-2.5-2.5m210 3.6c-.2.2-.2 1.1 0 1.3.5.3.1.8-1 1.6-4.8 3.7-5.3 10.4-.9 12.2l.7.5c.2.3 4.6.2 4.9-.1a26.3 26.3 0 0 0 4.4-2.1c.2-.3 4.4-2.2 4.7-2.2 1.5-.1 2 0 2.8.8l.9.8v1.4c0 4.2-4.3 7-8.2 5.3-1-.4-1.7-.2-1.7.5 0 .3.9 1 1.2 1l.5.3a55.2 55.2 0 0 0 4.4 2.8c.6.6 1.7-.3 1-1-.5-.5-.3-.8 1.9-2.8 1.1-1.2 2.1-2.2 2.1-2.4 0-.1.1-.4.3-.5l.2-.5.3-.6c.7-.6.6-4.6-.1-6.1-1.5-2.9-5.6-4.3-8.3-2.9a124 124 0 0 1-5.4 2.9c-.3 0-.5.2-.5.3l-.5.3-.6.2-.6.3c-.3 0-.7.2-.8.3-.6.5-2.7.3-3.3-.3-.8-.7-1.1-2.2-.8-3.4.3-.9 1.9-2.9 2.3-2.9l.5-.3c.5-.5 4.2-.5 5 0 1 .5 1.6.4 1.7-.3 0-.5-.5-.9-2-1.8-.3 0-.7-.3-1-.5-3.2-2-3.8-2.4-4.1-2m-18.4 6.7c0 .8-3.5 4.6-5.2 5.8-.3.2-.8.5-1 .8l-.6.5c-.4 0 .2-.7 3.2-3.6a55.3 55.3 0 0 0 3.4-3.6h.2m-117.1 1.6l1.7.3c1.3.1 1.7.2 1.5.4-.1.3-2.4.2-3 0-3-1.3-6.3.8-4.5 2.8.4.4.7.9.8 1.5a46.3 46.3 0 0 1 0 7.7c0-.3-.2-.5-.3-.6l-.2-.6-.4-1-.7-2.2a81.5 81.5 0 0 0-1-3.8l-.3-2c-.3-1.4 0-1.9 1-2.3a14 14 0 0 1 5.4-.2m9 .2s-.3.2-.7.2l-.9-.2c0-.1.3-.2.8-.2.4 0 .8 0 .8.2m-34.9 1.5l2.7 2.3 1.3 1a57 57 0 0 0 7 4.7l1.4.8 1.5.8.2.1 1.2.7c3.2 1.7 3.8 2 4.2 2.6l.4.8.5 1a11 11 0 0 1 1 2c.3.4 0 .6-.4.3l-.5-.2-1.3-.5a75 75 0 0 0-2-1 50 50 0 0 0-4.2-2.3 7 7 0 0 1-.9-.6l-1-.6-1.1-.8-.6-.4a98.6 98.6 0 0 1-7.6-5.7l-2-1.3-2.2-1.7c-.6-.4-.6-.6.4-1.7 1-1 1.1-1 2-.3m-10.8.4c.8.6 1.2 1 1.2 1.2 0 .3-1.3-.6-1.6-1.1-.5-.7-.4-.7.4-.1m-28.7 2c-.2.3-.1.4.4 1.1 1 1.6.7 2.3-2.2 4.8a84 84 0 0 0-5.2 4.7c-2.7 2.4-4.5 4.6-4.5 5.5 0 .3 0 .6-.2.7-.3.3-.3 3 0 3.2l.2.7c0 .3.5 1.1 1.1 2.1 2.2 3.2 4 4.7 6.8 5.4 3.1.7 5.4-.4 11-5.8l3.4-3 2.2-2h1c.8 0 1 0 1 .3 0 .2.3.7.8 1.1.4.5.8 1 .8 1.2 0 .2 0 .3.2.4.3.2.4 2.5.3 7.3l-.2 5-.6.2-1.5.4c-.4 0-.9.2-1 .3l-1 .2c-.3 0-.8.1-1 .3a2 2 0 0 1-1 .3 2 2 0 0 0-1 .2 2 2 0 0 1-1 .3c-.4 0-.9.1-1.1.3a8 8 0 0 1-4 0c-1-.5-2-.5-2.1-.1-.2.4 0 .9.4 1l1.1.8 1 .7.5.4c2.9 2.4 4 2.9 4.1 2 0-.2 0-.6-.3-.8-.8-.9-.8-2 0-2 .2 0 .4 0 .6-.2.2-.1.6-.3 1-.3.2 0 .7 0 1-.2.3-.2.7-.3 1-.3.3 0 .7-.1 1-.3.2-.1.6-.3 1-.3.2 0 .7 0 1-.2l1-.3h.5v3a31.6 31.6 0 0 1-.5 5c-.2.8-.7 1-1.6.5-.8-.3-1.5-.2-1.5.4 0 .3 1 1.3 1.2 1.3l1 .6a966 966 0 0 0 5 3.8c1 1 1.8 0 1-1s-1.3-3.4-1-4.8l.3-5.3c0-4.7.1-4.8 1.3-5l1.3-.4c.4-.2 1-.3 1.3-.3.3 0 .5 0 .6-.2l1-.2 1-.3c1-.7 5-1 6.2-.4 1 .4 1.4.3 1.4-.4 0-.5-6.2-5.1-6.7-5-.5 0-.5.8 0 1.4.4.4.5.7.5 1.3 0 .3-1 .9-1.6.9l-.9.3-1 .2-1 .3c-.3.2-.8.3-1 .3-.4 0-.9.1-1.2.3-.7.3-.7.5-.6-3 0-4 .6-5.5 1.6-4.4.3.4 1.2.5 1.6.2.4-.3.2-.8-.6-1.3l-1.3-1-1.3-1c-.4-.2-.9-.5-1-.7l-1.6-1.2-1.3-1.2-.5-.6-1.5-1.6c-2.5-2.9-3.5-3.9-4-3.8-.5.2-.5.8.1 1.5 1.3 1.3.9 2-3.5 5.9a2106 2106 0 0 0-5.6 5c-3 2.6-6.7 2.4-9.1-.6-3-3.5-2.2-6 3.3-10.6l2.7-2.5c4.2-4 5.5-4.6 6.7-3.3.6.6 1.2.7 1.6.3.2-.2 0-.7-.8-1.5a3 3 0 0 1-.7-.8l-1.3-1.5a37 37 0 0 1-3.4-3.8c-.3-.5-.9-.5-1.1 0m186.6 7.7c-.4.2-.3.8.1 1.5a16.9 16.9 0 0 1 1.3 2.5 220.4 220.4 0 0 1 5.5 11l.3.5.3.5.3.6c1.7 3 2.6 5.6 2.1 6.7-.7 1.7.5 2 1.7.3l1.7-2c1.6-1.8 2-2.5 1.6-3-.4-.3-.4-.3-.9 0-1.8 1.4-2.1 1.2-3.6-1.7-1.2-2.4-1.2-2.4-.4-3.3a39 39 0 0 0 3-3.5l.8-1c.8-.9 1-1 1.8-.6l1 .2c.2 0 .5.1.7.3l.9.3c.2 0 .5 0 .7.2.1.2.3.3.5.3.6 0 .8 1.6.3 2-.5.4-.3 1 .4 1 .4 0 .7 0 1.9-1.5.7-1 1.6-2 2-2.4 1.5-1.7 2.2-2.8 2-3.1-.3-.5-.8-.5-1.5 0-.7.6-2.5.7-3.3.3-.2-.2-.7-.3-1-.3-.3 0-.6 0-.7-.2l-.7-.3-1.8-.5a155.2 155.2 0 0 0-9.2-2.8 1801.6 1801.6 0 0 1-6.4-2c-.5-.3-1-.3-1.4 0m7.4 6l2.6.7c2.6.7 2.6.8 1.5 2.1l-1.3 1.5a63.2 63.2 0 0 1-1.9 2 43 43 0 0 1-3.6-7c0-.2.5 0 2.7.6m-12.7 1.2a43.5 43.5 0 0 1-3.4 3l-1.3 1a26.5 26.5 0 0 0-3.2 2.7l-.7.6a86.3 86.3 0 0 1-3.8 3.2c-1.8 1.4-1.8 1.1.3 4 1.4 1.8 1.6 2 2.2 1.7.5-.3.4-.5-.1-1.4-.3-.6-.5-1-.5-1.9v-1l1.5-1.4c.8-.8 1.7-1.5 1.9-1.5.5-.1.4-.3 3.4 3.4a315.3 315.3 0 0 0 7.6 9l.4.6c1.3 1.4 1.4 2 .4 3-.8.8-1 1.6-.4 1.7.4.1 2-1 3.5-2.4l1.7-1.5c1.6-1.1 2.5-2 2.5-2.6 0-.7-.7-.7-1.4 0-1 1-2.8.3-4.2-2l-1-1.2-1-1.1a81.7 81.7 0 0 0-4.1-5 89.5 89.5 0 0 1-3.3-4c-.7-.7-.7-1 .4-1.8 2.3-2 3.9-2.4 5.3-1.3 1.3 1 2.3.6 1.6-.5-2-2.7-3.7-4-4.3-3.3m-63.8 1c-.2.4-.6.7-1.2.9-.8.1-1 0-.5-.7.6-1 2-1 1.7-.3m-40.4 5c0 1.1-.6 1.3-.7.2-.1-.8 0-.8.4-.8.3 0 .3.1.3.7m30.7 3.9c-.2 0-.8.7-1.3 1.4-2.1 2.5-2.9 2.9-4.5 2.4-.5 0-.4-.2 1.5-1.3l3-2c.9-.7 2-1.2 1.3-.5m56 4.3a1119.7 1119.7 0 0 0-5.9 3.8c-.3 0-.7.8-.6 1 .1.4 1.1.4 1.6 0 1-.8 2.3-.2 3.4 1.7l.5.8.5.9.6.7.2.2a212.6 212.6 0 0 1 6.8 10.9c.6.5.4 1.3-.6 2.3-.9.7-1 .8-.8 1.2.3.4 1 .5 1.3.1l.8-.5.8-.6.9-.5.8-.6c0-.2.1-.3.2-.3l1-.5 2-1.3c1.6-.9 1.2-2.1-.3-1.3-.8.3-2.2.3-2.5-.1a162 162 0 0 1-7.5-11.4c-2.8-4-3-4.8-1.4-6 .5-.4.7-.7.6-1 0-.6-.8-.5-2.4.5m-14.8 8.8l-.9.3a7 7 0 0 0-1.4.6l-1.4.5c-.2 0-.4.1-.5.3l-.4.2c-.5 0-6.8 3-7 3.4-.4.7.3 1.1 1.2.7 1.4-.5 2.4-.1 3 1.4l.4.7.2.5c0 .3 0 .5.2.5a33.3 33.3 0 0 0 1.4 3 337.3 337.3 0 0 1 4.1 8.8c1.1 2.5 1.1 2.8-.2 3.8-1.7 1.2-1.1 2 .8 1.2 6.1-2.7 7.7-3.6 7.7-4 0-.7-.6-.8-1.7-.4-1.6.6-2 .1-4.4-5.3-1.5-3.3-.5-3.8 3.1-1.7a43.3 43.3 0 0 0 4.3 2.4l1.6.9c2.8 1.8 3.6 1.8 6 .4l.6-.3c1.8-.7 2.5-1.3 2.1-1.7 0-.1-1.1-.2-2.3-.2-1.2 0-2.4-.2-2.6-.3a39.6 39.6 0 0 0-3.3-1.7 34.4 34.4 0 0 0-2.5-1.5 23.1 23.1 0 0 0-2-1.2.9.9 0 0 0-.6-.2c-.4 0-.3-.2.5-1.1 1.1-1.3 1.2-1.4 1.3-1.9l.4-.6c1-1.3-.8-6.6-2.2-6.6l-.3-.2c0-.1-.2-.3-.4-.3-.3 0-.7-.3-1-.4-.6-.3-3-.3-3.8 0M125 292c-.2.3-.1 1 .2 1.1 1 .3 1.7.8 1.8 1.1a5 5 0 0 1-.4 2.7l-.3.7-.3.9c-.5 1-.5 1.1-.7 1.8l-.2.6-.2.6c0 .2-.1.5-.3.7a1 1 0 0 0-.3.6c0 .2 0 .5-.2.7-.2.2-.3.6-.3.8 0 .3-.1.6-.3.7l-.3.6c0 .1 0 .5-.2.8l-.3.8-.3.6a1 1 0 0 0-.3.6c0 .2 0 .6-.2.7-.2.2-.3.5-.3.7l-.3.8-.5 1.2c-.6 1.1-1.5 1.4-2.9.8-.3-.1-.9.3-.9.7 0 .5 0 .4 5.7 2.6a73.5 73.5 0 0 1 6.2 2.4l.9.2.6.3c.2.2.6.3.8.3l.6.2c.1.2.4.3.7.3l.5.2c.2.4.8.2 1.5-.6 3.3-3.8 3.5-4.1 2.8-4.5-.4-.2-.6 0-2 1l-1.8 1H132c-1.1 0-1.8 0-2.2-.2-1.2-.6-2-.9-2.3-.9l-.7-.3-1.4-.6c-1.1-.5-1.1-1.4 0-3.5l.2-.9c0-.2 0-.3.2-.3l.3-.6.3-1 .3-.8c0-.2 0-.4.2-.5l.2-.4c0-.7.6-1.2 1-.9l.8.3.9.3a579.3 579.3 0 0 1 3 1.4c.8 0 1.4 1.3 1.2 2.5-.3 1.2 0 1.9.7 1.5.5-.3.6-.6 2-4.1 1.3-3.7 1.3-3.7.7-3.9-.5 0-1.2.3-1.2.7 0 1-2.2 1.8-3 1.2-.2-.2-.6-.3-.8-.3-.2 0-.5-.1-.7-.3l-.6-.2-.9-.3-1.2-.6c-.6-.3-.9-.8-.5-1l.2-.6c0-.2.1-.5.3-.6l.3-.7c0-.2 0-.5.2-.7.2-.2.3-.5.3-.7l.3-.8a578.5 578.5 0 0 1 .8-2c0-.7 2.4-.4 3.2.3l.4.2c.6 0 4 1.6 4.4 2 .3.4.4.7.4 1.9 0 .7 0 1.5.2 1.7.2.5.9.5 1 0l.3-.8c.2-.2.3-.7.3-.9 0-.2.1-.5.3-.7l.3-.9.1-.6c1-.6 0-1.2-3.4-2.5a86.2 86.2 0 0 1-7.4-2.8l-.8-.3c-.2 0-.5 0-.7-.2l-.6-.3-.9-.3-.9-.2a1 1 0 0 1-.6-.3c-.2-.3-1.3-.4-1.5-.2m105 2.8c.8.6 1.7 1.7 1.7 2l.3.9c.8 1.5-.7 4.2-3 5.5-1.5.7-1.4.7-2-.5a177.5 177.5 0 0 0-3-6.4c-.2-.5-.3-.4 1.5-1.4 1.5-.9 3.3-.9 4.5 0m-15.9 2.5l-2.2.5a38.1 38.1 0 0 1-3 .8 4 4 0 0 1-1 .3l-3 .9-1 .2c-.2 0-.7.1-1 .3l-1.2.3-.7.1-.9.3a23.4 23.4 0 0 1-6.5 1c-2.6.2-3 .3-3 1 0 .2.9.8 1.5 1 1 0 1.3 1.5.6 3l-.5 1.8-.6 1.6-.2.8-.2 1c-.2.2-.3.6-.3.8 0 .3-.1.6-.3.8-.1.2-.3.5-.3.8l-.2 1c-.2.2-.3.6-.3.8 0 .3-.1.6-.3.8-.1.2-.3.6-.3 1 0 .3 0 .6-.2.8-.2.1-.3.5-.3.8v.5l-.2-.4-.4-.6-.6-1.1a162.2 162.2 0 0 0-3-5.7c-.5-.5-3.1-5.8-3.2-6.5-.2-.9.4-1.6 1.2-1.6.7 0 1.1-.7.6-1-.4-.4-5-.3-5.4 0-.1.2-1 .3-2 .3-1.3 0-1.8 0-2 .2-.3.4-.1 1 .5 1 1.2.3 2.6 1.3 2.6 1.8l.3.4c.2.1.3.4.3.6 0 .2.1.4.3.5l.2.4.2.4.8 1.4a282.6 282.6 0 0 0 7.7 14.3c1 2.1 1.9 2.6 2.3 1.4l.3-.8.2-.8c0-.3.1-.7.3-.8.1-.1.3-.5.3-.8l.2-1c.2-.1.3-.5.3-.8 0-.4.1-.7.3-.9.1 0 .3-.4.3-.7l.2-1c.2-.2.3-.5.3-.8 0-.2.1-.6.3-.8.1-.2.3-.6.3-1 0-.2 0-.6.2-.8.2-.2.3-.6.3-.9 0-.2.1-.6.3-.8l.3-.8c0-.3 0-.7.2-1 .2-.3.3-.7.3-1 0-.2 0-.4.2-.5l.3-.8.2-.8.2-.6c0-.3.1-.7.3-.9l.3-.7c0-.5.3-1.2 1-2.2.3-.5 1.5-1.2 2-1.2.3 0 .7 0 1-.2.6-.4 1.8 0 1.8.6 0 .2.1.4.3.5l.2.9.3 1 .3 1 .3 1.1a18.7 18.7 0 0 1 1 3.6l.2 1c0 .5.2 1 .3 1l.3 1 .2 1 .3 1c0 .5.2 1 .3 1l.2.7c0 .3.1.8.3 1.1.7 1.5 0 3.8-1.4 3.8-.5 0-.8.3-.7.7 0 .6 1.2.7 2 .3l1-.3c.3 0 .7-.1 1-.3l1-.2 1-.3 1.1-.3c.3 0 .7-.1 1-.3l1-.2c.4 0 .7 0 .8-.2l2.8-.7a3 3 0 0 0 1-.4l.8-.2a3 3 0 0 0 1.2-.3l1-.2c.7 0 1-.4 1-2l.3-2.7c.3-1.6.2-2-.5-2-.5 0-1.1.8-1.1 1.6 0 .3-.2.6-.3.8l-.3.6c0 1-2.8 3-4.1 3l-.5.1-1 .3c-.5 0-1 .2-1 .3-.8.6-2.9.3-2.9-.4 0-.2 0-.7-.2-1-.2-.2-.3-.6-.3-1 0-.2-.1-.7-.3-1l-.2-.9-.3-1c-.2-.2-.3-.7-.3-1 0-.3-.1-.7-.3-1-.4-.8 0-1.3 1-1.4.5 0 1-.2 1-.3l1-.3 1-.2c1.1-.9 3.8 0 3.8 1.2 0 .8 1.2 1.2 1.5.5 0-.2-.4-2.2-1.4-5.9-.8-2.8-1.8-3-1.8-.3 0 1.2-.8 2.3-1.7 2.3l-.9.3-.9.2-1.3.3c-2 .7-1.9.7-2.3-.2l-.3-1.3-.2-.7-.3-1c0-.4-.2-.9-.3-1l-.2-1-.3-1c-.7-.4.3-1.7 1.3-1.7l1.2-.3c1.2-.4 3.8-1 4.6-1.1.9-.1 2 .6 2.5 1.5.9 1.6 2.2 1.6 1.7 0l-.7-2.2c-.6-1.9-.8-2-1.8-2m-70.6 2.4a3 3 0 0 0-.4 1.2c0 .3-.1.8-.3 1l-.2 1.1-.2.9c-.4.3-.1 1 .3 1.1.5 0 1.1-.5 1.1-1 0-.3.4-.8.9-1.2l.8-.9h1.5c1.9.2 3.4.6 3.4 1l-1.2 6.6a455.7 455.7 0 0 0-1.9 10c-.2 2-.9 2.5-2.4 2.5-1-.1-1.2 0-1.2.3-.1.7.3 1 1.2 1 .4 0 1 0 1.4.2.4.2 1 .3 1.5.3s1 .1 1.3.3l1.3.3c.5 0 1.2 0 1.6.2.8.4 1.4.3 1.6-.2 0-.4-.2-.8-.5-.8-1.7 0-2.4-1.9-1.7-4.3l.3-1.4.2-1.6.6-2.6 1.5-8c.4-2.4.4-2.3 1.7-2.2.5 0 1 .2 1.2.3l1 .2.7.3c0 .1.1.2.3.2.6 0 1.4 1.4 1.4 2.4 0 2.9 1.5 2.1 1.8-1 0-.8.2-1.8.3-2.2 0-.9-.4-1.2-2.4-1.6a1703.7 1703.7 0 0 0-9-1.7c-.5-.1-1.3-.3-2-.3l-1.2-.3-1-.2-1.4-.3c-1-.4-1.5-.4-1.9.4"/>
</svg>
