<svg xmlns="http://www.w3.org/2000/svg" width="701.3" height="288.8" display="block">
  <path fill="#11473f" fill-rule="evenodd" d="M502 49.9l-1 .5-1.7.3-2 .3c-.5 0-1 .2-1.3.3l-.9.3-1.6.3c-.5 0-1 .2-1.2.4a2.1 2.1 0 0 1-.7.3l-1.3.7-1.5.8c-.7.2-3.7 2.1-4.4 2.8-.2.3-.6.5-.8.5a.6.6 0 0 0-.5.3l-.8.8a15 15 0 0 0-1.5 1.2 16.3 16.3 0 0 1-1.5 1.3 18.5 18.5 0 0 0-5.7 7l-.6.9a79.7 79.7 0 0 0-4 8.7l-.3.9c-.1.1-.3.7-.3 1.1a30 30 0 0 1-.3 1.7 28.7 28.7 0 0 0-.3 1.9l-.2 1.3c-.2.3-.2 11.2 0 11.8l.4 2.2.6 2.2c.2.3.3.8.3 1.1 0 .3.2.8.4 1l.4 1 .3.6c.2 0 .4.4.5.8 0 .3.3.8.5 1l.3.6.5 1a60 60 0 0 1 3.2 4.8 39.8 39.8 0 0 0 6.3 6 16 16 0 0 0 1.6 1.4l1.4 1.2c.4.5 1 .8 1 .8l.7.4a61.5 61.5 0 0 0 9.4 6.2 10 10 0 0 0 2.2 1.2c.3 0 .8.3 1 .4l.6.3.7.5.7.4.4.3.7.4c.2 0 .7.4 1.2.7a43.3 43.3 0 0 0 5.7 3.6l.8.6 1.7 1a227.2 227.2 0 0 0 2 1.4 42 42 0 0 1 3.8 2.5l1.3.8a24.2 24.2 0 0 1 1.7 1 44.4 44.4 0 0 0 3.5 2.4 48.2 48.2 0 0 0 3 2.1l2.9 2.4 1.7 1.5a29.6 29.6 0 0 1 9 12.2l.4 2 .3 1.2.4 1.8a31.5 31.5 0 0 1-.4 11.3 27 27 0 0 1-2 6.1 2.3 2.3 0 0 0-.3.7l-1 1.3a32.5 32.5 0 0 0-1.1 1.6 11 11 0 0 1-2.6 2.6 39.4 39.4 0 0 1-5.5 4l-1.8.9-.7.2-1.5.4-1.4.3-.6.1c-.2.2-1.1.5-2.3.9-.9.2-12.2.1-13.9-.2a64.4 64.4 0 0 0-2.3-.3c-.8 0-1.4-.2-1.7-.5a1.8 1.8 0 0 0-1-.3c-.4 0-.8-.1-1-.3 0-.2-.4-.4-.8-.6l-1-.5-1.5-.7-1.3-.7-.7-.3c-.7-.1-2-.8-3.2-1.5l-1.3-.8-1.1-.7c-1.5-1.2-2-1.6-2.5-1.8a9.6 9.6 0 0 1-2.7-2.5l-2.4-2.6-3.2-3.5a202.6 202.6 0 0 0-2.7-3.6l-1.7-3a20.5 20.5 0 0 0-1.9-3.4 3.2 3.2 0 0 0-.4-.9 3.6 3.6 0 0 1-.4-.8 2.3 2.3 0 0 0-.3-.7l-.4-.8a3 3 0 0 0-.5-.8l-.4-1a20 20 0 0 0-.7-1.8l-.7-1.8c0-.4-.3-.9-.4-1.1l-.5-1.1c0-.4-.3-1-.6-1.4l-.4-.7h-2.4c-2.9 0-3 0-2.6 1.6l.1 1.5.2 1c.2.2.3 1 .4 1.8a56.7 56.7 0 0 0 1 7l.1 1.3c0 .4 0 .9.2.9l.2 1.5c.2 3 .3 3.7.5 4l.3 1.5c.3 3.1.4 3.7.5 3.8l.2 1 .1 1.6a71.9 71.9 0 0 1 1.2 8.4c.1 0 .3.8.3 1.5.3 3.1.4 3.7.6 4l.3 1.7c.2 2.6.4 3.7.7 4.3l.2.6h2.2c2.6 0 2.8 0 3-1.6.2-1 .8-2.5 1.3-2.9l.2-.4c0-1.3 4-2.8 6-2.3a41.9 41.9 0 0 0 4.2 1l1.5.4c.5 0 1 .2 1 .3l1 .4a8.4 8.4 0 0 1 1.6.6l1.3.4c.3 0 .7.1 1 .3l1.3.5c.4 0 1.3.4 2 .7 1.6.8 2.8 1.1 3.8 1.1l.9.2 1.4.2c.8 0 1.7.2 2 .4.5.2 1.4.4 2.3.4 2.9.3 3.4.4 3.8.6a100.4 100.4 0 0 0 18.1-.6c.4 0 .7 0 .7-.2l.6-.1.8-.2 1.6-.3c.7 0 1.4-.2 1.6-.4l1.2-.4c.5 0 1-.2 1.2-.3.1-.2.6-.3 1-.4.7 0 2.8-1.1 4-2l.9-.4.6-.3.9-.5a47.3 47.3 0 0 0 15.1-14.5l1.3-2.2c.3-.8.9-1.8 1.2-2.3.6-.8 1.1-2.2 1.6-3.7 0-.5.3-1 .4-1.1l.3-1a34.9 34.9 0 0 1 .7-3.6l.3-1.4a49 49 0 0 0-1.3-17.8l-.4-1.3-.5-1.4-.3-1c0-.4-.8-2-1.6-3.3a12 12 0 0 1-.8-1.5l-.5-.7c-.2-.1-.3-.3-.3-.4 0-.3-1-1.7-1.2-1.8l-.7-.9a10.5 10.5 0 0 0-1.2-1.3c-.4-.4-.7-.8-.7-1 0-.2-1.8-2-2.8-2.8a35 35 0 0 1-2.7-2.4 19 19 0 0 0-2.6-2.3 8.3 8.3 0 0 0-1-.8 48.1 48.1 0 0 1-1.6-1.2 52.4 52.4 0 0 0-1.6-1.1 35.8 35.8 0 0 1-1.5-1.2l-1-.7-.8-.4a24 24 0 0 0-4-2.8 2.2 2.2 0 0 1-.7-.4 7.5 7.5 0 0 0-1.8-1.2l-1-.5a198.2 198.2 0 0 1-5.8-3.7c-1.2-1-1.4-1-1.7-1.2l-.7-.4-.5-.4-1.2-.7-1.3-.8-.7-.4-.6-.4-2-1.2a3.4 3.4 0 0 0-.8-.4c-.3 0-.5-.2-.6-.3a2 2 0 0 0-.6-.5 20 20 0 0 1-1.4-.8c-.5-.4-1-.6-1.1-.6l-.7-.4a6.1 6.1 0 0 0-.9-.6l-1.7-1a2.3 2.3 0 0 0-.8-.4 25.3 25.3 0 0 1-4.6-3.1l-.8-.6-1.3-1a3 3 0 0 1-1-.5l-.3-.3-2.5-2.2a26 26 0 0 0-2.5-2.3c-.3 0-1.7-1.3-1.7-1.6a5 5 0 0 0-1-1.3 59.8 59.8 0 0 1-1.4-1.7c-.8-1-2.9-5.1-3.2-6.4a41.6 41.6 0 0 0-.4-1.7c-.4-1.3-.4-7.4 0-8.5l.5-2a7 7 0 0 1 .6-1.7l.3-1c0-1.8 4.1-7 6.8-8.4l.8-.6a46 46 0 0 1 8.2-3.6 29 29 0 0 1 12.3.2c2 .2 2.2.2 4 1 .3.2 1 .3 2 .5.5 0 1 .2 1 .3l1.4.5a12.3 12.3 0 0 1 2.2.9l.6.3c.2.2.5.3.7.3l.7.3.9.5a33 33 0 0 1 7.7 5.8 27 27 0 0 1 4.3 4.4 27.3 27.3 0 0 0 1.6 2l.8 1s.1.4.4.6l1 1.8a64.2 64.2 0 0 0 1.9 3.8 177.7 177.7 0 0 0 1.2 2.3l.5 1.2a58.7 58.7 0 0 0 1.6 4l.4 1.5.5 1.7.3 1 .3 1.4c0 .4.3 1 .5 1.3l.4.6h2.2c2.7 0 3.3-.2 3.3-.8l-.2-.6s-.2-.9-.2-1.9c0-1.2 0-1.9-.2-2.3-.1-.2-.3-1.2-.3-2-.3-4.3-.4-5.7-.6-6l-.2-1.5v-1.4c-.2-.1-.3-1.2-.4-2.3-.2-3.8-.3-5.1-.5-5.4-.2-.2-.3-2-.5-5.9 0-.9-.2-1.7-.3-1.8l-.1-1.6c0-.8-.1-1.8-.3-2.3l-.2-2-.1-1.2-.3-2.5a65 65 0 0 0-.6-6.4l-.3-1.3h-4.8l-.2.8a23.7 23.7 0 0 0-.3 1.5c-.1.7-.8 2.3-1.1 2.5a2 2 0 0 0-.4.7c-.2.3-.4.6-.7.7l-1.8 1.3c-.6.5-4.7.5-5.5 0a4.7 4.7 0 0 0-1.4-.5c-1.6-.3-1.9-.3-3.6-1.1l-1-.4c-.3 0-.7 0-1-.2-.5-.3-1.6-.6-2.8-.9-.3 0-.7-.2-1.9-.7a4.7 4.7 0 0 0-.7-.2 14 14 0 0 1-2.7-.8c-.2-.1-.9-.3-1.4-.3l-1.8-.5c-.4-.3-1-.4-1.6-.4-.6 0-1 0-1.3-.2-.2-.2-.8-.3-1.4-.4-1.1 0-1.8-.3-1.8-.6 0-.5-13-.4-13.4 0m-200.6 3.6v2h2.7a32 32 0 0 1 11.6 1.9c1.6.4 5 3.7 5.3 5 0 .3.2.6.3.8l.5 1.3a38.6 38.6 0 0 0 .6 2.2c0 .2 0 .6.2.8.8 1.5.8 3.7.9 43.5a939.7 939.7 0 0 0 .6 41.9 77.6 77.6 0 0 0 1.4 16.9l.6 2.9.3 1c.2 1.1.3 1.6.6 2.2l.2.8.3.9.4.7a30.9 30.9 0 0 0 3.5 6.5l.4.8a13 13 0 0 0 2 3c.1 0 .3.2.3.5s.2.6.4.7a26.5 26.5 0 0 0 8.1 8l1 .7.6.4c0 .3 2 1.5 3.4 2.2l1.5.8a43.3 43.3 0 0 0 6.4 3c.2.3 2.2.9 2.6.9l.9.2 1 .3 1.1.3c.5.3 1 .4 2.2.4 1 0 1.8 0 2 .2.5.3 1.5.5 3.4.6 1 0 2.2.3 2.8.5 1.2.4 22.7.6 23.4.1.7-.3 1.5-.5 3.5-.6 1.4 0 2-.2 2.4-.4a4 4 0 0 1 1.2-.4l4.2-1.1 1.8-.4c.4 0 1.1-.3 2-.7a11 11 0 0 1 2-.8l1.3-.5.7-.4c.2 0 .5-.1.7-.3l.8-.4c.3 0 .8-.4 1.3-.7.4-.3 1.4-.9 2.2-1.2a10.9 10.9 0 0 0 2.6-1.7 54 54 0 0 0 1.6-1.2l2-1.5a47 47 0 0 0 13.2-18.6c.2-.3.3-.8.3-1 0-.3.1-.7.3-1l.4-1.3.5-1.2c.2-.3.3-.7.3-1l.3-1.2.4-1.6c0-.3 0-1 .2-1.3l.6-4.8c.2-2.2.4-3.3.6-3.6.4-.7.5-6.5.6-43.2a587 587 0 0 1 .8-46.3 24 24 0 0 1 1.2-5.5c0-.3 1.3-2.4 2.4-3.7 2.2-2.6 5.2-4.1 8.7-4.4a16.3 16.3 0 0 1 6.2-.8c1.7-.1 2.6-.2 2.7-.4.2-.2.2-3 0-3.3-.1-.5-54-.4-54.2 0a7 7 0 0 0 0 3.3c.2.2.7.3 2.8.3 4.3.2 7 .4 7.5.6a32.2 32.2 0 0 0 3 1l.8.3 1.3.5 1 .7.6.4c.3 0 2.3 2 2.3 2.4l.3.4c.5.4 1.2 2.2 1.2 3.1 0 .5.1 1 .3 1.2a125.8 125.8 0 0 0 .6 3.7c.2 1.2.2 10.6.2 40.6 0 42.5-.1 49.5-.8 50.6l-.3 1.7-.3 2.6a166.6 166.6 0 0 0-.3 2.3c0 .7-.2 1.3-.3 1.4l-.3.7c-.2 1-.5 2-.7 2.3a7 7 0 0 0-.7 2.2l-.2.7-.2.7-1 2.2a12 12 0 0 1-1.7 2.8l-.5.8-.4.7-.4.4a28.5 28.5 0 0 1-4.7 4.6c-.6.7-1.3 1.2-1.4 1.2l-1 .8a13.8 13.8 0 0 1-4.2 2.8l-.9.4-.8.4c0 .2-.3.3-.4.3-.3 0-.7.2-2 1.1l-.9.4-.7.4c-.3.3-3.1 1.2-3.6 1.2l-.8.4c-.3.2-.8.4-1.6.5-.6 0-1.3.2-1.5.4l-1.4.2a95.2 95.2 0 0 1-22.4.7 61 61 0 0 0-1.7-.4l-1.5-.4c-.4-.2-1-.3-2.4-.5l-1.5-.5c-.2-.2-.8-.4-1.2-.4-.4 0-.8-.2-.9-.3-.1-.2-.8-.6-1.8-1a7.6 7.6 0 0 1-.8-.5 7 7 0 0 0-.9-.4 7.1 7.1 0 0 1-.8-.4 7.6 7.6 0 0 0-.7-.4l-1.2-1-.9-.6-1.5-1.3-2-1.7a17.3 17.3 0 0 1-3.5-4.3 22 22 0 0 1-2.4-4.8 2.7 2.7 0 0 0-.5-.9l-.3-.8-.4-1.4-.4-1.2-.4-1-.5-2a80.8 80.8 0 0 0-.5-1.6l-.2-1.7c-.1-2-.4-3.8-.5-4l-.3-2.4a120.6 120.6 0 0 0-1-10 3315.9 3315.9 0 0 1 .4-82l.1-1.3.5-2.3c.8-3.7 1.4-5 3.3-7 1.5-1.4 3.9-2.8 4.8-2.8.5 0 2.4-.7 2.7-1a38 38 0 0 1 7.4-.5c2.6 0 2.6 0 2.8-.5.3-.5.3-2.4 0-3l-.1-.4h-66v2m273-1.8c-.2.4-.6 7.4-.8 14.3 0 2-.2 3.7-.3 3.9l-.3 3.5-.5 11.8c-.2 2 0 2.2 2.1 2.2 2 0 2.2-.2 2.5-2.4a311 311 0 0 1 1.1-6.7l.4-1.2c.3-.4.4-1 .4-1.1l.4-.8a3.6 3.6 0 0 0 .4-.8c0-.3.2-.6.3-.7l.4-.7c.1-.5.5-1 1.6-2.2l.8-1c0-.2.4-.7.9-1.1.4-.5 1-1.1 1.1-1.4l1-1 1-.8.6-.4c.3 0 .6-.3.8-.5.1-.2.7-.6 1.2-.8l1.2-.7c.3-.3 1.4-.6 2.6-.7l4.3-1 5-.2c2.8 0 4.5 0 4.5-.2.3-.3 17.6-.2 18 .2a6891.5 6891.5 0 0 1 0 126.6l-.2 2a41.5 41.5 0 0 0-.3 1.4c-.2 1.2-2 4.5-3 5.6-.9 1-3.6 2.6-4.3 2.6l-1 .4c-1.5.7-2.2.8-7.3.8-3 0-4.8.2-5 .3-.2.2-.2 3.1 0 3.7l.3.4h64l.4-.4c.4-.4.5-3.4.1-3.7 0 0-2.3-.2-4.8-.2-2.6 0-5-.2-5.4-.3a31.9 31.9 0 0 0-1.7-.4c-.6-.1-1.3-.3-1.5-.5a3.8 3.8 0 0 0-.9-.4 3 3 0 0 1-.8-.4l-.5-.3c-.6 0-3.3-2.4-3.3-2.9l-.4-.6-.4-1c0-.3-.2-.8-.4-1a10 10 0 0 1-.7-3 1.8 1.8 0 0 0-.2-.8c-.5-1-.9-127.3-.3-128 .3-.3 19.2-.3 23.6 0a54 54 0 0 1 9.1 1.4l.8.4.5.3.7.3.7.3 1 .6c.3 0 .7.3.8.4l.6.3a29 29 0 0 1 7.5 7.4c0 .3.5.9.8 1.4l.9 1.8.4 1 .3 1a55.8 55.8 0 0 0 1 4.7c.2.7.5 2.3.5 3.1 0 1.6.4 1.9 3 1.9h1.7v-2c0-1.3 0-2-.2-2s-.2-.7 0-.8c.2 0 .2 0 0 0 0 0-.2-.3-.2-.7 0-.4.1-.7.3-.8.1 0 .1 0 0 0-.2 0-.3-.3-.3-.7 0-.4.1-.7.3-.8.1 0 .1 0 0-.2-.2 0-.3-.4-.3-.7 0-.4.1-.7.3-.7 0 0 .1 0 0 0-.5-.5-.7-1.5-.8-5.1a506.8 506.8 0 0 0-.3-6.9 617.7 617.7 0 0 1-.3-6.8 29.2 29.2 0 0 0-.5-5.9c0-1 0-1.3-.3-1.5-.4-.4-124.4-.4-124.7 0m116.1 138.6a2 2 0 0 1-.8.1 2 2 0 0 0-1 .3 3 3 0 0 1-.8.5 8.8 8.8 0 0 0-2.5 2.5l-.5 1c0 .4-.2.8-.3 1-.2.2-.5 1.3-.6 2.2a9.4 9.4 0 0 0 1 4l.4.4.4.6c.2.8 1.8 2.1 3.2 2.5l1.1.4c.9.3 3 .4 3.5 0l1.1-.4c2-.7 3.2-1.7 4.2-3.7l.9-1.8v-2c0-1.7 0-2-.4-2.4l-.4-.7c0-1.2-3.7-4.4-5-4.4l-.5-.1c-.2-.2-2.6-.2-3 0m3.6 1.4l1 .4c.5 0 2.6 2.2 3 3.1l.5 1c.5 1 0 4-1 5.5-.4.8-2 2.2-2.3 2.2l-.6.3c-1 .6-3.3.9-4.1.5a6.3 6.3 0 0 0-1.2-.3c-.8-.2-2.7-1.4-2.9-1.9 0-.2-.2-.4-.3-.5-.2 0-.4-.4-.5-.8 0-.3-.3-.6-.4-.7-.4-.1-.3-4.6 0-5 .2 0 .4-.4.5-.6.3-.9 2.6-3 3.2-3 .3 0 .7-.1 1-.3.9-.5 3.2-.4 4.1.1m-5.3 2c-.5.4-.4 8.2 0 8.3 1 .3 1.2 0 1.2-1.4 0-1.5.4-2.1 1.2-1.7l1.3.2c.9 0 1 .1 1 .9l.3.7.2.8c0 .3.2.4.4.5 1 .4 1.2-2 .1-3l-.5-.4.6-.4c.3-.2.4-.4.4-.6l.3-.9c.5-1 0-2.2-1.1-2.7-.9-.3-4.9-.5-5.4-.2m3.5.9c2.5.8 2 3.2-.7 3.2-1.2 0-1.6-.4-1.6-1.9 0-1.7.5-1.9 2.3-1.3m-389.9 29.4c-.1 0-.2.5-.2 1.5l.1 1.4h397.6c.5-.4.5-2.7-.1-2.9-.5-.2-397-.2-397.4 0m378 14.7c-1.3 2.6-1.6 3.6-1.4 3.7.4.2 3.7-3 3.7-3.6 0-.7-2-.7-2.3 0m-172.2 3.9a4.9 4.9 0 0 0-.7.3c-.2.2-.6.3-1 .4-.5.1-.8.3-2 1.8-.5.7-.6 3.7-.1 4.2l.4.9c.4 1.1 1.2 1.7 3.2 2.8a11.5 11.5 0 0 1 2.4 1.5l1.4 1c2.2 1.7 2.3 4.9.1 5.8-.9.4-4 .4-4.7 0a10 10 0 0 1-2.3-2.4l-.3-.7a3.6 3.6 0 0 1-.5-.9c-.3-.8-.6-.6-.6.3l.4 3.4.1 1c0 .7 0 .7.5.7.2 0 .4 0 .4-.2 0-.5.4-.6 1.6-.5.9 0 1 .2 1 .4 0 .3.2.3 2.8.3 2.1 0 2.7 0 2.7-.2l.8-.4c.6-.2.8-.5 1.5-1.6l1-1.3V258c0-1.4-.3-2.4-.8-2.8a2 2 0 0 1-.5-.8c0-.3-.2-.5-.3-.5l-.7-.5a28.5 28.5 0 0 0-4.4-2.8c-2.6-1-3.9-4-2.3-5.5l.7-.7h1.3c2.1 0 4.6 1.6 5 3.1.2.9 1 1.7 1.4 1.3.2-.2.2-.3 0-1 0-.4-.3-1.3-.3-2-.3-3-.6-3.5-1.1-2.7-.4.5-2.7.6-4 .2-1.2-.4-1.8-.6-2-.4m75.4 0l-.7.4-.8.4-.7.3a8 8 0 0 1-.8.5c-1.3.5-1.8.9-2.2 1.4l-.6.8c-.5.4-1.2 2-1.3 3l-.2 1c-.4.6-.5 3-.2 4.3a67.7 67.7 0 0 1 .3 1.7l.5 1.3.4.6c0 .4 1.7 2.3 2.6 3 .8.5 2.4 1.1 2.9 1.1.2 0 .3 0 .3.2l2.3.1 2.4-.1c0-.3.6-.2.7 0 0 .1 0 .1.1 0 0-.2.3-.4.7-.6a9.6 9.6 0 0 0 3.6-3.1c0-.2.2-.6.4-.7 1.3-1.5 1.9-7.3.9-9l-.4-1c-.1-.5-.5-1.2-.8-1.6a16.3 16.3 0 0 1-1-1.2c-.1-.3-.3-.5-.5-.5l-.6-.4c-2.2-1.7-5.9-2.6-7.3-1.9m45.8 0a11 11 0 0 0-3.1 1.3l-.9.4c-.7.3-2.6 2.3-2.8 3l-.4 1-.3 1-.4 1c-.3.6-.3 4.9 0 5.3.2.2.3.6.3 1 0 1.8 3 5 5.4 5.6l1.2.4c.1.2 4.7.2 4.7 0 0-.1.1-.2.3-.2 1.1 0 4.3-2.5 4.7-3.7l.4-.5c.3 0 .8-1.5 1.1-3.3 0-.5.2-1.2.4-1.7v-1.2c-.1-.2-.3-.9-.3-1.5 0-.5-.2-1.2-.4-1.3l-.3-1c-.2-1.2-1.6-3.1-2.4-3.4a2.3 2.3 0 0 1-.7-.4l-1.7-1-.8-.3a12.8 12.8 0 0 1-.8-.5 7 7 0 0 0-3.2 0m-214.4.3a2 2 0 0 1-.8.3c-.4 0-2 1.6-2.4 2.4-.4 1-.1 3.8.6 4.6l.4 1 .5.5.7.4 1.6 1c.6.2 1.2.6 1.2.7l.7.4.6.3.8.8c2.2 1.5 2.8 4 1.3 5.5-1.3 1-4.9 1.1-6 0l-1-.9c-.3-.2-.8-1-1-1.6-.5-.9-.7-1-1-1-.5 0-.5.2-.2.7.2.2.3.7.3 1.8l.1 1.7c.1 0 .2.3.2.7 0 .6.7.8.9.2 0-.4.9-.6 1.6-.4.3 0 .6.2.6.4.1.4 6.2.5 6.2 0l.6-.4c.7-.4 1-.8 1.4-1.5 0-.3.3-.6.5-.8.3-.3.3-4 0-4.3-.2 0-.5-.6-.8-1-.3-.6-.8-1.1-1.3-1.4l-.9-.8-.6-.4a3.3 3.3 0 0 1-.8-.4 9.6 9.6 0 0 0-2-1.2c-.3 0-1.6-1-2-1.6-1.7-2.3-.7-4.5 2-4.5l1.4.1 1 .5c.9.3 2.2 1.8 2.8 3.4.4.8 1.2.5 1-.4l-.2-2c-.2-2.4-.3-2.5-2.2-2.5a12 12 0 0 1-3.9-.5c-.5-.2-1.3-.1-1.9.2m46.6.6l-.5 1.2-.4 1a3 3 0 0 0-.4.8l-1 2.5-.5 1c0 .5-.3 1-.4 1l-.3.6-.4 1.2-.5 1.3c0 .3-.3.7-.4 1a2.7 2.7 0 0 0-.4.8 4.6 4.6 0 0 1-.4 1l-1 2.5-.6 1-.5.7-.5.3c-.4.1-.5.2-.4.8v.4l.8-.2c.4 0 .7 0 .7.2s0 .2.1 0c0-.1.3-.2.7-.2.3 0 .7 0 .7.2s0 .2.1 0l.3-.2c.3 0 .4-.1.4-.3 0-.6.5-.4.7.2v-.1c.1-.6 0-.6-.3-.6-.6 0-1.1-.7-1-1.3.2-1 .4-2 .7-2.3l.3-1c.2-1.2.5-1.3 4.3-1.2h3.3l.8 1.4 1 2.5.4 1-.4.5-.8.4c-.3 0-.4 0-.4.3 0 .4 0 .4.2.1.3-.4.7-.3.7 0s0 .4.3.4c.2 0 .4 0 .4.2s0 .2.1 0c0-.1.3-.2.7-.2.3 0 .7 0 .7.2s0 .2.1 0c0-.1.3-.2.7-.2.3 0 .7 0 .7.2s0 .2.1 0c0-.1.3-.2.8-.2.4 0 .7 0 .7.2l.2-.3c.1-.8 1-.8 1.3 0l.1.5.1-.5c.1-.6.6-.8.6-.3l.2.2.4.3c.3.2.4.3.4.1 0-.3 1.3-.3 1.4 0 .1.2.1.2.1 0 0-.1.3-.2.7-.2.4 0 .7 0 .7.2.1.2.1.2.1 0 0-.1.3-.2.7-.2.4 0 .7 0 .7.2.1.2.2.2.2 0l.8-.2c.3 0 .7 0 .7.2s0 .2.1 0c0-.1.3-.2.7-.2.3 0 .7 0 .7.2s0 .2.1 0l.4-.2c.2 0 .5-.1.7-.3l1.3-.2c.7 0 1 0 1.2-.3.1-.2.5-.4.7-.4.2 0 .7-.4 1-.6l1.4-1c.4-.2.7-.5.7-.8 0-.3.2-.6.4-.7l.3-.7c0-.3.2-.7.4-.9.7-1 1.3-5.7.7-6l-.3-.6c-.2-1.4-1.8-4.1-2.4-4.3-.3-.1-.6-.3-.6-.5-.1-.3-1.3-.8-2.5-1.1l-1.7-.5a19 19 0 0 0-6.4-.6h-4v.4c0 .3.2.5.6.7l.6.4v8.3c0 9.6.2 8.7-1.9 8.8-1.8.1-2.5 0-2.8-.9a8 8 0 0 0-.4-.9 7.9 7.9 0 0 1-.4-.7l-.4-.8c-.4-.6-.9-1.9-1-2.3a5 5 0 0 0-.4-1 4 4 0 0 1-.4-1c0-.3-.3-.7-.4-1-.2-.1-.4-.6-.5-1 0-.3-.2-.7-.3-.8l-.3-.7a70.6 70.6 0 0 0-2.8-6.7 3 3 0 0 1-.4-.8c-.2-.6-.5-.4-1 .6m230-.6a5 5 0 0 1-1.3.4c-.3 0-.6.2-.6.3l-.4.6-.7 1.4a67.1 67.1 0 0 1-.5 1.5c-.3.8-.2 2 .2 2.3l.4.8c.2.8.6 1.2 1.3 1.5.6.3 1.3.7 2 1.3l.6.4 1.2.8 2.3 1.7c1.7 1 1.6 4.6-.2 5.4-1 .4-4.2.4-4.9 0a8.8 8.8 0 0 1-2.5-3c0-.5-.8-1.6-1-1.6-.2 0-.2.1-.2.7.1 2.3.3 3.4.4 3.6l.1 1c0 .8.6 1.1 1 .4.2-.7 2.5-.7 2.5 0v.3h2.8c2.2 0 2.7 0 2.8-.2l.8-.4c.9-.3 2-1.7 2.2-2.8a6.7 6.7 0 0 1 .3-1.1c.2-.6 0-1.5-.4-2.4a3 3 0 0 1-.3-1c0-.5-1.2-1.5-5.8-4.5-2.3-1.5-2.5-1.6-2.9-2.6l-.5-1 .4-.9c.7-1.8 2.2-2.2 5-1.3 1.5.5 1.7.8 2.6 2.8.6 1.3.8 1.6 1.1 1.3.3-.3.3-1 0-1.5a4 4 0 0 1-.2-1.6c0-1.5-.5-2.7-1-2.4-.6.3-4.4 0-4.6-.4-.2-.2-1.5-.1-2 .2m-388.4.4c0 .4.1.5.5.7 1 .3.9.2 1 7 .1 7.8.1 7.9 1.6 9.6l1.3 1.3c.5 0 1.4.4 1.4.6 0 .2.5.2 3.3.2 3 0 3.4 0 3.4-.2s.2-.4.4-.4l.8-.5.7-.4c1.4-.5 1.8-2.1 2-9.1 0-6.5.2-7.4 1-8 1-1 .7-1.2-1.7-1.2h-2.2l.1.4c0 .4.3.5.7.7.9.4.8.1.8 7.4v6.3l-.5 1c-1 1.7-1.8 2.4-3 2.6-2.5.3-2.8.3-3.5.1a34.8 34.8 0 0 0-1.1-.2c-.7-.2-2-1.2-2-1.7-.2-.3-.3-1-.4-1.7a23.9 23.9 0 0 0-.3-1.9l-.1-5.7c0-5.5 0-5.7 1-6.2.4-.2.6-.5.6-.7v-.4h-5.8v.4m20.1 0c0 .4.4.6 1.4.8.2 0 .6.5.9.8l.5.8v7.5c0 8.7.2 8.1-1.3 8.3-.6.1-.6.1-.3.3.2 0 .3.2.4.6v.2l.8-.2c.3 0 .7 0 .7.2s.1.2.2 0l.8-.2c.4 0 .6 0 .6.2l.2-.3c.2-.8 1.2-.8 1.3 0 .1.5.1.5.2-.1v-.6h-.8l-1-.2c-.5-.9-.8-13.2-.3-13.2.3 0 1.9 1.7 2.6 2.7a74.9 74.9 0 0 0 5.3 6.4l.9 1.2c2 2.1 3 3.2 3 3.7.1.4.2.5.6.5h.5v-8c.1-9.4.2-10.3 1.1-10.8.4-.2.6-.3.6-.6 0-.4 0-.4-2.2-.4h-2.2v.4c.1.4.3.5.6.7 1 .3 1 0 .9 6.7 0 6.5-.1 7.1-.7 5.8l-.9-1.2c-.4-.3-.7-.7-.7-.8l-.7-.9-1.1-1.3a8.7 8.7 0 0 0-.9-1 9 9 0 0 1-.9-1.2c-.2-.4-.5-.7-.6-.7l-.5-.7a37 37 0 0 0-3-3.5l-.9-1.3c-.3-1-5-1.6-5-.6m22.6 0c0 .3.2.5.5.7.3.1.5.3.6.5v16.5c-.2.3-1 .6-1.5.6-.4 0-.4 0-.4.6s0 .6.1.1.7-.8.7-.3l.3.4.4.2c.1.2.1.1.1 0s.3-.2.7-.2c.4 0 .7 0 .7.2.1.2.2.2.2 0l.8-.2c.4 0 .6 0 .6.2 0 .1 0 .2.2 0l.4-.2.3-.4c0-.5.6-.2.7.3v.2l.4-.6.4-.3h-.8c-1.4 0-1.6-.9-1.6-9.5 0-7.5 0-7.7 1.2-8.2.4-.1.5-.3.5-.6v-.4h-5.5v.4m8.5 0c0 .2.2.5.4.6.6.3 1.6 1.7 1.6 2.1l.7 1.8.9 2c0 .3.2.7.3.8.2 0 .3.4.5.8 0 .3.3.7.4.9l.4 1c0 .4.3.8.4 1l.4.9 1.2 2.6a14 14 0 0 1 1 2.5l.5.9c.2.2.3.7.4 1 .1.5.7.8.7.3l.4-.5c.2-.2.3-.5.3-.7l.4-1.1c.2-.4.5-1 .5-1.3 0-.3.2-.7.4-.8l.4-1c0-.4.2-.8.4-1l.3-.7.4-.8.4-1c0-.5.4-1.3.7-2l.9-2c.8-2.6 2.5-5.4 3.2-5.6.6-.2.7-.3.5-.8-.2-.3-.3-.3-2.5-.3h-2.3v.4c0 .4.1.5.5.7 1.1.4 1 1.6-.2 4.4l-.7 1.7a2.9 2.9 0 0 1-.5 1c-.1.2-.3.5-.3.8l-.4 1-.4 1-.4 1-.5 1.2a7 7 0 0 1-1 1.9c-.2.1-.8-1-1.1-1.8a7 7 0 0 0-.5-1.2 3.9 3.9 0 0 1-.4-1 3 3 0 0 0-.4-1 3 3 0 0 1-.5-1.1c0-.4-.2-.7-.3-.8l-.3-.4c0-.1-.2-.9-.6-1.6l-.7-2c-.6-2.6-.6-2.8.3-3.1.4-.2.5-.4.5-.7v-.4h-6.3v.4m21.5 0c0 .4.2.5.6.7 1 .3 1-.2 1 8.7 0 9.3 0 8.6-1.3 8.9l-.4.1c.2 0 .3.2.4.6l.2.3c0-.1.3-.2.7-.2.3 0 .7 0 .7.2s0 .2.1 0c0-.1.3-.2.7-.2.5 0 .8 0 .9.2 0 .2 0 .2 0 0 0-.1.3-.2.7-.2.4 0 .7 0 .8.2 0 .2 0 .2 0 0 0-.1.3-.2.7-.2.4 0 .7 0 .8.2 0 .2 0 .2 0 0 0-.1.3-.2.8-.2.4 0 .8 0 .8.2.1.2.1.2.1 0 0-.1.3-.2.7-.2.4 0 .7 0 .7.2.1.2.1.2.1 0 0-.1.3-.2.7-.2.4 0 .7 0 .7.2.1.2.2.2.2 0l.8-.2c1.5 0 1.7-.2 2.4-3 .2-.6 0-1-.3-.6-.2.5-1.6 1.6-1.8 1.6l-.7.4c-.5.5-6 .7-7 .3l-.5-.2v-4c0-4.8-.3-4.4 3.1-4.3 2.6 0 3.4.3 3.8 1.5.2.6.8.7.9 0 .3-1 0-3.8-.4-3.8-.3 0-.4 0-.7.5l-.4.6H384c-3.8 0-3.5.3-3.5-3.8 0-3.9-.3-3.5 3.8-3.5h3.4l.5.5c.3.3.7.8.9 1.3.8 2.3 1.4 1.2.9-1.4-.4-1.7.3-1.6-7.2-1.6H376v.4m16.8 0c0 .3.2.5.7.7.8.4.8.3.8 8.6 0 9 0 9-1.9 9-.3 0-.4 0-.4.6s0 .6.2.1c0-.5.6-.8.6-.3l.3.4.4.2c.1.2.2.1.2 0s.2-.2.6-.2c.4 0 .7 0 .8.2 0 .2 0 .2 0 0 0-.1.3-.2.8-.2.4 0 .8 0 .8.2.1.2.1.2.1 0 0-.1.3-.2.7-.2.4 0 .7 0 .7.2l.2-.3c0-.3.2-.6.4-.6s.2-.1-.1-.1c-.8 0-1.5-.6-1.6-1.3-.2-1.2-.1-6.5.1-6.7.4-.4 2.1-.1 2.1.4l1.3 1.7a10 10 0 0 1 1.2 1.8l.3.4.9 1 .7.9c.2 0 .3.3.4.5 0 .5 1.4 2 1.7 2 .1 0 .2 0 .2.2s0 .2.1.1l.7-.2c.3 0 .7 0 .8.2 0 .2 0 .2 0 0s1.4-.3 1.4 0l.2.1.1-.4c0-.3.2-.5.4-.6.4-.1.4-.1 0-.1s-.8-.3-1.3-.6l-1-.7c-.2-.2-.9-1-2.3-3l-1.7-2a4.8 4.8 0 0 1-1.2-2.3l.9-.3c2.7-.6 4.4-4.8 2.8-6.9-2-2.6-2.4-2.7-8.8-2.8l-4.3-.1v.4m32.7 0c0 .3.1.4.6.5 1 .3 1 .3 1 9v7.8l-.4.5c-.3.4-.6.5-1.2.5h-.8v1.2l.2-.5c.2-.8 1.1-.8 1.3 0l.1.3c0-.1.3-.2.8-.2.4 0 .8 0 .8.2s0 .2.1 0c0-.1.3-.2.7-.2.3 0 .7 0 .7.2s0 .2.1 0c0-.2 1.3-.3 1.3 0l.2.1.2-.4c0-.3.1-.5.4-.6.3-.1.3-.1-.2-.1-1.5 0-1.6-.7-1.6-9.3 0-8.2 0-7.8 1.3-8.4.5-.2.7-.4.7-.7 0-.3-.1-.3-3.2-.3h-3v.4m10 0c0 .3.2.5.6.7.3.1.5.4.6.7l.2.9a187 187 0 0 1-.2 15.2c-.1.4-.8.8-1.6.8-.4 0-.4 0 0 .1.2.1.3.3.3.6 0 .2 0 .4.2.4a.2.2 0 0 0 .1-.1c0-.3 1.3-.2 1.4 0 .1.2.1.2.1 0 0-.1.3-.2.7-.2.4 0 .7 0 .7.2.1.2.1.2.1 0 0-.1.3-.2.7-.2.4 0 .7 0 .7.2.1.2.2.2.2 0l.8-.2c.3 0 .7 0 .7.2s0 .2.1 0c0-.1.3-.2.7-.2.3 0 .7 0 .7.2s0 .2.1 0c0-.1.3-.2.7-.2.4 0 1-.1 1.1-.3l1.4-.2c.6 0 1 0 1.1-.2.1-.2.6-.5 1.1-.7a10 10 0 0 0 1.5-1l.8-.4.5-.6.9-1.4.6-1.2a1.5 1.5 0 0 1 .2-.8c.4-.4.4-4.8 0-5.3a1.4 1.4 0 0 1-.2-.7c0-1.5-2.1-4.5-3.4-4.9-.4 0-.8-.3-1-.4-.2-.1-.6-.3-1-.3a23.6 23.6 0 0 1-1.5-.4c-1.9-.6-3-.7-6.8-.7h-3.8v.4m90.7.6c-.3.6-.6 1.3-.6 1.6a2.9 2.9 0 0 1-.5.9l-.3.8c0 .3-.2.7-.4 1.1l-.4 1-.4 1a3 3 0 0 0-.5.9l-1 2.4-.4 1.1c-.1.5-.3 1-.5 1l-.2.6c0 .2-.2.8-.5 1.3l-.5 1.3c0 .7-1.7 2.7-2.3 2.7-.5 0-.5 0-.1.1.3.1.4.3.4.6l.1.4a.2.2 0 0 0 .2-.1c0-.3 1.3-.2 1.4 0 0 .2 0 .2.1 0 0-.1.3-.2.7-.2.4 0 .6 0 .7.2l.1-.3c.1-.3.3-.6.5-.6l-.2-.1c-.8 0-1-1.1-.5-2.1l.5-1.4.6-1.6.4-.8h3.4c3.6 0 4 .1 4.2 1.1 0 .3.3.7.5.9l.3.7.4 1.3c.5 1 .4 1.4-.3 1.7-.8.3-.7 1 .3 1 .4 0 .8 0 .8.2s0 .2.1 0c0-.1.3-.2.7-.2.3 0 .7 0 .7.2s0 .2.1 0c0-.1.3-.2.7-.2.4 0 .6 0 .6.2 0 .1 0 .2.2 0l.4-.2.3-.4c0-.5.5-.3.7.3l.2.5.1-.5c0-.8 1-.8 1.3 0 0 .3.2.4.2.3 0-.1.2-.2.6-.2.4 0 .7 0 .8.2 0 .2.1.2.2 0l.7-.2c.4 0 .7 0 .7.2 0 .1 0 .2.1 0l.4-.2c.2-.1.3-.3.3-.4 0-.5.6-.2.7.3.1.5.1.5.1-.1s0-.6-.4-.6c-.7 0-1.4-.5-1.5-1-.2-1.5 0-12.6.3-12.7.2 0 .3.1.4.3 0 .2.4.6.8 1l1 1.2c.1.3.7 1 1.2 1.5l1 1c0 .2.3.7.8 1.2l1.4 1.6.6.8.5.6c.2.3.7 1 1.2 1.4.5.5 1 1 1 1.2l1 1.2c.5.5 1 1.2 1 1.4 0 .3.2.4.5.4h.4v-8.6c0-9.7 0-9.5 1-10.1 1.5-.8 1-1.1-1.5-1.1H552v.4c0 .3.2.5.6.7 1 .4 1 .4 1 6.7 0 6.9-.1 7-2.4 3.8a16.3 16.3 0 0 0-1.1-1.4 5 5 0 0 1-.7-.8l-.9-1a4 4 0 0 1-.8-1.1 3 3 0 0 0-.7-1c-.5-.4-.8-.8-.8-.9 0 0-.4-.6-1-1.1l-1.2-1.6-.7-.9-.8-1c-.5-.7-.8-.8-3.4-.8-1.9 0-1.9 0-1.9.4s.6.8 1.3.8c.5 0 1.2.6 1.6 1.4.2.5.3 1.5.3 8v7.4l-.7.3c-1.6.8-4.3.3-4.3-.7L534 258a17.2 17.2 0 0 1-1.5-3.5l-.4-.8a14.7 14.7 0 0 0-.5-1.3l-.5-1a6.7 6.7 0 0 0-.3-.7l-.9-1.9c0-.1-.1-.6-.4-1a8 8 0 0 1-.5-1.1 12 12 0 0 0-1.6-3.2l-.4-.3-.5 1m32.9-.8c-.3.2-.4.6-.5 1.4l-.2 1.8c-.2 1.3.5 1.5.7.2.2-1.3 2.1-2.4 4.5-2.4 1.5 0 1.4-.8 1.4 8.4v8.2l-.5.4c-.3.4-.6.5-1.2.5h-.7l.4.3.3.6c0 .2.1 0 .2-.2 0-.5.6-.8.6-.3l.3.4.4.2c.1.2.2.1.2 0s.2-.2.6-.2c.4 0 .7 0 .8.2 0 .2.1.2.2 0l.7-.2c.4 0 .7 0 .7.2 0 .1 0 .2.1 0l.4-.2c.2-.1.3-.3.3-.4 0-.5.6-.2.7.3.1.5.1.5.1-.1s0-.6-.4-.6c-1.4 0-1.4-.5-1.5-9.7v-7.8h1c2.5-.2 5 1 5 2.3 0 .2 0 .5.3.7l.3.5.2-.4c.3-.6-.1-3.7-.6-4-.5-.4-14.4-.4-14.8 0m45.2 0c-.2.2-.3.6-.3 1.1 0 .5-.1 1-.3 1.2-.3.4-.3 1.2 0 1.7l.3.4.1-.4.2-.8c0-.7 1.4-1.9 2.6-2 1.6-.3 2.5-.4 2.9-.2l.3.2v16.4l-.3.4c-.3.3-.6.4-1.3.4-.6 0-.7 0-.4.1.3.1.4.3.4.7 0 .4 0 .4.2-.1.1-.6.6-.8.6-.3l.3.4.4.2c.1.2.2.2.3 0 0-.1.3-.2.7-.2s.7 0 .7.2 0 .2.1 0c0-.1.3-.2.7-.2.4 0 .6 0 .6.2 0 .1 0 .2.2 0l.4-.2.3-.4c0-.5.6-.2.7.3v-.1c.1-.6 0-.6-.4-.6-.6 0-1-.5-1-1.1l-.2-.8c-.4-.5-.4-15.1 0-15.4.4-.5 3.8 0 4.7.6.3.2.7.8 1 1.4.7 1.4 1 1.4 1-.2-.1-1.5-.3-2.5-.6-3-.4-.4-14.5-.4-15 .1m37.1 0c0 .4 0 .4.2.2l.3-.4c.2 0 .2-.1-.1-.1-.3 0-.4.1-.4.4m.8 0c0 .2.3.6.6.9l.5.6v7.8c.1 9.4.2 9-1.5 9-.3 0-.4 0-.4.6s0 .6.2.1c0-.5.6-.8.6-.3l.3.4.4.2c.1.2.2.1.2 0s.2-.2.6-.2c.4 0 .7 0 .8.2 0 .2 0 .2 0 0l.4-.2c.2 0 .3-.1.3-.3 0-.6.5-.4.8.2l.2.5v-.4c0-.4.2-.6.4-.7.3 0 .2-.1-.5-.1-1.3 0-1.4-.3-1.5-8v-5.7h.4c.4 0 .5.2.7.7l.5 1 .2.6 1.2 2.6a25.5 25.5 0 0 1 1.6 3.6l.5 1 .5 1.3.2.6.3.6.5 1c.1.3.4.8.7 1l.4.5.5-.5c.4-.4 1.8-3.1 2.2-4.3l.6-1.3.3-.8.3-.5.4-1c0-.3.3-.8.5-1l.3-.8.3-.7.5-.9c.2-1.1 1.1-2.7 1.5-2.7h.4v5.6c0 7.6-.1 8-2 8-.4 0-.4 0 0 .2.2.1.3.3.3.6 0 .2 0 .4.2.4a.2.2 0 0 0 .1-.1c0-.3 1.3-.2 1.4 0 .1.2.1.2.1 0 0-.1.3-.2.7-.2.4 0 .7 0 .7.2.1.2.1.2.1 0 0-.3 1.5-.3 1.5 0l.3-.1.4-.3c.1 0 .2 0 .2-.2 0-.5.5-.3.6.3l.1.5.2-.5c.1-.8 1.1-.8 1.3 0v.3l.8-.2c.5 0 .8 0 .9.2 0 .2 0 .2 0 0 0-.1.3-.2.7-.2.5 0 .7 0 .7.2 0 .1 0 .2.1 0l.5-.2.2-.4c0-.5.6-.2.7.3.1.5.1.5.2-.1 0-.5 0-.6-.4-.6-1 0-1.6-.8-1.1-1.7l.3-1 .3-.7c.2-.3.4-.8.4-1.2.3-1.2.6-1.3 4.4-1.2h3.3l.7 1.4 1 2.5.4 1.1-.4.4-.7.4c-.3 0-.4 0-.4.2 0 .3 0 .3.2.1.3-.2.5-.2.5 0s.1.4.3.5l.4.2c0 .2.2.2.2 0l.7-.2c.4 0 .7 0 .8.2 0 .2 0 .2 0 0 0-.1.3-.2.7-.2.4 0 .7 0 .8.2 0 .2 0 .2 0 0l.4-.2c.2 0 .3-.1.3-.3 0-.6.6-.4.7.2.1.5.1.5.2-.1 0-.5 0-.6-.5-.7-.5 0-.6-.2-1.2-1.7l-.5-1a7.4 7.4 0 0 1-.4-.9 7.6 7.6 0 0 0-.4-.8l-1.3-2.8c-.1-.5-.4-1-.5-1l-.2-.7-.9-2c-.4-.8-.8-1.7-.8-2l-.2-.5c-.2-.1-.4-.6-.6-1-.1-.6-.3-1.1-.5-1.3l-.2-.6-.3-.7-.5-1-.4-.6c-.2 0-1.1 1.2-1.1 1.5l-.4 1.2c-.6 1.1-1.9 4.3-2 4.8a2.2 2.2 0 0 1-.4.7l-.3.8c0 .3-.3.9-.5 1.3l-.4 1-.3.8a5 5 0 0 0-.5.9l-1 2.3-.5 1.4-.5.9a2 2 0 0 0-.4.6c0 .5-3 .7-3.8.2-.7-.3-.7-.1-.7-9v-8l.6-.4c1.3-.6.8-1-1-1-2 0-2.5.2-2.8 1.1 0 .4-.3.8-.4.9a2.2 2.2 0 0 0-.3.7c0 .2-.2.5-.4.6a5 5 0 0 0-.5 1.2 16.7 16.7 0 0 1-1.6 3.5 7.4 7.4 0 0 1-.4.8l-.9 2a27 27 0 0 1-1.9 3.7c-.2.2-.3.2-.5 0l-1.7-3.6-1-2.2a6.1 6.1 0 0 1-.4-.7 15 15 0 0 0-.3-.8 13 13 0 0 1-1.2-2.4c0-.2-1.1-2.6-1.4-3l-.4-.8c-.2-.8-.7-1-2.6-1-1.5 0-1.6 0-1.6.4m-55.9.5l.9.3c.9 0 3 2.1 3.2 3.2l.4 1.8a24 24 0 0 1-.2 8.7c-1.1 2.8-2.5 3.8-5.2 3.8-3 0-3.8-.5-5.3-3.4-1.2-2.2-1.4-8.4-.4-10.1l.8-1.5c.8-1.5 1.8-2.5 2.8-2.6.4 0 .8-.2 1-.3.3-.2 1.5-.2 2 .1m45.6 0c1.8.7 3.5 2.3 3.7 3.4a46.4 46.4 0 0 0 .6 2.8l.2 1.2c0 .4 0 .7.2.8.2.2.2.3-.2 3.5-.5 4.7-4 7.1-8.3 5.8-1-.4-2.3-1.6-2.7-3 0-.3-.3-.6-.4-.7-.1-.2-.3-.5-.3-.8a3.1 3.1 0 0 0-.2-1.1c-.6-1.3-.2-6.6.6-7.8l.4-.8c.1-.5 1-1.8 1.5-2.3.8-1 3.5-1.4 5-1m-186.8.7c4.6 1.6 6.6 7.9 4.2 12.8a13.6 13.6 0 0 1-3.5 3.5c-.5.5-5.4.7-5.8.2-.1-.2-.2-2.2-.2-8.3v-8l.7-.3c1-.5 3-.4 4.6.1m38.1 0c3 1 5.1 4.2 5.1 8.1a9.4 9.4 0 0 1-.7 4c0 .8-.7 1.7-3.5 4.3-.4.3-5.2.5-6 .2l-.5-.2v-8l.1-8 .8-.5c1-.5 3-.5 4.7 0m-82.3.3l.8.5.7.4c1.1.5 1.1 3.7 0 5-1.2 1.5-1.4 1.5-3.4 1.6h-1.8l-.2-.5c-.2-.7-.3-6 0-6.8l.2-.5h1.5c1.2 0 1.7 0 2.2.3m61 3.8c0 .2.3 1.1.8 2l.5 1.4.6 1.5c.2.3.2.4 0 .8l-.1.4h-5.6v-.5c0-.2.4-1.2.9-2.1l1-2.3c0-.4.4-1 .7-1.4l.5-.8.3.4.3.6m213.7.2a295.2 295.2 0 0 0 1.9 4.6c.5 1 .3 1.2-2.8 1.2H672v-.4l.8-2c.5-1 1-2 1-2.4a7 7 0 0 1 1.3-2.1l.6 1m-148.5 0l.6 1.5.4 1c0 .3 0 .5.2.6.2.2.5 1.2.7 2.3l.1.6h-2.8c-3.2 0-3.6-.3-2.5-1.7l.3-.7.3-.7c.2-.2.4-.6.4-.9.6-2.4 1.9-3.5 2.3-2"/>
  <path fill="#004038" fill-rule="evenodd" d="M143.4 0c0 .2-1.7.2-4.4.2a60.8 60.8 0 0 0-10.6.8l-1.6.1c-.7 0-1.4.1-1.8.3a5.7 5.7 0 0 1-1.5.1 4 4 0 0 0-1.5.3 3 3 0 0 1-1.2.2l-1.3.2a3 3 0 0 1-1.3.2l-1 .2-1 .2a4 4 0 0 0-1.2.3 4 4 0 0 1-1 .1c-.5 0-1 .2-1 .3l-1 .1c-.4 0-.8.2-1 .3l-1 .2c-.3 0-.7.2-.7.3l-.6.1-.9.2-1 .2-.8.3-.7.2a39.2 39.2 0 0 1-2.3.7A159.2 159.2 0 0 0 84.2 13a169.6 169.6 0 0 1-4.6 2.2l-.2.2c-.2 0-.3 0-.5.2l-.4.2-.5.2c0 .1-.2.3-.4.3l-.5.1c0 .2-.2.3-.4.3l-.4.1-1.8 1.3-8.1 4.6a177.2 177.2 0 0 0-18.7 14.2l-1.6 1.4a217.6 217.6 0 0 0-13.5 14.4l-1.7 2.1A168 168 0 0 0 17 76l-.3.4-.3.5c0 .2-.1.4-.3.5v.3l-.3.5a.8.8 0 0 0-.3.5v.4a101.5 101.5 0 0 0-5.8 12.3l-.4 1-.2.7-.2.4-.6 1.5-.2.6-1 3a188.3 188.3 0 0 0-5 19.5 3.2 3.2 0 0 1-.2 1.2l-.2 1.2-.2 1.4c-.1.3-.3 1-.3 1.6 0 .5 0 1-.2 1.2l-.2 1.6a6 6 0 0 1-.2 1.8l-.2 2a177.6 177.6 0 0 0 .7 34.3l.1 1.2c0 .5 0 1.1.3 1.4l.2 1.3.2 1.3.2 1.2c0 .4 0 1.1.2 1.3.1.2.3.6.3 1l.1 1 .3 1a39.6 39.6 0 0 0 1.6 6.8l.3 1 .4 1.8a102.1 102.1 0 0 0 5 14.6l.3.5.8 2a218.5 218.5 0 0 0 8.1 15.7 11.5 11.5 0 0 0 1 1.6l.4.8.4.7.6 1 .8 1.2.2.2.8 1.3a54.7 54.7 0 0 1 1.9 2.8l.9 1.2a67.2 67.2 0 0 0 4.5 6 97.8 97.8 0 0 0 5.2 6.2 252.2 252.2 0 0 0 14.3 14 45.7 45.7 0 0 1 3.8 3.1l1.4 1a163.1 163.1 0 0 0 18.7 12.2c0 .2.4.4 2 1.2a49.2 49.2 0 0 1 4 2l.4.3.4.2a42.1 42.1 0 0 1 3.8 1.8 55 55 0 0 0 7.3 3 189.7 189.7 0 0 0 11.4 3.8l.9.2.5.1.8.4a23.5 23.5 0 0 1 3.6.8 41.3 41.3 0 0 1 4.5 1l.8.2c.3 0 .8 0 1.1.2l1.5.3 1 .2 1 .2c.5 0 1.1 0 1.4.2l1.4.2 1.5.2c.3.2 1 .3 1.6.3a7.3 7.3 0 0 1 1.6.2l2.1.2 1.9.1c.2.2 1.9.3 3.5.4a109.3 109.3 0 0 0 24.4-.5c.7 0 1.7 0 2-.2l1.8-.2c.6 0 1.3-.1 1.6-.3l1.4-.2c.4 0 1 0 1.4-.2a4.9 4.9 0 0 1 1.3-.2c.4 0 1-.1 1.3-.3l1.1-.2h1l1.1-.4 2.9-.6a5.7 5.7 0 0 1 1-.2c.4 0 .8-.2 1-.3l.9-.1.8-.3.7-.1a1.6 1.6 0 0 0 .8-.3l.8-.1.8-.3.8-.2.8-.2 1.4-.5a129 129 0 0 0 12.8-4.4l.8-.4a92 92 0 0 0 6.3-2.8 169.6 169.6 0 0 0 12.3-6.5l3.3-2a294 294 0 0 0 11.4-8.2 69.3 69.3 0 0 0 7.4-6.1 204.1 204.1 0 0 0 16.4-17.2 47.5 47.5 0 0 0 3.6-4.6 202.4 202.4 0 0 0 12-19.2 84.2 84.2 0 0 0 6-13.2l.4-1 .6-1.4.2-.7.1-.3.2-.3.2-.7.4-1.3.5-1.3.3-.8.1-.5c.2-.1.3-.5.3-.8 0-.2 0-.5.2-.6l.3-.6.1-.8c.2 0 .3-.4.3-.6l.2-.8.2-.6.2-.8c.2-.2.2-.6.2-.9l.3-.8.2-.8.2-.8c.2-.2.2-.6.2-.8l.1-.6c.1 0 .3-.5.3-.8l.2-1 .2-1c0-.4.2-.7.3-.9l.2-.6.1-1.2c.2-.3.3-.8.3-1.1 0-.3 0-.8.2-1l.2-1.3.2-1.2a4.9 4.9 0 0 0 .2-1.4c0-.4 0-.8.2-1l.3-1.6.3-2 .1-1.5c0-.5 0-1.2.2-1.6a176.9 176.9 0 0 0-.8-37.9l-.3-1.4-.2-1.2-.2-1.3c0-.4 0-.8-.2-1.2-.2-.2-.2-.8-.2-1.1 0-.4 0-.7-.2-.8l-.2-1-.2-1c0-.1-.3-.6-.3-1l-.2-1-.2-.9c0-.5-.2-.8-.2-.9l-.2-.5c0-.3 0-.7-.2-.8l-.2-.9c0-.3 0-.6-.2-.8a1.6 1.6 0 0 1-.3-.9l-.2-.6-.2-.8c0-.3 0-.6-.2-.8l-.2-.8-.2-.8c-.4-.8-.6-1.4-.7-2 0-.3-.2-.6-.3-.7l-.1-.6-.3-.6a.9.9 0 0 1-.2-.6l-.2-.7a389.6 389.6 0 0 0-1.2-3.3 37.3 37.3 0 0 0-1.6-3.9 92.3 92.3 0 0 0-7-14.7 24.1 24.1 0 0 1-1.5-2.6c-.1 0-.2 0-.2-.2 0-.1 0-.3-.2-.4l-.5-.8-.5-.9-.2-.2-.3-.6-.9-1.5a162.5 162.5 0 0 0-7-10l-1.3-1.8a21.6 21.6 0 0 0-1.8-2.3l-1-1.2a48 48 0 0 1-2.9-3.3l-2.1-2.3A143.9 143.9 0 0 0 143.4 0m8.2 9.3c3 .1 4.8.3 8.2.7l3.1.4a97 97 0 0 1 12 2.2 56.6 56.6 0 0 1 6.5 1.7 27.5 27.5 0 0 1 4.2 1.2l.6.2c.2.2.5.3.7.3.2 0 .5 0 .6.2l.7.2.5.2a.9.9 0 0 0 .6.2c.2 0 .5.1.7.3l.6.2.7.2a.9.9 0 0 0 .5.2l.6.3.5.1.5.3.7.2.5.2c0 .2.3.2.5.2l.4.2 1.1.5a146.3 146.3 0 0 1 17.8 9.1 150.8 150.8 0 0 1 20 15 154.1 154.1 0 0 1 19 21l.2.4.4.6.6.6a786.8 786.8 0 0 0 3.6 5.3 835.6 835.6 0 0 0 3.7 6.4 156.7 156.7 0 0 1 9.4 20.2 106.2 106.2 0 0 1 4.2 14.4 46 46 0 0 0 .9 4 203.9 203.9 0 0 0 1.2 6.3 28.8 28.8 0 0 1 .4 3.5l.3 1.8.2 1.6v1.8a205.5 205.5 0 0 0 .6 7.5 143.4 143.4 0 0 1-2.5 32l-.3 1.2-.2 1-.2.6c0 .2 0 .8-.2 1.2a109 109 0 0 0-1.6 6.4 987.6 987.6 0 0 1-3.2 10 .8.8 0 0 0-.3.5l-.2.6-.3.6-.2.8a495.2 495.2 0 0 0-1 2.5c0 .1 0 .3-.2.3l-.3.6-.2.6a.4.4 0 0 0-.2.4.9.9 0 0 1-.3.6l-.1.5-.2.3s-.2 0-.2.2a42.1 42.1 0 0 1-3.2 6.6 33 33 0 0 1-1.8 3.4 53.9 53.9 0 0 1-2 3.5 101.5 101.5 0 0 1-11.7 16.6 33.2 33.2 0 0 1-2.5 3 137.8 137.8 0 0 1-49.9 36l-.6.2-.5.3a.8.8 0 0 1-.5.2.9.9 0 0 0-.6.2l-.6.2a.8.8 0 0 0-.5.2.8.8 0 0 1-.5.3 1 1 0 0 0-.6.2l-.6.2-.6.2-.7.3a.9.9 0 0 0-.6.2l-.5.2a1 1 0 0 0-.6.2.9.9 0 0 1-.6.3l-.7.1a1 1 0 0 1-.6.3l-.7.2-.7.3-.8.1-.8.3-.4.1-.8.3-.6.1-.8.3-.8.2-.6.2-.8.1a2 2 0 0 1-1 .3l-.8.2-.9.3a2.4 2.4 0 0 0-1 .1c-.2.2-.6.3-.8.3l-1.3.2a52.5 52.5 0 0 1-7.8 1.4 48 48 0 0 1-5.9.8h-1.3l-3 .4-3.3.3a156.3 156.3 0 0 1-25.7-1.2 121 121 0 0 1-35-9.7 99.2 99.2 0 0 0-5-2.3A3074.8 3074.8 0 0 0 77 262a20.7 20.7 0 0 0-1.6-.8l-1.7-1.2a24.2 24.2 0 0 1-2.3-1.3l-.2-.2-.2-.2a2.4 2.4 0 0 1-.8-.5l-.6-.4-.7-.4-.6-.5-.7-.4-.7-.4-.2-.1-1.7-1.3a112.8 112.8 0 0 1-13-10.8 158.8 158.8 0 0 1-14.3-15.3 161.7 161.7 0 0 1-12.1-18.2 145.5 145.5 0 0 1-14.2-39l-.6-3.4-.4-1.4-.2-1.5-.2-1.5-.2-1-.2-2.4a101 101 0 0 1-.9-9.8 168.4 168.4 0 0 1 1.1-23.1l.2-1.8.2-1.2.2-1 .3-1.5a83.1 83.1 0 0 1 2.9-13.3l.2-.8c.2-.1.3-.4.3-.7 0-.1 0-.6.2-.8l.2-.7.2-.8c.2-.2.3-.5.3-.8v-.3c.1 0 .3-.4.3-.7l.2-.7.2-.4.3-.8.1-.5.3-.6.2-.6.2-.6.2-.5.2-.7.3-.6c0-.2 0-.4.2-.6l.2-.5.2-.7.8-2a37.1 37.1 0 0 1 1.8-4 112.2 112.2 0 0 1 9-16.6 338.6 338.6 0 0 1 7.6-10.8A26 26 0 0 0 39 59l.7-.8a40 40 0 0 1 3-3.5 127.7 127.7 0 0 1 21.7-19.8l.2-.1 1-.6a153.9 153.9 0 0 1 13.4-8.5 245.2 245.2 0 0 1 14.9-7c.1 0 .5 0 .6-.2l.6-.3.5-.1c0-.2.4-.3.5-.3.3 0 .6 0 .7-.2 0-.1.3-.3.6-.3l.5-.1c.2-.2.4-.3.7-.3.1 0 .5 0 .5-.2l.6-.3.7-.1c.2-.2.4-.3.7-.3.1 0 .5 0 .6-.2l.8-.2c.2 0 .5 0 .6-.2 0-.2.4-.3.7-.3s.5 0 .6-.1a7.3 7.3 0 0 1 2.1-.6l.8-.3.4-.2 1-.1a110.2 110.2 0 0 1 28-4.4l2.8-.2c.8-.1 7.5 0 11.9.2M137 14.3l-3.4.2-2.8.3-1.6.2c-.8 0-1.6 0-2 .2-.3.1-1 .3-1.6.3l-1.4.1c-.3.2-.8.3-1.3.3-.4 0-1 0-1.4.2-.2.1-.8.3-1.3.3l-1.1.1a2.4 2.4 0 0 1-1 .3l-1 .1-1.1.4a42.4 42.4 0 0 0-6.7 1.6 95.8 95.8 0 0 0-13.9 4.6l-.6.2-.7.2a468.6 468.6 0 0 0-6 2.8 76.8 76.8 0 0 0-8.3 4.4 67.7 67.7 0 0 0-2.8 1.6 78.3 78.3 0 0 0-8 5.4 83.2 83.2 0 0 0-10.4 8 100.8 100.8 0 0 0-8.2 7.8L48 56.5a67.7 67.7 0 0 0-6.4 7.5 24.1 24.1 0 0 1-1.2 1.8l-.7.8-.6.8a69.8 69.8 0 0 0-4 5.8c-.6.8-.5.5-2.3 3.5a96 96 0 0 0-6.4 11.8.8.8 0 0 0-.2.5c0 .3 0 .5-.2.6l-.2.3-.5 1.1a45.6 45.6 0 0 0-2.4 5.8 8 8 0 0 1-.9 1.9v.4l-.3.9a564.5 564.5 0 0 0-.8 2.4 119.8 119.8 0 0 0-5.8 24.4l-.3 2-.4 4a216 216 0 0 0 .8 29.1l.1 1.2c0 .5 0 1.3.2 1.6l.2 1.4c0 .4.1 1 .3 1.2l.2 1c0 .4 0 1 .2 1.3l.2 1a110.2 110.2 0 0 1 1.3 5.7 109.7 109.7 0 0 0 7.8 22.2 98.8 98.8 0 0 0 5.8 11.4 131.7 131.7 0 0 0 84 61.5c.3 0 .7 0 1 .2l.9.2c.4 0 .9 0 1.1.2.2.2.7.2 1.2.2.4 0 .8.1 1 .3l1.1.2a4 4 0 0 1 1.3.2c.4.2 1 .2 1.5.2s1.2.1 1.5.3l1.7.1a4.9 4.9 0 0 1 1.5.3l2.4.2 2.8.3 4.8.1c2.5 0 4 .1 4.2.3h1.2c.5-.2 2.6-.3 4.8-.3a70.9 70.9 0 0 0 14.1-1.3c.5 0 1 0 1.3-.2l1.3-.2 1.2-.2c.2-.2.8-.3 1.2-.3.5 0 1 0 1.1-.2l1-.2c.4 0 .8 0 1-.2l1-.2a21.9 21.9 0 0 0 3.5-.9 79.2 79.2 0 0 0 6-1.6 144.3 144.3 0 0 0 21.2-8.6l1-.6a59.7 59.7 0 0 0 7.2-4l.9-.5a85 85 0 0 0 10.5-7.3 75 75 0 0 0 7.1-5.9l2.6-2.2a125.4 125.4 0 0 0 21.7-26.4 26.2 26.2 0 0 1 1.7-2.6 19.3 19.3 0 0 1 1-2l.5-.6.2-.4.2-.4.2-.4.1-.3.8-1.2.6-1.2a116 116 0 0 0 8.7-21.3l.2-.7c0-.5.2-.8.3-.9l.2-.6.2-.8.1-.5c0-.2.1-.7.3-.8l.2-1.1.2-.9.2-.5c0-.3 0-.8.3-1l.2-1c0-.3 0-.7.2-.8l.2-1c0-.4 0-.8.2-1 .1 0 .3-.6.3-1l.1-1.1c.2-.2.3-.7.3-1.1 0-.4 0-1 .2-1.3l.3-1.3v-1c.1-.2.3-.8.3-1.5l.2-1.6.4-2a1950.5 1950.5 0 0 0 .5-6 160 160 0 0 0-1.3-29 4.9 4.9 0 0 1-.1-1.5l-.3-1.2a3 3 0 0 1-.2-1.2c0-.3 0-.8-.3-1.1l-.1-1.2-.3-1a3.2 3.2 0 0 1-.2-1c0-.3 0-.7-.2-.9a2.4 2.4 0 0 1-.2-1l-.2-1c-.2 0-.3-.5-.3-.7a1.6 1.6 0 0 0-.2-.8 1.6 1.6 0 0 1-.2-.8l-.2-.9a2.4 2.4 0 0 1-.3-.8l-.5-2.2-.3-.6-.2-.8-.6-2-.2-.7-.2-.6-.2-.4-.3-.8-.4-1.3a135 135 0 0 0-14.2-28 22.4 22.4 0 0 1-1.8-2.5l-1.4-2.1-.7-.8c-.4-.4-.7-.8-.7-1l-.2-.3-1.2-1.4a28.4 28.4 0 0 0-1.8-2.3 33.5 33.5 0 0 0-2-2.3A146.9 146.9 0 0 0 216.3 36a80.3 80.3 0 0 0-8.8-5.3 27.5 27.5 0 0 0-2.9-1.6.8.8 0 0 0-.5-.1c-.1 0-.2 0-.2-.2l-.4-.2a112 112 0 0 0-8.6-4l-1-.5a38.2 38.2 0 0 0-4-1.6 34.7 34.7 0 0 1-2.8-1 125.5 125.5 0 0 0-30-6.6l-2.6-.3a175.8 175.8 0 0 0-17.3-.3m14.4 4.7a119.8 119.8 0 0 0 7 .6 1156 1156 0 0 0 6 .8l1.4.3 1.4.1 1 .3 1 .2 1.2.2 1 .2.8.2 1 .3a116.7 116.7 0 0 1 35.8 14.7 65.2 65.2 0 0 1 8.5 5.6l.8.5.8.6.8.6.8.7a29.3 29.3 0 0 0 2.7 2.2 35.2 35.2 0 0 1 3 2.6A142.9 142.9 0 0 1 246.2 71a131.6 131.6 0 0 1 19 39l.2 1.1.6 2.2a25 25 0 0 0 .8 3.7 60.3 60.3 0 0 0 1.1 5l.2 1.4.2 1.2.2 1.4c0 .8.2 1.4.3 1.5l.2 1.9.2 1.8.2 2.5a209 209 0 0 1 0 21.7l-.3 3-.1 1.7c0 .6 0 1.2-.2 1.3 0 0-.3.8-.3 1.4l-.3 2-.1 1.3c0 .4 0 .7-.2.8l-.2 1a41.3 41.3 0 0 1-1.1 5.2 23.5 23.5 0 0 0-.6 2.6c0 .4-.2.8-.3.8l-.1.7c0 .4 0 .7-.2.8l-.3.8-.3 1-.3 1-.2.8-.3.9-.2.6-.6 1.9-.2.7-.4.8-.1.5-.7 1.7a38 38 0 0 0-1.1 3.1 5.7 5.7 0 0 0-.5 1.1l-.3.9-.5 1a53.1 53.1 0 0 1-3.4 7.3l-.8 1.6a63.6 63.6 0 0 1-3.6 6l-.4.7-.1.4a49.2 49.2 0 0 1-4.3 6.4l-.1.2-.5.7-.7.8-.7 1a15.2 15.2 0 0 1-1.4 1.8l-1 1.1-.5.8-.8.9a29.5 29.5 0 0 0-2.7 3.2l-1.4 1.6a103.8 103.8 0 0 1-15.3 14.2 1.6 1.6 0 0 1-.5.3l-1.2 1-.5.4-2.4 1.6a100.5 100.5 0 0 1-17.8 10.6l-.3.3-1 .4-.8.5-.3.1-1.2.5-1 .4-.2.2-.2.1-.8.4a3.2 3.2 0 0 1-.8.2l-.2.2-.3.1-.8.3a468.6 468.6 0 0 1-2.2.8.9.9 0 0 1-.5.2c-.2 0-.4.1-.5.3l-.7.2-1.2.4a28.4 28.4 0 0 1-3 1 100 100 0 0 1-11.9 3.3 3.2 3.2 0 0 1-1 .2 3.2 3.2 0 0 0-1 .2l-1.1.2-1 .1-1.5.4a176.8 176.8 0 0 0-7 1l-2.5.2a151.3 151.3 0 0 1-28.6-.5 64 64 0 0 1-9.7-1.6 25.3 25.3 0 0 0-3-.7l-4.3-1.1a120.3 120.3 0 0 1-26.8-10.9l-.4-.1-.5-.4a91 91 0 0 0-3.6-2 56 56 0 0 1-7.8-5 75 75 0 0 1-5.4-4.1 157.4 157.4 0 0 1-6.7-5.8A163.8 163.8 0 0 1 45 222l-.5-.7-.7-.8a3.2 3.2 0 0 1-.4-.6 143.3 143.3 0 0 1-20.5-41.4l-.8-3.1a118.3 118.3 0 0 1-3.4-21.3 187.5 187.5 0 0 1 .3-21.5 60.8 60.8 0 0 1 1.3-9.7 327.9 327.9 0 0 0 1.1-6 312.3 312.3 0 0 0 1.8-7.1l.2-.8c0-.3 0-.5.2-.5l.1-.6.9-2.4.1-.8c0-.1 0-.4.2-.4l.4-1.2.5-1.3.1-.4c0-.2.1-.5.3-.6l.1-.6.3-.7a469.2 469.2 0 0 1 1.3-3.2 85.5 85.5 0 0 1 2.4-5.2 138.4 138.4 0 0 1 11-19 27.7 27.7 0 0 0 1.8-2.6l.8-1 .7-1 1.7-2A125.4 125.4 0 0 1 151.6 19M150.4 29l-.2.8c0 .3-.2.7-.3.8l-.1 1-.3 1.2a9.6 9.6 0 0 0-.4 2.7c.1.5 1 .5 1.2 0 .9-2.6 2.6-4 4.7-3.6a45.4 45.4 0 0 0 3.3.5l.8.2c.3 0 .3 0 .2.4l-.1 1.1-.3 1.9a82.6 82.6 0 0 0-1 6.3l-.2 1.4-.2 1.4-.2 1.4-.2 1.5-.3 1.2a5.7 5.7 0 0 0-.2 1.5v1c-.2 0-.3.6-.3 1.2s-.2 1.3-.3 1.4l-.2.8c-.3 1.6-1 2.2-3 2-1.2 0-1.5.2-1.3.9.1.6.6.6 4 1l1.5.3 1.4.2 1.3.2c.1.2.6.2 1.1.2l1.6.2c1 .3 1.5.2 1.5-.6 0-.4 0-.5-.7-.6-2.4-.7-2.5-.7-2.6-2.7l.1-2.3a69 69 0 0 0 1-6.3 41.6 41.6 0 0 0 .7-4.4l.3-1.2a106.3 106.3 0 0 1 1.1-7.7l.2-.8h1c4.2 0 6.8 1.7 6.8 4.2 0 1.2.2 1.7.6 1.7.5.2.9 0 .9-.5l.1-1.3.5-4.6c0-.4-.2-.6-1.1-.8a141.2 141.2 0 0 1-6.3-1 52.5 52.5 0 0 0-5.5-.8l-1.2-.2c-.4 0-1 0-1.4-.2l-1.4-.2c-.5 0-1 0-1-.2l-1.4-.3a14.6 14.6 0 0 1-1.9-.2 4.9 4.9 0 0 0-2.3-.1M118 31.2a4 4 0 0 1-1 .2 14 14 0 0 0-10.6 9.2l-.5 1.1v.7a7.3 7.3 0 0 1-.3 1.3c-1 3.7 1.5 11 4.6 13.9a14.2 14.2 0 0 0 17.6 1.8A20 20 0 0 0 132 55a13 13 0 0 0 2.1-7.8L134 44a2 2 0 0 1-.3-1 2.4 2.4 0 0 0-.2-1l-.2-.6-.1-.5-.8-1.5c-1.9-4-5.9-7.2-10.3-8-1.2-.2-3.7-.4-4-.2m2.8 2.6c1.3.4 2.2.9 3.2 2 1.5 1.5 1.6 1.6 2.6 3.6a524.8 524.8 0 0 0 1 2.6l.3.6c0 .3 0 .5.2.7l.2.8c0 .1 0 .5.2.8.1.1.3.6.3 1l.1 1.2c.2.2.3 1 .3 2.8 0 2 0 2.6-.3 3l-.1.7c0 .3-.2.6-.3.7l-.2.5s0 .3-.2.4l-.2.4c0 .4-2.3 2.4-3.2 2.9-5.7 2.7-10.8-.7-13.2-8.5-2.5-8.7-.5-15.2 4.9-16.2l.8-.3c.2-.1 2.7 0 3.6.3m-27.8 6a26.7 26.7 0 0 0-2.8 1.8l-.8.4-1.1.7-.5.4h-.2a9 9 0 0 0-2.2 1.5 107.6 107.6 0 0 0-9.8 5.6l-.8.5-.6.4c-.7.3-.8.8-.5 1.5a27 27 0 0 0 2 3.5l.1.4.5.7c.2.6.3.6.8.6s.7-.8.3-1.6c-.3-.6-.4-3.2-.1-3.2l.2-.4c0-.2.4-.6.8-1l2-1.4 1.7-1c.7-.4 1-.1 2.2 2l.7 1.2.4.8v.2c.2 0 .3.1.3.3l.4.8 1 1.4.4.8.4.6.3.6.6.8c0 .3.2.6.4.8a513.3 513.3 0 0 1 5 8.4l.7 1.5c.4.8-.2 1.9-1.5 2.7-.8.5-.9 1-.3 1.4.3.2.4.2 1.2-.4l1-.5.6-.4.8-.5c.4-.2.8-.3 1.6-.9a2.4 2.4 0 0 1 .8-.4s.1 0 .1-.2a9 9 0 0 1 2.2-1.3l.6-.4c1.5-.8 1.6-1 1.6-1.5s-.5-.8-1-.4c-1 .8-2.6 1-3.4.1a49.4 49.4 0 0 1-4.7-7.6 46.7 46.7 0 0 1-3.4-5.5l-.3-.4s-.1 0-.1-.1a4.9 4.9 0 0 0-.7-1.3 48.3 48.3 0 0 0-2-3.2c-1.3-2.3-1.3-2.2-.3-2.8a15.6 15.6 0 0 0 2-1l.6-.5c1.8-1.1 4-.8 5.7.9.8.9 1 1 1.5.5.3-.3.2-.7-.1-1l-.3-.3-.4-.8-.5-.6-.4-.7-.4-.7a8.1 8.1 0 0 0-1.6-2l-.7.3m95.9.2l-.9.2-1 .1-.9.3c-.8.1-1.6.5-1.8.7l-.4.2-.4.1-.7.5-.6.4-1 .7a9.7 9.7 0 0 0-2.1 2.2l-.7.8-.1.2-.3.6a18.6 18.6 0 0 0-2.6 6.2 20.5 20.5 0 0 0 .2 6.6l.2.7.3.5.3.9a11.2 11.2 0 0 1 .7 1.3l.3.5a22.3 22.3 0 0 0 4 3.8l.8.7.7.3.8.3.8.4.6.2.7.2a13.5 13.5 0 0 0 9.9-1.3l.5-.2.4-.2.4-.3.8-.5 1-.8a18.6 18.6 0 0 0 5.6-11c.2-1.1 0-3.2-.1-3.3l-.2-.7c0-.3 0-.8-.2-1l-.2-.8c0-.3 0-.5-.2-.7a12.5 12.5 0 0 0-3.2-5 12.6 12.6 0 0 0-4.4-2.8.6.6 0 0 1-.5-.2l-.5-.2c-.3 0-.6 0-.7-.2-.5-.3-5-.6-5.3-.4m5.7 2.7l.4.3c.9 0 3.5 2.2 4 3.2a11.5 11.5 0 0 1 .5 8.5c-.8 2.6-3 6.8-4.3 8.4-1.5 1.7-3 3.2-3.5 3.2l-.3.1c0 .2-1 .6-1.6.7a1 1 0 0 0-.7.3h-3.5c0-.2-.3-.2-.4-.2l-1-.4-1-.5c-1.1-.5-3.1-3-3.1-3.9l-.2-.1c-.3-.1-.2-5.9 0-6.4l.3-.8c0-.1.1-.5.3-.7l.1-.8.2-.3a23.7 23.7 0 0 1 2.4-4.6 14 14 0 0 1 5.8-5.6l.3-.1.6-.3a9.7 9.7 0 0 1 4.7 0M219 56.2l-.1.5.8 1.2c.4.6.5 2.1.1 2.5-.5.8-1.8 1.9-3.4 3.3a38.6 38.6 0 0 0-2.5 2 34 34 0 0 0-2.8 2.4 21 21 0 0 0-2.3 1.9l-3.9 3.2c-3.2 2.9-4.3 3-5.8 1.2-.6-.9-1.5-.9-1.5 0l1.4 2a73.8 73.8 0 0 1 3.4 4l.8 1c.8.9 1 .9 1.5.4.3-.4.3-.4-.4-1.2-1.6-1.8-1.1-2.8 2.7-6a100.1 100.1 0 0 0 6-4.8 50.7 50.7 0 0 1 3.2-2.9l2-1.6c.7-.6.8-.5.4.3a32 32 0 0 0-1.4 3.2l-.3.4-.2.5a32.4 32.4 0 0 1-1.4 3l-.2.4c-.1 0-.3.2-.3.4v.3l-.3.3-1.8 3.9a221.7 221.7 0 0 0-4.1 8.8c-.6 1 .2 1.5 2 1a985.8 985.8 0 0 1 16.8-4.6h.5l.8-.3c.2-.2.5-.3.8-.3.1 0 .6 0 .8-.2l.8-.2c.3 0 .7 0 .8-.2.2-.1.5-.3.8-.3h.4l-.6.6A461.5 461.5 0 0 0 222 91a106.8 106.8 0 0 0-3.1 2.8l-.8.4c-.8.4-1.5.5-1.7.2l-.4-.3c-.1 0-.5-.2-.9-.6-.8-1-1-1-1.5-.7-.4.4-.2.8.7 1.9a59 59 0 0 1 3.1 3.6 832.2 832.2 0 0 1 4 4.4c.7 0 1-.7.2-1.5l-.5-.8-.3-.6c-.5-.9.2-1.8 3-4a77.6 77.6 0 0 0 3.4-3l2.5-2.2a135.8 135.8 0 0 0 7-5.9c2.2-1.8 3.2-2 4.5-1.1l.8.6c0 .4.4.8.9.5.8-.2.5-.9-1.8-3.5a40.5 40.5 0 0 1-1.2-1.4c-1.2-1.6-1.7-2-2.2-2l-1.9.5-.7.2a1.6 1.6 0 0 0-.8.2l-.8.3-.8.1a1.6 1.6 0 0 1-.8.3 1.6 1.6 0 0 0-.8.2 1.6 1.6 0 0 1-.8.3 1.6 1.6 0 0 0-.7.1c-.2.2-.5.3-.8.3-.2 0-.6 0-.7.2a1.6 1.6 0 0 1-.8.2 1.6 1.6 0 0 0-.8.2 1.6 1.6 0 0 1-.8.3l-.7.1-.7.3-.8.1-1 .4a22.5 22.5 0 0 0-2.9.8 2.4 2.4 0 0 0-.8.2h-.6l-.8.3-.9.3-1 .2c-.4.1-.5-.2 0-1.2a35 35 0 0 0 1.7-3.6l.2-.4c.2-.1.3-.3.3-.4l.4-1a338 338 0 0 0 6-12.8c1.2-2.5 1.2-2.5-.5-4.2a31.4 31.4 0 0 1-2.1-2.5l-1-1.2c-.6-.8-1-.9-1.4-.4M65.5 58.5A72 72 0 0 0 60 65c0 .8.9.8 1.6 0 .3-.4.6-.7.8-.7l.2-.1c0-.1.4-.2.9-.2 1 0 1.7.5 3.4 2.1l1 1a267.1 267.1 0 0 1 9 8l.8.6-.1.2c-.4.2-5 0-5.8-.2l-3.4-.1-4-.2-5.5-.3a34 34 0 0 1-4.6-.3c-1.2-.4-3.2-.2-3.6.3a66.3 66.3 0 0 1-4.7 5.2c-.3 0 0 .9.2 1 .3.2.5 0 1.4-.5l1.1-.9.3-.1c.3-.3 3.4-.4 3.7 0l1.4 1.1a93.3 93.3 0 0 1 4.3 4 129.8 129.8 0 0 1 4 3.5 53.5 53.5 0 0 1 4.6 4.2c1.6 1.4 2.1 2.3 2 3.2-.3.6-1 1.9-1.3 1.9l-.1.3c0 .6-1.9 2.4-2.7 2.8-.8.5-5 .5-19.1.7-11.4.2-10.7 0-11 .9 0 .3.6 1 5.6 6a375 375 0 0 1 10.1 10.3c5.1 5 5.3 5.3 5.3 7.3 0 1.7 1 2.2 1.4.8l.3-.8.6-1.6 1.8-4.4c.7-1.4-.5-2.1-1.3-.8-.8 1.7-2 2-2.8 1.2l-4.6-4.7.2-.4a.9.9 0 0 0 .2-.5l.3-.7.4-.9.5-1 .1-.7.3-.6a41 41 0 0 0 1.6-3.7c0-1 1.1-1.3 5.4-1.2h2.2l.4.6c.5.5.5.6.2 2.2-.1.8.4 1.3 1 .9l.3-.4.2-.7.7-1.8c0-.2.2-.4.3-.4v-.4l.3-.5a.9.9 0 0 0 .2-.6l.2-.7a38.2 38.2 0 0 0 2-4.8l.4-.7a85 85 0 0 0 5.5-6.1l.9-.8c.2-.3.2-.3 0-.7-.4-.5-.9-.5-1.7.4-1.3 1.2-2.8 1.2-3.8 0a80.7 80.7 0 0 0-3.6-3.3 127.2 127.2 0 0 0-5.4-4.8 330.5 330.5 0 0 0-4-3.8c0-.1 3.2 0 5 .2l4.5.1c2.2 0 3.3.1 3.4.2.1.2 1.6.3 4.5.3 2.4 0 4.9.2 5.7.3 2.8.3 5.9.2 6.1-.2.3-.4.2-.6-.8-1.5a185.2 185.2 0 0 1-2.4-2.2 211.3 211.3 0 0 1-8-7.1l-1.2-1a89 89 0 0 1-6.8-6.6c-.8-1-.6-1.7.7-3 .5-.6.5-.6.3-1-.4-.8-.8-.6-1.8.5m74.9 5.4l-3 .2-3 .3-1.6.2a4.9 4.9 0 0 0-1.5.2l-1.2.2c-.4 0-1 .1-1.3.3l-1 .2c-.4 0-.9 0-1.2.2a3.2 3.2 0 0 1-1 .2c-.2 0-.6.1-.8.3l-1 .2h-.6a2.4 2.4 0 0 1-.8.4 20.5 20.5 0 0 0-4.6 1.5l-.8.1-.6.3-.6.2c-.1 0-.4 0-.5.2l-.5.2-.8.3a64 64 0 0 1-3.7 1.5 104.7 104.7 0 0 0-10.7 6l-1.1.7a67 67 0 0 0-5.4 4 72.6 72.6 0 0 0-17 18.9l-.4.6-.6 1-.7 1.1-.5.8-1 2a14.9 14.9 0 0 1-1.1 2l-.7 1.5a76.7 76.7 0 0 0-7.3 25.6l-.3 1.3c0 1.2-.2 1.5-2 2.9a20.7 20.7 0 0 0-2.2 1.7c-.7.5-3 2.5-3.4 3-.4.5-.7.4-.3-.2l.3-.8.2-.6.1-.3.3-.7a6 6 0 0 0 .6-1.8l.2-1.2a10 10 0 0 0-.6-6.1.4.4 0 0 0-.2-.4.6.6 0 0 1-.3-.4c0-.3-2.1-2.6-2.4-2.8l-.7-.4a4.7 4.7 0 0 0-1.3-.5c-.8-.4-3.9-.4-4.4-.1l-.7.2c-.2 0-.4 0-.5.2l-.4.2a14.8 14.8 0 0 0-4 4.3c-.3.1-.7.6-2.1 2.8-2.8 4.1-4.3 5.7-5.8 6a4 4 0 0 1-4.3-2.2 8.1 8.1 0 0 1 0-4.3c0-.3.3-.7.4-1 .8-1.6 3-3.6 4.1-3.6.2 0 .5-.1.6-.3l1.7-.2c1.4-.2 1.7-.3 1.6-1 0-.3 0-.4-.7-.5l-1.2-.2-2.2-.2-2-.1-2.3-.3h-1.6v.7c0 .5 0 .7.3.8.6 0 1.1 1.6.6 2a47.8 47.8 0 0 1-1.4 3.2c0 .3-.1.6-.3.8-.3.4-.2 4.2 0 5a9.6 9.6 0 0 0 3.9 4.9l1 .4.9.2h.6c0 .2 1.6.2 2.6 0 .7 0 1.9-.6 1.9-.7 0-.2.1-.2.3-.2.4 0 2.8-2.4 4-4l1-1.6L46 136c.8-1.4 2.5-3.1 3-3.1l.5-.3c1.9-1 4.5.3 5.5 2.6a9 9 0 0 1 0 4.1 1.6 1.6 0 0 0-.1.8 8 8 0 0 1-2 3.2 6.5 6.5 0 0 1-2.4 1.5.9.9 0 0 0-.6.3l-1 .2-1 .1-.9.3c-.8.1-.9.5-.3 1 .2.3 2.7.6 5 .7.4 0-.3.6-1.8 1.7-2.4 1.8-2.4 1.7-.6 4.3l.4.7.5.6.4.8.4.8a20 20 0 0 1 2 3l1 1.7a25 25 0 0 0 1.8 2.7l.4.8a13.4 13.4 0 0 1 1.2 1.9l.4.8a42.5 42.5 0 0 0 2.5 3.8 146.8 146.8 0 0 0 6 8.7l.5.8.4.7a167.7 167.7 0 0 0 4.3 6c.3.5.7.9.8.9v.2a80.2 80.2 0 0 0 4.4 5.9 62.3 62.3 0 0 1 4 5c0 .2.7 1.2 1 1.5l.4.6.7.9.6.8a33.5 33.5 0 0 0 2.2 3l1.9 2.4c.4.4 1 .4 1.6-.2l.3-.2.8-.3c.8-.6.9-.5 3 1.5a26 26 0 0 0 2.9 2.2l1.1 1a65.1 65.1 0 0 0 14.8 8 260.5 260.5 0 0 0 6 2.5l.6.1c0 .2.3.3.4.3.2 0 .8.4.8.6l.3.7.8 1.2a53.7 53.7 0 0 0 4 5.6 19.4 19.4 0 0 0 3.7 3.2c.3 0 1.2 1 2.3 2.4 2.4 3.3 3.6 3.7 6.7 2.6l1-.2.6-.3.4-.2a7.6 7.6 0 0 0 2.4-1.1l.4-.3c.3-.3 1.4-.9 2-1.1l.4-.3.2-.1c.2 0 .4-.1.5-.3l.4-.2s.4 0 .6-.2a39.7 39.7 0 0 1 4.3-2l3-1.5a71.6 71.6 0 0 1 9.8-3.8 136.4 136.4 0 0 0 4.2-1.2 4.9 4.9 0 0 0 .9-.3 4 4 0 0 1 .8-.2l.9-.2c.4-.3 3-.5 5.4-.7a13.3 13.3 0 0 0 3.5-.4c.3 0 .6 0 .8-.2l.6-.2c.3 0 2-.9 3.5-1.7a9 9 0 0 1 2.1-.1c1.1 0 1.9 0 2.2-.2.3-.2.8-.2 1.1-.2.4 0 .8-.1 1-.3l.8-.1.3-.2.6-.2a7.3 7.3 0 0 0 1.6-.7l.5-.2.6-.1c.1-.2.5-.3.8-.3.2 0 .3-.2.3-.3l.3-.1.8-.2 2.2-1.1a30.5 30.5 0 0 0 10.7-9.1 28.1 28.1 0 0 0 4.6-9.8l.2-.8v-.3l.3-.7.4-1.3c.4-1.3.4-1.6.5-2.4a23.5 23.5 0 0 0 .4-4.7c0-2 0-3.4.2-3.7l.2-3.4c0-2.9 0-3 .5-3.6l.4-.8.3-.3.2-.5a99.5 99.5 0 0 0 3-7.2l.2-.8.2-.6c0-.2 0-.5.2-.7.2-.5.5-1.3.6-2.4l.3-1 .2-.8c0-.3 0-.8.2-1a28.8 28.8 0 0 1 .5-3 113.7 113.7 0 0 0-.2-29.1l-.3-1.3-.2-.9a3.2 3.2 0 0 0-.2-1l-.3-1-.1-1a82.6 82.6 0 0 1-1.7-5.6 4 4 0 0 1-.3-.9c0-.3-.1-.5-.2-.5l-.2-.5c0-.2 0-.4-.2-.6a.9.9 0 0 1-.2-.6l-.2-.8a346.1 346.1 0 0 1-1.7-4 87.3 87.3 0 0 0-7.2-12.7l-1.3-2a43 43 0 0 0-3.9-4.8 92.2 92.2 0 0 0-15.2-13.7l-.1-.1a4 4 0 0 0-1-.8c-.2 0-.3 0-.4-.2a10.5 10.5 0 0 0-2.4-1.6h-.2l-.3-.3-.7-.4a21.3 21.3 0 0 0-2.3-1.3 78.5 78.5 0 0 0-23.5-8.5c-.3-.1-.8-.3-1.3-.3a3 3 0 0 1-1.4-.2l-1.5-.2-1.4-.1a9 9 0 0 0-2.5-.4 50.7 50.7 0 0 0-10.6-.2m11.6 3.2a7.3 7.3 0 0 0 1.7.3l1.7.1 1.4.4a18.6 18.6 0 0 1 4.3.8l1 .2.8.2 1 .2c.3.2 1.4.5 2 .6l.9.2c0 .2.3.3.5.3.3 0 .6 0 .9.2l.5.2.6.2.6.3.8.1a.9.9 0 0 0 .5.3c.2 0 .4 0 .6.2l.6.3.6.1.8.4a66.3 66.3 0 0 1 2.5 1 88.4 88.4 0 0 1 12.1 7l.2.1 1.3 1a7.8 7.8 0 0 0 1.5 1l1.1 1a54.4 54.4 0 0 1 3.8 3.1 110.3 110.3 0 0 1 7.6 8 62.8 62.8 0 0 1 8.7 12.9 19.8 19.8 0 0 1 1.2 2.4 34.4 34.4 0 0 1 1.7 4c.4.6.7 1.1.7 1.4 0 0 0 .3.2.4l.2.5.2.6c.2.2.3.5.3.7 0 .2 0 .4.2.5l.2.6.2.8.3.6.1.7c.2.2.3.6.3.8l.1.5.4.8a36.2 36.2 0 0 0 1 4.2v.8l.3 1.2c.2.2.3.8.3 1.2 0 .3 0 .8.2 1l.2 1.5a83.7 83.7 0 0 1-.7 24l-.2 1v.7c-.2 0-.3.4-.3.9-.2 1.2-1.2 1.4-1.2.2l-.1-.3c-.2-.2-.4-.4-1-1.6l-.5-.7c-.3-.2-.2-2.8 0-3.2.3-.4.3-.8.3-1.7 0-.5 0-1.2.2-1.3a84.8 84.8 0 0 0-.8-22.2c-.2-.2-.3-.7-.3-1.2 0-.8-.4-2.4-.6-2.6l-.2-.8c0-.5-.1-.9-.2-.9l-.2-.4a65.6 65.6 0 0 0-13-25.6A76.3 76.3 0 0 0 181.4 80a73 73 0 0 0-13.3-6 71 71 0 0 0-15.1-3.4 73 73 0 0 0-43.2 8l-.5.2-1.7 1-1 .7a117.2 117.2 0 0 1-3 1.9l-1.5 1a54.7 54.7 0 0 0-4.8 3.5A82.8 82.8 0 0 0 82.9 103a33 33 0 0 0-2.4 3.8 90.3 90.3 0 0 0-6.5 14.9c0 .2 0 .5-.2.8l-.2.8-.1.5-.3 1-.6 2.6-.3 1c0 1-.3 1.6-.8 2a37.6 37.6 0 0 1-3.4 3c0-.5.1-2.2.3-2.8l.2-1.4.1-.7.2-.8c0-.5.2-1 .3-1.2l.2-1c0-.4.2-.8.3-.8v-.5l.3-1c.2-.2.2-.6.2-.8a36 36 0 0 0 1-2.8 73.9 73.9 0 0 1 25.3-36.3 23 23 0 0 0 2.3-1.7l.6-.5.3-.2h.3a47.6 47.6 0 0 1 6.2-4.1 95.9 95.9 0 0 1 16.2-6.8l.5-.1a24.1 24.1 0 0 1 5.9-1.5l1.2-.3 1.5-.2c.6 0 1.2-.2 1.3-.3l1-.1c.6 0 1.3 0 1.6-.2 1.7-.4 16-.5 16.7 0m2.6 15.9a14.2 14.2 0 0 1 4 .8l.6.2.4.1 2 .8a13.9 13.9 0 0 1 5.3 4.6l.1.5.3.4.1.4c0 .2.1.5.3.7l.2.8c0 .2 0 .7.2.8l.3.8.2 1.2A529.7 529.7 0 0 1 170 99l.1 1.7c0 1.4 0 1.4-.8 1-.4-.1-1-.2-2.6-.2l-2.2-.1-.4-.2c-.3 0-1.1-.6-1.8-1.2-2.4-1.6-3.5-1.7-3.5 0 0 .5-.5.3-.5-.2 0-.8-.2-1.2-.6-1.7-.9-1-1.7-.4-1.7 1.3v1.2l-.2.8-.3.8c-.1.3-1.3.4-2 0a3 3 0 0 0-1.3-.2h-.8l-.4-.8c-.6-1.5-1.2-1.8-2.4-1.3-.8.5-.8.5-.7-.5.3-2.2.4-8.1 0-8.4-.5-.5-1.2-.4-1.7.4l-.5.7c-.4 0-1-.4-1.9-1.3-1.1-1-1.9-1.2-3-.7l-1.2.2c-.3 0-.8 0-1.1.2l-1 .2-1.2.2c-.8.5-1.4.1-1-.4l.3-.3c0-1 7.5-6 9-6h.3l.8-.3.8-.2a26.7 26.7 0 0 1 6.3-.9l2 .3m-5.2 11.5c-1.3 1.3-1.3 3-.2 3.3.6.3 3.6.4 4.3.3.8-.1.6-.5-.8-2.4l-1.2-1.6h-.8c-.9 0-1 0-1.3.4m-4.9 3.7l-.3 1.1-.3.5c-.1.4-.5.4-.6 0-.3-1.3 0-2.5.8-2.5h.4v.8m45-.5l1 .4.2.7.2.6c0 .2 0 .5.3.6l.2.6c0 .1 0 .4.2.6a.9.9 0 0 1 .2.5c0 .2 0 .5.2.7l.2.5c0 .2.3.5.8.8.3.3.8.6.8.8a11 11 0 0 0 2 1.4l.8.7c.8.6 1.1 1 1.1 1.3 0 .7-.7 1.5-2 2.2-1 .5-2.1 1.8-2.1 2.6 0 .6-.3.7-.7.4-.8-.4-1.5-.5-2.1-.4a28.8 28.8 0 0 0-5.7 3l-1.2.6c-.2 0-.4.2-.4.3l-.2.1a8 8 0 0 0-2 1.2l-.4.2-.3.1-.4.3-.4.1c0 .2-.5.5-.8.6a26 26 0 0 0-2.6 1.5l-1.2.6a49 49 0 0 1-5.3 2.9 162.8 162.8 0 0 1-16 7.2l-2.3.6a2.4 2.4 0 0 0-.6.3l-.8.1a2 2 0 0 0-1 .3l-1.3.1c-2.1.2-2.4 1.8-.6 2.6.7.3.8.3 2.5 0l1.6-.2c.6 0 1 0 1.2-.2a1.6 1.6 0 0 1 .8-.2l.8-.2c.2-.2.6-.2.8-.3a15.1 15.1 0 0 0 3.3-1.2 70.6 70.6 0 0 0 9-4.7 107.6 107.6 0 0 1 14.8-6.8c.2-.2.6-.3.8-.3.2 0 .6 0 .8-.2a2.4 2.4 0 0 1 1-.3 2.4 2.4 0 0 0 1-.1c.2-.2.8-.3 1-.3.4 0 .9 0 1.1-.2l1.2-.2 1-.2c.1-.1.7-.3 1.2-.3.6 0 1-.1 1-.3l.5-1c.3-.6.4-.8.7-.8.3 0 .3 0 0 .4-.3.6 0 .8.8.8.4 0 .8.1 1 .3l1.1.2 1.3.2c.4.2.8.2 1.3.2a4.9 4.9 0 0 1 1.3.3l1.2.1c1.2 0 2.1.5 2.2 1.1 0 .6.5 1.2 1.8 2a14.6 14.6 0 0 1 5.3 5.8 28.4 28.4 0 0 0 2.3 3.4c.6.5.7.9.7 3 0 2 .3 3.4 1 3.6l.1.3.3.4c.3.2.3 1 0 1.2-.4 0-2.3-2.1-2.6-3l-.6-2a17.8 17.8 0 0 0-.8-3 5.7 5.7 0 0 0-.3-.9l-.1-.8-.3-.7-.5-1c-.8-1.6-2.5-3.7-3.2-3.7l-.5-.2c-.8-.4-3.7-.2-5 .4a26 26 0 0 1-2.4.8l-.4.1-.8.3a2.4 2.4 0 0 1-.9.2c-.2 0-.8 0-1 .2-.9.2-2.6 0-3.3-.5-.5-.2-.5-.2-.2-.6.3-.5.3-.8-.4-2.2-.4-.8-3.2-1.3-5.7-.8l-2 .2c-1 0-1.2 0-2.7 1a37.4 37.4 0 0 1-3.7 2 32 32 0 0 1-4.5 2.5c-.1 0-.4 0-.4.2l-.5.2-.4.3a.8.8 0 0 1-.6.2h-.3c0 .2-.2.3-.3.3l-1.8.8-.7.2c-.2 0-.3 0-.3.2l-.6.2c-.4 0-.6.2-.6.2l-.3.1a1 1 0 0 0-.7.3l-.5.2c-.2 0-.5 0-.8.2l-.6.2a.9.9 0 0 0-.6.3l-.6.2c-.2 0-.6 0-.8.2a1.6 1.6 0 0 1-.8.2l-.7.2a56 56 0 0 1-14 2.3c-3.7.3-4 .2-4-1.6v-.8h-.6c-1-.2-.8-1 .3-1.2l.8-.3.5-.2c.2 0 .8-.7.9-1.1l.1-.4v.5c.3 1 3 1.6 4.4 1a2.4 2.4 0 0 1 1-.3 1.6 1.6 0 0 0 .8-.2c.2-.2.6-.2.8-.2.2 0 .6-.1.7-.3l.7-.2c.3 0 .5 0 .6-.2l.8-.2a.9.9 0 0 0 .5-.3l.5-.2c.2 0 .4 0 .6-.2a.9.9 0 0 1 .5-.2l.8-.3.8-.4.7-.2.8-.3 2.9-1.3a56.5 56.5 0 0 0 6.6-3.5 27 27 0 0 0 3-1.6l2-1.2.8-.4a.4.4 0 0 0 .4-.2l.4-.3.8-.4.8-.4.8-.5.7-.4a20.9 20.9 0 0 0 5.6-7.2 37.6 37.6 0 0 0 2.4-5.2c1.3-3.1 1.7-5.9.7-6.7a3.2 3.2 0 0 0-.7-.5c-.6 0 .4-.7 1.3-.9.8-.2.8-.2 1.7 0m-52.4 3.1c1.2.3 2.9 1.2 3.6 1.9l2.7 1.4 1.7.2c1.3 0 2.4.8 2.4 1.6 0 .7 1 1.4 1.8 1.5.8 0 .9 0 1.4.6.4.4.8.7 1 .7l.7.2s.3.2.8.2c.8 0 1.3.5 1.3 1.6l.1 1.4c.2.3.3.8.3 1 0 .6.4 1.5.9 1.9.3.3.5.3 2 0 .4 0 .5 0 .5.2l-.1.4a4 4 0 0 0-1.3 1.2c-.4.8.5 2 1.3 1.6l.6-.2c.8 0 2.1-2 3-4.2.4-1.3.4-1.3 1-1.6 1-.6 1.1-1.1.7-4-.1-.9-.1-1 .3-1.4l.4-.7.2-.3c.2-.2.3-.5.3-1v-1l.6-.2c.5-.1.8-.2 1.3-.1l1.6.1c1.5.2 1.6.3.8 2.1l-.2 1.2c0 1.3-.2 1.4-1.9 1.4-2 0-2 0-2 1.4 0 2.1.9 3 3.3 3 2.1 0 3.7 1.5 4 4l.2.9-.7.4a104.2 104.2 0 0 0-2.4 1.6 4.9 4.9 0 0 0-1.1.7 10 10 0 0 1-1.8 1 32.8 32.8 0 0 1-3.4 2 127.9 127.9 0 0 1-8.2 3.7s-.4 0-.7.2l-1.8.7a22.5 22.5 0 0 0-1.9.6l-1 .3a2 2 0 0 0-1 .3l-.7.1a3.2 3.2 0 0 0-1 .3l-1 .2-.8.3-.3.4-.3-.4c-.4-.3-.5-.3-1.1-.3-1.5 0-2-.8-2-3 0-1.1-.4-2-1-2-.4 0-.9-.3-.9-.7 0-.2.5-.4 1.2-.4.6 0 1.2-.6 1-1.3 0-.5-1-1-1.4-.8-.5.3-2.7.3-2.9 0-.4-.9 0-1.4.6-1.1.5.3 1 .3 1.3 0 .2-.3.2-.9 0-1.1l-.2-.8v-.6l-.6-1-.6-.8c-.3 0-.3 0-.2-.6.2-.2.3-.6.3-.9 0-.7.2-1 1-1.7 1.6-1.3 1.6-2.7 0-3.8-.5-.4-1.3-.5-3.6-.7h-2v-1l-.1-1.3c-.5-1.1-1-3.8-.8-4.7.1-.6.2-.6.8-.8 1-.2 3.2-.2 4 0m84.3 2.1c-.1.2 0 1.4.1 1.9a25.7 25.7 0 0 1 1.3 3.9l.4 1.2c.5 1.6.8 2.1 1.2 2.1.5 0 .7-.3.5-1.4-.2-2.6.2-2.7 5-2.3 3.1.2 2.9.1 3.6 2.2l.7 2.2 1.7 5.6c0 .5 0 .6-1 1.4a174.5 174.5 0 0 0-3.3 2.8l-.7.4c-.8.4-1.8.1-2.3-1-.3-.7-.8-1-1.2-.7-.3.1-.4 1-.2 1.2l.2.7.3.6.2.9c0 .3.2.6.3.6l.1.7.3.6.1.3.3.8.1.6.3.7.2.8.2.5c.2.2.2.5.2.7 0 .5.6 1.4 1 1.4.5 0 .6-.3.6-1.5-.1-1.6 1-3.2 4-5.7a33.1 33.1 0 0 0 2.3-2 97.8 97.8 0 0 0 4.8-4l1.1-1a66.4 66.4 0 0 0 4-3.4 147.2 147.2 0 0 0 6-5.2c1-.5.4-1.4-1-1.5a17.5 17.5 0 0 0-4-.5l-1.7-.1s-1.1-.2-2.3-.2l-2.5-.2c-.2-.2-3.1-.4-7-.6-1.1 0-2.2-.1-2.3-.3-.3 0-1.1-.2-2.3-.2l-2.4-.1c-.5-.2-1.1-.3-1.7-.3a4 4 0 0 1-1.3-.2l-.8-.3c-.3 0-1-.4-1.8-1.4-.4-.7-1-1-1.3-.7m-63 1.2c.8 1.3.8 4.6 0 6.6l-.3.8v-.8l.3-2.3c.3-1.9.2-2.6-.5-3.3l-.7-.5.3-.5c.3-.6.4-.6.9 0m19.6 1.1l-.5.6-1 .9-1.6 1.2c-.2 0-.1-.1 0-.1l.1-.2 1-1c1.3-1.2 2-1.6 2-1.4m5.2.2c0 .2-.1.3-.3.3-.3 0-.3 0 0-.3.2-.4.3-.4.3 0m-130.5.7l-.1.6-.5 1-.8 2.2-.3.7c0 .1 0 .4-.2.4a.8.8 0 0 0-.3.5l-.1.7-.3.5-.2.4a.8.8 0 0 0-.3.5v.4c-.3 0-7.9-7.7-7.9-8h5.3a237.8 237.8 0 0 0 5.7 0m186.2 3l2.5.3 2 .1a39.4 39.4 0 0 1 2.7.3c.3 0 .1.4-.7 1a43 43 0 0 0-3.5 3l-1.5 1.2c-2.2 2.1-2.4 2.2-3 .7a21.4 21.4 0 0 0-.7-2.3l-.2-.6-.2-.7s0-.3-.2-.5l-.5-1.4c-.1-.5-.3-1.2-.5-1.3a122.7 122.7 0 0 0 3.7.1m15.6 2c-.6.9-.1 1.1 4.5 3 2.2.8 2.7 1 3.8 1.6 1 .5 1.2 0 .5-2.1s-.8-2.3-1.2-2.4c-.6-.4-7.3-.3-7.6 0M135 114.3l.2.4.2.3c.1.5 1 1.4 1.4 1.6.8.1.4 1.3-.6 1.9l-1.4.9c-.6.6-.6.7-.9-3.9-.2-2.8-.2-3 .5-2.2l.6 1m39.5-.6c0 .2 0 .2-.2.2v-.9c.1-.2.3.5.2.8m26.3.7c1 1 1.3 1.3 1 1.4a42.3 42.3 0 0 0-6.6.7l.7-.5.5-.4c.1 0 1-.8 1.7-1.8.9-1.1 1-1 2.7.6m-44.4 5.1a7 7 0 0 0-1.8 2.4 21.8 21.8 0 0 1-4.2 4.3c-.5.4-.6 1-.2 1 .6 0 5-2.7 5-3l.4-.6.5-.7a8 8 0 0 0 1.1-2.7c0-.8-.1-.9-.8-.7m-63 4l1 .9c.7.6 1.7 2.1 2.3 3.2a33.1 33.1 0 0 0 3.2 5.2c.2.3.3.4.3 1.2 0 .6 0 1.4.3 1.9l.1 2.8c0 2 0 1.9-1 2.5a18.1 18.1 0 0 1-2 1.7 35.9 35.9 0 0 0-3.7 3.3c0-.4-.7-1.2-1-1.2-.8 0-1.8 1.4-1.8 2.3v.7H92.8l.3-.3c.1 0 .4-.2.6-.5.1-.3.4-.4.5-.4l.4-.1.6-.2.6-.2c.2-.2.5-.3.8-.3.2 0 .6 0 .9-.2l.7-.2c.5 0 1.1-.4 1.8-.9.9-.8 1.3-.5 1.5.8l.2.8v1.3c-.6.3-.2 6.8.4 7.7l.2.8c0 .4.2.8.3.8l.1.2.2.8.3.8.3.4.1.1c0 .8 2 3 3.3 3.4 1 .4 1 .4 1.3 1.7.2.8 0 2-.5 2.5a32.4 32.4 0 0 0-2 3c-1 1-.5 3.7.6 4l.2.5.3.9.2.8c0 .3.5.8 1.2 1.2.6.3.6.3.3.4-1.8.8-4.9 3.7-4.9 4.6l-.1.2-.3.4-.2.6c-.6.8-.6 7.3 0 7.8.3.4.1.8-.5 1.2-1.2.8-2 1.7-3.7 3.7-5.6 6.4-6.1 6.7-8.1 3.7l-.9-1.2a146.8 146.8 0 0 1-8-12.4 29.3 29.3 0 0 1-2-3.4 293.2 293.2 0 0 1-6.2-10.4l-.6-1.1-.3-.6a15.6 15.6 0 0 1-1.5-2.2l-.8-1.4a37.1 37.1 0 0 0-11.3-11.7c-1.7-1.3-1.9-.9 2.7-3.2a111 111 0 0 0 6.5-3.7c.4 0 4.6-2.9 6.5-4.4a24 24 0 0 0 4-4.2l.6-1.6c0-.3 0-.3.2 0l.3.4 2 2.6a379.6 379.6 0 0 1 17.8 28.2c0 .2 0 .3.2.4l.2.5c0 .2.1.3.3.4l.1.4c0 .3.5 1.2.7 1.2v.3l.9 1.7.1.7.3.5.2.4c.2.4 2.7 1.6 3.3 1.5.4 0 .4-.5.1-1.1a164.4 164.4 0 0 1-2-3.8l-.4-.8-.5-.7a34.4 34.4 0 0 0-1.6-2.6 323.1 323.1 0 0 0-6-9 6 6 0 0 1-.8-1.4 34.8 34.8 0 0 1-2.8-4.5l-.5-.9c-.5-1-.7-1-.8-1.5l-.8-1.2-.5-1a.4.4 0 0 0-.3-.5l-.2-.4-.1-.1s-.3-.2-.3-.4c-.1-.4-1-1.7-1-1.8l-.2-.3-.7-1-.7-1.3c0-.2-.5-.8-1-1.6a113.6 113.6 0 0 1-2.4-4c-.8-1-1-1.5-.6-1.5l.8-.3a23.5 23.5 0 0 1 3-1.4l.6-.2s.3 0 .4-.2a10.5 10.5 0 0 0 4-3.2c.8-1.5 1.2-2.4 1.3-3.5l.3-1.4.1-1.7c0-1 0-1.1.8-.6m-4.9 4.6l-1.5 1.5a16.7 16.7 0 0 1-4.2 2.5c.1 0 .3-.1.3-.3l.1-.2 1.7-1.2.1-.1.7-.5.7-.4.6-.5.7-.4.3-.2.5-.2m44 .7l1.9.1 1.6.2c.1.2-1 .6-1.9.6-.5 0-1 0-1.4.2l-1 .2c-.3 0-.7 0-.8.2l-.8.2-1 .3a1.6 1.6 0 0 1-.8.2c-.2 0-.3 0-.4.2l-.4.1c-.2 0-.6 0-.8.2a1 1 0 0 1-.7.3l-.6.2-.9.2-.5.3-.3.1a2.4 2.4 0 0 0-.7.2c-1.6.7-2.3.8-3.4.5a8 8 0 0 0-3.4 0l-1.2.2h-.5l.7-.4.8-.5a24.9 24.9 0 0 1 5.8-2.6 1.6 1.6 0 0 1 .8-.2c.3 0 .7 0 .9-.2l.8-.2a3.2 3.2 0 0 0 1-.2 6.2 6.2 0 0 1 1.7-.3l1.8-.1c1-.3 2.8-.2 3.6 0m53 .8l3.3.2a22.1 22.1 0 0 1 4.5.4c.6 0 1.3.2 1.6.3l1 .2 1 .2c.2.2.5.3.7.3.3 0 .7 0 .8.2l.7.2c.2 0 .4.1.6.5.5 1 2.5 2.4 3.3 2.4l.5.2c.2.2.5.3.8.3.1 0 .5 0 .5.2l.4.3 1 .3 1.3.4c.7 0 1.1.2 1.1.6l.2.6.5 1.6c.6 2.1 1.6 3.4 2.8 3.4l.6-.1.3-.2a2.4 2.4 0 0 0 .8-.2c.6-.3.7-.3.4.2l-.3 1-.2.6c-.3.3 0 4.3.5 5.1l.1 1.2.3.9.1.8c0 .8 0 .8-.1.5l-.9-1.3-.4-1a34.7 34.7 0 0 0-6.2-7.4.9.9 0 0 0-.6-.2l-.4-.2c-.2-.3-.7-.2-1.2.1l-.5.4v1c.1 1.2.4 2.2.6 2.3l.2.3c0 .3 1.7 2.2 2.4 2.5a37.5 37.5 0 0 1 1.6.8c.3 0 .4.3.6 1a25.1 25.1 0 0 0 4.4 7.2c.8.8 2.5 3.2 3 4.2.4 1 .2 1-1 .3-1.5-.8-2-.8-4-.6-1.8.2-2.5 0-2.5-.5 0-.4-.4-1-.9-1.7l-.5-.6h-2a10 10 0 0 1-2.4-.3 29.6 29.6 0 0 0-1-.4 25.8 25.8 0 0 0-2.4-1.2 21.3 21.3 0 0 0-3.5-1.8l-2.1-.4-2 .1-2.9.5a10 10 0 0 0-3.9.8l-.7.3-.6.1-.5.3a.8.8 0 0 1-.5.2.9.9 0 0 0-.6.3l-.6.1-.7.3-.8.2c-.2 0-.6 0-.8.3-.5.2-4 .2-4.5 0-.1-.2-.6-.3-1-.4l-1.2-.2c-.5-.2-1-.2-2 0a79.4 79.4 0 0 1-4.1.6l-.9.1c-.4 0-.8.2-1 .3l-.9.2c-.3 0-.6 0-.8.2l-1 .2-1.6.4c-8.1 2-15.1 1.6-15.1-.9 0-.5 0-.5-2-1.8a24.6 24.6 0 0 1-2.4-1.6c-.1 0-.5-.2-.6-.4l-1.6-1.1-1.3-1-.5-1.8a113.8 113.8 0 0 1-1.8-4.6c-.5-.9 0-.6 1.2.9 2.4 2.8 3.9 3.9 4.8 3 .3-.3.3-.2-.2-1.2a135 135 0 0 1-3.6-8.5c-.3-.6.2-.8 1-.4a6 6 0 0 1 1.6 1.8l.3.4.2.4.1.4c.2 0 .4.6 1 1.8a6 6 0 0 0 2 2.5l.5.4c0 .6 3.2-.3 4.3-1.3l.8-.7c.6-.5-.8-2-1.7-2a.6.6 0 0 1-.5 0c0-.2-.3-.3-.6-.3-.2 0-.4-.1-.5-.3l-.4-.2c-.4 0-1.4-1.2-1.4-1.7l-.2-.8c-.4-.8-.9-.7 5-.8h5.3l.6-.4a7.8 7.8 0 0 1 5.5-.8c1.4.2 1.8 0 1.8-1.6 0-1 .2-1.1 3-1 3 0 3.1-.1 5.3-1.8a24 24 0 0 1 5-3.3l.7-.2c.2 0 .4 0 .6-.2l.8-.2c.3 0 .8 0 1-.3l2.4-.2 2.2-.2c.2-.3 1.2-.3 1.7 0m64.6 3.7l-.5.2c-1 0-4.5 3.7-4.5 4.6l-.2.1s-.3.4-.5.8a2.4 2.4 0 0 1-.4.8s-.2.1-.3.4l-.6 1.1-.8 1.5c-2.4 4.6-4.1 6-6.6 5.5-1.3-.3-3.1-1.7-3.1-2.5 0-.1 0-.4-.2-.5a11.3 11.3 0 0 1 0-4.9l.2-.6c0-1.3 3.2-4.3 4.7-4.3l.6-.3 1-.2c.8 0 1.4-.8 1-1.3a65.6 65.6 0 0 0-10 0c-.5.5-.1 1.3.4 1.3.8 0 1.3 2 .6 2.7l-.2.7-.2.8-.2.8c0 .2 0 .5-.2.6-.2.1-.2.9-.2 2.7 0 1.8 0 2.5.2 2.6l.2.7c0 .3 0 .5.2.7.2 0 .2.2.2.3 0 .3.6 1.4.8 1.4l.1.2c0 .1.4.7 1 1.2a7.7 7.7 0 0 0 11.7-.8 57.3 57.3 0 0 1 1.2-1.8l.5-1a37.5 37.5 0 0 0 2-3.7l.9-1.6c2.2-4.2 4.8-5.7 7.3-3.8.6.5 1.6 1.8 1.6 2.2v.6c.3.4.3 2.2 0 2.4v.5c0 2.2-2.8 4.7-6 5.5-1.7.4-2.2.8-1.6 1.5.3.3 9 .3 9.9 0 .5-.3.4-1-.3-1.3-1-.5-1.3-1-.8-2.1l.4-1 .3-.9s0-.2.1-.3c.5-.6.6-5 0-6.3l-1-2c-.5-.8-2.3-2.4-2.9-2.6l-1.1-.6a12.2 12.2 0 0 0-4.7 0m-78.4 1c-.3.4-.3.5-.2.9.2.5.2.6-1 1a28.3 28.3 0 0 0-3.2 1.3l-.6.2a50 50 0 0 1-5.1 2.1 315.6 315.6 0 0 1-10 4.2c-.6 0-1 .8-.5 1.2.7.7 4.3.6 4.9 0l.7-.2c.2 0 .5 0 .7-.2l.5-.2c.2 0 .5 0 .7-.2l.6-.3.6-.1a.9.9 0 0 1 .6-.3c.1 0 .4 0 .4-.2l.4-.2c.1 0 .4 0 .7-.2l.8-.4a28.8 28.8 0 0 0 2.4-1c.2 0 .4 0 .7-.2l2-.8.8-.2.4-.2 1.4-.4 3.6-1c5.3-1.6 5.1-1.6 5.1-2.5 0-.6-.2-1-1.6-1.3l-2-.8c-1.6-.5-3.4-.5-3.8 0m-75.8 1a2.4 2.4 0 0 1-.7.4c-.3 0-1 .8-1.6 1.8-.6 1-.8 1.2-1.6 1.6-1.3.7-3 2.3-3 2.8l-.2.6c-.2.4 0 1 .6 1.3l.4.3.4-.3c.2-.2.5-.5.7-.5l1.4-.9 1-.5a9 9 0 0 0 2.3-2.2 3 3 0 0 1 1-.9c1.1-.5 1.7-1.1 1.9-1.8.3-1.7-1.3-2.8-2.6-1.7m11.7.3l-.5.1h-.5l.6-.2c.3 0 .5 0 .4.1m-1.2.4c0 .1-1.5 1.5-1.8 1.6-.2 0-.8.4-1.2.8-.6.8-.7.8-.7.5 0-.6.6-1.2 1.8-2l1.3-.9c0-.1.6-.2.6 0m8.2 3c2 1.3 2.4 2.3 2 4.7a67 67 0 0 0-.4 3.8l-.2 1.3c0 .5-.2 1-.3 1l-.1 1-.3 1.5-.2 2.2v1.6l.5.5a16.8 16.8 0 0 0 2 1.6c.5.5 1 .8 1.6.8.8 0 1-.4 1.5-3 .2-1.2.2-1.2.5-.8a7.8 7.8 0 0 1 1.2 5.1c-.3 4.7-.3 5-1 5.6-.6.8-.7 1-.3 5.9l.2 5.8c0 1.8.5 2.8 1.6 4 1 1.1 1 1.1.6 1.3h-.5a.6.6 0 0 0-.4-.2.6.6 0 0 1-.4-.2.6.6 0 0 0-.5-.2.6.6 0 0 1-.4-.2c0-.2-.3-.3-.4-.3-.8 0-3.5-2.8-3.5-3.8l-.1-.6a20.3 20.3 0 0 1-.1-5.6l.1-.8.3-.8.2-.8.7-1.8.1-.4.3-.8a890 890 0 0 0 1-2.2c.6-1.4.7-1.6.6-2.6-.2-1-.2-1-1.4-1.4-.2 0-1 .3-1 .5l-.4 1.2a11.2 11.2 0 0 0-1 2.3v.2l-.3.3c-.1.4-.4.3-1.5-.7-1.6-1.6-1.6-1.5-1.8-2.7-.2-2.7-1.5-4.8-2.8-4.8h-.2l-.3-.3c-1-.3-2.1-3.2-2.4-5.7a5 5 0 0 0-.3-1.6l-.1-.6a8.1 8.1 0 0 0-1.6-2.6l-.5-.7-.6-.5-.8-.6-1-1c-.4-.3-.5-.4-.3-.8v-.6l.8.1c.4 0 1 .2 1.1.3l.8.2c.4 0 .6 0 .6.2h.2c.2 0 1.7 1.4 3.2 2.9 2.1 2.1 3.3 2.2 2.5.2-.2-.7-.1-1 .2-.7.3.3.8 0 1.3-.6l.8-.4.6-.2.7-.2c.6-.3.3-.9-.5-1.3-1-.4-1.4-1.3-1.1-2.8.1-.8.3-.8 1.2-.2m66.6 1.6c-.8.1-.8 1.8-.2 1.8l.8.3.6.3-.3.5-.4.6c-.2.3-.2.4 0 .7 0 .4 3.2.3 3.8 0 1.3-.8 1.1-2.1-.2-2.1-.2 0-.4-.1-.5-.4-.5-1.2-.6-1.3-1.1-1.6-.5-.2-1.7-.3-2.5-.1m-4.6 3.6l-.6.7h-1.2a4 4 0 0 0-1.7.2 1 1 0 0 1-.6.3c-.7 0-3 1-4.9 2-1.4.8-1 2.3.6 1.8l2.6-.4a26.9 26.9 0 0 0 6-.8c.5 0 2.4-1.6 2.4-2h.3a3.2 3.2 0 0 0 1.7-1c.4-.7-1-1.4-2.7-1.4h-1.4l-.5.6m-95.1 1.7c-1.7 1.5-2.6 2.1-3.4 2.3-1.2.2-2 .8-1.8 1.4 0 .3 0 .7-.2 1a1 1 0 0 0 1 1.6c.6 0 2-1 2.7-1.7a7.3 7.3 0 0 1 1-.8l1-.8 1-.9c1.5-1 1.7-1.7 1-2.6-.6-.8-.9-.7-2.3.5m103 1.3l-.8.2-1.2.2-1.3.3a122 122 0 0 0-5.1 1.2c-2.9.6-3.2.8-3.3 1.6-.2.8-.4 1.1-.8 1.2l-.8.2-2.6.6a4 4 0 0 0-1 .3 1.6 1.6 0 0 1-.7.1c-1.2 0-4.1 2.2-3.8 2.9.2.3.9.4 1 .1l.7-.1c.3 0 .8-.1 1-.3 1.1-.5 2.7 0 2.8 1 0 .6.5.8 1 .4a67.2 67.2 0 0 1 5.8-3.8l4.3-2.8c1.3-.8 1.8-.8 2.7-.5 1 .5 2-.1 3.4-2.1.6-.8 0-1.2-1.3-.7M84.7 150c-.6.1-2.7 2.4-2.9 2.9a1.1 1.1 0 0 1-.5.5l-1 .7c-1 .8-1.3 1.1-1.6 1.1-.2 0-.3.1-.3.2l-.6.5c-.8.3-1.3 1.3-1 1.6l.2.6c.4 1 .9 1.2 1.7.4l.4-.1 1-.6 1.2-.7c.3 0 .6-.3.8-.7a28.4 28.4 0 0 1 2.2-2.2l2-2.3.4-.5-.3-.6c-.4-1-1-1.2-1.7-.8m-28.2 1.6l-.4.1s-.1 0 0-.1l.3-.2s.2 0 0 .2m-.9.6l-.5.4-.4.2c-.2.1-.3.2-.4.1-.2 0-.2 0 0-.1.2 0 .5-.3.8-.5.2-.2.5-.5.7-.5l-.2.4m17 .3c-.8.2-1 .4-1.1 1.1-.2.7-.5 1.2-.8 1.2-.8 0-2.2 1-2.2 1.6l-.3.4c-.4.4-.8 1.3-.6 1.6.1.9 1.2 1.6 1.4 1l.2-.1c.2 0 .4-.3 1.6-1.2a25.6 25.6 0 0 0 1.4-1l1.6-1.3c.3-.5.8-.8 1-1 .6-.3 1-2 .3-2.1-.5-.2-2-.2-2.5-.2m-18.9 1.1c-.4.3-.8.4-.8.2s1-.8 1.2-.7c0 0 0 .3-.4.5m79.6.5c.3.5-.3 1.2-.8.8-.4-.2-.5-.9-.2-1 .4-.2.8 0 1 .2m-47 .4c-.5.6-.8 1-1.3 1.1-1.9.4-2.4 2.2-1.2 3.7.3.3.6.3 1-.1l.6-.4 1.4-1 .8-.7c.6-.2 1.4-1 1.4-1.5 0-1.5-2-2.3-2.7-1.1m40.5 2.9v.5l-.2.6-.1.5-.3 1.7v1.6l-.1-1.7-.3-1.8v-.6l.3-.7c0-.4.5-.5.7 0m-37.7 0c-.5.3-1.5 1.2-3.2 3a8 8 0 0 1-1.8 1.4c-2 1.3-2.7 2-2.7 3 0 1.3.8 1.9 1.7 1.3l1-.4c.9-.1 1.2-.5 1.8-1.8.5-1 1-1.7 1.3-1.7l.6-.4.7-.4c.8 0 2.7-1.8 2.7-2.6 0-1-1.3-1.8-2-1.3m-14.9 1.1a1.6 1.6 0 0 1-.8.4c-.6 0-1.8 1-2 2a1.1 1.1 0 0 1-.4.5c-.8.3-.4 2 .4 2A4.9 4.9 0 0 0 74 162l.6-.6c.3-.1.4-.3.4-.4l.3-.1c.2 0 1-1 1-1.4 0-.9-1.4-1.5-2-.8m64.3.4a1 1 0 0 0-.2.6c0 .4-.3.8-.4.8-.1-.2.2-1.6.4-1.7.3-.2.4 0 .2.3m-59.9.8c-.2.2-1.6 2-1.6 2.2 0 .2-1.1.9-1.4.9-1.7 0-3.3 3.4-2.1 4.3.5.5.6.5 2-1 1.2-1.2 2.3-2 2.8-2 .3 0 1-.8 1.5-1.4l.5-.7c1-.3 1-1 .3-1.7s-1.4-.8-2-.6m51.8 1.5v1.4a54.8 54.8 0 0 0-.6 1.8v-3.7c.2-.2.5 0 .6.5m43.1.8c0 .5-1.5 2-1.5 1.7 0-.1.1-.5 1-1.8.3-.5.7-.4.5.1m-111.1 1.1c1.1 1 1.4 1.5 1.4 1.6 0 .6-.5.2-1.8-1.1-2-2.1-1.7-2.4.4-.5m28.8-1c-.7.4-1.4 1-1.6 1.4-.1.2-.4.7-.8 1-.5.5-.6.7-.6 1.4 0 1.7.6 1.7 2.8 0l1-.6c1-.6 1.9-1.6 1.6-2.4-.4-1-1.3-1.3-2.4-.8m91.9.8l-.5.6-.4.7-.3.3a22.6 22.6 0 0 1-5.9 6.5c-1 .7-1.3.5-.8-.5.8-2.2.9-2.3.2-2.7-1.4-.9-2.6 0-5 3.6l-2 2.5c-1.1 1.1-4.8 2.4-4.8 1.6 0-.6 2.2-2.7 2.8-2.7l.2-.1.6-.3c.5 0 1.2-.6 1.2-.9 0-.2 3-3.4 3.2-3.4.4 0 2.8-2 4-3.1a22.5 22.5 0 0 1 2.3-2 16 16 0 0 1 5.2 0m-45.6 1.9c.6.2.4 1.1-.3 1.8-.6.7-.7.6-.4-1 .2-1 .2-1.1.8-.9m58.7.4a18.6 18.6 0 0 1 2.8 1.2l.6.5v2.3c0 1.4-.1 2.4-.3 2.9v5c.2.3.1.3-.8.3-1.3 0-2.1 1-2.6 2.8a209.2 209.2 0 0 0-1.4 5.6l-.7 1.3c-1.1 2.4-3.5 3.6-5.3 2.6l-.8-.5-1.7.1-2.9.4c-1.6.2-3.1.1-3.8-.4-.6-.4-1.1-.6-2.1-.8a60 60 0 0 1-4.5-1.3 10.5 10.5 0 0 0-4-1c-.9 0-1.2 0-2-.4l-1-.3a1.6 1.6 0 0 1-.8.2c-.3 0-.5 0-.8.4-.4.7-.3.8 2 1.8l.5.1 1.1.5a64 64 0 0 0 16.2 3.5c5.5.6 8.5 0 13.5-2.8 2.6-1.5 4.6-4 5-6.8l.2-1.3v-4.6a22.8 22.8 0 0 1 .1-7c0-.3.1-.7.3-.9l.1-.6c0-.8 1.3-.5 1.9.4.4.6.6.9 1.2 2.3l.6 2 .3.6.2.4.4.9.5 1 1.2 1c2 1.6 1.8 2.8-1.3 8.8a9.5 9.5 0 0 0-1 2.4 4.9 4.9 0 0 0-.3 2c0 1.9.2 2.2 1.4 2.2 1 0 1 .3.2 1.1l-1.3 1.1-.7.6h-1.8l-2.3 2.2a58.3 58.3 0 0 0-3.6 4 18.3 18.3 0 0 0-3.2 6c-.2 1.1-.8 1.4-3.5 1.4-1.6 0-2.3 0-2.4-.2l-1.6-.2c-.8 0-1.6-.2-2-.3a6.2 6.2 0 0 0-1.7-.2c-.5 0-1.1 0-1.4-.2l-1.6-.2-1.4-.2c-.5-.3-6.7-.5-7.7-.4-.8.3-1 .5-.4.7l.7.3.8.2 1 .3 2 .5.7.3a.9.9 0 0 0 .5.2c.2 0 .4 0 .6.2a.9.9 0 0 0 .6.2l.4.3.4.2c.2 0 1.6 1 1.6 1 0 .3-.6.5-2.8 1-.5.2-2.5.3-5.2.4-4 0-7.9.3-9 .5-.5 0-.7-.1-.3-.3.5-.2.1-.6-.6-.8a28.4 28.4 0 0 0-8.8.6c-1.3 0-2.9.6-3.8 1.5l-1.3 1-1 .4c-.7.4-1 .1-3.5-1.6a14.5 14.5 0 0 1-3.5-3.1l-.1-.3-.3-.6c0-.7-.4-1.2-.6-1.2l-.7-.6c-1.5-1.6-2-3.2-2-7.1 0-2.9-.3-3.7-1.1-4-1.7-1-2.4-.1-2 2.4a54.8 54.8 0 0 1 .6 5.4v3.1c0 2.6.4 3.4 1.3 3.5.4.1.5.2.5.5 0 .6.5 1.3 1.2 1.6l1.4 1.3c1 1 2 1.6 3.3 1.7 1.4.1 1.6.1 1.8.8.7 1.2 1 1.3 3.3.9.8-.2 1 0 .6.4l-.3.4.4.3c.7.6 2.4.6 2.8.2.2-.2 1.8-.2 2.2 0 .1.2.4.3.7.3l-.8.1c-.6 0-1.2.2-1.4.3l-1 .1-1 .3a1.6 1.6 0 0 1-.8.2l-.8.2-1.2.6c-1 .5-1.4 1-2.3 2.6-1.2 2.2-1.3 2.5-1.4 2.2l-.4-.9c-.2-.2-.2-.3 0-.5.1-.2.3-.4.3-.7s0-.6.2-.9c.1-.5-.2-1.8-.8-3a14.3 14.3 0 0 0-1.9-3.3c0-.3-1.6-2.2-2-2.2-.4 0-.6 0-.8.2-.1.3 0 3 .2 3.6.2.8.2 2.4 0 2.9-.5.8.2 1.6 1.5 1.6.8 0 1 .2.4 1a91 91 0 0 1-1.7 3.6l-.2.6c-.2.2-.2.6-.2 1 0 .3-.1.8-.3 1l-.1.9c0 .4-.4 1.2-.7 1.8l-.2.5c-.3.6-1.3.5-1.9-.1a10.5 10.5 0 0 1-1.6-3.3c-.2 0-.3-.4-.3-.7a15.4 15.4 0 0 1-.9-3l-.3-.7v-.5l-.3-.8c-.2-.3-.2-.7-.2-.8 0-.3-.1-.6-.3-.8l-.1-1c0-.3-.1-.6-.3-.7l-.2-.9c0-.3 0-.8-.2-1-.2-.3-.2-.9-.2-1.1 0-.4-.1-.9-.3-1.2l-.2-1.2c0-.4 0-1-.2-1.4l-.3-2.3a37.3 37.3 0 0 1 .5-14.4l.2-1.3a4.9 4.9 0 0 0 .3-1.5c0-.6 0-1.3.2-1.7.2-.6.2-1.3.2-4 0-3.8-.1-3.6 1-3.1 1.4.7 2.7 2.2 4 4.6 1.3 2.6 1.5 3.2 2.6 4 .5.3 1.2.7 1.5.7l.4.2c.4.4 1.3.2 1.7-.4.7-.7.6-.9-.6-1.4l-2.1-2c-.2-.1-.3-.7-.3-1.4 0-1.4-.4-2.3-1.8-3.8l-.7-.8c.2 0 1 .7 1.4 1l1 1.2a35.6 35.6 0 0 1 2.9 3.7 506.7 506.7 0 0 1 3.4 4.5c1.5 1.5 2 2.2 2.2 3 .1 1.5.8 2.1 2.3 2.1 1.2 0 1.2 0 1.2-1.4l.1-1a8 8 0 0 0 .6-2c0-.8.1-.8.6 0l.7 1 .3.4 1.1 1.2 1.2 1.2-.5.4c-1.1 1.1 0 2.5 3.4 4.2a88.5 88.5 0 0 1 2.3 1c.1 0 .4 0 .4.2l1.7.6c.3 0 .5.2.5.3l.5.1c.3 0 .6 0 .7.2.2.2.5.2.7.2l.8.2c.3.2.5.2.6 0l.6-.2c1 0 1.4-2.2.4-2.9l-.6-.3h-.2a22.3 22.3 0 0 0-3.9-2.5c-3.2-1.4-8.2-5.8-8.2-7.3 0 0-.1-.3-.4-.5a3 3 0 0 0-1.6-1l-.5-.4-1.3-.6a16 16 0 0 1-6-5.2 14 14 0 0 0-3.6-3.6.6.6 0 0 0-.5-.1.6.6 0 0 1-.4-.3l-.6-.2c-.2 0-.6 0-.9-.2l-1-.2h-.7l.4-.3c.3-.4 2-.5 2.2-.2l.4.2.7.2.6.2.6.2c.2.2.5.3.7.3.2 0 .4 0 .5.2l.6.2.6.2a.9.9 0 0 0 .5.3c.2 0 .4 0 .6.2l.6.2.5.2c.1.2.3.2.5.2s.5.1.7.3l.5.1.6.3c0 .2.3.2.5.2.1 0 .4 0 .5.2a.9.9 0 0 0 .6.2l.7.3c.8.4 2.3 0 2.7-.6.4-.6-.2-1.6-1.1-1.6-.2 0-.5 0-.7-.2l-.6-.2c-.2 0-.5 0-.6-.3a.8.8 0 0 0-.5-.1.8.8 0 0 1-.5-.3.6.6 0 0 0-.4-.2.6.6 0 0 1-.5-.2l-.4-.2c-.2 0-1-.7-1-.8 0-.5 4.7-.2 5.5.3l.6.2.7.2.6.2.6.2c.2.2.4.3.7.3.1 0 .4 0 .6.2l.6.2.5.2c.2.2.5.3.7.3.2 0 .4 0 .5.2l.8.2.6.2c.2.2.4.2.8.2.2 0 .6 0 .8.2.8.3 1-.8.5-1.7-.4-.6-.4-1 0-1 .6-.2 3.7 0 4 .1l.4.2.6.2c.1.2.5.3.6.3.3 0 .5 0 .6.2l.6.2.6.2c.3.3 2 .3 2.3 0a32.2 32.2 0 0 1 12.5-.2c.7 0 1.7.8 2.5 1.8 1.4 2 4.6 1.9 4.6-.1 0-1-1.6-3.6-2.3-3.6-.1 0-.2 0-.2-.2-.2-.3-1.4-.8-2.1-.8-1 0-1.8-.3-2-.8-.2-.2-.9-.5-1.4-.5a227 227 0 0 0-5.3-.5l-2.4-.2c-1.8 0-3-.2-3.8-.6l.4-.1 1.1-.4.9-.4a22.3 22.3 0 0 0 4-1.9 20.9 20.9 0 0 0 3.4-2.3l.8-.5a16.2 16.2 0 0 0 2-1.7 47.9 47.9 0 0 0 3-2.5 30 30 0 0 1 2.7-2.3c1.4-1 3.2-1.2 5.6-.5m-102.3.2a55.9 55.9 0 0 1-2.2 2c-1.7 1.3-1.8 1.5-1 3 .4.8 1.5 1 1.5.2l1.7-1.8c2-1.9 2.1-2.3 1.6-3-.4-.4-1.3-.7-1.6-.4m52.2 1a73.8 73.8 0 0 1-1.6 4.2c-.5 1.2-.7.7-.7-1.3 0-1.3 0-1.4 1.3-2.6 1.2-1.4 1.4-1.4 1-.4m-66.4-.6c-1.5.5-4.9 3.7-4.6 4.5.1 1 .8 1.2 1.7.6l.9-.4c3.2-1.6 4.9-5.6 2-4.7m77.3 1.1c-.4.8-.8 1.2-.8.8 0-.1 0-.3.2-.4a.9.9 0 0 0 .2-.5c0-.2.1-.5.3-.7.4-.3.5.2.1.8m56.4.3c0 .2.2.5.3.5l.1.2c0 .3-.9-.5-1-1-.3-.8-.1-1.1.2-.5l.4.8m-153 .4l-.2-.3c0-.3.3 0 .3.3m89.7 2.2a2.4 2.4 0 0 0-.2.8v.2c-.2 0-.3 0-.4.3-.4.8 0-1.8.5-2.9l.3-.5v.8c0 .5 0 1-.2 1.3m-66-1.7c-.6.2-1.1.8-2.2 2.7-.5 1-1.3 1.6-2 1.6-1 0-1.5 1.5-1 2.5.6 1 1 .8 2.7-.7a25.8 25.8 0 0 1 2.4-2l1.3-1c1.2-.8 1.4-1 1.4-1.8 0-1.2-1.3-1.8-2.6-1.3m-22.7.8l1 1.3.5.6.2.3a52.8 52.8 0 0 1 3.1 4l1.1 1.5a84 84 0 0 0 4 5.1l.3.7.4.6.6.9.7 1a24 24 0 0 1 1.4 2.5l.7 1 1.1 1.8.8 1.4h-.2l-.5-.7a20 20 0 0 0-2.6-3.5l-.8-1.2a55.2 55.2 0 0 1-3.6-5 15 15 0 0 0-1.6-2.4l-.7-1a54.8 54.8 0 0 1-3.1-4.2 117.6 117.6 0 0 1-3.3-5c-.1-.5.2-.4.5.2m68.6 1c.3.4.3 1 0 1.5s-.4.4-.4-.7c0-1 .1-1.2.4-.8m-33.8 1c-.7.7-.7.7-1.1.7l-.5.3-.4.1c-.6 0-1.3.7-1.3 1.3 0 .3 0 .8-.2 1-1.2 2.3 3.2 1.3 5.1-1.1.6-.7.7-1.3.3-1.6l-.5-.5c-.4-.6-.8-.7-1.4-.1m39 0c.1.4 0 1.2-.1 1.7l-.4 1.1c-.1 1.4-.6 1.5-.6 0 0-1.8.8-3.7 1.1-2.8m-66 1a9 9 0 0 1 .9 1.1l.5.6a52.2 52.2 0 0 1 4 5.9l.5.7.4.8s0 .2.2.2l.4.6a15.9 15.9 0 0 0 1.3 2 32.7 32.7 0 0 0 2 3.5l.2.3.3.5.3.5a65.8 65.8 0 0 1 2.6 4.9l-.5-.8-.5-.7-.6-1-2.1-3a50.2 50.2 0 0 1-2.8-4.3s-.1 0-.1-.2a4 4 0 0 0-.5-.9l-.7-1.3-.4-.4-.2-.4-.7-1.1a146 146 0 0 1-3.6-5.7l-1.5-2.4c0-.2.3 0 .7.5m70.5.3l-.2 1.2-.2 1-.1 1.3c-.2.3-.3 1-.3 1.4 0 1-.5 2-.8 2-.3 0-.6-.7-.5-.9l.2-.7.2-1 .4-1.3a55.6 55.6 0 0 1 1.3-3.9v1m-52.1-.6c-1.9.8-2.5 1.2-2.9 2-.4.8-1 1.3-1.6 1.6-2 1.1-3.5 2.9-2.7 3.6.2.4 2.2.3 2.5 0a.9.9 0 0 1 .5-.2c.3 0 1.3-1 1.7-1.6.1-.4.4-.6 1.2-1.2.3-.2.8-.5 1-.8l1.2-.8c2.4-1.6 1.6-3.7-1-2.6m11.2 2.8c-1 .2-3.3 2-3.3 2.6l-.2.1a4 4 0 0 0-.9.6l-1.3.8c-1 .4-2 1.6-2 2.5 0 1.2.8 1.7 1.7 1.2l.6-.2c.7 0 1.7-.7 2.5-1.6.8-1 2.4-2.2 3.6-3.1 1.8-1.2 1.9-3.3 0-3h-.7m115.6 1.5c.4.4.3 5.3 0 5.8l-.2.7c0 .3 0 .3-.2.2a21 21 0 0 1 0-4.2c0-2.2.1-3.8.2-3.4l.2.8m-125.3-.4c-.2.1-.5.6-.8 1.1-.3.6-.5 1-1 1.3a15.9 15.9 0 0 0-4 3.2c-.9 1.9.7 2.5 2.7 1.2l1.1-.7c1.2-.6 3.3-2.8 3.8-4.1.5-1.2-.8-2.6-1.8-2m39.3 4l.6 1 .2.4.3.5.1.5c.3.5.4 1.7.3 1.8-.2.2-.8-.2-1.6-1l-1-1c-.6-.5-.7-.6-.6-1l.3-1.5.1-1.1.4.3 1 1.2m-28.3-.5a41.7 41.7 0 0 0-2 1.7c-.6.3-.8.8-.9 2.1 0 1.6 1 1.7 2.4.2.5-.4 1-.8 1.3-.8l1.7-.8c1.6-1.9-.6-4-2.5-2.5m99.2 3c-.2.4-.3.1-.2-.4.1-.2.2-.3.2-.1v.5m-110.7.7l-.4.2-.8.5a3 3 0 0 1-1 .4c-1.3 0-2.3 2.4-1.6 3.3.8.8 1.6.8 2.7 0 1.3-1.2 2-1.7 2.7-2 1.6-.8 1.8-1.2 1-2.1-.6-.6-2.2-.8-2.6-.3m26.8.4c1.2.7 1.2 1.2 0 1.2-1.4 0-2.6-.8-2-1.4.3-.4 1-.4 2 .2m-22 2a12.2 12.2 0 0 0-1.6 1.5l-1.2 1.2a4.9 4.9 0 0 0-1 1c-2.7 3.6-.4 4.2 3.3 1 3.3-2.8 4-4.9 2.1-4.9H95c-.1-.3-.4-.2-1 .3m14.3.3l1 .3.8.1.9.3c.2 0 .7 0 .9.2l1 .2c.2 0 .5 0 .8.2a15.6 15.6 0 0 0 6.3-.4c2.7-.7 4 .2 6.2 4.2.8 1.6 1 4.2.3 5.8a2.4 2.4 0 0 0-.2.8l-.2.2-.2.3c0 .4 0 .4-1.6.4-1 0-1.9.1-2.4.3-1 .2-3.2.2-4 0-.3-.2-.7-.3-1-.3-.4 0-.9 0-1-.2a2.4 2.4 0 0 0-1-.2 1.6 1.6 0 0 1-.8-.2c-.1-.2-.4-.2-.7-.2s-.5 0-.5-.2l-.5-.2c-.5-.2.8-.2 2.7 0 1.7.2 1.6-1.3-.4-2.8 0-.2-.5-.2-.8-.2l-2-.7-.7-.2a.6.6 0 0 1-.4-.3.6.6 0 0 0-.4-.1.6.6 0 0 1-.5-.3l-.4-.2c-.1 0-1.3-.8-1.3-1 0-.2.6 0 3 .4 2.4.6 2.9.6 3.5 0 .8-.8.7-1.3-.5-1.8a422 422 0 0 1-1.6-.6l-1.8-.6c-4.2-1.5-5.4-2.3-5.1-3 .1-.3 1.9-.3 2.6 0M78 192.3v.2c-.2 0-.4-.6-.3-.8l.3.6m-21.2.2c-.2.1-.2.4.2 1 .5 1.2.3 1.9-1 2.6a6.5 6.5 0 0 0-.7.5l-.9.5-1.2.8-1 .6a109.3 109.3 0 0 0-7 4s-.2 0-.2.2c-.5.6-2.1.4-2.5-.4-.2-.4-.7-.7-1-.5v1.1l.8 1a141.1 141.1 0 0 0 5.5 9.4c.4.9 1 1.5 1.5 1.4a187.1 187.1 0 0 0 3.1-.9c1-.1 1.7-.5 1.7-.8 0-.4-.5-.7-.9-.5a5.7 5.7 0 0 1-2.6 0c-1.1-.4-2.4-1.7-3.5-4l-.8-1.1c-.6-1.3.1-2.1 3.1-3.6l.8-.4a7.3 7.3 0 0 1 .8-.5l.8-.5.5-.4 1.7-.8 1.6-1.1 1.4-.8c1.7-1 2.4-1 3.4.1 1.2 1.3 1.8.7.8-.8l-1-1.6-.6-1.1-.8-1.3c-1-1.9-1.4-2.3-2-2m170 2.9v1c.5.3.2.7-.7 1.3-3.9 3-4.3 8.4-.7 9.9l.5.4c.2.2 3.7.2 4 0a21.3 21.3 0 0 0 3.6-1.8c.1-.2 3.5-1.8 3.8-1.8 1.2 0 1.6 0 2.2.7l.8.6v1.2c0 3.4-3.5 5.6-6.7 4.2-.8-.3-1.4-.1-1.4.5 0 .2.8.8 1 .8l.4.2a44.7 44.7 0 0 0 3.6 2.3c.5.5 1.4-.3.8-.8-.4-.4-.3-.7 1.5-2.3 1-1 1.7-1.8 1.7-2l.3-.4.1-.4.3-.4c.5-.5.5-3.8-.1-5-1.2-2.3-4.5-3.5-6.7-2.3a100.4 100.4 0 0 1-4.4 2.3c-.2 0-.4.2-.4.3l-.4.2-.5.2-.5.2-.6.3c-.5.4-2.2.2-2.7-.3-.6-.6-.9-1.8-.6-2.7.2-.8 1.5-2.4 1.8-2.4l.4-.2c.4-.4 3.4-.4 4 0 .9.4 1.4.3 1.4-.3 0-.4-.4-.7-1.6-1.4l-.8-.4c-2.6-1.7-3-2-3.3-1.7m-15 5.5c0 .6-2.7 3.7-4.1 4.7l-.8.6-.5.4c-.3 0 .1-.6 2.6-2.9a44.8 44.8 0 0 0 2.7-3h.2m-94.9 1.4l1.4.2c1 .1 1.4.2 1.2.3 0 .3-2 .2-2.4 0-2.4-1-5.1.7-3.6 2.3.3.3.5.7.6 1.2a37.5 37.5 0 0 1 0 6.3c0-.3-.2-.4-.2-.5l-.2-.5-.3-.8-.6-1.8a66 66 0 0 0-.8-3l-.2-1.7c-.3-1.1 0-1.5.8-1.9a11.3 11.3 0 0 1 4.3-.1m7.3.1l-.5.2-.8-.2.7-.1.6.1m-28.2 1.3l2.1 1.8 1.1.8a46.2 46.2 0 0 0 5.7 3.8l1.1.7 1.2.6.2.1 1 .6c2.5 1.4 3 1.6 3.4 2l.3.7.4.8a9 9 0 0 1 .8 1.7c.2.3 0 .4-.3.2l-.4-.2-1-.4a60.8 60.8 0 0 0-1.7-.8 40.5 40.5 0 0 0-3.4-1.8 5.7 5.7 0 0 1-.7-.5l-.8-.5-1-.7-.4-.3a79.9 79.9 0 0 1-6.2-4.6l-1.6-1-1.8-1.4c-.5-.4-.5-.5.3-1.4.9-.8 1-.8 1.7-.2m-8.8.3c.7.5 1 .8 1 1 0 .2-1-.5-1.3-1-.4-.5-.3-.5.3 0m-23.2 1.6c-.2.2-.1.3.3.9.8 1.3.6 1.9-1.8 3.9a68 68 0 0 0-4.2 3.8c-2.2 2-3.6 3.7-3.6 4.4 0 .3 0 .5-.2.6-.3.2-.3 2.4 0 2.6l.2.6.8 1.7c1.8 2.6 3.3 3.8 5.6 4.3 2.5.6 4.3-.3 8.9-4.7l2.7-2.4 1.8-1.6h.8c.7 0 .8 0 .8.2s.3.6.7 1c.3.3.6.7.6.9 0 .2 0 .2.2.3.2.2.3 2 .2 6l-.1 4-.5.1-1.2.4-.9.2-.8.2c-.2 0-.6 0-.8.2a1.6 1.6 0 0 1-.8.3 1.6 1.6 0 0 0-.8.1 1.6 1.6 0 0 1-.8.3c-.3 0-.7 0-.9.2a6.5 6.5 0 0 1-3.2 0c-.8-.4-1.7-.4-1.7 0-.2.3 0 .7.3.7l.9.7.8.6.4.3c2.3 2 3.2 2.3 3.3 1.6 0-.2 0-.5-.2-.6-.7-.8-.7-1.7 0-1.7l.5-.1c.1-.1.4-.3.8-.3l.8-.1c.2-.2.5-.3.8-.3.2 0 .6 0 .8-.2.2-.1.5-.3.8-.3l.8-.1.8-.3h.4v2.5a25.6 25.6 0 0 1-.4 4c-.1.7-.5.8-1.3.4-.6-.2-1.2-.1-1.2.3 0 .3.8 1 1 1l.8.6a782.5 782.5 0 0 0 4 3c.9.9 1.5 0 .9-.8-.7-.8-1.1-2.7-.9-3.8l.3-4.3c0-3.8 0-4 1-4l1.1-.4c.3-.2.8-.3 1-.3l.5-.1.8-.2.9-.2c.8-.6 4-.8 5-.3.8.3 1.1.2 1.1-.4 0-.4-5-4.1-5.4-4-.4 0-.4.6 0 1.1.3.3.4.6.4 1 0 .3-.8.8-1.3.8l-.7.2-.8.2-.9.2c-.2.2-.6.3-.8.3a2 2 0 0 0-1 .2c-.5.3-.5.4-.4-2.4 0-3.2.5-4.5 1.3-3.6.2.4 1 .4 1.3.2.3-.2.1-.6-.5-1l-1-.9-1.1-.8-.8-.5-1.3-1-1-1-.5-.5-1.2-1.3c-2-2.3-2.8-3.1-3.2-3-.4.1-.4.6 0 1.2 1 1 .8 1.6-2.8 4.8a1705.9 1705.9 0 0 0-4.5 4c-2.5 2.1-5.5 2-7.4-.5-2.4-2.8-1.8-4.8 2.7-8.6l2.2-2c3.4-3.2 4.4-3.7 5.4-2.7.5.5 1 .6 1.3.3.1-.2 0-.6-.7-1.2a2.4 2.4 0 0 1-.5-.7l-1-1.2a30 30 0 0 1-2.8-3c-.3-.5-.8-.5-1 0m151.2 6.2c-.3.1-.2.6 0 1.2a13.7 13.7 0 0 1 1.1 2 178.5 178.5 0 0 1 4.5 8.9l.2.4.3.4.2.5c1.4 2.4 2.1 4.5 1.7 5.4-.5 1.4.4 1.6 1.4.3l1.4-1.7c1.3-1.4 1.6-2 1.3-2.4-.3-.2-.3-.2-.7 0-1.5 1.2-1.7 1-3-1.4-1-1.9-1-1.9-.3-2.6a31.6 31.6 0 0 0 2.4-2.9l.7-.8c.6-.7.8-.8 1.4-.5l.9.2c.1 0 .4 0 .5.2l.8.3.5.1a.4.4 0 0 0 .4.3c.5 0 .7 1.3.3 1.6-.4.3-.3.8.3.8.3 0 .6 0 1.5-1.2l1.7-2c1.2-1.3 1.7-2.2 1.6-2.4-.3-.5-.7-.5-1.2 0-.6.4-2 .5-2.7.2-.2-.2-.6-.2-.8-.2-.3 0-.5 0-.6-.2l-.6-.3-1.4-.4a125.7 125.7 0 0 0-7.5-2.2 1459.3 1459.3 0 0 1-5.2-1.6c-.4-.3-.8-.3-1 0m6 4.8l2 .6c2.1.5 2.1.6 1.2 1.7l-1 1.2a51.2 51.2 0 0 1-1.6 1.6 34.8 34.8 0 0 1-2.9-5.7l2.2.5m-10.3 1a35.2 35.2 0 0 1-2.7 2.4l-1 .8a21.5 21.5 0 0 0-2.7 2.2l-.5.5a69.9 69.9 0 0 1-3.1 2.6c-1.5 1.1-1.5.9.2 3.2 1.2 1.5 1.3 1.7 1.8 1.4.4-.2.3-.4 0-1.1-.3-.5-.5-.8-.5-1.5v-.9l1.2-1c.7-.7 1.4-1.3 1.6-1.3.4 0 .3-.2 2.7 2.7a255.4 255.4 0 0 0 6.2 7.3l.3.5c1 1.2 1.1 1.6.3 2.5-.6.6-.8 1.3-.3 1.3.3.1 1.6-.8 2.8-2l1.4-1.1c1.3-1 2-1.6 2-2.1 0-.6-.5-.6-1 0-.9.8-2.4.2-3.5-1.7l-.8-1-.8-.8a66.2 66.2 0 0 0-3.3-4 72.5 72.5 0 0 1-2.7-3.3c-.6-.6-.6-.8.3-1.5 1.9-1.6 3.2-2 4.3-1 1 .8 1.9.5 1.3-.4-1.6-2.2-3-3.3-3.5-2.7m-51.7.8c-.1.3-.4.6-1 .7-.6.1-.7 0-.3-.5.5-.8 1.6-.8 1.3-.3m-32.7 4c0 1-.5 1.1-.5.2-.1-.6 0-.6.3-.6.2 0 .2 0 .2.6m24.9 3.1c-.2 0-.7.6-1 1.2-1.8 2-2.4 2.3-3.7 1.9-.4 0-.3-.2 1.2-1l2.4-1.7c.8-.5 1.7-1 1-.4m45.4 3.5a907 907 0 0 0-4.7 3c-.3 0-.6.7-.5.9 0 .3.9.3 1.3 0 .8-.7 1.8-.2 2.7 1.4l.4.6.4.8.5.5.2.2a172.2 172.2 0 0 1 5.5 8.8c.5.4.3 1-.5 1.9-.7.5-.8.6-.6 1 .2.3.8.3 1 0l.7-.4.6-.5.7-.4.7-.5c0-.1 0-.2.2-.2l.8-.4 1.6-1c1.3-.8 1-1.8-.3-1.1-.6.2-1.7.2-2 0a131.2 131.2 0 0 1-6-9.3c-2.3-3.3-2.5-4-1.2-4.9.4-.3.6-.6.5-.8 0-.5-.7-.4-2 .4m-12 7.1l-.7.3a5.7 5.7 0 0 0-1.1.5l-1.1.4a.4.4 0 0 0-.4.2l-.4.2c-.4 0-5.5 2.4-5.6 2.7-.4.6.2 1 1 .6 1-.4 1.9 0 2.4 1.1l.3.6.1.4c0 .2 0 .4.2.4a27 27 0 0 0 1.1 2.4 273.2 273.2 0 0 1 3.4 7.2c.9 2 .9 2.2-.2 3-1.4 1-.9 1.7.7 1 4.9-2.2 6.2-2.9 6.2-3.2 0-.6-.5-.7-1.4-.4-1.3.5-1.6.1-3.6-4.2-1.2-2.7-.4-3.1 2.6-1.4a35 35 0 0 0 3.4 2l1.3.7c2.3 1.4 3 1.4 4.9.3l.5-.3c1.4-.5 2-1 1.7-1.3 0-.1-.9-.2-1.9-.2l-2-.2a32 32 0 0 0-2.8-1.4 27.9 27.9 0 0 0-2-1.2 18.7 18.7 0 0 0-1.6-1 .7.7 0 0 0-.5-.2c-.3 0-.2-.1.4-.9 1-1 1-1.1 1-1.5l.4-.5c.8-1-.7-5.3-1.8-5.3l-.2-.2-.4-.2-.8-.4c-.5-.2-2.4-.2-3 0m-83.7.5c-.2.3-.1.8.1 1 .9.2 1.4.6 1.5.8a4 4 0 0 1-.3 2.2l-.3.6-.2.7-.6 1.4-.1.5-.2.5a.9.9 0 0 1-.2.6.8.8 0 0 0-.3.5l-.1.5a1 1 0 0 0-.3.7c0 .2 0 .5-.2.6l-.3.4-.1.7-.3.6-.2.5a.8.8 0 0 0-.3.5l-.1.6a.9.9 0 0 0-.3.5l-.2.7-.4 1c-.5.8-1.2 1-2.4.6-.2 0-.7.2-.7.6 0 .4 0 .3 4.6 2a59.5 59.5 0 0 1 5 2l.8.2.5.2c.1.2.4.3.6.3l.5.1c0 .2.3.3.6.3l.4.1c.1.4.6.2 1.2-.4 2.7-3.1 2.8-3.4 2.2-3.7-.3-.2-.4 0-1.6.8l-1.4.8h-1.2l-1.8-.1c-1-.5-1.6-.8-1.9-.8l-.6-.2-1-.5c-1-.4-1-1.1 0-2.8v-.8c0-.1 0-.2.2-.2l.3-.5.2-.8.3-.6.1-.4.2-.4c0-.5.5-1 .8-.7l.6.2.8.3a469.2 469.2 0 0 1 2.4 1.1c.7 0 1.1 1 1 2-.3 1 0 1.6.5 1.3.4-.3.5-.5 1.7-3.4 1-3 1-3 .5-3.1-.4 0-1 .2-1 .5 0 .9-1.7 1.5-2.4 1a1 1 0 0 0-.6-.2.9.9 0 0 1-.6-.3l-.5-.1-.7-.3-1-.5c-.5-.2-.7-.6-.4-.8l.2-.5c0-.1 0-.4.2-.4l.3-.6.1-.6a.9.9 0 0 0 .3-.5l.2-.7a468.6 468.6 0 0 1 .7-1.6c0-.6 2-.3 2.6.2l.3.2c.5 0 3.2 1.3 3.5 1.6.3.3.4.6.4 1.6l.1 1.3c.2.4.8.4.8 0l.3-.6.2-.7c0-.2.1-.5.3-.6l.2-.7v-.5c.9-.5 0-1-2.7-2a69.8 69.8 0 0 1-6-2.3l-.6-.3-.6-.1-.5-.3-.7-.2-.7-.2a.8.8 0 0 1-.5-.2c-.2-.3-1-.3-1.2-.2m85 2.3c.7.5 1.4 1.4 1.4 1.6l.3.7c.6 1.3-.6 3.4-2.5 4.5-1.2.6-1.1.6-1.6-.4a143.8 143.8 0 0 0-2.4-5.2c-.2-.4-.3-.3 1.2-1.1 1.2-.8 2.7-.8 3.6 0m-12.8 2l-1.8.4a30.9 30.9 0 0 1-2.5.6 3.2 3.2 0 0 1-.8.3l-2.4.7-.8.2c-.2 0-.6 0-.8.2l-1 .3h-.6l-.7.3a19 19 0 0 1-5.2.8c-2.2.2-2.5.2-2.5.8 0 .2.8.7 1.2.8.8 0 1 1.2.5 2.5l-.4 1.4-.5 1.3-.1.7-.2.8a1 1 0 0 0-.2.6c0 .3-.1.5-.3.7l-.2.6-.2.8a1 1 0 0 0-.2.7c0 .2-.1.5-.3.6l-.2.8c0 .3 0 .5-.2.7l-.2.6v.4l-.2-.3-.3-.5-.5-.9a131.4 131.4 0 0 0-2.4-4.6c-.4-.4-2.5-4.7-2.6-5.3-.2-.7.3-1.3 1-1.3.5 0 .9-.5.4-.8-.3-.3-4-.2-4.3 0-.1.2-.8.3-1.6.3l-1.7.1c-.2.4 0 .9.4.9 1 .2 2.1 1 2.1 1.4l.3.3.2.5c0 .2.1.3.3.4l.1.3.2.4.6 1.1a229 229 0 0 0 6.3 11.6c.8 1.7 1.5 2 1.8 1.1l.3-.6.1-.7c0-.2.1-.5.3-.6l.2-.7.2-.8c.2 0 .2-.4.2-.6 0-.4.1-.6.3-.8l.2-.5.2-.8.2-.7c0-.1.1-.5.3-.6l.2-.8c0-.2 0-.5.2-.7l.2-.7c0-.2.1-.5.3-.7l.2-.6c0-.3 0-.6.2-.8l.2-.8c0-.2 0-.4.2-.4l.2-.7.2-.6.1-.5c0-.3.1-.6.3-.7l.2-.6c0-.4.3-1 .8-1.8.3-.4 1.3-1 1.7-1l.8-.1c.5-.4 1.4 0 1.4.5l.3.4.1.7.3.8.2.8.3.9a15.1 15.1 0 0 1 .8 3l.1.7c0 .4.2.8.3.8l.2.8.2.9.2.8c0 .4.2.8.3.8l.1.5c0 .3.1.7.3 1 .5 1.1 0 3-1.2 3-.4 0-.6.3-.5.6 0 .5 1 .5 1.6.2l.8-.2c.2 0 .6-.1.8-.3l.8-.1.8-.3 1-.2c.2 0 .5 0 .7-.3l.8-.1c.4 0 .6 0 .7-.2l2.3-.5a2.4 2.4 0 0 0 .8-.4l.6-.1a2.4 2.4 0 0 0 1-.3l.8-.1c.6 0 .8-.4.8-1.7l.2-2.1c.3-1.3.2-1.7-.4-1.7-.4 0-.8.7-.8 1.3 0 .3-.2.5-.3.7l-.2.5c0 .8-2.3 2.4-3.4 2.4h-.4l-.8.3c-.4 0-.8.2-.8.3-.6.4-2.3.2-2.3-.4 0-.1 0-.5-.2-.8-.2-.1-.2-.5-.2-.8l-.3-.8-.1-.7-.3-.8-.2-.8-.3-.9c-.3-.6 0-1 .8-1 .4 0 .9-.2.9-.3l.8-.3.8-.1c.9-.8 3 0 3 1 0 .6 1 1 1.3.3l-1.2-4.7c-.6-2.3-1.4-2.5-1.4-.3 0 1-.7 1.9-1.4 1.9l-.7.2-.8.2-1 .2c-1.6.6-1.6.6-1.9-.1l-.2-1-.2-.6-.2-.9c0-.3-.2-.7-.3-.8l-.1-.8-.3-.8c-.5-.3.3-1.4 1-1.4l1-.2 3.8-.9c.7 0 1.6.5 2 1.2.7 1.3 1.8 1.3 1.4 0l-.6-1.8c-.5-1.5-.6-1.6-1.4-1.6m-57.2 2a2.4 2.4 0 0 0-.4 1c0 .2 0 .6-.2.7l-.2 1-.1.7c-.3.2-.1.8.2.9.4 0 1-.5 1-.9 0-.2.2-.6.6-1l.7-.7h1.2c1.5.2 2.8.5 2.8.8l-1 5.4a369.1 369.1 0 0 0-1.6 8.1c-.1 1.6-.7 2-1.9 2-.8 0-1 0-1 .3 0 .5.3.8 1 .8l1.1.1c.4.2.8.3 1.3.3s.8 0 1 .2l1 .3 1.4.1c.6.4 1 .3 1.3-.1 0-.4-.2-.7-.5-.7-1.3 0-1.9-1.5-1.3-3.5l.2-1.1.2-1.3.5-2.1 1.2-6.5c.3-2 .3-1.8 1.4-1.8.4 0 .8.2 1 .3l.7.1.6.3.2.1c.5 0 1.2 1.2 1.2 2 0 2.3 1.2 1.7 1.4-.8 0-.7.2-1.5.3-1.8 0-.7-.3-1-2-1.3a1380 1380 0 0 0-7.3-1.4l-1.6-.2-1-.3-.8-.1-1-.3c-.9-.3-1.3-.3-1.6.4"/>
</svg>
