<svg xmlns="http://www.w3.org/2000/svg" width="274.3" height="447.7" display="block">
  <g fill-rule="evenodd">
    <path fill="#fff" d="M137.5 147.2l-3 9.3-3 9h-9.8c-8.4 0-9.7 0-9.3.5a292.9 292.9 0 0 0 15 11c.2.3.1.6-3.3 11.4-1.3 4-2.3 7.3-2.2 7.4l7.7-5.4c4.1-3 7.7-5.6 7.9-5.6.2-.1 2.4 1.3 4.8 3 8.9 6.4 11.2 8.1 11.3 8l-2.8-9-2.9-9.3c0-.3 5.8-4.7 14.5-11l1-.8-9.7-.2-9.8-.1-3-8.8-3-9.3c-.1-.2-.3-.3-.4-.1m66 61l-3.2 9.3-3 9-9.7.1-9.8.1 7.8 5.8 7.9 5.9-1 3.4c-4 12-4.8 15-4.7 15l7.7-5.4 7.9-5.6c.2 0 3.6 2.2 7.5 5 8.6 6.2 8.8 6.4 8.6 5.8a2490.5 2490.5 0 0 1-5.7-18c0-.4 2.5-2.3 12.9-9.9l2.7-2-9.8-.1-9.8-.2-3-8.8c-3.4-10.5-3.1-9.7-3.4-9.4M70.3 225.1l-3.2 9.3-2.8 8.6h-9.8l-9.8.1 7.9 5.8c5.4 4 7.8 6 7.8 6.2a1589.8 1589.8 0 0 1-5.7 17.6l-.1.8 1-.8 14.7-10.5a66 66 0 0 1 7.5 5l8 5.7.8.5-.3-.9a1928 1928 0 0 1-5.6-17.4c-.2-.4.7-1.1 12.3-9.5l3.3-2.5-9.8-.1-9.8-.2-3-9.2c-2.7-8-3.2-9.2-3.4-8.5m103.9 53.7l-1.5 4.6h-4.9l-4.8.1 3.3 2.5 3.9 2.9c.5.4.5.5-.7 4.2-2 6.2-2.2 5.9 2.2 2.7 2.3-1.6 4-2.7 4.3-2.6.2 0 2 1.2 3.7 2.6 4 2.8 4 2.9 4 2.4l-1.5-4.3-1.3-4.3c0-.2 1.7-1.6 3.8-3.2l4-2.9-5-.1-4.9-.2-1.4-4.3-1.6-4.5s-.8 1.9-1.6 4.4M134.6 363l-3.1 9.4h-9.9l-9.9.1 7.9 5.8 8 5.8s-.2 1-3.2 10.3l-2.5 8.3 8-5.6 7.8-5.6 1.5 1.1a278 278 0 0 0 14.3 10.1l-.4-1.8c-4-12-5.2-16-5.2-16.4 0-.3 3.5-3 7.7-6 4.3-3.2 7.8-5.8 7.8-6l-9.8-.1h-9.8l-3-9.4-3.1-9.3-3.1 9.3"/>
    <path fill="#fdb827" d="M127 .5l.5 2.2a74.7 74.7 0 0 1 1.9 6c.6 2 .3 1.9 3.6 1.4l1.6-.2-.2-1.8a43 43 0 0 0-1-6.5l-.1-1.6H130c-2.7 0-3.1 0-3.1.5m8.8 4.4v4.8H141.5V0h-5.8v4.9m8.6-3c-.8 4.2-1 5-1.1 6.5l-.2 1.5 1.3.2 2.5.4c.8.1 1.1 0 1.1-.2A67.6 67.6 0 0 1 151 0l-3-.1h-3.2l-.4 1.9M118.5.5c-2.1.1-2.4.3-1.9.9l1.2 2 1.8 3.4 2 3.4c1.8 3.3 1.3 3 3.9 2 2.7-1 2.7-.4-.4-6.8-2.5-5-2.6-5-3.4-5l-3.2.1m37.1.2c-.7.9-5.3 10.3-5.2 10.6 0 .2 1.1.7 2.3 1.1l2.2.9.4-.6a102.4 102.4 0 0 1 2.2-4.1L159 6a30 30 0 0 1 2.3-4c.8-.9.3-1.4-1.5-1.4-1 0-2.2 0-2.8-.2-.7-.1-1.2 0-1.4.3m-48 .7c-1.2.2-.9 1.6.9 3.2l.9 1.2 1 1.5c1.3 1.5 6.3 8.4 6.5 8.7.3.8 4-1 4-1.9a54 54 0 0 0-4-6.4c0-.2-1-1.7-2-3.4l-2-3h-2.2a42 42 0 0 0-3.1.1M163 5l-4.3 6.6-1.8 2.9.9.7c1.8 1.4 2.9 1.8 3.2 1.2l.7-.9 1.9-2.5a36.7 36.7 0 0 1 2.5-3.5l1-1.2.9-1.2.9-1.2c.5-.5 2.7-3.6 2.7-3.9 0-.4-2.1-.7-4.5-.7h-1.8L163 5M98.7 2.1l-2.7.5c-2.3.2-2.8.6-2 1.2.4.3 1 .6 1.1.8A63.7 63.7 0 0 0 99.2 8a83.7 83.7 0 0 0 7 5.8 97 97 0 0 0 6.5 5.6l.9.7 1-1c1.2-1.2 1.3-1.6.7-2.2a122.6 122.6 0 0 1-4.6-5.2L108 8.5a175.7 175.7 0 0 0-5.5-6.5c0-.2-2.3-.2-3.7.1m77.4.3a6700.4 6700.4 0 0 0-13 14.9l-.7 1 1 1c.6.6 1.1 1 1.3 1A591.3 591.3 0 0 1 179.9 8l1.6-1.4a54 54 0 0 1 2.2-1.7c1.7-1.3 1.6-1.7-.3-1.9-2-.2-5.7-.7-6.4-1-.2 0-.6.2-.9.5m-90 2a152.7 152.7 0 0 1-9 1.7c-3.2.6-4.8 1-4.8 1.1a470 470 0 0 0 37 18l.7-1 1.2-1.4.7-1-.6-.5-1.4-1A625.4 625.4 0 0 1 96 10 173.7 173.7 0 0 1 90 5.8c-2-1.5-2.5-1.6-4-1.4m102.5 1a97.3 97.3 0 0 0-5.3 4 63.1 63.1 0 0 0-4.6 3.4l-1.3.9a70.7 70.7 0 0 1-5.8 4.2l-1.2 1-1.2.8-1.3.9c-2.1 1.3-2 1.6.9 5.2.1.2 37.1-18.3 37.1-18.5 0-.3-1.8-.8-4.4-1.2l-5.1-1c-6-1-5.9-1-7.8.4M57 10.4l-5.8 2c-5.1 1.7-5.7 1.2 6.5 5A535.4 535.4 0 0 0 77 23.2a693.8 693.8 0 0 0 23.8 7.3 69 69 0 0 0 4.6 1.4c.4.2.6-.2 1-1.4.4-.9.7-1.8.9-2 .3-.3-1.9-1.5-5.7-2.9a723.3 723.3 0 0 1-26.3-10.5 140.1 140.1 0 0 0-15.1-5.7c-.5 0-2 .4-3.2.9M215 10l-1.8 1a1 1 0 0 1-.6.1 55 55 0 0 0-10 4 8 8 0 0 0-1.6.6l-1.6.6a149.8 149.8 0 0 1-8.9 3.6 371.4 371.4 0 0 0-14.5 5.8c-.2 0-.5.1-.7.3l-2.5 1.1-2.4 1.1c-.3.5 1.5 4 2 3.7l2-.6a364.5 364.5 0 0 1 11.2-3.4l6-1.9a587.9 587.9 0 0 0 17-5.2 485.8 485.8 0 0 0 14.2-4.4c8.9-2.7 8.7-2.5 4.6-3.9l-5.6-2c-3.5-1.2-4.8-1.3-6.8-.5M27.3 21c-11.7 5.6-11.1 5.2-8.7 5.5A564.1 564.1 0 0 1 38.1 29a745.1 745.1 0 0 1 24.6 3.2A691.3 691.3 0 0 1 76.5 34l5 .6a902.4 902.4 0 0 1 13.7 1.8l4.6.7 3.4.2h1.2l.3-1.4.5-1.9c.2-.5.2-.5-8-2.1a574.2 574.2 0 0 1-11.7-2.3A681.6 681.6 0 0 1 61.2 25l-3.2-.6A1360.4 1360.4 0 0 0 31.2 19L27.3 21m216.8-1.4a419 419 0 0 1-15 2.9 197.1 197.1 0 0 1-9.3 1.8 185 185 0 0 1-6.1 1.2 500.3 500.3 0 0 1-19.6 3.8 145.8 145.8 0 0 0-10.3 2 671.1 671.1 0 0 0-9.4 1.8c-2 .4-2 .4-1.5 2.7l.4 1.6h1.3l3.5-.3 4.6-.7a1009.5 1009.5 0 0 1 23.2-3 6101 6101 0 0 0 23.1-3l4.9-.6a1222.8 1222.8 0 0 1 16.8-2.2l8.6-1c2.5-.4 2.7-.2-5-4a55 55 0 0 0-7.9-3.4l-2.3.4M0 41.6V47l4.4-.3a2764 2764 0 0 1 55.8-2 8011.8 8011.8 0 0 1 43.5-1.6l.2-2.2.3-2.1-7.9-.2a10776.3 10776.3 0 0 0-87.5-2L0 36.4v5.2m269.3-5l-26.6.6-60.5 1.3-8.5.2v4.1l1 .2 10.1.4a4077.8 4077.8 0 0 1 53 2c18.1.6 27.4 1 32.3 1.3l4.2.2V36.4h-2.4a19 19 0 0 0-2.6.2m-167.4 7.8a283.5 283.5 0 0 1-16.7 2A611.7 611.7 0 0 1 66.4 49a611.1 611.1 0 0 1-18.7 2.4A779.3 779.3 0 0 1 27.3 54a533.7 533.7 0 0 0-14.6 1.8c-1.8.3-1.7.5 1.1 2a147.5 147.5 0 0 1 6.9 3.8l3.7 2.2c1.4.8 1.4.8 5.2 0a516.4 516.4 0 0 1 20.6-4c.8 0 2-.3 2.9-.4A297.8 297.8 0 0 0 64 57a501.1 501.1 0 0 1 16.2-3.2 779.3 779.3 0 0 0 22.8-4.4l1.3-.3-.3-2.4a1610.3 1610.3 0 0 0-.4-2.7l-1.8.3m71.7 1.7c0 1.2-.2 2.3-.3 2.6-.2.5.5.6 9.2 2.3a349.2 349.2 0 0 1 11.7 2.3 216.6 216.6 0 0 1 15 2.9 660.9 660.9 0 0 1 20.3 4 276.8 276.8 0 0 0 11 2c11 2.3 13.4 2.5 13.4 1.2a68.5 68.5 0 0 0 9.4-5.2c4-2.1 4-2.3.9-2.6l-4.7-.6a1269.5 1269.5 0 0 0-26.8-3.4 576.8 576.8 0 0 1-18.9-2.4l-4.8-.6-4.4-.6a1792.3 1792.3 0 0 0-30-3.8c-.8-.2-.8-.2-1 2m-.9 5.2l-.6 1.8c-.8 2.2-.8 2.2 2 3.4a98.7 98.7 0 0 0 5.3 2.2l2 .9a128.4 128.4 0 0 0 8 3.2 49.4 49.4 0 0 1 4.4 1.8l2.8 1.2a461.3 461.3 0 0 0 20.1 8.2l2 .9 1.6.6 3-1a988 988 0 0 0 13.6-4.5 312.5 312.5 0 0 0-12.7-3.9 7313.4 7313.4 0 0 1-49-14.6c-2.4-.7-2.4-.7-2.5-.2m-71.4.9l-4 1.2A899.3 899.3 0 0 0 70 61.7a638.9 638.9 0 0 0-26.9 8c-2.6.8-2.6.9-.2 1.7a3232.2 3232.2 0 0 1 13.2 4.1c1.3.4 1.4.4 5.3-1.2A100.5 100.5 0 0 1 67 72l2.7-1.2 1.6-.6a106.8 106.8 0 0 0 9.7-4 93.6 93.6 0 0 1 7.8-3.3 101.7 101.7 0 0 1 8.1-3.3l3-1.3 5-2c1.3-.7 1.4-.8 1.2-1.6-.3-1.3-1.3-3.4-1.5-3.3l-3.3.9m67.5 7.8c-1.1 1.7-1.4 2.5-.9 2.5l.8.5a48 48 0 0 0 6 4.2l5.4 3.9 10 6.8 5 3.5 1.2-.4a87.7 87.7 0 0 1 8.5-1.8l2-.4c1.3-.1 1-.7-.6-1.5a317 317 0 0 1-10.9-5.8 712.4 712.4 0 0 1-14.4-7.7l-6-3.1c-5.5-3-4.7-2.9-6.1-.7m-63-.5l-4.2 2.2a673.7 673.7 0 0 0-18 9.6 603.4 603.4 0 0 0-13.1 7c-.4.5-.3.6 2.7 1.2a267 267 0 0 1 8.5 1.8c1.3.2 3.7-.8 4.9-2.1l1.5-1.1a199.7 199.7 0 0 0 10.5-7.4 364.7 364.7 0 0 0 10.7-7.6c1-.7 1-.9-.4-3.2-1-1.6-1-1.6-3.2-.4m58.5 6.2c-1.7 1.8-1.7 2-.1 3.8a145.2 145.2 0 0 1 5.7 6.3A115.3 115.3 0 0 1 176 83c.9 1 1 1.1 2.1 1l3-.5c5.5-.8 6.7-1.2 5.6-1.5l-6.5-5.6A658.9 658.9 0 0 0 167 65c-.7-.8-1.2-.6-2.8 1m-53.5-.2a453.2 453.2 0 0 0-11.7 10 170.8 170.8 0 0 1-6.6 5.9L91 82.9l1.2.2 6.6 1 2.1.4 1.3-1.3a179.7 179.7 0 0 0 7.8-8.8 89 89 0 0 1 2.4-2.7c3.3-3.2 3.4-3.6 1.5-5.5-1.8-1.8-1.7-1.8-3.2-.5m48.2 4.5c-2.3 1.6-2.4 1.2 1.1 6.4a73 73 0 0 1 4.5 7l1 1.7 3.2-.1 3.8-.3.6-.2-.8-1.3a124.2 124.2 0 0 0-6.4-8.4l-2.4-3c-2.6-3.5-2.2-3.4-4.6-1.8m-43.3.8a35.8 35.8 0 0 1-2.6 3.4 12 12 0 0 1-1 1.2l-.8 1.2-1.2 1.6c-1.9 2.3-4.8 6.5-4.7 6.7l3.5.5 3.3.2 1-1.5a639.2 639.2 0 0 0 6.6-9.8l.6-1.1c.2-.5.5-.8.6-.8.9 0 0-1-1.7-2.1-2.4-1.5-2.2-1.6-3.6.5m38 2.2l-1.8.7c-.8.3-.4 1.8 1.9 7.3a30.5 30.5 0 0 1 1.2 3.4l.4 1.1c.2.8.3.8 1.8.7 2-.2 4.9-.7 5-.9.1 0-.9-2.1-2-4a264.8 264.8 0 0 1-4.3-7.6c-.8-1.5-.7-1.5-2.3-.7m-31.8 2.6a2296.7 2296.7 0 0 0-4.1 7c-2.1 3.4-2.2 3.3 3 3.5l2.5.1.5-1.5a552 552 0 0 0 3-8c1-1.8.7-2.3-.9-3-2.3-1-2.4-1-4 2m24.1-.4l-2 .6c-.2.1.5 9.4.7 10 .1.4.8.5 3.3.5h3.2L151 85a96.7 96.7 0 0 0-1.7-9c-.2-1.2-.2-1.3-3.4-.6m-16.8.2l-.3 1.3a181.8 181.8 0 0 1-1.7 8.3l-.2 1.3h6.8l.2-2c0-1.2.3-3.3.5-4.8.4-3.7.5-3.4-1.3-3.8-3.3-.7-4-.7-4-.3m7.4 5.7v5.2h5.1V76.2h-5.1v5.2M0 249.6c0 111.8.2 144.1.5 146 2.8 18.7 10.9 23.2 63.3 35.6a5153 5153 0 0 0 70.5 15.9l3.1.6 2.7-.6a1885 1885 0 0 0 32.6-7.6 987 987 0 0 0 38-9.3A3503 3503 0 0 0 235 424c30.7-8.2 37.3-13.6 38.3-31.4.1-3 .3-65.2.3-145.9V106H0l.1 143.6m246.8 6c0 133.8.2 125.1-1.7 129.7-2 5.2-6.3 8.7-14.6 12-6 2.3-10.3 3.6-29.7 8.8l-12 3.2a1959.9 1959.9 0 0 1-48.9 12.2c-2 .5-2 .5-5.4-.3a7553.2 7553.2 0 0 0-34.5-8C40 399 32 395.4 28.8 381l-.7-3V255.7l-.2-122.4h219v122.4"/>
    <path fill="#00529b" d="M137.6 20.4l-2.4 7-2.3 7-7.3.2h-7.3l-.4 1.2c-.3 1-.3 1.2.2 1.5l1 .8a48 48 0 0 0 4.5 3.2l3 2.1c2 1.5 2.8 2 2.6 2.4l-4.2 12-1 2.9.7.6c1.1 1.1 1.3 1 7.3-3.5L136 55l3-2.2 1.5 1.2a27 27 0 0 1 3 2.2l1.5 1.1 6 4.5c.3.2 2.5-.9 2.5-1.3L150 50.4l-1.5-4.5 4-2.6a179 179 0 0 0 7.1-4.8c1.4-.8 1.9-1.3 1.8-1.6a13 13 0 0 1-.4-1.2c-.2-.8-.2-.8-3.6-.8-1.9 0-5.3 0-7.5-.2l-4.1-.2-.7-1.4-.6-1.6-1-2.2-.8-2.2a8 8 0 0 0-.6-1.5l-.7-1.5-.4-1.2-.7-1.7c-.3-.7-2.7-1.4-2.8-.8M-4.2 248c0 161.3-.2 151 2 157.4 3 9.5 12 16 29 20.8a1667.8 1667.8 0 0 0 9.4 2.7 961.4 961.4 0 0 0 47.2 11.3 513 513 0 0 0 21.8 4.9 503.4 503.4 0 0 0 16.4 3.6l2.8.6a1055 1055 0 0 1 11.5 2.4c1.8.3 3.5 0 11.4-1.8a1213.5 1213.5 0 0 1 25-5.9l6-1.4a494.7 494.7 0 0 0 25-6 77.7 77.7 0 0 1 8.1-2l5.4-1.4 27.5-7.1a98.4 98.4 0 0 0 20.7-7.8 24 24 0 0 0 6.3-4.6c2.7-2.7 4.5-5.9 5.4-9.5l.7-2.6c.3-1 .4-30.7.4-150.6l.1-149.2H-4.2V248m277.9-1.2c0 80.7-.2 143-.3 146-1 17.7-7.6 23.1-38.3 31.3a3503 3503 0 0 1-94.9 23.1l-2.7.6-3-.6c-26.6-5.5-85.5-19.2-98-22.8-23.8-6.7-32-12.4-35-23.8-1.4-5.7-1.3.6-1.4-151L0 106H273.7v140.7m-245.7 9l.1 122.3.7 3c3.3 14.4 11.2 18 71.3 32.2a14970.8 14970.8 0 0 1 34.5 8c3.4.8 3.5.8 5.4.3l12.2-3a1959.9 1959.9 0 0 0 69.2-18c17.8-5.5 23.3-9.9 25-19.8.5-2.3.5-17.4.5-125V133.3H28l.1 122.4m113-99.1l2.9 8.8 9.8.1 9.8.2-1 .7a182.6 182.6 0 0 0-14.6 11l2.9 9.4 2.8 9c-.1.1-2.4-1.6-11.3-8a28.4 28.4 0 0 0-4.8-3c-.2 0-3.8 2.6-8 5.6l-7.6 5.4c-.1-.1.9-3.4 2.2-7.4 3.4-10.8 3.5-11 3.3-11.3a621.5 621.5 0 0 0-15-11.1c-.4-.4.9-.5 9.3-.5h9.8l3-9c3.1-9.8 3.1-9.8 3.4-9.2l3 9.3m66 61l2.9 8.8 9.8.2 9.8.1-2.7 2a110.9 110.9 0 0 0-12.9 9.8l.6 2.2a1681 1681 0 0 1 5 16c.3.5 0 .3-8.5-5.9-4-2.8-7.3-5-7.5-5-.2 0-3.8 2.6-8 5.6a157 157 0 0 1-7.6 5.4 235.4 235.4 0 0 1 5.7-18.4l-7.9-6-7.8-5.7h9.8l9.8-.1 3-9 3-9.4c.3-.3 0-1.1 3.4 9.4M86.5 243l9.8.1-3.3 2.5c-11.6 8.4-12.5 9-12.3 9.5a905.5 905.5 0 0 1 5.6 17.4l.3 1-.9-.6-7.9-5.7a66 66 0 0 0-7.5-5l-14.7 10.5-1 .8.1-.8a329.8 329.8 0 0 1 5.7-17.6c0-.3-2.4-2.3-7.8-6.2l-7.9-5.8h9.8l9.8-.1 2.8-8.6 3.2-9.3c.2-.7.7.5 3.3 8.5l3.1 9.2 9.8.2m90.9 35.9l1.4 4.3 5 .2 4.9.1-4 2.9c-2.1 1.6-3.9 3-3.8 3.2l1.3 4.2 1.4 4.4c.2.5 0 .4-3.9-2.4a50.7 50.7 0 0 0-3.7-2.6c-.2-.1-2 1-4.3 2.6-4.4 3.2-4.2 3.5-2.2-2.7 1.2-3.7 1.2-3.8.7-4.3l-4-2.8-3.2-2.5h4.8l5-.1 1.4-4.6c.8-2.5 1.5-4.5 1.6-4.4l1.6 4.5m-23.8 93.5c5.4 0 9.8 0 9.8.2l-7.8 5.8c-4.2 3.1-7.7 5.8-7.7 6a331.7 331.7 0 0 0 5.6 18.3l-14.3-10-1.5-1.2-7.8 5.6-8 5.6c0-.1 1-3.8 2.5-8.3a66 66 0 0 0 3.1-10.3l-8-5.8-7.8-5.8h9.9l9.9-.1 3-9.4 3.2-9.3 3 9.3 3.1 9.3h9.8"/>
  </g>
</svg>
