<svg xmlns="http://www.w3.org/2000/svg" width="400" height="400" display="block">
  <g fill-rule="evenodd">
    <path fill="#fff" d="M386.8.4c0 .2 0 .4.2.4l.2-.4c0-.2 0-.4-.2-.4l-.2.4m2.8 1.3c0 .3.6.8.7.7 0 0 0-.3-.3-.5l-.4-.2M282.3 61c-1.3.1-3.6.4-5 .7l-5 .8-3.3.7-3 .8-2.8.8c-.4.2-1.4.6-2.3.8-.9.2-2.1.6-2.8 1a35.7 35.7 0 0 0-8.3 3.8c-.7.3-1.5.8-1.8 1.1l-.9.5-1 .6c-.5.4-1.2.9-1.8 1.1l-.9.7s-.3.4-.8.6l-1.4 1-2 1.7a91.3 91.3 0 0 0-12 13.2 76.3 76.3 0 0 1-3.3 5.4l-1 1.9a52 52 0 0 0-3.7 8.5l-.8 2.3-.8 2.8-.8 2.8-1 4-.8 4.6c-1 4.4-1.2 13.3-1.2 38.6 0 20.8 0 21.9-.3 22.2-1 1 .3 1-26.3 1l-25 .1c-.8.5-.8.3-.8 30.2V244l.5.5.5.5h25c26 0 25.8 0 26.2.8.1.3.2 25.2.2 77.3V400h62.6v-77c0-49.5 0-77.2.2-77.4.3-.6.3-.6 25.7-.6h25l.4-.5c.3-.3.5-.7.6-2a81.5 81.5 0 0 0 1.3-9.6l.8-6.2.8-6.2c.2-2.3.6-5 .8-6.1.2-1 .6-3.9.8-6.3.2-2.4.6-5.2.8-6.2l.7-5.2c.3-3.4.6-5.7 1.2-8.8.3-1.8.1-2.6-.8-2.8l-28.9-.1h-28.3l-.4-.4c-.3-.3-.5-.7-.6-1-.3-.8 0-44.2.3-46.4a36.1 36.1 0 0 1 3.1-9.5 22.3 22.3 0 0 1 7.2-7c.4-.3 1.2-.6 1.7-.8l1.7-.7c.4-.3 1.7-.6 3-.9l3.7-.8c1.2-.3 3-.4 20.5-.5 18.6-.1 19.3-.1 19.7-.5l.4-.4V90.3c0-16.7 0-26-.2-26.5-.3-1-.6-1.1-6.9-1.5l-8.6-.6a466 466 0 0 0-39.8-.7M1.9 390c.2.2.4.4.5.3.1-.1-.4-.7-.7-.7l.2.4"/>
    <path fill="#3b5998" d="M13.6.4c0 .3-.2.4-1.6.4l-1.5.1v.7l-.1.8H9c-1.5 0-1.8.2-1.8 1 0 .5 0 .6-.8.6-.7.1-.7.1-.8.8 0 .7 0 .8-.8.8-.7.1-.7.1-.8.9 0 .6 0 .7-.6.7-.8 0-1 .3-1 1.8v1.4h-.8l-.7.1v1.6c-.1 1.3-.2 1.5-.5 1.5-.4 0-.4 1.5-.4 186.8 0 186.7 0 186.8.4 186.8s.4.1.4 1c0 1 0 1.3.8 2 .6.7.8 1 .8 1.7.1.8.1.8.8.9.7 0 .8 0 .8.8.1.7.1.7.8.8.7 0 .8 0 .8.8.1.7.1.7.8.8.7 0 .8 0 .8.8.1.7.1.7 1 .8.6 0 .8.1.8.4 0 .6.7 1 2 1.1 1 .1 1.2.2 1.2.5 0 .4 2.6.4 100.8.4h100.8v-77c0-52 0-77-.2-77.2-.4-.8-.2-.8-26.1-.8h-25.1l-.5-.5-.5-.5v-28.7c0-30 0-29.7.8-30.2l25-.1c26.6 0 25.3 0 26.3-1 .3-.3.3-1.4.3-22.2 0-25.3.3-34.2 1.2-38.6l.9-4.6.9-4 .8-2.8.8-2.8.8-2.3c.2-.8.6-1.7.8-2l.6-1.4a52 52 0 0 1 4.5-9l2.1-3.4a91.3 91.3 0 0 1 17.2-17.2l1.7-1 1-.7.9-.5c.3-.3 1.1-.8 1.8-1.1l2-1a35.7 35.7 0 0 1 6.3-2.8 15 15 0 0 1 2.8-1c.9-.2 2-.6 2.3-.8.5-.2 1.7-.6 2.9-.8l3-.8 3.2-.7 5-.8a277.5 277.5 0 0 1 53.4.6c6.3.4 6.6.4 6.9 1.5.1.4.2 9.8.2 26.5v25.8l-.4.4c-.4.4-1.1.4-19.7.5-17.5.1-19.3.2-20.5.5l-3.7.8a14.9 14.9 0 0 0-4.7 1.6c-.5.2-1.3.5-1.7.8l-1.5.9a22.3 22.3 0 0 0-6.4 7.4c-.6.9-2.2 6.1-2.4 8.2-.3 2.2-.6 45.6-.3 46.4 0 .3.3.7.6 1l.4.4h28.3l28.9.1c1 .2 1.1 1 .8 2.8-.6 3-.9 5.4-1.2 8.8a63 63 0 0 1-.7 5.2c-.2 1-.6 3.8-.8 6.2-.2 2.4-.6 5.3-.8 6.3-.2 1-.6 3.8-.8 6.1l-.8 6.2-.8 6.3a81.5 81.5 0 0 1-2 11.5l-.4.5h-24.9c-25.1 0-25.5 0-25.8.7l-.1 77.3v77h55.8c55.7 0 55.8 0 55.8-.4 0-.3.1-.4 1-.4 1.4 0 1.9-.2 2-1 .2-.5.3-.6 1-.6.7-.1.7-.1.8-.8 0-.7 0-.8.8-.8.7-.1.7-.1.8-.8 0-.7 0-.8.8-.8.7-.1.7-.1.8-.8 0-.7 0-.8.8-.8.7-.1.7-.1.8-.8 0-.7.1-.8.6-.9.7-.2 1-.7 1-2.1 0-.9 0-1 .4-1s.4-.1.4-188 0-188-.4-188c-.3 0-.4-.1-.4-.7 0-1.3-.4-2.1-1-2.2-.5-.1-.6-.2-.6-1-.1-.8-.1-.8-.8-.9-.7 0-.8 0-.8-.8-.1-.7-.1-.7-.8-.8-.7 0-.8 0-.8-.8-.1-.7-.1-.7-.8-.8-.7 0-.8 0-.8-.6 0-.7-.3-1-1.1-1-.5 0-.9-.2-1.5-.8-.7-.7-1-.8-1.7-.8-.8 0-.9 0-.9-.4 0-.2 0-.4-.2-.4l-.2.4c0 .2 0 .4-.2.4l-.2-.4c0-.4-.1-.4-186.6-.4C15.1 0 13.6 0 13.6.4m376.7 2c-.1.1-.7-.4-.7-.7l.4.2c.2.2.4.4.3.5M2.2 389.9c.4.5.1.6-.3.1l-.2-.4c.2 0 .4.1.5.3"/>
  </g>
</svg>
