<svg xmlns="http://www.w3.org/2000/svg" width="398.8" height="398.1" display="block">
  <g fill-rule="evenodd">
    <path fill="#fff" d="M83.7 55.2a34.2 34.2 0 1 0 39.5 35.7 34.5 34.5 0 0 0-39.5-35.7m179.8 89.6a63.1 63.1 0 0 0-48.2 26.4c-3.4 5.3-3.4 5.4-3.5-9.1l-.2-12.9-28-.1-28-.2.2 95 .1 94.9h57.8l.3-52.6c.3-44.8.5-53.4 1.2-57.8 3.4-21.5 13.5-31.3 32.6-32 19.2-.6 28.3 7.7 31.9 29.2.4 2.8.7 19 .9 58.5l.3 54.7h58.3l.1-58.9c0-32.3-.1-61.4-.4-64.5-2.9-36-14.5-56.2-37.5-65.4-10-4-25.4-6-38-5.2m-203.9 4.8c-.1.4-.2 43 0 95v94.2H118l.1-95 .1-94.9H89c-22.9 0-29.3.2-29.5.7"/>
    <path fill="#0274b3" d="M20.2 1.2a29.6 29.6 0 0 0-19 19.1c-1.6 4.6-1.6 352.2 0 357 3 9.4 10.9 17.1 20 19.8 4.8 1.4 352 1.2 356.7-.2a29 29 0 0 0 20.5-24.9c.3-3.2.5-69.3.4-177.2l-.2-172.2-1.3-3.4A30 30 0 0 0 378 1c-3.3-1-5-1-178.9-1H23.6l-3.4 1.2m77 54.6a34.7 34.7 0 0 1 24.4 43.7C110.7 132 64.2 130.4 56 97.2a34.3 34.3 0 0 1 41.2-41.4m184.4 89.5c32.4 3.2 51 22.5 56.1 58.6 1.6 11.2 1.8 17.9 1.7 76v58.9h-58.4l-.3-54.7c-.2-39.6-.5-55.7-1-58.5-3.5-21.5-12.6-29.8-31.8-29.1-19.1.6-29.2 10.4-32.6 31.9-.7 4.4-1 13-1.2 57.8l-.3 52.6H156l-.1-95-.2-94.9 28 .2 28 .1.2 12.9c.1 14.5.1 14.4 3.5 9.1 12.6-19.6 36-28.8 66.2-25.9M118 244l-.1 94.9H59.6l-.2-94.3.1-94.9c.2-.5 6.6-.7 29.5-.7H118v95"/>
  </g>
</svg>
