<svg xmlns="http://www.w3.org/2000/svg" width="363.2" height="363.2" display="block">
  <g fill-rule="evenodd">
    <path fill="#fff" d="M217.9 90.2a46.8 46.8 0 0 0-38.3 36.2c-.6 2.4-.8 14.8-.3 18.1l.3 1.9h-2.1a135.5 135.5 0 0 1-73.7-28.9A164 164 0 0 1 87 101.1c-2.5-3.1-2.6-3.1-3.6-1.4a52.2 52.2 0 0 0-3.6 34.5c2.2 8.6 8 17.4 15 23.1 2.7 2.2 2.7 2.8.1 2.4a48.7 48.7 0 0 1-17-5.3c-.7 0 0 7.1 1 11.6a47.3 47.3 0 0 0 32.4 33.6c1 0 1.8 1 1 1.3a49 49 0 0 1-16.9.4c-1.9-.3-1.7.4 1 6a45.9 45.9 0 0 0 36.7 25.9c1.5.1 2.8.4 2.9.7.5 1.5-16.6 11-25 13.9a84.7 84.7 0 0 1-32.2 5.2c-5.2 0-9.4 0-9.3.2 1.5 2.4 24.1 12.7 33.6 15.2l3.4 1a139.2 139.2 0 0 0 82.6-4.7 131.5 131.5 0 0 0 79.5-94.7l.8-4c1.6-7.6 2.3-14.9 2.3-23.3v-7l1.4-1.2c8.3-6.4 21-19.8 21-22.2 0-.4-1.3-.4-1.7 0a72.8 72.8 0 0 1-22.3 5.9c-.3-.2.4-.9 1.7-1.7a48.9 48.9 0 0 0 16-21.2c.8-2.2.8-2.2-5.2.8a115.2 115.2 0 0 1-8.7 3.9c-3.2 1.3-8 2.7-12.5 3.8l-2 .5-1.8-1.6A47 47 0 0 0 218 90.2"/>
    <path fill="#1da1f2" d="M0 181.6v181.6h363.2V0H0v181.6m232.4-91.4a48.7 48.7 0 0 1 25.1 12.5l1.7 1.6 2.1-.5a94.5 94.5 0 0 0 21.2-7.7c6-3 6-3 5.3-.8-2.7 7.6-9.9 17-16.1 21.2-1.3.8-2 1.5-1.7 1.7.5.3 7.7-1 11.8-2.3 4.5-1.3 10-3.2 10.5-3.6.4-.4 1.7-.4 1.7 0 0 2.4-12.7 15.8-21 22.2l-1.4 1.1v7.1a112.8 112.8 0 0 1-3.1 27.3 163 163 0 0 1-6.2 20.2 131.5 131.5 0 0 1-82.9 77.8 143.3 143.3 0 0 1-73 1.3l-3.4-.9c-9.5-2.5-32.1-12.8-33.6-15.2 0-.1 4.1-.2 9.3-.2 13 0 20.6-1.2 32.1-5.2 8.5-3 25.6-12.4 25-14 0-.2-1.3-.5-2.8-.6a45.9 45.9 0 0 1-36.6-25.8c-2.8-5.7-3-6.4-1.1-6a49 49 0 0 0 16.8-.5c1-.2.2-1.3-.9-1.3A47.3 47.3 0 0 1 78.8 166c-1-4.5-1.7-11.6-1-11.6l2.5 1.1c3.9 2 9.2 3.5 14.5 4.2 2.6.4 2.6-.2 0-2.4a46.7 46.7 0 0 1-16-26.7c-2.1-7.8.2-23.5 4.5-30.9 1-1.7 1-1.7 3.6 1.4a164 164 0 0 0 17 16.4 171.9 171.9 0 0 0 17 11.6 135.5 135.5 0 0 0 56.6 17.3h2l-.2-1.9c-.5-3.3-.3-15.7.3-18.1a46.7 46.7 0 0 1 52.8-36.2"/>
  </g>
</svg>
