<svg xmlns="http://www.w3.org/2000/svg" viewBox="0 0 88 86">
  <path fill="#207245" d="M46 0h6v8h30c1.7 0 3.6 0 5 1 1 1.4 1 3.3 1 5v52c0 3 .3 6-.4 8.8-.4 2-2.9 2.1-4.5 2.2H52v9h-6.2C30.5 83.2 15.3 80.7 0 78V8l46-8z"/>
  <path fill="#fff" d="M52 11h33v63H52v-6h8v-7h-8v-4h8v-7h-8v-4h8v-7h-8v-4h8v-7h-8v-4h8v-7h-8v-6z"/>
  <path fill="#207245" d="M64 17h14v7H64v-7z"/>
  <path fill="#fff" d="M29.6 26.4l6.8-.4-8 16.4L36.7 59l-7.3-.5c-1.6-4.1-3.7-8.2-5-12.5-1.3 4-3.2 7.9-4.8 11.9l-6.6-.3c2.6-5 5-10 7.7-15-2.2-5.2-4.7-10.3-7-15.4l6.6-.4c1.5 4 3.1 7.8 4.3 11.8 1.4-4.2 3.3-8.2 5-12.3z"/>
  <path fill="#207245" d="M64 28h14v7H64v-7zM64 39h14v7H64v-7zM64 50h14v7H64v-7zM64 61h14v7H64v-7z"/>
</svg>
